<?xml version="1.0" standalone="no"?>
<!DOCTYPE svg PUBLIC "-//W3C//DTD SVG 1.1//EN" "http://www.w3.org/Graphics/SVG/1.1/DTD/svg11.dtd" >
<svg xmlns="http://www.w3.org/2000/svg">
<metadata>
<json>
<![CDATA[
{
	"fontFamily": "fontisto-medical",
	"majorVersion": 3,
	"minorVersion": 4,
	"description": "fontisto, iconic font and css toolkit",
	"copyright": "@kenangundogan",
	"designer": "Kenan Gündoğan",
	"designerURL": "http://www.kenangundogan.com",
	"license": "MIT",
	"licenseURL": "https://opensource.org/licenses/mit-license.html",
	"fontURL": "http://www.fontisto.com",
	"version": "Version 3.4",
	"fontId": "fontisto-medical",
	"psName": "fontisto-medical",
	"subFamily": "Regular",
	"fullName": "fontisto-medical"
}
]]>
</json>
</metadata>
<defs>
<font id="fontisto-medical" horiz-adv-x="1024">
<font-face units-per-em="1024" ascent="960" descent="-64" />
<missing-glyph horiz-adv-x="1024" />
<glyph unicode="&#x20;" horiz-adv-x="512" d="" />
<glyph unicode="&#xeb49;" glyph-name="aids" data-tags="aids" horiz-adv-x="673" d="M446.703 370.313l-99.806-161.041 182.647-294.571 143.77 89.020zM578.355 938.667h-483.396l-94.959-169.404 226.679-366.080 99.806 161.314-126.805 204.8h273.818l-473.498-765.611 144.043-89.020 529.271 854.596z" />
<glyph unicode="&#xeb4a;" glyph-name="ambulance" data-tags="ambulance" horiz-adv-x="1486" d="M1473.434 471.791l-241.562 350.857c-7.925 11.254-20.837 18.534-35.454 18.603h-214.232v54.613c0 0.020 0 0.044 0 0.068 0 23.489-19.041 42.53-42.53 42.53-0.012 0-0.024 0-0.036 0h-897.056c-0.030 0-0.066 0-0.103 0-23.451 0-42.462-19.011-42.462-42.462 0-0.036 0-0.072 0-0.108v0.006-791.893c0.019-14.898 12.072-26.975 26.96-27.034h127.255c-0.011 0.751-0.017 1.638-0.017 2.526 0 103.23 83.684 186.914 186.914 186.914s186.914-83.684 186.914-186.914c0-0.888-0.006-1.775-0.019-2.66l0.001 0.134h301.431c-0.011 0.751-0.017 1.638-0.017 2.526 0 103.23 83.684 186.914 186.914 186.914s186.914-83.684 186.914-186.914c0-0.888-0.006-1.775-0.019-2.66l0.001 0.134h255.283c14.893 0.058 26.946 12.135 26.965 27.032v331.095c-0.517 13.784-4.947 26.438-12.203 36.999l0.154-0.237zM650.65 570.164h-115.098v-115.063h-104.448v114.961h-115.098v104.516h115.098v115.507h104.448v-115.063h115.098zM1414.519 459.64c-1.633-2.97-4.742-4.949-8.312-4.949-0.006 0-0.011 0-0.017 0h-423.935v335.394h189.918c13.464-0.081 25.353-6.75 32.616-16.943l0.084-0.123 209.306-303.787c0.961-1.38 1.535-3.091 1.535-4.936 0-1.573-0.417-3.049-1.148-4.323l0.022 0.042zM340.753 238.353c-0.010 0-0.022 0-0.034 0-89.393 0-161.86-72.467-161.86-161.86s72.467-161.86 161.86-161.86c89.393 0 161.86 72.467 161.86 161.86 0 0.036 0 0.072 0 0.108v-0.005c-0.078 89.329-72.492 161.719-161.822 161.758h-0.004zM340.753 21.47c-30.426 0-55.091 24.665-55.091 55.091s24.665 55.091 55.091 55.091c30.426 0 55.091-24.665 55.091-55.091 0-0.012 0-0.024 0-0.036v0.002c0-30.407-24.65-55.057-55.057-55.057-0.012 0-0.024 0-0.036 0h0.002zM1016.115 238.353c-0.010 0-0.022 0-0.034 0-89.393 0-161.86-72.467-161.86-161.86s72.467-161.86 161.86-161.86c89.393 0 161.86 72.467 161.86 161.86 0 0.036 0 0.072 0 0.108v-0.005c-0.078 89.329-72.492 161.719-161.822 161.758h-0.004zM1016.115 21.47c-30.426 0-55.091 24.665-55.091 55.091s24.665 55.091 55.091 55.091c30.426 0 55.091-24.665 55.091-55.091 0-0.012 0-0.024 0-0.036v0.002c0-30.407-24.65-55.057-55.057-55.057-0.012 0-0.024 0-0.036 0h0.002zM1143.74 856.303v30.379c0.069 0.742 0.108 1.604 0.108 2.476 0 14.55-10.93 26.548-25.027 28.231l-0.135 0.013h-47.787c-14.218-1.537-25.188-13.473-25.188-27.972 0-0.968 0.049-1.924 0.144-2.867l-0.010 0.119v-30.379z" />
<glyph unicode="&#xeb4b;" glyph-name="bandage" data-tags="bandage" d="M674.782 840.704c29.518 29.418 70.243 47.607 115.217 47.607s85.699-18.189 115.221-47.612l20.988-20.988c29.418-29.518 47.607-70.243 47.607-115.217s-18.189-85.699-47.612-115.221l-91.2-91.2 35.772-35.806 91.204 91.204c38.591 38.614 62.458 91.946 62.458 150.852s-23.868 112.239-62.46 150.853l-20.991 20.991c-38.615 38.601-91.954 62.476-150.869 62.476s-112.254-23.874-150.87-62.476l-91.204-91.204 35.772-35.806zM440.866 103.936l-91.204-91.204c-29.514-29.427-70.241-47.621-115.217-47.621s-85.703 18.195-115.221 47.625l0.004-0.004-20.992 20.958c-29.41 29.522-47.593 70.246-47.593 115.217s18.183 85.696 47.598 115.222l91.199 91.199-35.772 35.806-91.204-91.204c-38.601-38.615-62.476-91.954-62.476-150.869s23.874-112.254 62.476-150.87l-0.001 0.001 20.992-20.958c38.611-38.609 91.952-62.49 150.869-62.49s112.258 23.88 150.869 62.49l91.204 91.204zM961.946 299.862l-576.307 576.307c-38.611 38.609-91.952 62.49-150.869 62.49s-112.258-23.88-150.869-62.49v0l-20.992-20.958c-38.601-38.615-62.476-91.954-62.476-150.869s23.874-112.254 62.476-150.87l576.307-576.272c38.611-38.609 91.952-62.49 150.869-62.49s112.258 23.88 150.869 62.49l20.992 20.992c38.46 38.673 62.233 91.986 62.233 150.852s-23.773 112.179-62.243 150.862l0.009-0.010zM225.212 462.473l-126.805 126.805c-29.418 29.518-47.607 70.243-47.607 115.217s18.189 85.699 47.612 115.221l-0.004-0.004 20.992 20.958c29.518 29.418 70.243 47.607 115.217 47.607s85.699-18.189 115.221-47.612l126.801-126.801zM926.106 33.963l-20.992-20.992c-29.522-29.41-70.246-47.593-115.217-47.593s-85.696 18.183-115.222 47.598l-126.8 126.766 251.46 251.46 126.805-126.805c29.5-29.532 47.743-70.312 47.743-115.354s-18.244-85.822-47.745-115.355l0.001 0.001zM395.127 679.732c4.384 4.334 7.1 10.348 7.1 16.996 0 13.196-10.697 23.893-23.893 23.893s-23.893-10.697-23.893-23.893c0-6.648 2.715-12.662 7.097-16.994l0.002-0.002c4.279-4.338 10.223-7.025 16.794-7.025s12.514 2.687 16.791 7.022l0.003 0.003zM225.519 849.306c-4.384-4.334-7.1-10.348-7.1-16.996 0-13.196 10.697-23.893 23.893-23.893s23.893 10.697 23.893 23.893c0 6.648-2.715 12.662-7.097 16.994l-0.002 0.002c-4.313 4.264-10.246 6.897-16.794 6.897s-12.48-2.634-16.796-6.9l0.002 0.002zM225.519 577.536c-4.384-4.334-7.1-10.348-7.1-16.996 0-13.196 10.697-23.893 23.893-23.893s23.893 10.697 23.893 23.893c0 6.648-2.715 12.662-7.097 16.994l-0.002 0.002c-4.313 4.264-10.246 6.897-16.794 6.897s-12.48-2.634-16.796-6.9l0.002 0.002zM89.498 713.558c-4.384-4.334-7.1-10.348-7.1-16.996 0-13.196 10.697-23.893 23.893-23.893s23.893 10.697 23.893 23.893c0 6.648-2.715 12.662-7.097 16.994l-0.002 0.002c-4.313 4.264-10.246 6.897-16.794 6.897s-12.48-2.634-16.796-6.9l0.002 0.002zM259.038 679.424c4.384 4.334 7.1 10.348 7.1 16.996 0 13.196-10.697 23.893-23.893 23.893s-23.893-10.697-23.893-23.893c0-6.648 2.715-12.662 7.097-16.994l0.002-0.002c4.313-4.264 10.246-6.897 16.794-6.897s12.48 2.634 16.796 6.9l-0.002-0.002zM935.356 173.398c-4.334 4.384-10.348 7.1-16.996 7.1-13.196 0-23.893-10.697-23.893-23.893s10.697-23.893 23.893-23.893c6.648 0 12.662 2.715 16.994 7.097l0.002 0.002c4.264 4.313 6.897 10.246 6.897 16.794s-2.634 12.48-6.9 16.796l0.002-0.002zM765.406 309.419c-4.384-4.334-7.1-10.348-7.1-16.996 0-13.196 10.697-23.893 23.893-23.893s23.893 10.697 23.893 23.893c0 6.648-2.715 12.662-7.097 16.994l-0.002 0.002c-4.313 4.264-10.246 6.897-16.794 6.897s-12.48-2.634-16.796-6.9l0.002 0.002zM765.406 37.649c-4.384-4.334-7.1-10.348-7.1-16.996 0-13.196 10.697-23.893 23.893-23.893s23.893 10.697 23.893 23.893c0 6.648-2.715 12.662-7.097 16.994l-0.002 0.002c-4.313 4.264-10.246 6.897-16.794 6.897s-12.48-2.634-16.796-6.9l0.002 0.002zM629.692 173.398c-4.384-4.334-7.1-10.348-7.1-16.996 0-13.196 10.697-23.893 23.893-23.893s23.893 10.697 23.893 23.893c0 6.648-2.715 12.662-7.097 16.994l-0.002 0.002c-4.313 4.264-10.246 6.897-16.794 6.897s-12.48-2.634-16.796-6.9l0.002 0.002zM798.993 139.469c4.384 4.334 7.1 10.348 7.1 16.996 0 13.196-10.697 23.893-23.893 23.893s-23.893-10.697-23.893-23.893c0-6.648 2.715-12.662 7.097-16.994l0.002-0.002c4.313-4.264 10.246-6.897 16.794-6.897s12.48 2.634 16.796 6.9l-0.002-0.002z" />
<glyph unicode="&#xeb4c;" glyph-name="bed-patient" data-tags="bed-patient" d="M943.002 463.053v-73.865h-861.764v264.772h-81.237v-529.681h81.237v121.037h861.764v-131.14h80.998v348.945zM371.575 462.302c0-0.010 0-0.022 0-0.034 0-24.073-19.515-43.588-43.588-43.588-0.012 0-0.024 0-0.036 0h-166.057c-0.010 0-0.022 0-0.034 0-24.073 0-43.588 19.515-43.588 43.588 0 0.012 0 0.024 0 0.036v-0.002c0 0.010 0 0.022 0 0.034 0 24.073 19.515 43.588 43.588 43.588 0.012 0 0.024 0 0.036 0h166.057c0.010 0 0.022 0 0.034 0 24.073 0 43.588-19.515 43.588-43.588 0-0.012 0-0.024 0-0.036v0.002zM842.377 633.003h-101.137v100.864h-71.68v-100.898h-100.898v-71.68h100.864v-100.898h71.68v100.898h101.137z" />
<glyph unicode="&#xeb4d;" glyph-name="blood-drop" data-tags="blood-drop" horiz-adv-x="647" d="M624.947 355.704c-1.417 3.893-2.832 7.090-4.427 10.18l0.228-0.486c-6.212 14.541-56.32 111.309-64.683 124.518l-232.585 448.751-238.524-459.776c-8.090-13.21-52.565-98.987-58.709-113.493l-2.423-5.393c-15.070-36.042-23.825-77.921-23.825-121.845 0-178.654 144.828-323.482 323.482-323.482s323.482 144.828 323.482 323.482c0 0.080 0 0.16 0 0.241v-0.012c0.020 1.283 0.031 2.796 0.031 4.312 0 40.747-8.113 79.599-22.813 115.029l0.732-1.991zM323.618-0.785c-131.617 0.004-238.311 106.702-238.311 238.319 0 41.495 10.605 80.513 29.252 114.492l-0.622-1.238c-2.944-15.143-4.645-32.57-4.676-50.389v-0.026c0.078-157.754 127.942-285.618 285.689-285.696h0.007c4.813 0 9.967 0 14.78 0.239-25.362-9.941-54.729-15.703-85.442-15.703-0.322 0-0.644 0.001-0.966 0.002h0.050z" />
<glyph unicode="&#xeb4e;" glyph-name="blood-test" data-tags="blood-test" d="M740.489 79.736l111.616 6.212 6.519 111.582-212.378 212.378-118.067-117.828zM436.736 870.093l-66.253-66.253-86.016 86.016c-30.501 32.64-73.807 52.984-121.865 52.984-92.032 0-166.639-74.607-166.639-166.639 0-48.057 20.343-91.363 52.888-121.776l0.096-0.089 86.050-86.016-66.253-66.253 83.934-83.934 70.963 70.997 492.032-491.998 155.853 8.841 91.136-91.136 61.85 61.85-91.136 91.136 8.841 155.853-491.998 491.998 70.997 70.997zM876.203 61.645l-139.366-7.953-474.112 474.112 147.319 147.319 474.112-474.112z" />
<glyph unicode="&#xeb4f;" glyph-name="blood" data-tags="blood" horiz-adv-x="609" d="M304.094 272.726c122.735 0.155 222.189 99.609 222.345 222.329v191.401h-444.655v-191.386c0.155-122.723 99.59-222.17 222.294-222.345h0.017zM109.807 661.026h78.507v-17.306h-78.507zM109.807 598.119h78.507v-17.306h-78.507zM109.807 535.45h78.507v-17.306h-78.507zM109.807 472.542h78.507v-17.306h-78.507zM553.745 938.667h-553.745v-443.733c0.17-147.505 105.172-270.437 244.499-298.308l1.944-0.324v-11.537c0-8.943 9.694-16.009 21.743-16.009h18.364v-62.123h-6.827c-0.010 0-0.022 0-0.034 0-6.504 0-11.776-5.272-11.776-11.776 0 0 0 0 0 0v0-91.75c0-0.020 0-0.044 0-0.068 0-6.466 5.242-11.708 11.708-11.708 0.024 0 0.048 0 0.072 0h6.823v-76.663h35.43v76.561h6.827c0.020 0 0.044 0 0.068 0 6.504 0 11.776 5.272 11.776 11.776 0 0 0 0 0 0v0 91.955c0 0 0 0 0 0 0 6.504-5.272 11.776-11.776 11.776-0.024 0-0.048 0-0.072 0h-6.823v62.123h18.364c12.22 0 21.811 7.066 21.811 16.009v11.537c141.264 28.208 246.258 151.132 246.443 298.612v443.753zM553.745 494.934c-1.648-136.599-112.767-246.698-249.6-246.698s-247.952 110.1-249.599 246.543l-0.001 0.156v389.12h499.2zM109.875 849.511h78.37v-17.306h-78.37v17.306zM109.875 786.603h78.37v-17.306h-78.37v17.306zM109.875 723.661h78.37v-17.306h-78.37v17.306z" />
<glyph unicode="&#xeb50;" glyph-name="dna" data-tags="dna" horiz-adv-x="543" d="M446.703 411.546c-29.565-22.001-64.374-38.918-102.076-48.632l-2.065-0.451c60.948-27.724 102.598-88.012 102.775-158.048v-289.747h97.826v289.724c-0.215 82.908-37.479 157.069-96.103 206.831l-0.392 0.324zM96.495 442.437c29.557 21.992 64.353 38.908 102.040 48.631l2.067 0.452c-60.948 27.724-102.598 88.012-102.775 158.048v289.098h-97.826v-289.178c0.252-82.869 37.508-156.985 96.104-206.729l0.391-0.324zM445.065 938.667c0-306.347 1.092-291.089-1.673-312.354-11.88-85.198-84.209-150.082-171.714-150.187h-0.011v-0.273c-149.699-0.541-270.906-121.76-271.428-271.412v-289.774h97.826v289.724c0.31 95.614 77.746 173.039 173.335 173.329h0.028v0.239c149.734 0.426 271.003 121.694 271.428 271.388v289.321h-97.826zM142.882 898.048h257.263c11.311 0 20.48 9.169 20.48 20.48v0c0 0.001 0 0.002 0 0.002 0 11.141-9.032 20.173-20.173 20.173-0.108 0-0.216-0.001-0.323-0.003h-257.247c-0.792 0.109-1.708 0.171-2.638 0.171-11.311 0-20.48-9.169-20.48-20.48s9.169-20.48 20.48-20.48c0.93 0 1.846 0.062 2.743 0.182l-0.105-0.011zM142.882 802.031h257.263c11.311 0 20.48 9.169 20.48 20.48s-9.169 20.48-20.48 20.48v0h-257.263c-11.311 0-20.48-9.169-20.48-20.48s9.169-20.48 20.48-20.48v0zM142.882 705.844h257.263c11.311 0 20.48 9.169 20.48 20.48s-9.169 20.48-20.48 20.48v0h-257.263c-11.311 0-20.48-9.169-20.48-20.48v0c0.17-11.242 9.238-20.31 20.464-20.48h0.016zM415.676 630.136c-0.018 11.146-9.058 20.175-20.207 20.175-0.096 0-0.192-0.001-0.288-0.002h-247.656c-10.119-1.352-17.842-9.929-17.842-20.309s7.723-18.957 17.737-20.298l0.105-0.011h247.774c11.311 0 20.48 9.169 20.48 20.48v0zM204.459 557.090c-11.311 0-20.48-9.169-20.48-20.48s9.169-20.48 20.48-20.48c0 0 0 0 0 0h134.349c11.311 0 20.48 9.169 20.48 20.48s-9.169 20.48-20.48 20.48c0 0 0 0 0 0v0zM400.418-43.622h-257.263c-11.311 0-20.48-9.169-20.48-20.48s9.169-20.48 20.48-20.48h257.297c11.311 0 20.48 9.169 20.48 20.48v0c-0.152 11.249-9.231 20.328-20.466 20.48h-0.014zM400.418 52.293h-257.263c-11.311 0-20.48-9.169-20.48-20.48s9.169-20.48 20.48-20.48c0 0 0 0 0 0h257.297c11.311 0 20.48 9.169 20.48 20.48s-9.169 20.48-20.48 20.48c0 0 0 0 0 0v0zM400.418 148.549h-257.263c-11.311 0-20.48-9.169-20.48-20.48s9.169-20.48 20.48-20.48h257.297c11.311 0 20.48 9.169 20.48 20.48v0c-0.171 11.253-9.258 20.329-20.5 20.48h-0.014zM127.283 223.983c0-11.311 9.169-20.48 20.48-20.48v0h247.74c11.311 0 20.48 9.169 20.48 20.48s-9.169 20.48-20.48 20.48c0 0 0 0 0 0h-247.74c-11.311 0-20.48-9.169-20.48-20.48v0zM338.773 299.998c11.311 0 20.48 9.169 20.48 20.48s-9.169 20.48-20.48 20.48c0 0 0 0 0 0h-134.315c-11.311 0-20.48-9.169-20.48-20.48s9.169-20.48 20.48-20.48c0 0 0 0 0 0v0z" />
<glyph unicode="&#xeb51;" glyph-name="doctor" data-tags="doctor" horiz-adv-x="914" d="M278.596 593.135l5.973 0.512c2.261 0.25 4.295 1.057 6.012 2.279l-0.039-0.026c5.734-19.729 12.732-40.448 21.47-62.157 11.231-28.431 22.292-51.764 34.643-74.289l-1.705 3.394c-1.024-15.531-2.253-31.471-3.891-46.933-0.757-9.535-2.624-18.368-5.484-26.741l0.227 0.765c-0.512-0.205-1.229-88.747-1.229-88.747 0.030-57.708 40.012-106.068 93.785-118.923l0.833-0.168c2.411 6.185 8.312 10.492 15.221 10.513h24.477c6.879-0.095 12.74-4.355 15.183-10.368l0.040-0.111c54.744 12.899 94.899 61.244 95.095 119.001v0.022s-1.502 88.166-2.253 88.747c-2.36 7.459-4.21 16.257-5.201 25.313l-0.056 0.628c-1.502 15.531-2.492 31.095-3.891 46.933 10.536 19.012 21.595 42.342 31.315 66.357l1.623 4.538c8.738 21.709 15.531 42.428 21.47 62.157 1.678-1.198 3.712-2.005 5.916-2.248l0.057-0.005 6.007-0.512c7.236-0.751 13.653 5.222 14.234 14.473l6.485 82.398c0 0.031 0 0.067 0 0.103 0 6.951-5.195 12.689-11.914 13.544l-0.068 0.007h-0.717c1.666 11.969 2.617 25.797 2.617 39.847 0 30.642-4.523 60.228-12.938 88.126l0.559-2.158c-24.639 53.995-73.446 93.235-132.203 104.172l-1.122 0.173c-12.62 2.612-27.329 4.331-42.359 4.77l-0.376 0.009h-0.512c-15.306-0.305-30.026-2.018-44.273-5.015l1.538 0.271c-59.804-11.282-108.543-50.459-132.856-103.212l-0.468-1.133c-7.925-25.597-12.49-55.024-12.49-85.518 0-14.212 0.991-28.192 2.909-41.875l-0.181 1.577c-6.786-0.747-12.018-6.449-12.018-13.372 0-0.099 0.001-0.197 0.003-0.296v0.015l6.485-82.398c0.614-9.489 7.066-15.189 14.063-14.438zM913.749 47.889c-3.004 129.707-15.974 159.061-22.972 178.961-2.765 7.987-5.018 61.918-94.14 96.905-54.613 21.504-125.099 21.948-184.764 47.138v-70.144c-0.125-75.434-54.14-138.215-125.596-151.909l-0.971-0.155c-1.33-7.746-7.96-13.577-15.966-13.653h-0.759v-52.907c0-51.709 41.919-93.628 93.628-93.628s93.628 41.919 93.628 93.628v0 36.966c-25.931 3.873-45.593 25.988-45.593 52.695 0 29.408 23.84 53.248 53.248 53.248s53.248-23.84 53.248-53.248c0-23.303-14.969-43.11-35.817-50.329l-0.374-0.113v-39.151c0.011-0.598 0.017-1.303 0.017-2.010 0-65.358-52.983-118.34-118.34-118.34s-118.34 52.983-118.34 118.34c0 0.707 0.006 1.412 0.019 2.116l-0.001-0.106v53.385c-7.603 0.529-13.732 6.215-14.938 13.559l-0.013 0.094c-72.121 14.019-125.852 76.584-126.054 151.735v70.712c-59.904-25.737-130.799-26.249-185.719-47.787-89.361-34.953-91.375-88.747-94.14-96.87-6.827-19.968-19.968-49.186-22.972-178.995-0.512-17.067 0-43.213 51.439-66.082 112.060-43.93 256.375-57.617 398.677-67.413h13.653c142.575 9.728 286.72 23.347 398.677 67.413 51.234 22.733 51.712 48.742 51.234 65.946zM287.369 100.796h-53.18v-53.385h-37.956v53.214h-53.18v37.956h53.18v53.18h37.956v-53.18h53.18zM692.258 172.169c0 0.010 0 0.022 0 0.034 0 15.854-12.852 28.706-28.706 28.706s-28.706-12.852-28.706-28.706c0-15.854 12.852-28.706 28.706-28.706v0c15.842 0 28.687 12.833 28.706 28.67v0.002z" />
<glyph unicode="&#xeb52;" glyph-name="drug-pack" data-tags="drug-pack" d="M335.735 925.457l-322.492-322.526c-8.173-8.121-13.232-19.367-13.232-31.795s5.059-23.675 13.229-31.793l611.432-611.467c8.11-8.169 19.345-13.226 31.761-13.226s23.651 5.057 31.758 13.223l322.529 322.529c8.165 8.124 13.217 19.37 13.217 31.795s-5.053 23.671-13.216 31.793l-611.398 611.432c-8.119 8.163-19.359 13.215-31.778 13.215s-23.659-5.052-31.776-13.213l-0.002-0.002zM705.434 59.426c-11.203-11.134-26.643-18.016-43.691-18.016-34.234 0-61.986 27.752-61.986 61.986s27.752 61.986 61.986 61.986c34.234 0 61.986-27.752 61.986-61.986 0-0.002 0-0.005 0-0.007v0c-0.022-17.181-7.011-32.725-18.293-43.962l-0.002-0.002zM587.23 177.357c-11.185-11.089-26.587-17.942-43.588-17.942-34.196 0-61.918 27.722-61.918 61.918s27.722 61.918 61.918 61.918c34.196 0 61.918-27.722 61.918-61.918 0-0.004 0-0.009 0-0.013v0.001c-0.036-17.185-7.036-32.727-18.327-43.961l-0.003-0.003zM469.026 295.561c-11.203-11.134-26.643-18.016-43.691-18.016-34.234 0-61.986 27.752-61.986 61.986s27.752 61.986 61.986 61.986c34.234 0 61.986-27.752 61.986-61.986 0-0.002 0-0.005 0-0.007v0c-0.026-17.18-7.014-32.723-18.294-43.962l-0.002-0.002zM350.822 413.765c-11.16-11.033-26.51-17.848-43.452-17.848-34.14 0-61.815 27.676-61.815 61.815s27.676 61.815 61.815 61.815c34.14 0 61.815-27.676 61.815-61.815 0-0.013 0-0.026 0-0.039v0.002c-0.055-17.177-7.066-32.705-18.36-43.926l-0.003-0.003zM232.892 531.968c-11.16-11.033-26.51-17.848-43.452-17.848-34.14 0-61.815 27.676-61.815 61.815s27.676 61.815 61.815 61.815c34.14 0 61.815-27.676 61.815-61.815 0-0.013 0-0.026 0-0.039v0.002c-0.055-17.177-7.066-32.705-18.36-43.926l-0.003-0.003zM879.070 233.097c-11.175-11.057-26.549-17.888-43.52-17.888-34.177 0-61.884 27.706-61.884 61.884s27.706 61.884 61.884 61.884c34.177 0 61.884-27.706 61.884-61.884 0-0.023 0-0.046 0-0.070v0.004c-0.051-17.177-7.062-32.707-18.36-43.926l-0.004-0.004zM760.866 351.301c-11.175-11.057-26.549-17.888-43.52-17.888-34.177 0-61.884 27.706-61.884 61.884s27.706 61.884 61.884 61.884c34.177 0 61.884-27.706 61.884-61.884 0-0.023 0-0.046 0-0.070v0.004c-0.051-17.177-7.062-32.707-18.36-43.926l-0.004-0.004zM642.662 469.504c-11.175-11.057-26.549-17.888-43.52-17.888-34.177 0-61.884 27.706-61.884 61.884s27.706 61.884 61.884 61.884c34.177 0 61.884-27.706 61.884-61.884 0-0.023 0-0.046 0-0.070v0.004c-0.051-17.177-7.062-32.707-18.36-43.926l-0.004-0.004zM524.732 587.435c-11.16-11.033-26.51-17.848-43.452-17.848-34.14 0-61.815 27.676-61.815 61.815s27.676 61.815 61.815 61.815c34.14 0 61.815-27.676 61.815-61.815 0-0.013 0-0.026 0-0.039v0.002c-0.051-17.177-7.062-32.707-18.36-43.926l-0.004-0.004zM406.528 705.639c-11.16-11.033-26.51-17.848-43.452-17.848-34.14 0-61.815 27.676-61.815 61.815s27.676 61.815 61.815 61.815c34.14 0 61.815-27.676 61.815-61.815 0-0.013 0-0.026 0-0.039v0.002c-0.051-17.177-7.062-32.707-18.36-43.926l-0.004-0.004z" />
<glyph unicode="&#xeb53;" glyph-name="first-aid-alt" data-tags="first-aid-alt" horiz-adv-x="1178" d="M1077.726 759.228h-267.264v86.323c-0.058 51.403-41.713 93.057-93.11 93.116h-256.654c-51.403-0.058-93.057-41.713-93.116-93.11v-86.329h-267.605c-55.197 0-99.942-44.746-99.942-99.942v0-644.71c0-55.197 44.746-99.942 99.942-99.942v0h977.988c55.197 0 99.942 44.746 99.942 99.942v0 644.71c0 0.010 0 0.022 0 0.035 0 55.178-44.73 99.908-99.908 99.908-0.096 0-0.192 0-0.288 0h0.015zM447.283 845.551c0 0.020 0 0.044 0 0.068 0 7.258 5.884 13.141 13.141 13.141 0.024 0 0.048 0 0.072 0h256.883c0.041 0 0.089 0.001 0.137 0.001 7.239 0 13.107-5.868 13.107-13.107 0-0.036 0-0.072 0-0.109v0.006-86.323h-283.307zM588.902 52.361c-157.239 0-284.706 127.467-284.706 284.706s127.467 284.706 284.706 284.706c157.239 0 284.706-127.467 284.706-284.706v0c-0.020-157.212-127.46-284.653-284.67-284.672h-0.002zM659.012 538.693h-140.902v-130.901h-131.14v-141.312h131.311v-130.901h140.902v131.072h131.311v141.312h-131.516z" />
<glyph unicode="&#xeb54;" glyph-name="heart-alt" data-tags="heart-alt" horiz-adv-x="1178" d="M1175.347 623.343c-12.732 97.314-64.58 266.24-267.605 306.415-24.97 5.282-53.816 8.506-83.345 8.905l-0.316 0.003h-6.212c-88.804-0.526-169.413-35.187-229.457-91.511l0.183 0.17c-60.093 56.295-141.025 90.985-230.056 91.341h-5.43c-29.846-0.405-58.692-3.629-86.599-9.419l2.939 0.51c-236.954-46.558-265.489-280.883-267.605-307.541v-0.887c-12.186-127.863 20.173-452.164 574.805-701.303l12.186-5.359 11.844 5.359c584.704 262.554 587.674 604.809 574.669 703.317zM564.907 788.446l23.45-22.835 23.45 22.835c51.967 54.94 124.837 89.644 205.823 91.336l0.308 0.005h5.018c26.216-0.468 51.481-3.254 75.977-8.165l-2.693 0.45c166.98-32.939 209.988-174.694 220.945-256.239 1.407-12.744 2.209-27.521 2.209-42.485 0-72.324-18.745-140.271-51.642-199.246l1.066 2.081c-78.882-153.907-240.572-287.403-480.495-397.175-508.962 232.55-539.511 522.24-528.828 636.723v1.195c2.082 22.255 25.498 216.849 220.672 255.386 21.692 4.442 46.836 7.228 72.543 7.708l0.4 0.006h5.632c81.339-1.753 154.223-36.543 206.032-91.438l0.133-0.142z" />
<glyph unicode="&#xeb55;" glyph-name="heartbeat-alt" data-tags="heartbeat-alt" d="M934.775 472.406h89.225v-86.187h-89.225v86.187zM779.674 472.406h89.225v-86.187h-89.225v86.187zM522.752 472.372l-28.023-94.515-160.939 355.977-83.388-263.27h-250.402v-86.187h313.446l34.577 108.851 163.567-362.052 75.093 255.078h126.839v86.187z" />
<glyph unicode="&#xeb56;" glyph-name="heartbeat" data-tags="heartbeat" horiz-adv-x="983" d="M797.969 938.701h-612.796c-102.252-0.058-185.13-82.924-185.207-185.166v-510.472c0.058-102.271 82.939-185.164 185.2-185.242h146.781v-60.279h-170.667v-82.842h661.026v82.842h-170.667v60.279h146.534c102.264 0.058 185.149 82.944 185.207 185.202v510.469c0 0.020 0 0.044 0 0.068 0 102.231-82.874 185.105-185.105 185.105-0.096 0-0.192 0-0.288 0h0.015zM859.785 242.722c0-0.010 0-0.022 0-0.034 0-34.14-27.676-61.815-61.815-61.815h-612.796c-0.010 0-0.022 0-0.034 0-34.121 0-61.781 27.66-61.781 61.781 0 0.012 0 0.024 0 0.036v-0.002 212.446h292.523l26.556 86.596 122.88-279.040 55.671 193.877h238.66v-213.948zM859.785 518.213h-284.774l-21.641-75.708-120.9 274.569-61.815-200.329h-247.33v236.51c0 34.147 27.672 61.83 61.814 61.85h612.798c34.14 0 61.815-27.676 61.815-61.815 0-0.012 0-0.024 0-0.036v0.002z" />
<glyph unicode="&#xeb57;" glyph-name="helicopter-ambulance" data-tags="helicopter-ambulance" d="M122.061 425.268c-0.173-0.001-0.378-0.002-0.583-0.002-52.991 0-95.949 42.958-95.949 95.949s42.958 95.949 95.949 95.949c34.916 0 65.477-18.651 82.262-46.533l0.241-0.432h29.184c-19.331 43.239-61.967 72.824-111.512 72.824-67.262 0-121.788-54.526-121.788-121.788s54.526-121.788 121.788-121.788c42.966 0 80.736 22.25 102.415 55.856l0.29 0.48-26.317 7.373c-17.697-22.929-45.096-37.625-75.938-37.888h-0.043zM1004.885 415.813c-74.501 110.624-199.279 182.424-340.827 182.424-2.23 0-4.456-0.018-6.678-0.053l0.335 0.004h-2.833l-7.578 31.539-7.817 0.478-13.653-0.717-4.267-32.939c-40.782-1.305-77.668-16.982-105.987-42.101l0.174 0.151h-409.6l26.556-56.9 324.267-91.307c4.684-81.388 65.232-147.334 143.656-160.29l1.001-0.137-11.844-34.406h-85.333c-10.085 0-18.261-8.176-18.261-18.261s8.176-18.261 18.261-18.261h440.32c10.085 0 18.261 8.176 18.261 18.261s-8.176 18.261-18.261 18.261h-68.062l-16.828 34.406c85.845 8.090 137.318 32.051 157.013 73.284 4.621 11.108 7.305 24.011 7.305 37.541 0 22.134-7.183 42.59-19.345 59.165l0.196-0.28zM598.938 396.152v-40.073h-47.206v40.073h-39.765v47.206h40.073v40.073h47.206v-40.073h40.073v-47.206zM620.271 211.627l11.059 32.461h196.369l15.906-32.461zM998.059 380.246c-4.868-9.238-14.405-15.428-25.389-15.428-0.002 0-0.005 0-0.007 0h-153.6c-88.369 1.019-159.612 72.893-159.612 161.406 0 0.448 0.002 0.895 0.005 1.342v-0.069 6.178c0 4.506 0.273 9.011 0.478 13.653 1.697 21.082 19.224 37.548 40.597 37.548 0.128 0 0.255-0.001 0.382-0.002h-0.019c0.272 0.009 0.592 0.014 0.913 0.014 1.266 0 2.514-0.080 3.738-0.234l-0.146 0.015c121.882-11.42 226.234-77.694 289.229-173.569l0.905-1.467c3.494-4.569 5.599-10.362 5.599-16.646 0-4.644-1.149-9.020-3.179-12.858l0.072 0.15zM935.151 608.359c0.707-0.094 1.525-0.148 2.356-0.148 10.312 0 18.683 8.315 18.773 18.606v54.315c0 0.044 0.001 0.095 0.001 0.147 0 5.386-2.385 10.215-6.157 13.488l-0.022 0.019c-3.382 3.013-7.866 4.853-12.779 4.853-0.596 0-1.186-0.027-1.768-0.080l0.075 0.006-299.52-32.734-299.486 32.734c-0.514 0.049-1.112 0.077-1.717 0.077-4.906 0-9.382-1.842-12.775-4.872l0.019 0.016c-3.776-3.343-6.144-8.203-6.144-13.616 0-0.013 0-0.026 0-0.040v0.002-54.306c0.112-10.302 8.489-18.61 18.806-18.61 0.819 0 1.625 0.052 2.416 0.154l-0.094-0.010 298.906 40.585z" />
<glyph unicode="&#xeb58;" glyph-name="hospital" data-tags="hospital" d="M937.062 938.667h-850.159c-47.969-0.019-86.85-38.901-86.869-86.867v-850.229c0-0.010 0-0.022 0-0.034 0-47.977 38.893-86.869 86.869-86.869h850.227c0.020 0 0.044 0 0.068 0 47.958 0 86.835 38.877 86.835 86.835 0 0 0 0 0 0v0 850.261c-0.019 47.962-38.905 86.835-86.869 86.835-0.012 0-0.024 0-0.036 0h0.002zM846.507 138.104h-183.023v198.827h-302.114v-198.827h-184.32v577.877h184.32v-198.827h302.114v198.827h183.023z" />
<glyph unicode="&#xeb59;" glyph-name="injection-syringe" data-tags="injection-syringe" horiz-adv-x="1044" d="M367.957 820.975l-63.966-63.966-74.274 74.308 61.781 61.781-45.534 45.568-245.965-245.965 45.534-45.534 61.781 61.781 74.308-74.308-63.966-63.966 552.96-552.96 230.366-5.291 97.655-97.655 44.988 4.847-117.692 117.692-5.291 230.366zM367.957 748.135l280.917-280.917-176.981-176.981-71.509 71.441 88.747 88.747-37.547 37.547-88.747-88.747-66.15 66.15 88.747 88.747-37.547 37.547-88.747-88.747-67.994 67.994z" />
<glyph unicode="&#xeb5a;" glyph-name="laboratory" data-tags="laboratory" horiz-adv-x="965" d="M945.971 98.987l-313.685 482.611v230.707h72.875v126.362h-444.962v-126.498h73.455v-230.707l-314.3-482.475c-12.174-18.377-19.423-40.939-19.423-65.195 0-65.791 53.334-119.125 119.125-119.125 0.036 0 0.073 0 0.109 0h726.659c65.886 0.124 119.249 53.563 119.249 119.466 0 24.103-7.138 46.54-19.416 65.31l0.28-0.457zM907.366 0.785c-12.012-21.875-34.893-36.455-61.179-36.455-0.092 0-0.183 0-0.275 0.001h-726.685c-0.042 0-0.091 0-0.14 0-38.551 0-69.803 31.252-69.803 69.803 0 14.096 4.178 27.215 11.363 38.188l-0.164-0.266 322.082 494.933v245.385h199.953v-245.521l321.741-494.933c7.267-10.719 11.601-23.941 11.601-38.174 0-12.156-3.162-23.574-8.708-33.477l0.178 0.347zM614.912 411.682h-264.158l-241.289-371.098c-1.293-1.909-2.065-4.263-2.065-6.797 0-2.165 0.563-4.198 1.551-5.962l-0.032 0.062c2.141-3.713 6.066-6.186 10.573-6.246h726.638c0.017 0 0.036 0 0.056 0 4.526 0 8.469 2.495 10.529 6.185l0.031 0.061c0.959 1.702 1.525 3.736 1.525 5.902 0 2.535-0.774 4.888-2.098 6.838l0.027-0.043z" />
<glyph unicode="&#xeb5b;" glyph-name="nurse" data-tags="nurse" horiz-adv-x="834" d="M833.434 36.182c0.46 7.62 0.722 16.528 0.722 25.498 0 49.225-7.894 96.606-22.485 140.946l0.907-3.184c-2.492 7.339-4.437 56.559-85.948 88.405-60.006 23.415-140.425 19.354-200.021 60.006-1.271 3.79-2.455 8.463-3.317 13.249l-0.096 0.644c63.565 12.337 120.107 34.617 170.925 65.399l-2.306-1.297c-85.845 24.405-92.16 161.451-98.167 245.76v0c-0.011 23.798-4.75 46.486-13.33 67.179l0.428-1.165c-0.512 1.911-0.887 3.413-1.297 5.018l50.176 195.925h-425.062l50.005-196.062c-0.41-1.399-0.785-3.004-1.297-4.983-8.144-19.529-12.883-42.215-12.902-66.006v-0.008c-6.042-86.255-12.902-221.355-98.167-245.76 48.479-29.5 104.988-51.781 165.254-63.571l3.262-0.532c-1.029-5.538-2.212-10.209-3.651-14.765l0.238 0.873c-59.563-40.619-139.947-36.489-200.021-60.006-81.442-31.846-83.354-81.067-85.845-88.405-13.698-41.055-21.6-88.323-21.6-137.436 0-9.084 0.27-18.106 0.804-27.056l-0.059 1.233c-0.41-15.701 0-39.39 46.967-60.006 139.127-60.962 368.64-61.44 369.527-61.44 132.471 0.905 259.404 23.325 377.895 63.932l-8.367-2.492c46.831 20.617 47.138 44.305 46.831 60.109zM589.107 907.162l-41.609-163.601h-261.257l-41.609 163.601zM351.334 807.97h45.943v-46.046h39.219v46.046h46.046v39.117h-46.217v45.875h-39.219v-46.046h-45.773z" />
<glyph unicode="&#xeb5c;" glyph-name="nursing-home" data-tags="nursing-home" d="M0 560.948l123.153-431.582c116.824 17.201 251.68 27.024 388.83 27.024 137.152 0 272.009-9.823 403.907-28.804l-15.077 1.78 123.153 431.582c-405.402 180.258-646.007 189.781-1023.966 0zM636.518 378.505h-88.371v-88.371h-71.919v88.371h-88.371v71.919h88.371v88.405h71.919v-88.405h88.371z" />
<glyph unicode="&#xeb5d;" glyph-name="paralysis-disability" data-tags="paralysis-disability" horiz-adv-x="958" d="M592.145 171.247c-39.409-99.406-134.415-168.568-245.668-169.301h-0.092c-0.032 0-0.071 0-0.109 0-143.27 0-259.413 116.143-259.413 259.413 0 85.402 41.269 161.166 104.952 208.436l0.697 0.494-15.155 93.491c-106.645-60.481-177.429-173.236-177.429-302.525 0-191.435 155.189-346.624 346.624-346.624 135.204 0 252.329 77.41 309.47 190.328l0.909 1.98zM693.248 295.663c-3.070 3.039-6.416 5.811-9.994 8.271l-0.246 0.16c-9.349 6.412-20.907 10.24-33.36 10.24-0.020 0-0.040 0-0.060 0h-270.094l-34.953 215.347h288.358c23.413 0 42.394 18.98 42.394 42.394s-18.98 42.394-42.394 42.394h-302.148l-4.745 28.672c-4.889 28.743-29.609 50.353-59.375 50.353-33.238 0-60.183-26.945-60.183-60.183 0-3.472 0.294-6.875 0.858-10.186l-0.050 0.356 61.44-376.525c5.752-29.618 31.040-51.82 61.682-52.768l0.099-0.002h294.537l230.775-230.81c10.911-11.225 26.153-18.19 43.023-18.19 33.122 0 59.972 26.85 59.972 59.972 0 16.878-6.972 32.127-18.193 43.025l-0.015 0.014zM356.045 823.842c0-63.416-51.409-114.825-114.825-114.825s-114.825 51.409-114.825 114.825c0 63.416 51.409 114.825 114.825 114.825v0c63.416 0 114.825-51.409 114.825-114.825v0z" />
<glyph unicode="&#xeb5e;" glyph-name="pills" data-tags="pills" horiz-adv-x="1006" d="M225.894 938.667c-124.742-0.039-225.856-101.152-225.894-225.891v-572.215c0-124.758 101.136-225.894 225.894-225.894s225.894 101.136 225.894 225.894v0 572.211c-0.348 124.606-101.257 225.527-225.825 225.894h-0.035zM402.569 451.277h-353.382v261.495c0 97.593 79.115 176.708 176.708 176.708s176.708-79.115 176.708-176.708v0zM948.77 316.45c-44.798 52.437-110.987 85.466-184.891 85.466-134.052 0-242.722-108.67-242.722-242.722 0-44.081 11.751-85.417 32.291-121.047l-0.624 1.174zM578.97 1.98c44.798-52.437 110.987-85.466 184.891-85.466 134.052 0 242.722 108.67 242.722 242.722 0 44.081-11.751 85.417-32.291 121.047l0.624-1.174zM783.394 904.5c0.064 0 0.14 0 0.216 0 86.716 0 157.013-70.297 157.013-157.013 0-37.332-13.029-71.622-34.788-98.569l0.233 0.299-172.749 247.091c14.912 5.169 32.099 8.177 49.982 8.226h0.023zM783.394 931.328c-0.075 0-0.163 0-0.251 0-33.189 0-64.308-8.867-91.115-24.362l0.879 0.469 209.749-299.93c39.76 33.938 64.807 84.103 64.807 140.118 0 101.552-82.324 183.876-183.876 183.876-0.14 0-0.279 0-0.419 0h0.022zM661.299 845.688l172.749-247.091c-15.025-5.262-32.346-8.301-50.377-8.301-86.716 0-157.013 70.297-157.013 157.013 0 37.382 13.063 71.712 34.874 98.675l-0.232-0.296zM664.713 887.535c-39.9-33.914-65.049-84.142-65.049-140.244 0-101.458 82.248-183.706 183.706-183.706 33.401 0 64.719 8.914 91.707 24.492l-0.887-0.473z" />
<glyph unicode="&#xeb5f;" glyph-name="prescription" data-tags="prescription" horiz-adv-x="775" d="M672.427 816.982h-109.943v-52.087h109.943c0.092 0.001 0.2 0.001 0.308 0.001 27.957 0 50.62-22.663 50.62-50.62 0-0.108 0-0.217-0.001-0.325v0.017-696.559c0.001-0.091 0.001-0.2 0.001-0.308 0-27.975-22.679-50.654-50.654-50.654-0.096 0-0.193 0-0.289 0.001h-569.636c-0.092-0.001-0.2-0.001-0.308-0.001-27.975 0-50.654 22.679-50.654 50.654 0 0.108 0 0.217 0.001 0.325v-0.017 696.559c-0.001 0.091-0.001 0.2-0.001 0.308 0 27.975 22.679 50.654 50.654 50.654 0.096 0 0.193 0 0.289-0.001h109.963v52.053h-109.943c-56.81-0.019-102.858-46.068-102.878-102.876v-696.561c0.039-56.795 46.080-102.824 102.876-102.844h569.653c56.81 0.019 102.858 46.068 102.878 102.876v696.561c-0.019 56.81-46.068 102.858-102.876 102.878h-0.002zM537.805 843.742h-56.286c0 52.435-42.507 94.942-94.942 94.942s-94.942-42.507-94.942-94.942v0h-55.876v-130.423h301.773v130.423zM441.481 843.742h-109.67c-0.011 0.407-0.017 0.887-0.017 1.368 0 30.294 24.558 54.852 54.852 54.852s54.852-24.558 54.852-54.852c0-0.481-0.006-0.961-0.019-1.439l0.001 0.071zM253.747 575.488h403.524v-49.937h-403.524v49.937zM253.747 366.524h403.524v-49.937h-403.524v49.937zM253.747 159.983h403.524v-50.176h-403.524v50.176zM112.128 607.71h114.347v-114.347h-114.347v114.347zM112.128 398.712h114.347v-114.347h-114.347v114.347zM112.128 192.137h114.347v-114.347h-114.347v114.347z" />
<glyph unicode="&#xeb60;" glyph-name="pulse" data-tags="pulse" horiz-adv-x="1193" d="M367.172 453.735l92.16 299.008 197.086-447.863 43.622 151.313h474.453c11.456 36.97 18.054 79.472 18.054 123.515 0 17.904-1.090 35.553-3.208 52.885l0.207-2.081c-11.981 90.761-61.099 260.301-260.028 299.281-24.884 5.2-53.668 8.409-83.119 8.87l-0.371 0.005h-5.837c-96.673-1.711-183.267-43.468-244.152-109.34l-0.208-0.228c-61.137 66.036-147.704 107.772-244.038 109.563l-0.323 0.005h-5.939c-29.813-0.45-58.598-3.66-86.465-9.385l2.975 0.511c-142.676-30.873-249.679-151.226-259.97-298.246l-0.058-1.035c-1.374-13.205-2.157-28.531-2.157-44.040 0-47.347 7.303-92.989 20.845-135.86l-0.87 3.191zM752.947 385.912l-82.569-287.642-199.407 453.086-51.575-167.936h-373.009c63.522-140.629 211.627-317.099 549.274-468.753 341.982 153.6 490.257 330.274 552.96 471.040z" />
<glyph unicode="&#xeb61;" glyph-name="stethoscope" data-tags="stethoscope" horiz-adv-x="822" d="M822.067 328.022c0 0.093 0 0.203 0 0.313 0 58.439-47.374 105.813-105.813 105.813s-105.813-47.374-105.813-105.813c0-53.019 38.994-96.931 89.868-104.62l0.585-0.073v-73.66c0-102.627-83.195-185.822-185.822-185.822s-185.822 83.195-185.822 185.822v105.028h1.263c15.942 0.002 29.169 11.618 31.684 26.847l0.025 0.187c143.936 27.287 251.369 151.913 251.733 301.699v335.571c-0.061 5.342-2.255 10.16-5.768 13.652l-0.001 0.001c-3.487 3.441-8.279 5.565-13.567 5.565-0.090 0-0.18-0.001-0.27-0.002h-98.188c-10.662-0.019-19.3-8.657-19.319-19.318v-26.387c0.019-10.662 8.657-19.3 19.318-19.319h53.421v-289.314c-0.139-114.889-80.033-211.078-187.285-236.186l-1.643-0.324c-4.717 12.29-16.422 20.856-30.127 20.856-0.017 0-0.033 0-0.050 0h-48.364c-13.664-0.086-25.317-8.6-30.029-20.601l-0.076-0.22c-108.446 25.88-187.866 121.878-188.041 236.456v289.368h53.419c0.081-0.001 0.177-0.002 0.273-0.002 10.67 0 19.319 8.65 19.319 19.319 0 0.001 0 0.001 0 0.002v0 26.385c0 0.001 0 0.001 0 0.002 0 10.67-8.65 19.319-19.319 19.319-0.096 0-0.192-0.001-0.288-0.002h-97.846c-0.081 0.001-0.177 0.002-0.273 0.002-10.651 0-19.285-8.634-19.285-19.285 0-0.013 0-0.025 0-0.038v0.002-335.292c0.217-149.482 107.058-273.946 248.533-301.425l1.938-0.313c2.376-14.719 14.491-25.983 29.424-27.028l0.101-0.006v-105.335c-0.011-0.842-0.017-1.837-0.017-2.834 0-129.923 105.324-235.247 235.247-235.247s235.247 105.324 235.247 235.247c0 0.996-0.006 1.991-0.019 2.984l0.001-0.151v77.892c41.973 14.804 71.533 54.077 71.646 100.27v0.014zM659.251 328.022c0.058 31.513 25.618 57.037 57.139 57.037 31.557 0 57.139-25.582 57.139-57.139s-25.582-57.139-57.139-57.139v0c0 0 0 0 0 0-31.557 0-57.139 25.582-57.139 57.139 0 0.036 0 0.072 0 0.108v-0.006z" />
<glyph unicode="&#xeb62;" glyph-name="surgical-knife" data-tags="surgical-knife" horiz-adv-x="1202" d="M1078.374-45.943h41.267v-39.322h-41.267v39.322zM1161.216-45.943h41.267v-39.322h-41.267v39.322zM830.054-45.943h41.267v-39.322h-41.267v39.322zM995.499-45.943h41.267v-39.322h-41.267v39.322zM912.964-45.943h41.267v-39.322h-41.267v39.322zM306.79-45.943c-38.73-14.966-85.437-28.566-133.52-38.387l-5.88-1.003h628.429v39.39zM782.677 506.027l336.964 336.964-95.573 95.573-1024.068-1023.898c362.419 22.518 664.092 259.794 780.777 585.179l1.935 6.181zM1035.264 900.233l28.126-28.126-316.484-317.44-28.194 28.126z" />
<glyph unicode="&#xeb63;" glyph-name="tablets" data-tags="tablets" d="M512 938.633c-282.77 0-512-229.23-512-512s229.23-512 512-512c282.77 0 512 229.23 512 512v0c0 282.77-229.23 512-512 512v0zM512 869.752c213.193-0.214 391.166-150.742 433.662-351.302l0.514-2.9h-868.386c43.121 203.409 221.047 353.881 434.175 354.202h0.035zM512-16.52c-213.207 0.197-391.198 150.731-433.696 351.302l-0.514 2.9h868.045c-42.797-203.462-220.73-354.039-433.854-354.167h-0.014z" />
<glyph unicode="&#xeb64;" glyph-name="test-bottle" data-tags="test-bottle" horiz-adv-x="661" d="M566.135 738.065h-471.347c-52.342-0.019-94.769-42.446-94.788-94.786v-633.79c0.019-52.342 42.446-94.769 94.786-94.788h471.349c52.349 0.019 94.784 42.442 94.822 94.785v633.792c-0.136 52.307-42.512 94.672-94.811 94.788h-0.011zM569.993 139.64h-479.334v373.146h479.369zM98.748 771.209h463.599c12.354 0.077 22.349 10.071 22.426 22.418v122.614c-0.096 12.347-10.079 22.33-22.416 22.426h-463.608c-12.339-0.115-22.311-10.087-22.426-22.415v-122.618c0-0.010 0-0.022 0-0.034 0-12.366 10.025-22.391 22.391-22.391 0.024 0 0.048 0 0.072 0h-0.004z" />
<glyph unicode="&#xeb65;" glyph-name="test-tube-alt" data-tags="test-tube-alt" horiz-adv-x="956" d="M955.87 938.667h-408.986v-83.558h31.164v-767.078c-0.011-0.723-0.017-1.577-0.017-2.433 0-95.746 77.617-173.363 173.363-173.363s173.363 77.617 173.363 173.363c0 0.855-0.006 1.709-0.019 2.561l0.001-0.129v767.078h31.13zM873.506 731.99h-244.702v123.392h244.77zM408.986 938.667h-408.986v-83.558h31.164v-767.078c-0.011-0.723-0.017-1.577-0.017-2.433 0-95.746 77.617-173.363 173.363-173.363s173.363 77.617 173.363 173.363c0 0.855-0.006 1.709-0.019 2.561l0.001-0.129v767.078h31.164zM327.066 87.962c-1.972-66.079-56.010-118.896-122.385-118.896s-120.413 52.817-122.381 118.714l-0.004 0.181v767.078h244.77z" />
<glyph unicode="&#xeb66;" glyph-name="test-tube" data-tags="test-tube" horiz-adv-x="969" d="M408.951 938.667h-408.951v-83.558h31.13v-767.078c0-95.746 77.617-173.363 173.363-173.363s173.363 77.617 173.363 173.363v0 767.078h31.13zM327.031 87.996c-1.972-66.098-56.026-118.929-122.419-118.929s-120.447 52.832-122.415 118.748l-0.004 0.181v44.373h84.173v49.050h-84.173v86.391h84.173v50.244h-84.173v86.391h84.173v50.244h-84.173v86.391h84.173v49.050h-84.173v86.391h84.173v49.050h-84.173v130.15h244.804zM560.162 938.667v-83.558h31.164v-767.078c0-95.746 77.617-173.363 173.363-173.363s173.363 77.617 173.363 173.363v0 767.078h31.13v83.558zM887.125 491.111h-244.77v49.664h84.173v49.050h-84.173v86.391h84.173v49.050h-84.173v130.15h244.77z" />
<glyph unicode="&#xeb67;" glyph-name="thermometer-alt" data-tags="thermometer-alt" d="M64.956 883.303l-9.933-9.933c-34.018-34.155-55.049-81.267-55.049-133.291s21.031-99.135 55.055-133.297l536.638-536.604c22.341-22.348 52.242-37.137 85.538-40.203l0.546-0.041 171.247-15.462 84.241-84.241c9.768-10.691 23.77-17.371 39.332-17.371 29.389 0 53.214 23.825 53.214 53.214 0 15.52-6.644 29.488-17.243 39.216l-0.039 0.035-84.241 84.241-15.462 171.247c-3.318 33.786-18.060 63.618-40.256 86.063l-536.597 536.563c-34.166 34.021-81.289 55.054-133.324 55.054-52.188 0-99.435-21.157-133.632-55.361v0zM833.502 312.354c14.476-14.607 24.111-34.033 26.285-55.66l0.032-0.387 13.653-150.187-41.472-41.506-150.187 13.653c-22.039 2.043-41.499 11.715-56.008 26.312l-0.005 0.005-19.285 19.251 36.523 36.523-26.59 26.658-36.489-36.523-48.196 48.196 36.523 36.523-26.59 26.658-36.489-36.523-48.674 48.606 36.489 36.523-26.658 26.658-36.489-36.523-48.196 48.196 36.523 36.523-26.658 26.658-36.489-36.523-48.606 48.606 36.489 36.523-26.658 26.658-36.489-36.523-48.162 48.196 36.489 36.523-26.658 26.658-36.489-36.523-48.606 48.606 36.489 36.523-26.624 26.658-36.523-36.523-40.243 40.209c-25.278 25.281-40.913 60.206-40.913 98.782s15.635 73.5 40.913 98.782l9.933 9.933c25.285 25.27 60.208 40.899 98.782 40.899s73.497-15.629 98.783-40.9l-0.001 0.001zM187.255 751.070c-5.15-5.213-8.332-12.381-8.332-20.292s3.181-15.080 8.335-20.295l566.61-566.61c5.339-6.833 13.581-11.185 22.839-11.185 15.967 0 28.911 12.944 28.911 28.911 0 9.249-4.344 17.484-11.102 22.776l-0.063 0.048-566.613 566.613c-5.218 5.153-12.392 8.335-20.31 8.335-7.9 0-15.060-3.169-20.279-8.305l0.004 0.004z" />
</font>
</defs>
</svg>
