<!--Generated by Fontisto--><svg viewBox="0 0 27 24" xmlns="http://www.w3.org/2000/svg"><path d="m6.581 6.371h.019c1.122 0 2.152.392 2.96 1.047l-.009-.007c.154.124.353.2.569.2.287 0 .543-.133.71-.34l.001-.002c.124-.154.2-.353.2-.569 0-.287-.133-.543-.34-.71l-.002-.001c-.54-.434-1.167-.791-1.846-1.038l-.046-.015c1.287-1.888 3.424-3.113 5.848-3.12h.001c3.875.005 7.019 3.132 7.05 7.001v.003c-.821.145-1.543.495-2.134.997l.006-.005c-.197.168-.321.416-.321.694 0 .224.081.429.215.588l-.001-.001c.168.197.416.321.694.321.224 0 .429-.081.587-.215l-.001.001c.459-.389 1.057-.626 1.711-.626 1.464.001 2.651 1.188 2.653 2.652-.002 1.464-1.188 2.651-2.653 2.653h-15.871c-2.626-.003-4.754-2.131-4.757-4.756.007-2.623 2.134-4.746 4.757-4.749zm0 11.335h15.874c2.469-.004 4.47-2.004 4.474-4.473-.005-2.091-1.441-3.845-3.38-4.334l-.031-.007v-.018c-.004-4.899-3.974-8.869-8.872-8.873-3.317.006-6.208 1.824-7.737 4.516l-.023.044c-.102-.005-.204-.013-.306-.013-3.631.004-6.573 2.946-6.578 6.576.004 3.631 2.946 6.574 6.577 6.578z"/></svg>