<!--Generated by Fontisto--><svg viewBox="0 0 27 24" xmlns="http://www.w3.org/2000/svg"><path d="m9.327 16.753c.001-1.631.901-3.051 2.231-3.793l.022-.011-.734-.525c-.238-.167-.391-.439-.391-.748 0-.503.408-.91.91-.91.203 0 .391.067.542.179l-.002-.002 2.292 1.639c.016.011.029.026.044.039l.026.022c.014.012.03.022.043.035.005.004.009.009.012.014.018.02.036.041.052.063l.002.002c.018.021.036.045.053.07l.002.003c.014.022.028.049.04.076l.002.004c.014.03.018.031.026.048l.006.011s.005.014.008.022c.008.021.017.048.024.075l.001.005c.007.027.016.045.021.068v.021c.004.024.008.053.009.083v.002c0 .028.006.05.007.076v.016c-.002.036-.005.069-.01.102l.001-.005v.011c0 .019-.002.037-.006.054v-.002.011l-.455 2.363c-.084.423-.451.738-.893.738-.061 0-.121-.006-.179-.018l.006.001c-.422-.084-.736-.452-.736-.894 0-.061.006-.12.017-.178l-.001.006.194-1.009c-.812.429-1.357 1.268-1.357 2.235 0 1.391 1.128 2.518 2.518 2.518s2.518-1.127 2.518-2.518c0-.503.408-.91.91-.91s.91.408.91.91c0 2.397-1.943 4.34-4.34 4.34s-4.34-1.943-4.34-4.34zm10.63.925c-.503 0-.91-.408-.91-.91s.408-.91.91-.91h2.462c1.461 0 2.645-1.185 2.645-2.646s-1.184-2.646-2.646-2.646c-.652 0-1.249.236-1.71.627l.004-.003c-.158.134-.363.216-.588.216-.503 0-.91-.408-.91-.91 0-.278.125-.527.321-.694l.001-.001c.582-.495 1.303-.845 2.095-.986l.027-.004c-.026-3.865-3.165-6.988-7.033-6.988-2.42 0-4.555 1.222-5.82 3.083l-.016.024c.723.261 1.348.616 1.9 1.06l-.013-.01c.209.168.342.424.342.711 0 .503-.408.911-.911.911-.216 0-.414-.075-.571-.201l.002.001c-.798-.648-1.827-1.04-2.947-1.04-.005 0-.009 0-.014 0h.001c-2.621 0-4.746 2.125-4.746 4.746s2.125 4.746 4.746 4.746h.63c.503 0 .91.408.91.91s-.408.91-.91.91h-.64c-3.627 0-6.566-2.94-6.566-6.566s2.94-6.566 6.566-6.566c.102 0 .202.008.304.013 1.543-2.737 4.431-4.555 7.743-4.555 4.892 0 8.858 3.966 8.859 8.858v.017c1.968.494 3.403 2.247 3.403 4.336 0 2.465-1.999 4.464-4.464 4.464z"/></svg>