<!--Generated by Fontisto--><svg viewBox="0 0 35 24" xmlns="http://www.w3.org/2000/svg"><path d="m20.256 19.953c0-.458.371-.829.829-.829s.829.371.829.829c.002 1.319 1.071 2.388 2.39 2.39 1.578-.002 2.856-1.28 2.859-2.857-.002-1.875-1.521-3.394-3.396-3.396h-17.788c-.02 0-.043 0-.066 0-3.301 0-5.978-2.676-5.978-5.978s2.676-5.978 5.978-5.978h.069-.004c.093 0 .185.006.278.01 1.405-2.49 4.034-4.144 7.049-4.144 1.646 0 3.178.493 4.454 1.34l-.03-.019c.239.148.395.409.395.706 0 .458-.371.829-.829.829-.179 0-.344-.057-.48-.153l.003.002c-.99-.657-2.206-1.049-3.513-1.049-2.561 0-4.771 1.502-5.797 3.674l-.017.039c-.004.009-.011.015-.015.023-.031.063-.067.117-.109.167l.001-.001c-.004.005-.008.012-.013.017-.045.049-.096.092-.151.128l-.003.002c-.017.012-.036.022-.054.033-.041.024-.089.045-.14.062l-.006.002c-.013.006-.029.012-.045.017l-.003.001c-.057.016-.123.026-.191.027h-.001-.025c-.023 0-.047-.006-.073-.007s-.033 0-.051 0c-.193-.031-.416-.048-.643-.048-2.386 0-4.32 1.934-4.32 4.32s1.934 4.32 4.32 4.32h.003 17.794c2.79.003 5.05 2.264 5.054 5.053-.004 2.492-2.023 4.511-4.514 4.515-2.235-.001-4.047-1.812-4.05-4.047zm6.038-6.963c-.458 0-.829-.371-.829-.829s.371-.829.829-.829h4.442c1.503-.002 2.721-1.22 2.723-2.723-.002-1.254-1.018-2.269-2.271-2.271-1.036.001-1.875.841-1.877 1.876 0 .458-.371.829-.829.829s-.829-.371-.829-.829c.002-1.951 1.583-3.532 3.534-3.534 2.17 0 3.93 1.758 3.932 3.928-.003 2.418-1.962 4.377-4.38 4.38zm-8.279-1.602c-.458 0-.829-.371-.829-.829s.371-.829.829-.829h4.442c1.503-.002 2.721-1.222 2.721-2.726 0-1.254-1.017-2.271-2.27-2.272-1.037.001-1.877.841-1.877 1.878 0 .458-.371.829-.829.829s-.829-.371-.829-.829c.002-1.951 1.584-3.532 3.534-3.534 2.168.002 3.925 1.76 3.928 3.928-.003 2.418-1.962 4.377-4.38 4.38z"/></svg>