<!--Generated by Fontisto--><svg viewBox="0 0 27 24" xmlns="http://www.w3.org/2000/svg"><path d="m18.494 17.679c-.503 0-.91-.408-.91-.91s.408-.91.91-.91h3.92c1.461 0 2.645-1.185 2.645-2.646s-1.184-2.646-2.646-2.646c-.652 0-1.249.236-1.71.627l.004-.003c-.158.134-.363.216-.588.216-.503 0-.911-.408-.911-.911 0-.278.125-.527.321-.694l.001-.001c.583-.495 1.303-.845 2.095-.986l.027-.004c-.025-3.865-3.165-6.989-7.033-6.989-2.421 0-4.557 1.223-5.822 3.086l-.016.025c.723.261 1.348.616 1.9 1.06l-.013-.01c.212.168.348.426.348.716 0 .503-.408.91-.91.91-.219 0-.419-.077-.576-.206l.002.001c-.798-.648-1.827-1.04-2.947-1.04-.005 0-.009 0-.014 0h.001c-2.621 0-4.746 2.125-4.746 4.746s2.125 4.746 4.746 4.746h2.093c.503 0 .91.408.91.91s-.408.91-.91.91h-2.096c-3.627 0-6.567-2.94-6.567-6.567s2.94-6.567 6.567-6.567c.102 0 .202.008.305.013 1.543-2.737 4.431-4.555 7.743-4.555 4.892 0 8.858 3.966 8.859 8.858v.018c1.968.494 3.403 2.247 3.403 4.336 0 2.465-1.999 4.464-4.464 4.464zm-5.966-.91v-4.187l-1.029 1.03c-.165.165-.392.266-.644.266-.503 0-.91-.408-.91-.91 0-.252.102-.479.267-.644l2.583-2.584c.057-.055.12-.103.19-.142l.005-.002c.017-.01.034-.018.051-.026.061-.033.132-.061.206-.079l.006-.001h.01c.048-.009.103-.014.159-.014.026 0 .051.001.076.003h-.003.01c.017 0 .034.002.05.006h-.001c.086.01.164.03.238.061l-.006-.002c.053.023.099.048.142.076l-.003-.002c.014.008.025.018.038.026.036.026.068.052.098.08.006.006.015.011.022.018l2.585 2.584c.165.165.267.392.267.644 0 .503-.408.91-.91.91-.251 0-.479-.102-.644-.266l-1.03-1.03v4.19c0 .503-.408.91-.91.91s-.91-.408-.91-.91z"/></svg>