<!--Generated by Fontisto--><svg viewBox="0 0 27 24" xmlns="http://www.w3.org/2000/svg"><path d="m19.947 17.678c-.503 0-.91-.408-.91-.91s.408-.91.91-.91h2.462c1.461 0 2.645-1.185 2.645-2.646s-1.184-2.646-2.646-2.646c-.652 0-1.249.236-1.71.627l.004-.003c-.158.134-.363.216-.588.216-.503 0-.911-.408-.911-.911 0-.278.125-.527.321-.694l.001-.001c.583-.494 1.303-.844 2.095-.985l.027-.004c-.026-3.865-3.165-6.987-7.033-6.987-2.42 0-4.555 1.222-5.82 3.083l-.016.024c.723.261 1.348.616 1.9 1.06l-.013-.01c.212.168.348.426.348.716 0 .503-.408.91-.91.91-.219 0-.419-.077-.576-.206l.002.001c-.798-.648-1.826-1.04-2.946-1.04-.005 0-.01 0-.014 0h.001c-2.621 0-4.746 2.125-4.746 4.746s2.125 4.746 4.746 4.746c.503 0 .91.408.91.91s-.408.91-.91.91c-3.627 0-6.567-2.94-6.567-6.567s2.94-6.567 6.567-6.567c.102 0 .202.008.304.014 1.543-2.737 4.431-4.555 7.743-4.555 4.892 0 8.858 3.965 8.859 8.857v.017c1.968.494 3.403 2.247 3.403 4.336 0 2.465-1.999 4.464-4.464 4.464zm-6.445 0c-.062 0-.123-.007-.181-.019l.006.001-.019-.006c-.058-.012-.108-.028-.156-.048l.006.002c-.005 0-.009-.005-.014-.007-.055-.025-.103-.052-.147-.082l.003.002c-.053-.035-.099-.073-.141-.115l-2.584-2.582c-.165-.165-.267-.392-.267-.644 0-.503.408-.91.91-.91.251 0 .479.102.644.266l1.03 1.026v-3.984c0-.503.408-.91.91-.91s.91.408.91.91v3.992l1.03-1.03c.165-.165.392-.266.644-.266.503 0 .91.408.91.91 0 .252-.102.479-.267.644l-2.584 2.583c-.006.006-.014.011-.021.018-.03.028-.062.054-.096.078l-.003.002c-.012.008-.024.018-.037.026-.039.026-.085.051-.132.071l-.006.002c-.042.018-.092.033-.144.045l-.006.001-.021.006c-.048.009-.103.015-.16.015h-.016z"/></svg>