<!--Generated by Fontisto--><svg viewBox="0 0 34 24" xmlns="http://www.w3.org/2000/svg"><path d="m6.106 23.999c-.02 0-.044 0-.067 0-3.372 0-6.106-2.734-6.106-6.106s2.734-6.106 6.106-6.106h.071-.004c.094 0 .189.007.283.012 1.434-2.545 4.119-4.235 7.199-4.235 1.298 0 2.526.3 3.618.835l-.049-.021c.565-.61 1.25-1.098 2.019-1.43l.039-.015c.683-.297 1.479-.47 2.316-.47 3.282 0 5.942 2.66 5.942 5.942 0 2.25-1.251 4.208-3.095 5.217l-.031.016c.403.628.642 1.394.642 2.216 0 2.29-1.856 4.146-4.146 4.146-.002 0-.005 0-.007 0zm-4.413-6.107c.003 2.436 1.977 4.41 4.413 4.413h14.732c1.358 0 2.459-1.101 2.459-2.46s-1.101-2.46-2.46-2.46c-.606 0-1.161.219-1.59.583l.004-.003c-.148.131-.345.211-.56.211-.467 0-.846-.379-.846-.846 0-.264.121-.501.311-.656l.002-.001c.542-.46 1.211-.785 1.948-.916l.025-.004c-.024-3.593-2.943-6.496-6.54-6.496-2.25 0-4.235 1.137-5.412 2.867l-.015.023c.672.243 1.253.573 1.767.985l-.012-.009c.198.156.323.396.323.665 0 .467-.379.846-.846.846-.203 0-.39-.072-.536-.191l.002.001c-.742-.602-1.699-.967-2.741-.967-.004 0-.008 0-.012 0h.001c-2.438.001-4.414 1.977-4.416 4.414zm18.181-9.4c-.477.208-.886.48-1.238.813l.002-.002c1.946 1.519 3.186 3.864 3.187 6.499q0 .007 0 .016c.48.12.902.307 1.28.556l-.016-.01c1.585-.641 2.682-2.167 2.682-3.95 0-2.267-1.775-4.119-4.01-4.243h-.011q-.119-.007-.238-.007c-.003 0-.006 0-.01 0-.587 0-1.146.121-1.654.338l.027-.01zm8.747 13.102-2.022-2.25c-.136-.15-.219-.349-.219-.569 0-.467.379-.846.846-.846.251 0 .477.11.632.284l.001.001 2.022 2.253c.136.15.219.349.219.569 0 .467-.379.846-.846.846-.251 0-.477-.11-.632-.284l-.001-.001zm4.413-7.71-3.023-.164c-.447-.025-.801-.394-.801-.845 0-.468.379-.847.847-.847.016 0 .032 0 .048.001h-.002l3.023.164c.446.027.797.395.797.845 0 .466-.376.844-.842.846zm-5.78-6.62c-.134-.149-.216-.347-.216-.565 0-.25.108-.475.281-.63l.001-.001 2.253-2.022c.149-.134.348-.216.565-.216.468 0 .848.38.848.848 0 .251-.109.476-.282.632l-.001.001-2.254 2.025c-.149.134-.348.216-.565.216-.25 0-.474-.108-.629-.28l-.001-.001zm-12.074-.654-2.021-2.254c-.136-.15-.219-.349-.219-.569 0-.467.379-.846.846-.846.251 0 .477.11.632.284l.001.001 2.019 2.257c.136.15.219.349.219.569 0 .467-.379.846-.846.846-.251 0-.477-.11-.632-.284l-.001-.001zm6.757-1.893c-.447-.025-.801-.394-.801-.845 0-.017 0-.033.001-.05v.002l.164-3.024c.025-.447.394-.801.845-.801.468 0 .847.379.847.847 0 .016 0 .032-.001.048v-.002l-.164 3.024c-.025.447-.394.801-.845.801z"/></svg>