<!--Generated by Fontisto--><svg viewBox="0 0 27 24" xmlns="http://www.w3.org/2000/svg"><path d="m9.601 24c-.436 0-.79-.354-.79-.79s.354-.79.79-.79h7.405c.436 0 .79.354.79.79s-.354.79-.79.79zm-7.174-3.376c-.436 0-.79-.354-.79-.79s.354-.79.79-.79h21.754c.436 0 .79.354.79.79s-.354.79-.79.79zm4.013-3.372c-.436 0-.79-.354-.79-.79s.354-.79.79-.79h13.727c.436 0 .79.354.79.79s-.354.79-.79.79zm12.373-3.155h-11.018c-.436 0-.79-.354-.79-.79 0-.017 0-.036 0-.056 0-3.479 2.82-6.299 6.299-6.299 3.459 0 6.267 2.788 6.299 6.24v.003c.004.031.007.067.007.104v.004.005c0 .436-.354.79-.79.79zm-10.162-1.583h9.305c-.399-2.238-2.33-3.915-4.653-3.915s-4.254 1.677-4.648 3.887l-.004.029zm13.893 1.583c-.436 0-.79-.354-.79-.79s.354-.79.79-.79h3.272c.436 0 .79.354.79.79s-.354.79-.79.79zm-21.754 0c-.436 0-.79-.354-.79-.79s.354-.79.79-.79h3.272c.436 0 .79.354.79.79s-.354.79-.79.79zm18.489-6.766c-.143-.143-.232-.34-.232-.559s.089-.416.232-.559l2.313-2.314c.146-.167.359-.272.596-.272.436 0 .79.354.79.79 0 .237-.105.45-.27.595l-.001.001-2.313 2.314c-.143.143-.34.231-.559.231s-.416-.088-.559-.231zm-13.069 0-2.314-2.317c-.143-.143-.232-.341-.232-.559 0-.437.354-.791.791-.791.218 0 .416.088.559.232l2.314 2.314c.15.144.244.347.244.571 0 .436-.354.79-.79.79-.224 0-.427-.093-.57-.243zm6.303-3.264v-3.277c0-.436.354-.79.79-.79s.79.354.79.79v3.273c0 .436-.354.79-.79.79s-.79-.354-.79-.79z"/></svg>