<!--Generated by Fontisto--><svg viewBox="0 0 24 24" xmlns="http://www.w3.org/2000/svg"><path d="m11.289 23.287v-2.952c0-.394.319-.713.713-.713s.713.319.713.713v2.952c0 .394-.319.713-.713.713s-.713-.319-.713-.713zm8.19-2.804-2.087-2.086c-.136-.13-.22-.313-.22-.515 0-.394.319-.713.713-.713.202 0 .385.084.515.22l2.085 2.089c.107.124.172.286.172.464 0 .394-.319.713-.713.713-.179 0-.343-.066-.468-.175l.001.001zm-15.962 0c-.129-.129-.209-.307-.209-.504s.08-.375.209-.504l2.087-2.087c.129-.129.307-.209.504-.209.394 0 .713.319.713.713 0 .197-.08.375-.209.504l-2.087 2.086c-.129.129-.307.209-.504.209s-.375-.08-.504-.209zm2.803-8.485c0-3.138 2.544-5.683 5.683-5.683s5.683 2.544 5.683 5.683c0 3.138-2.544 5.683-5.683 5.683-3.138 0-5.683-2.544-5.683-5.683zm1.425 0c0 2.352 1.907 4.259 4.259 4.259s4.259-1.907 4.259-4.259-1.907-4.259-4.259-4.259c-2.352 0-4.259 1.907-4.259 4.259zm12.591.713c-.394 0-.713-.319-.713-.713s.319-.713.713-.713h2.952c.394 0 .713.319.713.713s-.319.713-.713.713zm-19.623 0c-.394 0-.713-.319-.713-.713s.319-.713.713-.713h2.953c.394 0 .713.319.713.713s-.319.713-.713.713zm16.677-6.103c-.129-.129-.209-.307-.209-.504s.08-.375.209-.504l2.087-2.087c.129-.129.307-.209.504-.209.394 0 .713.319.713.713 0 .197-.08.375-.209.504l-2.087 2.087c-.129.129-.307.209-.504.209s-.375-.08-.504-.209zm-11.788 0-2.085-2.085c-.129-.129-.209-.307-.209-.504 0-.394.319-.713.713-.713.197 0 .375.08.504.209l2.087 2.087c.129.129.209.307.209.504 0 .394-.319.713-.713.713-.197 0-.375-.08-.504-.209zm5.685-2.944v-2.951c0-.394.319-.713.713-.713s.713.319.713.713v2.952c0 .394-.319.713-.713.713s-.713-.319-.713-.713z"/></svg>