<!--Generated by Fontisto--><svg viewBox="0 0 22 24" xmlns="http://www.w3.org/2000/svg"><path d="m6.631 23.837c-.101-.101-.163-.239-.163-.393s.062-.292.163-.393l.68-.679h-.222c-.038 0-.076-.004-.112-.012l.004.001c-.02-.005-.036-.009-.052-.015l.003.001c-.022-.006-.041-.012-.059-.019l.003.001c-.022-.01-.039-.019-.056-.03l.002.001c-.014-.007-.028-.014-.042-.022-.062-.041-.113-.092-.153-.152l-.001-.002c-.009-.013-.015-.027-.022-.04-.009-.015-.019-.033-.028-.052l-.002-.004c-.005-.014-.011-.032-.016-.051l-.001-.004c-.005-.013-.01-.029-.014-.046l-.001-.003c-.007-.033-.011-.07-.011-.109s.004-.076.012-.112l-.001.004c.005-.02.01-.036.016-.052l-.001.003c.006-.023.011-.041.018-.059l-.001.004c.01-.022.02-.041.031-.059l-.001.002c.008-.016.015-.029.023-.041l-.001.002c.021-.032.044-.06.07-.086l1.563-1.563c.101-.101.24-.163.393-.163.307 0 .556.249.556.556 0 .154-.062.293-.163.393l-.615.615h.222c.039 0 .076.004.113.012l-.004-.001c.017.003.032.009.049.014.023.006.041.012.059.019l-.004-.001c.022.01.04.019.057.03l-.003-.001c.014.008.028.014.042.022.061.042.112.093.153.152l.001.002c.007.011.014.024.02.037l.001.003c.01.015.02.034.028.053l.001.003c.005.014.011.032.016.05l.001.004c.005.012.01.029.014.045l.001.003c.007.033.011.07.011.109s-.004.076-.011.112l.001-.004c-.003.017-.01.033-.015.049-.006.022-.012.04-.018.058l.001-.004c-.01.022-.02.041-.031.059l.001-.002c-.007.013-.013.027-.021.04-.022.032-.045.06-.07.086l-1.627 1.627c-.101.101-.239.163-.393.163s-.292-.062-.393-.163zm-2.214-2.943c-.101-.101-.163-.24-.163-.393s.062-.293.163-.393l1.745-1.745h-1.246c-.038 0-.075-.004-.11-.011l.004.001c-.02-.005-.036-.01-.052-.016l.003.001c-.021-.005-.039-.011-.056-.018l.003.001c-.023-.01-.042-.02-.06-.032l.002.001c-.013-.007-.025-.013-.038-.021-.062-.042-.113-.093-.154-.153l-.001-.002c-.007-.011-.012-.022-.018-.033-.011-.017-.022-.038-.032-.059l-.001-.003c-.006-.015-.009-.031-.015-.049-.006-.015-.011-.034-.016-.053l-.001-.004c-.005-.025-.008-.055-.009-.085v-.001c0-.007 0-.014 0-.022v-.023c0-.05.01-.099.027-.143l-.001.003c.005-.016.008-.031.015-.049.011-.025.022-.046.035-.065l-.001.002c.006-.011.011-.022.018-.033.022-.032.045-.061.071-.086l1.637-1.637h-2.149c-2.218 0-4.016-1.798-4.016-4.016s1.798-4.016 4.016-4.016c.064 0 .128.005.192.008.944-1.668 2.705-2.778 4.725-2.784h.001.008c.85 0 1.654.197 2.368.548l-.032-.014c.371-.401.821-.722 1.327-.94l.025-.01c.443-.19.959-.3 1.5-.3 2.155 0 3.902 1.747 3.902 3.902 0 1.47-.812 2.749-2.012 3.415l-.02.01c.27.416.431.925.431 1.471 0 1.506-1.221 2.727-2.727 2.727-.001 0-.003 0-.004 0h-1.704l-.452.452h.223c.038 0 .075.004.111.011l-.004-.001c.02.005.036.01.052.016l-.003-.001c.022.005.04.011.057.018l-.003-.001c.023.01.041.02.059.031l-.002-.001c.013.007.026.013.039.021.062.041.113.093.154.152l.001.002c.009.013.015.028.022.042s.018.032.027.05l.002.004c.006.015.012.034.017.053l.001.004c.005.013.01.029.014.046l.001.003c.007.033.011.07.011.109s-.004.076-.011.113l.001-.004c-.003.017-.01.032-.014.049-.006.023-.012.041-.019.06l.001-.004c-.01.021-.019.039-.029.056l.001-.003c-.008.014-.014.029-.023.043-.021.031-.044.059-.068.084l-1.628 1.628c-.101.101-.24.163-.393.163-.307 0-.556-.249-.556-.556 0-.153.062-.292.163-.393l.681-.679h-.221c-.038 0-.076-.004-.112-.012l.004.001c-.017-.003-.032-.01-.049-.014-.022-.005-.04-.011-.058-.018l.003.001c-.022-.01-.041-.02-.058-.031l.003.002c-.013-.007-.027-.013-.04-.022-.062-.041-.113-.093-.153-.152l-.001-.002c-.009-.014-.015-.028-.023-.042-.009-.014-.018-.032-.026-.05l-.001-.003c-.006-.015-.012-.034-.017-.054l-.001-.004c-.005-.013-.009-.029-.013-.046l-.001-.003c-.007-.033-.011-.07-.011-.109s.004-.076.011-.113l-.001.004c.003-.016.009-.032.014-.049.006-.023.012-.042.019-.06l-.001.004c.01-.021.019-.038.029-.055l-.001.002c.008-.014.014-.029.023-.043.021-.031.044-.058.068-.084l.615-.615h-2.691l-1.475 1.475h1.245c.039 0 .076.004.112.012l-.004-.001c.016.003.03.009.046.013.024.006.043.012.062.019l-.004-.001q.025.012.049.026c.016.009.031.015.049.025.028.019.052.039.075.061.003.003.007.005.01.008s.007.009.011.014c.02.021.039.044.056.068l.001.002q.015.024.027.049c.008.014.016.03.023.046l.001.002c.007.017.014.039.019.061l.001.003c.004.013.009.026.012.04.007.033.011.071.011.109s-.004.077-.011.113l.001-.004c-.003.014-.008.026-.012.039-.006.026-.013.048-.021.069l.001-.004c-.007.016-.016.031-.024.049-.009.019-.018.035-.028.05l.001-.002c-.021.031-.043.058-.068.083l-2.695 2.695c-.101.101-.239.163-.393.163s-.292-.062-.393-.163zm-3.31-9.134c.002 1.603 1.301 2.903 2.904 2.905h9.691.001c.894 0 1.62-.725 1.62-1.62s-.725-1.62-1.62-1.62c-.399 0-.765.145-1.048.384l.002-.002c-.096.082-.222.132-.359.132-.307 0-.556-.249-.556-.556 0-.17.076-.322.196-.424l.001-.001c.355-.301.793-.514 1.276-.6l.017-.002c-.008-2.366-1.928-4.281-4.295-4.281-1.481 0-2.787.75-3.559 1.891l-.01.015c.441.16.822.377 1.159.647l-.008-.006c.128.103.209.259.209.434 0 .307-.249.556-.556.556-.132 0-.253-.046-.348-.122l.001.001c-.488-.396-1.117-.635-1.802-.635-.004 0-.008 0-.011 0h.001c-1.603.001-2.903 1.3-2.905 2.903zm11.955-6.185c-.313.136-.581.315-.813.534l.001-.001c1.278.997 2.092 2.537 2.092 4.268v.018c.314.077.59.198.838.359l-.011-.006c1.042-.42 1.764-1.423 1.764-2.595 0-1.488-1.165-2.705-2.633-2.786h-.007q-.076-.004-.152-.004c-.002 0-.005 0-.007 0-.387 0-.756.079-1.091.223l.018-.007zm5.743 8.604-1.328-1.478c-.089-.098-.144-.229-.144-.373 0-.307.249-.556.556-.556.165 0 .313.072.415.186v.001l1.325 1.475c.089.098.144.229.144.373 0 .307-.249.556-.556.556-.165 0-.313-.072-.415-.186v-.001zm2.898-5.063-1.984-.108c-.294-.016-.526-.259-.526-.555 0-.307.249-.556.556-.556.011 0 .021 0 .031.001h-.001l1.984.108c.293.018.523.259.523.555 0 .306-.247.554-.553.556zm-3.795-4.347c-.088-.098-.142-.228-.142-.371 0-.164.071-.312.184-.413h.001l1.479-1.326c.098-.089.229-.144.373-.144.307 0 .556.249.556.556 0 .165-.072.313-.186.415h-.001l-1.479 1.328c-.098.088-.228.142-.371.142-.164 0-.312-.071-.413-.184v-.001zm-7.928-.429-1.328-1.48c-.088-.098-.142-.228-.142-.371 0-.164.071-.312.184-.413.098-.088.228-.142.371-.142.164 0 .312.071.413.184v.001l1.328 1.479c.089.098.144.229.144.373 0 .307-.249.556-.556.556-.165 0-.313-.072-.415-.186v-.001zm4.437-1.243c-.294-.016-.526-.259-.526-.555 0-.011 0-.022.001-.033v.002l.107-1.985c.016-.294.259-.526.555-.526.307 0 .556.249.556.556 0 .011 0 .021-.001.031v-.001l-.107 1.985c-.017.294-.259.525-.555.526z"/></svg>