<!--Generated by Fontisto--><svg viewBox="0 0 25 24" xmlns="http://www.w3.org/2000/svg"><path d="m5.875 23.43c0-.315.255-.57.57-.57s.57.255.57.57-.255.57-.57.57c-.315 0-.57-.255-.57-.57zm1.633-1.632c0-.315.255-.57.57-.57s.57.255.57.57-.255.57-.57.57c-.315 0-.57-.255-.57-.57zm4.605-.744c.002-.312.255-.564.567-.564.313 0 .567.254.567.567s-.254.567-.567.567c-.157 0-.299-.064-.402-.167-.102-.103-.166-.244-.166-.401 0-.001 0-.002 0-.004zm-8.772 0c.002-.311.255-.562.566-.562.313 0 .566.254.566.566s-.254.566-.566.566c-.157 0-.298-.063-.401-.166-.102-.102-.166-.244-.166-.4 0-.001 0-.003 0-.004zm5.796-.887c.002-.311.255-.563.567-.563.313 0 .567.254.567.567s-.254.567-.567.567c-.157 0-.299-.064-.401-.166-.102-.103-.166-.244-.166-.4 0-.001 0-.003 0-.004zm4.608-.744c0-.315.255-.57.57-.57s.57.255.57.57-.255.57-.57.57c-.315 0-.57-.255-.57-.57zm-8.776 0c0-.315.255-.57.57-.57s.57.255.57.57-.255.57-.57.57c-.315 0-.57-.255-.57-.57zm-.438-1.619c-.015 0-.032 0-.05 0-2.502 0-4.531-2.028-4.531-4.531s2.028-4.531 4.531-4.531h.053-.003c.07 0 .14.006.21.009 1.064-1.888 3.057-3.143 5.342-3.143.963 0 1.874.223 2.684.62l-.036-.016c.808-.873 1.96-1.419 3.24-1.419 2.435 0 4.409 1.974 4.409 4.409 0 1.666-.924 3.117-2.289 3.866l-.023.012c.299.466.476 1.034.476 1.644 0 1.699-1.377 3.076-3.076 3.076-.002 0-.003 0-.005 0zm-3.275-4.531c.002 1.808 1.467 3.273 3.274 3.275h10.928.001c1.008 0 1.825-.817 1.825-1.825s-.817-1.825-1.825-1.825c-.45 0-.862.163-1.181.433l.003-.002c-.11.098-.257.158-.417.158-.347 0-.629-.281-.629-.629 0-.196.09-.372.231-.487l.001-.001c.402-.342.899-.583 1.446-.681l.019-.003c-.018-2.667-2.183-4.821-4.852-4.821-1.67 0-3.143.844-4.016 2.128l-.011.017c.499.18.93.426 1.311.731l-.009-.007c.144.116.236.293.236.491 0 .347-.282.629-.629.629-.149 0-.287-.052-.394-.139l.001.001c-.551-.447-1.261-.718-2.034-.718-.003 0-.006 0-.009 0-1.807.003-3.27 1.468-3.272 3.274zm13.492-6.975c-.353.154-.657.355-.918.601l.002-.002c1.444 1.127 2.364 2.867 2.364 4.823q0 .006 0 .012c.356.089.669.228.95.412l-.012-.007c1.176-.476 1.99-1.608 1.99-2.931 0-1.682-1.317-3.056-2.976-3.148h-.008q-.086-.004-.171-.004c-.002 0-.005 0-.008 0-.438 0-.856.09-1.235.253l.02-.008zm9.765 4.002-2.243-.121c-.332-.018-.594-.292-.594-.627 0-.012 0-.025.001-.037v.002c.013-.331.285-.595.618-.595.016 0 .031.001.046.002h-.002l2.243.121c.331.02.591.293.591.627 0 .346-.279.626-.625.628zm-4.288-4.913c-.1-.111-.161-.258-.161-.419 0-.185.08-.352.208-.467h.001l1.671-1.497c.111-.1.258-.161.42-.161.347 0 .628.281.628.628 0 .185-.08.352-.208.467h-.001l-1.672 1.5c-.111.1-.258.161-.419.161-.185 0-.352-.08-.467-.208v-.001zm-8.96-.485-1.5-1.67c-.1-.111-.161-.258-.161-.419 0-.347.281-.628.628-.628.186 0 .352.08.467.208l.001.001 1.498 1.673c.1.111.161.258.161.419 0 .347-.281.628-.628.628-.186 0-.352-.08-.467-.208l-.001-.001zm4.429-1.927-.381-2.243c-.007-.035-.011-.076-.011-.118 0-.347.281-.628.628-.628.315 0 .576.232.621.534v.003l.381 2.243c.006.032.009.068.009.105 0 .31-.224.567-.519.619l-.004.001c-.032.006-.069.009-.106.009-.31 0-.567-.225-.618-.519l-.001-.004z"/></svg>