<!--Generated by Fontisto--><svg viewBox="0 0 25 24" xmlns="http://www.w3.org/2000/svg"><path d="m3.75 23.818c-.112-.112-.181-.267-.181-.438s.069-.326.181-.438l3.205-3.205c.113-.118.272-.191.447-.191.342 0 .619.277.619.619 0 .176-.073.334-.191.447l-3.206 3.205c-.112.112-.267.182-.438.182s-.326-.069-.438-.182zm6.521-3.033c-.112-.112-.181-.267-.181-.438s.069-.326.181-.438l2.354-2.354h-6.541l-3.23 3.23c-.112.112-.267.182-.438.182-.342 0-.619-.277-.619-.619 0-.171.069-.326.181-.438l2.366-2.367c-2.413-.067-4.344-2.039-4.344-4.462 0-2.465 1.999-4.464 4.464-4.464.042 0 .084.001.126.002h-.006c.07 0 .138.005.207.009 1.054-1.858 3.016-3.093 5.268-3.099h.001.009c.947 0 1.843.22 2.639.611l-.035-.016c.413-.446.914-.804 1.477-1.046l.028-.011c.498-.215 1.078-.341 1.687-.341 2.401 0 4.347 1.946 4.347 4.347 0 1.643-.911 3.073-2.256 3.812l-.023.011c.295.459.47 1.02.47 1.621 0 1.675-1.358 3.033-3.033 3.033-.002 0-.003 0-.005 0h-.988l-3.23 3.23c-.112.112-.267.181-.438.181s-.326-.069-.438-.181zm-8.915-7.698c.002 1.782 1.446 3.227 3.228 3.229h10.779c.994 0 1.8-.806 1.8-1.8s-.806-1.8-1.8-1.8c-.444 0-.85.161-1.164.427l.003-.002c-.107.091-.247.147-.4.147-.342 0-.619-.277-.619-.619 0-.189.085-.358.218-.472l.001-.001c.396-.337.887-.575 1.426-.671l.018-.003c-.018-2.629-2.153-4.753-4.785-4.753-1.646 0-3.099.832-3.959 2.098l-.011.017c.492.178.917.42 1.292.721l-.009-.007c.142.114.233.289.233.484 0 .342-.277.619-.619.619-.147 0-.282-.051-.388-.136l.001.001c-.543-.441-1.243-.707-2.005-.707-.003 0-.006 0-.009 0-1.783.001-3.229 1.446-3.231 3.229zm13.302-6.877c-.348.152-.647.35-.905.593l.002-.002c1.424 1.111 2.331 2.827 2.331 4.755q0 .005 0 .011c.351.087.66.225.937.406l-.011-.007c1.158-.47 1.96-1.586 1.96-2.889 0-1.658-1.297-3.012-2.932-3.105h-.008q-.085-.004-.17-.004c-.002 0-.005 0-.008 0-.432 0-.843.089-1.216.249l.02-.008zm6.399 9.587-1.479-1.647c-.1-.109-.161-.256-.161-.416 0-.342.277-.619.619-.619.184 0 .349.08.463.207l.001.001 1.479 1.648c.1.109.161.256.161.416 0 .342-.277.619-.619.619-.184 0-.349-.08-.463-.207l-.001-.001zm3.23-5.642-2.212-.12c-.327-.018-.586-.288-.586-.618 0-.342.277-.619.619-.619.012 0 .023 0 .035.001h-.002l2.211.12c.326.02.583.289.583.618 0 .341-.275.617-.616.619zm-4.229-4.84c-.098-.109-.158-.254-.158-.414 0-.183.079-.347.205-.46h.001l1.648-1.479c.109-.1.256-.161.416-.161.342 0 .619.277.619.619 0 .184-.08.349-.207.463l-.001.001-1.648 1.479c-.109.098-.254.158-.414.158-.183 0-.347-.079-.46-.205v-.001zm-8.834-.479-1.479-1.649c-.098-.109-.158-.254-.158-.414 0-.342.277-.619.62-.619.183 0 .347.079.461.205v.001l1.478 1.649c.098.109.158.254.158.414 0 .343-.278.621-.621.621-.184 0-.348-.08-.462-.206l-.001-.001zm4.944-1.385c-.327-.018-.586-.288-.586-.618 0-.012 0-.024.001-.036v.002l.12-2.212c.018-.327.288-.586.618-.586.342 0 .619.277.619.619 0 .012 0 .023-.001.035v-.002l-.12 2.212c-.018.327-.288.585-.618.586z"/></svg>