<!--Generated by Fontisto--><svg viewBox="0 0 25 24" xmlns="http://www.w3.org/2000/svg"><path d="m5.506 24c-.563 0-1.019-.456-1.019-1.019s.456-1.019 1.019-1.019h6.873c.563 0 1.019.456 1.019 1.019s-.456 1.019-1.019 1.019zm3.263-5.491c-.563 0-1.019-.456-1.019-1.019s.456-1.019 1.019-1.019h9.728c.563 0 1.019.456 1.019 1.019s-.456 1.019-1.019 1.019zm-2.04-5.49c-.563 0-1.019-.456-1.019-1.019s.456-1.019 1.019-1.019h13.399c.563 0 1.019.456 1.019 1.019s-.456 1.019-1.019 1.019zm-3.671-5.494c-.563 0-1.019-.456-1.019-1.019s.456-1.019 1.019-1.019h15.438c.563 0 1.019.456 1.019 1.019s-.456 1.019-1.019 1.019zm-2.039-5.486c-.563 0-1.019-.456-1.019-1.019s.456-1.019 1.019-1.019h23.187c.563 0 1.019.456 1.019 1.019s-.456 1.019-1.019 1.019z"/></svg>