<!--Generated by Fontisto--><svg viewBox="0 0 31 24" xmlns="http://www.w3.org/2000/svg"><path d="m8.976 16.585c-.078-.002-.153-.013-.224-.034l.006.002c-.023-.006-.043-.012-.062-.019l.003.001c-.078-.026-.146-.058-.209-.097l.004.002-.022-.017c-.059-.041-.11-.086-.155-.137l-.001-.001c-.014-.015-.027-.03-.04-.045-.046-.058-.087-.123-.118-.193l-.002-.006c0-.006-.006-.009-.009-.014-.009-.021-.012-.042-.018-.062-.009-.022-.018-.051-.025-.08l-.001-.006c-.006-.027-.011-.061-.015-.095v-.004c0-.018-.007-.034-.008-.053s0-.03 0-.046v-.013c-.006-.114-.009-.227-.009-.342 0-4.008 3.249-7.257 7.257-7.257s7.257 3.249 7.257 7.257c0 .114 0 .225-.01.336v.064c0 .012-.005.027-.006.041-.004.044-.01.083-.019.122l.001-.006c-.01.04-.02.072-.032.104l.002-.007c-.006.016-.008.032-.014.048l-.008.014c-.024.055-.051.102-.082.146l.002-.003v.005c-.128.191-.325.327-.554.374l-.006.001h-.016c-.033.006-.073.01-.113.012h-.002-.107c-.022-.002-.043-.005-.062-.009l.003.001c-.034-.003-.066-.008-.096-.015l.004.001c-.04-.01-.073-.02-.105-.032l.006.002c-.017-.006-.034-.009-.05-.015-1.722-.709-3.721-1.121-5.817-1.121-.06 0-.119 0-.179.001h.009c-.051-.001-.11-.001-.17-.001-2.095 0-4.094.412-5.921 1.159l.104-.038c-.018.008-.038.011-.057.018s-.058.02-.088.027c-.029.006-.064.012-.101.016h-.005c-.017 0-.033.006-.05.008h-.052zm1.006-2.231c1.574-.492 3.385-.776 5.261-.776h.088-.005.082c1.877 0 3.687.283 5.391.81l-.129-.034c-.475-2.555-2.687-4.464-5.344-4.464s-4.87 1.909-5.339 4.431l-.005.034zm15.99 1.886c-.503 0-.91-.408-.91-.91s.408-.91.91-.91h3.77c.503 0 .91.408.91.91s-.408.91-.91.91zm-25.062 0c-.503 0-.91-.408-.91-.91s.408-.91.91-.91h3.77c.503 0 .91.408.91.91s-.408.91-.91.91zm21.3-7.794c-.164-.165-.266-.392-.266-.644s.102-.479.266-.644l2.666-2.666c.168-.192.413-.313.687-.313.503 0 .91.408.91.91 0 .274-.121.519-.312.686l-.001.001-2.666 2.666c-.165.165-.392.267-.644.267s-.479-.102-.644-.267zm-15.056 0-2.665-2.669c-.165-.165-.267-.392-.267-.644 0-.503.408-.91.91-.91.251 0 .479.102.644.266l2.666 2.666c.173.166.281.399.281.657 0 .503-.408.91-.91.91-.258 0-.491-.108-.657-.28zm7.261-3.76v-3.775c0-.503.408-.91.91-.91s.91.408.91.91v3.77c0 .503-.408.91-.91.91s-.91-.408-.91-.91z"/></svg>