<!--Generated by Fontisto--><svg viewBox="0 0 31 24" xmlns="http://www.w3.org/2000/svg"><path d="m9.658 19.847c-.984-1.228-1.58-2.804-1.58-4.519 0-4.006 3.248-7.254 7.254-7.254s7.254 3.248 7.254 7.254c0 1.793-.65 3.433-1.728 4.699l.009-.01c-.005.006-.011.01-.017.016-.03.032-.061.062-.094.089l-.002.001c-.016.013-.03.028-.047.04-.035.025-.074.049-.116.07l-.005.002c-.015.008-.03.018-.045.025-.048.022-.104.041-.162.054l-.006.001c-.024.006-.049.006-.072.01-.032.005-.071.009-.11.011h-.002-.018c-.045-.001-.089-.005-.131-.011l.005.001h-.022c-.065-.011-.122-.027-.177-.048l.006.002h-.005c-1.342-.525-2.896-.829-4.52-.829-1.63 0-3.189.306-4.622.864l.087-.03-.026.007-.036.01c-.079.027-.169.043-.263.044h-.001c-.352-.001-.657-.202-.807-.495l-.002-.005zm.234-4.52c.002 1.126.346 2.171.933 3.038l-.012-.019c1.349-.455 2.902-.718 4.516-.718s3.167.263 4.619.748l-.103-.03c.574-.848.917-1.895.917-3.021 0-3.001-2.433-5.434-5.434-5.434s-5.434 2.433-5.434 5.434v.001zm16.08.91c-.503 0-.91-.408-.91-.91s.408-.91.91-.91h3.77c.503 0 .91.408.91.91s-.408.91-.91.91zm-25.062 0c-.503 0-.91-.408-.91-.91s.408-.91.91-.91h3.772c.503 0 .91.408.91.91s-.408.91-.91.91zm21.3-7.795c-.165-.165-.267-.392-.267-.644s.102-.479.267-.644l2.666-2.666c.165-.165.393-.267.644-.267.503 0 .911.408.911.911 0 .252-.102.479-.267.644l-2.665 2.666c-.165.165-.393.267-.644.267s-.479-.102-.644-.267zm-15.056 0-2.662-2.666c-.165-.165-.267-.392-.267-.644 0-.503.408-.91.91-.91.251 0 .479.102.644.266l2.666 2.666c.173.166.281.399.281.657 0 .503-.408.91-.91.91-.258 0-.491-.108-.657-.28zm7.261-3.76v-3.772c0-.503.408-.91.91-.91s.91.408.91.91v3.77c0 .503-.408.91-.91.91s-.91-.408-.91-.91z"/></svg>