<!--Generated by Fontisto--><svg viewBox="0 0 21 24" xmlns="http://www.w3.org/2000/svg"><path d="m8.344 23.793c-.127-.127-.205-.302-.205-.495s.078-.369.205-.495l.858-.858h-.28c-.048 0-.096-.005-.141-.014l.005.001c-.022-.004-.041-.012-.062-.018-.028-.007-.051-.014-.074-.023l.003.001c-.027-.012-.05-.024-.071-.037l.003.002c-.017-.01-.036-.017-.052-.028-.078-.052-.142-.117-.193-.192l-.002-.003c-.01-.016-.018-.034-.027-.05-.012-.019-.024-.042-.035-.066l-.002-.004c-.009-.023-.015-.046-.022-.069s-.014-.04-.018-.062c-.008-.041-.013-.089-.013-.137s.005-.096.014-.142l-.001.005c.004-.021.012-.041.018-.062.007-.028.015-.051.023-.073l-.002.005c.013-.028.025-.051.039-.074l-.002.003c.009-.017.017-.034.027-.05.027-.04.057-.076.089-.108l1.97-1.97c.128-.133.307-.216.506-.216.387 0 .701.314.701.701 0 .198-.082.376-.214.504l-.776.776h.283c.048 0 .096.005.141.014l-.005-.001c.022.004.041.012.062.018.028.007.051.014.073.023l-.004-.001c.028.013.05.025.072.038l-.003-.002c.021.01.038.019.054.03l-.002-.001c.04.027.075.056.107.087.031.032.059.066.085.103l.002.003c.011.017.019.036.029.054.011.018.023.04.033.063l.002.004c.007.018.015.042.021.066l.001.005c.006.016.012.037.017.058l.001.004c.009.041.013.089.013.137s-.005.096-.014.142l.001-.005c-.006.025-.012.046-.019.066l.001-.004c-.007.029-.015.053-.024.076l.002-.005c-.012.027-.024.049-.037.071l.002-.003c-.01.018-.017.036-.028.053-.027.04-.056.076-.089.108l-2.053 2.053c-.127.127-.302.205-.495.205s-.369-.078-.495-.205zm-2.791-3.711c-.127-.127-.205-.302-.205-.496s.079-.369.205-.496l2.201-2.2h-1.569c-.048 0-.096-.005-.141-.014l.005.001c-.021-.004-.04-.012-.062-.018-.028-.007-.052-.015-.074-.024l.004.001c-.027-.012-.049-.024-.07-.037l.003.002c-.018-.01-.036-.017-.054-.029-.04-.027-.075-.056-.107-.087-.031-.032-.059-.066-.085-.103l-.002-.003c-.011-.018-.02-.036-.03-.054-.011-.018-.023-.04-.033-.062l-.002-.004c-.008-.019-.015-.043-.021-.067l-.001-.004c-.006-.016-.012-.036-.017-.058l-.001-.004c-.009-.041-.014-.089-.014-.137s.005-.096.015-.142l-.001.005c.004-.02.012-.039.017-.062.007-.029.015-.053.024-.077l-.002.005c.012-.027.024-.049.037-.07l-.002.003c.01-.021.02-.039.03-.055l-.001.002c.027-.04.056-.076.088-.108l2.087-2.087h-2.721c-2.791 0-5.054-2.263-5.054-5.054s2.263-5.054 5.054-5.054c.078 0 .156.007.234.011 1.188-2.106 3.41-3.506 5.96-3.506 3.765 0 6.818 3.052 6.818 6.817v.013c1.515.381 2.62 1.73 2.622 3.338-.002 1.898-1.54 3.436-3.437 3.438h-2.12l-.594.594h.28c.049 0 .097.005.143.015l-.005-.001c.023.006.041.011.059.018l-.004-.001c.03.007.055.015.079.025l-.004-.001c.026.012.048.024.068.036l-.003-.002c.018.01.038.018.055.03.04.027.075.056.107.087.031.031.06.066.085.103l.002.003c.009.015.019.032.028.051l.001.003c.011.018.023.04.033.063l.002.004c.009.023.015.047.022.071.006.016.012.037.017.058l.001.004c.009.041.014.089.014.137s-.005.096-.014.142l.001-.005c-.004.021-.012.039-.018.062-.007.029-.015.053-.024.076l.002-.005c-.012.027-.024.049-.037.071l.002-.003c-.01.018-.017.036-.028.053-.027.038-.056.071-.087.102l-2.054 2.053c-.128.133-.307.216-.506.216-.387 0-.701-.314-.701-.701 0-.199.083-.378.216-.506l.858-.858h-.28c-.048 0-.096-.005-.141-.014l.005.001c-.022-.004-.041-.012-.062-.018-.053-.012-.099-.032-.14-.059l.002.001c-.017-.01-.036-.017-.052-.029-.078-.052-.142-.116-.193-.191l-.002-.002c-.008-.014-.017-.03-.026-.047l-.001-.003c-.028-.04-.049-.086-.061-.136l-.001-.003c-.006-.016-.012-.037-.017-.058l-.001-.004c-.009-.041-.013-.089-.013-.137s.005-.096.014-.142l-.001.005c.006-.025.012-.046.02-.066l-.001.004c.007-.028.014-.051.022-.073l-.001.005c.013-.028.025-.051.039-.074l-.002.003c.009-.016.017-.034.027-.05.027-.04.056-.076.088-.108l.8-.8h-3.393l-1.882 1.882h1.569c.048 0 .096.005.141.014l-.005-.001c.021.004.041.012.062.018.027.006.05.014.073.023l-.003-.001c.026.012.048.024.07.037l-.003-.001c.018.01.036.018.054.029.04.027.075.056.107.087.031.031.06.066.085.103l.002.002c.009.015.019.032.027.051l.001.003c.011.018.023.04.033.063l.002.004c.007.018.014.042.02.066l.001.005c.006.016.012.037.017.058l.001.004c.009.041.014.089.014.137s-.005.096-.014.142l.001-.005c-.004.02-.012.039-.018.062-.007.029-.015.053-.024.076l.002-.005c-.012.027-.024.049-.037.07l.002-.003c-.01.021-.02.039-.03.056l.001-.003c-.027.04-.056.076-.088.108l-3.393 3.396c-.127.127-.302.205-.495.205s-.369-.078-.495-.205zm-4.152-11.53c.002 2.017 1.636 3.651 3.653 3.653h12.191c1.124 0 2.036-.912 2.036-2.036s-.912-2.036-2.036-2.036c-.502 0-.961.182-1.316.483l.003-.002c-.121.103-.28.166-.453.166-.387 0-.701-.314-.701-.701 0-.214.096-.406.247-.534l.001-.001c.448-.381 1.003-.65 1.613-.758l.021-.003c-.023-2.972-2.438-5.373-5.413-5.373-1.861 0-3.502.939-4.477 2.369l-.012.019c.556.201 1.038.475 1.462.816l-.01-.008c.161.13.263.327.263.547 0 .387-.314.701-.701.701-.166 0-.319-.058-.439-.155l.001.001c-.614-.499-1.406-.8-2.268-.8-.004 0-.007 0-.011 0h.001c-2.018.001-3.654 1.636-3.655 3.653z"/></svg>