<!--Generated by Fontisto--><svg viewBox="0 0 28 24" xmlns="http://www.w3.org/2000/svg"><path d="m12.652 23.794c-.127-.127-.206-.302-.206-.496s.079-.369.206-.496l.859-.857h-.28c-.049 0-.096-.005-.141-.015l.005.001c-.022-.004-.041-.012-.062-.018-.028-.007-.051-.015-.074-.023l.005.002c-.028-.013-.051-.025-.073-.039l.003.002c-.017-.009-.035-.017-.051-.027-.078-.053-.142-.118-.193-.193l-.002-.003c-.011-.016-.018-.034-.027-.05-.012-.019-.024-.042-.035-.066l-.002-.004c-.007-.018-.014-.041-.021-.064l-.001-.005c-.006-.021-.014-.041-.018-.062-.009-.041-.014-.089-.014-.137s.005-.096.014-.142l-.001.005c.006-.025.013-.046.02-.066l-.001.004c.012-.053.032-.1.06-.142l-.001.002c.009-.02.018-.036.028-.052l-.001.002c.027-.04.056-.076.089-.108l1.972-1.972c.128-.133.308-.216.507-.216.387 0 .701.314.701.701 0 .199-.083.379-.216.506l-.777.777h.28c.049 0 .096.005.142.014l-.005-.001c.025.006.046.012.066.02l-.004-.001c.028.007.051.014.074.022l-.005-.002c.028.013.052.026.074.039l-.003-.002c.02.01.037.019.052.029l-.002-.001c.078.052.143.117.194.192l.002.002c.008.013.017.03.025.047l.001.003c.012.019.025.043.036.067l.002.004c.007.018.014.041.02.064l.001.005c.006.02.014.04.019.062.008.041.013.089.013.137s-.005.096-.014.142l.001-.005c-.006.025-.013.045-.02.065l.001-.004c-.007.028-.014.051-.022.073l.001-.004c-.013.028-.026.052-.039.074l.002-.003c-.01.02-.019.036-.028.052l.001-.002c-.027.04-.056.076-.089.108l-2.054 2.055c-.127.127-.302.206-.496.206s-.369-.079-.496-.206zm-2.794-3.716c-.127-.127-.206-.302-.206-.496s.079-.369.206-.496l2.202-2.203h-1.57c-.049 0-.096-.005-.142-.014l.005.001c-.022-.004-.041-.012-.062-.018-.028-.007-.051-.015-.074-.023l.005.002c-.028-.013-.051-.025-.074-.039l.003.002c-.017-.009-.035-.017-.051-.028-.078-.052-.142-.117-.193-.192l-.002-.003c-.01-.016-.018-.034-.028-.051-.012-.019-.024-.042-.035-.066l-.002-.004c-.007-.018-.015-.041-.021-.065l-.001-.004c-.006-.016-.012-.037-.017-.058l-.001-.004c-.009-.041-.014-.089-.014-.137s.005-.096.014-.142l-.001.005c.006-.025.012-.046.019-.066l-.001.004c.007-.028.014-.051.023-.073l-.001.004c.013-.028.025-.051.039-.074l-.002.003c.009-.016.017-.034.027-.05.027-.04.056-.076.089-.108l2.067-2.067h-7.002c-2.795 0-5.06-2.265-5.06-5.06s2.265-5.06 5.06-5.06c.078 0 .157.006.235.01 1.189-2.108 3.413-3.508 5.965-3.508 3.205 0 5.894 2.209 6.627 5.187l.01.047c.852-.775 1.989-1.249 3.237-1.249 2.605 0 4.727 2.066 4.817 4.649v.008c1.039.337 1.777 1.297 1.777 2.429 0 1.407-1.141 2.548-2.548 2.548h-5.753l-.572.572h.28.001c.048 0 .096.005.141.014l-.005-.001c.025.006.046.012.066.02l-.004-.001c.028.007.051.014.074.022l-.005-.002c.028.013.051.025.074.039l-.003-.002c.02.01.036.019.052.028l-.002-.001c.078.052.143.117.194.192l.002.002c.009.014.017.03.025.047l.001.003c.012.019.025.043.036.067l.002.004c.007.018.014.041.02.064l.001.005c.006.021.014.041.019.062.008.041.013.089.013.137s-.005.096-.014.142l.001-.005c-.006.025-.013.045-.02.065l.001-.003c-.007.028-.014.051-.022.073l.001-.005c-.013.028-.026.052-.039.074l.002-.003c-.01.02-.019.036-.028.052l.001-.002c-.027.04-.056.076-.089.108l-2.056 2.056c-.128.133-.308.216-.507.216-.387 0-.701-.314-.701-.701 0-.199.083-.379.216-.506l.859-.857h-.28c-.049 0-.096-.005-.141-.015l.005.001c-.025-.006-.046-.013-.066-.02l.004.001c-.028-.007-.051-.015-.074-.023l.005.002c-.028-.013-.051-.025-.074-.039l.003.002c-.017-.009-.034-.017-.05-.027-.078-.052-.142-.117-.193-.192l-.002-.003c-.008-.014-.017-.03-.026-.047l-.001-.003c-.012-.019-.024-.042-.035-.066l-.002-.004c-.007-.018-.014-.041-.021-.064l-.001-.005c-.006-.021-.014-.04-.018-.062-.009-.041-.013-.089-.013-.137s.005-.096.014-.142l-.001.005c.004-.022.012-.041.018-.062.012-.053.032-.099.06-.141l-.001.002c.009-.017.016-.034.027-.051.027-.04.056-.076.089-.108l.777-.777h-3.396l-1.863 1.862h1.571c.049 0 .096.005.142.014l-.005-.001c.025.006.045.013.065.02l-.003-.001c.028.007.051.014.074.022l-.005-.002c.028.013.052.026.074.039l-.003-.002c.017.009.034.016.05.027.078.052.143.117.194.193l.002.003c.008.013.017.03.025.047l.001.003c.012.02.025.043.036.067l.002.004c.007.018.014.041.02.064l.001.005c.006.016.013.037.018.058l.001.004c.009.041.014.089.014.137s-.005.096-.014.142l.001-.005c-.006.025-.012.045-.02.065l.001-.004c-.007.028-.014.051-.022.073l.001-.005c-.013.028-.025.051-.039.074l.002-.003c-.01.02-.019.036-.029.052l.001-.002c-.027.04-.056.076-.089.108l-3.401 3.4c-.127.127-.302.206-.496.206s-.369-.079-.496-.206zm8.435-13.185c1.411.448 2.415 1.747 2.415 3.279 0 .77-.253 1.481-.682 2.054l.006-.009h5.144c.632-.001 1.144-.513 1.144-1.145s-.513-1.145-1.145-1.145c-.282 0-.541.102-.74.271l.002-.001c-.121.103-.28.165-.452.165-.387 0-.702-.314-.702-.702 0-.215.096-.407.248-.535l.001-.001c.282-.24.622-.42.995-.518l.018-.004c-.111-1.8-1.598-3.218-3.416-3.218-1.175 0-2.212.592-2.828 1.495l-.008.012zm-16.889 1.664c.002 2.019 1.638 3.655 3.657 3.657h12.205c1.126 0 2.038-.913 2.038-2.038s-.913-2.038-2.038-2.038c-.503 0-.963.182-1.319.484l.003-.002c-.121.103-.28.166-.453.166-.387 0-.702-.314-.702-.702 0-.214.096-.406.247-.535l.001-.001c.449-.381 1.004-.651 1.614-.759l.021-.003c-.023-2.975-2.441-5.378-5.419-5.378-1.863 0-3.507.94-4.482 2.372l-.012.019c.557.202 1.039.475 1.464.816l-.01-.008c.161.13.263.327.263.548 0 .388-.314.702-.702.702-.166 0-.319-.058-.44-.155l.001.001c-.615-.499-1.408-.801-2.271-.801-.003 0-.007 0-.01 0h.001c-2.02.001-3.658 1.638-3.66 3.658z"/></svg>