<!--Generated by Fontisto--><svg viewBox="0 0 26 24" xmlns="http://www.w3.org/2000/svg"><path d="m6.651 23.354c0-.357.289-.646.646-.646s.646.289.646.646-.289.646-.646.646c-.357 0-.646-.289-.646-.646zm1.849-1.849c0-.357.289-.646.646-.646s.646.289.646.646-.289.646-.646.646c-.357 0-.646-.289-.646-.646zm5.218-.843c0-.357.289-.646.646-.646s.646.289.646.646-.289.646-.646.646c-.357 0-.646-.289-.646-.646zm-9.94 0c0-.357.289-.646.646-.646s.646.289.646.646-.289.646-.646.646c0 0 0 0-.001 0-.357 0-.645-.289-.645-.646zm6.57-1.005c0-.357.289-.646.646-.646s.646.289.646.646-.289.646-.646.646c-.357 0-.646-.289-.646-.646zm5.218-.843c0-.357.289-.646.646-.646s.646.289.646.646-.289.646-.646.646c-.357 0-.646-.289-.646-.646zm-9.938 0c0-.357.289-.646.646-.646s.646.289.646.646-.289.646-.646.646c-.357 0-.646-.289-.646-.646zm-.494-1.834c-.017 0-.037 0-.057 0-2.835 0-5.134-2.299-5.134-5.134s2.299-5.134 5.134-5.134h.06-.003c.08 0 .159.006.238.01 1.206-2.14 3.463-3.561 6.053-3.561.985 0 1.922.206 2.77.576l-.045-.017c1.017-2.212 3.214-3.72 5.763-3.72.118 0 .235.003.352.01l-.016-.001c.377.021.674.331.674.711 0 .128-.034.248-.093.352l.002-.003c-.322.564-.512 1.239-.512 1.959 0 2.211 1.792 4.003 4.003 4.003.245 0 .485-.022.718-.064l-.024.004.283-.043c.032-.005.069-.008.107-.008.393 0 .712.319.712.712 0 .057-.007.112-.019.165l.001-.005c-.608 2.506-2.638 4.409-5.168 4.821l-.037.005c.072.265.114.569.114.882 0 1.922-1.558 3.479-3.479 3.479-.004 0-.008 0-.012 0h.001zm-3.71-5.135c.002 2.048 1.662 3.708 3.71 3.711h12.384c1.142 0 2.068-.926 2.068-2.068s-.926-2.068-2.068-2.068c-.51 0-.977.185-1.338.491l.003-.002c-.127.117-.296.189-.483.189-.393 0-.712-.319-.712-.712 0-.229.108-.433.276-.563l.002-.001c.456-.387 1.019-.66 1.639-.771l.021-.003c-.021-3.021-2.475-5.462-5.499-5.462-1.892 0-3.561.956-4.55 2.411l-.012.019c.565.205 1.053.483 1.485.829l-.01-.008c.18.131.296.341.296.578 0 .393-.319.712-.712.712-.182 0-.349-.069-.475-.181l.001.001c-.624-.506-1.429-.813-2.305-.813-.003 0-.007 0-.01 0h.001c-2.05.001-3.711 1.662-3.713 3.712zm13.971-7.428c1.796 1.267 2.954 3.333 2.955 5.669q0 .006 0 .013c.752.188 1.389.6 1.855 1.159l.005.006c1.837-.115 3.393-1.218 4.149-2.78l.013-.029c-.013 0-.028 0-.044 0-3 0-5.431-2.432-5.431-5.431 0-.547.081-1.075.231-1.573l-.01.038c-1.687.285-3.062 1.397-3.712 2.896l-.012.032z"/></svg>