<!--Generated by Fontisto--><svg viewBox="0 0 26 24" xmlns="http://www.w3.org/2000/svg"><path d="m4.241 23.795c-.127-.127-.205-.302-.205-.495s.078-.368.205-.495l3.626-3.625c.128-.133.307-.216.506-.216.387 0 .7.314.7.701 0 .199-.083.378-.216.506l-3.626 3.625c-.127.127-.302.205-.495.205s-.368-.078-.495-.205zm7.376-3.43c-.127-.127-.205-.302-.205-.495s.078-.368.205-.495l2.663-2.663h-7.399l-3.653 3.653c-.127.127-.302.205-.496.205-.387 0-.701-.314-.701-.701 0-.193.078-.368.205-.495l2.677-2.677c-2.73-.076-4.914-2.307-4.914-5.048 0-2.789 2.261-5.049 5.049-5.049.048 0 .095.001.143.002h-.007c.079 0 .156.006.235.01 1.191-2.102 3.411-3.499 5.958-3.505h.001.006c.967 0 1.886.202 2.718.567l-.044-.017c1.006-2.175 3.169-3.657 5.678-3.657.115 0 .229.003.342.009l-.016-.001c.37.02.663.326.663.7v.019-.001c-.003.13-.042.251-.106.354l.002-.003c-.308.549-.49 1.204-.49 1.902 0 2.176 1.764 3.94 3.94 3.94.242 0 .478-.022.708-.063l-.024.004.279-.042c.032-.005.068-.008.105-.008.387 0 .7.314.7.7 0 .056-.007.111-.019.164l.001-.005c-.598 2.467-2.596 4.34-5.087 4.745l-.036.005c.072.261.113.561.113.871 0 1.89-1.532 3.423-3.423 3.423-.005 0-.01 0-.015 0h-1.113l-3.653 3.654c-.127.127-.302.205-.495.205s-.368-.078-.495-.205zm-10.083-8.708c.002 2.016 1.636 3.65 3.651 3.653h12.192c1.124 0 2.035-.912 2.035-2.036s-.911-2.036-2.036-2.036c-.502 0-.961.182-1.316.483l.003-.002c-.121.103-.28.166-.453.166-.387 0-.701-.314-.701-.701 0-.214.096-.406.247-.534l.001-.001c.448-.381 1.002-.65 1.612-.758l.021-.003c-.02-2.974-2.435-5.376-5.412-5.376-1.862 0-3.505.941-4.479 2.373l-.012.019c.556.201 1.037.474 1.462.815l-.01-.008c.175.129.288.334.288.566 0 .387-.314.7-.7.7-.178 0-.34-.066-.464-.175l.001.001c-.614-.498-1.406-.8-2.268-.8-.003 0-.007 0-.01 0h.001c-2.018.001-3.654 1.637-3.654 3.655zm13.752-7.311c1.768 1.247 2.908 3.28 2.909 5.58q0 .006 0 .013c.74.185 1.367.59 1.826 1.14l.004.006c1.808-.113 3.339-1.199 4.084-2.736l.013-.029c-.015 0-.033 0-.051 0-.261 0-.517-.019-.767-.056l.028.003c-2.613-.38-4.598-2.604-4.598-5.293 0-.538.079-1.058.227-1.547l-.01.038c-1.661.28-3.015 1.374-3.654 2.85l-.012.031z"/></svg>