<!--Generated by Fontisto--><svg viewBox="0 0 33 24" xmlns="http://www.w3.org/2000/svg"><path d="m6.57 10.402h.012c1.121 0 2.15.392 2.957 1.047l-.009-.007c.154.124.353.2.569.2.287 0 .543-.132.71-.339l.001-.002c.124-.154.2-.353.2-.569 0-.287-.133-.543-.34-.71l-.002-.001c-.539-.433-1.164-.788-1.842-1.035l-.046-.015c1.285-1.881 3.417-3.101 5.834-3.108h.001c3.867.003 7.005 3.124 7.034 6.984v.003c-.82.145-1.54.495-2.129.995l.006-.005c-.196.168-.32.416-.32.694 0 .224.081.429.215.588l-.001-.001c.168.196.416.32.694.32.224 0 .429-.081.588-.215l-.001.001c.457-.389 1.055-.625 1.707-.625 1.46.002 2.644 1.185 2.646 2.645-.001 1.461-1.185 2.645-2.645 2.646h-15.84c-2.62-.003-4.743-2.127-4.746-4.747.004-2.619 2.126-4.741 4.745-4.744zm17.892-8.503c-.087.281-.162.622-.212.971l-.004.037c-.042.287-.066.619-.066.956 0 3.493 2.579 6.384 5.937 6.874l.038.004c.291.043.626.068.967.068h.062-.003c-.985 2.036-2.974 3.447-5.306 3.593l-.018.001c-.602-.723-1.418-1.249-2.349-1.483l-.031-.007v-.017c-.001-2.989-1.483-5.631-3.752-7.233l-.028-.019c.847-1.959 2.608-3.381 4.729-3.739l.037-.005zm-17.892 19.815h15.84c2.466-.003 4.464-2.001 4.466-4.467-.002-.396-.055-.779-.153-1.144l.007.031c3.284-.533 5.88-2.967 6.646-6.117l.011-.056c.015-.062.024-.133.024-.206 0-.239-.092-.457-.243-.62l.001.001c-.167-.18-.404-.292-.668-.292-.049 0-.096.004-.143.011l.005-.001-.362.056c-.266.049-.573.077-.886.077-.252 0-.499-.018-.741-.053l.028.003c-2.505-.362-4.408-2.494-4.408-5.07 0-.25.018-.495.052-.736l-.003.027c.094-.658.299-1.251.597-1.786l-.013.026c.082-.129.132-.286.136-.454v-.001c0-.007 0-.016 0-.025 0-.486-.381-.883-.86-.908h-.002c-.125-.007-.272-.011-.419-.011-3.263 0-6.077 1.928-7.363 4.706l-.021.05c-1.024-.452-2.219-.715-3.475-.715-.003 0-.006 0-.009 0-3.311.008-6.195 1.823-7.721 4.511l-.023.044c-.102-.005-.203-.013-.305-.013-3.625.004-6.562 2.942-6.566 6.566.004 3.625 2.941 6.563 6.566 6.568z"/></svg>