<!--Generated by Fontisto--><svg viewBox="0 0 24 24" xmlns="http://www.w3.org/2000/svg"><path d="m19.524 14.721h.008c.644 0 1.275-.059 1.886-.172l-.063.01c-1.146 4.122-4.866 7.098-9.281 7.098-.019 0-.039 0-.058 0h.003c-5.343-.006-9.673-4.336-9.678-9.679v-.001c.026-4.418 2.986-8.138 7.029-9.312l.069-.017c-.103.547-.162 1.176-.162 1.819v.007c.005 5.658 4.59 10.243 10.247 10.248h.001zm-7.518-14.251c-.214-.286-.552-.47-.933-.47-.037 0-.074.002-.11.005h.005c-6.155.591-10.934 5.719-10.968 11.971v.003c.008 6.635 5.385 12.012 12.019 12.021h.001.06c6.243 0 11.367-4.786 11.905-10.889l.003-.045c.003-.031.005-.068.005-.104 0-.365-.167-.691-.428-.905l-.002-.002c-.2-.164-.458-.264-.74-.264-.12 0-.235.018-.344.051l.008-.002-.524.156c-.727.244-1.565.385-2.435.385-.002 0-.005 0-.007 0-4.363-.005-7.898-3.54-7.903-7.903 0-.005 0-.012 0-.018 0-1.03.198-2.014.558-2.915l-.019.053c.051-.127.081-.274.081-.428 0-.265-.088-.51-.236-.706l.002.003z"/></svg>