<!--Generated by Fontisto--><svg viewBox="0 0 23 24" xmlns="http://www.w3.org/2000/svg"><path d="m7.317 23.823c-.112-.112-.182-.268-.182-.439s.069-.327.182-.439l.761-.761h-.248c-.043 0-.085-.005-.126-.013l.004.001c-.019-.003-.036-.011-.055-.016-.024-.006-.045-.012-.064-.02l.003.001c-.025-.011-.045-.022-.065-.034l.003.002c-.018-.008-.032-.017-.046-.026l.002.001c-.069-.046-.127-.104-.172-.17l-.001-.002c-.01-.015-.017-.032-.026-.047s-.02-.035-.029-.055l-.002-.004c-.008-.021-.014-.043-.02-.064-.005-.015-.011-.033-.015-.052l-.001-.003c-.008-.037-.012-.079-.012-.122s.004-.085.013-.126l-.001.004c.004-.019.01-.035.016-.055s.011-.043.02-.063c.011-.024.021-.043.033-.062l-.002.003c.009-.016.016-.033.026-.048.024-.035.049-.065.076-.093l1.746-1.746c.112-.112.268-.182.439-.182.343 0 .621.278.621.621 0 .172-.07.327-.182.439l-.687.687h.249c.042 0 .084.004.124.013l-.004-.001c.022.005.041.011.058.018l-.004-.001c.024.006.044.012.064.02l-.004-.001c.025.011.046.023.066.035l-.003-.002c.015.008.029.014.044.023.069.046.126.104.171.17l.001.002c.01.015.017.031.026.047.01.017.021.036.03.057l.001.003c.006.016.013.037.019.059l.001.005c.005.014.01.033.015.051l.001.003c.008.037.012.079.013.122 0 .042-.004.084-.013.123l.001-.004c-.004.019-.011.038-.016.055-.006.024-.012.044-.02.063l.001-.004c-.011.025-.022.046-.035.066l.001-.002c-.008.015-.014.029-.023.044-.024.036-.05.067-.078.096l-1.819 1.819c-.112.112-.268.182-.439.182s-.327-.07-.439-.182zm-2.474-3.29c-.112-.112-.182-.268-.182-.439s.069-.327.182-.439l1.95-1.95h-1.39c-.043 0-.085-.005-.125-.013l.004.001c-.019-.004-.036-.011-.055-.016-.024-.006-.045-.013-.065-.021l.003.001c-.024-.011-.044-.022-.063-.033l.003.002c-.019-.009-.034-.017-.049-.026l.002.001c-.069-.046-.126-.103-.171-.17l-.001-.002c-.01-.014-.016-.03-.025-.045-.024-.035-.043-.076-.054-.121l-.001-.003c-.005-.014-.011-.032-.016-.051l-.001-.004c-.008-.037-.012-.078-.012-.121s.004-.085.013-.125l-.001.004c.005-.022.011-.04.018-.058l-.001.004c.006-.025.013-.045.02-.065l-.001.004c.011-.025.022-.045.035-.065l-.001.002c.009-.018.017-.032.025-.046l-.001.002c.024-.036.05-.067.078-.096l1.828-1.828h-2.31c-2.474 0-4.48-2.006-4.48-4.48s2.006-4.48 4.48-4.48c.07 0 .139.006.208.009 1.057-1.863 3.024-3.101 5.282-3.107h.001.006c.857 0 1.672.179 2.409.502l-.039-.015c.887-1.93 2.804-3.246 5.028-3.246.104 0 .207.003.31.009l-.014-.001c.328.018.588.288.588.62v.018-.001c-.003.116-.037.223-.094.314l.001-.003c-.273.486-.434 1.068-.434 1.686 0 1.929 1.564 3.493 3.493 3.493.214 0 .424-.019.627-.056l-.021.003.248-.038c.028-.004.06-.007.093-.007.343 0 .621.278.621.621 0 .05-.006.098-.017.145l.001-.004c-.53 2.187-2.302 3.847-4.51 4.207l-.032.004c.063.231.099.497.099.771 0 1.676-1.359 3.035-3.035 3.035-.004 0-.008 0-.012 0h-1.976l-.504.504h.248c.043 0 .085.005.126.013l-.004-.001c.022.005.041.011.058.018l-.004-.001c.025.007.045.013.065.021l-.004-.001c.025.011.045.022.065.035l-.002-.001c.015.008.03.015.044.024.069.046.126.104.171.17l.001.002c.008.013.017.028.024.044l.001.003c.01.016.021.036.03.056l.002.004c.006.016.013.037.019.059l.001.004c.005.014.01.033.015.051l.001.003c.008.037.012.079.013.122 0 .042-.004.084-.013.123l.001-.004c-.005.022-.011.04-.018.058l.001-.003c-.005.017-.01.04-.018.059-.012.025-.023.046-.035.066l.002-.003c-.008.015-.014.029-.023.044-.024.036-.05.067-.079.095l-1.82 1.82c-.112.112-.268.182-.439.182-.343 0-.621-.278-.621-.621 0-.171.069-.327.182-.439l.76-.76h-.248c-.043 0-.085-.005-.125-.013l.004.001c-.019-.003-.037-.011-.055-.016-.025-.006-.045-.013-.065-.021l.004.001c-.025-.011-.045-.022-.065-.034l.003.002c-.015-.008-.03-.015-.045-.025-.069-.046-.126-.104-.171-.17l-.001-.002c-.01-.015-.017-.032-.026-.047-.01-.016-.02-.036-.03-.056l-.002-.004c-.006-.016-.013-.038-.019-.059l-.001-.004c-.005-.014-.01-.033-.015-.051l-.001-.003c-.008-.037-.012-.079-.013-.122 0-.042.005-.084.013-.124l-.001.004c.004-.019.011-.037.016-.055s.011-.04.019-.06c.012-.026.023-.046.035-.066l-.002.003c.008-.014.015-.03.024-.044.024-.036.05-.067.078-.096l.686-.686h-3.006l-1.647 1.647h1.391c.043 0 .085.004.126.013l-.004-.001c.019.004.036.011.055.016.025.006.046.013.066.021l-.004-.001c.024.011.044.022.063.033l-.003-.002c.015.009.032.015.046.026.069.046.126.103.171.17l.001.002c.009.014.016.029.024.044.011.017.022.038.032.059l.001.004c.006.016.013.036.018.056l.001.004c.005.019.013.036.016.055.008.037.012.078.012.121s-.004.085-.013.125l.001-.004c-.004.019-.011.037-.016.055-.006.025-.013.045-.02.065l.001-.004c-.011.025-.022.045-.035.065l.001-.002c-.008.017-.016.032-.025.046l.001-.002c-.024.037-.05.069-.078.098l-3.01 3.01c-.112.112-.268.182-.439.182s-.327-.069-.439-.182zm-3.602-10.198c.002 1.787 1.45 3.236 3.237 3.238h10.811c.997 0 1.804-.808 1.804-1.805s-.808-1.805-1.805-1.805c-.445 0-.852.161-1.167.428l.003-.002c-.108.091-.248.147-.401.147-.343 0-.621-.278-.621-.621 0-.19.085-.36.219-.474l.001-.001c.397-.338.889-.576 1.429-.672l.018-.003c-.018-2.637-2.159-4.767-4.798-4.767-1.651 0-3.107.834-3.971 2.103l-.011.017c.493.179.92.421 1.296.723l-.009-.007c.129.114.211.281.211.466 0 .343-.278.621-.621.621-.137 0-.265-.045-.367-.12l.002.001c-.545-.442-1.246-.709-2.011-.709-.003 0-.006 0-.009 0-1.789.001-3.24 1.451-3.24 3.241zm12.193-6.481c1.567 1.105 2.578 2.908 2.579 4.947v.012c.656.164 1.213.523 1.62 1.011l.004.005c1.603-.1 2.96-1.063 3.621-2.426l.011-.026c-.011 0-.024 0-.037 0-2.618 0-4.74-2.122-4.74-4.74 0-.477.07-.937.201-1.371l-.009.034c-1.472.248-2.673 1.219-3.24 2.527l-.011.028z"/></svg>