<!--Generated by Fontisto--><svg viewBox="0 0 24 24" xmlns="http://www.w3.org/2000/svg"><path d="m5.119 23.764c-.146-.146-.236-.347-.236-.569s.09-.424.236-.569l4.166-4.165c.147-.153.353-.248.581-.248.445 0 .805.36.805.805 0 .228-.095.435-.248.581l-4.165 4.166c-.146.146-.347.236-.569.236s-.424-.09-.569-.236zm8.475-3.94c-.146-.146-.236-.347-.236-.569s.09-.423.236-.569l3.059-3.056h-8.5l-4.198 4.195c-.146.146-.347.236-.569.236-.445 0-.805-.36-.805-.805 0-.222.09-.424.236-.569l3.06-3.06h-.071c-.019 0-.042 0-.064 0-3.206 0-5.806-2.599-5.806-5.806s2.599-5.806 5.806-5.806h.067-.003c.09 0 .18.007.269.011 1.364-2.42 3.917-4.027 6.846-4.027 4.325 0 7.832 3.506 7.832 7.831q0 .007 0 .015c1.74.437 3.008 1.987 3.008 3.833 0 2.18-1.767 3.946-3.946 3.946h-.884l-4.198 4.198c-.146.146-.347.236-.569.236s-.423-.09-.569-.236zm-11.985-10.004c.002 2.317 1.88 4.194 4.196 4.197h14.004c1.292 0 2.338-1.047 2.338-2.339s-1.047-2.339-2.339-2.339c-.577 0-1.104.209-1.512.554l.003-.003c-.14.119-.322.192-.522.192-.445 0-.806-.361-.806-.806 0-.246.11-.466.283-.613l.001-.001c.515-.437 1.152-.747 1.852-.871l.024-.004c-.029-3.412-2.802-6.168-6.218-6.168-2.136 0-4.02 1.077-5.139 2.717l-.014.021c.639.231 1.192.545 1.68.937l-.011-.009c.188.149.307.377.307.633 0 .445-.36.805-.805.805-.193 0-.371-.068-.51-.182l.001.001c-.706-.573-1.616-.919-2.606-.919-.004 0-.008 0-.011 0h.001c-2.318.001-4.197 1.879-4.199 4.197z"/></svg>