<!--Generated by Fontisto--><svg viewBox="0 0 33 24" xmlns="http://www.w3.org/2000/svg"><path d="m31.558 16.69c0-8.212-6.657-14.869-14.869-14.869s-14.869 6.657-14.869 14.869c0 .503-.408.91-.91.91s-.91-.408-.91-.91c0-.034 0-.075 0-.116 0-9.217 7.472-16.69 16.69-16.69s16.69 7.472 16.69 16.69v.122-.006c0 .503-.408.91-.91.91s-.91-.408-.91-.91zm-3.643 0c0-6.2-5.026-11.226-11.226-11.226s-11.226 5.026-11.226 11.226c0 .503-.408.91-.91.91s-.91-.408-.91-.91c0-7.206 5.841-13.047 13.047-13.047s13.047 5.841 13.047 13.047c0 .503-.408.91-.91.91s-.91-.408-.91-.91zm-3.642 0c0-4.189-3.396-7.584-7.584-7.584s-7.584 3.396-7.584 7.584c0 .503-.408.91-.91.91s-.91-.408-.91-.91c0-5.194 4.211-9.405 9.405-9.405s9.405 4.211 9.405 9.405c0 .503-.408.91-.91.91s-.91-.408-.91-.91zm-3.643 0c0-.017 0-.036 0-.056 0-2.177-1.765-3.942-3.942-3.942s-3.942 1.765-3.942 3.942v.059-.003c0 .503-.408.91-.91.91s-.91-.408-.91-.91c0-3.183 2.58-5.763 5.763-5.763s5.763 2.58 5.763 5.763c0 .503-.408.91-.91.91s-.91-.408-.91-.91z"/></svg>