<!--Generated by Fontisto--><svg viewBox="0 0 33 24" xmlns="http://www.w3.org/2000/svg"><path d="m11.524 23.758c-.149-.149-.242-.356-.242-.584s.092-.434.242-.584l4.272-4.271c.15-.157.362-.254.596-.254.456 0 .825.37.825.825 0 .234-.098.446-.254.596l-4.272 4.272c-.149.149-.356.242-.583.242s-.434-.092-.583-.242zm8.505-3.431c-.149-.149-.242-.356-.242-.584s.092-.434.242-.584l3.138-3.138h-9.192l-4.304 4.305c-.15.157-.362.254-.596.254-.456 0-.825-.37-.825-.825 0-.234.098-.446.254-.596l3.138-3.134h-5.687c-.02 0-.043 0-.066 0-3.288 0-5.954-2.666-5.954-5.954s2.666-5.954 5.954-5.954h.069-.004c.092 0 .184.007.276.012 1.398-2.482 4.016-4.131 7.02-4.131 3.769 0 6.931 2.596 7.796 6.098l.012.055c1.003-.912 2.341-1.47 3.809-1.47 3.066 0 5.564 2.433 5.667 5.474v.009c1.228.393 2.102 1.525 2.102 2.861 0 1.656-1.342 2.998-2.998 2.998-.004 0-.008 0-.013 0h-4.124l-4.304 4.301c-.149.149-.356.242-.583.242s-.434-.092-.583-.242zm-18.378-10.259c.002 2.375 1.927 4.3 4.302 4.304h14.372c1.322-.004 2.392-1.076 2.392-2.398 0-1.325-1.074-2.398-2.398-2.398-.592 0-1.133.214-1.551.569l.003-.003c-.143.122-.33.196-.533.196-.456 0-.825-.37-.825-.825 0-.252.113-.478.291-.629l.001-.001c.528-.448 1.181-.766 1.9-.894l.024-.004c-.023-3.504-2.869-6.335-6.376-6.335-2.194 0-4.129 1.108-5.277 2.795l-.014.022c.656.237 1.223.559 1.723.961l-.012-.009c.193.152.315.386.315.649 0 .456-.37.825-.825.825-.198 0-.38-.07-.523-.186l.001.001c-.724-.587-1.657-.943-2.672-.943-.004 0-.008 0-.012 0h.001c-2.377.001-4.304 1.927-4.306 4.304zm19.872-1.958c1.66.527 2.841 2.055 2.841 3.858 0 .905-.298 1.741-.8 2.414l.008-.011h6.053c.744-.001 1.346-.604 1.346-1.348s-.603-1.348-1.348-1.348c-.332 0-.636.12-.871.319l.002-.002c-.145.13-.338.209-.55.209-.456 0-.826-.37-.826-.826 0-.26.12-.493.309-.644l.002-.001c.332-.282.732-.494 1.172-.609l.021-.005c-.131-2.118-1.88-3.786-4.02-3.786-1.383 0-2.603.697-3.328 1.759l-.009.014z"/></svg>