<!--Generated by Fontisto--><svg viewBox="0 0 24 24" xmlns="http://www.w3.org/2000/svg"><path d="m6.651 23.256c0-.411.333-.744.744-.744s.744.333.744.744-.333.744-.744.744c-.411 0-.744-.333-.744-.744zm2.13-2.129c0-.411.333-.744.744-.744s.744.333.744.744-.333.744-.744.744c-.411 0-.744-.333-.744-.744zm6.009-.971c0-.411.333-.744.744-.744s.744.333.744.744-.333.744-.744.744c-.411 0-.744-.333-.744-.744zm-11.447 0c0-.411.333-.744.744-.744s.744.333.744.744-.333.744-.744.744c-.411 0-.744-.333-.744-.744zm7.567-1.158c0-.411.333-.744.744-.744s.744.333.744.744-.333.744-.744.744c-.411 0-.744-.333-.744-.744zm6.009-.971c0-.411.333-.744.744-.744s.744.333.744.744-.333.744-.744.744c-.411 0-.744-.333-.744-.744zm-11.447 0c0-.411.333-.744.744-.744s.744.333.744.744-.333.744-.744.744c-.41-.001-.743-.334-.743-.744zm.44-2.112c-.019 0-.042 0-.065 0-3.265 0-5.912-2.647-5.912-5.912s2.647-5.912 5.912-5.912h.069-.003c.091 0 .183.007.274.012 1.389-2.464 3.989-4.101 6.971-4.101 4.405 0 7.975 3.571 7.975 7.975q0 .008 0 .015c1.772.445 3.063 2.023 3.063 3.904 0 2.22-1.799 4.019-4.019 4.019zm-4.273-5.914c.002 2.359 1.914 4.271 4.273 4.274h14.261c1.315 0 2.381-1.067 2.381-2.382s-1.066-2.382-2.382-2.382c-.587 0-1.125.212-1.54.565l.003-.003c-.142.121-.328.195-.532.195-.453 0-.821-.368-.821-.821 0-.25.112-.474.288-.625l.001-.001c.525-.445 1.173-.76 1.886-.887l.024-.004c-.03-3.474-2.854-6.279-6.332-6.279-2.174 0-4.093 1.096-5.233 2.766l-.014.022c.651.235 1.214.555 1.711.954l-.012-.009c.191.151.313.384.313.644 0 .453-.367.82-.82.82-.197 0-.378-.069-.519-.185l.001.001c-.719-.583-1.645-.936-2.654-.936-.004 0-.008 0-.012 0h.001c-2.361.001-4.274 1.914-4.276 4.274z"/></svg>