<!--Generated by Fontisto--><svg viewBox="0 0 32 24" xmlns="http://www.w3.org/2000/svg"><path d="m12.18 23.256c0-.411.333-.744.744-.744s.744.333.744.744-.333.744-.744.744c-.411 0-.744-.333-.744-.744zm2.13-2.129c0-.411.333-.743.744-.743s.744.333.744.744-.333.744-.744.744c-.411 0-.744-.333-.744-.744zm6.009-.971c0-.411.333-.744.744-.744s.744.333.744.744-.333.744-.744.744c-.411 0-.744-.333-.744-.744zm-11.447 0c0-.411.333-.744.744-.744s.744.333.744.744-.333.744-.744.744c-.411 0-.744-.333-.744-.744zm7.567-1.158c0-.411.333-.744.744-.744s.744.333.744.744-.333.744-.744.744c-.411 0-.744-.333-.744-.744zm6.01-.971c0-.411.333-.743.744-.743s.744.333.744.744-.333.744-.744.744c-.411 0-.744-.333-.744-.744zm-11.448 0c0-.411.333-.744.744-.744s.744.333.744.744-.333.744-.744.744c-.411 0-.744-.333-.744-.744zm9.177-2.113h-14.266c-3.265 0-5.913-2.647-5.913-5.913s2.647-5.913 5.913-5.913c.091 0 .183.007.274.012 1.389-2.464 3.989-4.101 6.971-4.101 3.744 0 6.885 2.58 7.743 6.059l.011.055c.996-.906 2.325-1.46 3.783-1.46 3.045 0 5.525 2.416 5.628 5.436v.009c1.221.39 2.09 1.515 2.09 2.842 0 1.644-1.333 2.978-2.978 2.978-.005 0-.01 0-.015 0h.001zm1.2-7.861c1.648.524 2.821 2.041 2.821 3.831 0 .9-.296 1.731-.797 2.401l.008-.011h6.012c.739-.001 1.337-.6 1.337-1.338s-.599-1.338-1.338-1.338c-.33 0-.632.119-.865.317l.002-.002c-.139.112-.318.18-.512.18-.453 0-.82-.367-.82-.82 0-.243.106-.462.274-.612l.001-.001c.329-.28.726-.491 1.163-.605l.021-.005c-.129-2.104-1.867-3.761-3.991-3.761-1.373 0-2.585.693-3.305 1.747l-.009.014zm-19.736 1.945c.003 2.359 1.914 4.27 4.273 4.273h14.262c1.316 0 2.382-1.066 2.382-2.382s-1.066-2.382-2.382-2.382c-.588 0-1.125.213-1.541.565l.003-.003c-.144.127-.334.205-.542.205-.453 0-.82-.367-.82-.82 0-.256.117-.485.301-.635l.001-.001c.525-.446 1.173-.761 1.887-.887l.024-.004c-.026-3.478-2.851-6.287-6.332-6.287-2.179 0-4.101 1.101-5.24 2.776l-.014.022c.651.235 1.214.555 1.711.954l-.012-.009c.191.151.313.384.313.644 0 .453-.367.82-.82.82-.197 0-.378-.069-.519-.185l.001.001c-.719-.583-1.645-.936-2.654-.936-.004 0-.008 0-.012 0h.001c-2.361.001-4.274 1.914-4.276 4.274z"/></svg>