<!--Generated by Fontisto--><svg viewBox="0 0 21 24" xmlns="http://www.w3.org/2000/svg"><path d="m17.852 11.059c-.968.001-1.837.426-2.431 1.1l-.003.004c-.596-.678-1.465-1.103-2.434-1.104-.968.001-1.837.426-2.431 1.099l-.003.004c-.597-.677-1.466-1.102-2.434-1.103-.968.001-1.837.426-2.431 1.099l-.003.004c-.597-.677-1.466-1.102-2.434-1.103-.002 0-.003 0-.005 0-.588 0-1.139.157-1.614.432l.016-.008c.276-4.705 4.156-8.417 8.904-8.423h.001c4.749.006 8.629 3.718 8.903 8.399l.001.024c-.459-.266-1.01-.423-1.598-.423-.002 0-.003 0-.005 0zm-6.484-9.597v-.646c0-.451-.366-.817-.817-.817-.451 0-.817.366-.817.817v.646c-5.461.442-9.727 4.98-9.735 10.515v2.333c0 .451.366.817.817.817.451 0 .816-.366.817-.817.001-.893.724-1.617 1.617-1.617.893.001 1.616.725 1.617 1.617 0 .451.366.817.817.817.451 0 .817-.366.817-.817.001-.893.724-1.617 1.617-1.617.893.001 1.617.724 1.617 1.617v6.439c.002 1.794 1.456 3.248 3.25 3.25 1.794-.002 3.248-1.456 3.25-3.25 0-.451-.366-.817-.817-.817-.451 0-.817.366-.817.817-.001.893-.724 1.616-1.616 1.617-.893-.001-1.617-.724-1.617-1.617v-6.439c.001-.893.724-1.617 1.617-1.617.893.001 1.616.725 1.617 1.617 0 .451.366.817.817.817.451 0 .817-.366.817-.817.001-.893.724-1.617 1.617-1.617.893.001 1.616.725 1.617 1.617 0 .451.366.817.817.817.451 0 .817-.366.817-.817v-2.332c-.008-5.536-4.273-10.073-9.696-10.514l-.038-.002z"/></svg>