<!--Generated by Fontisto--><svg viewBox="0 0 26 24" xmlns="http://www.w3.org/2000/svg"><path d="m8.417 19.246c0-.555.45-1.005 1.005-1.005s1.005.45 1.005 1.005c.002 1.515 1.23 2.743 2.745 2.745 1.817-.002 3.29-1.475 3.292-3.292-.003-2.163-1.756-3.916-3.919-3.917h-11.54c-.555 0-1.005-.45-1.005-1.005s.45-1.005 1.005-1.005h11.54c3.272.004 5.924 2.656 5.928 5.928-.005 2.926-2.375 5.296-5.3 5.301-2.625-.003-4.752-2.129-4.756-4.754zm5.702-8.015c-.555 0-1.005-.45-1.005-1.005s.45-1.005 1.005-1.005h6.156c2.164-.003 3.917-1.756 3.918-3.92-.002-1.817-1.475-3.29-3.292-3.292-1.515.002-2.743 1.23-2.745 2.745 0 .555-.45 1.005-1.005 1.005s-1.005-.45-1.005-1.005c.004-2.625 2.131-4.751 4.755-4.754 2.926.005 5.296 2.375 5.301 5.3-.004 3.273-2.656 5.925-5.928 5.929zm-13.114 0c-.555 0-1.005-.45-1.005-1.005s.45-1.005 1.005-1.005h6.158c2.163-.003 3.916-1.756 3.917-3.92-.004-1.817-1.476-3.288-3.292-3.29-1.515.002-2.743 1.23-2.745 2.745 0 .555-.45 1.005-1.005 1.005s-1.005-.45-1.005-1.005c.003-2.625 2.13-4.753 4.755-4.756 2.926.005 5.296 2.375 5.301 5.3-.004 3.274-2.658 5.927-5.932 5.929z"/></svg>