<!--Generated by Fontisto--><svg viewBox="0 0 17 24" xmlns="http://www.w3.org/2000/svg"><path d="m16.024 7.385c.038.191.059.41.059.634 0 1.354-.787 2.524-1.929 3.078l-.02.009c1.021.198 1.893.731 2.518 1.479l.006.007c.445.664.711 1.481.711 2.36 0 .256-.023.508-.066.752l.004-.026c-.056.664-.223 1.276-.483 1.837l.014-.034c-.232.501-.545.926-.928 1.277l-.003.003c-.398.348-.861.633-1.367.833l-.032.011c-.502.21-1.091.382-1.702.49l-.051.008c-.606.106-1.328.183-2.062.215l-.036.001v3.682h-2.221v-3.62q-1.154 0-1.76-.014v3.634h-2.221v-3.68q-.26 0-.779-.007t-.794-.007h-2.883l.447-2.64h1.6c.02.002.043.003.067.003.414 0 .752-.327.77-.737v-.002-5.798h.23c-.062-.009-.134-.015-.206-.015-.008 0-.017 0-.025 0h.001v-4.139c-.08-.561-.558-.988-1.135-.988-.053 0-.104.004-.155.01l.006-.001h-1.6v-2.366l3.058.014q.923 0 1.399-.014v-3.634h2.221v3.562q1.182-.029 1.76-.029v-3.534h2.221v3.634c.751.061 1.44.176 2.108.344l-.089-.019c.618.157 1.161.379 1.662.666l-.032-.017c.489.275.89.655 1.182 1.112l.008.013c.292.472.482 1.036.527 1.64l.001.012zm-3.101 7.861c0-.011 0-.024 0-.038 0-.324-.08-.628-.221-.896l.005.01c-.137-.261-.316-.481-.53-.66l-.003-.003c-.237-.185-.512-.335-.81-.434l-.019-.006c-.257-.097-.574-.189-.898-.259l-.046-.008c-.305-.06-.671-.106-1.044-.128l-.023-.001q-.634-.043-.995-.043t-.93.014-.685.014v4.872q.115 0 .534.007t.692.007.765-.022.844-.058.822-.122c.31-.054.579-.124.839-.213l-.039.012c.268-.096.494-.198.71-.316l-.026.013c.221-.114.41-.259.568-.431l.001-.001c.144-.164.263-.355.349-.563l.005-.014c.086-.21.136-.453.136-.708 0-.009 0-.018 0-.027v.001zm-1.024-6.866c0-.011 0-.024 0-.037 0-.293-.067-.57-.185-.818l.005.011c-.113-.236-.26-.436-.439-.605l-.001-.001c-.196-.169-.425-.305-.677-.395l-.015-.005c-.222-.091-.487-.174-.761-.234l-.033-.006c-.248-.05-.552-.09-.861-.114l-.027-.002q-.526-.043-.837-.036t-.779.014-.57.007v4.428l.498.007q.426.007.67 0t.72-.029c.289-.01.562-.039.83-.085l-.036.005q.32-.058.742-.16c.264-.058.498-.15.711-.273l-.012.006c.201-.124.376-.252.538-.394l-.005.004c.171-.148.304-.334.386-.546l.003-.009c.084-.212.132-.458.132-.715 0-.007 0-.014 0-.021v.001z"/></svg>