<!--Generated by Fontisto--><svg viewBox="0 0 17 24" xmlns="http://www.w3.org/2000/svg"><path d="m16.64 20.097.597 2.71c.011.039.017.084.017.13 0 .093-.025.18-.07.255l.001-.002c-.064.114-.164.201-.286.246l-.004.001-.086.017c-.051.025-.111.045-.174.059l-.005.001q-.11.026-.273.08t-.366.094q-.205.042-.434.086t-.511.086-.571.08-.622.051q-.333.017-.656.017c-.066.001-.144.002-.223.002-2.542 0-4.888-.836-6.779-2.248l.03.021c-1.952-1.467-3.387-3.529-4.039-5.914l-.018-.077h-1.619c-.3-.004-.542-.246-.546-.545v-1.927c.004-.3.246-.542.545-.546h1.125q-.034-.971.017-1.79h-1.142c-.006 0-.014 0-.021 0-.29 0-.525-.235-.525-.525 0-.007 0-.015 0-.022v.001-1.943c0-.006 0-.014 0-.021 0-.29.235-.525.525-.525h.022-.001 1.67c.748-2.379 2.204-4.356 4.118-5.738l.033-.022c1.851-1.368 4.179-2.19 6.698-2.19.044 0 .088 0 .132.001h-.007.066c1.151 0 2.268.143 3.335.412l-.094-.02c.142.046.26.136.339.254l.001.002c.043.078.069.17.069.269 0 .05-.006.098-.019.144l.001-.004-.733 2.71c-.03.143-.118.261-.238.331l-.002.001c-.071.043-.158.069-.25.069-.057 0-.111-.01-.162-.028l.003.001-.068-.017q-.068-.017-.196-.042l-.298-.06-.383-.06-.443-.051-.494-.042-.503-.017c-.03 0-.065-.001-.1-.001-1.393 0-2.69.407-3.78 1.109l.028-.017c-1.127.726-2.008 1.748-2.543 2.957l-.017.043h7.978c.306.004.553.253.553.56 0 .031-.003.062-.007.091v-.003l-.409 1.943c-.028.252-.239.446-.496.446-.018 0-.035-.001-.052-.003h.002-8.32c-.017.267-.026.58-.026.895s.009.627.028.937l-.002-.043h7.824.007c.17 0 .321.08.419.204l.001.001c.072.093.116.211.116.339 0 .043-.005.085-.014.125l.001-.004-.409 1.909c-.051.25-.267.437-.527.443h-.001-6.593c1.036 2.558 3.5 4.33 6.378 4.33h.069-.003q.307 0 .614-.026t.571-.06.503-.08.418-.086l.315-.08.205-.051.086-.034c.055-.022.119-.035.186-.035.095 0 .183.026.259.071l-.002-.001c.134.077.23.208.258.362v.003z"/></svg>