<!--Generated by Fontisto--><svg viewBox="0 0 17 24" xmlns="http://www.w3.org/2000/svg"><path d="m17.386 17.2v6.256.021c0 .29-.235.525-.525.525-.007 0-.015 0-.022 0h.001-16.295c-.006 0-.014 0-.021 0-.29 0-.525-.235-.525-.525 0-.007 0-.015 0-.022v.001-2.56c.004-.3.246-.542.545-.546h1.654v-6.526h-1.619c-.005 0-.012 0-.018 0-.147 0-.28-.061-.374-.16-.095-.097-.154-.23-.154-.377 0-.002 0-.004 0-.007v-2.233c0-.006 0-.014 0-.021 0-.29.235-.525.525-.525h.022-.001 1.619v-3.801c-.001-.048-.002-.104-.002-.16 0-1.849.812-3.509 2.1-4.641l.007-.006c1.348-1.179 3.124-1.898 5.068-1.898.103 0 .205.002.307.006h-.015.008c2.187 0 4.185.807 5.713 2.139l-.01-.009c.098.087.162.21.17.348v.001c.001.014.002.03.002.047 0 .128-.046.246-.122.337l.001-.001-1.756 2.165c-.088.115-.222.192-.373.205h-.002c-.023.004-.05.007-.077.007-.122 0-.233-.048-.315-.126-.131-.11-.275-.216-.427-.311l-.016-.009c-.336-.205-.725-.389-1.133-.532l-.043-.013c-.47-.188-1.014-.301-1.583-.307h-.003c-.047-.002-.103-.004-.158-.004-.833 0-1.595.304-2.181.807l.004-.004c-.546.495-.888 1.207-.888 1.999 0 .035.001.069.002.103v-.005 3.665h5.2.006c.147 0 .28.059.377.154.099.094.16.227.16.374v.019-.001 2.23c-.004.3-.246.542-.545.546h-5.2v6.46h7.057v-3.086c0-.002 0-.004 0-.006 0-.147.059-.28.154-.377.094-.099.227-.16.374-.16h.019-.001 2.762.018c.147 0 .28.061.374.16.097.097.157.232.157.38v.003z"/></svg>