<!--Generated by Fontisto--><svg viewBox="0 0 23 24" xmlns="http://www.w3.org/2000/svg"><path d="m16.909 8.454v8.454.021c0 .29-.235.525-.525.525-.007 0-.015 0-.022 0h.001-2.727c-.006 0-.014 0-.021 0-.29 0-.525-.235-.525-.525 0-.007 0-.015 0-.022v.001-8.454c-.009-2.559-2.081-4.631-4.639-4.64h-4.641v19.636.021c0 .29-.235.525-.525.525-.007 0-.015 0-.022 0h.001-2.727c-.006 0-.014 0-.021 0-.29 0-.525-.235-.525-.525 0-.007 0-.015 0-.022v.001-22.905c0-.006 0-.014 0-.021 0-.29.235-.525.525-.525h.022-.001 7.909.063c1.541 0 2.984.421 4.219 1.155l-.038-.021c1.285.751 2.326 1.792 3.055 3.037l.021.04c.718 1.2 1.142 2.648 1.142 4.194v.053-.003zm6.545-7.908v15 .063c0 1.541-.421 2.984-1.155 4.219l.021-.038c-.751 1.285-1.792 2.326-3.037 3.055l-.04.021c-1.197.713-2.64 1.134-4.181 1.134-.022 0-.045 0-.067 0h.003-7.909c-.006 0-.014 0-.021 0-.29 0-.525-.235-.525-.525 0-.007 0-.015 0-.022v.001-16.363c0-.006 0-.014 0-.021 0-.29.235-.525.525-.525h.022-.001 2.727.021c.29 0 .525.235.525.525v.022-.001 13.091h4.64c2.559-.009 4.631-2.081 4.64-4.639v-15.001c0-.006 0-.014 0-.021 0-.29.235-.525.525-.525h.022-.001 2.727.021c.29 0 .525.235.525.525v.022-.001z"/></svg>