<!--Generated by Fontisto--><svg viewBox="0 0 15 24" xmlns="http://www.w3.org/2000/svg"><path d="m15.307 5.83v1.738.021c0 .29-.235.525-.525.525-.007 0-.015 0-.022 0h.001-2.864c-.23 1.609-1.032 2.998-2.19 3.981l-.009.008c-1.288 1.041-2.904 1.723-4.673 1.873l-.032.002q2.846 3.034 7.824 9.136c.086.085.139.202.139.332 0 .092-.026.177-.072.249l.001-.002c-.076.182-.252.308-.459.308-.013 0-.025 0-.037-.001h.002-3.324c-.006 0-.014 0-.021 0-.166 0-.313-.08-.404-.204l-.001-.001q-5.216-6.256-8.489-9.733c-.095-.093-.154-.222-.154-.365 0-.004 0-.007 0-.011v.001-2.167c.004-.3.246-.542.545-.546h1.909c.099.005.214.007.33.007 1.196 0 2.328-.273 3.338-.76l-.046.02c.855-.428 1.49-1.188 1.742-2.107l.005-.023h-7.28c-.006 0-.014 0-.021 0-.29 0-.525-.235-.525-.525 0-.007 0-.015 0-.022v.001-1.738c0-.006 0-.014 0-.021 0-.29.235-.525.525-.525h.022-.001 7.04q-.971-1.926-4.568-1.926h-2.471c-.3-.004-.542-.246-.546-.545v-2.268c0-.006 0-.014 0-.021 0-.29.235-.525.525-.525h.022-.001 14.182.021c.29 0 .525.235.525.525v.022-.001 1.738.021c0 .29-.235.525-.525.525-.007 0-.015 0-.022 0h.001-3.971c.526.689.908 1.516 1.085 2.417l.006.037h2.914.021c.29 0 .525.235.525.525v.022-.001z"/></svg>