<!--Generated by Fontisto--><svg viewBox="0 0 31 24" xmlns="http://www.w3.org/2000/svg"><path d="m8.762 18.187 1.381-5.097h-2.71l1.28 5.114c.011.012.017.028.017.046v.006.006c0 .017.006.033.017.046.001-.022.005-.043.009-.062v.002c.004-.017.006-.038.007-.059v-.001zm1.977-7.28.597-2.182h-4.978l.546 2.182zm3.273 0h2.37l-.597-2.182h-1.194zm7.654 7.295 1.33-5.114h-2.762l1.381 5.097c.001.022.005.043.009.062v-.002c.003.023.012.044.026.06.001-.019.004-.036.009-.053v.002c.004-.015.007-.032.008-.049v-.001zm1.892-7.295.56-2.182h-5.061l.579 2.182zm6.988.546v1.091.021c0 .29-.235.525-.525.525-.007 0-.015 0-.022 0h.001-3.631l-2.795 10.5c-.048.235-.253.41-.498.41-.011 0-.021 0-.032-.001h.001-2.71c-.009.001-.02.001-.03.001-.246 0-.451-.175-.498-.406l-.001-.003-2.83-10.5h-3.562l-2.846 10.502c-.048.235-.253.41-.498.41-.011 0-.021 0-.032-.001h.001-2.71c-.002 0-.003 0-.005 0-.125 0-.239-.045-.328-.12l.001.001c-.09-.071-.154-.171-.179-.286l-.001-.003-2.727-10.5h-3.546c-.006 0-.014 0-.021 0-.29 0-.525-.235-.525-.525 0-.007 0-.015 0-.022v.001-1.091c0-.006 0-.014 0-.021 0-.29.235-.525.525-.525h.022-.001 2.983l-.56-2.182h-2.423c-.006 0-.014 0-.021 0-.29 0-.525-.235-.525-.525 0-.007 0-.015 0-.022v.001-1.091c0-.006 0-.014 0-.021 0-.29.235-.525.525-.525h.022-.001 1.854l-1.52-5.864c-.018-.049-.029-.106-.029-.166 0-.12.043-.23.115-.315l-.001.001c.102-.123.254-.201.425-.201.008 0 .017 0 .025.001h-.001 2.336c.016-.002.035-.003.054-.003.241 0 .441.178.475.409v.003l1.534 6.136h6.119l1.654-6.136c.048-.235.253-.41.498-.41.011 0 .021 0 .032.001h-.001 2.148c.009-.001.02-.001.03-.001.246 0 .451.175.498.406l.001.003 1.67 6.136h6.222l1.586-6.136c.035-.234.234-.412.475-.412.019 0 .038.001.056.003h-.002 2.335.015c.173 0 .327.08.427.204l.001.001c.071.084.115.194.115.314 0 .059-.011.116-.03.169l.001-.003-1.551 5.864h1.889.021c.29 0 .525.235.525.525v.022-.001 1.091.021c0 .29-.235.525-.525.525-.007 0-.015 0-.022 0h.001-2.471l-.579 2.182h3.05.021c.29 0 .525.235.525.525v.022-.001z"/></svg>