<!--Generated by Fontisto--><svg viewBox="0 0 18 24" xmlns="http://www.w3.org/2000/svg"><path d="m4.488 0h2.411v6.2c2.434-.88 4.89-1.805 7.341-2.693v1.993c-2.454.88-4.889 1.775-7.341 2.655v1.027c2.451-.888 4.907-1.813 7.341-2.693v1.978c-2.433.905-4.894 1.78-7.341 2.67v10.277c3.42-.449 6.235-2.662 7.53-5.681l.024-.062c.471-1.087.746-2.352.746-3.682 0-.003 0-.005 0-.008h2.502v.38c-.058 1.825-.512 3.53-1.279 5.052l.032-.069c-.702 1.379-1.601 2.553-2.676 3.536l-.009.008c-2.106 1.933-4.926 3.117-8.023 3.117-.443 0-.88-.024-1.311-.071l.053.005v-11.92c-1.506.53-2.99 1.083-4.488 1.62v-1.92c1.501-.548 3.006-1.091 4.488-1.658v-1.019c-1.493.51-2.99 1.082-4.488 1.613v-1.91c1.491-.56 3.009-1.094 4.488-1.666z"/></svg>