<!--Generated by Fontisto--><svg viewBox="0 0 18 24" xmlns="http://www.w3.org/2000/svg"><path d="m10.278 24h-2.932c-.002 0-.004 0-.006 0-.147 0-.28-.059-.377-.154-.099-.094-.16-.227-.16-.374 0-.006 0-.013 0-.019v.001-5.625h-4.909c-.002 0-.004 0-.006 0-.147 0-.28-.059-.377-.154-.099-.094-.16-.227-.16-.374 0-.006 0-.013 0-.019v.001-1.756c.004-.3.246-.542.545-.546h4.904v-1.449h-4.909c-.002 0-.004 0-.006 0-.147 0-.28-.059-.377-.154-.099-.094-.16-.227-.16-.374 0-.006 0-.013 0-.019v.001-1.772c.004-.3.246-.542.545-.546h3.648l-5.472-9.852c-.043-.079-.068-.173-.068-.273s.025-.194.07-.276l-.002.003c.093-.164.267-.273.466-.273h.015-.001 3.307.009c.213 0 .397.124.484.304l.001.003 3.665 7.244q.32.648.954 2.13.17-.409.52-1.159t.469-1.04l3.256-7.159c.072-.189.252-.321.463-.321.011 0 .022 0 .033.001h-.001 3.256c.299.008.538.252.538.553 0 .09-.022.175-.06.251l.001-.003-5.335 9.87h3.665c.3.004.542.246.546.545v1.773.018c0 .147-.061.28-.16.374-.097.095-.23.154-.377.154-.002 0-.004 0-.007 0h-4.953v1.449h4.943c.3.004.542.246.546.545v1.756.018c0 .147-.061.28-.16.374-.097.095-.23.154-.377.154-.002 0-.004 0-.007 0h-4.945v5.625c-.004.3-.246.542-.545.546z"/></svg>