<!--Generated by Fontisto--><svg viewBox="0 0 24 24" xmlns="http://www.w3.org/2000/svg"><path d="m21.334 12c0-.006 0-.013 0-.02 0-5.166-4.188-9.354-9.354-9.354s-9.354 4.188-9.354 9.354 4.188 9.354 9.354 9.354c2.583 0 4.922-1.047 6.614-2.74 1.691-1.636 2.74-3.927 2.74-6.462 0-.046 0-.093-.001-.139v.007zm2.666 0v.036c0 1.67-.349 3.258-.977 4.695l.029-.075c-1.226 2.905-3.491 5.17-6.318 6.367l-.078.029c-1.374.599-2.974.948-4.656.948s-3.283-.349-4.733-.978l.077.03c-2.905-1.226-5.17-3.491-6.367-6.318l-.029-.078c-.599-1.374-.948-2.974-.948-4.656s.349-3.283.978-4.733l-.03.077c1.226-2.905 3.491-5.17 6.318-6.367l.078-.029c1.374-.599 2.974-.948 4.656-.948s3.283.349 4.733.978l-.077-.03c2.905 1.226 5.17 3.491 6.367 6.318l.029.078c.599 1.362.948 2.95.948 4.62v.039-.002z"/></svg>