<!--Generated by Fontisto--><svg viewBox="0 0 15 24" xmlns="http://www.w3.org/2000/svg"><path d="m8.57 8.626c3.874.446 6.854 3.705 6.858 7.66v.001c0 4.257-3.451 7.709-7.709 7.709-1.552 0-2.997-.459-4.207-1.248l.03.018c-.998-.65-1.816-1.494-2.418-2.483l-.019-.034c-.589-.954-.977-2.09-1.077-3.308l-.002-.027c-.017-.19-.026-.411-.026-.634 0-2.576 1.26-4.858 3.198-6.262l.022-.016c1.017-.741 2.258-1.236 3.604-1.376l.032-.003v-1.766h-2.143c-.005 0-.011 0-.016 0-.228 0-.413-.185-.413-.413 0-.006 0-.011 0-.017v.001-.857c0-.005 0-.011 0-.016 0-.228.185-.413.413-.413h.017-.001 2.143v-2.21l-1.232 1.232c-.08.075-.187.121-.306.121-.001 0-.002 0-.002 0-.002 0-.005 0-.008 0-.112 0-.214-.046-.286-.121l-.616-.616c-.075-.073-.121-.174-.121-.287 0-.003 0-.006 0-.008 0-.001 0-.001 0-.002 0-.118.046-.226.121-.306l2.706-2.692c.153-.157.366-.255.603-.255s.45.098.603.254l2.706 2.692c.075.08.121.187.121.306v.002.008c0 .112-.046.214-.121.286l-.616.616c-.073.075-.174.121-.287.121-.003 0-.006 0-.008 0-.001 0-.002 0-.002 0-.118 0-.226-.046-.306-.121l-1.232-1.232v2.21h2.143.016c.228 0 .413.185.413.413v.017-.001.857.016c0 .228-.185.413-.413.413-.006 0-.011 0-.017 0h.001-2.145zm-.857 13.661c3.311-.008 5.992-2.689 6-5.999v-.001c0-3.314-2.686-6-6-6s-6 2.686-6 6c.008 3.311 2.689 5.992 5.999 6z"/></svg>