<!--Generated by Fontisto--><svg viewBox="0 0 26 24" xmlns="http://www.w3.org/2000/svg"><path d="m20.574 5.571c0-.005 0-.011 0-.016 0-.228.185-.413.413-.413h.017-.001 3.857c.471.007.851.387.857.857v3.857.016c0 .228-.185.413-.413.413-.006 0-.011 0-.017 0h.001-.857c-.005 0-.011 0-.016 0-.228 0-.413-.185-.413-.413 0-.006 0-.011 0-.017v.001-1.794l-3.402 3.415c1.052 1.304 1.689 2.982 1.689 4.809 0 .482-.044.955-.129 1.412l.007-.047c-.279 1.659-1.077 3.097-2.218 4.175l-.004.003c-1.386 1.339-3.276 2.163-5.358 2.163-3.347 0-6.196-2.131-7.265-5.109l-.017-.054c-1.087-.054-2.098-.332-3.003-.79l.043.02c-.927-.457-1.715-1.055-2.371-1.775l-.006-.006c-.648-.724-1.165-1.581-1.503-2.524l-.017-.054c-.282-.765-.446-1.649-.446-2.571 0-1.433.395-2.773 1.081-3.919l-.019.035c.617-1.042 1.436-1.902 2.409-2.547l.029-.018c1.188-.783 2.646-1.249 4.213-1.249.766 0 1.506.112 2.205.319l-.055-.014c1.019.31 1.905.781 2.675 1.392l-.017-.013 3.415-3.402h-1.794c-.005 0-.011 0-.016 0-.228 0-.413-.185-.413-.413 0-.006 0-.011 0-.017v.001-.857c0-.005 0-.011 0-.016 0-.228.185-.413.413-.413h.017-.001 3.857.007c.234 0 .445.098.595.254.157.15.254.361.254.595v.007 3.858.016c0 .228-.185.413-.413.413-.006 0-.011 0-.017 0h.001-.857c-.005 0-.011 0-.016 0-.228 0-.413-.185-.413-.413 0-.006 0-.011 0-.017v.001-1.795l-3.401 3.415c.513.647.934 1.397 1.225 2.209l.017.055c1.679.076 3.202.69 4.414 1.672l-.014-.011 3.415-3.402h-1.798c-.005 0-.011 0-.016 0-.228 0-.413-.185-.413-.413 0-.006 0-.011 0-.017v.001zm-6.856 5.571q0-.268-.054-.777c-1.463.218-2.726.949-3.623 2.001l-.007.008c-.906 1.014-1.46 2.36-1.46 3.835 0 .027 0 .053.001.08v-.004q0 .268.054.777c1.463-.218 2.726-.949 3.623-2.001l.007-.008c.906-1.014 1.46-2.36 1.46-3.835 0-.027 0-.053-.001-.08zm-12 0v.071c0 1.49.564 2.848 1.491 3.871l-.004-.005c.921 1.068 2.209 1.798 3.666 1.992l.03.003c-.025-.235-.04-.507-.04-.783 0-.003 0-.006 0-.008 0-.027-.001-.058-.001-.09 0-1.862.685-3.564 1.816-4.868l-.008.009c1.123-1.355 2.693-2.305 4.481-2.624l.046-.007c-.95-2.116-3.038-3.562-5.464-3.562-.005 0-.01 0-.015 0h.001c-.026 0-.056-.001-.087-.001-1.629 0-3.101.674-4.152 1.759l-.001.002c-1.085 1.052-1.759 2.523-1.759 4.152 0 .031 0 .062.001.093v-.005zm12.857 11.143c3.311-.007 5.993-2.689 6-5.999v-.001c0-.021 0-.046 0-.071 0-1.49-.564-2.848-1.491-3.871l.004.005c-.921-1.068-2.209-1.798-3.666-1.992l-.03-.003c.026.235.04.508.04.785 0 1.892-.684 3.625-1.817 4.965l.009-.011c-1.124 1.354-2.693 2.304-4.482 2.623l-.046.007c.95 2.116 3.038 3.562 5.464 3.562h.015-.001z"/></svg>