<!--Generated by Fontisto--><svg viewBox="0 0 24 24" xmlns="http://www.w3.org/2000/svg"><path d="m23 0c.549.008.992.451 1 .999v6.501.02c0 .265-.215.48-.48.48-.007 0-.014 0-.021 0h.001-1c-.006 0-.013 0-.02 0-.265 0-.48-.215-.48-.48 0-.007 0-.014 0-.021v.001-4.094l-5.969 5.984c1.226 1.485 1.969 3.407 1.969 5.503 0 .037 0 .075-.001.112v-.006.026c0 1.253-.262 2.444-.733 3.522l.022-.057c-.92 2.18-2.62 3.88-4.742 4.778l-.058.022c-1.03.449-2.231.711-3.492.711s-2.462-.261-3.55-.733l.058.022c-2.18-.92-3.88-2.62-4.778-4.742l-.022-.058c-.449-1.03-.711-2.231-.711-3.492s.261-2.462.733-3.55l-.022.058c.92-2.18 2.62-3.88 4.742-4.778l.058-.022c1.022-.45 2.213-.711 3.466-.711h.028-.001c.032 0 .069-.001.106-.001 2.096 0 4.019.744 5.518 1.981l-.015-.012 5.969-5.969h-4.08c-.006 0-.013 0-.02 0-.265 0-.48-.215-.48-.48 0-.007 0-.014 0-.021v.001-1c0-.006 0-.013 0-.02 0-.265.215-.48.48-.48h.021-.001zm-14 22h.015c3.874 0 7.015-3.141 7.015-7.015s-3.141-7.015-7.015-7.015-7.015 3.141-7.015 7.015c0 1.937.785 3.691 2.055 4.961 1.227 1.268 2.945 2.055 4.846 2.055.035 0 .07 0 .105-.001h-.005z"/></svg>