<!--Generated by Fontisto--><svg viewBox="0 0 31 24" xmlns="http://www.w3.org/2000/svg"><path d="m30.892 11.027c.191.186.309.445.309.731s-.118.546-.309.731l-4.777 4.777c-.091.1-.221.162-.365.162s-.275-.062-.365-.162l-.731-.731c-.1-.09-.163-.221-.163-.365s.063-.275.162-.365l3.006-3.006h-4.78v3.64.02c0 .276-.224.5-.5.5-.007 0-.014 0-.021 0h.001-1.04c-.006 0-.013 0-.02 0-.276 0-.5-.224-.5-.5 0-.007 0-.014 0-.021v.001-3.64h-2.144c-.243 2.373-1.368 4.445-3.037 5.915l-.01.009c-1.605 1.488-3.761 2.401-6.13 2.401-.042 0-.083 0-.125-.001h.006c-.007 0-.015 0-.024 0-5.156 0-9.336-4.18-9.336-9.336 0-.387.023-.768.069-1.142l-.004.045c.169-1.502.679-2.858 1.45-4.025l-.021.034c.789-1.211 1.813-2.204 3.014-2.935l.041-.023c1.157-.715 2.536-1.186 4.014-1.306l.033-.002c.23-.02.498-.032.769-.032 3.126 0 5.894 1.529 7.598 3.88l.019.027c.899 1.235 1.501 2.74 1.671 4.373l.003.039h2.146v-3.64c0-.006 0-.013 0-.02 0-.276.224-.5.5-.5h.021-.001 1.04.02c.276 0 .5.224.5.5v.021-.001 3.64h4.777l-3.006-3.006c-.1-.091-.162-.221-.162-.365s.062-.275.162-.365l.731-.731c.09-.1.221-.163.365-.163s.275.063.365.162zm-21.533 8.011c.03 0 .066.001.102.001 1.978 0 3.764-.819 5.039-2.136l.002-.002c1.32-1.314 2.137-3.133 2.137-5.143s-.817-3.829-2.137-5.143c-1.277-1.319-3.063-2.138-5.041-2.138-.036 0-.072 0-.108.001h.005c-.03 0-.066-.001-.102-.001-1.978 0-3.764.819-5.039 2.136l-.002.002c-1.32 1.314-2.137 3.133-2.137 5.143s.817 3.829 2.137 5.143c1.277 1.319 3.063 2.138 5.041 2.138.036 0 .072 0 .108-.001z"/></svg>