<!--Generated by Fontisto--><svg viewBox="0 0 15 24" xmlns="http://www.w3.org/2000/svg"><path d="m11.12 4.232c1.296.651 2.353 1.611 3.101 2.788l.019.031c.744 1.139 1.186 2.533 1.186 4.031v.063-.003c0 .03.001.065.001.1 0 1.951-.751 3.727-1.98 5.054l.004-.005c-1.217 1.383-2.925 2.31-4.848 2.509l-.032.003v1.768h1.286.016c.228 0 .413.185.413.413v.017-.001.857.016c0 .228-.185.413-.413.413-.006 0-.011 0-.017 0h.001-1.286v1.286.016c0 .228-.185.413-.413.413-.006 0-.011 0-.017 0h.001-.857c-.005 0-.011 0-.016 0-.228 0-.413-.185-.413-.413 0-.006 0-.011 0-.017v.001-1.286h-1.286c-.005 0-.011 0-.016 0-.228 0-.413-.185-.413-.413 0-.006 0-.011 0-.017v.001-.857c0-.005 0-.011 0-.016 0-.228.185-.413.413-.413h.017-.001 1.286v-1.771c-1.955-.201-3.663-1.128-4.873-2.503l-.007-.008c-1.225-1.322-1.977-3.098-1.977-5.05 0-.034 0-.067.001-.1v.005c0-.018 0-.039 0-.06 0-1.498.442-2.892 1.203-4.06l-.018.029c.768-1.209 1.828-2.169 3.083-2.799l.045-.02c-1.42-.81-2.498-2.083-3.039-3.61l-.015-.047c-.02-.046-.032-.1-.032-.156 0-.09.03-.173.08-.24l-.001.001c.075-.11.199-.181.34-.181h.015-.001.924.019c.172 0 .317.111.369.266l.001.003c.395.951 1.042 1.731 1.856 2.281l.018.011c.789.545 1.766.871 2.819.871h.05-.003.047c1.053 0 2.03-.326 2.836-.882l-.017.011c.833-.56 1.48-1.341 1.863-2.259l.012-.033c.077-.163.24-.273.428-.273.024 0 .048.002.071.005h-.003.817.015c.141 0 .265.071.339.18l.001.001c.049.066.079.149.079.239 0 .057-.012.11-.033.159l.001-.003c-.555 1.573-1.632 2.846-3.018 3.639l-.033.017zm-3.402 12.91c.026 0 .056.001.087.001 1.629 0 3.101-.674 4.152-1.759l.001-.002c1.086-1.052 1.761-2.524 1.761-4.153 0-.031 0-.061-.001-.092v.005c0-.026.001-.056.001-.087 0-1.629-.674-3.101-1.759-4.152l-.002-.001c-1.083-1.089-2.583-1.762-4.24-1.762s-3.157.674-4.24 1.762c-1.086 1.052-1.761 2.524-1.761 4.153 0 .031 0 .061.001.092v-.005c0 .026-.001.056-.001.087 0 1.629.674 3.101 1.759 4.152l.002.001c1.052 1.087 2.524 1.761 4.154 1.761.029 0 .058 0 .087-.001h-.004z"/></svg>