<!--Generated by Fontisto--><svg viewBox="0 0 15 24" xmlns="http://www.w3.org/2000/svg"><path d="m15.429 7.714c0 .03.001.065.001.1 0 1.951-.751 3.727-1.98 5.054l.004-.005c-1.217 1.383-2.925 2.31-4.848 2.509l-.032.003v8.196.016c0 .228-.185.413-.413.413-.006 0-.011 0-.017 0h.001-.857c-.005 0-.011 0-.016 0-.228 0-.413-.185-.413-.413 0-.006 0-.011 0-.017v.001-8.196c-1.955-.201-3.663-1.128-4.873-2.503l-.007-.008c-1.227-1.323-1.98-3.1-1.98-5.054 0-.034 0-.067.001-.101v.005c0-.007 0-.015 0-.023 0-1.073.224-2.094.629-3.019l-.019.049c.788-1.867 2.244-3.323 4.061-4.092l.05-.019c.883-.385 1.912-.609 2.993-.609s2.11.224 3.043.628l-.05-.019c1.867.788 3.323 2.245 4.092 4.062l.019.05c.386.877.611 1.899.611 2.974v.02-.001zm-7.715 6c.026 0 .056.001.087.001 1.629 0 3.101-.674 4.152-1.759l.001-.002c1.086-1.052 1.761-2.524 1.761-4.153 0-.031 0-.061-.001-.092v.005c0-.026.001-.056.001-.087 0-1.629-.674-3.101-1.759-4.152l-.002-.001c-1.083-1.089-2.583-1.762-4.24-1.762s-3.157.674-4.24 1.762c-1.086 1.052-1.761 2.524-1.761 4.153 0 .031 0 .061.001.092v-.005c0 .026-.001.056-.001.087 0 1.629.674 3.101 1.759 4.152l.002.001c1.052 1.086 2.524 1.761 4.153 1.761.031 0 .061 0 .092-.001h-.005z"/></svg>