<!--Generated by Fontisto--><svg viewBox="0 0 22 24" xmlns="http://www.w3.org/2000/svg"><path d="m17.143.429c0-.005 0-.011 0-.016 0-.228.185-.413.413-.413h.016-.001 3.857.007c.234 0 .445.098.595.254.157.15.254.361.254.595v.007 3.858.016c0 .228-.185.413-.413.413-.006 0-.011 0-.017 0h.001-.856c-.005 0-.011 0-.016 0-.228 0-.413-.185-.413-.413 0-.006 0-.011 0-.017v.001-1.794l-3.402 3.415c1.051 1.281 1.688 2.937 1.688 4.741v.07-.004c0 .029.001.064.001.098 0 1.952-.752 3.729-1.982 5.056l.004-.005c-1.218 1.382-2.925 2.307-4.848 2.505l-.032.003v1.768h1.286.016c.228 0 .413.185.413.413v.017-.001.857.016c0 .228-.185.413-.413.413-.006 0-.011 0-.017 0h.001-1.286v1.286.016c0 .228-.185.413-.413.413-.006 0-.011 0-.017 0h.001-.857c-.005 0-.011 0-.016 0-.228 0-.413-.185-.413-.413 0-.006 0-.011 0-.017v.001-1.282h-1.286c-.005 0-.011 0-.016 0-.228 0-.413-.185-.413-.413 0-.006 0-.011 0-.017v.001-.857c0-.005 0-.011 0-.016 0-.228.185-.413.413-.413h.017-.001 1.286v-1.771c-1.955-.201-3.663-1.128-4.873-2.503l-.007-.008c-1.225-1.322-1.976-3.098-1.976-5.049 0-.035 0-.07.001-.105v.005c0-.018 0-.039 0-.06 0-1.806.638-3.462 1.7-4.757l-.01.013-.697-.71-1.356 1.486c-.072.084-.176.138-.294.141h-.001c-.007 0-.016.001-.024.001-.108 0-.208-.038-.285-.102l.001.001-.64-.59c-.086-.068-.14-.171-.141-.288 0-.007-.001-.015-.001-.022 0-.113.043-.216.114-.292l1.403-1.54-1.486-1.5v1.794.016c0 .228-.185.413-.413.413-.006 0-.011 0-.017 0h.001-.857c-.005 0-.011 0-.016 0-.228 0-.413-.185-.413-.413 0-.006 0-.011 0-.017v.001-3.858c0-.002 0-.004 0-.007 0-.234.098-.445.254-.595.15-.157.361-.254.595-.254h.007 3.857.016c.228 0 .413.185.413.413v.017-.001.857.016c0 .228-.185.413-.413.413-.006 0-.011 0-.017 0h.001-1.782l1.42 1.433 1.152-1.259c.072-.084.176-.138.294-.141h.001c.007 0 .015-.001.024-.001.108 0 .208.038.285.102l-.001-.001.64.59c.086.068.14.171.141.288 0 .007.001.015.001.022 0 .113-.043.216-.114.292l-1.203 1.326.763.75c1.281-1.051 2.937-1.688 4.741-1.688h.07-.004.064c1.806 0 3.463.638 4.758 1.701l-.013-.01 3.415-3.402h-1.795c-.005 0-.011 0-.016 0-.228 0-.413-.185-.413-.413 0-.006 0-.011 0-.017v.001zm-6 16.714c.026 0 .056.001.087.001 1.629 0 3.101-.674 4.152-1.759l.001-.002c1.086-1.052 1.761-2.524 1.761-4.153 0-.031 0-.061-.001-.092v.005c0-.026.001-.056.001-.087 0-1.629-.674-3.101-1.759-4.152l-.002-.001c-1.052-1.086-2.524-1.761-4.153-1.761-.031 0-.061 0-.092.001h.005c-.026 0-.056-.001-.087-.001-1.629 0-3.101.674-4.152 1.759l-.001.002c-1.086 1.052-1.761 2.524-1.761 4.153 0 .031 0 .061.001.092v-.005c0 .026-.001.056-.001.087 0 1.629.674 3.101 1.759 4.152l.002.001c1.052 1.086 2.524 1.761 4.153 1.761.031 0 .061 0 .092-.001z"/></svg>