<!--Generated by Fontisto--><svg viewBox="0 0 19 24" xmlns="http://www.w3.org/2000/svg"><path d="m13.713.429c0-.005 0-.011 0-.016 0-.228.185-.413.413-.413h.016-.001 3.857.007c.234 0 .445.098.595.254.157.15.254.361.254.595v.007 3.858.016c0 .228-.185.413-.413.413-.006 0-.011 0-.017 0h.001-.857c-.005 0-.011 0-.016 0-.228 0-.413-.185-.413-.413 0-.006 0-.011 0-.017v.001-1.794l-3.404 3.415c1.051 1.281 1.688 2.937 1.688 4.741v.07-.004c0 .03.001.065.001.1 0 1.951-.751 3.727-1.98 5.054l.004-.005c-1.217 1.383-2.925 2.31-4.848 2.509l-.032.003v1.768h1.286.016c.228 0 .413.185.413.413v.017-.001.857.016c0 .228-.185.413-.413.413-.006 0-.011 0-.017 0h.001-1.286v1.286.016c0 .228-.185.413-.413.413-.006 0-.011 0-.017 0h.001-.857c-.005 0-.011 0-.016 0-.228 0-.413-.185-.413-.413 0-.006 0-.011 0-.017v.001-1.286h-1.286c-.005 0-.011 0-.016 0-.228 0-.413-.185-.413-.413 0-.006 0-.011 0-.017v.001-.857c0-.005 0-.011 0-.016 0-.228.185-.413.413-.413h.017-.001 1.288v-1.771c-1.374-.145-2.609-.64-3.644-1.394l.021.015c-1.068-.767-1.917-1.775-2.478-2.947l-.02-.046c-.465-.953-.737-2.074-.737-3.258 0-.227.01-.453.03-.675l-.002.029c.135-1.856.928-3.506 2.144-4.735l-.001.001c1.402-1.458 3.369-2.363 5.548-2.363.767 0 1.508.112 2.207.321l-.054-.014c1.017.309 1.901.784 2.666 1.399l-.015-.012 3.415-3.402h-1.794c-.005 0-.011 0-.016 0-.228 0-.413-.185-.413-.413 0-.006 0-.011 0-.017v.001zm-6 16.714c.026 0 .056.001.087.001 1.629 0 3.101-.674 4.152-1.759l.001-.002c1.086-1.052 1.761-2.524 1.761-4.153 0-.031 0-.061-.001-.092v.005c0-.026.001-.056.001-.087 0-1.629-.674-3.101-1.759-4.152l-.002-.001c-1.083-1.089-2.583-1.762-4.24-1.762s-3.157.674-4.24 1.762c-1.086 1.052-1.761 2.524-1.761 4.153 0 .031 0 .061.001.092v-.005c0 .026-.001.056-.001.087 0 1.629.674 3.101 1.759 4.152l.002.001c1.052 1.086 2.524 1.761 4.153 1.761.031 0 .061 0 .092-.001z"/></svg>