<!--Generated by Fontisto--><svg viewBox="0 0 24 24" xmlns="http://www.w3.org/2000/svg"><path d="m23.968 7.087c.017.19.026.411.026.634 0 2.575-1.26 4.856-3.197 6.26l-.022.015c-1.017.741-2.258 1.236-3.604 1.376l-.032.003v3.482h2.999.016c.228 0 .413.185.413.413v.017-.001.857.016c0 .228-.185.413-.413.413-.006 0-.011 0-.017 0h.001-2.999v2.999.016c0 .228-.185.413-.413.413-.006 0-.011 0-.017 0h.001-.857c-.005 0-.011 0-.016 0-.228 0-.413-.185-.413-.413 0-.006 0-.011 0-.017v.001-3h-6.856v2.999.016c0 .228-.185.413-.413.413-.006 0-.011 0-.017 0h.001-.856c-.005 0-.011 0-.016 0-.228 0-.413-.185-.413-.413 0-.006 0-.011 0-.017v.001-2.999h-3c-.005 0-.011 0-.016 0-.228 0-.413-.185-.413-.413 0-.006 0-.011 0-.017v.001-.857c0-.005 0-.011 0-.016 0-.228.185-.413.413-.413h.017-.001 3v-3.481c-1.378-.143-2.619-.639-3.658-1.394l.022.015c-1.96-1.419-3.22-3.701-3.22-6.276 0-.223.009-.444.028-.663l-.002.029c.145-1.877.959-3.54 2.2-4.773 1.206-1.267 2.852-2.105 4.692-2.268l.028-.002c.252-.03.544-.048.84-.048 1.573 0 3.032.489 4.233 1.322l-.025-.016c1.177-.818 2.636-1.306 4.209-1.306.297 0 .589.017.877.051l-.035-.003c1.868.165 3.514 1.003 4.717 2.267l.003.003c1.243 1.233 2.058 2.896 2.202 4.748l.002.026zm-11.971 4.821c1.059-1.049 1.714-2.504 1.714-4.112 0-.029 0-.058-.001-.086v.004c0-.023.001-.051.001-.079 0-1.608-.656-3.063-1.715-4.112-1.059 1.049-1.714 2.504-1.714 4.112 0 .028 0 .056.001.084v-.004c0 .024-.001.053-.001.081 0 1.608.656 3.063 1.715 4.112zm-4.286 1.806h.006c1.07 0 2.075-.283 2.942-.779l-.029.015c-1.276-1.33-2.062-3.139-2.062-5.132 0-.037 0-.074.001-.111v.006c0-.024 0-.051 0-.079 0-2.001.786-3.818 2.066-5.16l-.003.003c-.839-.481-1.843-.764-2.914-.764-.002 0-.004 0-.006 0-.026 0-.057-.001-.087-.001-1.629 0-3.101.674-4.151 1.759l-.001.002c-1.086 1.052-1.761 2.523-1.761 4.153 0 .031 0 .061.001.092v-.005c0 .026-.001.057-.001.087 0 1.629.674 3.101 1.759 4.151l.002.002c1.052 1.086 2.523 1.761 4.153 1.761.031 0 .061 0 .092-.001h-.005zm7.715 5.144v-3.482c-1.294-.148-2.459-.598-3.455-1.279l.026.017c-.97.662-2.135 1.112-3.393 1.255l-.035.003v3.486zm.856-5.144c.026 0 .057.001.087.001 1.629 0 3.101-.674 4.151-1.759l.002-.002c1.086-1.052 1.761-2.523 1.761-4.153 0-.031 0-.061-.001-.092v.005c0-.026.001-.057.001-.087 0-1.629-.674-3.101-1.759-4.151l-.002-.001c-1.052-1.086-2.523-1.761-4.153-1.761-.031 0-.061 0-.092.001h.005c-.002 0-.004 0-.006 0-1.07 0-2.075.283-2.942.779l.029-.015c1.277 1.339 2.064 3.156 2.064 5.158v.084-.004c0 .031.001.067.001.103 0 1.993-.786 3.803-2.066 5.135l.002-.003c.839.481 1.843.764 2.914.764h.004z"/></svg>