<!--Generated by Fontisto--><svg viewBox="0 0 15 24" xmlns="http://www.w3.org/2000/svg"><path d="m15.426 7.714c0 .03.001.065.001.1 0 1.951-.751 3.727-1.98 5.054l.004-.005c-1.217 1.383-2.925 2.31-4.848 2.509l-.032.003v3.482h3 .016c.228 0 .413.185.413.413v.017-.001.857.016c0 .228-.185.413-.413.413-.006 0-.011 0-.017 0h.001-3v3 .016c0 .228-.185.413-.413.413-.006 0-.011 0-.017 0h.001-.857c-.005 0-.011 0-.016 0-.228 0-.413-.185-.413-.413 0-.006 0-.011 0-.017v.001-3h-3c-.005 0-.011 0-.016 0-.228 0-.413-.185-.413-.413 0-.006 0-.011 0-.017v.001-.857c0-.005 0-.011 0-.016 0-.228.185-.413.413-.413h.017-.001 3v-3.482c-1.378-.143-2.619-.639-3.658-1.394l.022.015c-1.96-1.42-3.22-3.701-3.22-6.277 0-.223.009-.444.028-.662l-.002.028c.102-1.245.49-2.381 1.099-3.367l-.019.033c.621-1.024 1.439-1.867 2.408-2.499l.03-.018c.934-.619 2.051-1.039 3.254-1.175l.034-.003c.273-.034.589-.054.909-.054 4.245 0 7.686 3.441 7.686 7.686v.03-.002zm-13.716 0c0 .026-.001.056-.001.087 0 1.629.674 3.101 1.759 4.152l.002.001c1.083 1.089 2.583 1.762 4.24 1.762s3.157-.674 4.24-1.762c1.086-1.052 1.761-2.524 1.761-4.153 0-.031 0-.061-.001-.092v.005c0-.026.001-.056.001-.087 0-1.629-.674-3.101-1.759-4.152l-.002-.001c-1.083-1.089-2.583-1.762-4.24-1.762s-3.157.674-4.24 1.762c-1.085 1.052-1.758 2.523-1.758 4.151 0 .031 0 .063.001.094v-.005z"/></svg>