<!--Generated by Fontisto--><svg viewBox="0 0 27 24" xmlns="http://www.w3.org/2000/svg"><path d="m22.288.429c0-.005 0-.011 0-.016 0-.228.185-.413.413-.413h.017-.001 3.857.007c.234 0 .445.098.595.254.157.15.254.361.254.595v.007 3.858.016c0 .228-.185.413-.413.413-.006 0-.011 0-.017 0h.001-.856c-.005 0-.011 0-.016 0-.228 0-.413-.185-.413-.413 0-.006 0-.011 0-.017v.001-1.794l-3.402 3.415c1.052 1.304 1.689 2.982 1.689 4.809 0 .483-.044.955-.13 1.413l.007-.047c-.291 1.645-1.079 3.069-2.201 4.15l-.002.002c-1.1 1.102-2.545 1.859-4.158 2.097l-.04.005c-.373.066-.803.103-1.241.103-1.582 0-3.051-.489-4.261-1.325l.025.016c-.97.659-2.137 1.104-3.396 1.239l-.033.003v1.768h1.286.016c.228 0 .413.185.413.413v.017-.001.857.016c0 .228-.185.413-.413.413-.006 0-.011 0-.017 0h.001-1.286v1.286.02c0 .228-.185.413-.413.413-.006 0-.011 0-.016 0h.001-.858c-.005 0-.011 0-.016 0-.228 0-.413-.185-.413-.413 0-.006 0-.011 0-.017v.001-1.286h-1.286c-.005 0-.011 0-.016 0-.228 0-.413-.185-.413-.413 0-.006 0-.011 0-.017v.001-.857c0-.005 0-.011 0-.016 0-.228.185-.413.413-.413h.017-.001 1.286v-1.771c-1.424-.152-2.702-.68-3.762-1.48l.019.014c-1.091-.812-1.947-1.883-2.485-3.124l-.019-.05c-.389-.878-.615-1.901-.615-2.978 0-.4.031-.793.091-1.176l-.006.042c.222-1.704.996-3.196 2.135-4.319l.001-.001c1.117-1.151 2.594-1.946 4.25-2.203l.042-.005c.374-.066.804-.103 1.244-.103 1.587 0 3.059.49 4.273 1.328l-.025-.016c1.19-.814 2.661-1.299 4.245-1.299h.042-.002.062c1.807 0 3.464.638 4.759 1.702l-.013-.01 3.415-3.402h-1.794c-.005 0-.011 0-.016 0-.228 0-.413-.185-.413-.413 0-.006 0-.011 0-.017v.001zm-10.286 14.906c1.059-1.049 1.715-2.504 1.715-4.113 0-.028 0-.056-.001-.084v.004c0-.024.001-.051.001-.079 0-1.608-.656-3.063-1.715-4.112-1.059 1.049-1.715 2.504-1.715 4.113 0 .028 0 .056.001.084v-.004c0 .024-.001.051-.001.079 0 1.608.656 3.063 1.715 4.112zm-10.285-4.192c0 .026-.001.056-.001.087 0 1.629.674 3.101 1.759 4.152l.002.001c1.052 1.086 2.524 1.761 4.153 1.761.031 0 .061 0 .092-.001h-.005.033c1.062 0 2.057-.283 2.915-.778l-.028.015c-1.277-1.339-2.063-3.156-2.063-5.157 0-.028 0-.056 0-.084v.004c0-.024 0-.052 0-.08 0-2.001.786-3.818 2.066-5.16l-.003.003c-.83-.48-1.825-.763-2.887-.763-.012 0-.023 0-.035 0h.002c-.026 0-.056-.001-.087-.001-1.629 0-3.101.674-4.152 1.759l-.001.002c-1.086 1.052-1.761 2.524-1.761 4.153 0 .031 0 .061.001.092v-.005zm14.571 6c.026 0 .056.001.087.001 1.629 0 3.101-.674 4.152-1.759l.001-.002c1.086-1.052 1.761-2.524 1.761-4.153 0-.031 0-.061-.001-.092v.005c0-.026.001-.056.001-.087 0-1.629-.674-3.101-1.759-4.152l-.002-.001c-1.052-1.086-2.524-1.761-4.153-1.761-.031 0-.061 0-.092.001h.005c-.01 0-.022 0-.033 0-1.062 0-2.057.283-2.915.778l.028-.015c1.277 1.339 2.062 3.156 2.062 5.156v.085-.004.08c0 2.001-.786 3.818-2.066 5.16l.003-.003c.83.48 1.825.763 2.887.763h.036z"/></svg>