<!--Generated by Fontisto--><svg viewBox="0 0 36 24" xmlns="http://www.w3.org/2000/svg"><path d="m33.6 24h-31.2c-1.325 0-2.4-1.075-2.4-2.4v-19.2c0-1.325 1.075-2.4 2.4-2.4h31.2c1.325 0 2.4 1.075 2.4 2.4v19.2c0 1.325-1.075 2.4-2.4 2.4zm-5.807-7.11v1.11c.159.022.342.035.528.035h.016-.001c1.394 0 2.056-.542 2.626-2.147l2.514-7.05h-1.454l-1.686 5.446h-.03l-1.686-5.446h-1.496l2.425 6.713-.13.408c-.088.549-.559.963-1.125.963-.028 0-.056-.001-.084-.003h.004c-.112-.005-.332-.018-.42-.029zm-22.08-8.836h-.026c-.886.025-1.651.519-2.058 1.241l-.006.012c-.844 1.452-.307 3.674.627 5.027.438.64.918 1.266 1.551 1.266h.034c.265-.017.51-.086.731-.197l-.011.005c.267-.134.581-.213.913-.216h.001c.321.002.624.08.891.216l-.011-.005c.215.112.468.18.737.186h.002.027c.705-.013 1.147-.66 1.538-1.23.279-.404.51-.869.672-1.366l.011-.038v-.01l-.018-.008c-.78-.355-1.313-1.125-1.318-2.021v-.001c.008-.796.427-1.492 1.055-1.887l.009-.005.018-.012c-.409-.588-1.074-.974-1.83-.994h-.003c-.035 0-.071 0-.106 0-.446.024-.862.131-1.239.307l.021-.009c-.172.084-.372.145-.583.171l-.009.001c-.228-.025-.436-.087-.626-.181l.011.005c-.293-.142-.636-.235-.997-.259h-.008zm18.113 1.816c.88 0 1.366.412 1.366 1.159v.509l-1.786.106c-1.675.101-2.56.78-2.56 1.963.012 1.108.912 2.001 2.022 2.001.084 0 .166-.005.247-.015l-.01.001c.019.001.042.001.065.001.869 0 1.629-.468 2.041-1.167l.006-.011h.03v1.102h1.325v-4.586c0-1.33-1.061-2.188-2.703-2.188-1.514 0-2.64.868-2.685 2.063h1.29c.144-.549.635-.947 1.219-.947.047 0 .094.003.14.008l-.006-.001zm-9.826-3.566v9.216h1.431v-3.152h1.977c.046.003.101.004.155.004 1.618 0 2.929-1.311 2.929-2.929 0-.041-.001-.081-.002-.121v.006c.002-.038.003-.082.003-.127 0-1.602-1.298-2.9-2.9-2.9-.048 0-.096.001-.143.003h.007zm-4.747-.704c-.594.058-1.112.34-1.477.76l-.002.003c-.333.373-.536.868-.536 1.41 0 .047.002.094.005.14v-.006c.034 0 .07.004.11.004.56-.032 1.051-.3 1.378-.707l.003-.004c.327-.387.526-.891.526-1.443 0-.055-.002-.11-.006-.165v.007zm14.236 8.901c-.758 0-1.249-.365-1.249-.929 0-.582.47-.917 1.36-.97l1.59-.1v.521c-.035.828-.715 1.485-1.548 1.485-.054 0-.107-.003-.16-.008zm-6.418-3.33h-1.644v-3.661h1.65c.07-.01.151-.016.234-.016.951 0 1.722.771 1.722 1.722 0 .042-.002.085-.005.126v-.006c.003.036.004.079.004.122 0 .954-.774 1.728-1.728 1.728-.082 0-.164-.006-.243-.017l.009.001z"/></svg>