<!--Generated by Fontisto--><svg viewBox="0 0 36 24" xmlns="http://www.w3.org/2000/svg"><path d="m2.4 24c-1.325 0-2.4-1.075-2.4-2.4v-19.2c0-1.325 1.075-2.4 2.4-2.4h31.2c1.325 0 2.4 1.075 2.4 2.4v19.2c0 1.325-1.075 2.4-2.4 2.4zm7.341-18.4c-1.57 1.556-2.542 3.713-2.542 6.097 0 .05 0 .101.001.151v-.008c.002 2.348.969 4.47 2.526 5.99l.002.002c1.552 1.543 3.691 2.497 6.053 2.497h.014 4.109c2.406-.026 4.587-.971 6.211-2.501l-.005.004c1.643-1.485 2.68-3.615 2.707-5.987v-.005c0-.019 0-.041 0-.063 0-2.443-1.046-4.641-2.714-6.172l-.006-.006c-.805-.74-1.753-1.338-2.796-1.748l-.061-.021c-.998-.399-2.155-.631-3.366-.631-.003 0-.005 0-.008 0h-4.133c-.001 0-.003 0-.004 0-2.324 0-4.435.914-5.992 2.403l.003-.003zm-1.726 6.145c0-4.33 3.51-7.84 7.84-7.84s7.84 3.51 7.84 7.84-3.51 7.84-7.84 7.84c-4.329 0-7.838-3.508-7.84-7.837zm9.618 4.64c1.884-.734 3.196-2.534 3.196-4.64s-1.311-3.906-3.162-4.628l-.034-.012zm-6.746-4.64c.001 2.104 1.308 3.902 3.154 4.628l.034.012v-9.277c-1.879.739-3.186 2.537-3.188 4.64z"/></svg>