<!--Generated by Fontisto--><svg viewBox="0 0 36 24" xmlns="http://www.w3.org/2000/svg"><path d="m33.6 24h-31.2c-1.325 0-2.4-1.075-2.4-2.4v-19.2c0-1.325 1.075-2.4 2.4-2.4h31.2c1.325 0 2.4 1.075 2.4 2.4v19.2c0 1.325-1.075 2.4-2.4 2.4zm-14.488-14.4c-1.422 0-2.574 1.153-2.574 2.574s1.153 2.574 2.574 2.574c1.422 0 2.574-1.153 2.574-2.574-.002-1.421-1.153-2.573-2.574-2.574zm2.334.144 2.034 4.914h.502l2.07-4.914h-1.013l-1.296 3.216-1.28-3.219h-1.019zm-11.98 3.413-.602.582c.329.55.922.913 1.599.913.021 0 .043 0 .064-.001h-.003c.032.002.07.004.108.004.853 0 1.545-.692 1.545-1.545 0-.011 0-.023 0-.034v.002c0-.76-.32-1.109-1.379-1.495-.56-.209-.726-.344-.726-.602 0-.303.3-.532.697-.532.308.008.579.157.753.385l.002.002.488-.64c-.367-.33-.854-.532-1.389-.532-.007 0-.013 0-.02 0h.001c-.027-.002-.058-.003-.089-.003-.765 0-1.388.611-1.405 1.372v.002c0 .666.298.998 1.178 1.316.25.08.464.172.666.283l-.02-.01c.169.102.281.285.281.494v.002c-.001.374-.305.677-.679.677-.017 0-.033-.001-.049-.002h.002c-.004 0-.008 0-.013 0-.443 0-.825-.259-1.005-.633l-.003-.007zm5.555-3.52c-.004 0-.01 0-.015 0-.698 0-1.33.279-1.792.732-.457.453-.74 1.081-.74 1.775 0 1.379 1.118 2.498 2.498 2.498h.03-.001c.427 0 .83-.103 1.186-.286l-.015.007v-1.097c-.274.32-.677.522-1.128.524-.015.001-.033.001-.051.001-.862 0-1.562-.699-1.562-1.562 0-.032.001-.065.003-.096v.004c-.001-.016-.001-.036-.001-.055 0-.87.699-1.577 1.566-1.589h.001c.467.003.885.21 1.17.537l.002.002v-1.1c-.33-.184-.723-.293-1.142-.293-.003 0-.005 0-.008 0zm15.657 2.974h.122l1.293 1.926h1.15l-1.51-2.018c.623-.093 1.096-.625 1.096-1.267 0-.033-.001-.065-.004-.098v.004c0-.898-.618-1.414-1.695-1.414h-1.385v4.792h.934v-1.925zm-4.198-2.867v4.792h2.648v-.811h-1.718v-1.294h1.651v-.812h-1.651v-1.063h1.718v-.811zm-18.899 0v4.792h.933v-4.792zm-4.381 0v4.792h1.367c.041.002.089.004.137.004.598 0 1.147-.21 1.577-.56l-.005.004c.529-.443.864-1.102.87-1.839v-.001c0-.008 0-.017 0-.026 0-1.315-1.066-2.382-2.382-2.382-.067 0-.133.003-.199.008l.009-.001zm1.186 3.981h-.251v-3.17h.251c.054-.006.116-.009.179-.009.42 0 .805.15 1.103.4l-.003-.002c.318.295.516.715.516 1.181v.012-.001.01c0 .471-.198.896-.515 1.196l-.001.001c-.301.243-.688.391-1.109.391-.06 0-.12-.003-.178-.009l.007.001zm26.565-1.775h-.272v-1.452h.287c.588 0 .899.246.899.711 0 .484-.316.74-.914.74z"/></svg>