<!--Generated by Fontisto--><svg viewBox="0 0 24 24" xmlns="http://www.w3.org/2000/svg"><path d="m5.435 9h.028c.276 0 .519.137.667.346l.002.003c2.205 2.935 3.881 6.406 4.807 10.171l.041.195h-5.974c-1.056-3.838-2.743-7.187-4.966-10.106l.053.072c-.057-.068-.092-.157-.092-.253 0-.072.019-.139.053-.197l-.001.002c.066-.14.206-.235.368-.235.007 0 .014 0 .021.001h-.001zm7.491 4.782c-.521 2.091-1.096 3.845-1.78 5.545l.1-.281c-.791-3.019-1.967-5.668-3.497-8.069l.068.114c.339-1.787.552-3.862.589-5.98v-.033c1.591 2.474 3.105 5.335 4.375 8.325l.144.381zm1.322-9.496c1.98 2.7 3.71 5.783 5.046 9.067l.104.288c1.253 3.033 2.13 6.547 2.461 10.219l.01.141h-6.04q-.549-8.906-7.406-19.714zm9.282 7.714v.173c0 3.803-.494 7.491-1.42 11.002l.067-.3c-.688-5.42-2.387-10.324-4.909-14.694l.101.189c-.241-2.888-.744-5.551-1.492-8.108l.072.287c-.011-.035-.017-.076-.017-.118 0-.1.034-.191.091-.264l-.001.001c.075-.102.194-.167.329-.167h.015-.001 4.808.002c.194 0 .373.066.516.176l-.002-.001c.147.106.255.259.3.436l.001.005c.977 3.37 1.539 7.242 1.539 11.245v.147-.008z"/></svg>