<!--Generated by Fontisto--><svg viewBox="0 0 36 24" xmlns="http://www.w3.org/2000/svg"><path d="m33.6 24h-31.2c-1.325 0-2.4-1.075-2.4-2.4v-19.2c0-1.325 1.075-2.4 2.4-2.4h31.2c1.325 0 2.4 1.075 2.4 2.4v19.2c0 1.325-1.075 2.4-2.4 2.4zm-13.662-7.723-.028.004c-.062.023-.115.055-.161.095l.001-.001c.03.086.047.185.047.288v.023-.001 1.92c-.001.033-.002.072-.002.111 0 .106.005.211.015.314l-.001-.013c.037.008.079.012.123.012h.005c.007 0 .015.001.023.001.067 0 .132-.014.19-.039l-.003.001c.005-.043.008-.094.008-.144 0-.011 0-.023 0-.034v.002-.684c.099.067.221.107.353.107h.015-.001.005c.163 0 .312-.058.428-.154l-.001.001c.225-.225.364-.537.364-.88 0-.044-.002-.087-.007-.13v.005c0-.566-.258-.89-.708-.89-.089.001-.174.017-.252.047l.005-.002c-.11.035-.205.09-.286.161l.001-.001c-.019-.077-.066-.12-.133-.12zm3.28 2.469c-.001 0-.003 0-.004 0-.027 0-.053.004-.078.012h.002c-.012.032-.02.07-.025.109v.002c.018.066.11.136.312.136.218 0 .42-.248.619-.758.227-.63.433-1.36.54-1.8.011-.033.018-.071.02-.11v-.001s0 0 0-.001c0-.031-.007-.061-.021-.087l.001.001-.182-.008c-.007-.001-.014-.002-.022-.002-.039 0-.075.015-.102.039l-.09.385-.119.51c-.059.251-.121.51-.14.568l-.037-.146c-.026-.106-.062-.254-.1-.4-.08-.289-.193-.667-.234-.8-.018-.067-.058-.165-.08-.165-.21 0-.287.023-.32.095.173.48.462 1.43.498 1.553.018.072.046.136.082.193l-.002-.003c-.021.253-.122.479-.278.656l.001-.001c-.043.017-.093.027-.146.027-.005 0-.01 0-.015 0h.001-.084zm-6.06 0c-.003 0-.005 0-.008 0-.027 0-.054.004-.078.012h.002c-.011.032-.02.07-.024.109v.002c.018.066.111.136.313.136s.422-.255.618-.758c.23-.64.435-1.37.54-1.8.011-.033.018-.071.02-.11v-.001s0 0 0-.001c0-.031-.007-.061-.021-.087l.001.001-.182-.008c-.007-.001-.014-.002-.022-.002-.039 0-.074.015-.101.039l-.094.4-.118.498c-.057.251-.118.51-.139.568l-.033-.13-.103-.418c-.08-.289-.194-.667-.234-.8-.017-.067-.058-.165-.08-.165-.21 0-.288.023-.32.095.173.48.462 1.43.498 1.553.018.072.046.136.082.193l-.002-.003c-.021.253-.122.479-.278.656l.001-.001c-.043.017-.093.027-.145.027-.005 0-.011 0-.016 0h.001-.085zm14.522-3.025c-.213.014-.286.097-.31.165l-.021.37c-.025.01-.055.02-.086.027l-.004.001c-.06.01-.114.032-.162.063l.002-.001c-.034.031-.038.034-.038.145.061.027.132.042.207.042.014 0 .029-.001.043-.002h-.002v1.018c0 .466.148.692.453.692h.02c.119 0 .232-.03.331-.082l-.004.002c.029-.019.051-.046.061-.079v-.001c0-.037 0-.08 0-.115 0-.032-.003-.063-.008-.094v.003c-.081.042-.176.071-.276.08h-.003c-.16 0-.206-.15-.223-.392v-.478c0-.177.004-.371.009-.56h.13.207c.035-.001.069-.004.103-.009l-.004.001c.055-.012.08-.053.095-.263h-.528l.006-.419v-.113zm-3.285.48c-.361 0-.791.19-.791 1.092-.003.028-.004.061-.004.095 0 .248.084.476.225.657l-.002-.002c.132.124.311.2.507.2.019 0 .037-.001.056-.002h-.002c.111-.001.219-.016.322-.043l-.009.002c.112-.028.235-.114.24-.198-.003-.06-.012-.116-.027-.17l.001.006c-.124.063-.271.1-.426.1-.011 0-.022 0-.033-.001h.002c-.327 0-.48-.19-.486-.598h.185.044c.173 0 .344-.009.513-.027l-.021.002c.108-.014.205-.048.292-.097l-.004.002c.016-.068.025-.147.025-.228 0-.004 0-.009 0-.013v.001c0-.07-.004-.136-.009-.198 0-.007 0-.015 0-.023 0-.309-.251-.56-.56-.56-.011 0-.023 0-.034.001h.002zm-12.619 1.654h-.016c-.04.057-.065.129-.066.205.041.102.258.177.514.177.418 0 .688-.226.688-.577v-.001c0-.186-.094-.35-.238-.447l-.002-.001c-.071-.059-.164-.126-.25-.186-.063-.045-.123-.087-.166-.122-.074-.044-.124-.121-.131-.209v-.001c0-.128.113-.214.28-.214h.004c.071 0 .139.014.202.039l-.004-.001c.038.013.083.024.129.031h.004c.069-.029.117-.097.118-.175-.019-.058-.133-.149-.366-.165-.036-.005-.077-.008-.12-.009-.38 0-.626.199-.626.507.003.155.072.292.18.387l.001.001.099.086c.08.069.194.15.293.222.16.112.218.195.218.298v.007c0 .133-.107.24-.24.24h-.026c-.016.001-.035.002-.055.002-.112 0-.218-.022-.316-.061l.006.002c-.033-.018-.072-.03-.114-.032h-.001zm-2.542-1.657c-.361 0-.79.19-.79 1.092-.003.028-.004.061-.004.095 0 .248.084.476.224.657l-.002-.002c.132.124.311.2.507.2.019 0 .037-.001.055-.002h-.002c.112-.001.22-.016.323-.043l-.009.002c.112-.028.234-.114.24-.198-.004-.061-.013-.117-.026-.171l.001.007c-.124.063-.271.1-.426.1-.011 0-.022 0-.032-.001h.002c-.328 0-.48-.19-.486-.598h.184.043c.173 0 .345-.009.514-.027l-.021.002c.108-.015.205-.048.293-.097l-.004.002c.016-.069.025-.148.025-.228 0-.004 0-.008 0-.012v.001c0-.063 0-.124-.007-.181-.042-.395-.243-.597-.6-.597zm9.238 1.882c.057.079.144.134.245.147h.002.006c.085 0 .161-.036.213-.094 0-.036 0-.1.004-.153l-.08-.022c-.025-.04-.04-.089-.04-.142 0-.009 0-.018.001-.026v.001-.363l.004-.469v-.186c0-.382-.121-.554-.4-.572-.07-.004-.08-.004-.144-.004-.229.001-.441.075-.613.201l.003-.002v.091c.006.062.028.118.062.166l-.001-.001c.044-.003.085-.015.122-.034l-.002.001c.127-.06.274-.099.43-.107h.003c.183 0 .197.114.197.288v.235c-.037-.008-.08-.013-.123-.013-.004 0-.008 0-.012 0h.001c-.006 0-.013 0-.021 0-.034 0-.067.002-.1.005h.004c-.004 0-.009 0-.014 0-.369 0-.669.293-.681.658v.001c-.001.014-.002.031-.002.048 0 .274.222.496.496.496h.022-.001c.012.001.026.001.04.001.095 0 .185-.02.266-.056l-.004.002c.045-.028.084-.059.119-.094zm-7.486 0c.057.079.144.134.245.147h.002.007c.084 0 .159-.036.211-.094 0-.036 0-.099.004-.153l-.08-.022c-.025-.04-.04-.09-.04-.142 0-.009 0-.018.001-.026v.001-.362l.004-.47v-.182c0-.382-.121-.554-.4-.573-.07-.004-.08-.004-.144-.004-.229.001-.441.075-.613.201l.003-.002-.004.091c.007.062.029.118.062.166l-.001-.001c.044-.003.085-.015.121-.034l-.002.001c.127-.059.274-.097.429-.107h.004c.183 0 .198.114.198.289v.234c-.036-.008-.078-.012-.121-.012-.005 0-.01 0-.015 0h.001c-.038 0-.074 0-.116 0-.004 0-.009 0-.014 0-.369 0-.669.293-.681.658v.001c-.001.014-.002.031-.002.048 0 .274.222.496.496.496h.022-.001c.012.001.026.001.04.001.095 0 .185-.02.266-.056l-.004.002c.045-.028.084-.059.119-.094zm14.514-1.797c-.074.02-.139.054-.194.1l.001-.001c.032.088.05.189.05.294v.015-.001.701c0 .32-.004.581-.01.8.231 0 .273 0 .32-.041.03-.046.047-.103.047-.163 0-.011-.001-.021-.002-.031v.001-1.281c.086-.102.212-.168.354-.173h.001c.24 0 .326.109.326.432v1.092.019c0 .054.012.106.034.152l-.001-.002c.24 0 .297-.013.338-.049-.004-.19-.008-.378-.008-.59v-.63c0-.47-.094-.725-.586-.725-.092.001-.179.017-.261.047l.005-.002c-.11.037-.204.091-.285.161l.001-.001c-.021-.082-.064-.124-.13-.124zm-2.88.215c.206 0 .276.11.276.436v1.129.009c0 .045.011.087.03.124l-.001-.002c.234 0 .289-.013.338-.049-.008-.148-.008-.334-.008-.54v-.692c0-.35-.054-.678-.45-.709-.02-.003-.042-.004-.065-.004-.005 0-.01 0-.016 0h.001c-.002 0-.004 0-.006 0-.088 0-.172.015-.25.042l.005-.002c-.115.037-.214.094-.299.166l.001-.001c-.073-.124-.206-.206-.358-.206-.002 0-.003 0-.005 0h-.017c-.02-.002-.043-.003-.066-.003-.205 0-.393.076-.536.201l.001-.001c-.019-.084-.059-.123-.127-.123-.074.021-.139.054-.195.099l.001-.001c.031.089.05.191.05.297v.012-.001.738c0 .31 0 .565-.004.774.226 0 .27-.005.32-.041.027-.035.043-.08.043-.129 0-.008 0-.017-.001-.025v.001-1.333c.087-.102.214-.168.357-.173h.001c.204 0 .277.114.277.437v.494c0 .31 0 .56-.008.77h.169c.021.001.047.002.072.002s.051-.001.075-.002h-.003c.031-.004.054-.03.054-.061 0-.002 0-.004 0-.006v-1.458c.083-.099.204-.165.34-.173h.001zm-20.604-7.636c-.001 0-.002 0-.003 0-.212 0-.418.026-.614.076l.017-.004 2.415 5.76-1.208 2.873c.188.053.404.084.627.086h.001c.026.002.057.003.087.003.498 0 .933-.273 1.163-.677l.003-.007 3.379-8.039c-.182-.039-.393-.063-.608-.065h-.002c-.051-.007-.109-.011-.168-.011-.514 0-.957.306-1.156.746l-.003.008-1.297 3.113-1.296-3.107c-.227-.454-.688-.76-1.22-.76-.042 0-.083.002-.123.006h.005zm7.725 1.378h2.132l-2.8 2.715c-.391.45-.629 1.042-.629 1.69 0 .184.019.363.056.536l-.003-.017h5.137c.004-.036.006-.077.006-.119 0-.683-.547-1.238-1.226-1.252h-.001-2.053l2.855-2.891c.309-.396.496-.901.496-1.449 0-.209-.027-.411-.078-.604l.004.016h-5.168c.102 1.307 1.052 1.373 1.242 1.373zm15.529-1.378c-1.635.063-2.936 1.404-2.936 3.048 0 .035.001.07.002.105v-.005c-.005.062-.007.133-.007.206 0 1.625 1.317 2.942 2.942 2.942s2.942-1.317 2.942-2.942c0-.072-.003-.144-.008-.215l.001.01c.001-.029.002-.063.002-.097 0-1.645-1.302-2.986-2.932-3.048h-.006zm-5.746-.008c-1.693.062-3.041 1.449-3.041 3.152s1.349 3.089 3.036 3.151h.006c.9-.004 1.706-.405 2.252-1.036l.003-.004c-.121-.281-.396-.475-.716-.475-.005 0-.009 0-.014 0h.001c-.22.008-.425.066-.605.164l.007-.004c-.267.129-.579.208-.909.217h-.003c-.006 0-.014 0-.021 0-.501 0-.937-.277-1.164-.685l-.003-.007c-.174-.398-.276-.861-.276-1.348s.102-.95.285-1.37l-.009.022c.2-.401.607-.672 1.078-.672.023 0 .045.001.067.002h-.003c.355.01.688.091.989.23l-.016-.006c.175.09.38.146.598.154h.002.013c.304 0 .566-.177.689-.433l.002-.005c-.547-.638-1.352-1.041-2.252-1.044h-.001zm-3.6.007c-.067 0-1.65.012-1.65 1.084v5.211c.4 0 1.655-.076 1.655-1.04v-5.252zm-15.071 0c-.07.003-1.653.019-1.653 1.086v5.211c.4 0 1.655-.076 1.655-1.04v-5.254zm14.239-3.261c-.455.001-.823.37-.823.826s.37.826.826.826.825-.369.826-.825c0-.456-.37-.826-.826-.826-.001 0-.001 0-.002 0zm-15.064 0c-.456 0-.826.37-.826.826s.37.826.826.826.826-.37.826-.826c0-.456-.37-.825-.826-.826zm16.43 12.366c-.003 0-.006 0-.009 0-.118 0-.224-.051-.297-.132v-1.178c.095-.091.222-.15.361-.16h.002c.274 0 .407.202.407.618 0 .629-.24.853-.465.853zm1.688-.02h-.029c-.148-.009-.219-.105-.219-.292 0-.286.21-.353.368-.378.04-.005.087-.008.135-.009h.001.016c.023 0 .045.002.066.005h-.003v.292c0 .013.001.028.001.044 0 .054-.003.108-.009.16l.001-.006c-.066.112-.185.186-.322.186-.002 0-.004 0-.006 0zm-7.485 0h-.03c-.147-.009-.219-.105-.219-.292 0-.284.21-.352.368-.378.04-.005.087-.008.134-.009h.001.015c.023 0 .045.002.067.005h-.003v.292c0 .013.001.028.001.044 0 .054-.003.108-.009.16l.001-.006c-.066.112-.186.186-.323.186-.001 0-.002 0-.004 0zm13.472-.865h-.16c.018-.352.146-.58.342-.61.215 0 .312.104.334.346l.004.09v.006c0 .046-.008.091-.022.132l.001-.003c-.028.015-.06.024-.095.025-.074.008-.243.013-.403.013zm-15.161 0h-.16c.018-.354.146-.581.342-.61.216 0 .312.103.332.346l.005.091v.008c0 .045-.007.089-.021.13l.001-.003c-.028.015-.06.024-.095.025-.075.008-.243.013-.404.013zm16.295-3.067c-.791 0-1.435-.906-1.435-2.021s.64-2.02 1.435-2.02 1.436.906 1.436 2.02-.645 2.021-1.437 2.021z"/></svg>