<!--Generated by Fontisto--><svg viewBox="0 0 36 24" xmlns="http://www.w3.org/2000/svg"><path d="m33.6 24h-31.2c-1.325 0-2.4-1.075-2.4-2.4v-19.2c0-1.325 1.075-2.4 2.4-2.4h31.2c1.325 0 2.4 1.075 2.4 2.4v19.2c0 1.325-1.075 2.4-2.4 2.4zm-18.984-9.845v6.846h4.353c1.638-.002 2.965-1.329 2.967-2.967v-14.835h-4.352c-1.638.001-2.966 1.329-2.968 2.967v3.88c.869-.612 1.949-.978 3.115-.978.154 0 .306.006.456.019l-.02-.001c.19 0 .394.005.605.014.856.056 1.651.183 2.42.377l-.092-.02v1.256c-.651-.354-1.417-.588-2.23-.651l-.019-.001c-.102-.007-.203-.01-.301-.01-1.414 0-2.258.766-2.258 2.048-.002.03-.003.065-.003.1 0 1.087.881 1.969 1.969 1.969.091 0 .18-.006.267-.018l-.01.001c.106 0 .219-.005.336-.014.833-.072 1.597-.305 2.282-.668l-.032.016v1.256h-.009c-.676.175-1.469.302-2.282.354l-.038.002c-.211.01-.414.014-.605.014-.132.011-.285.018-.439.018-1.164 0-2.244-.365-3.129-.987l.017.012zm8.183.8v6.032h4.353c1.638-.002 2.965-1.329 2.967-2.967v-14.82h-4.337c-1.638.002-2.965 1.329-2.966 2.967v3.081h4.189c.016-.001.035-.001.053-.001.085 0 .168.006.249.019l-.009-.001c1.016.052 1.646.582 1.646 1.386-.024.737-.616 1.328-1.351 1.35h-.002v.033c1.014.068 1.695.645 1.695 1.434 0 .874-.778 1.483-1.89 1.483zm-16.399-.23v6.24h4.353c1.637-.002 2.963-1.328 2.966-2.964v-14.8h-4.336c-1.638.002-2.965 1.329-2.966 2.967v7.319c.742.397 1.62.642 2.552.669h.008c.05.006.109.01.168.01.782 0 1.417-.634 1.417-1.417 0-.021 0-.042-.001-.063v.003-3.456h2.543v3.44c0 1.612-1.229 2.43-3.651 2.43-1.084 0-2.136-.137-3.139-.395l.087.019zm17.866-2.282v1.565h1.711c.025 0 .066-.004.106-.008s.08-.008.106-.008c.347-.076.603-.38.603-.745 0-.008 0-.015 0-.023v.001c-.001-.369-.255-.679-.598-.765l-.005-.001c-.052-.011-.111-.018-.172-.018-.014 0-.028 0-.041.001h.002zm0-2.314v1.434h1.55c.01.001.022.001.034.001.045 0 .088-.007.129-.019l-.003.001c.343-.053.603-.347.603-.701s-.259-.647-.599-.7l-.004-.001c-.025-.001-.048-.003-.07-.007h.004c-.028-.004-.061-.008-.095-.009h-.001z"/></svg>