<!--Generated by Fontisto--><svg viewBox="0 0 36 24" xmlns="http://www.w3.org/2000/svg"><path d="m33.6 24h-31.2c-1.325 0-2.4-1.075-2.4-2.4v-19.2c0-1.325 1.075-2.4 2.4-2.4h31.2c1.325 0 2.4 1.075 2.4 2.4v19.2c0 1.325-1.075 2.4-2.4 2.4zm-19.568-13.675c-.058.001-.109.028-.142.07-.038.039-.062.092-.063.15 0 .021.098.32.308.933l.454 1.326.211.618q.355 1.04.371 1.106c-.451.556-.879 1.176-1.259 1.828l-.038.07c-.001.008-.002.016-.002.025 0 .1.081.182.182.182.009 0 .018-.001.027-.002h-.001 1.218c.12-.001.224-.064.283-.159l.001-.001 4.032-5.819c.02-.027.033-.06.033-.097 0-.005 0-.01-.001-.015v.001c-.002-.059-.025-.111-.063-.15-.033-.042-.084-.069-.141-.07h-1.219c-.12.001-.225.064-.284.159l-.001.001-1.68 2.466-.695-2.372c-.037-.147-.168-.254-.323-.254-.009 0-.017 0-.026.001h.001zm13.978-.111c-.008 0-.017 0-.026 0-.758 0-1.439.329-1.909.851l-.002.002c-.495.513-.8 1.212-.8 1.982v.027-.001c-.002.029-.002.064-.002.098 0 .537.209 1.026.549 1.389l-.001-.001c.354.344.838.556 1.371.556.032 0 .065-.001.097-.002h-.005c.337-.004.657-.073.949-.197l-.016.006c.295-.111.545-.284.742-.504l.002-.002c-.01.057-.021.105-.034.151l.002-.01c-.017.056-.028.121-.032.188v.002c0 .168.069.253.206.253h1.091c.009.001.018.001.029.001.17 0 .309-.133.319-.3v-.001l.648-4.127c.002-.012.004-.026.004-.04 0-.052-.019-.1-.051-.137-.036-.049-.093-.08-.157-.08-.001 0-.002 0-.003 0h-1.2c-.147 0-.24.175-.27.522-.307-.391-.779-.639-1.31-.639-.067 0-.134.004-.199.012l.008-.001zm-17.963 0c-.008 0-.018 0-.028 0-.757 0-1.438.329-1.906.851l-.002.002c-.495.513-.8 1.212-.8 1.982v.027-.001c-.001.029-.002.062-.002.096 0 .538.209 1.027.55 1.39l-.001-.001c.354.344.838.556 1.372.556.032 0 .064-.001.096-.002h-.005c.332-.005.647-.074.934-.197l-.016.006c.299-.114.553-.286.758-.505l.001-.001c-.037.098-.06.212-.063.33v.002c0 .168.07.253.206.253h1.09c.009.001.018.001.029.001.17 0 .309-.133.319-.3v-.001l.649-4.127c.002-.011.003-.023.003-.036 0-.053-.019-.102-.051-.139-.036-.049-.093-.08-.157-.08-.001 0-.002 0-.003 0h-1.2c-.147 0-.24.175-.269.522-.312-.39-.788-.638-1.322-.638-.064 0-.126.004-.188.01l.008-.001zm22.565-2.214c-.005 0-.01-.001-.016-.001-.1 0-.182.077-.19.174v.001l-1.028 6.578c-.004.015-.007.032-.007.049 0 .051.021.098.054.132.037.044.092.071.154.071h.006 1.044c.01.001.021.002.032.002.166 0 .3-.134.3-.3 0-.001 0-.001 0-.002l1.026-6.465c.001-.007.001-.014.001-.022 0-.059-.02-.114-.053-.158v.001c-.035-.037-.085-.061-.14-.061-.005 0-.01 0-.015.001h.001zm-11.67 0c-.012-.002-.026-.003-.04-.003-.168 0-.305.135-.308.302l-1.027 6.452c-.002.011-.003.023-.003.036 0 .053.019.101.05.138.035.049.092.08.156.08h.004 1.297.004c.123 0 .225-.088.248-.204v-.002l.285-1.834c.009-.083.05-.155.111-.205h.001c.066-.054.148-.09.237-.103h.003c.081-.015.174-.023.269-.024h.001c.084 0 .184.005.3.016s.19.016.222.016c.048.003.104.004.16.004.763 0 1.457-.293 1.976-.773l-.002.002c.482-.512.779-1.204.779-1.965 0-.057-.002-.113-.005-.17v.008c.003-.038.005-.082.005-.127 0-.5-.24-.943-.61-1.223l-.004-.003c-.416-.265-.923-.422-1.467-.422-.045 0-.089.001-.133.003h.006zm-17.982 0c-.01-.001-.021-.002-.032-.002-.166 0-.3.134-.3.3v.002l-1.028 6.452c-.002.011-.003.024-.003.037 0 .052.019.1.05.137.035.049.092.08.156.08h.004 1.2c.012.002.026.003.04.003.168 0 .305-.135.308-.302l.285-1.739c.009-.083.05-.155.11-.205h.001c.066-.054.148-.09.237-.103h.003c.08-.015.173-.023.268-.024h.001c.084 0 .184.005.3.016s.19.016.222.016c.048.003.103.004.159.004.763 0 1.457-.293 1.977-.773l-.002.002c.482-.512.779-1.205.779-1.966 0-.057-.002-.113-.005-.169v.008c.003-.038.005-.082.005-.127 0-.5-.24-.943-.61-1.223l-.004-.003c-.416-.265-.923-.423-1.467-.423-.042 0-.084.001-.126.003h.006zm24.984 5.835c-.014.001-.031.001-.048.001-.266 0-.509-.096-.698-.255l.002.001c-.176-.163-.286-.395-.286-.653 0-.015 0-.03.001-.045v.002c0-.009 0-.019 0-.029 0-.374.151-.713.396-.959.241-.247.577-.4.949-.4h.033-.002c.01 0 .022-.001.034-.001.269 0 .514.099.702.262l-.001-.001c.181.168.294.408.294.674 0 .016 0 .032-.001.048v-.002.024c0 .369-.153.703-.4.94-.243.242-.579.391-.949.391-.008 0-.017 0-.025 0h.001zm-17.979 0c-.015.001-.032.001-.05.001-.262 0-.503-.096-.687-.255l.001.001c-.171-.164-.278-.395-.278-.651 0-.016 0-.032.001-.047v.002c0-.009 0-.019 0-.029 0-.374.151-.713.396-.959.241-.247.576-.4.948-.4h.035-.002c.01 0 .022-.001.034-.001.269 0 .514.099.702.262l-.001-.001c.181.168.293.408.293.673 0 .016 0 .033-.001.049v-.002.035c0 .369-.153.701-.4.938-.247.237-.583.384-.954.384-.012 0-.024 0-.036 0h.002zm11.907-2.56.269-1.691c.008-.098.09-.174.189-.174.006 0 .012 0 .017.001h-.001.285c.018 0 .04-.001.061-.001.173 0 .344.012.511.035l-.019-.002c.155.028.29.098.396.198.118.112.191.269.191.444 0 .013 0 .026-.001.038v-.002c.005.038.008.081.008.126 0 .31-.137.587-.354.775l-.001.001c-.266.153-.585.244-.925.244-.042 0-.083-.001-.125-.004h.006l-.505.016zm-17.979 0 .269-1.691c.008-.098.089-.174.188-.174.006 0 .012 0 .018.001h-.001.3c.038-.003.082-.005.126-.005.288 0 .561.069.801.191l-.01-.005c.189.121.253.378.19.766-.011.305-.17.57-.408.726l-.003.002c-.344.129-.742.204-1.158.204-.11 0-.219-.005-.326-.016z"/></svg>