<!--Generated by Fontisto--><svg viewBox="0 0 36 24" xmlns="http://www.w3.org/2000/svg"><path d="m33.6 24h-31.2c-1.325 0-2.4-1.075-2.4-2.4v-19.2c0-1.325 1.075-2.4 2.4-2.4h31.2c1.325 0 2.4 1.075 2.4 2.4v19.2c0 1.325-1.075 2.4-2.4 2.4zm-15.159-6.408c-.33 1.04-.672 1.55-1.72 1.658-.209.018-.344.047-.42.148-.037.067-.058.147-.058.232 0 .057.01.111.027.162l-.001-.003.028.127c.062.294.166.48.497.48.034 0 .072 0 .112-.006 1.536-.1 2.358-.926 2.84-2.854l1.642-6.576c.023-.058.037-.126.037-.197 0-.094-.024-.182-.066-.259l.001.003c-.094-.083-.219-.134-.355-.134-.027 0-.054.002-.08.006h.003-.129c-.032-.006-.068-.01-.106-.01-.311 0-.565.243-.582.55v.002l-1.185 4.927c-.149.606-.356.72-.711.72-.436 0-.61-.104-.784-.72l-1.342-4.927c-.028-.308-.285-.548-.598-.548-.037 0-.073.003-.108.01l.004-.001h-.114c-.023-.004-.05-.006-.078-.006-.136 0-.26.052-.354.137-.036.07-.058.153-.058.242 0 .078.016.151.046.218l-.001-.003 1.36 4.97c.254.951.56 1.739 1.687 1.739h.031c.191 0 .376-.029.549-.084l-.013.004zm-6.938-4.32c-2.05 0-3.005.692-3.005 2.177 0 1.44.986 2.233 2.776 2.233 2.127 0 3.076-.724 3.076-2.348v-2.829c0-1.57-1.011-2.334-3.09-2.334-.021 0-.047 0-.072 0-.523 0-1.033.052-1.527.151l.049-.008c-.361.08-.512.176-.512.577v.114c-.001.014-.002.03-.002.046 0 .109.028.211.076.3l-.002-.003c.057.082.151.135.257.135.008 0 .015 0 .023-.001h-.001c.078-.002.153-.013.225-.034l-.006.002c.46-.098.988-.154 1.529-.154h.021-.001c1.264 0 1.78.35 1.78 1.209v.766zm12.005-5.178c-.855 0-1.213.132-1.213.95v4.983c-.001.034-.002.074-.002.115 0 .707.198 1.367.541 1.929l-.009-.016c.677 1.062 2 1.624 3.84 1.624s3.175-.56 3.852-1.624c.334-.546.531-1.206.531-1.913 0-.04-.001-.08-.002-.12v.006-3.84h.995c.213 0 .386-.173.386-.386v-1.981c0-.213-.173-.386-.386-.386h-1.957c-.213 0-.386.174-.386.387v.273h-.142c-.855 0-1.213.132-1.213.95v4.983c.001.02.002.044.002.067 0 .261-.071.506-.196.715l.004-.006c-.24.367-.709.539-1.481.541s-1.242-.174-1.481-.541c-.121-.203-.192-.448-.192-.709 0-.024.001-.047.002-.07v.003-4.988c0-.818-.358-.95-1.212-.95zm-20.274 0c-1.13-.003-1.634.501-1.634 1.63v7.255c0 .437.14.577.577.577h.143c.437 0 .577-.14.577-.577v-2.819h2.45c2.176 0 3.19-.96 3.19-3.034s-1.017-3.035-3.19-3.035zm29.486-2.704c-.158 0-.287.128-.287.286v1.472c0 .158.129.287.287.287h1.454c.158 0 .286-.128.286-.286v-1.469c-.001-.158-.129-.286-.287-.287zm-1.475-1.39c-.108 0-.195.087-.195.195v.999c0 .108.087.195.194.195h.987c.108 0 .195-.087.195-.195v-.999c0-.108-.087-.195-.194-.195zm-19.986 12.57c-1.015 0-1.508-.367-1.508-1.12 0-.83.495-1.153 1.766-1.153h1.58v.995c-.001.808-.298 1.278-1.838 1.278zm-5.912-3.623h-2.451v-3.051c0-.423.16-.58.58-.58h1.871c1.2 0 1.894.296 1.894 1.809 0 1.182-.302 1.822-1.894 1.822z"/></svg>