<!--Generated by Fontisto--><svg viewBox="0 0 36 24" xmlns="http://www.w3.org/2000/svg"><path d="m33.6 24h-31.2c-1.325 0-2.4-1.075-2.4-2.4v-19.2c0-1.325 1.075-2.4 2.4-2.4h31.2c1.325 0 2.4 1.075 2.4 2.4v19.2c0 1.325-1.075 2.4-2.4 2.4zm-8.689-15.321c-.07-.002-.151-.004-.233-.004-.213 0-.424.01-.632.028l.027-.002c-.01.03.542 1.996 1.066 3.83l.064.224c1.114 3.896 1.114 3.896.937 4.274-.153.313-.392.565-.686.729l-.008.004-.231.116-.994.019c-.96.02-.998.024-1.12.111-.228.164-.315.425-.489 1.467-.09.55-.16.982-.16 1.006.148.031.318.049.492.049.084 0 .167-.004.249-.012l-.01.001c.214 0 .48 0 .812-.006.17.016.367.025.566.025.484 0 .956-.054 1.409-.157l-.043.008c1.072-.313 1.958-.975 2.55-1.852l.01-.016c.197-.286 5.257-9.732 5.257-9.814-.167-.024-.359-.038-.555-.038-.09 0-.178.003-.267.009l.012-.001h-.594l-1.4.011-.266.132c-.149.071-.277.163-.385.274-.067.08-.528 1.088-1.12 2.445-.344.887-.691 1.622-1.083 2.33l.049-.096c-.022-.046-.218-1.266-.378-2.282-.187-1.218-.366-2.27-.4-2.346-.065-.168-.191-.3-.349-.372l-.004-.002c-.151-.08-.223-.08-1.539-.095h-.553zm-3.77.131c-.043 0-.052.027-.062.071-.027.123-.418 2.354-.418 2.386.042.047.092.087.148.117l.003.001c.41.281.69.725.746 1.237l.001.008c.003.04.005.087.005.134 0 .787-.538 1.448-1.266 1.637l-.012.003c-.136.032-.19.067-.203.131-.035.168-.418 2.357-.418 2.39 0 .006.023.015.179.015.07 0 .16 0 .25-.007 1.958-.11 3.55-1.545 3.9-3.417l.004-.026c.026-.2.041-.431.041-.665 0-.321-.028-.636-.082-.942l.005.032c-.291-1.35-1.207-2.439-2.423-2.964l-.027-.01c-.108-.056-.232-.101-.364-.129l-.01-.002zm-16.966-.136c-.167 0-.603 0-.612.008s-.025.13-.058.32l-.137.758c-.104.588-.179 1.074-.167 1.082s.32.012.621.012h.596l-.012.091c0 .026-.037.211-.085.489l-.185 1.058c-.172.615-.271 1.322-.271 2.051 0 .156.005.31.013.464l-.001-.021c.182 1.082 1.114 1.766 2.624 1.925.198.021.466.031.701.031.038.003.081.004.125.004.138 0 .273-.016.403-.046l-.012.002c.022-.027.413-2.182.418-2.306 0-.052-.069-.068-.386-.088-.778-.043-1.126-.297-1.126-.823 0-.16.367-2.381.457-2.763.013-.059.032-.075.433-.075h.606c.053.003.116.004.179.004.174 0 .344-.012.512-.034l-.019.002c.025-.042.378-2 .378-2.099 0-.037-.198-.047-.847-.047h-.846l.107-.609c.195-1.063.149-1.32-.278-1.527-.214-.107-.231-.107-1.152-.123l-.953-.012-.024.111c-.012.064-.096.525-.183 1.03s-.171.96-.183 1.022l-.024.112zm6-.008-.025.111c-.04.186-1.415 8.014-1.415 8.053.294.026.637.042.983.042.135 0 .27-.002.404-.007l-.019.001h1.369l.04-.21c.025-.111.16-.871.302-1.686.14-.8.297-1.6.342-1.75.238-.867.892-1.541 1.727-1.805l.018-.005c.2-.061.43-.096.668-.096.056 0 .111.002.165.006h-.007c.499 0 .53-.005.545-.08.045-.195.452-2.57.445-2.593-.066-.021-.141-.034-.22-.034-.024 0-.048.001-.072.003h.003c-.006 0-.014 0-.021 0-.16 0-.317.013-.47.038l.017-.002c-.622.133-1.164.417-1.603.813l.003-.003c-.292.27-.546.576-.756.912l-.011.019c-.022.056-.054.104-.094.144.015-.157.037-.297.066-.435l-.004.024c.166-.885.076-1.192-.4-1.371-.269-.047-.578-.074-.894-.074-.058 0-.115.001-.173.003h.008zm9.704-.026h-.141c-.236 0-.467.022-.691.064l.023-.004c-1.274.263-2.314 1.086-2.869 2.195l-.011.024c-.272.488-.432 1.07-.432 1.689 0 .051.001.101.003.151v-.007c-.001.041-.002.09-.002.139 0 .262.024.518.069.767l-.004-.026c.249 1.142.939 2.09 1.879 2.674l.018.01c.276.177.595.325.933.427l.027.007c.025-.018.139-.633.247-1.233l.218-1.213-.103-.08c-.27-.187-.487-.434-.635-.721l-.005-.011c-.099-.162-.157-.359-.157-.569 0-.052.004-.103.01-.153l-.001.006c-.006-.044-.009-.095-.009-.147 0-.2.051-.387.14-.551l-.003.006c.228-.47.651-.815 1.161-.931l.011-.002c.08-.008.151-.031.151-.052 0-.054.4-2.314.422-2.394-.015-.056-.07-.064-.249-.064z"/></svg>