<!--Generated by Fontisto--><svg viewBox="0 0 36 24" xmlns="http://www.w3.org/2000/svg"><path d="m33.6 24h-31.2c-1.325 0-2.4-1.075-2.4-2.4v-19.2c0-1.325 1.075-2.4 2.4-2.4h31.2c1.325 0 2.4 1.075 2.4 2.4v19.2c0 1.325-1.075 2.4-2.4 2.4zm-15.76-9.238-.359 2.25c.79.338 1.709.535 2.674.535.077 0 .153-.001.229-.004h-.011c.088.005.19.008.294.008 1.109 0 2.137-.348 2.981-.941l-.017.011c.766-.568 1.258-1.469 1.258-2.485 0-.005 0-.01 0-.015v.001c0-1.1-.736-2.014-2.187-2.72-.426-.208-.79-.426-1.132-.672l.023.016c-.198-.13-.33-.345-.343-.592v-.002c.016-.26.165-.482.379-.6l.004-.002c.282-.164.62-.261.982-.261.042 0 .084.001.126.004h-.006.08c.023 0 .05-.001.077-.001.644 0 1.255.139 1.806.388l-.028-.011.234.125.359-2.171c-.675-.267-1.458-.422-2.277-.422-.016 0-.033 0-.049 0h.003c-.064-.003-.139-.005-.214-.005-1.096 0-2.112.347-2.943.937l.016-.011c-.752.536-1.237 1.404-1.237 2.386v.005c-.01 1.058.752 1.972 2.266 2.72.4.175.745.389 1.054.646l-.007-.006c.175.148.288.365.297.608v.002.002c0 .319-.19.593-.464.716l-.005.002c-.3.158-.656.25-1.034.25-.015 0-.031 0-.046 0h.002c-.022 0-.049 0-.075 0-.857 0-1.669-.19-2.397-.53l.035.015-.343-.172zm10.125 1.141h3.315q.08.343.313 1.5h2.407l-2.094-10.031h-2c-.035-.003-.076-.005-.118-.005-.562 0-1.043.348-1.239.84l-.003.009-3.84 9.187h2.72l.546-1.499zm-13.074-8.531-1.626 10.031h2.594l1.625-10.031zm-9.969 2.047 2.11 7.968h2.734l4.075-10.015h-2.746l-2.534 6.844-.266-1.391-.904-4.609c-.091-.489-.514-.855-1.023-.855-.052 0-.104.004-.154.011l.006-.001h-4.187l-.031.203c3.224.819 5.342 2.586 6.296 5.25-.309-.792-.76-1.467-1.326-2.024l-.001-.001c-.567-.582-1.248-1.049-2.007-1.368l-.04-.015zm25.937 4.421h-2.16q.219-.578 1.032-2.8l.046-.141c.042-.104.094-.24.16-.406s.11-.302.14-.406l.188.859.593 2.89z"/></svg>