<!--Generated by Fontisto--><svg viewBox="0 0 20 24" xmlns="http://www.w3.org/2000/svg"><path d="m8.322 18.742q-.103-2.106-.042-4.211l.138-4.769c-.303-4.5-1.494-4.975-5.154-3.654l-.268.103c-1.767.689-2.995 2.377-2.995 4.353 0 .337.036.667.104.984l-.006-.031.426 2.044c.523 2.491 1.81 5.024 1.81 7.57.001 1.584 1.285 2.868 2.869 2.87h.365c1.587-.004 2.873-1.292 2.873-2.88 0-.047-.001-.094-.003-.141v.007zm-.674-3.509c-.041.167-.188.288-.365.289-.027 0-.055-.006-.09-.006-.106-.027-.194-.094-.247-.184l-.001-.002c-.027-.047-.043-.104-.043-.165 0-.037.006-.072.017-.105l-.001.002c.237-.544.375-1.178.375-1.844 0-.719-.161-1.401-.449-2.011l.012.029c-.529-.911-1.348-1.603-2.329-1.958l-.031-.01c-.007 0-.007.007-.014.007-1.016.469-1.805 1.284-2.229 2.291l-.011.029c-.149.456-.235.981-.235 1.526 0 .916.243 1.775.669 2.517l-.013-.025c.02.042.032.09.032.142 0 .045-.009.089-.026.128l.001-.002c-.042.098-.12.174-.217.213l-.003.001c-.038.013-.082.021-.127.021-.001 0-.002 0-.003 0h-.001c-.161 0-.297-.102-.348-.245l-.001-.003c-1.706-4.658 1.101-6.668 1.975-7.157-.02-.049-.033-.105-.034-.164v-.001c-.001-.01-.001-.021-.001-.033 0-.282.229-.51.51-.51s.51.229.51.51c0 .044-.005.086-.016.126l.001-.004c1.038.432 3.806 2.077 2.733 6.598z"/><path d="m9.906 14.999c-.039.176-.061.379-.061.586 0 1.426 1.041 2.61 2.405 2.831l.017.002.358.055c.133.022.287.034.443.034 1.43 0 2.615-1.045 2.835-2.412l.002-.016c.392-2.512 2.058-4.817 2.96-7.2l.736-1.954c.191-.49.302-1.058.302-1.651 0-1.719-.931-3.221-2.317-4.028l-.022-.012-.254-.145c-3.414-1.872-4.666-1.583-5.657 2.814l-.598 4.728c-.179 1.39-.406 2.78-.695 4.16zm5.395-11.669c0-.008-.001-.017-.001-.026 0-.044.005-.088.015-.129l-.001.004c.024-.263.243-.467.51-.467.283 0 .512.229.512.512 0 .063-.011.123-.032.178l.001-.004c-.015.061-.036.114-.064.163l.002-.003c.785.619 3.248 3.034.84 7.377-.063.115-.183.191-.321.191-.023 0-.045-.002-.067-.006h.002c-.047-.009-.088-.023-.127-.043l.003.001c-.093-.052-.161-.14-.185-.246v-.003c-.006-.024-.01-.051-.01-.08 0-.07.022-.136.059-.189l-.001.001c.684-.857 1.097-1.955 1.097-3.15 0-.268-.021-.53-.061-.787l.004.029c-.269-1.109-.935-2.03-1.835-2.626l-.016-.01c-.007 0-.007-.007-.014-.014-1.071.206-1.985.773-2.629 1.568l-.006.008c-.498.737-.796 1.645-.796 2.622 0 .408.052.804.149 1.182l-.007-.033c.003.016.004.035.004.053 0 .079-.028.152-.074.209v-.001c-.065.083-.163.138-.274.145h-.001-.09c-.17-.024-.3-.164-.31-.336v-.001c-.36-4.622 2.619-5.818 3.721-6.092z"/></svg>