<!--Generated by Fontisto--><svg viewBox="0 0 24 24" xmlns="http://www.w3.org/2000/svg"><path d="m10.085 22.788c-.001.001-.002.002-.003.003-.668.668-1.75.668-2.418 0-.001-.001-.002-.002-.004-.004l-6.459-6.459c-.66-.667-.658-1.743.006-2.407.002-.002.004-.004.006-.006l12.702-12.702c.002-.002.004-.004.006-.006.664-.664 1.74-.667 2.407-.007l6.459 6.459c.001.001.002.002.003.003.668.668.668 1.75 0 2.418-.001.001-.002.002-.004.004zm9.974-11.492.12.12c.099.099.261.099.36 0s.099-.261 0-.36l-.12-.12c-.099-.099-.261-.099-.36 0s-.099.261 0 .36zm-.84-.841.12.12c.099.099.261.099.36 0s.099-.261 0-.36l-.12-.12c-.099-.099-.261-.099-.36 0s-.099.261 0 .36zm.172-3.625 1.645 1.645c.099.099.261.099.36 0s.099-.261 0-.36l-1.645-1.645c-.099-.099-.261-.099-.36 0s-.099.261 0 .36zm-4.432-2.868 5.295 5.295c.099.099.261.099.36 0s.099-.261 0-.36l-5.295-5.295c-.099-.099-.261-.099-.36 0s-.099.261 0 .36zm-.792 9.245c.493.354 1.175.31 1.613-.127l.007-.007c.433-.443.478-1.122.136-1.614l-.005-.006.324-.324c.444-.444.444-1.164.001-1.609l-1.211-1.211c-.93-.925-2.432-.925-3.362 0l-6.675 6.675c-.096.101-.096.259 0 .359l3.338 3.338c.101.096.259.096.359 0l1.646-1.646c.493.355 1.176.311 1.614-.127l.006-.006c.433-.443.479-1.123.137-1.615l-.005-.006zm-3.554 4.85c.094-.094.094-.246 0-.34-.003-.003-.007-.007-.01-.01-.102-.097-.261-.096-.362.002l-2.053 1.957c-.099.099-.099.261 0 .36s.261.099.36 0zm2.629-3.014c.101.096.259.096.359 0l.961-.961c.099-.099.099-.261 0-.36s-.261-.099-.36 0l-.961.961c-.097.102-.096.263.003.363zm5.139-5.426.12.12c.099.099.261.099.36 0s.099-.261 0-.36l-.12-.12c-.099-.099-.261-.099-.36 0s-.099.261 0 .36zm-.841-.841.12.12c.099.099.261.099.36 0s.099-.261 0-.36l-.12-.12c-.099-.099-.261-.099-.36 0s-.099.261 0 .36zm-.84-.84.12.12c.099.099.261.099.36 0s.099-.261 0-.36l-.12-.12c-.099-.099-.261-.099-.36 0s-.099.261 0 .36zm-.84-.84.12.12c.099.099.261.099.36 0s.099-.261 0-.36l-.119-.119c-.099-.099-.261-.099-.36 0s-.099.261 0 .36zm1.08-2.641.468.468c.099.099.261.099.36 0s.099-.261 0-.36l-.468-.468c-.099-.099-.261-.099-.36 0s-.099.261 0 .36zm-12.173 12.774c.001.001.002.002.003.003.098.098.256.098.354 0 .001-.001.002-.002.003-.003l.42-.42c.099-.099.099-.261 0-.36s-.261-.099-.36 0l-.42.42c-.096.101-.096.26 0 .36zm10.253-10.974.12.12c.099.099.261.099.36 0s.099-.261 0-.36l-.12-.12c-.099-.099-.261-.099-.36 0s-.099.261 0 .36zm-11.358 10.469.003.003c.098.098.256.098.354 0 .001-.001.002-.002.003-.003l.721-.721c.099-.099.099-.261 0-.36s-.261-.099-.36 0l-.721.721c-.096.101-.096.26 0 .36zm12.078-13.47.469.469c.099.099.261.099.36 0s.099-.261 0-.36l-.469-.469c-.099-.099-.261-.099-.36 0s-.099.261 0 .36zm-1.561 2.161.12.12c.099.099.261.099.36 0s.099-.261 0-.36l-.12-.12c-.099-.099-.261-.099-.36 0s-.099.261 0 .36zm-.84-.84.12.12c.099.099.261.099.36 0s.099-.261 0-.36l-.121-.121c-.099-.099-.261-.099-.36 0s-.099.261 0 .36zm-.841-.84.12.12c.099.099.261.099.36 0s.099-.261 0-.36l-.121-.121c-.099-.099-.261-.099-.36 0s-.099.261 0 .36zm1.885 8.943-.048-.048c-.024-.024-.036-.06-.06-.084-.012-.012-.012-.036-.024-.048-.012-.036-.024-.048-.036-.085 0-.024-.012-.036-.012-.061-.016-.021-.024-.045-.025-.069-.009-.028-.013-.056-.012-.084 0-.024-.012-.036-.012-.06-.012-.031-.012-.065 0-.096v-.001c0-.024-.012-.036 0-.048.003-.031.011-.063.023-.094l.001-.002c.012-.012 0-.024.012-.036.012-.036.036-.06.048-.096 0-.024 0-.024.012-.036.025-.04.058-.082.096-.12s.08-.071.124-.099l-.004.003c.024 0 .024 0 .036-.012.036-.012.06-.036.096-.048.012-.012.024 0 .036-.012.032-.003.063-.011.094-.023l.002-.001h.048c.036.012.073 0 .096 0s.036.012.061.012c.028.009.056.013.084.012.024 0 .048.024.073.024s.036.012.061.012.048.024.084.036c.012.012.036.012.048.024.041.024.089.028.131.012h.001l.048.048c.264.302.252.758-.034 1.044s-.742.298-1.042.035l-.002-.002zm.24-.24c.147.144.382.144.529 0 .004-.003.008-.008.013-.012.139-.139.139-.365 0-.504-.005-.005-.009-.009-.014-.013l.001.001c-.146-.146-.382-.146-.528 0s-.146.382 0 .528zm-4.082 4.082-.048-.048c-.024-.024-.036-.06-.06-.084-.012-.012-.012-.036-.024-.048 0-.024-.024-.048-.036-.084 0-.024-.012-.036-.012-.061-.016-.022-.024-.047-.024-.072-.01-.028-.014-.057-.012-.085-.012-.012-.012-.036-.012-.06-.012-.036.001-.072 0-.096v-.048c.003-.031.011-.063.023-.094l.001-.002c.012-.012 0-.024.012-.036.012-.036.036-.06.048-.096 0-.024 0-.024.012-.036.025-.04.058-.082.096-.12s.08-.071.124-.099l-.004.003c.024 0 .024 0 .036-.012.036-.012.06-.036.096-.048.012-.012.024 0 .036-.012.031-.003.063-.011.094-.023l.002-.001h.144c.024 0 .036.012.06.012s.06.011.085.012.048.024.072.024.036.012.061.012.048.024.084.036c.012.012.036.012.048.024.041.024.089.028.131.012h.001l.048.048c.264.302.252.758-.034 1.044s-.742.298-1.042.035l-.002-.002zm.24-.24c.147.144.382.144.529 0 .002-.002.003-.003.005-.005.143-.143.143-.375 0-.517-.002-.002-.004-.004-.006-.006-.146-.146-.382-.146-.528 0s-.146.382 0 .528zm4.754-5.163c-.062-.038-.122-.065-.185-.085l.005.002c-.059-.033-.12-.052-.182-.06h.002c-.012-.012-.024 0-.036-.012-.06-.011-.108-.012-.168-.024h-.049c-.056-.012-.112-.012-.166 0h-.002c-.012-.012-.024 0-.048 0-.048.001-.095.008-.141.023l-.003.001c-.012.012-.024 0-.036.012-.048.024-.108.036-.157.06-.012.012-.036.012-.048.024-.048.024-.108.06-.157.084l-.024.024c-.051.036-.105.081-.156.132s-.096.105-.137.162l.005-.006-.026.026c-.024.048-.06.108-.084.157-.012.012-.012.036-.024.048-.029.053-.048.105-.06.159l.001-.003c-.012.012 0 .024-.012.036 0 .048-.024.096-.024.144.012.012 0 .024-.001.048v.168c-.012.012 0 .024.001.048.011.06.012.108.024.168.012.012 0 .024.012.036.008.054.023.11.046.164l.002.004c.016.06.044.121.082.177l.002.003-2.099 2.099c-.062-.038-.122-.066-.185-.086l.005.002c-.058-.025-.114-.04-.17-.048h.002c-.012-.012-.024 0-.036-.012-.059-.014-.114-.021-.169-.024h.001c-.012.012-.024 0-.049 0-.056-.006-.112-.006-.166 0h-.002c-.012-.012-.024 0-.048 0-.048.001-.095.008-.141.023l-.003.001c-.012.012-.024 0-.036.012-.048.024-.108.036-.157.06-.012.012-.036.012-.048.024-.048.024-.108.06-.157.084l-.025.025c-.051.036-.105.081-.156.132s-.096.105-.137.162l.005-.006-.022.022c-.024.048-.06.108-.084.157-.012.012-.012.036-.024.048-.029.053-.048.105-.06.159l.001-.003c-.012.012 0 .024-.012.036-.004.048-.023.096-.022.144.012.012 0 .024 0 .048v.168c-.012.012 0 .024.001.048.011.06.012.108.024.168.012.012 0 .024.012.036.013.053.033.112.056.171l.004.01c.016.06.043.121.081.177l.002.003-1.466 1.466-1.273-1.273 7.01-7.009 1.143-.446.48.48s.001.001.001.001c.245.245.245.642 0 .886 0 0-.001.001-.001.001zm-1.513-1.704c-.024 0-.024 0-.036.012l-1.213-1.213c.649-.212 1.378-.063 1.885.444 0 0 0 0 .001.001l.348.348zm-1.344 1.296-1.344-1.344.696-.696c.088-.084.179-.158.275-.223l-.011.008 1.32 1.32zm-5.811 5.811-1.344-1.344.721-.721 1.345 1.345zm3.505-3.53-1.344-1.344 1.933-1.933 1.345 1.345zm-2.439 2.44-1.344-1.344 2.077-2.077 1.345 1.345z"/></svg>