<!--Generated by Fontisto--><svg viewBox="0 0 26 24" xmlns="http://www.w3.org/2000/svg"><path d="m23.812.678c-.054-.034-.107-.06-.16-.087-.611-.325-1.335-.516-2.105-.516-.003 0-.005 0-.008 0-1.691.003-3.167.918-3.965 2.278l-.012.022c-.314.536-.523 1.17-.582 1.847l-.001.017h-9.6l-1.074-2.589c-.408-.977-1.356-1.65-2.461-1.65-.212 0-.417.025-.615.071l.018-.004-3.246.738.201.886 3.246-.738c.117-.028.252-.044.391-.044.73 0 1.357.445 1.623 1.079l.004.012.932 2.24h-6.096l10.193 10.193v7.463c-2.367.168-4 .952-4 1.925v.181h9.824v-.181c0-.972-1.636-1.76-4-1.925v-7.463l6.283-6.283c.197.167.417.322.649.458l.022.012c.653.38 1.437.605 2.273.605 2.527 0 4.575-2.048 4.575-4.575 0-1.69-.917-3.166-2.28-3.958l-.022-.012zm.999 3.507-2.494.007 1.241-2.16c.666.517 1.125 1.272 1.251 2.135zm-2.038-2.609-1.241 2.166-1.254-2.153c.374-.157.808-.248 1.264-.248.443 0 .866.086 1.253.243zm-4.111 1.429c.218-.379.496-.698.825-.955l.007-.005 1.254 2.153-2.488.007c.056-.449.198-.855.41-1.216l-.008.015zm-15.303 2.501h3.561l.49 1.187h-2.863zm14.894 1.188h-.813v.006h-9.053l-.49-1.187h11.534zm2.045 1.026 1.241-2.166 1.254 2.153c-.373.158-.807.25-1.262.25-.444 0-.868-.087-1.255-.246l.022.008zm4.111-1.422c-.218.379-.496.697-.824.955l-.007.005-1.254-2.153 2.488-.006c-.062.448-.204.852-.411 1.214l.009-.016z"/></svg>