<!--Generated by Fontisto--><svg viewBox="0 0 24 24" xmlns="http://www.w3.org/2000/svg"><path d="m13.983 11.186 1.482-2.65-2.63 1.482-.814-2.922-.814 2.922-2.651-1.482 1.461 2.65-2.922.814 2.922.814-1.482 2.651 2.65-1.482.814 2.922.814-2.922 2.65 1.482-1.482-2.63 2.922-.814zm-1.148.981c0 .021-.021.042-.021.062s-.021.062-.021.08c-.021.021-.021.042-.042.08-.021.021-.021.042-.042.062-.023.04-.049.074-.08.104l-.021.021c-.042.042-.08.062-.126.104-.021.021-.042.021-.062.042s-.049.035-.079.041h-.001c-.02.013-.044.021-.07.021-.004 0-.007 0-.011 0-.021 0-.062.021-.08.021-.042 0-.08.021-.126.021h-.08c-.006.001-.013.001-.021.001-.038 0-.074-.008-.106-.022l.002.001c-.021 0-.062-.021-.08-.021s-.062-.021-.08-.021c-.021-.021-.062-.021-.08-.042s-.042-.021-.062-.042c-.048-.029-.089-.064-.125-.104l-.021-.021c-.042-.042-.062-.08-.104-.126-.021-.021-.021-.042-.042-.062s-.021-.062-.042-.08c-.013-.02-.021-.044-.021-.07 0-.004 0-.007 0-.011 0-.021-.021-.042-.021-.062-.013-.05-.021-.108-.021-.167s.008-.117.022-.172l-.001.005c0-.021.021-.042.021-.062 0-.042.021-.062.042-.104 0-.021.021-.042.021-.062.021-.021.021-.062.042-.08.025-.022.046-.049.062-.078l.001-.002c.042-.042.062-.08.104-.104.021-.021.042-.042.062-.042.042-.021.062-.042.104-.062.021 0 .021-.021.042-.021.042-.021.08-.021.126-.042h.042c.05-.013.108-.021.167-.021s.117.008.172.022l-.005-.001c.021 0 .042.021.062.021.042 0 .062.021.104.042.021.021.042.021.08.042.021.021.042.021.062.042.09.063.167.139.228.227l.002.003c.021.021.021.042.042.062s.035.049.041.079v.001c.013.02.021.044.021.07v.011c0 .021.021.042.021.08.014.042.022.09.022.139 0 .01 0 .02-.001.029v-.001c.001.01.001.022.001.035 0 .048-.008.095-.024.138l.001-.003z"/><path d="m11.604 5.823c0-.313 0-.606-.021-.856.104.23.23.48.334.689l.418.751h.459v-1.962h-.418v.584c-.001.045-.002.097-.002.15 0 .234.016.465.047.69l-.003-.026c-.108-.27-.213-.489-.33-.702l.017.034-.418-.73h-.522v1.962h.418v-.584z"/><path d="m6.094 11.833c-.042.23-.08.459-.104.689-.021-.23-.062-.438-.104-.668l-.171-.834h-.48l-.16.814c-.042.25-.104.48-.126.689-.042-.209-.08-.459-.126-.689l-.149-.814h-.48l.459 1.962h.48l.188-.856c.041-.166.078-.372.102-.581l.002-.024c.021.23.062.418.08.606l.167.856h.48l.501-1.962h-.4z"/><path d="m19.054 12.146h.71v-.354h-.71v-.418h.751v-.355h-1.21v1.962h1.252v-.354h-.793z"/><path d="m12.166 18.511c-.25-.104-.376-.146-.376-.271 0-.104.08-.188.292-.188.151.006.294.035.428.083l-.01-.003.104-.354c-.148-.06-.319-.098-.498-.104h-.003c-.459 0-.751.25-.751.584 0 .292.209.459.542.584.23.08.334.146.334.271s-.104.209-.313.209c-.184-.004-.357-.05-.51-.128l.007.003-.08.376c.16.079.348.126.546.126h.014-.001c.542 0 .793-.271.793-.606.007-.268-.163-.456-.518-.582z"/><path d="m12 0c-6.627 0-12 5.373-12 12s5.373 12 12 12 12-5.373 12-12c-.009-6.624-5.376-11.991-11.999-12zm10.059 13.106c-.534 4.693-4.205 8.386-8.842 8.948l-.049.005-1.169-2.025-1.169 2.024c-4.67-.57-8.331-4.238-8.886-8.862l-.005-.048 1.962-1.148-1.962-1.127c.559-4.672 4.221-8.341 8.841-8.906l.049-.005 1.169 2.025 1.169-2.024c4.685.567 8.356 4.259 8.886 8.905l.004.047-1.899 1.106z"/></svg>