<!--Generated by Fontisto--><svg viewBox="0 0 10 24" xmlns="http://www.w3.org/2000/svg"><path d="m9.29 20.328c0-.11-.089-.177-.266-.177h-.154v.376h.11c.199 0 .31-.089.31-.199z"/><path d="m9.003 20.77h-.133v.442h.133c.155 0 .31-.066.31-.221.022-.155-.133-.222-.31-.222z"/><path d="m7.632 20.151c-.089 0-.133 0-.155.022v.442h.133c.177 0 .287-.089.287-.221 0-.178-.088-.244-.265-.244z"/><path d="m1.106 20.151c-.089 0-.133 0-.155.022v1.04h.133c.015.002.033.003.051.003.268 0 .486-.217.486-.486 0-.025-.002-.049-.005-.073v.003c.001-.014.002-.03.002-.046 0-.257-.208-.466-.466-.466-.016 0-.032.001-.047.002h.002z"/><path d="m5.467 16.612c-.509 0-.8.465-.8 1.084s.31 1.062.818 1.062.8-.465.8-1.084c-.026-.575-.314-1.062-.818-1.062z"/><path d="m5.154 0c-2.853 0-5.154 1.99-5.154 4.446v.022c0 .867.703 1.57 1.57 1.57s1.57-.703 1.57-1.57c0-.003 0-.007 0-.01 0-.308-.089-.595-.244-.837l.004.006c.416-.816 1.25-1.366 2.212-1.366 1.358 0 2.46 1.093 2.474 2.448v.001c-.008 1.27-.967 2.313-2.201 2.455l-.011.001c-.133.044-.929.133-1.15.177h-.022c-2.41.398-4.202 2.212-4.202 4.402v8.206c0 2.234 1.593 4.048 3.562 4.048h3.185c1.969 0 3.562-1.814 3.562-4.048v-15.506c0-2.456-2.301-4.446-5.154-4.446zm-4.556 10.927c.381-.058.82-.09 1.267-.09.061 0 .122.001.182.002h-.009c.073-.006.158-.01.244-.01.628 0 1.21.194 1.691.525l-.01-.007c.491.38.805.969.805 1.631 0 .049-.002.097-.005.145v-.006c.003.041.004.089.004.137 0 .698-.299 1.326-.777 1.763l-.002.002c-.53.38-1.191.608-1.905.608-.092 0-.184-.004-.275-.011l.012.001c-.553 0-.929-.044-1.194-.066v-4.623zm.682 7.411v.974h-.682v-3.231h.885l.686 1.172c.187.309.372.673.531 1.051l.021.057h.022c-.042-.389-.066-.84-.066-1.297 0-.011 0-.021 0-.032v.002-.929h.684v3.207h-.8l-.702-1.238c-.195-.315-.389-.686-.556-1.07l-.023-.058h-.019c.019.398.019.862.019 1.394zm.442 2.964c-.186.126-.416.201-.663.201-.024 0-.047-.001-.07-.002h.003c-.177 0-.31-.022-.42-.022v-1.57c.118-.015.255-.024.393-.024.033 0 .065 0 .098.001h-.005c.031-.004.066-.006.103-.006.211 0 .405.068.563.184l-.003-.002c.163.116.268.304.268.517 0 .021-.001.041-.003.061v-.003c.001.015.002.033.002.051 0 .241-.101.459-.264.612zm.863.176h-.35v-1.593h.354zm.708.023c-.002 0-.005 0-.007 0-.157 0-.307-.033-.442-.092l.007.003.066-.287c.117.056.255.088.4.089.177 0 .24-.066.24-.177 0-.089-.066-.155-.266-.221-.266-.089-.442-.24-.442-.465 0-.266.221-.486.598-.486h.015c.14 0 .273.033.391.091l-.005-.002-.086.286c-.098-.04-.212-.064-.331-.066h-.001c-.155 0-.24.066-.24.155 0 .11.089.155.287.221.287.11.42.24.42.465.042.266-.157.486-.599.486zm2.013-1.305h-.439v1.28h-.354v-1.28h-.421v-.31h1.217zm1.482.598c0 .486-.24.73-.663.73-.4 0-.64-.221-.64-.73v-.886h.355v.907c0 .266.11.42.287.42.199 0 .287-.133.287-.42v-.907h.354v.885zm-1.371-1.44c-.018.001-.039.001-.06.001-.837 0-1.515-.678-1.515-1.515 0-.043.002-.086.005-.128v.006c-.002-.028-.003-.061-.003-.094 0-.876.71-1.586 1.586-1.586h.032-.002c.022-.001.047-.002.072-.002.843 0 1.526.683 1.526 1.526 0 .032-.001.064-.003.096v-.004c.004.043.006.092.006.142 0 .863-.7 1.563-1.563 1.563-.028 0-.056-.001-.084-.002h.004zm2.521 2.123c-.044-.106-.082-.232-.108-.363l-.002-.013c-.044-.199-.11-.24-.266-.266h-.108v.619h-.354v-1.546c.114-.015.246-.024.38-.024.038 0 .075.001.112.002h-.005c.021-.002.045-.003.069-.003.164 0 .317.051.442.138l-.003-.002c.095.074.156.188.156.317v.016-.001c-.006.183-.122.337-.284.399l-.003.001c.111.059.192.161.22.284l.001.003c.043.178.088.326.142.47l-.009-.028h-.376zm1.593-.133c-.153.099-.339.158-.54.158-.028 0-.056-.001-.083-.003h.004c-.177 0-.31-.022-.4-.022v-1.569c.109-.016.234-.024.361-.024.036 0 .073.001.109.002h-.005c.023-.002.049-.003.076-.003.142 0 .275.034.393.094l-.005-.002c.113.061.191.175.199.309v.001c-.009.158-.117.289-.263.331l-.003.001c.178.037.31.193.31.379 0 .007 0 .014-.001.022v-.001c.004.018.006.038.006.059 0 .115-.062.216-.155.27l-.001.001zm.199-4.645h-.905v2.588h-.752v-2.586h-.885v-.621h2.544zm-2.298-1.061c-.007 0-.015 0-.024 0-1.213 0-2.197-.984-2.197-2.197 0-.068.003-.135.009-.201l-.001.009c-.005-.056-.008-.121-.008-.186 0-1.253 1.016-2.269 2.269-2.269h.018-.001.047c1.212 0 2.194.982 2.194 2.194 0 .061-.002.121-.007.181l.001-.008c.009.073.013.158.013.244 0 1.234-1 2.234-2.234 2.234-.028 0-.056-.001-.084-.002h.004z"/><path d="m7.476 11.635c-.708 0-1.128.686-1.128 1.593 0 .929.442 1.57 1.15 1.57s1.128-.686 1.128-1.593c-.022-.841-.42-1.57-1.15-1.57z"/><path d="m3.606 13.139c.005-.045.008-.097.008-.15 0-.741-.6-1.341-1.341-1.341-.053 0-.105.003-.156.009l.006-.001c-.017 0-.036-.001-.056-.001-.153 0-.301.016-.444.047l.014-.003v3.076c.09.015.195.024.301.024.026 0 .053-.001.079-.002h-.004c.039.004.084.006.13.006.815 0 1.475-.66 1.475-1.475 0-.067-.005-.133-.013-.198l.001.008z"/></svg>