<!--Generated by Fontisto--><svg viewBox="0 0 24 24" xmlns="http://www.w3.org/2000/svg"><path d="m23.278 7.834.022-.007-.253-.581c-.007-.007-.007-.022-.015-.03s-.015-.038-.022-.052l-.29-.64-.015.007c-1.247-2.409-3.219-4.296-5.623-5.405l-.074-.031.008-.022-.67-.261-.662-.253-.007.022c-1.099-.366-2.364-.578-3.679-.581h-.001c-.001 0-.002 0-.003 0-1.474 0-2.886.268-4.19.757l.082-.027-.008-.022-1.31.566.008.022c-2.42 1.239-4.318 3.209-5.435 5.615l-.031.073-.022-.007-.522 1.325.022.007c-.373 1.106-.589 2.38-.589 3.704 0 1.461.262 2.86.742 4.153l-.027-.083-.022.007.275.648.022.045c.007.007.007.022.015.03l.253.581.022-.007c1.222 2.407 3.165 4.3 5.542 5.428l.072.031-.007.022.655.261.662.268.007-.022c1.137.396 2.448.625 3.812.625 1.474 0 2.886-.267 4.19-.756l-.082.027.008.022 1.31-.566-.008-.022c2.399-1.229 4.285-3.174 5.409-5.55l.031-.072.022.007.522-1.325-.022-.007c.395-1.129.623-2.431.623-3.786 0-1.487-.275-2.909-.776-4.219l.027.081zm-15.816 6.18-.03-.059c-.25-.574-.395-1.243-.395-1.946 0-2.035 1.217-3.785 2.962-4.564l.032-.013c.579-.259 1.254-.41 1.965-.41h.017-.001c.64.001 1.252.121 1.814.34l-.034-.012c1.253.483 2.239 1.422 2.772 2.609l.013.031.03.059c.256.579.405 1.254.405 1.964 0 .669-.132 1.307-.373 1.889l.012-.033c-.755 1.851-2.541 3.132-4.626 3.132-2.028 0-3.774-1.212-4.551-2.952l-.013-.032zm10.671-3.946 3.835-1.668c.401 1.068.634 2.302.634 3.591 0 1.16-.188 2.276-.536 3.319l.021-.074-3.887-1.534c.15-.511.236-1.098.236-1.706 0-.689-.111-1.352-.316-1.973l.013.044zm-6.128-8.646h.006c1.125 0 2.209.176 3.226.501l-.075-.021-.804 2.04-.73 1.854c-.484-.13-1.04-.204-1.613-.204-.67 0-1.317.102-1.924.291l.046-.012-1.668-3.835c1.036-.389 2.234-.614 3.484-.614h.057-.003zm-10.075 7.41 3.894 1.531c-.136.49-.214 1.054-.214 1.635 0 .657.1 1.291.285 1.888l-.012-.045-3.84 1.668c-.385-1.046-.607-2.253-.607-3.512 0-1.131.179-2.219.511-3.239l-.021.074zm10.112 13.746c-1.173-.001-2.301-.192-3.355-.543l.075.022 1.534-3.887c.524.153 1.126.241 1.749.241.67 0 1.316-.102 1.923-.291l-.046.012 1.668 3.842c-1.052.382-2.265.602-3.531.602-.006 0-.013 0-.019 0h.001z"/></svg>