<!--Generated by Fontisto--><svg viewBox="0 0 36 24" xmlns="http://www.w3.org/2000/svg"><path d="m20.912 18.228h2.091v2.091h-2.091z"/><path d="m28.14 18.228h2.091v2.091h-2.091z"/><path d="m26.386 10.812v-2.09h-2.898v1.018l1.081 1.073z"/><path d="m33.552 22.112v-4.409h.665l.618-.611-7.322-7.322h-.909v1.269h-2.13l-1.269-1.269h-3.516l-7.314 7.314.618.618h.979v4.409h-1.911c-2.858-2.734-3.618-8.935-3.351-13.548l.047-.094h.023c1.25 0 2.358.606 3.048 1.54l.007.01c.52.703.833 1.588.833 2.545 0 .66-.148 1.285-.414 1.844l.011-.026c.583-.152 1.09-.42 1.518-.78l-.006.005c.898-.786 1.461-1.933 1.461-3.213 0-.955-.314-1.836-.844-2.546l.008.011c-.682-.942-1.777-1.547-3.015-1.547-.386 0-.757.059-1.107.168l.026-.007c.265-.165.57-.311.891-.422l.032-.01c.405-.153.874-.241 1.363-.241 1.083 0 2.064.433 2.781 1.134l-.001-.001c.039-.196.061-.422.061-.653 0-.359-.054-.706-.154-1.032l.007.025c-.521-1.505-1.926-2.566-3.579-2.566-.499 0-.975.097-1.412.273l.025-.009c-.266.093-.489.191-.702.303l.029-.014c-.075-.336-.174-.63-.301-.909l.012.029c-.88-1.973-2.898-2.905-4.511-2.09-.447.231-.815.555-1.09.95l-.006.01c1.189.119 2.199.792 2.779 1.753l.009.016c-.349-.177-.754-.323-1.179-.417l-.034-.006c-2.48-.533-4.84.814-5.263 3.015-.041.206-.064.444-.064.686 0 .392.061.771.173 1.126l-.007-.026c.84-.948 2.06-1.542 3.419-1.542.388 0 .764.048 1.124.14l-.032-.007c.409.086.771.21 1.11.373l-.029-.013c-.163-.023-.351-.036-.542-.036-1.531 0-2.866.836-3.575 2.076l-.011.02c-.404.674-.643 1.488-.643 2.357 0 1.568.777 2.954 1.968 3.794l.015.01c.491.332 1.077.562 1.709.648l.021.002c-.421-.692-.671-1.528-.671-2.423 0-.873.237-1.691.651-2.392l-.012.022c.623-1.073 1.682-1.836 2.927-2.048l.025-.004c-1.417 6.453-1.809 10.949-.64 13.736h-3.406v1.88h32.148v-1.88h-2.169zm-7.95-4.307h7.166v4.307h-7.166zm-10.861-.854 4.95-4.95 4.95 4.95v5.161h-5.435v-3.884h-2.749v3.884h-1.722v-5.161z"/></svg>