<!--Generated by Fontisto--><svg viewBox="0 0 19 24" xmlns="http://www.w3.org/2000/svg"><path d="m15.97 2.74c-1.694-1.695-4.035-2.743-6.62-2.743-5.169 0-9.36 4.191-9.36 9.36s4.191 9.36 9.36 9.36 9.36-4.191 9.36-9.36v-.001c0-.009 0-.019 0-.029 0-2.574-1.048-4.904-2.74-6.586zm-13.067 6.616c0-4.474 2.781-8.193 6.452-8.988 3.671.795 6.452 4.521 6.452 8.988s-2.781 8.193-6.452 8.988c-3.675-.796-6.452-4.515-6.452-8.989z"/><path d="m12.225 9.355c.001-.055.001-.12.001-.185 0-3.193-1.077-6.135-2.888-8.481l.024.032c-1.787 2.378-2.862 5.381-2.862 8.634s1.075 6.256 2.889 8.672l-.027-.037c1.787-2.313 2.864-5.252 2.864-8.444 0-.067 0-.134-.001-.201z"/><path d="m12.204 19.03h-.727c-.004 0-.008 0-.012 0-.209 0-.38.166-.388.373v.001 1.04h-3.44v-1.04c-.008-.208-.178-.374-.388-.374-.004 0-.009 0-.013 0h.001-.727c-.005 0-.011 0-.017 0-.25 0-.453.2-.459.449v.001l.326 4.072c.011.25.216.449.468.449h.009 5.044.021c.25 0 .454-.2.459-.449v-.001l.326-4.072c-.005-.249-.209-.449-.459-.449-.008 0-.017 0-.025.001h.001z"/></svg>