<!--Generated by Fontisto--><svg viewBox="0 0 28 24" xmlns="http://www.w3.org/2000/svg"><path d="m5.638 22.405v.001c0 .881-.714 1.595-1.595 1.595-.002 0-.003 0-.005 0h-.001c-.881 0-1.594-.714-1.594-1.594 0-.001 0-.001 0-.002v-20.809-.001c0-.881.714-1.594 1.594-1.594h.001.005c.881 0 1.595.714 1.595 1.595z"/><path d="m2.014 2.686h-1.115c-.487.015-.876.413-.876.902s.389.887.874.902h.001 1.115z"/><path d="m25.604 5.95h-16c-1.465.002-2.652 1.189-2.654 2.654v9.246.002c0 1.465 1.187 2.652 2.652 2.652h.002 16c1.465-.002 2.652-1.189 2.654-2.654v-9.246c0-.001 0-.002 0-.002 0-1.465-1.187-2.652-2.652-2.652-.001 0-.001 0-.002 0zm1.28 11.9c-.003.703-.572 1.272-1.275 1.275h-16s-.001 0-.002 0c-.703 0-1.273-.57-1.273-1.273 0-.001 0-.002 0-.003v-9.246c.003-.703.572-1.272 1.274-1.275h16c.703.003 1.272.572 1.275 1.275z"/><path d="m12.101 5.437c.514 0 .93-.417.93-.93v-1.86c0-.008 0-.018 0-.027 0-.514-.417-.93-.93-.93s-.93.417-.93.93v.029-.001 1.86c0 .513.416.929.93.93z"/><path d="m23.11 5.437c.514 0 .93-.417.93-.93v-1.86c0-.514-.417-.93-.93-.93s-.93.417-.93.93v1.86c0 .514.417.93.93.93z"/><path d="m13.487 2.686h8.235v1.804h-8.235z"/><path d="m27.577 3.577c-.001-.491-.399-.889-.89-.89h-2.061v1.804h2.06c.491-.002.889-.399.89-.89z"/><path d="m12.236 15.011h-.97v-.898h-.89v2.574h.89v-1.04h.97v1.04h.89v-2.574h-.89z"/><path d="m16.198 14.41c-.304-.216-.684-.345-1.093-.345-.414 0-.797.132-1.11.357l.006-.004c-.243.226-.395.548-.395.905 0 .026.001.051.002.077v-.003c-.001.017-.001.037-.001.057 0 .258.075.499.205.702l-.003-.005c.125.193.299.344.505.438l.007.003c.213.087.461.138.72.138.028 0 .056-.001.084-.002h-.004c.015 0 .033.001.051.001.271 0 .529-.059.761-.165l-.011.005c.207-.099.375-.253.487-.444l.003-.005c.106-.198.169-.433.169-.682 0-.019 0-.039-.001-.058v.003c.001-.022.002-.048.002-.074 0-.352-.147-.67-.383-.895zm-.657 1.556c-.103.104-.247.169-.405.169-.013 0-.026 0-.038-.001h.002c-.008 0-.018.001-.027.001-.161 0-.307-.064-.414-.169-.1-.159-.16-.353-.16-.56s.059-.401.162-.564l-.003.004c.115-.105.268-.168.437-.168s.322.064.437.169h-.001c.102.123.164.283.164.457 0 .026-.001.051-.004.076v-.003c.003.028.005.061.005.094 0 .186-.059.358-.158.5l.002-.003z"/><path d="m16.751 14.746h.906v1.941h.89v-1.941h.906v-.634h-2.702z"/><path d="m20.745 15.597h1.38v-.53h-1.38v-.409h1.484v-.546h-2.374v2.574h2.422v-.586h-1.532z"/><path d="m23.639 14.113h-.89v2.574h2.278v-.634h-1.387z"/><path d="m10.609 12.028.834-.442.842.442-.16-.93.674-.658-.93-.136-.425-.85-.417.85-.93.136.674.658z"/><path d="m13.696 12.028.834-.442.834.442-.16-.93.673-.658-.93-.136-.417-.85-.417.85-.938.136.674.658z"/><path d="m16.775 12.028.834-.442.834.442-.16-.93.674-.658-.93-.136-.417-.85-.417.85-.938.136.682.658z"/><path d="m19.854 12.028.834-.442.834.442-.16-.93.674-.658-.93-.136-.417-.85-.417.85-.938.136.682.658z"/><path d="m23.766 9.454-.417.85-.93.136.673.658-.16.93.834-.442.834.442-.16-.93.682-.658-.938-.136z"/><path d="m6.142 2.686h4.45v1.804h-4.45z"/></svg>