<!--Generated by Fontisto--><svg viewBox="0 0 24 24" xmlns="http://www.w3.org/2000/svg"><path d="m11.959 18.414c-.216 3.13-2.808 5.586-5.973 5.586-3.306 0-5.986-2.68-5.986-5.986s2.68-5.986 5.986-5.986c3.165 0 5.757 2.457 5.972 5.568l.001.019c.216-3.13 2.808-5.586 5.973-5.586 3.306 0 5.986 2.68 5.986 5.986s-2.68 5.986-5.986 5.986c-3.165 0-5.757-2.457-5.972-5.568zm.793-.374c0 2.861 2.32 5.181 5.181 5.181s5.181-2.32 5.181-5.181-2.32-5.181-5.181-5.181c-2.861.002-5.179 2.32-5.181 5.181zm-11.946-.026v.026c0 2.861 2.32 5.181 5.181 5.181s5.181-2.32 5.181-5.181-2.319-5.181-5.181-5.181c-2.848.011-5.155 2.309-5.181 5.152v.002zm3.381 1.986c-.249-.321-.421-.714-.479-1.143l-.001-.012h-.56v-.617h.48v-.43h-.48v-.617h.59c.101-.47.318-.879.619-1.21l-.002.002c.497-.561 1.219-.913 2.023-.913h.019-.001c.485.003.946.101 1.366.278l-.024-.009-.24 1.02c-.287-.151-.628-.24-.99-.24-.001 0-.002 0-.003 0-.007 0-.016 0-.024 0-.427 0-.81.185-1.075.479l-.001.001c-.129.158-.23.345-.292.549l-.003.011h2.192v.618h-2.336v.4h2.363v.618h-2.228c.039.24.145.45.296.618l-.001-.001c.273.283.655.459 1.078.459.027 0 .054-.001.08-.002h-.004c.372-.003.722-.091 1.034-.246l-.014.006.19 1.053c-.405.217-.885.346-1.395.349h-.001c-.021.001-.045.001-.069.001-.852 0-1.611-.397-2.104-1.015l-.004-.005zm11.786.886v-.698c.531-.214.91-.701.966-1.283v-.006c.001-.02.002-.044.002-.067 0-.1-.01-.197-.03-.291l.002.009h-.859v-.912h.698c-.051-.205-.08-.441-.08-.683 0-.006 0-.011 0-.017v.001c0-.008 0-.018 0-.028 0-.983.797-1.78 1.78-1.78.063 0 .126.003.188.01l-.008-.001c.019-.001.042-.001.065-.001.347 0 .675.079.968.221l-.013-.006-.211.993c-.192-.103-.42-.163-.661-.163-.032 0-.064.001-.095.003h.004c-.024-.003-.051-.004-.079-.004-.404 0-.731.327-.731.731 0 .028.002.055.005.082v-.003c0 .229.03.451.084.663l-.004-.019h1.208v.912h-1.076v.016c0 .214-.029.421-.084.618l.004-.016c-.094.246-.241.453-.428.615l-.002.002v.027h2.309v1.074zm-4.014-14.498c-.211 3.131-2.803 5.592-5.969 5.592-3.304 0-5.982-2.678-5.982-5.982s2.678-5.982 5.982-5.982c3.166 0 5.758 2.46 5.968 5.573l.001.018c.211-3.119 2.792-5.568 5.946-5.568 3.291 0 5.958 2.668 5.958 5.958s-2.668 5.958-5.958 5.958c-3.154 0-5.735-2.45-5.945-5.55l-.001-.018zm.793-.4c0 2.861 2.32 5.181 5.181 5.181s5.181-2.32 5.181-5.181-2.32-5.181-5.181-5.181c-2.86.002-5.179 2.32-5.181 5.18zm-11.946 0c.001 2.861 2.32 5.179 5.181 5.179s5.181-2.32 5.181-5.181-2.319-5.18-5.18-5.181c-2.858.01-5.171 2.324-5.182 5.181v.001zm4.832 3.52v-1.132c-.375-.023-.716-.15-.999-.353l.006.004c-.362-.288-.592-.728-.592-1.222 0-.023.001-.046.002-.069v.003h.886c-.002.021-.003.046-.003.072 0 .417.299.765.695.84l.005.001v-1.396c-.107-.027-.214-.054-.35-.08-.594-.078-1.048-.581-1.048-1.19 0-.006 0-.013 0-.019v.001c0-.002 0-.004 0-.007 0-.428.211-.806.535-1.037l.004-.003c.242-.17.534-.284.851-.319l.008-.001v-1.13h.698v1.155c.347.027.661.154.917.352l-.004-.003c.328.249.538.64.538 1.079 0 .017 0 .034-.001.051v-.002h-.886c0-.006 0-.013 0-.021 0-.348-.235-.642-.555-.73l-.005-.001v1.235c.215.054.4.108.644.16.291.072.534.244.696.476l.003.004c.148.191.238.434.24.698.001.016.001.035.001.054 0 .45-.234.845-.586 1.07l-.005.003c-.281.186-.622.303-.989.32h-.004v1.127zm.697-1.828c.457-.054.672-.269.672-.645.001-.011.001-.025.001-.038 0-.222-.146-.409-.348-.472l-.003-.001c-.092-.045-.199-.082-.311-.106l-.009-.002zm-1.207-2.848c0 .269.16.457.51.537v-1.074c-.349.081-.51.242-.51.537zm12.115 4.368v-3.302c-.417.147-.828.299-1.243.449v-.532c.416-.152.833-.302 1.243-.459v-.282c-.414.141-.829.299-1.243.447v-.53c.414-.155.834-.303 1.243-.462v-1.962h.668v1.718c.674-.244 1.354-.501 2.034-.746v.551c-.68.244-1.354.492-2.034.736v.284c.679-.246 1.36-.502 2.034-.746v.548c-.674.25-1.356.493-2.034.739v2.847c1.303-.172 2.299-1.276 2.299-2.613h.694v.105c-.016.505-.141.978-.353 1.399l.009-.019c-.195.382-.444.707-.742.98l-.003.002c-.584.536-1.365.864-2.224.864-.123 0-.244-.007-.363-.02l.015.001z"/></svg>