<!--Generated by Fontisto--><svg viewBox="0 0 24 24" xmlns="http://www.w3.org/2000/svg"><path d="m9.397 13.829-9.397 9.397.775.775 9.373-9.373c-.072-.064-.136-.128-.2-.192-.191-.189-.371-.387-.54-.594l-.011-.014z"/><path d="m4.426 5.262c-.197.081-.334.271-.334.494 0 .055.008.108.024.157l-.001-.004c.54 1.7 1.726 3.06 3.263 3.819l.037.017c.069.04.153.064.242.064h.014-.001.001c.116 0 .224-.036.313-.097l-.002.001c3.064-2.237 6.591-4.108 10.372-5.441l.287-.088c.038-.013.064-.049.064-.09 0-.047-.034-.086-.08-.094h-.001c-1.493-.345-3.207-.543-4.968-.543-.017 0-.035 0-.052 0h.003c-.002 0-.004 0-.006 0-3.309 0-6.463.664-9.336 1.865l.16-.059zm3.236 3.884c-.657-.356-1.22-.784-1.709-1.285l-.001-.001c-.532-.558-.941-1.238-1.18-1.993l-.01-.036c2.619-1.09 5.662-1.723 8.852-1.726h.001c1.018.001 2.019.068 3.001.196l-.117-.012c-3.375 1.369-6.285 3-8.955 4.941l.12-.083z"/><path d="m3.938 4.832c2.847-1.242 6.165-1.965 9.652-1.965 1.514 0 2.996.136 4.434.397l-.151-.023c.006.001.012.002.019.002.038 0 .071-.024.085-.057v-.001c.005-.012.008-.025.008-.039 0-.033-.016-.062-.04-.081-2.512-1.914-5.695-3.066-9.146-3.066-2.253 0-4.391.491-6.313 1.371l.095-.039c-.543.312-.144 2.389.75 3.372.099.105.24.171.395.171.077 0 .149-.016.215-.044l-.004.001z"/><path d="m19.991 5.351c-.012-.041-.045-.072-.086-.08h-.001-.008c-.043 0-.08.026-.096.063v.001c-1.426 4.099-3.317 7.653-5.664 10.852l.08-.114c-.062.087-.1.196-.1.313 0 .113.034.217.093.304l-.001-.002c.908 1.444 2.186 2.58 3.702 3.293l.053.023c.054.02.117.032.183.032h.01c.22-.003.409-.135.494-.325l.001-.003c1.192-2.743 1.885-5.938 1.885-9.295 0-1.794-.198-3.541-.573-5.222l.03.159zm-.199 7.151c-.243 2.53-.843 4.856-1.753 7.02l.059-.157c-1.374-.684-2.495-1.697-3.288-2.939l-.02-.033c1.875-2.572 3.524-5.506 4.811-8.627l.103-.282c.118.874.186 1.885.186 2.911 0 .742-.035 1.475-.104 2.198l.007-.092z"/><path d="m20.914 6.038c-.018-.025-.047-.041-.08-.041-.054 0-.098.044-.098.098 0 .006 0 .011.001.016v-.001c.239 1.289.375 2.773.375 4.288 0 3.53-.741 6.887-2.075 9.925l.062-.159c-.027.062-.043.134-.043.21 0 .18.089.339.224.436l.002.001c1.062.727 3.2 1.11 3.356.607.008-.016.016-.04.024-.056.832-1.818 1.318-3.943 1.318-6.182 0-3.451-1.153-6.632-3.094-9.18l.027.037z"/><path d="m19.354 4.635c-.019-.017-.043-.027-.071-.027-.009 0-.018.001-.026.003h.001c-4.121 1.387-7.698 3.251-10.918 5.578l.118-.081c-.136.098-.224.257-.224.436 0 .074.015.144.042.208l-.001-.004c.502 1.272 1.209 2.362 2.089 3.284l-.004-.004c.781.775 1.72 1.391 2.765 1.795l.055.019c.056.022.121.035.189.035.179 0 .337-.089.433-.225l.001-.002c2.282-3.134 4.174-6.749 5.493-10.629l.084-.285c.004-.01.007-.021.007-.033 0-.027-.013-.051-.033-.067z"/></svg>