<!--Generated by Fontisto--><svg viewBox="0 0 20 24" xmlns="http://www.w3.org/2000/svg"><path d="m5.496 17.652c-.125-.017-.268-.026-.415-.026-.032 0-.064 0-.097.001h.005-.346v.989h.386c.034.002.073.004.113.004.157 0 .309-.022.453-.064l-.012.003c.089-.035.163-.093.216-.167l.001-.001c.05-.077.08-.17.08-.271 0-.12-.042-.23-.113-.316l.001.001c-.067-.081-.162-.137-.271-.152h-.002z"/><path d="m7.738 19.147h.948l-.474-1.294z"/><path d="m18.327 0h-16.551c-.981 0-1.776.795-1.776 1.776v20.449c0 .981.795 1.776 1.776 1.776h16.552c.981 0 1.776-.795 1.776-1.776v-20.449c0-.981-.795-1.776-1.776-1.776h-.001zm-7.92 2.72c.072.008.153.008.225.016.242.024.457.12.628.267l-.002-.001c.373.329.682.72.913 1.159l.011.022c.119.212.238.466.339.729l.014.042c-.621.084-1.358.142-2.104.16h-.024zm2.419 8.405c-.713-.107-1.549-.176-2.399-.192h-.02v-1.936h2.72c-.031.772-.14 1.503-.32 2.205l.016-.073zm-2.419.666c.773.013 1.519.071 2.251.171l-.098-.011c-.124.335-.251.613-.396.88l.018-.036c-.24.462-.549.853-.919 1.177l-.005.004c-.169.145-.385.242-.622.264h-.005c-.066.009-.144.015-.223.016h-.002zm2.387 1.334c.167-.299.327-.652.459-1.018l.016-.051c.37.064.747.145 1.12.24h.008c-.08.097-.169.185-.249.266-.493.496-1.077.902-1.724 1.191l-.036.015c.144-.186.278-.395.393-.615l.011-.023zm3.02-4.13c-.087.962-.396 1.838-.874 2.595l.014-.024-.097-.024c-.426-.112-.876-.217-1.334-.306.172-.661.286-1.429.319-2.218l.001-.022zm-5.407-3.029c.863-.018 1.692-.085 2.506-.197l-.111.013c.179.651.298 1.405.329 2.182l.001.02h-2.72zm3.094-.297c.45-.08.88-.177 1.31-.298l.096-.024c.492.748.816 1.646.899 2.614l.001.021h-1.977c-.029-.833-.148-1.625-.348-2.384l.017.075zm.835-1.061c-.362.089-.731.169-1.093.233-.142-.393-.291-.721-.461-1.036l.02.04c-.14-.253-.275-.466-.422-.669l.013.019c.682.306 1.265.711 1.76 1.205.056.072.121.137.185.209zm-5.48-1.607c.169-.146.385-.242.622-.265h.005c.066-.009.144-.015.223-.016h.002v2.386c-.765-.013-1.502-.071-2.226-.171l.096.011c.119-.308.238-.562.371-.807l-.018.036c.239-.457.542-.845.904-1.169l.004-.003zm-2.258 8.236c-.458.088-.908.185-1.334.306l-.097.024c-.471-.731-.781-1.608-.859-2.551l-.001-.02h1.977c.022.807.134 1.578.328 2.316l-.016-.071zm-.876 1.068c.37-.096.747-.177 1.12-.24.15.419.31.771.494 1.109l-.02-.04c.14.253.275.466.422.669l-.013-.019c-.682-.306-1.265-.711-1.76-1.205-.08-.089-.16-.177-.24-.274zm1.832-.354c.64-.093 1.386-.151 2.143-.16h.01v2.466c-.185-.008-.362-.032-.538-.056-.119-.073-.221-.147-.317-.228l.004.003c-.372-.329-.682-.72-.913-1.159l-.011-.022c-.127-.23-.254-.507-.363-.793l-.016-.047zm2.154-1.021c-.869.017-1.706.086-2.526.206l.108-.013c-.171-.63-.283-1.359-.313-2.11l-.001-.019h2.732zm-2.394-5.15c.713.109 1.541.176 2.384.185h.01v2.017h-2.732c.037-.797.157-1.549.352-2.27l-.017.074zm.409-2.587c-.134.185-.27.397-.393.618l-.017.033c-.156.279-.305.608-.427.949l-.014.047c-.362-.064-.731-.145-1.093-.233h-.008c.064-.072.129-.144.193-.209.495-.489 1.077-.892 1.72-1.183l.037-.015zm-2.418 2.177c.426.113.86.209 1.31.298-.185.685-.306 1.478-.337 2.294l-.001.02h-1.977c.087-.989.414-1.888.921-2.657l-.013.021zm.9 13.62c-.106.074-.229.132-.361.167l-.008.002c-.191.031-.412.049-.636.049-.033 0-.067 0-.1-.001h.005-.458v1.318h-.707v-3.495h1.133c.053-.003.114-.004.176-.004.233 0 .461.022.682.064l-.023-.004c.208.059.382.181.505.343l.002.002c.126.193.201.429.201.683 0 .196-.044.381-.124.546l.003-.008c-.066.141-.165.257-.288.341l-.003.002zm3.021 1.534-.306-.795h-1.4l-.29.795h-.747l1.36-3.495h.747l1.398 3.495zm3.64-.458c-.113.177-.276.313-.468.391l-.007.002c-.206.082-.444.13-.694.13-.024 0-.049 0-.073-.001h.003c-.028.002-.061.003-.094.003-.349 0-.672-.116-.931-.311l.004.003c-.242-.226-.401-.538-.425-.888v-.004l.683-.064c.024.2.114.375.249.505.148.101.33.161.527.161.186 0 .36-.054.506-.147l-.004.002c.104-.078.172-.2.177-.337v-.001c0-.003 0-.005 0-.008 0-.076-.027-.146-.073-.201v.001c-.071-.068-.157-.12-.252-.151l-.005-.001c-.08-.032-.273-.08-.56-.153-.303-.058-.571-.179-.8-.349l.005.004c-.196-.167-.32-.414-.32-.689 0-.006 0-.012 0-.019v.001c0-.002 0-.004 0-.007 0-.184.057-.354.155-.494l-.002.003c.108-.155.255-.277.427-.351l.006-.002c.191-.077.412-.121.644-.121.016 0 .033 0 .049.001h-.002c.034-.003.073-.004.112-.004.331 0 .635.11.879.297l-.004-.003c.212.184.346.454.346.755v.017-.001l-.707.032c-.018-.153-.088-.287-.193-.385-.111-.077-.248-.123-.397-.123-.019 0-.037.001-.055.002h.002c-.016-.001-.034-.002-.052-.002-.16 0-.308.049-.431.132l.003-.002c-.068.049-.112.128-.113.217v.003c0 .084.041.159.104.206h.001c.188.111.407.193.64.231l.011.001c.291.063.546.149.787.259l-.024-.01c.159.085.289.205.383.35l.002.004c.087.146.138.322.138.51 0 .015 0 .031-.001.046v-.002.027c0 .202-.06.39-.164.546l.002-.004zm3.254 0c-.113.177-.276.313-.468.391l-.007.002c-.206.082-.444.13-.694.13-.024 0-.049 0-.073-.001h.003c-.028.002-.061.003-.094.003-.349 0-.672-.116-.931-.311l.004.003c-.242-.226-.401-.538-.425-.888v-.004l.683-.064c.024.2.114.375.249.505.148.101.33.161.527.161.186 0 .36-.054.506-.147l-.004.002c.104-.078.172-.2.177-.337v-.001c0-.003 0-.005 0-.008 0-.076-.027-.146-.073-.201v.001c-.071-.068-.157-.12-.252-.151l-.005-.001c-.08-.032-.273-.08-.56-.153-.303-.058-.571-.179-.8-.349l.005.004c-.196-.167-.32-.414-.32-.689 0-.006 0-.012 0-.019v.001c0-.002 0-.004 0-.007 0-.184.057-.354.155-.494l-.002.003c.108-.156.255-.277.427-.351l.006-.002c.191-.077.413-.121.644-.121.016 0 .033 0 .049.001h-.002c.034-.003.073-.004.112-.004.331 0 .635.11.879.297l-.004-.003c.212.184.346.454.346.755v.017-.001l-.707.032c-.018-.153-.088-.287-.193-.385-.111-.077-.248-.123-.397-.123-.019 0-.037.001-.055.002h.002c-.016-.001-.034-.002-.052-.002-.16 0-.308.049-.431.132l.003-.002c-.068.049-.112.128-.113.217v.003c0 .084.041.159.104.206h.001c.187.111.406.192.639.231l.011.002c.291.063.546.149.787.259l-.024-.01c.159.085.289.205.383.35l.002.004c.087.146.138.322.138.51 0 .015 0 .031-.001.046v-.002c.001.018.002.038.002.059 0 .192-.061.369-.165.514l.002-.003z"/></svg>