<!--Generated by Fontisto--><svg viewBox="0 0 27 24" xmlns="http://www.w3.org/2000/svg"><path d="m12.586 0-1.604 3.906h-10.982v19.342h16.103v-.899l4.03 1.65 7.346-17.894zm-10.998 18.467v-12.926h12.926v12.926zm11.114-14.56.736-1.79 11.958 4.906-4.906 11.958-4.379-1.798v-13.275z"/><path d="m9.858 7.85c-.543.189-.925.697-.925 1.294 0 .755.612 1.367 1.367 1.367s1.367-.612 1.367-1.367c0-.158-.027-.31-.076-.451l.003.01c-.188-.544-.696-.927-1.293-.927-.159 0-.311.027-.453.077z"/><path d="m12.632 9.601-.589-.574.503-.651-.8-.202.116-.814-.79.225-.31-.767-.574.589-.65-.503-.202.8-.814-.116.225.79-.767.31.589.574-.504.65.8.202-.116.814.79-.225.31.767.573-.589.651.504.202-.8.814.116-.225-.79zm-1.883.837c-.132.046-.284.073-.442.073-.755 0-1.367-.612-1.367-1.367s.612-1.367 1.367-1.367c.597 0 1.104.382 1.291.915l.003.01c.046.131.072.283.072.44 0 .597-.382 1.105-.914 1.294l-.01.003z"/><path d="m5.944 9.741-3.882 5.13v2.712h9.826z"/><path d="m14.105 13.089-1-1.326-2.4 3.178 1.704 2.247.295.395h1.402z"/><path d="m20.752 8.261c-.16-.04-.343-.063-.532-.063-.026 0-.051 0-.077.001h.004c.267-.176.594-.281.946-.281.211 0 .413.038.6.107l-.012-.004c-.05-.234-.153-.438-.296-.607l.002.002c-.302-.307-.722-.497-1.186-.497-.449 0-.856.178-1.155.466-.106.091-.2.19-.284.298l-.003.005c-.073-.092-.152-.173-.238-.246l-.002-.002c-.354-.333-.832-.538-1.358-.538-.201 0-.394.03-.577.085l.014-.004v1.03c.373.087.697.26.962.498l-.002-.002c.12.105.226.222.316.351l.004.006c-.32-.271-.738-.436-1.194-.436-.032 0-.065.001-.096.002h.004v1.573c.236-.12.515-.191.81-.191.283 0 .551.065.79.18l-.011-.005v.046c-.428 1.127-.963 2.102-1.613 2.988l.024-.035v2.774c.938-.954 1.558-2.821 2.1-5.587.559.359.925.978.925 1.682 0 .698-.359 1.312-.902 1.668l-.008.005c.184.061.396.096.616.096.089 0 .176-.006.262-.017l-.01.001c.982-.138 1.729-.973 1.729-1.982 0-.9-.595-1.661-1.412-1.912l-.014-.004c.19.002.374.024.551.066l-.017-.003c.793.154 1.428.709 1.692 1.441l.005.016c.176-.195.306-.436.37-.702l.002-.011c.01-.076.016-.163.016-.252 0-1.02-.754-1.864-1.735-2.006l-.011-.001z"/></svg>