<!--Generated by Fontisto--><svg viewBox="0 0 24 24" xmlns="http://www.w3.org/2000/svg"><path d="m13.74 9.901-1.188 1.188c-.067.061-.155.085-.239.072h-.001l-2.688-.624-.084.084 1.968 1.032c.021.011.043.026.062.045.096.096.096.251 0 .347-.002.002-.004.003-.005.005l-1.197 1.197c-.002.002-.003.003-.005.005-.057.057-.135.079-.208.067h-.001l-.612-.084.672.384c.02.008.04.022.057.039s.03.037.039.058l-.001-.001.373.661-.086-.614c-.013-.075.01-.154.067-.211.002-.002.004-.003.005-.005l1.187-1.187c.001-.002.003-.003.005-.005.057-.057.136-.08.21-.067h.001c.048.004.096.025.133.062.021.021.037.046.047.072l-.001-.001 1.034 1.97.084-.084-.626-2.69c-.013-.085.011-.173.072-.239l1.188-1.188c.072-.082.072-.204.002-.286v-.001c-.044-.07-.192-.071-.264.001z"/><path d="m13.908 1.213-1.392 1.392c.418.418.418 1.096 0 1.514s-1.096.418-1.514 0l-9.79 9.79c-.001.001-.002.002-.003.003-.667.667-.667 1.75 0 2.417l.004.004 6.456 6.456.003.003c.667.667 1.75.667 2.417 0 .001-.001.002-.002.004-.004l9.79-9.79c-.352-.427-.331-1.052.06-1.451.397-.397 1.027-.418 1.448-.062l.003.003 1.392-1.392c.001-.001.002-.002.003-.003.667-.667.667-1.75 0-2.417-.001-.001-.002-.002-.004-.004l-6.456-6.456c-.001-.001-.002-.002-.003-.003-.667-.667-1.75-.667-2.417 0-.001.001-.001.001-.002.002zm-7.164 11.771 1.92-1.92c.002-.003.005-.006.008-.009.066-.066.174-.066.24 0s.066.174 0 .24c-.003.003-.006.006-.009.008l-1.92 1.92c-.002.002-.004.005-.007.007-.063.063-.164.063-.227 0-.002-.002-.005-.005-.007-.008-.066-.066-.066-.174.001-.24zm2.7-1.452c.002-.003.005-.006.008-.009.066-.066.174-.066.24 0s.066.174 0 .24c-.003.003-.006.006-.009.008l-1.021 1.021c-.002.003-.005.006-.008.009-.066.066-.174.066-.24 0s-.066-.174 0-.24c.003-.003.006-.006.009-.008zm-1.719 7.911c.099.099.099.261 0 .36s-.261.099-.36 0l-3.168-3.168c-.099-.099-.099-.261 0-.36s.261-.099.36 0zm.06-1.308c.099.099.099.261 0 .36s-.261.099-.36 0l-1.92-1.92c-.099-.099-.099-.261 0-.36s.261-.099.36 0zm5.062-2.878-1.915 1.915c-.002.003-.005.006-.008.009-.066.066-.174.066-.24 0s-.066-.174 0-.24c.003-.003.006-.006.009-.008l1.92-1.92c.002-.002.004-.005.007-.007.063-.063.164-.063.227 0 .002.002.005.005.007.008.059.069.059.171 0 .239zm-1.531.211c-.067.058-.168.056-.232-.008s-.066-.165-.008-.232l1.021-1.021c.067-.058.168-.056.232.008s.066.165.008.232zm3.084-4.907-1.092 1.092.624 2.688c.013.085-.011.173-.072.239l-.432.432c-.001.002-.003.003-.005.005-.057.057-.136.08-.21.067h-.001c-.048-.004-.096-.025-.133-.062-.021-.021-.037-.046-.047-.072l.001.001-1.03-1.966-.864.864.084.636c.013.075-.01.154-.067.211-.002.002-.004.003-.005.005l-.324.324c-.001.002-.003.003-.005.005-.057.057-.136.08-.21.067h-.001c-.048-.004-.096-.025-.133-.062-.021-.021-.037-.046-.047-.072l.001.001-.504-.912-.914-.506c-.017-.011-.034-.025-.051-.041-.04-.04-.068-.089-.082-.14l.001.002c-.013-.075.01-.154.067-.211.002-.002.004-.003.005-.005l.324-.324c.001-.002.003-.003.005-.005.057-.057.136-.08.21-.067h.001l.636.084.864-.864-1.992-1.056c-.021-.011-.043-.026-.062-.045-.096-.096-.096-.251 0-.347.002-.002.004-.003.005-.005l.431-.431c.067-.061.155-.085.239-.072h.001l2.688.624 1.092-1.092c.279-.276.729-.276 1.008 0 .269.283.268.728-.004 1.009zm4.608-.456c.099.099.099.261 0 .36s-.261.099-.36 0l-.12-.12c-.099-.099-.099-.261 0-.36s.261-.099.36 0zm-.84-.84c.099.099.099.261 0 .36s-.261.099-.36 0l-.12-.12c-.099-.099-.099-.261 0-.36s.261-.099.36 0zm-.84-.84c.099.099.099.261 0 .36s-.261.099-.36 0l-.121-.121c-.099-.099-.099-.261 0-.36s.261-.099.36 0zm-.839-.84c.099.099.099.261 0 .36s-.261.099-.36 0l-.121-.121c-.099-.099-.099-.261 0-.36s.261-.099.36 0zm-.84-.84c.099.099.099.261 0 .36s-.261.099-.36 0l-.121-.121c-.099-.099-.099-.261 0-.36s.261-.099.36 0zm-.84-.84c.099.099.099.261 0 .36s-.261.099-.36 0l-.121-.121c-.099-.099-.099-.261 0-.36s.261-.099.36 0zm-.84-.84c.099.099.099.261 0 .36s-.261.099-.36 0l-.121-.121c-.099-.099-.099-.261 0-.36s.261-.099.36 0zm.84-.983.816-.816-.289-.289.192-.192.804.804-.192.192-.288-.288-.816.816zm.804.804 1.008-1.008.227.227-1.008 1.008zm5.601 3.585-.192.192-.288-.288-.815.815-.227-.227.816-.816-.288-.288.192-.192zm-1.056-1.055-.18.18-.442-.442-.216.216.397.397-.18.18-.397-.397-.24.24.454.454-.18.18-.681-.681 1.008-1.008.672.672zm-1.56-1.561-.454.454.777-.13.252.252-.732.108-.228.948-.251-.251.168-.648-.302.038-.252.252-.227-.227 1.008-1.008.227.227zm-.732-.3-.288-.096c.035-.124.003-.261-.093-.357-.001-.001-.001-.001-.002-.002-.144-.144-.372-.157-.588.06s-.204.444-.06.588c.001.001.001.001.002.002.096.096.233.127.355.093l.002-.001.096.288c-.223.051-.464-.009-.636-.181-.008-.008-.017-.017-.025-.026l.001.001c-.004-.004-.01-.009-.015-.014-.265-.265-.265-.694 0-.958.013-.013.027-.025.04-.037l-.002.002c.012-.014.026-.03.042-.046.261-.261.685-.261.946 0 .008.008.015.015.022.023l-.001-.001c.016.013.033.028.05.045.166.166.218.404.155.615l-.001.003z"/></svg>