<!--Generated by Fontisto--><svg viewBox="0 0 24 24" xmlns="http://www.w3.org/2000/svg"><path d="m15.684 19.504-.623 1.002v.027h1.03v-1.029c0-.271.027-.569.027-.867h-.027c-.136.298-.244.569-.406.867z"/><path d="m22.998 11.539h-.813v-.542h.596l-.379-.379.379-.379.569.569-.352.352zm-1.626 0h-.812v-.542h.813zm-1.626 0h-.812v-.542h.813zm-1.625 0h-.809v-.542h.813zm-1.626 0h-.811v-.542h.813zm-1.625 0h-.811v-.542h.813zm-1.626 0h-.812v-.542h.813zm-1.626 0h-.81v-.542h.813zm-1.625 0h-.81v-.542h.813zm-1.626 0h-.81v-.542h.813zm-1.625 0h-.81v-.542h.813zm-1.626 0h-.809v-.542h.812zm-1.626 0h-.809v-.542h.813zm-1.625 0h-.809v-.406l-.325.325-.379-.378.569-.569.379.379-.108.108h.68zm.031-1.219-.379-.379.569-.569.379.379zm19.91-.271-.569-.569.379-.379.569.569zm-18.772-.866-.379-.383.569-.569.379.379zm17.638-.271-.569-.569.379-.379.569.569zm-16.474-.867-.379-.379.569-.569.379.379zm15.305-.271-.569-.569.378-.378.569.569zm-14.14-.867-.379-.379.568-.569.379.379zm12.975-.267-.569-.569.379-.379.569.569zm-11.81-.87-.379-.379.569-.569.379.379zm10.646-.272-.569-.569.379-.379.568.57zm-9.481-.866-.381-.379.569-.569.379.379zm8.32-.271-.573-.569.379-.379.569.569zm-7.155-.867-.379-.379.569-.569.379.379zm5.986-.271-.572-.569.379-.379.569.569zm-4.822-.866-.379-.379.569-.569.379.379zm3.68-.271-.565-.566.379-.379.569.569zm-2.542-.867-.379-.379.596-.569.379.379zm1.382-.271-.569-.569.352-.379.569.569z"/><path d="m9.806 13.652c-.461 0-.731.434-.731 1.002 0 .596.271 1.002.731 1.002s.704-.434.704-1.002c.001-.542-.243-1.002-.704-1.002z"/><path d="m6.88 13.652c-.024-.003-.052-.004-.081-.004-.077 0-.152.012-.222.033l.005-.001v.813h.271c.325 0 .542-.16.542-.434-.027-.271-.217-.406-.515-.406z"/><path d="m12.975 13.652c-.461 0-.731.434-.731 1.002 0 .596.271 1.002.731 1.002s.704-.434.704-1.002c.027-.542-.243-1.002-.704-1.002z"/><path d="m22.618 10.564h-21.264c-.004 0-.008 0-.013 0-.741 0-1.342.601-1.342 1.342v.014-.001 10.726.013c0 .741.601 1.342 1.342 1.342h.014 21.263.013c.741 0 1.342-.601 1.342-1.342 0-.005 0-.009 0-.014v.001-10.726c-.003-.747-.608-1.351-1.354-1.354zm-21.182 11.973h-.623v-10.266h.623zm4.469-9.319c.269-.034.58-.054.895-.054.049-.006.106-.009.163-.009.303 0 .585.093.817.252l-.005-.003c.167.133.274.337.274.565 0 .021-.001.041-.003.061v-.003c-.002.334-.213.619-.509.729l-.005.002c.217.08.325.271.406.569.074.336.157.617.256.89l-.016-.05h-.704c-.081-.196-.156-.431-.211-.673l-.006-.031c-.08-.379-.217-.461-.487-.487h-.215v1.165h-.677v-2.923zm3.657 9.21h-3.28v-.65l.596-.542c1.002-.894 1.49-1.436 1.52-1.978 0-.379-.217-.677-.758-.677-.382.015-.729.157-1.002.385l.003-.002-.298-.786c.413-.304.932-.487 1.493-.487h.028-.001c.056-.008.12-.012.186-.012.795 0 1.44.645 1.44 1.44v.036-.002c-.114.833-.566 1.543-1.21 1.999l-.009.006-.434.352v.027h1.734zm-1.192-7.747c-.003-.035-.005-.077-.005-.118 0-.802.65-1.453 1.453-1.453h.015-.001.036c.762 0 1.38.618 1.38 1.38 0 .049-.003.098-.008.146l.001-.006c.005.044.008.095.008.147 0 .787-.638 1.425-1.425 1.425-.016 0-.032 0-.048-.001h.002c-.01 0-.022 0-.034 0-.763 0-1.381-.618-1.381-1.381 0-.049.003-.097.008-.145v.006zm3.223 7.829c-.016 0-.035.001-.055.001-.485 0-.942-.12-1.342-.333l.016.008.217-.813c.312.177.684.286 1.08.298h.003c.569 0 .84-.271.84-.623 0-.461-.461-.65-.921-.65h-.434v-.786h.434c.352 0 .813-.135.813-.542 0-.271-.217-.487-.678-.487-.36.015-.694.113-.986.277l.011-.006-.217-.786c.391-.222.859-.353 1.357-.353.028 0 .056 0 .083.001h-.004c1.002 0 1.544.514 1.544 1.165-.004.517-.355.952-.832 1.081l-.008.002v.027c.57.071 1.006.552 1.006 1.135v.003c-.03.786-.762 1.382-1.926 1.382zm1.354-6.312c-.006 0-.013 0-.02 0-.77 0-1.394-.624-1.394-1.394 0-.044.002-.088.006-.131v.006c-.003-.035-.005-.077-.005-.118 0-.802.65-1.453 1.453-1.453h.015-.001.036c.762 0 1.38.618 1.38 1.38 0 .049-.003.098-.008.146l.001-.006c.005.044.008.095.008.147 0 .787-.638 1.425-1.425 1.425-.016 0-.031 0-.047-.001h.002zm4.741 5.12h-.568v1.11h-1.03v-1.111h-2.058v-.704l1.76-2.817h1.328v2.709h.569v.813zm-.271-5.146-.057-1.138c0-.352-.027-.786-.027-1.219-.08.379-.217.813-.325 1.165l-.352 1.165h-.514l-.325-1.165c-.108-.352-.19-.786-.271-1.165-.027.406-.027.867-.054 1.246l-.051 1.138h-.623l.19-2.98h.894l.298 1.002c.08.352.19.704.24 1.057.08-.352.19-.731.271-1.083l.325-1.002h.894l.16 2.98zm5.742 6.258h-.623v-10.24h.623z"/></svg>