<!--Generated by Fontisto--><svg viewBox="0 0 21 24" xmlns="http://www.w3.org/2000/svg"><path d="m10.834 14.35c.041.189.207.329.406.329.03 0 .058-.003.086-.009h-.003l6.658-1.448c.112-.024.204-.092.261-.185l.001-.002c.041-.064.065-.143.065-.227 0-.033-.004-.065-.011-.096l.001.003c-1.813-6.169-5.466-10.8-10.029-12.72h-.038s0 0-.001 0c-.229 0-.415.186-.415.415 0 .031.003.062.01.091l-.001-.003z"/><path d="m4.395 16.17 5.259-1.138c.11-.024.202-.089.261-.178l.001-.002c.042-.06.067-.135.067-.215 0-.034-.004-.066-.013-.097l.001.003-1.675-7.713c-.033-.167-.168-.296-.335-.32h-.002c-.016-.004-.035-.007-.055-.007-.005 0-.01 0-.015 0h.001c-.152 0-.285.082-.357.204l-.001.002-.117.2c-1.558 2.646-2.909 4.935-3.52 8.795-.003.019-.005.04-.005.062 0 .119.049.227.128.303.08.066.182.106.295.106.029 0 .057-.003.085-.008h-.003z"/><path d="m3.886 20.382c.088-.002.167-.035.228-.09l.24-.24c.439-.434 1.043-.703 1.709-.703s1.27.268 1.709.703l.24.24c.056.055.133.09.217.09h.01c.088-.002.167-.035.228-.09l.255-.255c.437-.43 1.037-.696 1.699-.696.666 0 1.268.269 1.706.703l.234.234c.059.057.139.094.227.097h.001c.088-.002.167-.035.228-.09l.234-.234c.439-.434 1.043-.703 1.709-.703s1.27.268 1.709.703l.24.24c.056.055.132.09.217.09h.011-.001c.088-.002.167-.035.228-.09l.24-.24c.229-.229.505-.411.811-.532l.016-.006c.021-.042.048-.075.069-.117l2.488-5.073c.028-.059.045-.127.045-.2 0-.106-.035-.203-.094-.281l.001.001c-.085-.107-.215-.175-.362-.175-.033 0-.065.003-.097.01l.003-.001-17.666 3.832c-.253.058-.439.28-.439.547 0 .074.014.144.04.208l-.001-.004.565 1.434c.346.145.641.346.889.593.044.058.113.095.191.095.008 0 .017 0 .025-.001h-.001z"/><path d="m20.421 22.491c-.34-.337-.807-.544-1.323-.544s-.984.208-1.323.545l-.24.24c-.156.153-.37.248-.606.248s-.45-.095-.607-.248l-.24-.24c-.34-.337-.807-.544-1.323-.544s-.984.208-1.323.545l-.234.234c-.155.153-.369.248-.605.248-.001 0-.001 0-.002 0-.001 0-.002 0-.004 0-.236 0-.45-.098-.602-.255l-.235-.235c-.341-.337-.81-.545-1.327-.545-.514 0-.979.205-1.32.538l-.255.255c-.156.153-.37.248-.606.248s-.45-.095-.607-.248l-.24-.24c-.34-.337-.807-.545-1.324-.545s-.984.208-1.324.545l-.24.24c-.156.153-.37.248-.606.248s-.45-.095-.607-.248c-.402-.396-.955-.641-1.565-.641s-1.162.245-1.565.641c-.093.092-.151.219-.151.36s.058.268.151.36c.092.092.218.15.358.151h.004c.138 0 .263-.055.354-.145.217-.217.517-.351.848-.351s.631.134.848.351c.34.336.807.544 1.323.544s.984-.208 1.323-.544l.24-.24c.156-.153.37-.248.606-.248s.45.095.607.248l.24.24c.336.336.8.544 1.313.544h.011-.001.003c.512 0 .976-.205 1.314-.538l.262-.255c.156-.153.37-.248.606-.248s.45.095.607.248l.234.234c.338.34.806.55 1.323.551h.011c.513 0 .977-.208 1.312-.544l.234-.234c.156-.153.37-.248.606-.248s.45.095.607.248l.24.24c.34.336.807.544 1.323.544s.984-.208 1.323-.544l.24-.24c.156-.153.37-.248.606-.248s.45.095.607.248c.091.09.216.145.355.145h.004.007c.138 0 .263-.058.352-.151.094-.091.152-.219.152-.36s-.058-.268-.151-.359z"/><path d="m1.708 21.043h.004c.33 0 .628.134.844.351.34.337.807.544 1.323.544s.984-.208 1.323-.545l.24-.24c.156-.153.37-.248.606-.248s.45.095.607.248l.24.24c.336.337.8.545 1.314.545h.01-.001.003c.512 0 .976-.205 1.314-.538l.262-.255c.156-.153.37-.248.606-.248.24 0 .457.098.614.255l.234.234c.338.339.806.55 1.323.551h.01c.513 0 .977-.208 1.313-.545l.234-.234c.156-.153.37-.248.606-.248s.45.095.607.248l.24.24c.34.337.807.544 1.323.544s.984-.208 1.323-.545l.24-.24c.156-.153.37-.248.606-.248s.45.095.607.248c.091.09.216.145.354.145h.004.007c.138 0 .263-.058.352-.151.093-.092.151-.219.151-.36s-.058-.268-.151-.36c-.34-.337-.807-.544-1.323-.544s-.984.208-1.323.545l-.24.24c-.156.153-.37.248-.606.248s-.45-.095-.607-.248l-.24-.24c-.34-.337-.807-.544-1.323-.544s-.984.208-1.323.545l-.234.234c-.155.153-.369.248-.605.248-.001 0-.001 0-.002 0-.001 0-.003 0-.004 0-.236 0-.45-.098-.602-.255l-.235-.235c-.341-.336-.809-.544-1.326-.544-.514 0-.98.205-1.32.538l-.255.255c-.156.153-.37.248-.606.248s-.45-.095-.607-.248l-.24-.24c-.34-.337-.807-.545-1.324-.545s-.984.208-1.324.545l-.24.24c-.156.153-.37.248-.606.248s-.45-.095-.607-.248c-.402-.396-.955-.641-1.565-.641s-1.162.245-1.565.641c-.094.091-.152.219-.152.36s.058.269.152.36c.092.093.218.15.358.152h.004c.138 0 .263-.055.354-.145.211-.221.507-.359.837-.359h.005z"/></svg>