<!--Generated by Fontisto--><svg viewBox="0 0 27 24" xmlns="http://www.w3.org/2000/svg"><path d="m22.856 11.37v-.564c-.002-3.335-2.705-6.038-6.04-6.04h-10.776c-3.335.002-6.038 2.705-6.04 6.04v.564c.002 3.335 2.705 6.038 6.04 6.04h10.776c3.335-.002 6.038-2.705 6.04-6.04zm-16.358 4.698c-2.75 0-4.98-2.23-4.98-4.98s2.23-4.98 4.98-4.98h9.861c2.75 0 4.98 2.23 4.98 4.98s-2.23 4.98-4.98 4.98c-1.223-.162-2.276-.784-2.998-1.684l-.007-.009c-.393-.414-.947-.671-1.561-.671-.633 0-1.201.273-1.595.708l-.002.002c-.91 1.018-2.228 1.655-3.694 1.655-.002 0-.004 0-.006 0z"/><path d="m26.113 0h-1.883c-.332.001-.601.27-.602.602v3.2c0 .313.241.57.547.595h.002v11.546c-.003 2.45-1.988 4.436-4.438 4.438h-5.872c-.402-.964-1.337-1.63-2.427-1.63-1.448 0-2.622 1.174-2.622 2.622s1.174 2.622 2.622 2.622h.002.005c1.089 0 2.022-.667 2.414-1.615l.006-.017h5.872c3.549-.003 6.426-2.88 6.429-6.428v-11.537c.305-.029.542-.284.542-.594v-.001-3.2c0-.002 0-.005 0-.007 0-.33-.267-.597-.596-.598z"/></svg>