<!--Generated by Fontisto--><svg viewBox="0 0 19 24" xmlns="http://www.w3.org/2000/svg"><path d="m17.109 9.267h-2.281v-.689h-.998v-7.414h1.259v-1.164h-10.689v1.164h1.255v7.414h-.998v.689h-2.282c-1.311.004-2.372 1.066-2.376 2.376v8.72c.004 1.311 1.065 2.372 2.376 2.376h.689c0 .696.564 1.26 1.26 1.26s1.26-.564 1.26-1.26h8.294c0 .696.564 1.26 1.26 1.26s1.26-.564 1.26-1.26h.713c1.311-.004 2.372-1.065 2.376-2.376v-8.72c-.004-1.311-1.066-2.372-2.376-2.376zm-11.05-8.103h7.366v7.414h-.998v.689h-5.37v-.689h-.998zm-2.281 18.06-1.778-1.973 5.251-4.729 1.782 1.972zm7.272-8.126h2.851v2.662h-2.851zm3.612 9.338c-1.47 0-2.662-1.192-2.662-2.662s1.192-2.662 2.662-2.662 2.662 1.192 2.662 2.662v.005c0 1.467-1.19 2.657-2.657 2.657-.002 0-.003 0-.005 0z"/></svg>