<!--Generated by Fontisto--><svg viewBox="0 0 25 24" xmlns="http://www.w3.org/2000/svg"><path d="m22.184 3.979h-5.506v-1.44c-.002-1.403-1.138-2.539-2.541-2.542h-3.387c-1.403.002-2.539 1.139-2.542 2.541v1.44h-5.506c-1.493.001-2.704 1.211-2.704 2.705v13.256.004c0 1.492 1.209 2.701 2.701 2.701h.003.793c-.003.031-.004.068-.004.104 0 .751.609 1.36 1.36 1.36s1.36-.609 1.36-1.36c0-.037-.001-.073-.004-.109v.005h12.456c0 .749.607 1.356 1.356 1.356s1.356-.607 1.356-1.356h.793.003c1.492 0 2.701-1.209 2.701-2.701 0-.001 0-.003 0-.004v-13.256c0-.006 0-.014 0-.022 0-1.482-1.201-2.683-2.683-2.683-.002 0-.005 0-.007 0zm-12.085-1.44c0-.36.292-.652.652-.652h3.386c.36 0 .652.292.652.652v1.44h-4.683v-1.44zm-4.527 17.22h-.001c-1.215 0-2.201-.985-2.201-2.201s.985-2.201 2.201-2.201c1.215 0 2.201.985 2.201 2.201v.001c0 1.215-.985 2.2-2.2 2.201zm3.579-8.88 1.44-3.867 3.867 1.44-1.44 3.868zm6.24 8.336-.956-3.305 7.269-2.097.956 3.305z"/></svg>