<!--Generated by Fontisto--><svg viewBox="0 0 24 24" xmlns="http://www.w3.org/2000/svg"><path d="m24 14.358-3.04-2.965 2.608-3.348-4.114-1.051.584-4.204-4.088 1.142-1.6-3.932-2.965 3.04-3.348-2.608-1.051 4.114-4.204-.584 1.142 4.087-3.932 1.596 3.04 2.966-2.608 3.348 4.114 1.051-.59 4.204 4.087-1.142 1.6 3.932 2.965-3.04 3.348 2.608 1.051-4.114 4.205.59-1.142-4.087zm-9.719 4.302c-.677.238-1.457.376-2.269.376-3.888 0-7.04-3.152-7.04-7.04s3.152-7.04 7.04-7.04c3.073 0 5.686 1.969 6.647 4.714l.015.049c.24.679.378 1.461.378 2.276 0 3.076-1.973 5.691-4.722 6.649l-.049.015z"/></svg>