<!--Generated by Fontisto--><svg viewBox="0 0 32 24" xmlns="http://www.w3.org/2000/svg"><path d="m32.094 17.878c0-.005 0-.012 0-.018 0-.084-.017-.163-.048-.236l.001.004-6.177-13.944c-.079-.169-.196-.309-.339-.414l-.003-.002-4.309-3.07c-.166-.119-.373-.19-.597-.19-.06 0-.119.005-.177.015l.006-.001c-.275.049-.507.205-.655.422l-.002.003c-.124.181-.199.404-.199.645 0 .096.012.189.034.278l-.002-.008c.079.321.288.581.567.727l.006.003 4.041 2.145c.199.108.356.273.45.474l.003.006 4.531 10.226c-1.33-.648-2.893-1.027-4.545-1.027-.047 0-.093 0-.14.001h.007c-3.319 0-6.16 1.368-7.25 3.28-.325-.198-.717-.317-1.137-.32h-.001c-.432.015-.831.14-1.176.348l.011-.006c-1.082-1.933-3.93-3.31-7.267-3.31-.038 0-.083-.001-.129-.001-1.632 0-3.178.368-4.559 1.027l.064-.028 4.522-10.199c.094-.208.252-.375.447-.477l.005-.003 4.041-2.145c.364-.193.607-.57.607-1.003 0-.24-.075-.463-.202-.646l.002.004c-.184-.268-.488-.441-.833-.441-.222 0-.427.072-.594.194l.003-.002-4.309 3.07c-.149.105-.266.246-.34.41l-.003.006-6.177 13.943c-.009.018-.009.028-.018.046-.161.383-.256.827-.259 1.293v.001c0 2.783 3.458 5.04 7.73 5.04s7.73-2.256 7.73-5.04c0-.111-.01-.231-.018-.342.192-.183.445-.305.725-.332h.005.009c.259.018.489.131.657.305-.01.12-.018.25-.018.37 0 2.783 3.458 5.04 7.73 5.04s7.73-2.256 7.73-5.04c-.002-.388-.07-.759-.194-1.103l.007.023zm-24.281-1.868c-3.098 0-5.92 1.535-5.92 3.218 0 .23-.186.416-.416.416s-.416-.186-.416-.416c0-2.201 3.088-4.059 6.75-4.059.232 0 .421.188.421.421s-.188.421-.421.421zm16.847 0c-3.098 0-5.92 1.535-5.92 3.218 0 .23-.186.416-.416.416s-.416-.186-.416-.416c0-2.201 3.088-4.059 6.75-4.059.232 0 .421.188.421.421s-.188.421-.421.421z"/></svg>