<!--Generated by Fontisto--><svg viewBox="0 0 18 24" xmlns="http://www.w3.org/2000/svg"><path d="m17.867 12.65c-.16-2.031-.754-3.991-2.48-5.369-.077-.062-.169-.111-.268-.141l-.006-.001c-.23-.682-.552-1.273-.96-1.795l.01.013c-1.196-1.468-2.772-2.582-4.579-3.198l-.071-.021c.493-.16 1.194-.463 1.372-.96.024-.074.038-.159.038-.248 0-.222-.087-.423-.228-.572-.135-.203-.356-.341-.609-.362h-.003c-.564 0-.96.831-1.146 1.502-.19-.671-.582-1.502-1.146-1.502-.257.018-.479.157-.611.359l-.002.003c-.141.149-.227.35-.227.572 0 .088.014.174.039.253l-.002-.006c.178.493.88.796 1.372.96-1.88.632-3.458 1.748-4.636 3.201l-.015.019c-.399.508-.722 1.099-.938 1.74l-.012.042c-.104.034-.195.083-.275.144l.002-.002c-1.729 1.378-2.32 3.332-2.48 5.369v.024c0 .356.25.655.583.729l.005.001c.974.247 2.093.389 3.244.389 1.362 0 2.679-.198 3.921-.568l-.097.025c.15-.035.28-.106.386-.202l-.001.001c.288.062.619.099.958.101h.002.027c.28 0 .554-.029.818-.085l-.026.005c.102.086.226.15.362.183l.006.001c1.145.345 2.461.543 3.823.543 1.151 0 2.27-.142 3.338-.409l-.095.02c.347-.068.604-.37.604-.731 0-.009 0-.018 0-.027v.001zm-8.38-11.652c.196-.416.416-.659.6-.659.107 0 .219.08.345.232.096.092.155.222.155.365 0 .048-.007.094-.019.138l.001-.004c-.143.4-.898.677-1.372.808.072-.334.172-.628.301-.906zm-2.173.071c-.011-.04-.018-.086-.018-.134 0-.143.059-.273.154-.366.124-.154.24-.232.344-.232.184 0 .4.24.6.659.119.252.219.546.286.852l.005.028c-.205-.055-.375-.114-.54-.182l.028.01c-.474-.19-.782-.416-.862-.636zm2.32 11.237c-.027.068-.042.146-.042.228 0 .009 0 .019.001.028v-.001c-.172.027-.371.043-.574.043-.253 0-.5-.024-.739-.071l.024.004c0-.002 0-.005 0-.008 0-.083-.015-.163-.043-.237l.002.005c-.926-2.376-2.566-4.425-4.888-5.167-.066-.022-.143-.037-.223-.041h-.003c.22-.586.507-1.092.859-1.545l-.01.013c1.133-1.394 2.623-2.455 4.332-3.05l.068-.021c-.236.227-.403.524-.468.857l-.002.01c-.001.008-.002.017-.002.027 0 .083.059.153.138.169h.001.03.002c.082 0 .15-.058.164-.136v-.001c.093-.4.344-.728.682-.923l.007-.004c.342.202.591.529.687.916l.002.01c.012.078.078.137.158.137h.008.03c.079-.016.138-.086.138-.169 0-.01-.001-.019-.002-.028v.001c-.066-.344-.233-.64-.468-.867h-.001c1.771.611 3.258 1.666 4.375 3.035l.014.017c.314.397.583.851.786 1.34l.014.038c.024.066.048.118.065.172-.082.006-.159.021-.232.044l.007-.002c-2.338.746-3.98 2.794-4.898 5.176z"/><path d="m1.428 17.521v1.12c3.51.63 6.278 3.48 6.871 5.36h1.318c.594-1.877 3.36-4.734 6.871-5.36v-1.12z"/></svg>