<!--Generated by Fontisto--><svg viewBox="0 0 24 24" xmlns="http://www.w3.org/2000/svg"><path d="m21.396 11.484c-.424-.358-1.054-.337-1.451.059 0 0-.001.001-.001.001-.393.399-.415 1.027-.065 1.451l.003.003-9.79 9.79c-.001.001-.002.002-.003.003-.667.667-1.75.667-2.417 0-.001-.001-.002-.002-.004-.004l-6.456-6.456c-.001-.001-.002-.002-.003-.003-.667-.667-.667-1.75 0-2.417l.004-.004 9.79-9.79c.001.001.002.002.003.003.416.416 1.09.416 1.506 0 .001-.001.002-.002.003-.003.002-.002.003-.003.005-.005.416-.416.416-1.09 0-1.506-.001-.001-.002-.002-.003-.003l1.392-1.392c.001-.001.002-.002.003-.003.667-.667 1.75-.667 2.417 0 .001.001.002.002.004.004l6.456 6.456c.001.001.002.002.003.003.667.667.667 1.75 0 2.417-.001.001-.002.002-.004.004zm-6.719 3.455c.101.095.259.095.359 0l.637-.637c.001-.001.002-.002.003-.003.097-.097.097-.255 0-.353-.001-.001-.002-.002-.004-.004-.101-.095-.259-.095-.359 0l-.638.638c-.094.101-.094.258.001.358zm-1.236 1.237c.101.095.259.095.359 0l.637-.637c.099-.099.099-.261 0-.36s-.261-.099-.36 0l-.637.637c-.096.101-.096.26 0 .36zm-3.48 3.479c.101.096.259.097.36.002l2.015-2.015c.001-.001.002-.002.003-.003.097-.097.097-.255 0-.353-.001-.001-.002-.002-.004-.004-.101-.096-.259-.096-.359 0l-2.016 2.016c-.096.1-.096.258-.002.359zm7.741-8.891c.411.411 1.077.411 1.488 0s.411-1.077 0-1.488-1.077-.411-1.488 0c-.409.412-.41 1.076-.002 1.488zm-4.106 2.232.003.003c.098.098.256.098.354 0 .001-.001.002-.002.003-.003l.12-.12c.099-.099.099-.261 0-.36s-.261-.099-.36 0l-.12.12c-.096.101-.096.259 0 .36zm-.84.84c.101.096.259.096.359 0l.12-.12c.099-.099.099-.261 0-.36s-.261-.099-.36 0l-.118.118c-.098.101-.099.261-.002.362zm-.84.841c.101.096.259.095.36 0l.12-.12c.099-.099.099-.261 0-.36s-.261-.099-.36 0l-.12.12c-.095.101-.094.259.002.359zm-.84.84c.101.095.259.095.359 0l.12-.12c.001-.001.002-.002.003-.003.097-.097.097-.255 0-.353-.001-.001-.002-.002-.004-.004-.101-.095-.258-.094-.358.001l-.12.12c-.095.1-.096.258-.001.358zm-.84.839c.101.095.259.095.359 0l.12-.12c.099-.099.099-.261 0-.36s-.261-.099-.36 0l-.12.12c-.096.101-.096.259 0 .36zm-.84.84c.101.095.259.095.359 0l.12-.12c.099-.099.099-.261 0-.36s-.261-.099-.36 0l-.12.12c-.096.101-.096.259 0 .36zm-.84.84c.101.096.259.096.359 0l.119-.119c.099-.099.099-.261 0-.36s-.261-.099-.36 0l-.119.119c-.096.101-.096.259 0 .36zm6.996-9.42c.412.408 1.076.408 1.488 0 .002-.002.004-.004.007-.007.407-.407.407-1.067 0-1.474-.002-.002-.005-.005-.007-.007-.411-.411-1.077-.411-1.488 0s-.411 1.077 0 1.488zm-6.96 6.096.013.013c.278.278.728.278 1.006 0 .175-.175.24-.419.194-.646l-.001-.003-.288.096c.035.124.003.261-.093.357-.001.001-.001.001-.002.002-.151.147-.392.146-.541-.003-.018-.018-.034-.038-.048-.059l.001.002c-.216-.216-.204-.444-.06-.588.001-.001.001-.001.002-.002.096-.096.233-.127.355-.093l.002.001.096-.288c-.224-.051-.464.009-.636.181-.008.008-.016.017-.024.026l.001-.001c-.006.006-.014.013-.021.02-.261.261-.261.685 0 .946.015.015.03.028.045.041l-.002-.002zm2.304-1.295.264-.264-.948-.229-.108-.732-.252.252.13.777-.454-.454-.227.227 1.006 1.006.227-.227-.25-.25-.036-.276zm.624-2.28.288-.288.815.815.227-.227-.816-.816.3-.3-.192-.192-.814.814zm-.108 1.739.684-.684-.18-.18-.454.454-.24-.24.397-.397-.195-.195-.397.397-.214-.214.444-.444-.18-.18-.674.674zm-2.88 2.88.227-.227-1.008-1.008-.227.227zm-1.894.262.288-.288.816.816.227-.227-.816-.816.288-.288-.192-.192-.805.805zm6.778-9.538s0 0 .001.001c.411.411 1.077.411 1.488 0s.411-1.077 0-1.488-1.077-.411-1.488 0c-.408.412-.408 1.075-.001 1.487zm-6.768 6.768c.101.095.259.095.359 0l1.92-1.92c.099-.099.099-.261 0-.36s-.261-.099-.36 0l-1.92 1.92c-.096.101-.096.259 0 .36zm-1.311-.062c.101.096.259.096.359 0l3.156-3.156c.099-.099.099-.261 0-.36s-.261-.099-.36 0l-3.155 3.155c-.096.101-.096.26 0 .36zm12.708-2.797c-.002-.002-.003-.003-.005-.005-.209-.209-.209-.548 0-.758.002-.002.004-.004.005-.005.213-.21.555-.21.768 0 .212.212.212.556 0 .768s-.556.212-.768 0zm-2.136-2.136c-.212-.212-.212-.556 0-.768s.556-.212.768 0 .212.556 0 .768c-.002.002-.003.003-.005.005-.209.209-.548.209-.758 0-.001-.001-.002-.002-.002-.002zm-2.136-2.136c-.212-.212-.212-.556 0-.768s.556-.212.768 0 .212.556 0 .768c-.001.002-.003.003-.005.005-.209.209-.548.209-.758 0-.001-.001-.001-.001-.002-.002z"/></svg>