<!--Generated by Fontisto--><svg viewBox="0 0 24 24" xmlns="http://www.w3.org/2000/svg"><path d="m9.437 23.473c-.022-.038-.052-.077-.087-.112-.007-.007-.015-.014-.022-.021l.001.001c-.312-.307-.799-.327-1.134-.063l-.003.003-.982-.982c.267-.339.247-.826-.06-1.137-.312-.307-.799-.327-1.134-.063l-.003.003-.982-.982c.267-.339.247-.826-.06-1.137-.312-.307-.799-.327-1.134-.063l-.003.003-.982-.982c.267-.339.247-.826-.06-1.137-.312-.307-.799-.327-1.134-.063l-.003.003-.982-.982c.267-.339.247-.826-.06-1.137-.024-.024-.059-.036-.084-.06l13.916-13.916c.01.024.026.049.047.07.005.005.01.009.015.014l-.001-.001c.002.002.004.004.006.006.328.328.859.328 1.186 0 .002-.002.004-.004.006-.006.024-.024.024-.048.048-.072l.983.983c-.022.007-.044.019-.062.038-.003.003-.007.007-.01.011-.322.35-.313.892.025 1.23.024.024.048.045.073.066l-.003-.003c.002.002.004.004.006.006.328.328.859.328 1.186 0 .002-.002.004-.004.006-.006.024-.024.024-.048.048-.072l.982.982c-.022.007-.044.019-.062.038-.003.003-.007.007-.01.011-.331.331-.331.867 0 1.198s.867.331 1.198 0c.024-.024.024-.048.048-.072l.982.982c-.023.007-.045.02-.063.039-.003.003-.006.006-.009.01-.331.331-.331.867 0 1.198s.867.331 1.198 0c.024-.024.024-.048.048-.072l.982.982c-.022.007-.044.019-.062.038-.003.003-.007.007-.01.011-.002.002-.004.004-.006.006-.328.328-.328.859 0 1.186.002.002.004.004.005.005.006.006.012.013.019.02.036.036.075.066.116.09l-.003-.002zm9.26-10.889.12.12c.099.099.26.099.359 0s.099-.26 0-.359l-.122-.122c-.099-.099-.26-.099-.359 0s-.099.26 0 .359zm-.012-4.754 2.108 2.108c.099.099.26.099.359 0s.099-.26 0-.359l-2.108-2.108c-.099-.099-.26-.099-.359 0s-.099.26 0 .359zm-5.452-3.89 6.778 6.778c.099.099.26.099.359 0s.099-.26 0-.359l-6.778-6.778c-.099-.099-.26-.099-.359 0s-.099.26 0 .359zm2.144 10.527h.288c.065-.006.129-.034.18-.084s.078-.115.084-.18v.001c-.004-.057-.028-.113-.072-.157-.056-.056-.131-.079-.203-.071h-.001-2.131c-.065-.001-.13.023-.179.072s-.073.115-.072.179c-.005.061.015.123.061.169.015.015.031.027.048.036l-.001-.001-2.503 2.503c-.008-.015-.02-.03-.034-.043-.047-.047-.109-.068-.17-.064-.065-.002-.13.022-.18.072s-.073.115-.072.179l-.001 2.131c-.001.065.023.13.072.179s.115.073.179.072c.065-.006.129-.034.18-.084s.078-.115.084-.18v.001-.288zm2.479-2.719.12.12c.099.099.26.099.359 0s.099-.26 0-.359l-.12-.12c-.099-.099-.26-.099-.359 0s-.099.26 0 .359zm-.838-.838.12.12c.099.099.26.099.359 0s.099-.26 0-.359l-.12-.12c-.099-.099-.26-.099-.359 0s-.099.26 0 .359zm-.838-.838.12.12c.099.099.26.099.359 0s.099-.26 0-.359l-.121-.121c-.099-.099-.26-.099-.359 0s-.099.26 0 .359zm-9.928 1.736.036.036c-.489.671-.432 1.606.167 2.204l2.434 2.434c.391.39 1.023.39 1.414 0l2.515-2.515c.39-.391.39-1.023 0-1.414l-2.434-2.434c-.599-.599-1.533-.656-2.197-.173l-.008.006-.036-.036c-.101-.096-.258-.096-.359 0l-1.532 1.532c-.096.101-.096.258 0 .359zm9.087-2.571.12.12c.099.099.26.099.359 0s.099-.26 0-.359l-.121-.121c-.099-.099-.26-.099-.359 0s-.099.26 0 .359zm-.838-.838.119.119c.099.099.26.099.359 0s.099-.26 0-.359l-.119-.119c-.099-.099-.26-.099-.359 0s-.099.26 0 .359zm-.839-.839.12.12c.099.099.26.099.359 0s.099-.26 0-.359l-.12-.12c-.099-.099-.26-.099-.359 0s-.099.26 0 .359zm1.676-2.994.599.599c.099.099.26.099.359 0s.099-.26 0-.359l-.599-.599c-.099-.099-.26-.099-.359 0s-.099.26 0 .359zm-2.514 2.156.12.12c.099.099.26.099.359 0s.099-.26 0-.359l-.12-.12c-.099-.099-.26-.099-.359 0s-.099.26 0 .359zm1.209-3.461.596.596c.099.099.26.099.359 0s.099-.26 0-.359l-.596-.596c-.099-.099-.26-.099-.359 0s-.099.26 0 .359zm-2.047 2.622.12.12c.099.099.26.099.359 0s.099-.26 0-.359l-.121-.121c-.099-.099-.26-.099-.359 0s-.099.26 0 .359zm-.839-.838.12.12c.099.099.26.099.359 0s.099-.26 0-.359l-.121-.121c-.099-.099-.26-.099-.359 0s-.099.26 0 .359zm-.212 13.146-.012-.611 3.125-3.125.611.012zm-.995-2.072c-.192.191-.503.191-.695 0l-1.113-1.113 3.21-3.21 1.113 1.113c.191.192.191.503 0 .695zm.838-2.203c.304.304.797.304 1.101 0s.304-.797 0-1.101-.797-.304-1.101 0c-.299.306-.299.795 0 1.101zm-1.652 1.653s.001.001.001.001c.304.304.796.304 1.099 0 0 0 .001-.001.001-.001.299-.306.299-.795 0-1.101s-.001-.001-.001-.001c-.304-.304-.796-.304-1.099 0 0 0-.001.001-.001.001-.299.306-.299.795 0 1.101zm2-2.024c-.105-.106-.105-.277.001-.382s.277-.106.383 0c.105.105.106.276.001.382-.001.001-.002.002-.003.003-.104.104-.274.104-.378 0-.001-.001-.002-.002-.003-.003zm-1.653 1.652c-.106-.106-.106-.278 0-.384s.278-.106.384 0 .106.278 0 .384c-.001.001-.002.002-.003.003-.104.104-.274.104-.378 0-.001-.001-.002-.002-.003-.003zm-1.701-.55-.958-.958c-.002-.002-.004-.004-.006-.006-.46-.46-.46-1.206 0-1.666.002-.002.004-.004.005-.005l1.532-1.532c.002-.002.004-.004.006-.006.46-.46 1.206-.46 1.666 0l.005.005.958.958z"/></svg>