<!--Generated by Fontisto--><svg viewBox="0 0 24 24" xmlns="http://www.w3.org/2000/svg"><path d="m23.596 13.43h-12.034c-.057-.005-.123-.007-.189-.007-1.284 0-2.338.983-2.45 2.238l-.001.009c.117 1.266 1.174 2.249 2.46 2.249.075 0 .149-.003.223-.01l-.009.001h12c.016.002.035.003.053.003.301 0 .548-.234.568-.53v-.002-3.422c-.041-.3-.296-.529-.604-.529-.006 0-.012 0-.018 0zm-12.034 3.638c-.79 0-1.43-.64-1.43-1.43s.64-1.43 1.43-1.43 1.43.64 1.43 1.43v.004c0 .788-.639 1.426-1.426 1.426-.001 0-.003 0-.004 0z"/><path d="m3.295 0v6.404h1.368v-2.736c.138.034.298.056.462.062h.004c1.029-.003 1.863-.836 1.866-1.865-.004-.167-.026-.328-.066-.481l.003.015h7.492c-.034.138-.056.298-.062.462v.004c.003 1.029.836 1.863 1.865 1.866.168-.006.329-.028.483-.066l-.016.003v2.736h1.401v-6.404z"/><path d="m18.684 5.626h1.741c-.269-.771-.924-1.343-1.727-1.49l-.014-.002z"/><path d="m11.471 12.684h11.938v-3.637c-.102-1.054-.983-1.871-2.056-1.871-.054 0-.108.002-.161.006h.007-18.96c-.016-.017-.038-.029-.062-.031-.263-.125-.446-.381-.466-.682v-.002c.034-.375.297-.68.647-.776l.006-.001v-1.585c-1.307.062-2.364 1.927-2.364 4.259v13.772c.103 1.054.984 1.87 2.056 1.87.053 0 .106-.002.159-.006h-.007 18.96c.045.004.098.006.152.006 1.072 0 1.953-.817 2.055-1.863l.001-.008v-3.637h-11.872c-1.927 0-3.482-1.306-3.482-2.891 0-1.616 1.554-2.922 3.45-2.922z"/></svg>