<!--Generated by Fontisto--><svg viewBox="0 0 30 24" xmlns="http://www.w3.org/2000/svg"><path d="m9.531.095c.291.278.172.57-.669 1.622-.504.536-.905 1.175-1.167 1.881l-.013.039c-.093.348-.059.358.3.089.461-.342.985-.671 1.533-.959l.067-.032c.212-.111.664-.338.682-.338s.095-.042.198-.091c.55-.276 1.19-.504 1.86-.65l.055-.01c.842-.096 1.375.304 1.178.88-.087.255-.234.358-.833.575-.355.13-.516.191-.633.24l-.36.16c-.409.173-.747.345-1.072.536l.043-.024c-.372.224-.691.448-.993.691l.017-.013c-.246.196-.465.404-.664.63l-.005.006c.022.035.182.029.33-.014.589-.126 1.266-.199 1.959-.199.324 0 .645.016.961.047l-.04-.003c2.08.259 4 1.586 3.452 2.393-.24.358-.51.374-1.127.07-.839-.49-1.847-.779-2.922-.779-.566 0-1.112.08-1.63.229l.041-.01c-.62.182-.622.24-.008.267.154.003.301.015.447.034l-.02-.002c.071.018.156.033.244.042l.007.001c.277.037.525.093.763.169l-.031-.009c.555.146 1.042.372 1.477.667l-.017-.011c.6.446 1.11.971 1.526 1.566l.014.022c.658.886.737 1.806.167 1.994-.358.118-.574-.039-.96-.7-.441-.916-1.278-1.581-2.283-1.777l-.02-.003c-.1-.016-.215-.025-.333-.025-.168 0-.332.019-.489.054l.015-.003c-2.098.293-3.269 2.911-1.844 4.124.536.393 1.208.629 1.935.629.995 0 1.887-.441 2.491-1.139l.004-.004c.669-.748.98-.927 1.342-.772.784.337-.265 2.156-1.755 3.04-.137.08-.741.371-.887.425l-.257.095c-.063.023-.174.056-.244.08l-.32.087c-.859.191-1.846.301-2.858.301-.256 0-.51-.007-.763-.021l.035.002c-2.16.04-2.42.104-3.574.88-.342.229-.55.377-.971.689-.303.223-.291.223-.632.026-1.367-.726-2.282-2.14-2.282-3.768 0-.087.003-.173.008-.259l-.001.012c.018-.295 0-.267.39-.539.874-.61 2.376-1.749 2.44-1.85.022-.034.223-1.026.254-1.241.009-.071.023-.134.041-.195l-.002.008c.018-.056.034-.126.046-.197l.001-.009c.021-.123.094-.473.208-.996.219-.921.449-1.677.717-2.414l-.048.151c.014-.029.065-.15.111-.27.861-2.162 2.115-4.001 3.688-5.509l.005-.005c.738-.613 1.414-.866 1.672-.62zm18.245 6.098c1.126.606 1.946 1.655 2.234 2.907l.006.03c.041.275.064.592.064.915 0 .116-.003.231-.009.346l.001-.016c-.022.146-.027.15-1.066.874-.185.13-.704.518-.96.72-.111.086-.31.24-.446.35-.301.234-.4.339-.4.431 0 .038-.042.266-.091.507s-.107.524-.126.63c-.037.207-.103.53-.206 1.003-.107.497-.214.922-.385 1.53-.093.334-.352 1.072-.495 1.414-.197.47-.229.538-.514 1.114-.461.923-.94 1.709-1.475 2.452l.035-.052-.283.39c-1.17 1.61-2.8 2.685-3.171 2.09-.18-.291-.052-.56.715-1.52.305-.357.595-.752.855-1.167l.025-.042c.022-.042.067-.13.102-.193.128-.231.222-.501.265-.787l.002-.013c-.019-.06-.097-.026-.298.127-.661.485-1.41.934-2.2 1.311l-.085.036-.338.16c-.293.135-1.007.411-1.257.486-.211.093-.458.147-.717.147-.047 0-.094-.002-.14-.005h.006c-.468-.016-.738-.144-.875-.413-.031-.075-.049-.163-.049-.255 0-.263.148-.491.365-.606l.004-.002c.088-.044.2-.092.315-.134l.024-.008c.248-.087.622-.226.669-.248.029-.014.126-.056.218-.092 1.074-.419 1.994-1.013 2.77-1.756l-.003.003c.171-.167.211-.254.106-.23-.356.089-.8.169-1.251.223l-.054.005c-.241.024-.521.037-.805.037-.612 0-1.209-.063-1.785-.183l.057.01c-1.93-.469-3.306-1.652-2.72-2.341.271-.32.457-.308 1.217.063.129.069.29.144.455.211l.034.012c.023.001.044.01.061.024.227.099.504.194.789.269l.042.009c.43.128.923.202 1.434.202.497 0 .978-.07 1.434-.201l-.037.009c.472-.138.529-.16.57-.214.056-.073.005-.089-.293-.093-.769-.029-1.492-.186-2.162-.451l.044.015c-.679-.294-1.255-.705-1.728-1.213l-.003-.003c-.08-.09-.16-.182-.181-.203-.424-.47-.767-1.024-1.001-1.631l-.012-.036c-.16-.648.214-1.126.737-.93.186.07.291.186.507.565.941 1.642 2.19 2.24 3.665 1.746 1.144-.367 1.958-1.422 1.958-2.667 0-.189-.019-.373-.054-.551l.003.018c-.334-1.146-2.026-1.76-3.5-1.263-.745.262-1.363.727-1.809 1.327l-.007.01c-.324.353-.473.435-.78.435-.438 0-.63-.359-.428-.8.021-.041.04-.089.055-.138l.001-.006c.119-.275.25-.51.4-.73l-.01.015c.354-.508.789-.932 1.292-1.263l.018-.011c.929-.584 2.045-.959 3.241-1.033l.02-.001c.12-.012 1.254-.042 2.944-.08.068.004.147.006.227.006.686 0 1.337-.149 1.923-.417l-.029.012c.691-.403 1.279-.803 1.839-1.239l-.036.027c.191-.16.219-.155.525.022z"/></svg>