<!--Generated by Fontisto--><svg viewBox="0 0 24 24" xmlns="http://www.w3.org/2000/svg"><path d="m9.32 16.326h-2.28v-1.366h-3.044l-.872 1.366h-3.124l.189-.255 3.274-4.548 3.091-4.302 1.386-.006h1.38zm-2.181-6.08-.996 1.46-.995 1.464.989.019c.225 0 .434.005.605.005.033.001.072.002.111.002.106 0 .21-.004.313-.013l-.014.001c.012-.012.014-.566.006-1.483zm4.836 6.08h-1.874v-9.111h1.939c.185-.009.402-.014.621-.014.61 0 1.21.041 1.798.12l-.069-.008c1.122.267 2.027 1.024 2.49 2.028l.009.023c.338.618.537 1.354.537 2.137 0 .107-.004.213-.011.318l.001-.014c.004.072.007.157.007.243 0 .448-.069.879-.198 1.284l.008-.03c-.277 1.131-1.006 2.055-1.979 2.586l-.021.01c-.781.381-1.146.429-3.258.429zm.274-6.919v4.654l.866-.026c.994-.033 1.238-.119 1.634-.579.332-.395.534-.91.534-1.471 0-.087-.005-.173-.014-.258l.001.01c.011-.078.017-.168.017-.26 0-.308-.071-.599-.198-.858l.005.011c-.428-.921-.79-1.132-2.037-1.191l-.81-.032zm10.329 6.913c-.096 0-.141-.009-.155-.03s0-.042.01-.074c.506-1.32.803-2.846.814-4.44v-.005c-.017-1.6-.314-3.126-.844-4.537l.03.092c-.014-.035-.016-.055-.006-.07.023-.034.114-.041.357-.041.314 0 .405.024.455.124.239.654.445 1.435.581 2.239l.011.081c.107.635.168 1.366.168 2.111 0 1.419-.221 2.785-.63 4.068l.026-.095-.182.553-.416.02c-.103.002-.169.005-.219.005zm-4.232 0c-.055 0-.115 0-.195-.006l-.436-.02.234-.351c.582-.888.985-1.943 1.134-3.079l.004-.038c.028-.29.044-.626.044-.967 0-.676-.062-1.338-.182-1.98l.01.066c-.243-.984-.641-1.848-1.171-2.614l.017.026-.104-.143h.924l.176.274c.335.578.617 1.246.812 1.95l.014.061c.188.676.295 1.453.295 2.255 0 1.366-.313 2.659-.871 3.811l.023-.052c-.344.7-.4.807-.73.807zm2.024 0c-.02.002-.042.004-.065.004-.065 0-.128-.01-.187-.03l.004.001c0-.024.135-.309.195-.43.13-.26.262-.577.374-.904l.017-.056c.296-.922.466-1.983.466-3.084 0-1.497-.315-2.92-.883-4.207l.026.067c-.059-.121-.195-.405-.195-.43.056-.019.12-.03.186-.03.022 0 .043.001.064.003h-.003c.06 0 .124 0 .188.006l.436.019.247.615c.442 1.159.698 2.5.698 3.9 0 1.465-.28 2.864-.789 4.148l.027-.076-.18.453-.436.02c-.064 0-.127.005-.188.005z"/></svg>