<!--Generated by Fontisto--><svg viewBox="0 0 13 24" xmlns="http://www.w3.org/2000/svg"><path d="m9.233.084c.515.219.912.632 1.105 1.145l.005.014c.066.154.104.332.104.52s-.038.366-.107.529l.003-.009c-.148.465-.468.84-.882 1.057l-.01.005c-.239.126-.522.199-.823.199-.2 0-.393-.033-.573-.093l.013.004c-.515-.219-.912-.632-1.105-1.145l-.005-.014c-.066-.154-.104-.332-.104-.52s.038-.366.107-.529l-.003.009c.245-.735.927-1.255 1.731-1.255.194 0 .382.03.557.087l-.013-.004zm-1.131 3.85c.534.215.955.614 1.194 1.117l.006.014c.062.174.312 1.39.548 2.706l.437 2.393 1.145.999c.439.373.837.747 1.216 1.14l.005.005c.056.133.089.288.09.451v.001c.002.016.002.035.002.053 0 .196-.093.37-.237.48l-.001.001c-.113.146-.287.239-.484.239-.02 0-.04-.001-.06-.003h.002c-.006 0-.012 0-.019 0-.166 0-.322-.044-.457-.12l.005.002c-.347-.236-2.72-2.338-2.823-2.497-.082-.152-.149-.328-.192-.513l-.003-.014c-.062-.27-.09-.326-.125-.222-.166.527-.88 3.184-.88 3.266.275.43.568.804.892 1.149l-.004-.004c.486.575.936 1.138 1.006 1.262.111.202.118.52.118 3.835v3.614l-.16.236c-.185.284-.502.47-.862.47-.006 0-.013 0-.019 0h.001c-.365-.006-.683-.202-.86-.493l-.003-.005c-.139-.194-.144-.278-.166-3.426l-.021-3.225-.916-1.082-.916-1.075-.11 1.581-.617.902c-.34.493-1.173 1.725-1.852 2.731-.48.742-.939 1.373-1.428 1.978l.034-.043c-.141.071-.307.118-.481.132h-.004c-.038.006-.082.009-.127.009-.375 0-.697-.223-.842-.544l-.002-.006c-.305-.575-.263-.659 2.204-4.258l.96-1.394.028-1.28c-.003-.074-.004-.161-.004-.248 0-.815.13-1.599.371-2.334l-.015.053c.603-2.358 1.859-6.8 2-7.089.355-.61.993-1.021 1.73-1.054h.005c.25.005.489.046.714.117l-.018-.005zm4.363 9.856c0 .152-.555 9.211-.597 9.67l-.042.541h-.27c-.236 0-.27-.021-.27-.16-.007-.08.125-2.372.291-5.091.285-4.8.298-4.938.437-4.966.258-.056.451-.049.451.006z"/></svg>