<!--Generated by Fontisto--><svg viewBox="0 0 21 24" xmlns="http://www.w3.org/2000/svg"><path d="m2.324.254c.338.27.553.683.553 1.145 0 .176-.031.345-.088.501l.003-.01c-.208.571-.746.972-1.378.972-.007 0-.013 0-.02 0h.001c-.641-.059-1.167-.498-1.351-1.088l-.003-.011c-.026-.104-.041-.223-.041-.345 0-.536.287-1.004.715-1.261l.007-.004c.207-.095.45-.151.705-.151.332 0 .641.094.904.256zm6.911-.17c.503.24.85.735.874 1.313v.003c-.045.502-.297.938-.669 1.227l-.004.003c-.221.136-.488.217-.775.217-.37 0-.708-.135-.969-.358l.002.002c-.283-.271-.459-.652-.459-1.074 0-.047.002-.094.006-.139v.006c.043-.464.293-.861.656-1.103l.005-.003c.228-.113.497-.179.781-.179.196 0 .385.031.562.09l-.013-.004zm7.28.023c.439.237.74.68.773 1.196v.004c.002.028.003.061.003.094 0 .491-.242.925-.612 1.19l-.004.003c-.227.161-.51.257-.815.257-.197 0-.384-.04-.555-.113l.009.004c-.444-.188-.767-.583-.852-1.06l-.001-.009c-.016-.081-.025-.173-.025-.268 0-.537.294-1.006.73-1.253l.007-.004c.213-.094.461-.149.722-.149.224 0 .438.04.636.114l-.013-.004zm3.692.07c.426.251.707.708.707 1.23 0 .03-.001.061-.003.091v-.004c-.034.548-.375 1.01-.851 1.218l-.009.004c-.173.08-.375.127-.589.127-.348 0-.667-.125-.914-.332l.002.002c-.315-.263-.515-.657-.515-1.097 0-.122.015-.24.044-.353l-.002.01c.055-.217.14-.408.252-.58l-.004.007c.289-.308.698-.501 1.153-.501.267 0 .519.066.74.184l-.009-.004zm-18.16 3.537c.496.228.834.72.834 1.291 0 .109-.012.216-.036.318l.002-.01c-.145.641-.709 1.112-1.384 1.112-.005 0-.011 0-.016 0h.001c-.03.002-.066.004-.101.004-.651 0-1.193-.469-1.306-1.087l-.001-.008c-.027-.103-.043-.221-.043-.342 0-.363.14-.693.369-.939l-.001.001c.254-.302.631-.492 1.053-.492.229 0 .444.056.634.155l-.008-.004zm7.159-.046c.525.219.887.728.887 1.321 0 .07-.005.139-.015.206l.001-.008c-.092.645-.603 1.147-1.245 1.223l-.007.001c-.073.008-.158.012-.245.012-.129 0-.256-.01-.38-.029l.014.002c-.362-.162-.658-.42-.862-.741l-.005-.008c-.069-.19-.108-.41-.108-.639 0-.203.031-.398.089-.582l-.004.014c.24-.517.755-.87 1.352-.87.192 0 .376.036.544.103l-.01-.003zm-7.205 5.186c.516.245.867.763.867 1.362 0 .107-.011.211-.032.312l.002-.01c-.127.627-.674 1.093-1.33 1.093-.025 0-.05-.001-.075-.002h.003c-.018.001-.04.001-.061.001-.661 0-1.211-.473-1.33-1.099l-.001-.008c-.02-.091-.032-.195-.032-.301 0-.444.2-.842.514-1.108l.002-.002c.251-.213.579-.343.937-.343.193 0 .378.038.546.106l-.01-.003zm3.661.039c.4.198.691.565.781 1.006l.002.009c.018.085.028.183.028.283 0 .367-.137.702-.363.956l.001-.001c-.264.289-.643.469-1.063.469-.183 0-.358-.034-.519-.096l.01.003c-.542-.207-.922-.718-.934-1.319v-.001c0-.006 0-.013 0-.021 0-.506.262-.95.658-1.205l.006-.003c.218-.14.483-.224.769-.224.228 0 .443.053.634.148l-.008-.004zm3.537-.047c.429.219.745.606.864 1.072l.002.011c.019.083.029.179.029.278 0 .321-.113.615-.302.845l.002-.002c-.24.342-.633.563-1.078.563-.029 0-.058-.001-.087-.003h.004c-.025.002-.055.003-.084.003-.375 0-.71-.172-.93-.442l-.002-.002c-.238-.216-.387-.527-.387-.872 0-.047.003-.094.008-.14l-.001.006c-.002-.027-.003-.058-.003-.089 0-.434.222-.816.559-1.038l.005-.003c.239-.18.541-.289.868-.289.193 0 .376.038.544.106l-.01-.003zm7.469.155c.379.269.623.707.623 1.201 0 .224-.05.436-.139.625l.004-.009c-.204.47-.664.793-1.2.793-.032 0-.065-.001-.097-.004h.004c-.008 0-.018 0-.027 0-.587 0-1.091-.357-1.306-.865l-.003-.009c-.051-.151-.081-.325-.081-.507 0-.43.166-.821.438-1.112l-.001.001c.261-.219.601-.351.972-.351.302 0 .583.088.82.24l-.006-.004zm3.591-.015c.394.261.651.703.651 1.204 0 .02 0 .04-.001.059v-.003c-.019.519-.311.966-.735 1.204l-.007.004c-.196.104-.428.166-.674.166-.337 0-.647-.114-.893-.306l.003.002c-.344-.268-.564-.683-.564-1.149 0-.117.014-.231.04-.34l-.002.01c.136-.423.423-.765.796-.971l.009-.004c.165-.06.355-.095.553-.095.303 0 .587.081.832.223zm-17.941 3.653c.341.266.557.677.557 1.138 0 .063-.004.124-.012.185l.001-.007c-.064.514-.391.939-.84 1.14l-.009.004c-.171.078-.372.123-.583.123-.227 0-.442-.053-.633-.146l.008.004c-.377-.185-.656-.519-.764-.924l-.002-.01c-.027-.105-.042-.226-.042-.35 0-.542.294-1.016.731-1.271l.007-.004c.199-.087.432-.138.676-.138.335 0 .648.095.912.26zm3.507-.046c.387.236.641.656.641 1.135 0 .014 0 .029-.001.043v-.002c.001.02.002.043.002.066 0 .507-.268.952-.671 1.2l-.006.003c-.209.129-.461.205-.732.205-.261 0-.505-.071-.714-.194l.007.004c-.445-.256-.739-.728-.739-1.27 0-.216.047-.421.131-.605l-.004.009c.193-.478.653-.809 1.19-.809.036 0 .071.001.106.004h-.005c.034-.004.074-.006.114-.006.254 0 .489.081.68.219l-.003-.002zm7.174-.023c.402.239.668.672.668 1.166 0 .025-.001.051-.002.075v-.003c.003.034.005.074.005.114 0 .392-.183.742-.468.968l-.003.002c-.249.212-.575.342-.931.342-.343 0-.658-.12-.906-.321l.003.002c-.342-.26-.561-.667-.561-1.125 0-.168.03-.33.084-.48l-.003.01c.2-.551.718-.937 1.327-.937.018 0 .035 0 .052.001h-.003c.017-.001.036-.001.055-.001.251 0 .486.069.687.19l-.006-.003zm3.576-.039c.435.259.722.727.722 1.261 0 .234-.055.455-.153.651l.004-.009c-.236.477-.719.8-1.278.8-.225 0-.438-.052-.627-.146l.008.004c-.465-.225-.786-.681-.817-1.215v-.004c-.002-.026-.003-.055-.003-.086 0-.511.266-.96.668-1.216l.006-.003c.225-.12.492-.191.775-.191.252 0 .492.056.706.156l-.01-.004zm-14.341 5.239c.391.262.645.701.645 1.201 0 .042-.002.084-.005.126v-.005c-.048.534-.382.98-.845 1.188l-.009.004c-.172.084-.374.133-.587.133-.398 0-.756-.17-1.006-.441l-.001-.001c-.264-.255-.428-.611-.428-1.006 0-.298.093-.574.252-.801l-.003.005c.204-.317.525-.544.9-.622l.009-.002c.084-.018.18-.028.278-.028.3 0 .578.094.807.254l-.005-.003zm3.513-.069c.197.122.36.28.484.466l.004.006c.154.224.246.502.246.801 0 .346-.123.663-.328.91l.002-.002c-.264.318-.659.519-1.101.519-.203 0-.396-.042-.571-.119l.009.004c-.524-.2-.89-.698-.89-1.282 0-.072.006-.142.016-.211l-.001.008c.061-.487.355-.894.766-1.11l.008-.004c.193-.102.422-.162.665-.162.253 0 .491.065.698.179l-.007-.004zm3.583-.015c.451.27.753.747.774 1.297v.003c-.031.245-.102.467-.206.669l.005-.011c-.111.282-.334.5-.612.602l-.007.002c-.167.109-.371.174-.59.174-.07 0-.139-.007-.206-.019l.007.001c-.473-.072-.87-.349-1.103-.736l-.004-.007c-.092-.209-.145-.452-.145-.708 0-.234.045-.458.126-.664l-.004.012c.268-.457.756-.758 1.315-.758.237 0 .46.054.66.15l-.009-.004zm-7.322 3.552c.522.257.874.785.874 1.395 0 .076-.005.15-.016.223l.001-.008c-.127.551-.551.977-1.09 1.107l-.01.002c-.101.025-.216.039-.335.039-.46 0-.871-.211-1.14-.542l-.002-.003c-.18-.239-.288-.541-.288-.868 0-.232.054-.451.151-.645l-.004.008c.236-.477.714-.803 1.269-.818h.002c.212.002.415.042.602.112l-.012-.004zm3.646.039c.482.191.816.653.816 1.193 0 .031-.001.061-.003.091v-.004c.001.021.002.047.002.072 0 .36-.142.687-.374.927-.269.271-.641.438-1.053.438-.006 0-.011 0-.017 0h.001c-.417-.005-.792-.181-1.059-.461l-.001-.001c-.219-.251-.353-.582-.353-.945 0-.326.108-.627.291-.868l-.003.004c.265-.354.684-.58 1.155-.58.217 0 .422.048.606.134l-.009-.004zm3.645.007c.471.243.787.726.787 1.284 0 .217-.048.422-.133.606l.004-.009c-.195.456-.625.777-1.133.813h-.004c-.072.008-.157.012-.242.012-.128 0-.253-.01-.376-.029l.014.002c-.362-.162-.658-.42-.862-.741l-.005-.008c-.066-.187-.105-.402-.105-.627s.038-.44.109-.64l-.004.014c.167-.351.462-.619.823-.747l.01-.003c.141-.05.303-.08.472-.08.236 0 .459.057.656.158l-.008-.004zm3.52-.046c.323.16.583.408.754.711l.005.009c.054.176.084.377.084.586 0 .236-.039.463-.112.675l.004-.015c-.243.473-.727.79-1.285.79-.016 0-.032 0-.048-.001h.002c-.001 0-.002 0-.003 0-.434 0-.822-.196-1.081-.503l-.002-.002c-.205-.244-.33-.561-.33-.907 0-.089.008-.175.024-.259l-.001.009c.084-.442.356-.807.729-1.015l.007-.004c.203-.114.446-.181.705-.181.198 0 .387.039.559.111l-.01-.004zm3.847.147c.379.267.624.702.624 1.195 0 .23-.053.447-.148.64l.004-.009c-.242.468-.723.782-1.276.782-.115 0-.226-.014-.333-.039l.01.002c-.633-.15-1.098-.705-1.11-1.371v-.001c-.003-.031-.004-.068-.004-.105 0-.545.334-1.012.808-1.208l.009-.003c.176-.078.382-.123.599-.123.304 0 .587.09.824.244l-.006-.004zm3.607-.023c.38.272.625.712.625 1.209 0 .295-.086.57-.234.8l.004-.006c-.258.37-.674.613-1.149.631h-.003c-.016.001-.034.001-.053.001-.46 0-.87-.212-1.139-.545l-.002-.003c-.184-.264-.294-.591-.294-.945 0-.057.003-.113.008-.169l-.001.007c.094-.451.368-.824.742-1.049l.007-.004c.199-.095.432-.151.678-.151.299 0 .579.082.818.225l-.007-.004z"/></svg>