<!--Generated by Fontisto--><svg viewBox="0 0 24 24" xmlns="http://www.w3.org/2000/svg"><path d="m23.25.562.56.56-2.92 2.92.771.771c.27.255.52.524.752.809l.012.015c0 .03-.052.052-.12.052s-1.258.232-2.658.524-2.56.524-2.576.524c.03-.254.073-.478.128-.696l-.008.037c.075-.359.292-1.407.48-2.336s.374-1.85.419-2.051l.09-.359 1.55 1.55 1.446-1.446c.786-.786 1.453-1.44 1.475-1.44.217.181.413.366.597.563l.003.004zm-10.446 4.193c2.308.65 4.092 2.42 4.75 4.672l.012.048c.125.423.197.909.197 1.412 0 .149-.006.296-.019.442l.001-.019c.01.124.015.268.015.413 0 .994-.261 1.927-.719 2.734l.014-.028c-.549 1.004-1.218 1.864-2.002 2.601l-.005.005c-2.121 2.284-2.351 2.614-2.591 3.707-.106.712-.429 1.333-.899 1.811-.53.535-1.266.866-2.078.866-.251 0-.495-.032-.728-.091l.02.004c-.88-.254-2-1.266-2-1.798 0-.006 0-.013 0-.019 0-.14.058-.267.151-.357.09-.087.213-.141.348-.141.012 0 .023 0 .035.001h-.002c.187 0 .307.09.673.486.337.484.887.8 1.511.809h.001c.025.001.055.002.085.002.432 0 .825-.169 1.116-.445l-.001.001c.4-.356.666-.854.719-1.414l.001-.009c.285-1.28.457-1.552 2.494-3.776.756-.823 1.5-1.67 1.655-1.879.426-.602.767-1.302.984-2.055l.012-.049c.086-.416.135-.895.135-1.385s-.049-.969-.143-1.431l.008.046c-.587-2.264-2.466-3.964-4.785-4.28l-.03-.003c-.258-.039-.555-.061-.858-.061-2.043 0-3.851 1.006-4.955 2.55l-.013.018c-.533.731-.988 1.569-1.324 2.466l-.024.073c-.058.195-.148.365-.265.512l.002-.003c-.089.065-.201.104-.322.104-.032 0-.063-.003-.093-.008h.003c-.149-.025-.275-.107-.358-.222l-.001-.002c-.15-.202-.15-.218-.022-.64.164-.469.322-.845.497-1.211l-.031.072c.909-2.108 2.622-3.724 4.743-4.482l.057-.018c.534-.181 1.148-.286 1.787-.286.183 0 .363.009.541.025l-.023-.002c.054-.002.118-.003.182-.003.549 0 1.079.084 1.577.24l-.037-.01zm-.8 2.24c.797.202 1.477.62 1.997 1.187l.003.003c.598.565 1.035 1.297 1.235 2.12l.006.03c.299 1.25-.187 3.242-.854 3.474-.045.022-.097.035-.153.035-.103 0-.196-.044-.261-.114-.278-.202-.292-.48-.052-1.01.202-.41.32-.893.32-1.404 0-.546-.135-1.06-.374-1.511l.008.018c-1.213-2.471-4.635-2.456-6.2.022-.21.337-.352.486-.487.509-.03.005-.064.008-.099.008-.236 0-.438-.141-.529-.342l-.001-.004c-.09-.179-.08-.247.052-.524.53-.916 1.289-1.647 2.201-2.127l.03-.014c.627-.288 1.36-.456 2.132-.456.361 0 .713.037 1.053.106l-.034-.006zm-2.194 6.14c.488.26.876.653 1.123 1.131l.007.015c.086.241.135.518.135.808.002.035.004.076.004.117 0 .308-.076.598-.211.853l.005-.01c-.293.612-.848 1.059-1.516 1.198l-.014.002c-.129.027-.277.043-.429.043-.557 0-1.066-.211-1.449-.557l.002.002c-.423-.365-.699-.89-.735-1.48v-.006c-.002-.037-.004-.081-.004-.125 0-.555.213-1.06.561-1.439l-.001.002c.371-.45.928-.735 1.552-.735.026 0 .051 0 .076.001h-.004c.03-.002.065-.003.101-.003.29 0 .565.067.809.188l-.011-.005zm-3.12 4.48c-.038.179-.285 1.378-.546 2.673s-.494 2.358-.509 2.374c-.289-.242-.55-.489-.795-.751l-.005-.005-.786-.786-2.886 2.886-.577-.584-.584-.577 2.886-2.886-.749-.75c-.264-.248-.508-.507-.737-.78l-.011-.014c0-.022.951-.24 2.121-.48s2.298-.472 2.524-.524c.164-.047.357-.084.556-.102l.013-.001c.156-.008.156.014.088.306z"/></svg>