<!--Generated by Fontisto--><svg viewBox="0 0 24 24" xmlns="http://www.w3.org/2000/svg"><path d="m12.086 6.496c-.011 0-.023 0-.035 0-.96 0-1.839.353-2.512.935l.005-.004c-.727.546-1.192 1.405-1.192 2.374 0 .029 0 .058.001.087v-.004h2.073c-.002-.029-.004-.063-.004-.097 0-.421.197-.796.504-1.038l.003-.002c.282-.27.665-.437 1.087-.437h.001c.022-.001.048-.002.075-.002.383 0 .731.153.985.402.255.257.412.611.412 1.001 0 .015 0 .031-.001.046v-.002c0 .013.001.028.001.043 0 .392-.15.75-.396 1.017l.001-.001-1.247 1.251c-.237.244-.424.537-.545.863l-.006.017c-.109.222 0 .56 0 1.018v.861h1.412v-.589c.009-.407.162-.777.411-1.061l-.002.002c.08-.091.235-.203.367-.334s.32-.286.505-.463.353-.32.467-.437c.171-.178.336-.368.49-.566l.012-.016c.355-.442.569-1.009.569-1.626 0-.031-.001-.061-.002-.092v.004c.003-.047.004-.102.004-.157 0-.857-.371-1.628-.962-2.16l-.003-.002c-.627-.518-1.44-.833-2.325-.833-.055 0-.109.001-.163.004h.008z"/><path d="m11.958 15.632c-.005 0-.012 0-.018 0-.354 0-.675.144-.907.377-.238.222-.386.537-.386.887v.013-.001.012c0 .349.152.662.393.878l.001.001c.237.227.559.367.914.367h.02-.001.019c.354 0 .675-.144.906-.376.238-.223.386-.539.386-.889 0-.004 0-.007 0-.011v.001c0-.003 0-.007 0-.011 0-.349-.152-.663-.393-.879l-.001-.001c-.236-.228-.558-.368-.912-.368-.007 0-.014 0-.022 0z"/><path d="m12 0c-6.627 0-12 5.373-12 12s5.373 12 12 12 12-5.373 12-12c0-6.627-5.373-12-12-12zm0 21.882c-5.458 0-9.882-4.425-9.882-9.882s4.425-9.882 9.882-9.882c5.458 0 9.882 4.425 9.882 9.882 0 5.458-4.425 9.882-9.882 9.882z"/></svg>