<!--Generated by Fontisto--><svg viewBox="0 0 24 24" xmlns="http://www.w3.org/2000/svg"><path d="m13.168 5.658c.985.124 1.863.308 2.714.557l-.122-.03c.884.279 1.621.572 2.332.912l-.107-.046.226.113-.633.38c-.353.206-.654.38-.673.38-.124.061-.229.123-.328.192l.008-.006c-.16.107-.414.26-.566.346l-.28.154-.434-.406c-.848-.82-2.005-1.326-3.28-1.326-.865 0-1.676.233-2.373.639l.022-.012c-.689.453-1.264 1.019-1.712 1.678l-.014.021c-.399.695-.635 1.528-.635 2.416 0 .48.069.945.197 1.383l-.009-.035c.034.096.068.219.096.345l.004.023c-.318.238-.68.453-1.063.629l-.037.015c-.014-.02-.1-.26-.194-.546-.181-.549-.286-1.18-.286-1.836 0-1.325.427-2.55 1.151-3.545l-.012.017.306-.414-.346.138c-1.912.838-3.543 1.97-4.916 3.359l-.501.508.466.434c.747.688 1.561 1.336 2.418 1.924l.074.048c.208.143.454.293.708.43l.045.022c.029.002.052.025.054.053-.357.268-.761.516-1.188.726l-.045.02c-.671-.416-1.248-.831-1.794-1.281l.028.022c-.346-.28-1.046-.921-1.553-1.427l-.921-.921.146-.207c.787-.897 1.605-1.713 2.475-2.472l.031-.026c2.018-1.711 4.534-2.893 7.303-3.302l.08-.01c.526-.06 1.136-.094 1.754-.094.486 0 .966.021 1.441.062l-.062-.004zm8.23.7c.107.056.196.132.265.224l.001.002c.042.094.067.203.067.318 0 .151-.042.292-.115.411l.002-.003c-.066.073-2.985 1.806-6.48 3.851s-7.52 4.391-8.93 5.218c-2.046 1.193-2.613 1.499-2.806 1.499-.012.001-.026.001-.04.001-.256 0-.471-.175-.532-.412l-.001-.004c-.036-.06-.058-.133-.058-.211 0-.094.032-.181.085-.251l-.001.001c.106-.22.64-.546 5.25-3.238 2.826-1.646 6.87-4.012 8.996-5.25s3.913-2.258 3.985-2.258c.118.016.224.052.32.105l-.005-.002zm-8.46 1.513c.635.173 1.185.475 1.644.878l-.005-.004.374.346-.52.3c-.286.166-.546.306-.566.32-.173-.063-.323-.147-.457-.249l.004.003c-.371-.254-.829-.406-1.323-.406-.085 0-.17.005-.253.013l.01-.001c-.939.067-1.731.632-2.119 1.431l-.007.015c-.145.261-.23.573-.23.905 0 .068.004.136.011.203l-.001-.008v.66l-.5.286c-.161.108-.346.2-.543.268l-.017.005c-.153-.303-.242-.66-.242-1.039 0-.071.003-.141.009-.21l-.001.009c-.001-.026-.001-.056-.001-.087 0-1.041.442-1.98 1.149-2.637l.002-.002c.676-.689 1.617-1.117 2.657-1.117.328 0 .645.042.948.122l-.026-.006zm8.123 1.067c1.085.845 2.046 1.747 2.919 2.73l.019.022c-.638.717-1.302 1.373-2.005 1.983l-.027.023c-2.306 2.002-5.21 3.373-8.411 3.815l-.085.01c-.43.043-.929.067-1.434.067-1.073 0-2.12-.109-3.13-.318l.1.017c-.803-.178-1.494-.393-2.158-.659l.093.033c.605-.402 1.327-.824 2.071-1.209l.135-.063c.103.029.192.076.268.139l-.001-.001c.752.488 1.673.778 2.661.778.081 0 .162-.002.243-.006h-.011c2.48-.156 4.432-2.206 4.432-4.711 0-.028 0-.056-.001-.084v.004l.006-.619.546-.313c.169-.12.367-.212.581-.264l.012-.002c.084.385.131.827.131 1.28 0 .197-.009.392-.027.585l.002-.025c-.033.37-.088.704-.163 1.029l.01-.05c-.218.713-.515 1.334-.891 1.899l.017-.026c-.083.104-.154.222-.209.349l-.004.01c.28-.09.518-.192.745-.312l-.025.012c1.593-.76 2.964-1.689 4.174-2.791l-.014.012.659-.586-.493-.466c-.607-.557-1.263-1.095-1.949-1.595l-.064-.045c-.226-.147-.306-.234-.254-.286.315-.221.675-.436 1.051-.623l.049-.022c.165.082.308.174.439.281l-.004-.003zm-5.191 2.765c-.037.622-.205 1.197-.477 1.709l.011-.023c-.662 1.221-1.935 2.036-3.397 2.036-.547 0-1.068-.114-1.539-.32l.025.01c-.552-.24-.552-.24.147-.645l.645-.368.706-.006c.069.009.148.014.229.014.338 0 .655-.087.932-.239l-.01.005c.536-.267.955-.702 1.194-1.236l.006-.016c.186-.414.214-.44.806-.793.186-.12.406-.245.634-.356l.039-.017c.029 0 .049.113.049.246z"/></svg>