<!--Generated by Fontisto--><svg viewBox="0 0 21 24" xmlns="http://www.w3.org/2000/svg"><path d="m13.09.147c2.033.147 3.892.778 5.497 1.778l-.051-.029c.976.569 1.709 1.465 2.054 2.535l.009.032.049.27h-6.03l-.098-.185c-.128-.189-.274-.353-.439-.495l-.003-.003c-.59-.526-.761-.554-3.605-.56-1.35 0-2.63.029-2.849.057-.577.104-1.07.411-1.412.842l-.004.005-.249.342h-5.96l.042-.292c.135-1.002 1.379-2.29 3.001-3.107 1.67-.752 3.612-1.23 5.654-1.321l.034-.001c.284-.007.619-.012.955-.012 1.198 0 2.384.053 3.555.158l-.151-.011zm-7.303 5.752c.014.014.014.611-.007 1.322-.035 1.251-.042 1.294-.206 1.43s-.313.135-2.688.135h-2.517l-.17-.178c-.178-.17-.178-.185-.178-1.458v-1.28h2.866c1.578 0 2.886.014 2.901.029zm14.853 1.209c0 1.228 0 1.244-.185 1.458l-.185.221h-5.049l-.413-.413v-2.505h5.831zm-17.6 2.701c.427.178.469.313.469 1.415v.988l-.442.413h-1.244c-1.768 0-1.798-.021-1.798-1.44 0-1.002.098-1.273.512-1.394.351-.046.758-.073 1.17-.073.47 0 .932.034 1.383.1l-.051-.006zm4.266 0c.427.178.469.313.469 1.415v.988l-.413.413h-1.251c-.095.005-.206.007-.317.007-.388 0-.768-.032-1.138-.093l.04.005c-.327-.147-.406-.4-.406-1.36 0-1.01.098-1.28.512-1.401.352-.046.758-.073 1.171-.073.47 0 .932.034 1.384.1l-.051-.006zm4.267 0c.427.178.469.313.469 1.415v.988l-.413.413h-2.589l-.48-.48v-.917c0-1.44.071-1.5 1.76-1.507.101-.009.218-.014.336-.014.325 0 .64.039.943.112l-.027-.006zm4.266 0c.427.178.469.313.469 1.415v.988l-.413.413h-2.588l-.48-.48v-.917c0-1.44.071-1.5 1.76-1.507.1-.009.217-.014.335-.014.325 0 .64.039.942.112l-.027-.006zm4.529.17.206.227v2.005l-.413.413h-2.589l-.48-.48v-.917c0-.775.021-.946.142-1.138.192-.32.434-.37 1.76-.356l1.166.014zm-12.997 3.647c.362.185.406.32.406 1.36v.982l-.206.227-.206.234-1.2.021c-1.792.029-1.87-.035-1.87-1.507v-.91l.48-.48h1.223c.096-.005.208-.008.321-.008.371 0 .735.032 1.088.094l-.038-.005zm4.316.029c.114.059.209.14.282.238l.002.002c.047.277.074.596.074.921 0 .064-.001.128-.003.191v-.009.967l-.206.227-.206.235-1.13.021c-1.84.042-1.941-.035-1.941-1.507v-.906l.48-.48h1.216c.125-.014.27-.022.417-.022.359 0 .707.047 1.039.136l-.028-.006zm4.267 0c.114.059.209.14.282.238l.002.002c.047.277.074.596.074.921 0 .064-.001.128-.003.191v-.009.967l-.206.227-.206.235-1.13.021c-1.84.042-1.941-.035-1.941-1.507v-.906l.48-.48h1.216c.125-.014.27-.022.417-.022.359 0 .707.047 1.039.136l-.028-.006zm-12.649 3.932.206.227v.982c-.007 1.424-.021 1.44-1.778 1.44h-1.223l-.48-.48v-.896c0-1.486.08-1.542 1.87-1.52l1.2.021zm4.266 0 .206.227v.967c.002.054.003.118.003.182 0 .325-.027.644-.079.954l.005-.034c-.16.292-.419.348-1.714.348h-1.216l-.48-.48v-.896c0-1.486.08-1.542 1.87-1.52l1.2.021zm4.267 0 .206.227v.967c.002.054.003.118.003.182 0 .325-.027.644-.079.954l.005-.034c-.16.292-.419.348-1.714.348h-1.219l-.48-.48v-.896c0-1.486.08-1.542 1.87-1.52l1.2.021zm4.266 0 .206.227v2.005l-.442.413h-2.56l-.48-.48v-.896c0-1.486.08-1.542 1.87-1.52l1.2.021zm4.252-.029.221.213v2.048l-.442.413h-2.547l-.227-.206-.234-.206-.021-.924c-.042-1.514.042-1.586 1.849-1.557l1.188.014zm-3.626 3.698c.298.16.362.384.362 1.344s-.049 1.094-.427 1.294c-.178.092-1.04.106-6.328.106-6.8 0-6.48.021-6.712-.462-.074-.297-.117-.637-.117-.987 0-.328.037-.647.108-.954l-.006.028c.206-.505-.256-.469 6.676-.469 5.26 0 6.269.015 6.44.101z"/></svg>