<!--Generated by Fontisto--><svg viewBox="0 0 24 24" xmlns="http://www.w3.org/2000/svg"><path d="m11.997 1.771h-.001c-5.647 0-10.226 4.578-10.226 10.226s4.578 10.226 10.226 10.226c5.647 0 10.226-4.578 10.226-10.226 0-5.647-4.578-10.225-10.225-10.226zm.198 2.252c.801 0 1.45.649 1.45 1.45s-.649 1.45-1.45 1.45-1.45-.649-1.45-1.45c0-.801.649-1.45 1.45-1.45zm5.307 3.668c-.087.117-.216.199-.364.223h-.003l-3.445.53c-.03.002-.056.017-.074.038-.018.022.343 4.274.343 4.274l1.958 5.337c.055.104.087.226.087.357 0 .295-.165.551-.407.681l-.004.002c-.074.033-.161.053-.253.053-.001 0-.001 0-.002 0-.33-.016-.608-.224-.728-.513l-.002-.006s-2.508-5.691-2.522-5.734c-.016-.047-.06-.081-.112-.081-.048 0-.088.031-.103.074v.001c-.014.041-2.522 5.734-2.522 5.734-.121.294-.399.501-.727.518h-.002c-.001 0-.001 0-.002 0-.091 0-.178-.019-.256-.054l.004.002c-.176-.08-.308-.229-.364-.411l-.001-.005c-.025-.078-.04-.168-.04-.261 0-.133.029-.258.082-.371l-.002.005s1.91-5.165 1.911-5.174l.355-4.363c0-.003 0-.006 0-.01 0-.054-.04-.099-.092-.107h-.001l-3.36-.52c-.271-.043-.475-.275-.475-.554 0-.31.251-.561.561-.561.03 0 .06.002.089.007h-.003l3.223.498h3.421c.007.002.015.003.024.003s.016-.001.024-.003h-.001l3.244-.497c.024-.004.052-.006.08-.006.28 0 .513.203.56.47v.003c.004.026.007.057.007.088 0 .124-.04.238-.109.33l.001-.002z"/><path d="m12 0c-6.627 0-12 5.373-12 12s5.373 12 12 12 12-5.373 12-12c0-6.627-5.373-12-12-12zm0 22.975c-.001 0-.003 0-.004 0-6.064 0-10.979-4.916-10.979-10.979s4.916-10.979 10.979-10.979c6.064 0 10.979 4.916 10.979 10.979v.004c-.002 6.061-4.915 10.973-10.975 10.975z"/></svg>