<!--Generated by Fontisto--><svg viewBox="0 0 21 24" xmlns="http://www.w3.org/2000/svg"><path d="m6.742.18c.396.229.714.553.932.94l.006.012c.106.238.168.517.168.809 0 .259-.049.507-.137.735l.005-.014c-.31.736-1.011 1.251-1.836 1.285h-.004c-.834-.032-1.539-.55-1.843-1.278l-.005-.014c-.078-.21-.123-.452-.123-.705 0-.294.061-.575.172-.828l-.005.013c.271-.507.713-.893 1.247-1.085l.016-.005c.141-.028.304-.043.47-.043.337 0 .66.065.955.184l-.017-.006zm.332 4.23c.439.12.8.399 1.021.771l.004.008c.176.404.331.882.439 1.377l.01.052c.145.614.296 1.242.332 1.386l.072.274h2.288c2.035 0 2.32.014 2.534.13.317.15.537.458.56.82v.003c.005.04.009.085.009.132 0 .32-.149.606-.382.791l-.002.002-.195.181-2.16.022c-1.184.014-2.16.029-2.16.036s.094.39.21.845l.195.83 2.24.036c1.913.029 2.267.05 2.418.15.576.849 1.15 1.835 1.658 2.859l.068.151 1.546 2.88.938-.31c1.047-.354 1.473-.4 1.805-.181.278.184.463.49.48.84v.002c.001.014.001.031.001.047 0 .336-.156.636-.399.831l-.002.002c-.466.227-1.022.441-1.597.609l-.077.019c-1.711.56-1.97.578-2.344.195-.116-.116-.91-1.509-1.754-3.092l-1.546-2.88-3.104-.036c-3.551-.043-3.205.036-3.465-.758-.303-.91-1.754-7.074-1.754-7.457.017-.564.315-1.055.758-1.339l.007-.004c.276-.185.616-.295.981-.296.1.028.223.053.349.069l.014.002zm-2.613 5.096c.122.513.224.974.224 1.018-.169.235-.359.439-.572.616l-.005.004c-1.245 1.137-2.023 2.768-2.023 4.581 0 .828.162 1.619.457 2.341l-.015-.041c.545 1.272 1.437 2.308 2.557 3.016l.027.016c.646.374 1.398.653 2.199.794l.041.006c.262.033.565.052.872.052.608 0 1.198-.073 1.763-.212l-.051.01c1.571-.464 2.856-1.475 3.664-2.809l.016-.028c.181-.31.346-.534.375-.505s.289.49.578 1.026c.598 1.105.598 1.018-.022 1.726-1.278 1.476-3.051 2.494-5.058 2.794l-.046.006c-.346.051-.746.08-1.153.08-3.642 0-6.736-2.345-7.855-5.607l-.017-.058c-.268-.779-.423-1.676-.423-2.61 0-2.077.766-3.976 2.031-5.428l-.008.01c.603-.683 1.306-1.259 2.09-1.711l.04-.021c.145.27.255.583.313.915l.003.019z"/></svg>