<!--Generated by Fontisto--><svg viewBox="0 0 35 24" xmlns="http://www.w3.org/2000/svg"><path d="m34.534 10.942-5.662-8.223c-.186-.264-.488-.434-.831-.436h-5.021v-1.28s0-.001 0-.002c0-.551-.446-.997-.997-.997h-.001-21.025c-.001 0-.002 0-.002 0-.55 0-.995.446-.995.995v.003 18.56c0 .349.283.632.632.634h2.983c0-.018 0-.038 0-.059 0-2.419 1.961-4.381 4.381-4.381s4.381 1.961 4.381 4.381v.062-.003h7.065c0-.018 0-.038 0-.059 0-2.419 1.961-4.381 4.381-4.381s4.381 1.961 4.381 4.381v.062-.003h5.983c.349-.001.632-.284.632-.634v-7.76c-.012-.323-.116-.62-.286-.867l.004.006zm-19.284-2.305h-2.698v2.697h-2.448v-2.694h-2.698v-2.45h2.698v-2.707h2.448v2.697h2.698zm17.903 2.59c-.038.07-.111.116-.195.116h-9.936v-7.861h4.451c.316.002.594.158.764.397l.002.003 4.906 7.12c.023.032.036.072.036.116 0 .037-.01.071-.027.101l.001-.001z"/><path d="m7.986 16.414h-.001c-2.095 0-3.794 1.698-3.794 3.794s1.698 3.794 3.794 3.794c2.095 0 3.794-1.698 3.794-3.794 0-.001 0-.002 0-.003-.002-2.094-1.699-3.79-3.793-3.791zm0 5.083c-.713 0-1.291-.578-1.291-1.291s.578-1.291 1.291-1.291 1.291.578 1.291 1.291v.001c0 .713-.578 1.29-1.29 1.29z"/><path d="m23.815 16.414h-.001c-2.095 0-3.794 1.698-3.794 3.794s1.698 3.794 3.794 3.794c2.095 0 3.794-1.698 3.794-3.794 0-.001 0-.002 0-.003-.002-2.094-1.699-3.79-3.793-3.791zm0 5.083c-.713 0-1.291-.578-1.291-1.291s.578-1.291 1.291-1.291 1.291.578 1.291 1.291v.001c0 .713-.578 1.29-1.29 1.29z"/><path d="m26.806 1.93v-.712c.002-.017.003-.038.003-.058 0-.341-.256-.622-.587-.662h-.003-1.12c-.333.036-.59.316-.59.656 0 .023.001.045.003.067v-.003.712z"/></svg>