<!--Generated by Fontisto--><svg viewBox="0 0 24 24" xmlns="http://www.w3.org/2000/svg"><path d="m15.815 2.296c.692-.689 1.646-1.116 2.7-1.116s2.009.426 2.7 1.116l.492.492c.689.692 1.116 1.646 1.116 2.7s-.426 2.009-1.116 2.7l-2.137 2.137.838.839 2.138-2.138c.904-.905 1.464-2.155 1.464-3.536s-.559-2.631-1.464-3.536l-.492-.492c-.905-.905-2.155-1.464-3.536-1.464s-2.631.56-3.536 1.464l-2.138 2.138.838.839z"/><path d="m10.333 19.564-2.138 2.138c-.692.69-1.646 1.116-2.7 1.116s-2.009-.426-2.7-1.116l-.492-.491c-.689-.692-1.115-1.646-1.115-2.7s.426-2.008 1.116-2.701l2.137-2.137-.838-.839-2.138 2.138c-.905.905-1.464 2.155-1.464 3.536s.56 2.631 1.464 3.536l.492.491c.905.905 2.155 1.465 3.536 1.465s2.631-.56 3.536-1.465l2.138-2.138z"/><path d="m22.546 14.972-13.507-13.507c-.905-.905-2.155-1.465-3.536-1.465s-2.631.56-3.536 1.465l-.492.491c-.905.905-1.464 2.155-1.464 3.536s.56 2.631 1.464 3.536l13.507 13.506c.905.905 2.155 1.465 3.536 1.465s2.631-.56 3.536-1.465l.492-.492c.901-.906 1.459-2.156 1.459-3.536s-.557-2.629-1.459-3.536zm-17.268-3.811-2.972-2.972c-.689-.692-1.116-1.646-1.116-2.7s.426-2.009 1.116-2.7l.492-.491c.692-.689 1.646-1.116 2.7-1.116s2.009.426 2.7 1.116l2.972 2.972zm16.428 10.043-.492.492c-.692.689-1.646 1.115-2.7 1.115s-2.009-.426-2.701-1.116l-2.972-2.971 5.894-5.894 2.972 2.972c.691.692 1.119 1.648 1.119 2.704s-.428 2.011-1.119 2.704z"/><path d="m9.261 6.069c.103-.102.166-.243.166-.398 0-.309-.251-.56-.56-.56s-.56.251-.56.56c0 .156.064.297.166.398.1.102.24.165.394.165s.293-.063.394-.165z"/><path d="m5.286 2.094c-.103.102-.166.243-.166.398 0 .309.251.56.56.56s.56-.251.56-.56c0-.156-.064-.297-.166-.398-.101-.1-.24-.162-.394-.162s-.293.062-.394.162z"/><path d="m5.286 8.464c-.103.102-.166.243-.166.398 0 .309.251.56.56.56s.56-.251.56-.56c0-.156-.064-.297-.166-.398-.101-.1-.24-.162-.394-.162s-.293.062-.394.162z"/><path d="m2.098 5.276c-.103.102-.166.243-.166.398 0 .309.251.56.56.56s.56-.251.56-.56c0-.156-.064-.297-.166-.398-.101-.1-.24-.162-.394-.162s-.292.062-.394.162z"/><path d="m6.071 6.076c.103-.102.166-.243.166-.398 0-.309-.251-.56-.56-.56s-.56.251-.56.56c0 .156.064.297.166.398.101.1.24.162.394.162s.293-.062.394-.162z"/><path d="m21.922 17.936c-.102-.103-.243-.166-.398-.166-.309 0-.56.251-.56.56s.251.56.56.56c.156 0 .297-.064.398-.166.1-.101.162-.24.162-.394s-.062-.293-.162-.394z"/><path d="m17.939 14.748c-.103.102-.166.243-.166.398 0 .309.251.56.56.56s.56-.251.56-.56c0-.156-.064-.297-.166-.398-.101-.1-.24-.162-.394-.162s-.293.062-.394.162z"/><path d="m17.939 21.118c-.103.102-.166.243-.166.398 0 .309.251.56.56.56s.56-.251.56-.56c0-.156-.064-.297-.166-.398-.101-.1-.24-.162-.394-.162s-.293.062-.394.162z"/><path d="m14.758 17.936c-.103.102-.166.243-.166.398 0 .309.251.56.56.56s.56-.251.56-.56c0-.156-.064-.297-.166-.398-.101-.1-.24-.162-.394-.162s-.293.062-.394.162z"/><path d="m18.726 18.731c.103-.102.166-.243.166-.398 0-.309-.251-.56-.56-.56s-.56.251-.56.56c0 .156.064.297.166.398.101.1.24.162.394.162s.293-.062.394-.162z"/></svg>