<!--Generated by Fontisto--><svg viewBox="0 0 14 24" xmlns="http://www.w3.org/2000/svg"><path d="m7.127 15.608c2.877-.004 5.208-2.335 5.211-5.211v-4.486h-10.422v4.486c.004 2.876 2.334 5.207 5.21 5.211zm-4.553-9.101h1.84v.406h-1.84zm0 1.475h1.84v.406h-1.84zm0 1.468h1.84v.406h-1.84zm0 1.475h1.84v.406h-1.84z"/><path d="m12.978 0h-12.978v10.4c.004 3.457 2.465 6.338 5.73 6.992l.046.008v.27c0 .21.227.375.51.375h.43v1.456h-.16-.001c-.152 0-.276.124-.276.276v2.15.002c0 .152.123.274.274.274h.002.16v1.797h.83v-1.794h.16.002c.152 0 .276-.124.276-.276v-2.155c0-.152-.124-.276-.276-.276-.001 0-.001 0-.002 0h-.16v-1.456h.43c.286 0 .511-.166.511-.375v-.27c3.311-.661 5.772-3.542 5.776-6.999v-10.4zm0 10.4c-.039 3.202-2.643 5.782-5.85 5.782s-5.811-2.58-5.85-5.778v-.004-9.12h11.7z"/><path d="m2.575 2.09h1.837v.406h-1.837z"/><path d="m2.575 3.564h1.837v.406h-1.837z"/><path d="m2.575 5.039h1.837v.406h-1.837z"/></svg>