<!--Generated by Fontisto--><svg viewBox="0 0 15 24" xmlns="http://www.w3.org/2000/svg"><path d="m14.647 13.663c-.033-.091-.066-.166-.104-.239l.005.011c-.146-.341-1.32-2.609-1.516-2.918l-5.451-10.518-5.59 10.776c-.19.31-1.232 2.32-1.376 2.66l-.057.126c-.353.845-.558 1.826-.558 2.856 0 4.187 3.394 7.582 7.582 7.582s7.582-3.394 7.582-7.582c0-.002 0-.004 0-.006 0-.03.001-.066.001-.101 0-.955-.19-1.866-.535-2.696l.017.047zm-7.062 8.355c-3.085 0-5.585-2.501-5.585-5.586 0-.973.249-1.887.686-2.683l-.015.029c-.069.355-.109.763-.11 1.181v.001c.002 3.697 2.999 6.694 6.696 6.696.113 0 .234 0 .346-.006-.594.233-1.283.368-2.003.368-.008 0-.015 0-.023 0h.001z"/></svg>