<!--Generated by Fontisto--><svg viewBox="0 0 24 24" xmlns="http://www.w3.org/2000/svg"><path d="m7.869.31-7.558 7.559c-.192.19-.31.454-.31.745s.119.555.31.745l14.33 14.331c.19.191.453.31.744.31s.554-.119.744-.31l7.559-7.559c.191-.19.31-.454.31-.745s-.118-.555-.31-.745l-14.33-14.33c-.19-.191-.454-.31-.745-.31s-.555.118-.745.31zm8.665 20.297c-.263.261-.624.422-1.024.422-.802 0-1.453-.65-1.453-1.453s.65-1.453 1.453-1.453c.802 0 1.453.65 1.453 1.453-.001.403-.164.767-.429 1.03zm-2.771-2.764c-.262.26-.623.421-1.022.421-.801 0-1.451-.65-1.451-1.451s.65-1.451 1.451-1.451 1.451.65 1.451 1.451c-.001.403-.165.767-.43 1.03zm-2.77-2.77c-.263.261-.624.422-1.024.422-.802 0-1.453-.65-1.453-1.453s.65-1.453 1.453-1.453c.802 0 1.453.65 1.453 1.453-.001.403-.164.767-.429 1.03zm-2.771-2.771c-.262.259-.621.418-1.018.418-.8 0-1.449-.649-1.449-1.449s.649-1.449 1.449-1.449 1.449.649 1.449 1.449v.001c-.001.403-.166.767-.43 1.03zm-2.764-2.77c-.262.259-.621.418-1.018.418-.8 0-1.449-.649-1.449-1.449s.649-1.449 1.449-1.449 1.449.649 1.449 1.449v.001c-.001.403-.166.767-.43 1.03zm15.145 7.005c-.262.259-.622.419-1.02.419-.801 0-1.45-.649-1.45-1.45s.649-1.45 1.45-1.45 1.45.649 1.45 1.45v.002c-.001.403-.166.767-.43 1.03zm-2.77-2.771c-.262.259-.622.419-1.02.419-.801 0-1.45-.649-1.45-1.45s.649-1.45 1.45-1.45 1.45.649 1.45 1.45v.002c-.001.403-.166.767-.43 1.03zm-2.771-2.77c-.262.259-.622.419-1.02.419-.801 0-1.45-.649-1.45-1.45s.649-1.45 1.45-1.45 1.45.649 1.45 1.45v.002c-.001.403-.166.767-.43 1.03zm-2.764-2.764c-.262.259-.621.418-1.018.418-.8 0-1.449-.649-1.449-1.449s.649-1.449 1.449-1.449 1.449.649 1.449 1.449v.001c-.001.403-.166.767-.43 1.03zm-2.77-2.77c-.262.259-.621.418-1.018.418-.8 0-1.449-.649-1.449-1.449s.649-1.449 1.449-1.449 1.449.649 1.449 1.449v.001c-.001.403-.166.767-.43 1.03z"/></svg>