<!--Generated by Fontisto--><svg viewBox="0 0 28 24" xmlns="http://www.w3.org/2000/svg"><path d="m25.259 4.206h-6.264v-2.023c-.001-1.205-.978-2.181-2.182-2.182h-6.015c-1.205.001-2.181.978-2.182 2.182v2.023h-6.272c-1.294 0-2.342 1.049-2.342 2.342v15.11c0 1.294 1.049 2.342 2.342 2.342h22.922c1.294 0 2.342-1.049 2.342-2.342v-15.11-.001c0-1.293-1.048-2.342-2.342-2.342-.002 0-.005 0-.007 0zm-14.776-2.024s0-.001 0-.002c0-.17.138-.308.308-.308h.002 6.021.003c.17 0 .307.138.307.307v.003 2.023h-6.64zm3.319 18.591c-3.685 0-6.673-2.988-6.673-6.673s2.988-6.673 6.673-6.673 6.673 2.988 6.673 6.673c0 3.685-2.987 6.672-6.672 6.672z"/><path d="m15.446 9.374h-3.302v3.068h-3.074v3.312h3.078v3.068h3.302v-3.072h3.078v-3.312h-3.082z"/></svg>