<!--Generated by Fontisto--><svg viewBox="0 0 23 24" xmlns="http://www.w3.org/2000/svg"><path d="m18.702-.001h-14.362c-2.397.001-4.339 1.944-4.341 4.34v11.964c.001 2.397 1.944 4.34 4.341 4.342h3.44v1.413h-4v1.942h15.493v-1.942h-4v-1.413h3.434c2.397-.001 4.339-1.944 4.341-4.341v-11.964s0-.001 0-.002c0-2.396-1.942-4.338-4.338-4.338-.002 0-.005 0-.007 0zm1.449 16.312v.001c0 .8-.649 1.449-1.449 1.449h-14.362-.001c-.8 0-1.448-.648-1.448-1.448v-.001-4.979h6.856l.622-2.03 2.88 6.54 1.305-4.544h5.594v5.014zm0-6.457h-6.674l-.507 1.774-2.834-6.435-1.449 4.695h-5.797v-5.543c0-.8.649-1.449 1.449-1.45h14.362c.8 0 1.449.649 1.449 1.449v.001z"/></svg>