<!--Generated by Fontisto--><svg viewBox="0 0 28 24" xmlns="http://www.w3.org/2000/svg"><path d="m27.547 7.39c-.298-2.281-1.514-6.24-6.272-7.182-.585-.124-1.261-.199-1.953-.209h-.007-.146c-2.081.012-3.971.825-5.378 2.145l.004-.004c-1.408-1.319-3.305-2.132-5.392-2.141h-.127c-.7.009-1.376.085-2.03.221l.069-.012c-5.554 1.091-6.222 6.583-6.272 7.208v.021c-.286 2.997.473 10.598 13.472 16.437l.286.126.278-.126c13.704-6.154 13.774-14.175 13.469-16.484zm-14.307-3.869.55.535.55-.535c1.218-1.288 2.926-2.101 4.824-2.141h.007.118c.614.011 1.207.076 1.781.191l-.063-.011c3.914.772 4.922 4.094 5.178 6.006.033.299.052.645.052.996 0 1.695-.439 3.288-1.21 4.67l.025-.049c-1.849 3.607-5.638 6.736-11.262 9.309-11.929-5.45-12.645-12.24-12.394-14.923v-.028c.049-.522.598-5.082 5.172-5.986.508-.104 1.098-.169 1.7-.181h.009.132c1.906.041 3.615.856 4.829 2.143l.003.003z"/></svg>