<!--Generated by Fontisto--><svg viewBox="0 0 24 24" xmlns="http://www.w3.org/2000/svg"><path d="m2.861 12.033c-.004 0-.009 0-.014 0-1.242 0-2.249-1.007-2.249-2.249s1.007-2.249 2.249-2.249c.818 0 1.535.437 1.928 1.091l.006.01h.684c-.453-1.013-1.452-1.707-2.614-1.707-1.576 0-2.854 1.278-2.854 2.854s1.278 2.854 2.854 2.854c1.007 0 1.892-.521 2.4-1.309l.007-.011-.617-.173c-.415.537-1.057.882-1.78.888h-.001z"/><path d="m23.552 12.254c-1.746-2.593-4.671-4.276-7.988-4.276-.052 0-.104 0-.157.001h.008-.066l-.178-.739-.183-.011-.32.017-.1.772c-.956.031-1.82.398-2.484.987l.004-.004h-9.6l.622 1.334 7.6 2.14c.11 1.908 1.529 3.453 3.367 3.757l.023.003-.278.806h-2c-.236 0-.428.192-.428.428s.192.428.428.428h10.32c.236 0 .428-.192.428-.428s-.192-.428-.428-.428h-1.595l-.394-.806c2.012-.19 3.218-.751 3.68-1.718.108-.26.171-.563.171-.88 0-.519-.168-.998-.453-1.387l.005.007zm-9.514.461v.939h-1.106v-.939h-.932v-1.106h.939v-.939h1.106v.939h.939v1.106zm.5 4.325.259-.761h4.602l.373.761zm8.854-3.952c-.114.217-.338.362-.595.362h-3.6c-2.071-.024-3.741-1.708-3.741-3.783 0-.011 0-.021 0-.031v.002-.145c0-.106.006-.211.011-.32.04-.494.451-.88.951-.88h.009.021c.03 0 .059.002.088.005h-.003c2.857.268 5.302 1.821 6.779 4.068l.021.034c.082.107.131.243.131.39 0 .109-.027.211-.075.301l.002-.004z"/><path d="m21.918 7.742c.017.002.036.003.055.003.242 0 .438-.195.44-.436v-1.273c0-.001 0-.002 0-.003 0-.126-.056-.239-.144-.316h-.001c-.079-.071-.184-.114-.3-.114-.014 0-.028.001-.041.002h.002l-7.02.767-7.019-.767c-.012-.001-.026-.002-.04-.002-.115 0-.22.043-.299.114-.089.078-.144.192-.144.319v.001 1.273c.003.241.199.436.441.436.019 0 .038-.001.057-.004h-.002l7.006-.951z"/></svg>