<!--Generated by Fontisto--><svg viewBox="0 0 23 24" xmlns="http://www.w3.org/2000/svg"><path d="m22.171 19.68-7.352-11.311v-5.407h1.708v-2.962h-10.429v2.965h1.722v5.407l-7.366 11.308c-.285.431-.455.96-.455 1.528 0 1.542 1.25 2.792 2.792 2.792h.003 17.031c1.544-.003 2.795-1.255 2.795-2.8 0-.565-.167-1.091-.455-1.531l.007.011zm-.905 2.302c-.282.513-.818.854-1.434.854-.002 0-.004 0-.006 0h-17.032c-.001 0-.002 0-.003 0-.904 0-1.636-.732-1.636-1.636 0-.33.098-.638.266-.895l-.004.006 7.549-11.6v-5.751h4.686v5.754l7.541 11.6c.17.251.272.561.272.895 0 .285-.074.553-.204.785l.004-.008z"/><path d="m14.412 12.351h-6.191l-5.655 8.698c-.03.045-.048.1-.048.159 0 .051.013.098.036.14l-.001-.001c.05.087.142.145.248.146h17.031.001c.106 0 .198-.058.247-.145l.001-.001c.022-.04.036-.088.036-.138 0-.059-.018-.115-.049-.16l.001.001z"/></svg>