<!--Generated by Fontisto--><svg viewBox="0 0 20 24" xmlns="http://www.w3.org/2000/svg"><path d="m19.534 21.152c.011-.179.017-.387.017-.598 0-1.154-.185-2.264-.527-3.303l.021.075c-.058-.172-.104-1.326-2.014-2.072-1.406-.549-3.291-.454-4.688-1.406-.03-.089-.058-.198-.078-.311l-.002-.015c1.49-.289 2.815-.811 4.006-1.533l-.054.03c-2.012-.572-2.16-3.784-2.301-5.76 0-.558-.111-1.09-.312-1.575l.01.027c-.012-.045-.021-.08-.03-.118l1.176-4.592h-9.962l1.172 4.595c-.01.033-.018.07-.03.117-.191.458-.302.989-.302 1.547-.142 2.022-.302 5.188-2.301 5.76 1.136.691 2.461 1.214 3.873 1.49l.076.012c-.024.13-.052.239-.086.346l.006-.02c-1.396.952-3.28.855-4.688 1.406-1.909.746-1.954 1.9-2.012 2.072-.321.962-.506 2.07-.506 3.221 0 .213.006.424.019.634l-.001-.029c-.01.368 0 .923 1.101 1.406 3.261 1.429 8.64 1.44 8.661 1.44 3.105-.021 6.08-.547 8.857-1.498l-.196.058c1.098-.483 1.105-1.038 1.098-1.409zm-5.727-20.414-.975 3.834h-6.123l-.975-3.834z"/><path d="m8.234 3.063h1.077v1.079h.919v-1.079h1.079v-.917h-1.083v-1.075h-.919v1.079h-1.073z"/></svg>