<!--Generated by Fontisto--><svg viewBox="0 0 22 24" xmlns="http://www.w3.org/2000/svg"><path d="m13.878 17.986c-.924 2.33-3.15 3.951-5.758 3.968h-.002c-.001 0-.002 0-.003 0-3.358 0-6.08-2.722-6.08-6.08 0-2.002.967-3.777 2.46-4.885l.016-.012-.355-2.191c-2.499 1.418-4.158 4.06-4.158 7.09 0 4.487 3.637 8.124 8.124 8.124 3.169 0 5.914-1.814 7.253-4.461l.021-.046z"/><path d="m16.248 15.07c-.072-.071-.15-.136-.234-.194l-.006-.004c-.219-.15-.49-.24-.782-.24h-.001-6.33l-.819-5.047h6.758c.549 0 .994-.445.994-.994s-.445-.994-.994-.994h-7.082l-.111-.672c-.115-.674-.694-1.18-1.392-1.18-.779 0-1.411.632-1.411 1.411 0 .081.007.161.02.239l-.001-.008 1.44 8.825c.135.694.728 1.215 1.446 1.237h.002 6.903l5.409 5.41c.256.263.613.426 1.008.426.776 0 1.406-.629 1.406-1.406 0-.396-.163-.753-.426-1.008z"/><path d="m8.345 2.691c0 1.486-1.205 2.691-2.691 2.691s-2.691-1.205-2.691-2.691 1.205-2.691 2.691-2.691c1.486 0 2.691 1.205 2.691 2.691z"/></svg>