<!--Generated by Fontisto--><svg viewBox="0 0 24 24" xmlns="http://www.w3.org/2000/svg"><path d="m5.294 0c-2.924.001-5.293 2.371-5.294 5.294v13.411c0 2.924 2.37 5.294 5.294 5.294s5.294-2.37 5.294-5.294v-13.411c-.008-2.92-2.373-5.286-5.293-5.294h-.001zm4.141 11.423h-8.282v-6.129c0-2.287 1.854-4.142 4.142-4.142s4.142 1.854 4.142 4.142z"/><path d="m22.237 14.583c-1.05-1.229-2.601-2.003-4.333-2.003-3.142 0-5.689 2.547-5.689 5.689 0 1.033.275 2.002.757 2.837l-.015-.028z"/><path d="m13.57 21.954c1.05 1.229 2.601 2.003 4.333 2.003 3.142 0 5.689-2.547 5.689-5.689 0-1.033-.275-2.002-.757-2.837l.015.028z"/><path d="m18.361.801h.005c2.032 0 3.68 1.648 3.68 3.68 0 .875-.305 1.679-.815 2.31l.005-.007-4.049-5.791c.35-.121.752-.192 1.171-.193h.001zm0-.629c-.002 0-.004 0-.006 0-.778 0-1.507.208-2.136.571l.021-.011 4.916 7.03c.932-.795 1.519-1.971 1.519-3.284 0-2.38-1.929-4.31-4.31-4.31-.003 0-.007 0-.01 0h.001z"/><path d="m15.499 2.179 4.049 5.791c-.352.123-.758.195-1.181.195-2.032 0-3.68-1.648-3.68-3.68 0-.876.306-1.681.817-2.313zm.08-.981c-.935.795-1.525 1.972-1.525 3.287 0 2.378 1.928 4.306 4.306 4.306.783 0 1.517-.209 2.149-.574l-.021.011z"/></svg>