<!--Generated by Fontisto--><svg viewBox="0 0 28 24" xmlns="http://www.w3.org/2000/svg"><path d="m8.606 11.366 2.16-7.008 4.619 10.497 1.022-3.546h11.12c.268-.866.423-1.863.423-2.895 0-.42-.026-.833-.075-1.239l.005.049c-.281-2.127-1.432-6.101-6.094-7.014-.583-.122-1.258-.197-1.948-.208h-.009-.137c-2.266.04-4.295 1.019-5.722 2.563l-.005.005c-1.433-1.548-3.462-2.526-5.72-2.568h-.008-.139c-.699.011-1.373.086-2.027.22l.07-.012c-3.344.724-5.852 3.544-6.093 6.99l-.001.024c-.032.309-.051.669-.051 1.032 0 1.11.171 2.179.489 3.184l-.02-.075z"/><path d="m17.647 12.955-1.935 6.742-4.674-10.619-1.209 3.936h-8.742c1.489 3.296 4.96 7.432 12.874 10.986 8.015-3.6 11.49-7.741 12.96-11.04z"/></svg>