<!--Generated by Fontisto--><svg viewBox="0 0 19 24" xmlns="http://www.w3.org/2000/svg"><path d="m19.267 14.312c0-.002 0-.005 0-.007 0-1.37-1.11-2.48-2.48-2.48s-2.48 1.11-2.48 2.48c0 1.243.914 2.272 2.106 2.452l.014.002v1.726c0 2.405-1.95 4.355-4.355 4.355s-4.355-1.95-4.355-4.355v-2.462h.03c.374 0 .684-.272.743-.629l.001-.004c3.374-.64 5.891-3.56 5.9-7.071v-7.865c-.001-.125-.053-.238-.135-.32-.082-.081-.194-.13-.318-.13-.002 0-.004 0-.006 0h-2.301c-.25 0-.452.203-.453.453v.618c0 .25.203.452.453.453h1.252v6.781c-.003 2.693-1.876 4.947-4.389 5.536l-.039.008c-.111-.288-.385-.489-.706-.489h-.001-1.134c-.32.002-.593.202-.704.483l-.002.005c-2.542-.607-4.403-2.857-4.407-5.542v-6.782h1.252.006c.25 0 .453-.203.453-.453v-.618c0-.25-.203-.453-.453-.453-.002 0-.004 0-.007 0h-2.293c-.002 0-.004 0-.006 0-.25 0-.452.202-.452.452v.001 7.858c.005 3.503 2.509 6.421 5.825 7.065l.045.007c.056.345.34.609.69.633h.002v2.469.066c0 3.045 2.469 5.514 5.514 5.514s5.514-2.469 5.514-5.514c0-.023 0-.047 0-.07v.004-1.826c.984-.347 1.677-1.267 1.679-2.35zm-3.816 0c.001-.739.6-1.337 1.339-1.337s1.339.6 1.339 1.339-.6 1.339-1.339 1.339c-.74 0-1.339-.6-1.339-1.339 0-.001 0-.002 0-.003z"/></svg>