<!--Generated by Fontisto--><svg viewBox="0 0 24 24" xmlns="http://www.w3.org/2000/svg"><path d="m1.522 1.298-.233.233c-.797.801-1.29 1.905-1.29 3.124s.493 2.323 1.29 3.124l12.577 12.577c.524.524 1.224.87 2.005.942l.013.001 4.014.362 1.974 1.974c.229.251.557.407.922.407.689 0 1.247-.558 1.247-1.247 0-.364-.156-.691-.404-.919l-.001-.001-1.974-1.974-.362-4.014c-.078-.792-.423-1.491-.943-2.017l-12.576-12.576c-.801-.797-1.905-1.29-3.125-1.29-1.223 0-2.331.496-3.132 1.298zm18.013 13.381c.339.342.565.798.616 1.305l.001.009.32 3.52-.972.973-3.52-.32c-.517-.048-.973-.275-1.313-.617l-.452-.451.856-.856-.623-.625-.855.856-1.13-1.13.856-.856-.623-.625-.855.856-1.141-1.139.855-.856-.625-.625-.855.856-1.13-1.13.856-.856-.625-.625-.855.856-1.139-1.139.855-.856-.625-.625-.855.856-1.129-1.13.855-.856-.625-.625-.855.856-1.139-1.139.855-.856-.624-.625-.856.856-.943-.942c-.592-.593-.959-1.411-.959-2.315s.366-1.723.959-2.315l.233-.233c.593-.592 1.411-.959 2.315-.959s1.723.366 2.315.959z"/><path d="m4.389 4.397c-.121.122-.195.29-.195.476s.075.353.195.476l13.28 13.28c.125.16.318.262.535.262.374 0 .678-.303.678-.678 0-.217-.102-.41-.26-.534l-.001-.001-13.28-13.28c-.122-.121-.29-.195-.476-.195s-.353.074-.475.195z"/></svg>