<!--Generated by Fontisto--><svg viewBox="0 0 22 24" xmlns="http://www.w3.org/2000/svg"><path d="m20.18 11.042c.136.084.301.133.478.133.51 0 .923-.413.923-.923 0-.345-.189-.645-.469-.804l-.005-.002-2.052-1.185 2.173-1.262c.441-.258-.487-1.854-.927-1.596l-2.173 1.262v-2.372c0-.517-1.854-.517-1.854 0v3.42l-2.948 1.702-1.733-.973v-3.42l2.979-1.717c.441-.258-.487-1.854-.927-1.596l-2.052 1.185v-2.508c0-.517-1.854-.517-1.854 0v2.508l-2.052-1.185c-.441-.258-1.366 1.353-.927 1.596l2.979 1.717v3.42l-1.733.973-2.934-1.702v-3.451c0-.517-1.854-.517-1.854 0v2.372l-2.173-1.262c-.441-.258-1.366 1.353-.927 1.596l2.173 1.262-2.052 1.185c-.441.258.487 1.854.927 1.596l2.979-1.717 2.948 1.702v1.991l-2.948 1.717-2.979-1.717c-.441-.258-1.366 1.353-.927 1.596l2.052 1.185-2.173 1.262c-.441.258.487 1.854.927 1.596l2.173-1.262v2.372c0 .517 1.854.517 1.854 0v-3.451l2.948-1.702 1.733.973v3.42l-2.979 1.717c-.441.258.487 1.854.927 1.596l2.052-1.185v2.511c0 .517 1.854.517 1.854 0v-2.508l2.052 1.185c.441.258 1.366-1.353.927-1.596l-2.979-1.717v-3.423l1.733-.973 2.948 1.702v3.451c0 .517 1.854.517 1.854 0v-2.372l2.173 1.262c.441.258 1.366-1.353.927-1.596l-2.173-1.262 2.052-1.185c.441-.258-.487-1.854-.927-1.596l-2.994 1.717-2.948-1.702v-1.991l2.964-1.702zm-7.463 2.157-.927.517-.198.106-.927.517-.927-.517-.198-.106-.927-.517v-2.385l.927-.517.198-.106.927-.517.927.517.198.106.927.517v1.306z"/></svg>