<!--Generated by Fontisto--><svg viewBox="0 0 22 24" xmlns="http://www.w3.org/2000/svg"><path d="m3.752 17.796v2.5c0 .515 1.848.515 1.848 0v-3.56z"/><path d="m4.131 14.19-3.091-1.788c-.439-.258-1.364 1.348-.924 1.591l2.17 1.243z"/><path d="m17.949 3.72c0-.515-1.848-.515-1.848 0v3.56l1.848-1.06z"/><path d="m17.571 9.81 3.091 1.788c.439.258 1.364-1.348.924-1.591l-2.17-1.243z"/><path d="m6.3 3.31 3.091 1.788v-2.136l-2.17-1.243c-.438-.273-1.362 1.333-.921 1.591z"/><path d="m14.483 1.705-2.17 1.243v2.136l3.091-1.788c.439-.242-.487-1.847-.921-1.591z"/><path d="m15.404 20.705-3.091-1.788v2.136l2.17 1.243c.434.258 1.36-1.348.921-1.591z"/><path d="m7.222 22.296 2.17-1.243v-2.136l-3.092 1.788c-.441.242.482 1.848.922 1.591z"/><path d="m9.934 14.689v8.924c0 .515 1.848.515 1.848 0v-8.924l-.924.515z"/><path d="m8.055 12.553-7.726 4.455c-.439.258.485 1.848.924 1.591l7.71-4.455-.909-.515z"/><path d="m13.646 11.447 7.713-4.455c.439-.258-.485-1.848-.924-1.591l-7.697 4.455.909.515z"/><path d="m21.373 17.008-7.712-4.455v1.076l-.924.516 7.713 4.455c.439.258 1.364-1.334.924-1.591z"/><path d="m8.964 9.857-7.712-4.455c-.439-.258-1.364 1.348-.924 1.591l7.713 4.455v-1.076z"/><path d="m11.767 9.31v-8.924c0-.515-1.848-.515-1.848 0v8.924l.924-.515z"/><path d="m1.04 11.599 3.091-1.788-1.849-1.06-2.17 1.243c-.435.258.488 1.848.928 1.606z"/><path d="m5.6 3.72c0-.515-1.848-.515-1.848 0v2.5l1.848 1.06z"/><path d="m20.662 12.417-3.091 1.788 1.848 1.06 2.17-1.243c.436-.27-.488-1.861-.927-1.606z"/><path d="m16.116 20.296c0 .515 1.848.515 1.848 0v-2.5l-1.848-1.06z"/></svg>