<!--Generated by Fontisto--><svg viewBox="0 0 21 24" xmlns="http://www.w3.org/2000/svg"><path d="m20.188 16.662.8-.461c.033-.018.059-.044.077-.076v-.001c.092-.153 0-.415-.108-.615-.141-.246-.385-.495-.584-.369l-1.431.816-.954-.554.8-.461c.033-.018.059-.044.077-.076v-.001c.02-.045.031-.097.031-.152 0-.001 0-.001 0-.002-.042-.336-.218-.625-.474-.813l-.003-.002c-.039-.03-.088-.049-.142-.049-.044 0-.085.012-.121.034l.001-.001-1.431.816-1.123-.646.566-.323c.03-.022.055-.047.076-.076l.001-.001c.018-.036.029-.078.03-.123-.031-.252-.162-.47-.351-.614l-.002-.002c-.034-.023-.075-.036-.12-.036-.034 0-.065.008-.094.021l.001-.001-1.046.6-2.569-1.477 2.568-1.476 1.046.6c.027.013.059.02.092.02.045 0 .086-.013.121-.036h-.001c.194-.143.326-.362.353-.612v-.004c0-.002 0-.004 0-.006 0-.043-.011-.083-.031-.118l.001.001c-.018-.033-.044-.059-.076-.077h-.001l-.566-.323 1.123-.646 1.431.816c.034.021.075.033.12.033.054 0 .103-.018.143-.049.258-.191.435-.479.476-.81l.001-.006s0-.001 0-.002c0-.055-.011-.107-.032-.154l.001.002c-.022-.03-.047-.055-.076-.076l-.001-.001-.8-.461.954-.554 1.431.816c.2.123.446-.123.584-.369.087-.112.14-.255.14-.41 0-.074-.012-.144-.034-.21l.001.005c-.018-.033-.044-.059-.076-.077h-.001l-.8-.461 1-.584c.062-.046.062-.338-.2-.784-.246-.446-.508-.6-.584-.554l-1 .584v-.939c-.001-.04-.013-.077-.032-.109l.001.001c-.129-.133-.309-.216-.509-.216-.027 0-.053.001-.078.004h.003c-.277 0-.615.077-.615.323v1.646l-.954.554v-.939c0-.003 0-.007 0-.011 0-.036-.012-.07-.031-.097-.03-.047-.072-.083-.121-.107l-.002-.001c-.138-.066-.299-.104-.469-.104s-.332.038-.476.107l.007-.003c-.077.046-.133.121-.153.21v.002 1.646l-1.123.646v-.661c.001-.004.001-.009.001-.014 0-.03-.012-.058-.031-.078-.023-.038-.054-.069-.091-.091l-.001-.001c-.105-.044-.226-.069-.354-.069s-.249.025-.36.071l.006-.002c-.072.032-.121.103-.123.184v1.203l-2.569 1.477v-2.971l1.046-.6c.065-.039.108-.11.108-.19 0-.004 0-.007 0-.011-.031-.252-.162-.47-.351-.614l-.002-.002c-.034-.023-.075-.036-.12-.036-.034 0-.065.008-.094.021l.001-.001-.566.323v-1.292l1.431-.816c.074-.046.123-.127.123-.219 0-.004 0-.008 0-.012v.001c-.042-.336-.218-.625-.474-.813l-.003-.002c-.039-.03-.088-.049-.142-.049-.044 0-.085.012-.121.034l.001-.001-.8.461v-1.092l1.431-.816c.2-.123.108-.446-.031-.693s-.385-.495-.584-.369l-.8.461v-1.158c0-.077-.262-.212-.769-.212s-.769.141-.769.212v1.154l-.8-.461c-.2-.123-.446.123-.584.369s-.231.566-.031.693l1.431.816v1.092l-.8-.461c-.034-.021-.075-.033-.12-.033-.054 0-.103.018-.143.049-.258.191-.435.479-.476.81l-.001.006c0 .153.077.212.123.231l1.431.816v1.292l-.566-.323c-.027-.013-.059-.02-.092-.02-.045 0-.086.013-.121.036h.001c-.194.143-.326.362-.353.612v.004c0 .005-.001.01-.001.015 0 .079.043.148.107.184l.001.001 1.046.6v2.971l-2.569-1.477v-1.203c-.002-.082-.051-.152-.122-.184l-.001-.001c-.105-.044-.226-.069-.354-.069s-.249.025-.36.071l.006-.002c-.072.032-.121.103-.123.184v.662l-1.123-.646v-1.646c-.002-.098-.065-.18-.152-.212l-.002-.001c-.138-.066-.299-.104-.469-.104s-.332.038-.476.107l.007-.003c-.123.077-.153.169-.141.212v.939l-.954-.554v-1.643c0-.231-.338-.323-.615-.323s-.615.077-.615.323v.939l-1-.584c-.062-.046-.323.123-.584.554-.246.446-.262.739-.2.784l1 .584-.8.461c-.2.123-.108.446.031.693s.385.495.584.369l1.431-.816.954.554-.8.461c-.074.046-.123.127-.123.219v.012-.001c.042.336.218.625.474.813l.003.002c.039.03.088.049.142.049.044 0 .085-.012.121-.034l-.001.001 1.431-.816 1.123.646-.566.323c-.065.039-.108.11-.108.19v.011c.031.252.162.47.351.614l.002.002c.034.023.075.036.12.036.034 0 .065-.008.094-.021l-.001.001 1.046-.6 2.569 1.477-2.569 1.477-1.046-.6c-.027-.013-.059-.02-.092-.02-.045 0-.086.013-.121.036h.001c-.194.143-.326.362-.353.612v.004c0 .005-.001.01-.001.015 0 .079.043.148.107.184l.001.001.566.323-1.123.646-1.431-.816c-.034-.021-.075-.033-.12-.033-.054 0-.103.018-.143.049-.258.191-.435.479-.476.81l-.001.006c0 .153.077.212.123.231l.8.461-.954.554-1.431-.816c-.2-.123-.446.123-.584.369s-.231.566-.031.693l.8.461-1 .584c-.062.046-.062.338.2.784.246.446.508.6.584.554l1-.584v.939c0 .231.338.323.615.323s.615-.077.615-.323v-1.646l.954-.554v.939c.002.094.059.175.14.212l.002.001c.138.066.299.104.469.104s.332-.038.476-.107l-.007.003c.077-.046.133-.121.153-.21v-.002-1.646l1.123-.646v.661c.002.082.051.152.122.184l.001.001c.105.044.226.069.354.069s.249-.025.36-.071l-.006.002c.072-.032.121-.103.123-.184v-1.203l2.554-1.476v2.971l-1.046.6c-.065.039-.108.11-.108.19v.011c.031.252.162.47.351.614l.002.002c.031.02.069.032.11.032h.014-.001.007c.032 0 .062-.012.085-.031l.566-.323v1.292l-1.458.799c-.074.046-.123.127-.123.219v.012-.001c.042.336.218.625.474.813l.003.002c.044.026.097.043.153.046h.001.006c.038 0 .073-.012.102-.032h-.001l.8-.461v1.092l-1.431.816c-.2.123-.108.446.03.693.123.2.292.4.477.4.04-.003.076-.015.109-.032l-.002.001.8-.461v1.154c0 .077.262.212.769.212s.769-.141.769-.212v-1.154l.8.461c.031.017.068.028.106.031h.001c.169 0 .354-.2.477-.4.141-.246.231-.566.03-.693l-1.431-.816v-1.092l.8.461c.031.019.068.03.107.031.057-.003.109-.02.155-.047l-.002.001c.258-.191.435-.479.476-.81l.001-.006c0-.153-.077-.212-.123-.231l-1.431-.816v-1.292l.566.323c.022.019.052.031.084.031h.008c.046-.005.087-.016.126-.032l-.003.001c.194-.143.326-.362.353-.612v-.004c0-.005.001-.01.001-.015 0-.079-.043-.148-.107-.184l-.001-.001-1.046-.6v-2.971l2.569 1.477v1.203c.002.082.051.152.122.184l.001.001c.105.044.226.069.354.069s.249-.025.36-.071l-.006.002c.038-.023.069-.054.091-.091l.001-.001c.014-.027.025-.057.031-.09v-.002-.661l1.123.646v1.646c.002.098.065.18.152.212l.002.001c.138.066.299.104.469.104s.332-.038.476-.107l-.007.003c.048-.029.089-.065.122-.107l.001-.001c.02-.027.031-.061.031-.097 0-.004 0-.007 0-.011v-.939l.954.554v1.646c0 .231.338.323.615.323.023.003.049.004.075.004.2 0 .38-.083.509-.216.016-.031.027-.068.03-.107v-.001-.939l1 .584c.062.046.323-.123.584-.554.246-.446.262-.739.2-.784z"/></svg>