<!--Generated by Fontisto--><svg viewBox="0 0 22 24" xmlns="http://www.w3.org/2000/svg"><path d="m3.805 17.884v2.535c0 .522 1.874.522 1.874 0v-3.611z"/><path d="m4.189 14.228-3.134-1.813c-.445-.261-1.383 1.367-.937 1.614l2.201 1.26z"/><path d="m18.217 6.13v-2.535c0-.522-1.874-.522-1.874 0v3.611z"/><path d="m17.818 9.787 3.134 1.813c.445.261 1.383-1.367.937-1.614l-2.201-1.26z"/><path d="m6.402 3.196 3.134 1.813v-2.166l-2.201-1.26c-.458-.277-1.394 1.352-.934 1.613z"/><path d="m12.486 4.993 3.134-1.813c.445-.261-.491-1.874-.937-1.614l-2.201 1.26z"/><path d="m15.621 20.835-3.134-1.813v2.166l2.201 1.26c.44.261 1.379-1.367.934-1.613z"/><path d="m9.521 19.021-3.134 1.813c-.445.261.491 1.874.937 1.614l2.201-1.26z"/><path d="m1.07 11.6 3.134-1.813-1.874-1.075-2.201 1.26c-.442.261.48 1.874.94 1.628z"/><path d="m5.679 3.611c0-.522-1.874-.522-1.874 0v2.535l1.874 1.075z"/><path d="m20.952 12.43-3.134 1.813 1.874 1.075 2.201-1.26c.442-.274-.495-1.887-.94-1.628z"/><path d="m16.343 20.42c0 .522 1.874.522 1.874 0v-2.535l-1.874-1.075z"/><path d="m20.476 16.594.86-.491c.246-.139-.261-1.014-.507-.876l-1.367.783-5.623-3.258v-1.506l5.623-3.242 1.367.783c.246.139.753-.737.507-.876l-.86-.491 1.106-.646c.062-.046.062-.338-.2-.783-.246-.445-.507-.599-.587-.553l-1.106.646v-.999c0-.277-1.014-.277-1.014 0v1.582l-5.608 3.242-1.306-.737v-6.499l1.367-.783c.246-.139-.261-1.014-.507-.876l-.86.491v-1.29c0-.073-.261-.215-.768-.215s-.768.139-.768.215v1.29l-.86-.491c-.246-.139-.753.737-.507.876l1.367.783v6.499l-1.306.737-5.608-3.242v-1.582c0-.277-1.014-.277-1.014 0v.999l-1.106-.646c-.062-.046-.323.123-.587.553-.246.445-.261.737-.2.783l1.106.646-.86.491c-.246.139.261 1.014.507.876l1.367-.783 5.623 3.242v1.506l-5.623 3.242-1.367-.783c-.246-.139-.753.737-.507.876l.86.491-1.106.646c-.062.046-.062.338.2.783.246.445.507.599.587.553l1.106-.646v.998c0 .277 1.014.277 1.014 0v-1.582l5.608-3.242 1.306.737v6.499l-1.367.783c-.246.139.261 1.014.507.876l.86-.491v1.29c0 .073.261.215.768.215s.768-.139.768-.215v-1.29l.86.491c.246.139.753-.737.507-.876l-1.367-.783v-6.499l1.306-.737 5.608 3.242v1.582c0 .277 1.014.277 1.014 0v-.999l1.106.646c.062.046.323-.123.587-.553.246-.445.261-.737.2-.783zm-9.463-2.535-1.783-1.014v-2.09l1.783-1.014 1.783 1.014v2.09z"/></svg>