<!--Generated by Fontisto--><svg viewBox="0 0 21 24" xmlns="http://www.w3.org/2000/svg"><path d="m6.752 3.311 2.695 1.545h2.394l2.695-1.56c.44-.257-.485-1.848-.922-1.591l-2.044 1.182v-2.5c0-.515-1.848-.515-1.848 0v2.5l-2.045-1.182c-.455-.258-1.379 1.348-.924 1.606z"/><path d="m20.116 11.021c.44.257 1.364-1.348.922-1.591l-2.045-1.182 2.167-1.257c.44-.257-.485-1.848-.922-1.591l-2.167 1.257v-2.378c0-.515-1.848-.515-1.848 0v3.121l1.197 2.076z"/><path d="m3.206 4.28v2.364l-2.169-1.258c-.44-.257-1.364 1.348-.922 1.591l2.167 1.257-2.045 1.182c-.44.257.485 1.848.922 1.591l2.695-1.56 1.197-2.076v-3.09c.004-.516-1.845-.516-1.845 0z"/><path d="m1.161 12.977c-.44-.257-1.364 1.348-.922 1.591l2.045 1.182-2.169 1.258c-.44.257.485 1.848.922 1.591l2.167-1.257v2.364c0 .515 1.848.515 1.848 0v-3.121l-1.197-2.076z"/><path d="m21.162 17.008-2.167-1.257 2.045-1.182c.44-.257-.485-1.848-.922-1.591l-2.695 1.56-1.201 2.075v3.121c0 .515 1.848.515 1.848 0v-2.362l2.167 1.257c.44.227 1.364-1.364.925-1.621z"/><path d="m14.54 20.704-2.695-1.56h-2.398l-2.695 1.56c-.44.257.485 1.848.922 1.591l2.045-1.182v2.499c0 .515 1.848.515 1.848 0v-2.5l2.045 1.182c.444.26 1.366-1.347.927-1.589z"/><path d="m15.297 8.25-2.015 1.167-1.727-.969v-2.364h-1.85v2.348l-1.727.969-2.015-1.167-.922 1.591 2.015 1.167v1.986l-2.032 1.166.922 1.591 2.015-1.167 1.727.969v2.348h1.848v-2.348l1.727-.969 2.015 1.167.922-1.591-2.015-1.167v-1.986l2.031-1.167zm-4.652 6.182-2.106-1.197v-2.47l2.106-1.197 2.11 1.197v2.469z"/></svg>