<!--Generated by Fontisto--><svg viewBox="0 0 21 24" xmlns="http://www.w3.org/2000/svg"><path d="m16.232 9.832-.923-1.592-3.729 2.153v-4.306h-1.852v4.306l-3.747-2.152-.923 1.592 3.745 2.168-3.745 2.153.923 1.607 3.745-2.168v4.321h1.849v-4.321l3.729 2.168.923-1.607-3.729-2.153z"/><path d="m6.757 3.3 2.697 1.561h2.395l2.697-1.561c.44-.258-.485-1.849-.923-1.592l-2.047 1.182v-2.502c0-.515-1.849-.515-1.849 0v2.502l-2.047-1.182c-.453-.275-1.378 1.331-.923 1.592z"/><path d="m21.175 17.003-2.168-1.258 2.047-1.182c.44-.258-.485-1.849-.923-1.592l-2.697 1.561-1.198 2.077v3.123c0 .515 1.849.515 1.849 0v-2.365l2.168 1.258c.436.227 1.36-1.365.921-1.622z"/><path d="m17.43 9.468 2.697 1.561c.44.258 1.365-1.348.923-1.592l-2.047-1.182 2.168-1.258c.44-.258-.485-1.849-.923-1.592l-2.168 1.258v-2.365c0-.515-1.849-.515-1.849 0v3.123z"/><path d="m.131 6.982 2.168 1.258-2.047 1.182c-.44.258.485 1.849.923 1.592l2.697-1.561 1.198-2.077v-3.123c0-.515-1.849-.515-1.849 0v2.365l-2.168-1.258c-.451-.228-1.375 1.364-.921 1.622z"/><path d="m14.549 20.702-2.697-1.561h-2.399l-2.697 1.561c-.44.258.485 1.849.923 1.592l2.047-1.182v2.5c0 .515 1.849.515 1.849 0v-2.502l2.047 1.182c.444.26 1.367-1.332.928-1.59z"/><path d="m3.861 14.532-2.697-1.561c-.44-.258-1.365 1.348-.923 1.592l2.047 1.182-2.168 1.258c-.44.258.485 1.849.923 1.592l2.168-1.258v2.365c0 .515 1.849.515 1.849 0v-3.123z"/></svg>