<!--Generated by Fontisto--><svg viewBox="0 0 23 24" xmlns="http://www.w3.org/2000/svg"><path d="m22.122 14.326-2.379 1.381-1.228-.712 1.591-.921c.379-.212-.409-1.561-.788-1.348l-2.379 1.381-3.586-2.097 3.607-2.091 2.379 1.381c.379.212 1.151-1.137.788-1.348l-1.591-.921 1.228-.712 2.379 1.381c.379.212 1.151-1.137.788-1.348l-1.591-.921.712-.409c.44-.258-.485-1.849-.921-1.591l-.712.409v-1.849c0-.424-1.561-.424-1.561 0v2.743l-1.228.712v-1.849c0-.424-1.561-.424-1.561 0v2.729l-3.607 2.091v-4.166l2.379-1.381c.379-.212-.409-1.561-.788-1.348l-1.591.921v-1.424l2.379-1.381c.379-.212-.409-1.561-.788-1.348l-1.591.921v-.833c0-.515-1.849-.515-1.849 0v.833l-1.622-.921c-.379-.212-1.151 1.137-.788 1.348l2.379 1.381v1.409l-1.591-.921c-.379-.212-1.151 1.137-.788 1.348l2.379 1.381v4.163l-3.591-2.072v-2.742c0-.424-1.561-.424-1.561 0v1.833l-1.228-.712v-2.743c0-.424-1.561-.424-1.561 0v1.849l-.712-.409c-.44-.258-1.364 1.348-.921 1.591l.712.409-1.596.924c-.379.212.409 1.561.788 1.348l2.379-1.381 1.228.712-1.622.941c-.379.212.409 1.561.788 1.348l2.379-1.381 3.607 2.091-3.607 2.072-2.379-1.364c-.379-.212-1.151 1.137-.788 1.348l1.591.921-1.228.712-2.379-1.381c-.379-.212-1.151 1.137-.788 1.348l1.591.921-.712.409c-.44.258.485 1.849.921 1.591l.712-.409v1.849c0 .424 1.561.424 1.561 0v-2.743l1.228-.712v1.849c0 .424 1.561.424 1.561 0v-2.742l3.607-2.091v4.183l-2.379 1.381c-.379.212.409 1.561.788 1.348l1.591-.921v1.409l-2.379 1.381c-.379.212.409 1.561.788 1.348l1.591-.921v.833c0 .515 1.849.515 1.849 0v-.833l1.591.921c.379.212 1.151-1.137.788-1.348l-2.379-1.381v-1.409l1.591.921c.379.212 1.151-1.137.788-1.348l-2.379-1.381v-4.166l3.607 2.091v2.742c0 .424 1.561.424 1.561 0v-1.849l1.228.712v2.743c0 .424 1.561.424 1.561 0v-1.849l.712.409c.44.258 1.364-1.348.921-1.591l-.712-.409 1.591-.921c.394-.215-.374-1.565-.757-1.353z"/></svg>