<!--Generated by Fontisto--><svg viewBox="0 0 21 24" xmlns="http://www.w3.org/2000/svg"><path d="m21.188 17.029-2.17-1.259 2.047-1.183c.44-.258-.486-1.851-.923-1.593l-2.973 1.714-4.673-2.699 4.673-2.699 2.973 1.711c.44.258 1.366-1.349.923-1.593l-2.048-1.183 2.17-1.259c.44-.258-.486-1.851-.923-1.593l-2.17 1.259v-2.367c0-.516-1.851-.516-1.851 0v3.444l-4.673 2.699v-5.397l2.973-1.714c.44-.258-.486-1.851-.923-1.593l-2.036 1.167v-2.503c0-.516-1.851-.516-1.851 0v2.503l-2.048-1.184c-.44-.258-1.366 1.349-.923 1.593l2.973 1.714v5.386l-4.673-2.699v-3.415c0-.516-1.851-.516-1.851 0v2.366l-2.174-1.259c-.44-.258-1.366 1.349-.923 1.593l2.17 1.259-2.048 1.183c-.44.258.486 1.851.923 1.593l2.973-1.714 4.673 2.716-4.673 2.699-2.973-1.714c-.44-.258-1.366 1.349-.923 1.593l2.048 1.183-2.17 1.262c-.44.258.486 1.851.923 1.593l2.17-1.259v2.367c0 .516 1.851.516 1.851 0v-3.447l4.673-2.699v5.386l-2.971 1.716c-.44.258.486 1.851.923 1.593l2.048-1.183v2.502c0 .516 1.851.516 1.851 0v-2.503l2.048 1.183c.44.258 1.366-1.349.923-1.593l-2.973-1.714v-5.37l4.673 2.699v3.444c0 .516 1.851.516 1.851 0v-2.365l2.17 1.259c.444.227 1.354-1.366.914-1.623z"/></svg>