<!--Generated by Fontisto--><svg viewBox="0 0 21 24" xmlns="http://www.w3.org/2000/svg"><path d="m20.662 14.947-1.531.879-1.394-.803 1.621-.939c.379-.213-.409-1.591-.788-1.364l-2.409 1.394-1.939-1.121v-1.985l1.939-1.121 2.409 1.394c.379.213 1.167-1.151.788-1.364l-1.62-.939 1.394-.803 1.531.879c.273.167.863-.848.576-1l-.954-.546.893-.515c.439-.257-.485-1.848-.924-1.591l-.894.515v-1.106c0-.318-1.167-.318-1.167 0v1.772l-1.394.803v-1.879c0-.439-1.575-.439-1.575 0v2.788l-1.924 1.106-1.727-.97v-2.242l2.408-1.393c.379-.213-.409-1.591-.788-1.364l-1.619.937v-1.605l1.53-.882c.273-.167-.303-1.167-.576-1l-.954.546v-1.042c0-.515-1.848-.515-1.848 0v1.03l-.954-.546c-.273-.167-.863.848-.576 1l1.529.879v1.606l-1.622-.939c-.379-.213-1.167 1.151-.788 1.364l2.409 1.394v2.243l-1.727.969-1.924-1.121v-2.758c0-.439-1.575-.439-1.575 0v1.879l-1.394-.803v-1.772c0-.318-1.167-.318-1.167 0v1.106l-.894-.515c-.439-.257-1.364 1.35-.924 1.591l.894.515-.939.546c-.273.167.303 1.167.576 1l1.546-.879 1.394.803-1.622.939c-.379.213.409 1.591.788 1.364l2.409-1.394 1.939 1.121v1.985l-1.939 1.121-2.411-1.393c-.379-.213-1.167 1.151-.788 1.364l1.621.939-1.394.803-1.528-.879c-.273-.167-.863.848-.576 1l.954.546-.894.515c-.439.257.485 1.848.924 1.591l.895-.514v1.106c0 .318 1.167.318 1.167 0v-1.774l1.396-.803v1.879c0 .439 1.575.439 1.575 0v-2.788l1.924-1.106 1.727.97v2.243l-2.409 1.394c-.379.213.409 1.591.788 1.364l1.621-.939v1.606l-1.546.894c-.273.167.303 1.167.576 1l.954-.546v1.03c0 .515 1.848.515 1.848 0v-1.03l.954.546c.273.167.863-.848.576-1l-1.531-.879v-1.606l1.621.939c.379.213 1.167-1.151.788-1.364l-2.409-1.394v-2.242l1.727-.97 1.924 1.121v2.758c0 .439 1.575.439 1.575 0v-1.879l1.394.803v1.773c0 .318 1.167.318 1.167 0v-1.105l.894.515c.439.257 1.364-1.35.924-1.591l-.894-.515.954-.546c.259-.168-.318-1.168-.591-1.001zm-10-.591-2.045-1.167v-2.378l2.045-1.151 2.045 1.151v2.379z"/></svg>