<!--Generated by Fontisto--><svg viewBox="0 0 19 24" xmlns="http://www.w3.org/2000/svg"><path d="m18.58 20.72-.08.08c-1.971 1.981-4.7 3.206-7.714 3.206s-5.743-1.226-7.714-3.206c-1.586-1.568-2.687-3.624-3.059-5.925l-.008-.062q-.054-.375.64-.48.683-.107.75.268c.009.013.014.028.014.045v.009c.157.813.37 1.527.644 2.209l-.028-.08c.492 1.181 1.18 2.187 2.035 3.025l.001.001c1.719 1.719 4.093 2.782 6.716 2.782 1.338 0 2.612-.277 3.767-.776l-.062.024c1.171-.506 2.171-1.193 3.014-2.036l.08-.08c.058-.06.14-.098.23-.098.038 0 .074.006.107.018l-.002-.001c.173.068.32.168.441.294q.482.499.228.782zm-6.32-8.24-.88.88.844.844q.282.282-.094.656c-.105.126-.256.21-.426.228h-.003c-.104-.006-.194-.056-.254-.133l-.001-.001-.83-.817-.88.88c-.048.042-.111.068-.18.068-.007 0-.014 0-.022-.001h.001c-.167-.014-.313-.094-.414-.214l-.001-.001-.026-.026c-.13-.087-.22-.225-.24-.385v-.003c.011-.089.05-.168.107-.228l.88-.87-.88-.88q-.214-.214.187-.602c.101-.126.246-.213.411-.24h.004c.067.004.127.029.175.068h-.001l.87.88.87-.87q.24-.228.64.174.354.368.139.594zm6.308.763v.02c0 2.16-.881 4.115-2.303 5.524l-.001.001c-.701.699-1.532 1.268-2.453 1.667l-.051.02c-.901.39-1.951.616-3.054.616s-2.152-.227-3.105-.636l.051.02c-.973-.419-1.804-.988-2.505-1.687-.7-.693-1.266-1.521-1.656-2.441l-.019-.05c-.084-.154-.153-.333-.198-.521l-.003-.015h-.014q-.121-.362.576-.59.67-.214.8.16c.312.862.753 1.606 1.307 2.249l-.008-.009h.014v-4.566c.012-1.226.534-2.328 1.364-3.105l.002-.002c.845-.852 2.017-1.38 3.312-1.38.027 0 .054 0 .08.001h-.004c.022 0 .048-.001.074-.001 1.287 0 2.45.528 3.285 1.379l.001.001c.859.824 1.393 1.982 1.393 3.265 0 .025 0 .049-.001.074v-.004c-.007 2.623-2.132 4.747-4.754 4.754h-.001c-.004 0-.009 0-.015 0-.529 0-1.041-.078-1.523-.224l.037.01q-.375-.147-.174-.817.214-.683.59-.576l.187.04q.187.04.442.08c.118.022.256.036.396.04h.004c.019 0 .041.001.064.001.898 0 1.709-.367 2.293-.96.595-.577.965-1.384.965-2.277 0-.021 0-.042-.001-.063v.003c0-.016 0-.036 0-.055 0-.88-.37-1.674-.963-2.234l-.001-.001c-.578-.588-1.382-.952-2.271-.952-.026 0-.051 0-.077.001h.004c-.018 0-.039-.001-.061-.001-.928 0-1.76.414-2.32 1.068l-.003.004c-.527.559-.852 1.312-.857 2.142v5.532c.908.564 2.009.898 3.189.898h.055-.003.013c.89 0 1.738-.18 2.509-.505l-.043.016c2.346-.982 3.963-3.258 3.964-5.913 0-.026.001-.057.001-.088 0-1.747-.724-3.325-1.888-4.451l-.002-.002c-1.166-1.159-2.773-1.875-4.547-1.875s-3.381.716-4.547 1.875c-.369.355-.707.735-1.014 1.141l-.018.024-.026.026c-.054.077-.111.145-.174.207-.082.057-.178.101-.282.126l-.006.001c-.06.016-.128.025-.199.025-.115 0-.224-.024-.323-.067l.005.002c-.186-.043-.35-.119-.493-.223l.004.003c-.12-.076-.201-.205-.207-.354v-.001-9.104c0-.001 0-.002 0-.003 0-.137.054-.261.141-.352.087-.095.212-.155.351-.155h.018-.001 11.746q.4 0 .4.737t-.4.737h-10.853v6.469h.014c.794-.785 1.723-1.437 2.748-1.916l.06-.025c.901-.39 1.951-.616 3.054-.616h.042-.002.046c1.087 0 2.121.227 3.057.635l-.049-.019c2.848 1.214 4.808 3.99 4.808 7.223v.024-.001zm-.419-7.779c.071.057.117.143.121.239v.001.004c0 .088-.028.17-.075.238l.001-.001q-.074.107-.221.282-.348.348-.522.348c-.085 0-.161-.036-.214-.093-.793-.709-1.707-1.306-2.703-1.752l-.067-.027c-1.067-.474-2.312-.75-3.622-.75-.026 0-.053 0-.079 0h.004c-1.263.002-2.468.243-3.575.679l.067-.023q-.362.134-.602-.495c-.065-.15-.105-.324-.107-.508v-.001c.012-.126.097-.229.212-.267l.002-.001c1.126-.484 2.437-.765 3.814-.765.067 0 .134.001.201.002h-.01.016c1.523 0 2.972.315 4.286.884l-.07-.027c1.216.509 2.258 1.195 3.149 2.04l-.005-.004z"/></svg>