<!--Generated by Fontisto--><svg viewBox="0 0 24 24" xmlns="http://www.w3.org/2000/svg"><path d="m23.678 15.404c-.712-.763-2.171-1.204-4.238-1.204-1.34.009-2.642.143-3.904.393l.131-.022c-.833-.823-1.593-1.714-2.273-2.667l-.042-.062c-.462-.648-.934-1.399-1.363-2.176l-.061-.121c.663-1.807 1.098-3.895 1.208-6.069l.002-.051c0-1.678-.602-3.427-2.348-3.427-.575.02-1.073.334-1.35.795l-.004.007c-.786 1.413-.431 4.508.92 7.565-.502 1.525-1.038 2.983-1.706 4.615-.58 1.381-1.248 2.803-1.929 4.114-3.919 1.593-6.454 3.45-6.691 4.904-.018.09-.028.193-.028.299 0 .453.186.862.486 1.155.392.34.907.547 1.47.547h.016-.001c2.599 0 5.338-4.294 6.729-6.883 1.069-.361 2.137-.689 3.204-1.018 1.172-.324 2.348-.585 3.411-.768 2.744 2.508 5.163 2.91 6.379 2.91 1.497 0 2.031-.619 2.207-1.126.082-.195.13-.421.13-.659 0-.413-.144-.792-.385-1.09l.003.003.02.04zm-1.39 1.058c-.16.536-.648.92-1.226.92-.058 0-.115-.004-.171-.011l.007.001c-.218-.008-.425-.034-.626-.076l.024.004c-1.522-.403-2.838-1.135-3.921-2.12l.008.007c.895-.16 1.925-.251 2.976-.251h.015-.001c.083-.003.18-.005.278-.005.544 0 1.076.054 1.589.158l-.051-.009c.492.106 1.274.436 1.099 1.385h.02zm-7.55-1.713c-.923.191-1.92.415-2.954.695-.819.224-1.672.476-2.528.773.465-.903.857-1.78 1.212-2.609.429-1.023.783-2.077 1.139-3.056.351.612.742 1.234 1.134 1.786.661.903 1.312 1.695 2.005 2.448l-.018-.02v-.02zm-4.665-13.53c.126-.255.382-.43.679-.437h.001c.747 0 .89.871.89 1.565-.113 1.818-.456 3.516-1.004 5.121l.041-.137c-1.066-2.829-1.139-5.197-.602-6.11zm-3.913 16.957c-1.818 3.05-3.562 4.946-4.63 4.946-.2-.002-.383-.071-.529-.185l.002.001c-.165-.144-.268-.355-.268-.589 0-.061.007-.121.02-.178l-.001.005c.214-1.094 2.243-2.622 5.41-4.003z"/></svg>