<!--Generated by Fontisto--><svg viewBox="0 0 20 24" xmlns="http://www.w3.org/2000/svg"><path d="m7.11 5.12c.311 0 .562-.252.562-.562s-.252-.562-.562-.562c-.003 0-.006 0-.01 0-.15 0-.285.064-.379.165-.098.103-.159.243-.159.397s.06.294.159.397c.095.102.23.166.38.166h.011-.001zm6.087 0h.01c.15 0 .285-.064.379-.165.098-.103.159-.243.159-.397s-.06-.294-.159-.397c-.095-.102-.23-.166-.38-.166-.004 0-.007 0-.011 0h.001c-.311 0-.562.252-.562.562s.252.562.562.562zm-11.711 2.654c.811.004 1.468.66 1.471 1.471v6.202.028c0 .4-.163.763-.426 1.025-.257.267-.617.433-1.017.433-.01 0-.02 0-.031 0h.002c-.002 0-.005 0-.008 0-.816 0-1.478-.662-1.478-1.478 0-.003 0-.005 0-.008v-6.202c0-.006 0-.014 0-.021 0-.4.166-.761.433-1.019.26-.266.623-.431 1.025-.431h.029-.001zm15.288.274v9.606.029c0 .429-.177.818-.462 1.096-.276.285-.662.462-1.089.462-.008 0-.015 0-.023 0h.001-1.082v3.274c0 .82-.665 1.486-1.486 1.486s-1.486-.665-1.486-1.486v-3.274h-1.99v3.274.008c0 .816-.662 1.478-1.478 1.478-.003 0-.006 0-.008 0-.006 0-.014 0-.021 0-.4 0-.761-.166-1.019-.433-.267-.261-.433-.624-.433-1.026 0-.009 0-.019 0-.028v.001l-.014-3.274h-1.066c-.003 0-.007 0-.01 0-.87 0-1.576-.706-1.576-1.576 0-.004 0-.007 0-.011v.001-9.606zm-3.346-5.84c1.017.52 1.85 1.272 2.452 2.19l.015.024c.579.866.923 1.932.923 3.077v.032-.002h-13.342c0-.009 0-.02 0-.031 0-1.146.345-2.211.936-3.098l-.013.02c.619-.944 1.457-1.696 2.444-2.197l.036-.017-1.024-1.89c-.025-.032-.04-.072-.04-.116 0-.076.045-.142.11-.172h.001c.03-.019.067-.031.107-.031.08 0 .15.048.182.116l.001.001 1.04 1.904c.854-.383 1.85-.606 2.899-.606s2.045.223 2.945.624l-.046-.018 1.04-1.904c.032-.07.102-.117.182-.117.04 0 .076.012.108.031h-.001c.066.03.112.096.112.173 0 .044-.015.084-.04.116zm6.88 7.04v6.202.008c0 .816-.662 1.478-1.478 1.478-.003 0-.006 0-.008 0-.006 0-.014 0-.021 0-.4 0-.761-.166-1.019-.433-.267-.261-.433-.624-.433-1.026 0-.009 0-.019 0-.028v.001-6.202c0-.009 0-.019 0-.029 0-.399.166-.76.433-1.016.259-.263.619-.426 1.017-.426h.024-.001.028c.4 0 .763.163 1.025.426.267.257.433.617.433 1.017v.027-.001z"/></svg>