<!--Generated by Fontisto--><svg viewBox="0 0 17 24" xmlns="http://www.w3.org/2000/svg"><path d="m12.824 9.957q1.104-2.999 1.722-4.952c.262-.686.477-1.494.609-2.329l.009-.07c.001-.021.002-.047.002-.072 0-.25-.078-.482-.211-.673l.003.004c-.126-.162-.321-.265-.539-.265-.01 0-.021 0-.031.001h.001q-.461 0-.939.766c-.402.703-.76 1.519-1.03 2.373l-.025.09-1.647 4.762zm-2.191 4.432c-.492-.022-.953-.075-1.405-.157l.062.009c-.463-.084-.87-.198-1.26-.346l.049.016q.263.528.469 1.055c.113.274.228.621.323.975l.015.064c.263-.328.535-.621.827-.893l.005-.005c.273-.256.572-.492.889-.704l.025-.016zm-1.861-4.992-1.779-5.141c-.316-.991-.679-1.837-1.111-2.641l.04.082q-.379-.601-.824-.601c-.005 0-.012 0-.018 0-.219 0-.415.103-.541.263l-.001.001c-.135.179-.216.406-.216.651 0 .02.001.04.002.06v-.003c.088.972.292 1.868.6 2.713l-.024-.074q.577 1.878 1.73 4.927c.061-.115.158-.205.276-.254l.004-.001c.132-.048.284-.075.443-.075.018 0 .036 0 .054.001h-.003q.099 0 .396.017t.972.08zm-1.615 7.958c.207-.006.389-.104.51-.254l.001-.001c.139-.143.226-.337.23-.551v-.001c-.094-.547-.252-1.037-.468-1.493l.015.035c-.35-.871-.728-1.61-1.164-2.311l.036.062c-.272-.477-.595-.887-.97-1.242l-.002-.002c-.233-.238-.549-.393-.901-.42h-.005c-.313.041-.582.201-.764.434l-.002.003c-.232.203-.388.488-.419.811v.005c.055.445.201.847.419 1.199l-.007-.013c.345.639.712 1.189 1.122 1.702l-.017-.022c.41.569.86 1.067 1.358 1.511l.009.008c.266.276.616.47 1.009.539l.011.002zm-4.943-.395q.23.281.64.824 1.088 1.499 2.01 1.499h.007c.211 0 .404-.075.555-.199l-.001.001c.138-.09.232-.239.247-.41v-.002c-.052-.312-.168-.59-.334-.831l.004.007c-.294-.495-.593-.92-.921-1.321l.015.019c-.342-.453-.702-.854-1.091-1.223l-.004-.004c-.179-.196-.418-.334-.688-.383l-.008-.001c-.445.027-.83.265-1.06.613l-.003.005c-.303.385-.487.876-.487 1.411 0 .017 0 .033.001.05v-.002c.016.549.139 1.064.348 1.533l-.01-.026c.271.639.6 1.189.992 1.688l-.012-.015c.63.845 1.44 1.522 2.376 1.982l.038.017c.906.442 1.972.701 3.098.701.032 0 .063 0 .095-.001h-.005c.036.001.079.001.122.001 2.095 0 3.974-.926 5.25-2.392l.007-.008c1.348-1.514 2.172-3.522 2.172-5.721 0-.1-.002-.2-.005-.299v.014c.001-.055.002-.12.002-.186 0-.556-.061-1.097-.176-1.618l.009.05c-.075-.38-.269-.707-.542-.946l-.002-.002c-.75-.491-1.636-.844-2.588-1l-.039-.005c-1.205-.283-2.589-.445-4.011-.445-.024 0-.048 0-.071 0h.004c-.037-.004-.08-.006-.123-.006-.265 0-.513.076-.723.206l.006-.003c-.155.149-.252.358-.252.59 0 .03.002.06.005.089v-.004c.008.773.53 1.421 1.24 1.62l.012.003c1.034.329 2.223.518 3.457.518.21 0 .419-.005.626-.016l-.029.001h.674.015c.144 0 .273.067.356.172l.001.001c.104.146.172.323.189.515v.004c-.33.252-.712.456-1.126.593l-.028.008c-.51.185-.951.41-1.357.682l.022-.014c-.64.465-1.171 1.037-1.577 1.695l-.015.025c-.354.533-.575 1.181-.601 1.88v.007c.017.475.109.922.265 1.339l-.01-.029c.109.272.198.591.252.921l.004.026v.115l-.033.148c-.518-.053-.948-.384-1.142-.839l-.003-.009c-.268-.566-.424-1.23-.424-1.93 0-.071.002-.143.005-.213v.01-.148c-.073.067-.157.122-.249.162l-.006.002c-.078.031-.169.05-.264.05-.003 0-.006 0-.009 0-.002 0-.004 0-.006 0-.097 0-.191-.009-.283-.026l.009.001c-.12-.023-.22-.049-.317-.08l.02.006c.028.096.054.216.072.338l.002.016c.013.08.022.174.025.269v.003.005c0 .416-.185.788-.478 1.039l-.002.002c-.29.271-.681.437-1.11.437-.009 0-.019 0-.028 0h.001c-.839-.056-1.579-.434-2.107-1.011l-.002-.002c-.599-.475-1-1.177-1.07-1.975l-.001-.011c0-.004 0-.009 0-.014 0-.109.015-.214.044-.314l-.002.008c.027-.094.075-.175.14-.24zm11.798-6.723c.87.104 1.614.571 2.086 1.243l.006.009c.393.772.624 1.685.624 2.651 0 .146-.005.29-.016.433l.001-.019c.005.11.007.24.007.37 0 2.482-.952 4.742-2.51 6.434l.006-.007c-1.535 1.632-3.709 2.649-6.121 2.649-.093 0-.185-.002-.277-.005h.013c-.002 0-.005 0-.007 0-1.067 0-2.087-.203-3.023-.571l.056.019c-.962-.364-1.786-.887-2.483-1.544l.004.003c-.72-.64-1.316-1.401-1.759-2.255l-.02-.043c-.37-.722-.589-1.574-.593-2.478v-.001c-.004-.065-.007-.141-.007-.217 0-.738.231-1.423.624-1.985l-.007.011c.486-.553 1.154-.935 1.91-1.052l.018-.002c-.118-.257-.241-.579-.345-.91l-.017-.062c-.062-.18-.104-.388-.116-.604v-.006c.048-.613.341-1.149.78-1.517l.003-.003c.362-.429.88-.716 1.466-.773l.009-.001c.225.003.44.042.64.111l-.014-.004c.291.103.542.222.776.365l-.018-.01q-1.269-3.592-1.846-5.544c-.279-.786-.483-1.7-.573-2.648l-.004-.046c-.002-.038-.003-.083-.003-.128 0-.569.2-1.091.534-1.5l-.003.004c.333-.371.813-.603 1.348-.603.03 0 .06.001.09.002h-.004q1.548 0 3.918 6.92.412 1.187.626 1.829.182-.51.511-1.45 2.373-6.855 4.086-6.855c.021-.001.046-.001.071-.001.505 0 .958.22 1.27.568l.001.002c.318.381.511.876.511 1.417 0 .038-.001.077-.003.114v-.005c-.09.979-.285 1.879-.576 2.735l.024-.083q-.553 1.928-1.672 5.038z"/></svg>