<!--Generated by Fontisto--><svg viewBox="0 0 24 24" xmlns="http://www.w3.org/2000/svg"><path d="m12.434 4.693c.132-.225.345-.391.598-.458l.007-.002c.082-.028.176-.044.275-.044.177 0 .341.053.479.143l-.003-.002c.219.139.382.349.458.597l.002.008c.025.078.039.169.039.262 0 .192-.06.369-.162.515l.002-.003-4.21 7.307h3.048.029c.467 0 .87.274 1.057.671l.003.007c.118.192.187.425.187.674 0 .232-.061.45-.167.639l.003-.007h-8.947c-.008 0-.017 0-.027 0-.273 0-.52-.111-.699-.291-.179-.175-.29-.418-.29-.688 0-.005 0-.01 0-.014v.001c0-.004 0-.009 0-.014 0-.27.111-.513.29-.688.178-.18.426-.291.699-.291h.028-.001 2.516l3.193-5.564-.971-1.739c-.1-.143-.16-.321-.16-.512 0-.094.014-.184.041-.269l-.002.006c.078-.256.241-.466.456-.602l.004-.003c.134-.089.299-.141.476-.141.098 0 .193.016.281.046l-.006-.002c.26.069.473.235.602.455l.003.005.435.774zm-5.177 12.967c-.151.216-.368.378-.62.458l-.008.002c-.081.027-.175.043-.272.043-.177 0-.342-.052-.481-.142l.003.002c-.227-.13-.394-.344-.459-.598l-.001-.007c-.02-.078-.032-.168-.032-.261 0-.188.048-.365.131-.519l-.003.006.726-1.21c.169-.061.365-.097.569-.097.556 0 1.05.264 1.363.674l.003.004zm11.661-4.644h.027c.273 0 .52.111.699.291.179.175.29.418.29.688v.014-.001.014c0 .27-.111.513-.29.688-.178.18-.426.291-.699.291-.009 0-.019 0-.028 0h.001-1.403l.968 1.645c.075.137.119.3.119.474 0 .107-.017.211-.048.308l.002-.007c-.078.256-.241.466-.456.602l-.004.003c-.134.088-.299.141-.475.141-.098 0-.192-.016-.28-.046l.006.002c-.26-.069-.473-.235-.602-.455l-.003-.005-3.629-6.338c-.273-.429-.435-.952-.435-1.512 0-.184.017-.363.051-.538l-.003.018c.091-.523.352-.974.723-1.304l.002-.002 2.903 5.032zm-6.919-13.015h.077c2.185 0 4.229.602 5.976 1.65l-.053-.029c1.824 1.075 3.304 2.555 4.348 4.322l.031.056c1.018 1.694 1.621 3.738 1.621 5.923v.081-.004.077c0 2.185-.602 4.229-1.65 5.976l.029-.053c-1.075 1.824-2.555 3.304-4.322 4.348l-.056.031c-1.694 1.018-3.738 1.621-5.923 1.621-.027 0-.054 0-.081 0h.004c-.023 0-.05 0-.077 0-2.185 0-4.229-.602-5.976-1.65l.053.029c-1.824-1.075-3.304-2.555-4.348-4.323l-.031-.056c-1.018-1.694-1.621-3.738-1.621-5.923 0-.027 0-.054 0-.081v.004c0-.023 0-.05 0-.077 0-2.185.602-4.229 1.65-5.976l-.029.053c1.075-1.824 2.555-3.304 4.322-4.348l.056-.031c1.694-1.018 3.738-1.621 5.923-1.621h.081-.004zm10.452 11.999c0-.027 0-.058 0-.09 0-1.901-.52-3.681-1.426-5.205l.026.047c-.934-1.588-2.227-2.873-3.772-3.771l-.05-.027c-1.485-.881-3.273-1.402-5.183-1.402-.025 0-.05 0-.075 0h.004c-.022 0-.048 0-.075 0-1.899 0-3.677.521-5.197 1.429l.046-.026c-1.588.934-2.873 2.226-3.771 3.771l-.027.05c-.882 1.485-1.403 3.275-1.403 5.186v.065-.003.075c0 1.899.521 3.677 1.429 5.197l-.026-.046c.934 1.588 2.227 2.873 3.772 3.771l.05.027c1.485.882 3.275 1.403 5.186 1.403h.067-.003.075c1.899 0 3.677-.521 5.197-1.429l-.046.026c1.59-.934 2.876-2.227 3.775-3.773l.027-.05c.882-1.481 1.403-3.267 1.403-5.174 0-.018 0-.037 0-.055v.003z"/></svg>