<!--Generated by Fontisto--><svg viewBox="0 0 20 24" xmlns="http://www.w3.org/2000/svg"><path d="m20.091 17.524c-.451 1.375-1.053 2.569-1.805 3.651l.03-.046q-1.861 2.827-3.706 2.827c-.739-.052-1.426-.217-2.064-.478l.044.016c-.642-.267-1.387-.434-2.167-.461h-.011c-.747.029-1.447.201-2.083.49l.035-.014c-.556.269-1.204.445-1.889.49l-.015.001q-2.192 0-4.342-3.735c-1.269-2.072-2.048-4.565-2.12-7.236v-.02c-.005-.107-.008-.233-.008-.36 0-1.892.614-3.641 1.654-5.059l-.017.024c.92-1.266 2.395-2.08 4.061-2.08h.037-.002c.922.031 1.796.187 2.621.452l-.068-.019c.578.201 1.252.354 1.95.428l.041.004c.759-.067 1.459-.241 2.111-.508l-.048.017c.738-.279 1.591-.456 2.48-.49h.015.07c1.123 0 2.164.351 3.019.949l-.017-.011c.572.416 1.066.89 1.488 1.424l.012.016c-.62.5-1.161 1.059-1.627 1.678l-.017.024c-.587.823-.938 1.85-.938 2.958v.029-.001.062c0 1.181.373 2.275 1.007 3.171l-.012-.017c.53.842 1.316 1.481 2.248 1.814l.031.01zm-5.423-16.918c-.02.712-.172 1.383-.432 1.998l.014-.036c-.323.778-.776 1.441-1.34 1.992l-.001.001c-.423.452-.944.807-1.53 1.031l-.028.009c-.437.12-.949.207-1.475.243l-.025.001c0-.008 0-.018 0-.028 0-1.372.42-2.647 1.139-3.701l-.015.023c.874-1.114 2.132-1.891 3.572-2.134l.034-.005c.013.043.026.097.035.152l.001.008c.01.063.023.117.039.17l-.003-.01q0 .058.007.144t.007.142z"/></svg>