<!--Generated by Fontisto--><svg viewBox="0 0 24 24" xmlns="http://www.w3.org/2000/svg"><path d="m24 6.124c0-.029.001-.063.001-.097 0-.743-.088-1.465-.253-2.156l.013.063c-.312-1.291-1.1-2.359-2.163-3.031l-.02-.012c-.536-.35-1.168-.604-1.847-.723l-.03-.004c-.463-.084-1.003-.138-1.553-.15h-.011c-.04 0-.083-.01-.124-.013h-12.025c-.152.01-.3.017-.455.026-.791.016-1.542.161-2.242.415l.049-.015c-1.306.501-2.327 1.495-2.853 2.748l-.012.033c-.17.409-.297.885-.36 1.38l-.003.028c-.051.343-.087.751-.1 1.165v.016c0 .032-.007.062-.01.093v12.224c.01.14.017.283.027.424.02.861.202 1.673.516 2.416l-.016-.043c.609 1.364 1.774 2.387 3.199 2.792l.035.009c.377.111.817.192 1.271.227l.022.001c.555.053 1.11.06 1.667.06h11.028c.554 0 1.099-.037 1.633-.107l-.063.007c.864-.096 1.645-.385 2.321-.823l-.021.013c.825-.539 1.47-1.29 1.867-2.176l.013-.032c.166-.383.295-.829.366-1.293l.004-.031c.084-.539.132-1.161.132-1.794 0-.086-.001-.171-.003-.256v.013q0-5.7 0-11.394zm-6.424 3.99v5.712c.001.025.001.054.001.083 0 .407-.09.794-.252 1.14l.007-.017c-.273.562-.771.979-1.373 1.137l-.015.003c-.316.094-.682.156-1.06.173h-.01c-.029.002-.062.002-.096.002-1.033 0-1.871-.838-1.871-1.871 0-.741.431-1.382 1.056-1.685l.011-.005c.293-.14.635-.252.991-.32l.027-.004c.378-.082.758-.153 1.134-.24.264-.045.468-.252.51-.513v-.003c.013-.057.02-.122.02-.189 0-.002 0-.003 0-.005q0-2.723 0-5.443c-.001-.066-.01-.13-.027-.19l.001.005c-.026-.134-.143-.235-.283-.235-.006 0-.012 0-.018.001h.001c-.178.013-.34.036-.499.07l.024-.004q-1.14.225-2.28.456l-3.7.748c-.016 0-.032.01-.048.013-.222.03-.392.219-.392.447 0 .015.001.03.002.045v-.002.13q0 3.9 0 7.801c.001.028.001.062.001.095 0 .408-.079.797-.224 1.152l.007-.021c-.264.614-.792 1.072-1.436 1.235l-.015.003c-.319.096-.687.158-1.067.172h-.008c-.031.002-.067.003-.104.003-.913 0-1.67-.665-1.815-1.536l-.001-.011c-.02-.102-.031-.218-.031-.338 0-.785.485-1.458 1.172-1.733l.013-.004c.315-.127.687-.234 1.072-.305l.036-.005c.287-.06.575-.116.86-.177.341-.05.6-.341.6-.693 0-.007 0-.015 0-.022v.001-.15q0-4.44 0-8.883c0-.002 0-.004 0-.007 0-.129.015-.254.044-.374l-.002.011c.066-.264.277-.466.542-.517l.004-.001c.255-.066.515-.112.774-.165.733-.15 1.466-.3 2.2-.444l2.27-.46c.67-.134 1.34-.27 2.01-.4.181-.042.407-.079.637-.104l.027-.002c.018-.002.04-.004.061-.004.27 0 .489.217.493.485.008.067.012.144.012.222v.001q0 2.865 0 5.732z"/></svg>