<!--Generated by Fontisto--><svg viewBox="0 0 24 24" xmlns="http://www.w3.org/2000/svg"><path d="m19.353 23.99h-3.609c-.042.005-.09.008-.139.008-.531 0-.986-.328-1.173-.793l-.003-.009c-1.335-2.671-2.787-5.301-3.996-8.065-.895-1.885-1.417-4.095-1.417-6.428 0-2.992.86-5.783 2.345-8.14l-.037.063c.166-.282.521-.626.793-.626s.594.376.742.668q5.457 10.916 10.926 21.84c.543 1.043.293 1.471-.907 1.483zm-14.608 0h-3.706c-1.042 0-1.273-.418-.814-1.336q2.807-5.551 5.562-11.081c.501-1.043.897-1.043 1.596-.177 1.832 2.129 2.948 4.92 2.948 7.971 0 1.148-.158 2.258-.453 3.312l.021-.086c-.345 1.325-.533 1.408-1.868 1.408z"/></svg>