<!--Generated by Fontisto--><svg viewBox="0 0 26 24" xmlns="http://www.w3.org/2000/svg"><path d="m7.819 12.629q-.132.263-.237.487t-.211.461q-.527 1.133-.948 2.304c-.251.668-.478 1.476-.642 2.308l-.017.101q-.105.685-.145 1.37c-.004.071-.006.155-.006.239 0 .411.055.81.159 1.188l-.007-.032c.065.348.234.649.473.877l.001.001c.233.2.536.324.868.329h.001c.051.006.109.009.169.009.118 0 .232-.013.342-.037l-.01.002.474-.105c.447-.13.835-.301 1.196-.514l-.024.013q.54-.316 1.067-.685c.076-.047.163-.087.255-.116l.008-.002c.037-.011.08-.017.124-.017.059 0 .116.011.168.031l-.003-.001c.178.06.312.208.351.392l.001.003c.01.034.015.074.015.115 0 .148-.073.279-.185.358l-.001.001c-.512.389-1.089.756-1.697 1.074l-.068.032c-.59.306-1.286.49-2.025.5h-.003c-.042.003-.09.004-.139.004-.521 0-1.002-.166-1.395-.448l.007.005c-.429-.324-.751-.77-.917-1.285l-.005-.018c-.147-.389-.242-.839-.263-1.307v-.009c-.004-.098-.007-.213-.007-.329 0-.348.022-.691.063-1.028l-.004.04c.169-1.402.498-2.678.972-3.881l-.037.106c.553-1.422 1.098-2.586 1.706-3.711l-.086.174c.046-.084.075-.183.079-.289v-.001c-.002-.104-.021-.204-.055-.296l.002.006q-.237-.658-.448-1.317l-.421-1.317c-.004-.071-.037-.133-.087-.175-.034-.016-.074-.025-.116-.025-.029 0-.057.004-.083.012l.002-.001q-.895.211-1.765.487c-.637.205-1.186.45-1.702.747l.042-.022c-.225.132-.419.267-.601.415l.009-.007c-.196.16-.372.319-.54.487-.236.231-.391.542-.421.89v.005.038c0 .345.119.663.319.913l-.002-.003c.188.293.415.541.678.746l.007.005q.395.303.816.566.158.079.29.158l.263.158c.126.074.222.189.271.325l.001.004c.016.044.025.096.025.149 0 .086-.024.166-.066.235l.001-.002c-.06.13-.174.227-.313.263l-.003.001c-.043.011-.091.017-.142.017-.102 0-.199-.026-.283-.071l.003.002c-.441-.214-.818-.44-1.172-.696l.023.016c-.375-.269-.703-.564-.996-.89l-.005-.006c-.176-.205-.333-.435-.464-.682l-.01-.02c-.118-.225-.209-.485-.261-.76l-.003-.017c-.018-.107-.028-.23-.028-.355 0-.228.034-.449.097-.656l-.004.016c.108-.343.265-.64.466-.902l-.005.007c.215-.285.458-.532.729-.744l.009-.007c.261-.206.554-.394.865-.552l.03-.014c.485-.266 1.055-.515 1.648-.716l.077-.023q.878-.29 1.804-.5c.039-.014.087-.027.137-.038l.008-.001c.058-.012.106-.026.153-.042l-.009.003q-.053-.237-.088-.474t-.066-.474c-.096-.569-.167-1.249-.196-1.94l-.001-.035c-.003-.074-.005-.162-.005-.249 0-.605.083-1.19.24-1.745l-.011.045c.057-.285.139-.536.246-.773l-.009.022c.116-.257.257-.478.425-.676l-.003.004c.304-.367.711-.639 1.177-.77l.017-.004c.208-.052.446-.082.691-.082.264 0 .521.035.764.1l-.021-.005c.532.129 1.001.329 1.426.591l-.021-.012c.481.296.889.583 1.279.891l-.028-.021c.1.093.165.223.175.367v.002c.001.01.001.021.001.032 0 .133-.056.252-.146.337-.08.099-.195.167-.327.184h-.003c-.018.002-.04.004-.061.004-.121 0-.233-.041-.322-.11l.001.001q-.316-.211-.606-.421c-.17-.126-.368-.256-.572-.377l-.033-.018c-.208-.13-.447-.246-.699-.335l-.026-.008c-.24-.084-.517-.132-.806-.132-.008 0-.017 0-.025 0h.001c-.004 0-.009 0-.014 0-.219 0-.426.054-.608.148l.007-.003c-.191.104-.347.251-.458.429l-.003.005c-.166.212-.293.463-.365.736l-.003.014c-.062.228-.118.51-.155.797l-.003.033c-.036.289-.056.623-.056.962 0 .297.016.589.046.878l-.003-.036c.07.688.168 1.294.297 1.889l-.02-.111v.009c0 .044.021.083.053.109.034.025.077.04.124.04h.008q.737-.079 1.449-.145t1.422-.119c.098-.015.187-.042.269-.081l-.006.002c.084-.047.154-.109.209-.183l.001-.002c.646-.827 1.284-1.561 1.957-2.26l-.008.009c.679-.704 1.41-1.348 2.191-1.929l.047-.034c.394-.303.841-.607 1.305-.886l.065-.036c.439-.264.946-.489 1.481-.647l.047-.012c.299-.099.645-.165 1.004-.184h.01c.036-.002.079-.003.121-.003.33 0 .646.059.938.167l-.019-.006c.404.127.744.361.998.668l.003.004c.244.309.434.674.548 1.071l.005.022c.134.401.211.863.211 1.342v.001.011c0 .469-.029.932-.084 1.386l.005-.054q-.026.184-.053.351c-.022.138-.05.256-.084.372l.005-.021c-.014.138-.089.255-.196.328l-.002.001c-.084.059-.189.094-.302.094-.028 0-.056-.002-.083-.006h.003c-.139-.015-.259-.083-.342-.183l-.001-.001c-.069-.086-.112-.196-.112-.316 0-.028.002-.055.007-.082v.003q.026-.316.079-.645c.033-.194.052-.417.053-.645.008-.116.013-.252.013-.388s-.005-.272-.014-.407l.001.018c-.021-.291-.058-.557-.112-.816l.007.04c-.062-.451-.318-.832-.679-1.063l-.006-.004c-.234-.122-.512-.194-.806-.194-.182 0-.358.028-.524.079l.013-.003c-.428.093-.807.229-1.16.408l.027-.013q-.527.263-1.053.579c-.719.482-1.347.985-1.93 1.534l.007-.007q-.895.843-1.712 1.765-.158.158-.316.342t-.29.342v.004c0 .014-.005.026-.013.035-.009.015-.014.033-.014.052 0 .005 0 .009.001.014v-.001h.29c1.496.019 2.947.124 4.373.31l-.186-.02c1.568.203 2.967.507 4.32.918l-.186-.049c.762.213 1.387.433 1.996.687l-.112-.042c.702.289 1.296.594 1.86.941l-.056-.032c.324.211.603.419.869.643l-.013-.011c.276.232.521.483.743.754l.008.01c.394.469.633 1.079.633 1.745 0 .03 0 .06-.001.089v-.004c-.056.686-.369 1.29-.841 1.723l-.002.002c-.336.336-.717.627-1.133.864l-.026.014c-.376.215-.819.421-1.278.593l-.065.021c-.044.013-.096.021-.148.021-.08 0-.156-.017-.224-.049l.003.001c-.125-.056-.219-.159-.262-.286l-.001-.003c-.025-.056-.04-.122-.04-.191s.015-.135.041-.194l-.001.003c.056-.135.158-.241.286-.301l.003-.001q.316-.158.645-.303c.239-.106.441-.216.633-.34l-.018.011c.185-.111.344-.224.494-.348l-.007.005q.224-.184.439-.395c.249-.24.414-.566.447-.929v-.006c0-.002 0-.005 0-.008 0-.364-.128-.699-.342-.961l.002.003c-.179-.25-.381-.466-.609-.654l-.006-.005c-.22-.181-.465-.355-.722-.511l-.028-.016c-.57-.371-1.225-.708-1.915-.976l-.074-.025c-.538-.216-1.244-.45-1.965-.648l-.155-.036q-1.133-.29-2.277-.5c-.647-.127-1.437-.23-2.239-.286l-.065-.004q-.922-.053-1.857-.088t-1.857-.066c-.003 0-.007 0-.01 0-.081 0-.159.015-.232.041l.005-.002c-.07.026-.126.078-.157.143l-.001.002-1.121 1.678q-.553.843-1.08 1.686c-.036.038-.06.088-.066.144v.001c-.003.017-.005.038-.005.058 0 .04.006.079.018.116l-.001-.003q.474 1.08.988 2.133t1.119 2.067 1.277 1.975 1.435 1.856c.448.519.9.991 1.374 1.44l.009.008c.465.441.977.84 1.526 1.187l.041.024c.238.161.511.311.797.435l.033.013c.267.117.577.192.902.21h.007c.037.003.079.005.123.005.24 0 .465-.061.662-.167l-.007.004c.228-.133.412-.321.536-.546l.004-.007c.131-.208.235-.45.299-.707l.004-.017c.055-.217.106-.49.141-.767l.004-.036c.023-.255.035-.551.035-.85 0-.597-.051-1.183-.149-1.752l.009.061q-.211-1.251-.527-2.488-.369-1.264-.843-2.475t-1.027-2.398c-.035-.057-.065-.122-.086-.192l-.002-.006c-.015-.035-.023-.076-.023-.119 0-.028.004-.055.011-.081v.002c0-.002 0-.004 0-.006 0-.122.05-.232.132-.31.082-.084.191-.141.313-.158h.003c.024-.004.051-.006.079-.006.087 0 .168.022.24.06l-.003-.001c.108.057.191.148.236.26l.001.003q.184.421.395.856t.395.878q.553 1.343 1.001 2.738c.265.788.503 1.745.669 2.728l.016.116c.095.575.17 1.277.208 1.99l.002.052c.006.109.009.238.009.367 0 .594-.071 1.172-.204 1.725l.01-.05q-.053.211-.132.439c-.061.176-.124.321-.194.461l.01-.022c-.233.545-.638.98-1.145 1.244l-.014.007c-.319.157-.694.25-1.09.25-.221 0-.435-.029-.639-.082l.017.004c-.53-.11-1-.297-1.425-.551l.021.012c-.479-.286-.887-.568-1.276-.875l.025.019c-.748-.59-1.411-1.22-2.013-1.906l-.015-.017q-.922-1.053-1.738-2.185c-.544-.755-1.105-1.63-1.619-2.536l-.076-.145q-.777-1.383-1.435-2.857l-.053-.105zm-.526-4.636.658 2.16q.395-.632.777-1.212t.803-1.185zm5.977 5.531c-.005 0-.011 0-.018 0-.42 0-.801-.171-1.075-.448-.269-.25-.437-.606-.437-1.001 0-.028.001-.055.002-.083v.004c0-.007 0-.015 0-.023 0-.415.172-.789.448-1.057.268-.276.642-.448 1.057-.448h.024-.001.018c.42 0 .801.171 1.075.448.284.265.461.642.461 1.061v.02-.001.019c0 .418-.177.795-.46 1.06l-.001.001c-.275.277-.655.448-1.075.448-.005 0-.01 0-.015 0h.001z"/></svg>