<!--Generated by Fontisto--><svg viewBox="0 0 24 24" xmlns="http://www.w3.org/2000/svg"><path d="m16.986 9.23v.024h.071v-.032q0-.012.024-.036v-.048c-.019.001-.036.01-.048.024-.015.017-.024.04-.024.064v.007zm-.548-1.36v-.048h-.095v.048zm-1.623 3.054c-.073-.109-.144-.202-.219-.292l.004.005-.24-.286q0-.048.071-.107c.07-.054.148-.105.231-.151l.009-.005.573-.501c.073-.113.134-.244.176-.382l.003-.011c.038-.128.06-.276.06-.428 0-.005 0-.009 0-.014v.001-.095c-.001-.135-.056-.257-.143-.346-.119-.118-.262-.211-.421-.272l-.008-.003c-.298-.153-.65-.243-1.023-.243-.043 0-.086.001-.128.004h.006c-.355.033-.679.097-.991.188l.037-.009c-.349.101-.641.21-.923.338l.043-.018q-.119.095-.274.202c-.098.068-.211.136-.329.195l-.016.007-.024.048h.034q.012 0 .036-.024h.004c.012 0 .024.005.032.012.008.009.012.02.012.032v.004l.024-.024h.024v.024q-.119.095-.226.191c-.075.066-.156.129-.242.186l-.008.005.024.048h-.024l-.048-.024-.024.012c-.014.007-.03.012-.048.012v.024l.048.071c-.001 0-.002 0-.004 0-.012 0-.024-.005-.032-.012-.009-.008-.02-.012-.032-.012-.001 0-.003 0-.004 0-.001 0-.001 0-.002 0-.048 0-.092.013-.13.037l.001-.001c-.034.019-.061.046-.079.079l-.001.001.024-.119c.044-.153.085-.347.116-.544l.004-.029.095-.62v-.095c-.045-.029-.084-.061-.119-.095l-.095-.095v-.119h-.024q-.334.525-1.336 1.813-.763.906-.811 1.002-.143.167-.214.262c-.03.033-.055.073-.07.117l-.001.002c-.025.01-.045.026-.06.048-.008.019-.012.04-.012.063v.009q-.024 0-.024-.012v-.012c-.052.067-.111.125-.177.175l-.002.002c-.063.051-.139.088-.223.107l-.004.001-.191.024q-.024.024-.024.036v.06l.048-.024v.024l-.143.048-.286.071h-.148q0 .024.06.012t.012.012l-.191.024c-.027.01-.058.015-.09.015-.015 0-.029-.001-.043-.003h.002c-.023-.008-.044-.02-.06-.036h-.024l-.167.048q.024-.095-.549-.72c.009-.065.044-.12.094-.155h.001c.091-.073.192-.14.3-.197l.01-.005.787-.692c.195-.299.31-.665.31-1.058 0-.006 0-.011 0-.017v.001l-.024-.119c-.017-.182-.096-.344-.215-.466-.154-.152-.336-.277-.537-.365l-.011-.004c-.168-.104-.364-.183-.574-.225l-.011-.002c-.248-.052-.534-.081-.826-.081-.032 0-.065 0-.097.001h.005c-.498.07-.931.162-1.353.28l.073-.017c-.457.125-.841.264-1.212.427l.055-.022c-.105.086-.222.169-.344.243l-.014.008q-.214.131-.454.274l-.048.071c.018 0 .034-.005.049-.012h-.001c.014-.007.03-.012.048-.012h.024.004c.012 0 .024.005.032.012.007.009.012.02.012.032v.002l.048-.048h.048v.048c-.092.092-.189.178-.291.257l-.007.005c-.093.073-.197.143-.307.207l-.013.007.024.071h-.024l-.071-.024v.004c0 .006-.002.011-.006.015-.004.004-.009.006-.015.006-.001 0-.003 0-.004 0-.027.003-.051.012-.072.024h.001v.024l.071.071h-.048c-.019-.001-.036-.01-.048-.024-.092.029-.171.069-.242.121l.002-.002c-.067.052-.123.116-.166.188l-.002.003.024.048c.029-.028.06-.054.093-.078l.002-.002c.034-.025.074-.045.116-.059l.003-.001v.071c-.018 0-.034.005-.049.012h.001c-.018.01-.034.022-.048.036l.071.095c.066-.066.136-.129.209-.187l.005-.004c.07-.057.149-.112.23-.162l.01-.005h.013c.035 0 .067.009.096.025l-.001-.001.036.024h.071c.179-.135.382-.266.594-.381l.026-.013c.184-.101.412-.209.646-.304l.046-.016.048.048q-.119.191-.167.191v.009c0 .023.004.044.013.064v-.001c.01.018.022.034.036.048-.201.621-.411 1.136-.651 1.633l.033-.076c-.8 1.949-1.591 3.557-2.475 5.106l.113-.215c0 .018.005.034.012.049v-.001c.006.014.02.024.036.024.056-.002.109-.015.156-.037l-.002.001c.051-.019.094-.047.132-.08l.048.024v.048h.048l.071-.024.012.012c.009.008.02.012.032.012h.004v.048c0 .051-.009.101-.025.146l.001-.003c-.019.055-.043.102-.073.145l.001-.002c-.045.059-.084.125-.117.196l-.003.007c-.029.065-.054.141-.07.22l-.001.007v.024h.048c.114-.115.219-.24.314-.372l.006-.009c.092-.124.176-.265.244-.415l.006-.015c.386-.109.7-.218 1.005-.343l-.062.023q.442-.179.847-.37c.158-.001.31-.027.452-.074l-.01.003c.16-.051.298-.124.421-.217l-.003.003v-.048l-.167.048h-.024v-.024c.122-.018.23-.042.335-.075l-.015.004c.116-.036.215-.076.309-.124l-.011.005c.371-.309.784-.615 1.213-.898l.052-.032c.494-.323.89-.758 1.16-1.269l.009-.019.095-.024h.005c.012 0 .022.004.031.011.009.008.02.012.032.012h.004.004c.012 0 .024-.005.032-.012.009-.008.02-.012.032-.012h.004v-.012q0-.012.024-.012h.143l.24-.048h.095l.024.071-1.025 1.613-.24.262-.119.358h.024l.119-.048-.048.143.048.096h-.01q-.012 0-.012.024v.024l.048-.024q.119-.071.095-.143h.143v.024q-.024 0-.048.036c-.015.023-.024.05-.024.08h.024c.306-.339.592-.71.849-1.103l.021-.035q.585-.859 1.134-1.574-.024-.143 1.145-.406h.024c-.001.319-.071.622-.197.893l.006-.013c-.031.062-.056.134-.07.209l-.001.005-.048.24c-.044.086-.081.185-.105.289l-.002.009q-.036.155-.08.298l-.262.93q-.119.31-.226.668c-.061.192-.123.441-.172.694l-.007.045v.004c0 .012.005.024.012.032.009.008.02.012.032.012h.004.024l.048-.024h.024l-.024-.048h.119.005c.028 0 .051-.021.055-.048.009-.036.022-.068.037-.098l-.001.003c0-.005 0-.012 0-.018 0-.045.009-.088.025-.127l-.001.002c.013-.027.029-.051.048-.071.018-.09.039-.166.064-.24l-.004.013q.036-.107.08-.226c.02-.097.045-.181.075-.262l-.004.012c.033-.092.065-.167.101-.239l-.006.013c.039-.169.084-.313.139-.452l-.008.022q.06-.143.08-.143l.024.024-.071.191q-.095.43-.202.787t-.226.692l.048.095h.024c.49-1.136.979-2.54 1.375-3.983l.056-.239c.018-.086.051-.162.097-.229l-.001.002c.046-.07.102-.129.165-.178l.002-.001-.024-.048c.031-.016.057-.032.083-.05l-.003.002c.023-.015.042-.031.06-.048l-.048-.024c-.041-.019-.089-.036-.138-.047l-.005-.001.31-1.336.048-.048c.02-.019.044-.035.07-.047l.002-.001v.071c-.001 0-.002 0-.004 0-.012 0-.024.005-.032.012-.009.008-.02.012-.032.012-.001 0-.003 0-.004 0l.048.095q.095-.095.179-.167c.052-.045.111-.085.174-.117l.005-.002h.007c.025 0 .047.009.064.024l.024.024h.048c.14-.108.297-.211.462-.301l.018-.009c.146-.083.319-.164.498-.231l.026-.009.048.048q-.095.143-.143.143c0 .018.005.034.012.049l.012.023c-.069.264-.143.483-.228.695l.014-.039q-.119.298-.262.585-.43 1.074-.894 2t-.966 1.84c.023-.045.05-.085.081-.12l-.001.001q.009 0 .036.024c.047-.015.087-.032.125-.05l-.005.002.095-.048h.024v.048h.048l.048-.024q0 .024.048.024v.048c0 .035-.009.068-.025.096l.001-.001-.048.095q-.048.071-.095.155c-.03.053-.054.114-.069.178l-.001.005v.048h.048q.119-.143.24-.298c.077-.099.141-.214.188-.336l.003-.009c.286-.07.527-.148.759-.24l-.039.014q.334-.131.644-.274c.12-.001.234-.023.34-.062l-.007.002c.119-.044.222-.104.312-.18l-.001.001v-.024l-.119.048h-.024v-.024c.087 0 .169-.018.244-.05l-.004.002q.119-.048.214-.095.334-.262.585-.442t.394-.274c.298-.204.551-.449.757-.731l.006-.009c.134-.181.215-.408.215-.654 0-.013 0-.027-.001-.04v.002zm-.119.048v.17q0 .048-.024.06l-.024.012-.046-.312.071.036c.013.006.023.019.023.034zm-13.479-1.455h-.024v-.048l.119-.024v.024c-.012.014-.029.023-.048.024-.019.001-.036.01-.047.024zm-.597 5.988c-.022-.012-.048-.024-.076-.034l-.005-.001c-.024-.008-.051-.012-.079-.012h-.001l-.018.012-.012.012v-.098c.001-.016.005-.032.012-.045v.001q.012-.024.06-.024c.016 0 .03.01.036.024.008.019.012.04.012.063v.009l.08-.119c.021-.029.048-.053.079-.071l.001-.001.071.024c-.013.072-.034.136-.062.196l.002-.005c-.017.04-.055.069-.1.071zm6.394-6.704q-.024 0-.06-.06t-.107-.202v-.071q.048 0 .095.071c.036.062.062.134.071.212v.003zm-.072-.644-.024.048-.877-.358q.88.023.904.31zm-3.673 3.145h-.119v-.048l.119-.024zm-.095-1.908h.024v.095q-.024 0-.048.036c-.022.03-.045.056-.071.08v-.048c.026-.024.049-.05.07-.078l.001-.002c.013-.017.022-.037.024-.06zm-.263.62.024.119h-.048v-.119zm-.143.214h.074v.013c0 .035-.009.067-.025.096l.001-.001c-.015.022-.039.036-.067.036-.002 0-.003 0-.005 0h-.024c.016-.016.028-.037.036-.059v-.001c.006-.021.009-.044.009-.069 0-.004 0-.008 0-.012v.001zm-.095.31h.048v.024l-.071.095h-.048v-.024c.019-.001.036-.01.048-.024.015-.017.024-.04.024-.064 0-.002 0-.005 0-.007zm-.095.263-.024.143h-.024l-.024-.143zm-1.004 2.843c-.012.085-.033.161-.062.233l.002-.007q-.036.08-.06.08v-.048c0-.004 0-.008 0-.013 0-.052.013-.101.037-.144l-.001.002c.025-.039.053-.073.084-.103zm-.191.406v.024c0 .018-.005.034-.012.049v-.001c-.006.014-.02.024-.036.024v-.048c.001-.032.02-.059.047-.071h.001zm-.048.811h.095v.024c-.012.014-.029.023-.048.024-.019.001-.036.01-.048.024h-.048c0-.001 0-.002 0-.004 0-.012.005-.024.012-.032zm2.648-.811q-.262.119-.501.25c-.165.09-.306.181-.439.281l.009-.007q-.835.286-.835.358l-.549.226c-.192.077-.35.153-.503.238l.023-.012c-.023-.002-.043-.011-.06-.024-.023-.015-.042-.031-.06-.048 0-.001 0-.001 0-.002 0-.048.013-.092.037-.13l-.001.001c.028-.044.064-.079.106-.106l.001-.001h.03.01c.039 0 .077.004.113.013l-.003-.001c.036.009.068.022.098.037l-.003-.001q.095-.048.214-.095c.075-.03.164-.055.255-.07l.007-.001v-.048h-.191c.068-.042.15-.086.235-.125l.015-.006c.071-.034.162-.07.255-.101l.02-.006h.119v.024c-.072.013-.136.034-.196.062l.005-.002q-.071.036-.071.08v.004c0 .012.005.024.012.032.009.008.02.012.032.012h.004c.055-.025.102-.052.147-.082l-.003.002.048-.036c.715-.292 1.327-.62 1.9-1.003l-.039.024v.048q0 .024-.06.08c-.06.056-.126.107-.197.152l-.006.003zm-1.573.524c.078-.02.146-.045.21-.074l-.008.003c.069-.03.129-.07.179-.119h.004c.012 0 .024.005.032.012l.036.036q-.119.048-.226.095t-.202.095h-.025zm2.528-1.956-.787.62q-.191.143-.418.286c-.137.088-.297.175-.464.252l-.025.01c-.506.321-1.089.603-1.703.817l-.06.018h-.024q.024-.167 1.241-2.553c.341-.054.638-.125.926-.215l-.046.012c.329-.1.598-.201.859-.317l-.048.019h.143c.034 0 .067-.004.098-.013l-.003.001c.029-.008.061-.012.095-.012h.001c.132 0 .259.022.377.062l-.008-.002c.117.038.217.099.299.179l.024.119c-.069.187-.15.349-.246.499l.006-.01c-.057.098-.139.175-.237.225l-.003.002zm-1.526-.859h.119v.024h-.119zm1.766-.31h.095l.107.071q.036.024.036.048v.024c-.001 0-.001 0-.002 0-.048 0-.092-.013-.13-.037l.001.001c-.041-.024-.076-.05-.107-.08zm.262-1.407q-.167.119-.334.25c-.097.078-.206.153-.321.219l-.013.007c-.179.048-.33.101-.475.164l.022-.008q-.334.131-.93.394c0-.001 0-.002 0-.004 0-.006-.002-.011-.006-.015-.004-.004-.009-.006-.015-.006-.001 0-.003 0-.004 0h-.096v-.048c.018-.09.039-.166.064-.24l-.004.013c.027-.077.063-.144.108-.204l-.001.002c.029-.152.061-.28.102-.405l-.006.023q.048-.143.095-.167l.64-1.455q-.024-.143.406-.214h.095v.095c.095-.024.213-.045.332-.059l.013-.001q.131-.012.179-.012c.066-.013.143-.021.221-.021.13 0 .255.021.372.059l-.008-.002c.121.04.21.145.226.273v.002h.048v-.167h.05c.064.032.12.072.167.119.045.045.079.101.095.165l.001.002v.008c0 .058-.013.113-.037.161l.001-.002c-.029.055-.065.102-.107.143-.016 0-.03-.01-.036-.024-.008-.019-.012-.04-.012-.063 0-.003 0-.006 0-.009h-.071l-.024.191q-.382.573-.573.597c-.036.063-.075.118-.12.168l.001-.001q-.048.048-.071.048zm.406 1.001c-.003 0-.006 0-.009 0-.023 0-.044-.005-.064-.013h.001l-.071-.036v-.071h.071l.119.071c0 .018-.005.034-.012.049v-.001c-.006.014-.02.024-.036.024zm.405.501.071.036c.014.006.024.02.024.036h-.048l-.048.024v-.119zm.024.24v-.024h.071zm.191.214c.034 0 .067-.004.098-.013l-.003.001.143-.036v.024l-.262.071v-.048zm.263.12c-.051 0-.1.004-.148.013l.005-.001c-.043.008-.093.012-.143.012v-.024l.24-.071.095-.024.024.048q-.048 0-.036.012t-.038.034zm.24-.072h-.024c-.001 0-.002 0-.004 0-.012 0-.024-.005-.032-.012l-.014-.012.071-.024h.024l.012.012c.008.009.012.02.012.032v.004zm.644-.692v-.024l.119-.048v.048h-.122zm.692 4.247v-.071h.048l.012.012c.008.009.012.02.012.032v.004.024l-.071.024zm.501-4.08h-.071c-.019.018-.043.03-.07.036h-.001q-.048.012-.119.036l-.048.024h-.024l-.012-.012c-.011-.009-.018-.022-.018-.037l.31-.071.095-.048.048.024c-.016.016-.037.028-.059.036h-.001c-.018.007-.038.011-.06.012zm.24-.071v-.024h.004c.012 0 .024-.005.032-.012l.036-.036.214-.048v.024q-.095.024-.167.048l-.143.048zm.048-.48c-.012.014-.029.023-.048.024-.001 0-.002 0-.004 0-.006 0-.011.002-.015.006-.004.004-.006.009-.006.015v.004c0-.001 0-.002 0-.004 0-.006-.002-.011-.006-.015-.004-.004-.009-.006-.015-.006-.001 0-.003 0-.004 0-.027.003-.051.012-.072.024h.001q-.024-.024.107-.071t.394-.119l.048-.024.024.048c-.073.03-.168.063-.266.09l-.021.005c-.035.011-.077.02-.12.025h-.003zm.62-.668c-.009.123-.043.237-.097.338l.002-.004c-.045.077-.123.13-.213.143h-.002v-.024l-.167.071-.048.024h-.099l-.024-.071q.167-.262.334-.501c.119-.17.237-.318.362-.459l-.004.005.048.024v.024.004c0 .079-.009.155-.025.229l.001-.007c-.017.078-.041.146-.073.211l.002-.005zm1.097-.931h-.024v-.048h.095v.024c-.018 0-.034.005-.049.012h.001zm-.449 4.533c-.022-.001-.042-.005-.061-.012h.001c-.024-.008-.051-.012-.079-.012h-.001v-.071c.001-.019.01-.036.024-.048.019.001.036.01.048.024.014.012.023.029.024.048.016-.031.032-.057.05-.083l-.002.003c.018-.026.042-.046.07-.06h.001l.048.024c-.015.062-.031.113-.051.164l.003-.008q-.024.06-.071.06zm4.835-5.082-.036-.048c-.031-.048-.058-.103-.078-.162l-.002-.006v-.024q.024 0 .06.048c.028.041.049.089.06.141v.003zm-.048-.5-.024.048-.668-.286c.181.006.352.035.515.084l-.014-.004q.168.066.192.16zm-2.787 2.388h-.095v-.024h.095zm-.072-1.432h.024v.071q-.048 0-.095.095v-.048c.014-.014.026-.03.036-.047v-.001zm-.191.454v.095h-.024v-.095zm-.119.167h.048q0 .119-.048.119h-.024c0-.018.005-.034.012-.049v.001c.006-.016.009-.035.009-.054 0-.006 0-.013-.001-.019v.001zm-.071.24h.024v.024l-.048.071h-.048v-.024q.048 0 .06-.024c.005-.012.008-.026.008-.041 0-.003 0-.006 0-.009zm-.071.215-.024.095v-.095zm-.768 2.148q-.048.214-.095.24v-.048c.001-.039.01-.076.025-.109l-.001.002c.013-.037.038-.066.07-.084h.001zm-.144.311v.024.004c0 .012-.005.024-.012.032l-.012.012h-.024v-.024c-.001-.003-.001-.006-.001-.01 0-.011.004-.022.012-.029.008-.008.019-.013.031-.013.002 0 .005 0 .007.001zm-.024.62h.048v.024l-.048.024h-.048q0-.048.024-.048zm1.98-.62q-.191.095-.37.191c-.134.072-.247.143-.355.221l.009-.006c-.187.054-.341.111-.491.177l.026-.01q-.155.071-.155.095l-.406.179c-.145.063-.262.123-.376.189l.018-.01c-.014-.014-.03-.026-.047-.036h-.001c-.018-.01-.034-.022-.048-.036 0-.004 0-.008 0-.013 0-.035.009-.067.025-.096l-.001.001c.018-.026.042-.046.07-.06h.001q.024-.024.036-.024h.012.001c.028 0 .055.004.081.013l-.002-.001c.023.008.044.02.06.036.051-.026.11-.051.172-.069l.007-.002q.08-.024.179-.048l.024-.048h-.143c.051-.033.11-.065.171-.092l.008-.003c.057-.026.124-.051.194-.069l.009-.002.095-.024v.024c-.055.012-.102.029-.148.05l.005-.002c-.031.016-.055.04-.071.07v.001.004c0 .012.005.024.012.032.009.008.02.012.032.012h.004l.107-.071q.036-.024.036-.048c.548-.213 1.019-.462 1.458-.756l-.026.017v.048l-.06.048c-.048.039-.09.078-.131.119zm-1.192.381h.008c.058 0 .113-.013.161-.037l-.002.001c.056-.027.103-.054.148-.083l-.005.003h.004c.012 0 .024.005.032.012l.012.012c-.064.016-.119.036-.172.062l.005-.002c-.056.027-.103.054-.148.083l.005-.003h-.024v-.048zm1.932-1.479-.597.48c-.094.079-.199.153-.309.22l-.011.006q-.179.107-.37.202c-.382.231-.823.441-1.285.604l-.051.016h-.024q.024-.119.93-1.933.358-.071.68-.167c.249-.075.459-.157.66-.252l-.028.012h.24.001c.098 0 .192.018.278.05l-.006-.002c.096.036.179.085.252.144l-.002-.001-.024.071c-.039.141-.092.263-.159.377l.004-.007c-.044.074-.106.133-.179.174l-.002.001zm-1.168-.644h.095v.024h-.095zm1.36-.24h.068c.027.013.051.029.071.048.014.012.023.029.024.048v.024h-.024c-.03 0-.057-.009-.081-.024h.001c-.026-.018-.046-.042-.06-.07v-.001zm.191-1.073c-.074.075-.156.141-.245.199l-.006.003c-.096.061-.178.12-.256.183l.005-.004q-.31.095-.573.191c-.203.074-.368.146-.528.227l.027-.012-.012-.012c-.009-.008-.02-.012-.032-.012-.001 0-.003 0-.004 0h-.021v-.048q.024-.095.048-.167c.019-.055.043-.102.073-.145l-.001.002q.048-.191.08-.298c.013-.05.034-.094.061-.133l-.001.001.501-1.098q0-.048.08-.08t.226-.08h.071v.071q.334-.048.406-.048c.059-.014.128-.023.198-.023.087 0 .171.013.25.036l-.006-.002c.093.028.162.106.179.201v.002h.048v-.095h.024c.057.011.106.039.143.08.03.035.048.081.048.131v.004c0 .046-.009.09-.025.13l.001-.002q-.024.06-.048.107c-.018 0-.034-.005-.049-.012h.001q-.024-.012-.024-.06h-.043v.143c-.074.131-.157.244-.252.347l.001-.001c-.044.055-.106.094-.177.107h-.002c-.035.049-.07.092-.108.132l.001-.001c-.015.017-.036.029-.06.033h-.001zm.191.739v-.074h.048l.095.071v.004c0 .012-.005.024-.012.032l-.012.012c-.014-.014-.03-.026-.047-.036h-.001c-.014-.007-.03-.012-.048-.012zm-8.278 4.32-.048.024-.024.024q0 .024.012.024h.036.004c.012 0 .024-.005.032-.012q.012-.012-.012-.036zm-.168-.358v.024h.004c.012 0 .024-.005.032-.012q.012-.012-.012-.036v-.024l-.013.011c-.008.009-.012.02-.012.032v.004zm1.265-2.361.024-.024h-.024zm0-.597.048-.024-.024-.048-.048.024v.024zm12.547 1.785-.119-.024v.071l.72-.071v-.024l-.573.048zm3.697-.453v.048h.071v-.024zm-.119 0c-.096.029-.213.054-.333.07l-.012.001-.37.048v.024h.071l.048-.024q.406-.024.501-.036t.095-.06zm-3.245-.787-.048-.024c-.014.027-.027.059-.035.092l-.001.003c-.008.029-.012.061-.012.095v.024q.024 0 .048-.048c.02-.04.037-.088.049-.137l.001-.005zm-.644-.358v-.024h-.024l-.048.048.024.024h.004c.012 0 .024-.005.032-.012.008-.009.014-.021.014-.034 0-.001 0-.002 0-.002zm1.407 1.479v-.048h-.024v.048zm2.935-.668h.024.004c.012 0 .024-.005.032-.012.008-.009.012-.02.012-.032 0-.001 0-.003 0-.004l-.024-.048c-.004 0-.009 0-.014 0-.051 0-.099.009-.144.025l.003-.001q-.06.024-.131.048v-.024l-.143.024c.001-.004.001-.008.001-.012 0-.018-.005-.034-.013-.048-.009-.008-.02-.012-.032-.012-.001 0-.003 0-.004 0h-.179q-.036 0-.06.048v-.024h-.095l-.048.024q0-.024-.012-.024h-.007l-.024.024v-.024h-.167v.048h.119q.024.024.036.024h.036l.048-.024v.024q-.095.024-.214.048c-.072.015-.155.024-.24.024h-.048c-.001 0-.002 0-.004 0-.012 0-.024-.005-.032-.012-.008-.009-.012-.02-.012-.032 0-.001 0-.003 0-.004h.167l.071-.036c.014-.007.03-.012.048-.012v-.048q-.119.024-.24.036t-.264.012h-.024v-.048c.1-.021.215-.034.332-.036h.001q0 .012.119-.036v.024h.024l.012-.012c.009-.008.02-.012.032-.012h.004.095.005c.078 0 .155-.004.231-.013l-.009.001c.077-.009.146-.021.213-.038l-.011.002v.024l.048-.024h.048c0-.002-.001-.005-.001-.008 0-.024.015-.044.036-.052.018-.007.038-.011.06-.012v-.048c-.163.046-.354.08-.55.095l-.01.001c-.004 0-.01 0-.015 0-.092 0-.181.009-.268.026l.009-.001h-.191q-.024 0-.024.012t-.024.012v-.012q0-.012-.024-.012l-.454.095v-.024l-.24.048c-.076.015-.163.024-.253.024-.003 0-.007 0-.01 0h.001v.004c0 .006-.002.011-.006.015-.004.004-.009.006-.015.006-.001 0-.003 0-.004 0-.001 0-.002 0-.004 0-.006 0-.011.002-.015.006-.004.004-.006.009-.006.015v.004q0-.024-.012-.024h-.202l-.143.048v-.024h-.024c-.028.015-.06.024-.095.024-.035 0-.068.009-.096.025l.001-.001q-.024 0 0-.012t0-.012l-.048.024h-.214c-.105.005-.203.018-.299.038l.013-.002c-.014.007-.03.012-.048.012h-.143v.024l-.179-.035q-.06-.012-.06-.036.048-.214.119-.214h.024l-.024.048h.024c.014-.014.03-.026.047-.036h.001c.014-.006.024-.02.024-.036v-.048h-.048v-.143l.119-.167v.048h.048v-.048l-.048-.024c.014-.014.03-.026.047-.036h.001c.018-.01.034-.022.048-.036v-.024h-.071v-.048c.042-.068.082-.147.115-.229l.004-.011c.028-.068.053-.148.07-.231l.002-.009h.048.004c.012 0 .024-.005.032-.012.008-.009.012-.02.012-.032 0-.001 0-.003 0-.004h-.048v-.048c0-.001 0-.002 0-.004 0-.012.005-.024.012-.032.008-.007.014-.016.016-.026.03-.03.054-.065.07-.105l.001-.002c.014-.032.023-.068.024-.107v-.024h.024v.024c.036-.023.063-.055.08-.094v-.001c.026-.057.047-.123.059-.191l.001-.005q.119-.24.24-.525c.069-.155.142-.353.204-.556l.011-.041c.114-.273.236-.626.339-.987l.018-.074q.048-.226.095-.418h-.048v.048c-.001.019-.01.036-.024.048 0-.001 0-.002 0-.004 0-.006-.002-.011-.006-.015-.004-.004-.009-.006-.015-.006-.001 0-.003 0-.004 0h-.048v-.024c0-.064.014-.126.038-.181l-.001.003c.024-.06.051-.111.082-.159l-.002.004h.024l.048.167h.048c.001-.038.005-.075.013-.111l-.001.004c.007-.032.011-.069.012-.107l-.012-.012c-.009-.008-.02-.012-.032-.012-.001 0-.003 0-.004 0l-.048.024v-.24h-.024c-.014-.014-.026-.03-.036-.047v-.001c-.01-.018-.022-.034-.036-.048l-.24.024c0-.018-.005-.034-.012-.049v.001c-.006-.014-.02-.024-.036-.024.016-.016.037-.028.059-.036h.001q.036-.012.131-.036l.048.024.048-.048q0 .024.012.024h.012l.048-.024q0 .024.012.024h.045v-.048h-.264l-.048.024v-.024q-1.79.143-2.052.167h-.24q0 .024-.012.024t-.036.024l-.071-.024-.191.024h-.214c-.014.014-.03.026-.047.036h-.001c-.014.007-.03.012-.048.012l.501-.048c-.014.014-.03.026-.047.036h-.001c-.019.008-.04.012-.063.012-.003 0-.006 0-.009 0h-.024c-.001 0-.002 0-.004 0-.012 0-.024-.005-.032-.012-.009-.008-.02-.012-.032-.012-.001 0-.003 0-.004 0q-.071.024-.167.048l-.191.048-.071-.024-.835.119c-.018 0-.034-.005-.049-.012h.001c-.014-.007-.03-.012-.048-.012v.012q0 .012-.024.012c-.038.001-.075.005-.111.013l.004-.001c-.04.008-.076.02-.11.037l.002-.001-.406.167.024.048c.018 0 .034-.005.049-.012h-.001c.018-.01.034-.022.048-.036l.143.024-.024.119c-.054.037-.101.072-.146.109l.003-.002c-.044.035-.071.089-.071.149v.006q-.143.071-.226.119t-.08.071v.024h.024l.071-.024.048.071v.095q0 .048-.978 2.099-.43 1.002-.656 1.538t-.25.632c-.092.029-.171.065-.245.11l.005-.003c-.054.029-.095.074-.119.129l-.001.002q0 .024.048.048c.032.015.071.024.111.024h.009v.048l-.048.095v.095q0 .095.43.119l.012-.012c.009-.008.02-.012.032-.012h.004c-.015.056-.027.125-.035.195l-.001.007c-.006.066-.019.127-.038.185l.002-.006h.071c.044-.043.08-.095.106-.152l.001-.003c.023-.049.044-.107.061-.168l.002-.008h.024c.019.001.036.01.048.024.019.02.035.044.047.07l.001.002c-.139.243-.268.527-.371.823l-.011.036.024.048h.024c.149-.424.318-.786.518-1.129l-.017.031q.525-.048 1.79-.191l.048-.024.024.024h.071l.048-.048q0 .024.012.024h.012l.644-.048c.006 0 .013.001.021.001.059 0 .114-.018.16-.049l-.001.001c.033-.021.055-.055.06-.095v-.001q0-.024.071-.048c.068-.02.149-.037.233-.047l.007-.001c.018 0 .034.005.049.012h-.001c.014.007.03.012.048.012l.071-.024c.056-.016.12-.025.186-.025.01 0 .02 0 .029.001h-.001c0-.003 0-.006 0-.009 0-.04.009-.078.025-.112l-.001.002c.012-.028.039-.047.071-.048v-.048c-.034 0-.067.004-.098.013l.003-.001c-.036.009-.068.022-.098.037l.003-.001c-.039-.014-.084-.023-.131-.024-.047-.001-.092-.01-.134-.025l.003.001v.004c0 .006-.002.011-.006.015-.004.004-.009.006-.015.006-.001 0-.003 0-.004 0-.019.001-.036.01-.048.024l-.454-.024-.048.024q0-.024-.048-.024h-.024l-.048.048q0-.024-.036-.036c-.028-.008-.06-.012-.093-.012-.005 0-.01 0-.015 0h.001l-.048.024h-.119v-.024q.859-.095.859-.24h.004c.012 0 .024.005.032.012.008.009.012.02.012.032v.004l.167-.024v-.048l-1.36.024q0 .024-.012.024h-.179c-.003 0-.006 0-.009 0-.023 0-.044.005-.064.013h.001c-.018.01-.034.022-.048.036l-.071-.024c-.068 0-.134.009-.197.025l.005-.001-.191.048c-.034 0-.067-.004-.098-.013l.003.001c-.029-.008-.061-.012-.095-.012h-.095c-.035 0-.068.009-.096.025l.001-.001-.31.024-.143-.024c.031-.153.076-.289.136-.417l-.005.011q.131-.334.418-.93c.036-.106.076-.197.124-.283l-.004.009c.047-.087.103-.161.167-.226h.048c.019.001.036.01.048.024l.191-.071h.119c.119 0 .234-.018.342-.05l-.009.002c.134-.039.244-.079.352-.126l-.018.007q0 .024.012.024h.107l.167-.024.501-.048q.191-.024.37-.06t.346-.08l-.024-.048c-.007.001-.016.001-.025.001-.031 0-.06-.004-.089-.011l.003.001q-.036-.012-.036-.036c-.001-.032-.02-.059-.047-.071h-.001c-.037-.015-.08-.024-.125-.024-.006 0-.013 0-.019.001h.001v-.048l.119-.048.382-.024v-.048h-.24v-.048l.143-.024h.004c.012 0 .024-.005.032-.012.008-.009.012-.02.012-.032 0-.001 0-.003 0-.004-.008 0-.018 0-.028 0-.066 0-.13-.004-.194-.013l.007.001q-.071-.012-.071-.036c-.404.038-.873.06-1.347.06-.214 0-.428-.004-.64-.013l.03.001c-.001 0-.002 0-.004 0-.012 0-.024.005-.032.012l-.036.036-.071-.071c.155-.421.364-.784.625-1.104l-.005.007c-.001.022-.005.042-.012.061v-.001c-.008.023-.02.044-.036.06v.024h.048c.072-.149.139-.27.212-.387l-.01.017q.08-.13.155-.131.31-.024.24-.06t.573-.131c.018 0 .034.005.049.012h-.001c.014.007.03.012.048.012.4-.09.888-.166 1.386-.211l.045-.003v-.071l-.334.048v-.048c.018 0 .034-.005.049-.012h-.001c.018-.01.034-.022.048-.036v.024c.018 0 .034-.005.049-.012h-.001l.022-.014h.143c.043-.002.084-.011.122-.025l-.003.001c.043-.015.092-.024.143-.024l.214-.024.072-.072v-.024h-.048c-.003 0-.006 0-.009 0-.023 0-.044-.005-.064-.013h.001c-.019-.008-.04-.012-.063-.012-.003 0-.006 0-.009 0 0-.001 0-.002 0-.004 0-.012.005-.024.012-.032.009-.008.02-.012.032-.012h.006l.382-.048.191-.048v.024h.024.004c.012 0 .024-.005.032-.012.009-.008.02-.012.032-.012h.004.024l-.048.095c-.015.028-.024.06-.024.095l-.048.024c0-.018-.005-.034-.012-.049v.001c-.01-.018-.022-.034-.036-.048h-.024q-.358.954-.56 1.538t-.537 1.324c-.025.113-.062.213-.111.305l.003-.007c-.024.05-.051.093-.081.133l.001-.002v.004c0 .012.005.024.012.032l.012.012h.024v.048.009c0 .056-.009.111-.025.162l.001-.004c-.019.055-.043.102-.073.145l.001-.002q-.143.43-.24.668c-.033.112-.091.208-.167.287l.048.262v.004c0 .012-.005.024-.012.032l-.012.012h-.048c.001-.005.001-.01.001-.016 0-.03-.009-.057-.025-.08-.017-.015-.04-.024-.064-.024-.002 0-.005 0-.007 0h-.024c-.029.044-.056.095-.078.149l-.002.006c-.022.05-.043.109-.058.171l-.002.008h.048c.029-.014.053-.034.071-.059v-.001c.015-.023.024-.05.024-.08h.098l.048.024c-.018.019-.03.043-.036.07v.001c-.009.036-.022.068-.037.098l.001-.003.048.048-.071.143c.035 0 .068.009.096.025l-.001-.001c.027.013.051.029.071.048.022-.012.048-.024.076-.034l.005-.002c.023-.008.044-.02.06-.036h.597l.167-.048h.097.005c.061 0 .122-.004.181-.013l-.007.001c.052-.008.113-.012.174-.012h.005.048l.048-.024v.024c.022-.001.042-.005.061-.012h-.001c.018-.007.038-.011.06-.012h.005c.045 0 .088.004.131.013l-.004-.001c.032.007.069.011.107.012v.024h-.119v.048c.018 0 .034-.005.049-.012h-.001c.014-.007.03-.012.048-.012l.012.012c.008.009.012.02.012.032v.004c-.022.001-.042.005-.061.012h.001c-.024.008-.051.012-.079.012h-.001l-.024-.024-.071.024-.048.024-.071-.024v.012q0 .012-.024.012v.004c0 .012.005.024.012.032.009.008.02.012.032.012h.004.071l.382-.048.143-.024.012.012q.012.012.012-.012l.071-.024h.143.014c.033 0 .065-.004.096-.013l-.003.001c.055-.014.124-.027.194-.035l.008-.001q0-.024.012-.024h.012v.024l.48-.096-.024.024q.071-.024.06-.024t-.012-.024q0 .024.012.024h.08v-.048h-.167c-.022.001-.042.005-.061.012h.001c-.018.007-.038.011-.06.012h-.36v-.024l.191-.024h.071l.048-.024v.024c.121-.015.261-.024.402-.024h.016-.001c.417-.041.795-.108 1.162-.203l-.052.011c.002 0 .005.001.008.001.024 0 .044-.015.052-.036q.012-.036.036-.131h-.071c-.055 0-.109.005-.161.013l.006-.001c-.072.011-.132.023-.192.039l.012-.003-.012-.012c-.008-.009-.012-.02-.012-.032 0-.001 0-.003 0-.004v-.024h.176c.035 0 .068-.009.096-.025l-.001.001.095-.048v.004c0 .006-.002.011-.006.015-.004.004-.009.006-.015.006-.001 0-.003 0-.004 0zm-8.751.143h-.095c.016-.083.037-.155.063-.224l-.003.01c.028-.078.055-.142.085-.203l-.005.012.048.024c0 .069-.014.135-.037.195l.001-.004c-.019.05-.038.113-.054.178l-.002.012zm.095-.406v-.024c0-.001 0-.002 0-.004 0-.012.005-.024.012-.032.017-.014.037-.026.058-.035l.002-.001v.048c0 .016-.01.03-.024.036-.014.008-.031.012-.049.012-.001 0-.001 0-.002 0zm1.12.859v.024h-.143v-.024zm-.167-.024q0 .024-.036.048c-.031.019-.066.035-.104.047l-.003.001-.167-.024h-.048v-.048zm1.12-5.177h-.095v-.024c0-.001 0-.002 0-.004 0-.012.005-.024.012-.032.009-.008.02-.012.032-.012h.004.048l.048.024v.004c0 .012-.005.024-.012.032-.009.008-.02.012-.032.012-.001 0-.003 0-.004 0zm1.264-.24h.024v.048h-.071c0-.001 0-.002 0-.004 0-.012.005-.024.012-.032.008-.007.019-.011.03-.011h.005zm-.31.12-.143-.024v-.024h.005c.061 0 .122-.004.181-.013l-.007.001c.059-.009.111-.03.156-.061l-.001.001v.004c0 .012.005.024.012.032.009.008.02.012.032.012h.004v.048h-.071c-.018 0-.034-.005-.049-.012l-.023-.012c-.012.014-.029.023-.048.024h-.051zm.143.453v-.024h.214v.024zm.215-.167v-.024h.095v.024zm.024-.358h-.024l.024-.048.24-.024v.024c-.035.013-.079.025-.124.035l-.007.001c-.032.007-.069.012-.108.012zm.119.501v-.048h.095.006c.012 0 .022.005.03.012.008.008.012.018.012.03v.006zm.597-.835-.119.048h-.261.005c.078 0 .155-.004.231-.013l-.009.001q.107-.012.155-.012zm-.12.574v.024l-.191.024v-.024zm.287.144-.036-.012c-.032-.012-.058-.024-.083-.038l.003.002-.167.048h-.143c-.001 0-.002 0-.004 0-.012 0-.024-.005-.032-.012l-.012-.012h.167l.334-.071h.191v.024q-.071.024-.119.036c-.033.008-.071.012-.109.012-.003 0-.007 0-.01 0h.001zm1.813-.48h.024c.029-.028.06-.054.093-.078l.002-.002c.034-.025.074-.045.116-.059l.003-.001c-.015.129-.053.246-.11.351l.003-.005c-.056.105-.115.194-.182.278l.003-.004-.119-.048c.027-.055.055-.122.077-.191l.003-.011q.036-.107.06-.202zm-.311.524h.024c-.013.027-.029.051-.048.071-.012.014-.029.023-.048.024v-.071h.036c.015-.003.027-.011.037-.022zm-.191.48c0-.001 0-.002 0-.003 0-.064.013-.124.037-.179l-.001.003c.027-.06.063-.112.107-.155v.024c-.009.075-.03.144-.062.206l.002-.004c-.018.03-.038.056-.06.08v.095c-.016.031-.032.057-.05.083l.002-.003c-.013.017-.022.037-.024.06h-.024l-.026-.136c.019-.001.036-.01.048-.024.014-.012.023-.029.024-.048zm-.071.24q-.024.071-.036.119c-.009.036-.022.068-.037.098l.001-.003-.024-.024v-.048c.01-.037.026-.068.048-.096.012-.014.029-.023.048-.024zm-1.455 4.176v-.024h.048v.071l-.024-.012c-.014-.006-.023-.02-.023-.035 0-.001 0-.001 0-.002zm2.052.048v-.011q0-.012-.024-.012l-.119.024v-.024h.024l.262-.024v.024h-.001c-.028 0-.055.004-.081.013l.002-.001c-.017.006-.037.009-.058.009-.002 0-.003 0-.005 0zm-.12-.382-.143.024v-.024l.143-.024.119-.024v.024h.024c.034-.01.074-.019.116-.024h.003c.027-.003.051-.012.072-.024h-.001l.012.012c.008.009.012.02.012.032v.004zm.549-.024c-.02-.012-.045-.021-.07-.024h-.001-.095v-.024h.143l.024.024zm.167-.048v-.024h.004c.012 0 .024-.005.032-.012l.012-.012h.024l.024.012c.014.006.024.02.024.036zm.215-.024v-.024h.095v.024zm.119-.024v-.024l.024-.024.048.048v-.024l.024.048zm1.79-.215v-.014q0-.012-.024-.012t-.012.012-.012.012v.024l-.024.048.071-.024zm.119.095h-.023v.048h.119q0-.024-.036-.024h-.06z"/></svg>