<!--Generated by Fontisto--><svg viewBox="0 0 22 24" xmlns="http://www.w3.org/2000/svg"><path d="m3.334 12.647c2.609-.562 2.249-3.683 2.175-4.365-.128-1.05-1.366-2.883-3.043-2.739-2.109.186-2.417 3.239-2.417 3.239-.287 1.41.682 4.425 3.285 3.864zm4.843-5.239c1.44 0 2.599-1.659 2.599-3.709s-1.157-3.698-2.595-3.698-2.61 1.649-2.61 3.699 1.17 3.709 2.609 3.709zm6.208.245c1.929.26 3.161-1.799 3.411-3.359.011-.104.017-.224.017-.346 0-1.533-.982-2.836-2.352-3.315l-.025-.008c-1.37-.316-3.059 1.873-3.229 3.299-.18 1.749.25 3.489 2.169 3.736zm7.631 2.629c-.011-1.619-1.297-2.934-2.904-2.992h-.005c-2.299 0-2.609 2.119-2.609 3.619 0 1.43.118 3.419 2.984 3.359s2.542-3.239 2.542-3.989zm-2.899 6.533c-1.782-1.41-3.336-2.987-4.678-4.735l-.047-.063c-2.359-3.676-5.713-2.179-6.832-.32-.884 1.295-1.91 2.407-3.075 3.353l-.029.023c-.25.31-3.599 2.119-2.853 5.418s3.359 3.239 3.359 3.239c.3.022.65.034 1.003.034 1.118 0 2.207-.125 3.254-.363l-.098.019c.552-.124 1.185-.195 1.835-.195.827 0 1.627.115 2.385.33l-.062-.015s5.205 1.749 6.646-1.609c1.424-3.369-.81-5.108-.81-5.108z"/></svg>