<!--Generated by Fontisto--><svg viewBox="0 0 31 24" xmlns="http://www.w3.org/2000/svg"><path d="m27.618 3.676h-7.637v1.854h7.637zm-3.766 6.366c-.054-.004-.117-.006-.181-.006-1.614 0-2.922 1.306-2.927 2.919h6.098c.003-.047.004-.102.004-.157 0-1.53-1.241-2.771-2.771-2.771-.079 0-.157.003-.234.01l.01-.001zm.24 8.742c.67-.004 1.298-.181 1.842-.49l-.019.01c.536-.265.942-.725 1.131-1.285l.005-.016h3.302c-.702 2.668-3.092 4.604-5.935 4.604-.157 0-.313-.006-.467-.018l.021.001c-.097.005-.211.008-.325.008-1.862 0-3.547-.757-4.764-1.98-1.175-1.375-1.891-3.174-1.891-5.14 0-1.998.739-3.824 1.959-5.219l-.008.009c1.209-1.269 2.913-2.058 4.8-2.058.08 0 .16.001.239.004h-.012c.043-.001.094-.002.146-.002 1.284 0 2.479.381 3.478 1.037l-.024-.015c.997.658 1.78 1.566 2.271 2.636l.016.039c.477 1.053.756 2.283.756 3.578 0 .045 0 .09-.001.134v-.007q0 .254-.03.703h-9.839c-.005.069-.008.151-.008.232 0 .893.327 1.709.868 2.335l-.004-.005c.586.561 1.382.906 2.259.906.081 0 .161-.003.24-.009l-.011.001zm-19.952-.752h4.423q3.064 0 3.064-2.494 0-2.69-2.974-2.69h-4.513zm0-8.025h4.2c.047.003.102.004.158.004.634 0 1.221-.206 1.696-.555l-.008.006c.422-.376.686-.922.686-1.529 0-.06-.003-.119-.008-.178l.001.008q0-2.152-2.839-2.153h-3.886zm-4.14-7.606h8.88c.037 0 .081-.001.126-.001.775 0 1.532.076 2.264.222l-.074-.012c.713.147 1.346.393 1.922.727l-.031-.016c.582.338 1.043.83 1.334 1.42l.009.02c.298.629.473 1.368.473 2.146 0 .055-.001.11-.003.164v-.008c.001.039.002.085.002.131 0 1.713-1.052 3.18-2.545 3.79l-.027.01c1.062.262 1.952.875 2.562 1.706l.009.012c.545.808.869 1.804.869 2.875 0 .061-.001.121-.003.181v-.009.072c0 .708-.135 1.384-.379 2.005l.013-.037c-.234.601-.569 1.116-.988 1.548l.001-.001c-.42.42-.905.774-1.439 1.046l-.032.015c-.522.271-1.126.488-1.763.62l-.046.008c-.588.122-1.263.192-1.955.192-.017 0-.034 0-.051 0h-9.129z"/></svg>