<!--Generated by Fontisto--><svg viewBox="0 0 27 24" xmlns="http://www.w3.org/2000/svg"><path d="m26.779 11.722c-1.404-1.35-8.425-2.192-10.64-2.437.093-.21.187-.471.264-.74l.011-.046c.255-.117.575-.239.904-.342l.062-.017c.041.122.235.586.341.806 4.456.123 4.684-3.31 4.865-4.252.128-1.366.755-2.565 1.695-3.43l.004-.003c-2.275-.664-5.551 1.024-6.648 3.547-.35-.138-.764-.257-1.193-.335l-.042-.006c-.695-2.591-3.022-4.468-5.788-4.468-.01 0-.02 0-.031 0h.002c-2.789.036-5.311 1.148-7.177 2.939l.004-.003c-1.031.982-1.864 2.161-2.439 3.479l-.027.069c-.599 1.377-.947 2.981-.947 4.667v.107-.005c0 5.946 4.059 11.157 6.352 11.157.933-.014 1.728-.592 2.06-1.408l.005-.015c.169.462.689 1.894.86 2.258.253.54 1.421 1.007 1.934.446.294.2.658.319 1.049.319.594 0 1.123-.275 1.468-.705l.003-.004c.174.059.375.094.584.094.894 0 1.642-.629 1.823-1.469l.002-.012c.621-.033.926-.91.791-1.599-.474-1.144-1.005-2.123-1.623-3.04l.039.061c.825.671 2.914.86 3.167 0 1.33 1.043 3.402.497 3.566-.353 1.616.42 3.468-.503 3.165-1.619 2.596-.18 2.264-2.94 1.536-3.64zm-6.759-4.577c-.639-.253-1.378-.41-2.152-.433h-.01c-.861 0-1.387.488-2.198.488-.03.001-.066.002-.102.002-.286 0-.562-.042-.822-.121l.02.005c.221.219.526.354.862.354.048 0 .095-.003.141-.008l-.006.001c.527-.057 1.009-.167 1.467-.327l-.046.014c.007.105.018.207.033.311-.832.249-1.556.578-2.224.989l.04-.023c-.177-.385-.28-.836-.28-1.311 0-.754.26-1.447.695-1.994l-.005.007c1.794.125 3.391.883 4.588 2.049l-.002-.002zm.966-.104-.341-.32c-.329-.31-.686-.602-1.061-.869l-.031-.021c.542-1.194 1.265-2.213 2.146-3.069l.002-.002c-1.138.628-2.016 1.609-2.498 2.793l-.013.037c-.244-.159-.534-.323-.833-.47l-.051-.023c.877-1.793 2.613-3.046 4.658-3.224l.022-.002c-1.365 1.238-.852 3.706-2.002 5.169zm-2.804 1.157c-.165-.347-.268-.752-.284-1.18v-.006c.297.013.577.051.848.113l-.032-.006c-.024.152-.04.332-.045.514v.006c.048-.083.182-.369.237-.482.568.099 1.072.246 1.551.441l-.05-.018c-.63.388-1.394.618-2.211.618-.005 0-.01 0-.015 0zm-8.045-2.22c-.552-.198-.552-.695 0-.893s1.244.051 1.244.446-.693.644-1.244.446zm1.839.184v-.001c0-.787-.638-1.424-1.424-1.424s-1.424.638-1.424 1.424c0 .524.283.983.705 1.23l.007.004c.204.119.449.189.71.189.786 0 1.424-.635 1.428-1.421zm3.165-1.792c-.697.736-1.126 1.732-1.126 2.828 0 .854.26 1.648.706 2.305l-.009-.014c-1.125 1.591-2.827 2.71-4.796 3.053l-.044.006c.141.009.305.015.471.015 1.522 0 2.938-.455 4.12-1.236l-.028.017c.367-.269.678-.588.93-.951l.009-.013c3.52.255 6.789.867 9.918 1.804l-.324-.083c.249.185.423.46.473.776l.001.007c-2.633-.369-7.38-.756-8.622-.822.883.125 7.317 1.343 8.433 1.629-.365.485-.94.795-1.587.795-.247 0-.483-.045-.701-.128l.014.005c.63.858-.593 1.887-2.297 1.321.375.843-1.137 1.6-2.865.723.022.843-2.14.94-2.993.008.044.16.099.299.167.429l-.006-.012c-.221 2.235-2.085 3.969-4.356 3.984h-.002c-5.23-.028-9.458-4.274-9.458-9.507 0-.021 0-.042 0-.064v.003c0-5.774 4.268-10.083 9.417-10.083h.026c2.08 0 3.851 1.32 4.521 3.169l.011.033z"/></svg>