<!--Generated by Fontisto--><svg viewBox="0 0 31 24" xmlns="http://www.w3.org/2000/svg"><path d="m21.462 18.152c.071-.194.112-.417.112-.651 0-.394-.117-.76-.318-1.067l.005.007c-.321-.413-.817-.677-1.376-.677-.002 0-.004 0-.006 0l-11.257-.146c-.001 0-.001 0-.002 0-.071 0-.134-.036-.171-.09v-.001c-.023-.038-.037-.083-.037-.132 0-.025.004-.049.01-.071v.002c.042-.112.143-.192.264-.202h.001l11.353-.146c1.505-.168 2.749-1.135 3.309-2.461l.01-.027.655-1.687c.017-.041.027-.088.027-.138 0-.029-.003-.057-.01-.084v.002c-.765-3.332-3.704-5.78-7.216-5.78-3.234 0-5.983 2.076-6.987 4.968l-.016.052c-.549-.416-1.244-.667-1.997-.667-1.718 0-3.131 1.303-3.306 2.974l-.001.014c-.01.101-.016.218-.016.336 0 .293.036.578.104.85l-.005-.024c-2.551.075-4.59 2.161-4.59 4.722v.006c.002.244.019.481.05.715l-.003-.029c.017.108.108.19.219.192h20.776c.125-.002.23-.086.265-.2l.001-.002z"/><path d="m25.046 10.919c-.101 0-.21 0-.311.008-.077.005-.141.057-.164.127v.001l-.439 1.528c-.071.194-.112.417-.112.651 0 .394.117.76.318 1.067l-.005-.007c.321.413.817.677 1.376.677h.006l2.4.146h.002c.071 0 .134.036.171.09v.001c.023.038.037.084.037.133 0 .024-.003.048-.01.07v-.002c-.042.112-.143.192-.264.202h-.001l-2.496.146c-1.507.162-2.754 1.128-3.315 2.455l-.01.027-.182.467c-.006.015-.01.032-.01.051 0 .073.059.132.132.132h.007 8.578.003c.103 0 .189-.069.216-.163v-.002c.144-.499.227-1.072.228-1.664-.002-3.394-2.754-6.145-6.149-6.145-.002 0-.003 0-.005 0z"/></svg>