<!--Generated by Fontisto--><svg viewBox="0 0 24 24" xmlns="http://www.w3.org/2000/svg"><path d="m24 24h-24v-24h24zm-14.211-16.8c-.05-.002-.108-.003-.166-.003-1.385 0-2.635.575-3.525 1.5l-.001.002c-.804.882-1.297 2.061-1.297 3.355 0 .025 0 .05.001.075v-.004c-.001.035-.001.077-.001.118 0 2.655 2.152 4.807 4.807 4.807.074 0 .148-.002.221-.005h-.01c.038.001.082.002.126.002 1.161 0 2.228-.399 3.073-1.066l-.01.008c.764-.63 1.302-1.511 1.489-2.514l.004-.026h-2.3c-.297.963-1.179 1.65-2.221 1.65-.048 0-.096-.001-.143-.004h.006c-.014 0-.03 0-.047 0-.791 0-1.504-.333-2.007-.867l-.001-.001c-.485-.541-.781-1.259-.781-2.046 0-.019 0-.039.001-.058v.003c0-.016 0-.036 0-.055 0-.769.277-1.473.736-2.018l-.004.005c.491-.556 1.205-.904 2.001-.904.028 0 .056 0 .083.001h-.004c.024-.001.052-.001.08-.001.595 0 1.141.208 1.57.556l-.005-.004c.395.347.67.822.761 1.36l.002.014h2.26c-.122-1.099-.642-2.057-1.409-2.744l-.004-.004c-.84-.705-1.933-1.133-3.126-1.133-.055 0-.109.001-.163.003h.008zm7.334.219-1.382.592 1.731 4.049-1.732 4.05 1.382.59 1.162-2.737.006.013.804-1.92z"/></svg>