<!--Generated by Fontisto--><svg viewBox="0 0 24 24" xmlns="http://www.w3.org/2000/svg"><path d="m2.893 15.656 8.076 5.384v-4.808l-4.474-2.986zm-.831-1.928 2.585-1.728-2.585-1.728zm10.969 7.312 8.076-5.384-3.6-2.41-4.476 2.986zm-1.031-6.602 3.643-2.438-3.643-2.438-3.643 2.438zm-5.505-3.68 4.474-2.99v-4.808l-8.076 5.384zm12.858 1.242 2.585 1.728v-3.456zm-1.848-1.246 3.6-2.41-8.074-5.384v4.808zm6.495-2.41v7.312.03c0 .346-.18.651-.452.825l-.004.002-10.969 7.313c-.162.109-.361.174-.576.174s-.414-.065-.58-.176l.004.002-10.969-7.312c-.276-.176-.456-.481-.456-.827 0-.011 0-.021.001-.032v.002-7.312c0-.009 0-.02 0-.031 0-.346.18-.651.452-.825l.004-.002 10.969-7.312c.162-.109.361-.174.576-.174s.414.065.58.176l-.004-.002 10.969 7.312c.276.176.456.481.456.827 0 .011 0 .021-.001.032z"/></svg>