<!--Generated by Fontisto--><svg viewBox="0 0 30 24" xmlns="http://www.w3.org/2000/svg"><path d="m11.507 3.734c1.242-.038 2.378-.466 3.296-1.164l-.014.01c1.006-.724 2.253-1.172 3.602-1.214h.01c.186-.021.401-.034.619-.034.466 0 .92.056 1.353.162l-.039-.008q.734.21.794.63.09.394-.42.644c-.368.176-.798.289-1.25.314h-.009c-.141.031-.303.049-.47.049-.364 0-.707-.084-1.013-.235l.013.006c-.258-.127-.452-.351-.537-.623l-.002-.007q-.75.06-.944.33c-.103.124-.166.285-.166.461 0 .017.001.034.002.051v-.002q.09.42.96.75c.484.152 1.04.24 1.616.24.286 0 .568-.022.842-.063l-.031.004h.032c.889 0 1.715-.275 2.396-.743l-.014.009c.329-.257.539-.654.539-1.1 0-.072-.005-.142-.016-.211l.001.008q-.18-.9-1.513-1.513c-.794-.306-1.712-.483-2.672-.483-.384 0-.762.028-1.132.083l.042-.005q-3.117.296-3.972 1.319c-.758.742-1.796 1.199-2.942 1.199-.014 0-.029 0-.043 0h.002c-.14.023-.302.036-.467.036-.309 0-.607-.046-.889-.131l.022.006c-.277-.069-.494-.272-.583-.534l-.002-.006c-.001-.014-.002-.03-.002-.046 0-.205.131-.38.313-.446l.003-.001c.249-.114.539-.194.843-.224l.011-.001c.079-.005.171-.008.264-.008.24 0 .476.019.705.057l-.025-.003c.284.036.543.105.785.205l-.021-.007c.114-.042.21-.109.284-.196l.001-.001c.034-.043.054-.099.054-.159 0-.023-.003-.046-.009-.068v.002q-.09-.33-.659-.465c-.281-.061-.604-.096-.936-.096-.156 0-.311.008-.463.023l.019-.002q-1.559.15-1.814.69c-.127.217-.201.477-.201.755 0 .04.002.08.005.119v-.005c.183.627.656 1.115 1.26 1.315l.014.004c.561.234 1.212.37 1.896.37.235 0 .466-.016.692-.047l-.026.003zm14.06 4.738q-.96.239-2.069.42t-2.338.296q-1.229.12-2.608.197t-2.848.075q-1.529 0-2.908-.075t-2.623-.21-2.353-.314-2.069-.394c-1.031-.245-1.93-.562-2.782-.961l.087.037c-.519-.222-.952-.558-1.284-.978l-.005-.007c.115.867.267 1.623.464 2.362l-.029-.128c.23.885.461 1.6.726 2.298l-.051-.153c-.322.196-.602.403-.86.634l.005-.005c-.277.248-.527.512-.755.796l-.01.013c-.424.522-.76 1.136-.974 1.804l-.011.04c-.173.536-.273 1.153-.273 1.793 0 .059.001.119.003.178v-.009c.035.666.225 1.281.535 1.818l-.01-.02c.331.561.744 1.036 1.229 1.424l.01.008c.469.381 1.031.667 1.646.819l.029.006c.29.065.623.102.965.102.316 0 .625-.032.923-.092l-.03.005c.298-.048.565-.127.817-.233l-.023.009q.405-.165.794-.285c-.01 0-.021 0-.032 0-.532 0-1.041-.099-1.51-.28l.029.01c-.533-.214-.994-.486-1.405-.817l.01.008c-.477-.359-.88-.786-1.202-1.27l-.012-.019c-.317-.476-.536-1.044-.613-1.656l-.002-.019c-.057-.25-.09-.537-.09-.832s.033-.582.095-.858l-.005.026c.135-.575.363-1.081.669-1.529l-.01.015q.12-.12.225-.239t.225-.239q.27.69.584 1.349t.68 1.29q.719 1.109 1.469 2.143t1.498 2.08c.188.346.375.761.533 1.191l.022.068c.127.337.246.749.335 1.172l.01.057c.337.456.733.844 1.183 1.161l.016.011c.448.312.965.567 1.519.739l.04.011c.613.219 1.34.402 2.09.516l.067.008c.672.105 1.447.165 2.236.165h.013.149c.816-.001 1.616-.067 2.395-.192l-.087.011c.857-.132 1.615-.32 2.345-.568l-.096.028c.566-.189 1.057-.438 1.503-.747l-.02.013c.464-.326.856-.718 1.172-1.167l.01-.015h.09q.12-.54.314-1.199c.149-.496.327-.923.543-1.327l-.019.038q.719-1.049 1.469-2.069t1.499-2.158c.609-1.085 1.171-2.353 1.616-3.676l.047-.161c.402-1.163.771-2.584 1.036-4.041l.028-.186c-.362.437-.812.787-1.326 1.025l-.023.01c-.76.368-1.642.663-2.566.841l-.068.011zm-19.815-2.07q.96.239 2.069.42t2.338.296q1.229.12 2.593.18t2.857.06q1.529 0 2.893-.06t2.593-.18 2.323-.314 2.083-.405c1.149-.251 2.166-.634 3.105-1.14l-.062.031q1.004-.599 1.004-1.199c-.017-.346-.182-.65-.432-.853l-.002-.002c-.353-.305-.766-.554-1.216-.725l-.028-.009c.12.083.219.188.293.31l.003.004c.074.115.119.254.12.405q0 .63-.929 1.139c-.804.402-1.737.723-2.716.917l-.071.012q-1.739.36-3.957.615c-1.41.163-3.044.256-4.7.256-.076 0-.152 0-.227-.001h.012c-.049 0-.106 0-.163 0-1.658 0-3.296-.087-4.909-.257l.201.017c-1.528-.153-2.872-.364-4.192-.643l.25.044c-1.034-.231-1.945-.562-2.797-.991l.068.031q-.929-.509-.929-1.109v-.001c0-.187.05-.362.138-.513l-.003.005c.127-.196.292-.357.486-.476l.007-.004c-.66.245-1.229.532-1.758.875l.035-.021c-.341.2-.57.559-.584.973v.002q.06.63 1.094 1.229c.897.474 1.936.849 3.031 1.071l.075.013z"/></svg>