<!--Generated by Fontisto--><svg viewBox="0 0 18 24" xmlns="http://www.w3.org/2000/svg"><path d="m5.558 23.914c-.016-.029-.025-.063-.025-.099 0-.05.018-.096.047-.132.046-.065.098-.122.149-.182.238-.299.47-.635.68-.985l.024-.042c.096-.156.194-.292.301-.418l-.004.005c.029-.033.06-.062.092-.089l.001-.001c.14-.108.264-.061.296.112.006.053.01.115.01.177 0 .09-.007.179-.021.265l.001-.009c-.011.11-.026.218-.036.328-.004.032-.017.072.014.086s.061-.026.08-.05l.367-.456c.124-.16.253-.302.391-.434l.001-.001c.074-.067.154-.125.262-.072s.115.14.12.24c-.01.267-.047.52-.109.763l.005-.025c-.018.072-.028.154-.028.239 0 .051.004.102.011.151l-.001-.006c.007.045.03.084.062.112.05.038.082.098.082.165 0 .075-.04.141-.1.178l-.001.001c-.068.045-.15.071-.24.071-.013 0-.027-.001-.04-.002h.002c-.101-.012-.179-.093-.187-.194v-.001c-.008-.072-.013-.156-.013-.24 0-.115.009-.229.026-.339l-.002.012c.005-.037.008-.079.008-.122 0-.076-.009-.15-.026-.221l.001.006c-.12.16-.235.302-.349.447-.106.132-.214.25-.33.361l-.001.001c-.059.058-.126.109-.199.149l-.005.002c-.03.02-.067.031-.107.031-.104 0-.19-.08-.198-.182v-.001c-.006-.051-.01-.11-.01-.17 0-.086.007-.17.022-.252l-.001.009c0-.038.006-.074.011-.111-.036-.01-.04.019-.053.034-.209.283-.418.569-.626.853-.043.058-.086.118-.169.122h-.015c-.004 0-.008 0-.013 0-.066 0-.123-.034-.157-.085v-.001zm11.063-.074c-.199-.1-.364-.24-.492-.409l-.003-.004c-.142-.176-.283-.35-.432-.538-.046.168-.085.37-.109.577l-.002.019c-.026.204-.106.295-.264.32-.176.026-.264-.06-.223-.228.119-.506.247-1.008.371-1.512.018-.073.055-.137.104-.187.039-.05.099-.083.167-.083.048 0 .093.016.129.044.048.032.065.005.094-.017.096-.092.227-.148.37-.148.023 0 .045.001.067.004h-.003c.191.019.338.178.338.372v.008c.004.029.006.063.006.097 0 .254-.128.479-.324.612l-.003.002c-.12.08-.115.08-.026.202.108.151.227.282.36.398l.003.002c.04.039.092.064.15.07h.001.004c.076 0 .139.053.156.124v.001c.007.019.011.041.011.063 0 .057-.026.108-.066.143-.062.062-.146.102-.239.106h-.001c-.054-.001-.104-.014-.148-.037l.002.001zm-.471-1.76c-.144.014-.263.109-.313.237l-.001.003c-.054.124-.093.267-.11.417l-.001.007c.199-.076.366-.197.495-.351l.002-.002c.03-.037.054-.081.069-.129l.001-.003c.032-.106-.017-.178-.121-.178zm-11.956 1.305c-.002-.027-.002-.058-.002-.09 0-.5.213-.949.553-1.263l.001-.001c.137-.141.328-.229.54-.229.044 0 .088.004.13.011l-.005-.001c.038.005.072.012.091-.038.031-.09.105-.084.173-.058.194.108.326.305.341.535v.002c-.027.758-.543 1.388-1.242 1.584l-.012.003c-.048.012-.103.019-.16.019-.25-.004-.397-.174-.409-.474zm.711-1.023c-.188.235-.308.532-.324.856v.004c-.001.007-.001.016-.001.025 0 .118.095.213.213.213.014 0 .028-.001.042-.004h-.001c.125-.013.237-.064.325-.141l-.001.001c.233-.203.39-.49.422-.813v-.005c.005-.16-.033-.218-.144-.262-.055-.023-.12-.036-.187-.037-.138 0-.262.064-.342.163l-.001.001zm5.183 1.016c-.001-.026-.002-.057-.002-.088 0-.497.21-.945.546-1.261l.001-.001c.092-.091.206-.161.333-.2l.006-.002c.02-.005.038-.011.055-.02l-.001.001c.353-.213.708-.432 1.082-.66-.202-.08-.378-.148-.56-.22-.039-.014-.058.014-.08.033-.22.172-.416.346-.6.532l-.001.001c-.188.201-.387.386-.598.556l-.011.009c-.038.027-.063.071-.063.12 0 .005 0 .01.001.015v-.001c-.014.191-.108.358-.248.469l-.001.001c-.148.137-.324.247-.517.321l-.011.004c-.133.053-.262.108-.394.16-.031.007-.053.035-.054.067-.014.111-.033.219-.053.327-.023.133-.137.232-.274.232-.028 0-.055-.004-.081-.012l.002.001c-.074-.023-.126-.09-.126-.17 0-.017.002-.033.007-.048v.001c.169-.523.313-1.056.53-1.562.031-.072.103-.086.16-.137-.104-.046-.225-.082-.351-.103l-.009-.001c-1.022-.223-2.048-.425-3.078-.617-.218-.04-.444-.031-.667-.05-.619-.053-1.241-.026-1.861-.04-.25-.005-.497 0-.746-.012-.04 0-.079-.005-.117-.013l.004.001c-.035-.009-.06-.04-.06-.078 0-.003 0-.006.001-.009 0-.029.039-.024.062-.026.492-.054.986-.118 1.481-.151.204-.014.409-.012.614-.01h.435c.493.002.976.037 1.449.103l-.056-.006c.16.017.324.029.487.043.014.011.031.036.05.024s0-.031-.01-.046c0-.003 0-.007 0-.01 0-.053-.03-.098-.075-.12h-.001c-.197-.108-.425-.191-.667-.238l-.015-.002q-1.052-.32-2.122-.574c-.285-.07-.624-.124-.971-.151l-.022-.001c-.01-.003-.022-.005-.034-.005-.024 0-.046.007-.065.02q.416.334.833.666c-.04.036-.074.01-.108 0-.2-.083-.37-.173-.531-.277l.013.008c-.23-.142-.495-.272-.774-.378l-.033-.011c-.031-.01-.057-.023-.082-.037l.002.001c-.048-.029-.038-.075-.031-.118s.047-.029.074-.029c.037 0 .081-.001.125-.001.488 0 .969.025 1.444.075l-.059-.005c.314.026.622.106.932.16.032.005.062.011.094.014.046.005.118.048.133 0 .007-.02.012-.043.012-.067 0-.056-.023-.106-.06-.142-.07-.062-.147-.124-.226-.181l-.009-.006c-.029-.015-.049-.046-.049-.08 0-.02.007-.039.018-.054.033-.062.054-.134.089-.198s.022-.101-.038-.146c-.653-.48-1.304-.96-1.954-1.44-.248-.182-.493-.364-.739-.542-.049-.03-.081-.083-.081-.143 0-.006 0-.012.001-.018v.001c.001-.011.002-.024.002-.037 0-.066-.015-.128-.041-.184l.001.003c-.034-.078-.101-.137-.183-.16h-.002c-.16-.05-.314-.115-.473-.166-.067-.022-.08-.058-.08-.122-.012-.262.033-.522.024-.782-.019-.536-.05-1.069-.06-1.6-.005-.202 0-.4-.012-.606-.019-.415-.019-.83-.026-1.246 0-.002 0-.005 0-.007 0-.042.013-.08.034-.112v.001c.01-.022.016-.048.016-.076 0-.052-.021-.099-.054-.133-.068-.089-.133-.177-.199-.264-.025-.03-.04-.069-.04-.112 0-.017.002-.034.007-.049v.001c.048-.223.08-.451.126-.678.01-.053-.022-.054-.058-.06-.192-.029-.385-.06-.579-.084-.065-.007-.072-.031-.067-.09q.093-.998.182-1.995v-.01c.014-.126.014-.126.137-.094q.417.105.833.212c.053.014.08.014.091-.055.048-.274.114-.516.201-.749l-.009.029c.007-.018.01-.039.01-.061 0-.028-.006-.054-.017-.077v.001c-.127-.293-.255-.583-.379-.88-.022-.05-.039-.058-.086-.029s-.106.11-.16.08c-.043-.022-.055-.108-.08-.166l-.007-.017c-.037-.075-.098-.156-.085-.226s.12-.086.187-.125c.053-.031.031-.065.019-.103-.144-.442-.293-.878-.426-1.322s-.266-.906-.382-1.364c-.06-.222-.113-.495-.148-.775l-.003-.032c.002-.119.023-.233.06-.339l-.002.008c.01-.041.043-.034.069-.036.014-.002.03-.003.046-.003.128 0 .242.064.311.162l.001.001c.076.098.15.209.216.325l.007.014q.32.56.64 1.12c.033.06.047.053.084 0 .191-.266.355-.547.526-.828.148-.24.348-.45.506-.682.066-.078.159-.132.264-.147h.002c.005-.001.01-.002.016-.002.018 0 .034.006.046.016.106.061.197.13.279.209.036.046.074.032.118.019.821-.226 1.534-.516 2.204-.877l-.055.027c.061-.035.134-.071.209-.101l.012-.004c.154-.062.266.026.245.198-.018.147-.086.275-.187.369-.266.252-.53.511-.818.742-.032.02-.054.055-.054.095 0 .015.003.03.009.043v-.001c.089.332.178.602.281.864l-.019-.055c.05.113.05.113.151.05q1.722-1.07 3.44-2.142c.115-.07.115-.07.199.029.011.016.023.03.036.043.058.05.033.08-.019.11-.414.264-.821.53-1.232.795q-.506.33-1.015.658c-.026.017-.058.026-.08.065.026.007.057.012.088.014h.001.014c.111 0 .208.058.263.145l.001.001c.085.077.141.184.152.304v.002c0 .007.001.015.001.024 0 .101-.042.193-.11.258-.274.247-.526.502-.762.771l-.009.01c-.035.044-.069.092-.098.143l-.003.005c-.311.494-.637 1.087-.931 1.7l-.048.112c-.077.141-.188.254-.323.331l-.004.002c-.173.101-.348.202-.53.288-.082.028-.14.104-.14.194 0 .007 0 .014.001.021v-.001.013c0 .121-.063.228-.159.288l-.001.001c-.026.022-.045.052-.055.085v.001c-.08.232-.162.534-.229.842l-.011.059c-.022.08.012.103.084.12.382.09.763.191 1.145.283.08.019.09.046.07.12-.103.389-.221.773-.302 1.17-.022.105-.046.209-.068.312-.017.074-.053.089-.119.08-.09-.012-.176-.017-.264-.026-.031-.004-.06-.007-.053.039.038.245.08.49.119.744.034-.022.059-.055.069-.095v-.001c.224-.484.486-.9.791-1.28l-.009.012c.278-.334.588-.64.898-.943.293-.264.628-.491.99-.669l.026-.011c.072-.04.151-.065.22-.108.33-.181.722-.289 1.14-.292h.001c.119-.012.257-.018.396-.018.024 0 .048 0 .071.001h-.004c.314.014.609.075.885.175l-.021-.007c.38.144.707.341.991.587l-.004-.003c.11.108.206.23.284.364l.005.008c.021.042.063.07.112.07.018 0 .034-.004.049-.01h-.001c.171-.048.367-.075.569-.075.196 0 .386.026.566.074l-.015-.003c.129.024.243.068.346.13l-.005-.003c.266.137.496.297.701.483l-.003-.003c.039.036.075.074.109.113l.002.002c.204.239.407.504.598.778l.022.034c.135.206.244.443.316.697l.004.018c.04-.122.08-.245.122-.367.004-.014-.018-.038-.029-.058-.098-.168-.198-.335-.3-.502-.012-.015-.02-.035-.02-.056 0-.024.009-.046.025-.062.098-.163.192-.3.293-.432l-.008.011c.036-.04 0-.094-.024-.13s-.055 0-.08.014c-.233.12-.24.12-.365-.11l-.91-1.64c-.068-.119-.065-.122.067-.16.37-.113.739-.226 1.112-.334.072-.022.096-.043.07-.122q-.111-.356-.212-.716c-.01-.05-.046-.091-.093-.108h-.001c-.022-.007-.038-.022-.06-.029-.16-.036-.281-.165-.305-.327v-.002c-.009-.048-.046-.084-.093-.093h-.001c-.05-.011-.098-.038-.151-.05-.465-.131-.872-.331-1.231-.591l.011.008c-.134-.098-.253-.197-.364-.303l.001.001c-.034-.031-.073-.058-.115-.079l-.003-.001c-.414-.188-.909-.364-1.42-.499l-.067-.015c-.257-.065-.226-.182-.16-.391.066-.159.216-.27.392-.281h.001c.365-.104.791-.177 1.229-.204l.017-.001c.065 0 .08-.014.043-.074-.066-.139-.154-.257-.261-.354l-.001-.001c-.041-.036-.079-.073-.114-.112l-.001-.001c-.406-.434-.854-.821-1.339-1.156l-.027-.018c-.116-.065-.199-.177-.223-.309v-.003c-.002-.013-.003-.028-.003-.043 0-.083.036-.157.093-.209.083-.091.202-.148.334-.148.02 0 .04.001.059.004h-.002c.174.016.332.077.464.172l-.003-.002c.3.195.595.4.896.598.06.04.126.074.187.11 0 0 0 .005.005.007.009.011.021.019.036.022.003 0 .006.001.01.001s.007 0 .01-.001c-.007-.016-.016-.029-.029-.039l-.012-.008c-.43-.429-.86-.859-1.304-1.274-.146-.128-.238-.315-.238-.524 0-.035.003-.069.008-.103v.004c.027-.095.101-.168.196-.192h.002c.089-.007.134-.032.134-.14 0-.002 0-.004 0-.007 0-.16.13-.29.29-.29.023 0 .046.003.068.008h-.002c.127.014.257.026.384.04.079.008.152.031.217.066l-.003-.002c.585.29 1.077.58 1.546.9l-.044-.028c.374.248.701.513 1 .806l-.001-.001c.01.025.034.043.062.043-.017-.029-.029-.048-.038-.068-.166-.42-.338-.84-.529-1.25-.02-.047-.031-.101-.031-.158 0-.104.038-.2.102-.272.036-.058.1-.097.173-.097.008 0 .017.001.025.002h-.001c.081.004.156.022.226.05l-.005-.002c.187.097.337.246.433.427l.003.005c.263.414.509.842.737 1.274.198.364.369.786.49 1.228l.01.042c.119.446.209.973.252 1.514l.002.032c.001.011.002.02.005.03v-.001c.012.07.018.151.018.234 0 .118-.014.233-.04.343l.002-.01c-.023.049-.037.107-.037.168 0 .055.011.107.031.154l-.001-.003c.19.533.37 1.07.601 1.589.062.137.065.137.204.094.457-.142.91-.278 1.36-.422.086-.026.101-.01.094.075-.047.605-.094 1.212-.139 1.818v.01c0 .064-.045.117-.105.131h-.001c-.142.043-.278.104-.418.151-.062.022-.067.044-.012.08.08.086.154.178.234.262.096.103.182.216.271.326.08.098.072.139-.018.23-.036.039-.08.08-.043.14.065.127.103.278.103.437 0 .099-.015.195-.042.285l.002-.007c-.005.024-.008.052-.008.081 0 .044.008.087.021.127l-.001-.003c.023.106.051.196.084.284l-.004-.013c.024.066.038.143.038.223 0 .085-.016.166-.044.24l.002-.005c-.152.503-.323.93-.526 1.339l.022-.049c-.127.314-.247.631-.372.948-.113.318-.203.693-.254 1.08l-.003.029c-.05.296-.155.577-.187.874-.018.194-.043.389-.074.581-.019.132-.054.251-.102.362l.004-.009c-.101.226-.198.45-.298.674-.034.073-.055.158-.058.247v.001c-.007.197-.036.389-.034.586 0 .058 0 .086.08.068.245-.058.493-.104.739-.154.022-.005.053-.019.067.01s-.017.036-.033.048c-.264.191-.494.402-.699.635l-.004.005c-.111.12-.223.24-.336.358-.011.013-.027.022-.046.022-.008 0-.015-.001-.022-.004.107-.252.231-.469.378-.669l-.007.009c.005 0 .007 0 .01-.005.005-.004.008-.009.008-.016 0-.004-.001-.008-.003-.011s0 0-.005 0h-.002c-.005 0-.008.005-.01.01-.545.221-1.083.466-1.625.692-.66.274-1.294.605-1.926.938-.029.014-.046.029-.041.062.019.166.036.331.055.504.032-.013.059-.025.084-.038l-.004.002c.714-.386 1.453-.71 2.194-1.034.48-.211.99-.353 1.481-.536.205-.074.444-.13.691-.159l.015-.001c.004.006.011.011.014.018-.168.068-.326.262-.486.262-.062.028-.115.057-.165.089l.005-.003c-.078.05-.144.112-.196.185l-.001.002c-.033.003-.06.022-.074.05v.001s-.019.014-.019.022h-.004v.005c-.05-.014-.24.187-.302.25.007 0 .016-.001.024-.001s.017 0 .025.001h-.001.012c.029 0 .058-.005.083-.015l-.002.001.017-.008c.253-.065.551-.112.856-.133l.016-.001c.069-.005.137-.012.206-.019.025.005.05.012.075.017-1.064.274-2.125.56-3.164.918-.951.304-1.77.666-2.54 1.105l.065-.034c-.01.007-.019.014-.038.026.062.06.12.124.174.19l.003.004c.066.096.105.214.105.341 0 .062-.009.121-.026.177l.001-.004c-.108.666-.59 1.197-1.219 1.375l-.012.003c-.048.012-.103.019-.16.02-.258-.011-.405-.178-.417-.481zm.709-1.028c-.194.239-.317.544-.331.877v.003c-.001.007-.001.014-.001.022 0 .116.094.21.21.21.014 0 .027-.001.04-.004h-.001c.124-.012.234-.061.321-.137l-.001.001c.233-.204.39-.49.424-.813v-.006c0-.169-.036-.223-.148-.27-.054-.021-.117-.034-.182-.034-.131.001-.247.059-.327.151v.001zm-1.525-.136c-.103.169-.187.363-.241.57l-.003.015c.184-.054.343-.136.484-.243l-.004.003c.073-.05.134-.111.182-.182l.002-.002c.02-.026.032-.06.032-.096 0-.058-.031-.109-.077-.137h-.001c-.041-.022-.09-.034-.141-.034-.094 0-.179.042-.236.109zm.328-1.722c-.36.16-.734.284-1.102.421-.029.01-.064.01-.08.046.17.06.346.089.511.16.434.182.795.364 1.141.568l-.043-.024c.018.016.041.025.066.025.032 0 .061-.015.08-.039.206-.194.425-.374.646-.552q.189-.15.374-.305l-.845-.349c-.008-.003-.017-.005-.027-.005-.017 0-.033.005-.046.014-.078.038-.169.06-.265.06-.045 0-.09-.005-.132-.014l.004.001c-.051-.011-.112-.02-.174-.025h-.005c-.004 0-.008 0-.012 0-.033 0-.064.007-.093.019zm-1.645.739.862.214c.003.005.007.009.012.012h.01c.001 0 .002.001.004.001s.003 0 .004-.001 0 0 0-.005v-.005c0-.007 0-.01-.004-.012-.008-.006-.018-.01-.028-.01 0 0 0 0-.001 0-.19-.089-.372-.197-.57-.274-.026-.011-.057-.018-.089-.018-.079.009-.149.044-.201.098zm-.511-2.08c-.037.071-.059.154-.059.243s.022.172.06.246l-.001-.003c.014.025.022.054.022.085 0 .055-.025.105-.065.138-.094.103-.185.206-.278.31-.022.024-.047.043-.038.08.026.097 0 .212.106.278.031.022.018.058.018.089v.454c0 .033-.007.069.022.089.076.046.167.077.264.086h.003c.002.001.005.001.007.001s.005 0 .007-.001h.01c.05.007.055-.072.086-.11.014-.018.022-.043.036-.061.192-.103.349-.263.55-.348.337-.191.727-.353 1.137-.467l.037-.009c-.115-.018-.248-.029-.384-.029-.002 0-.005 0-.007 0-.136 0-.27.011-.4.033l.014-.002c-.104.018-.226.03-.35.034h-.003-.012c-.015.001-.032.001-.05.001-.075 0-.148-.006-.22-.019l.008.001c-.038-.002-.068-.033-.068-.071v-.001c-.004-.033.01-.05.043-.058.004-.002.009-.003.014-.004.08-.016.153-.033.229-.05s.17-.04.255-.058c.145-.035.314-.059.487-.067h.006c.002.001.005.001.007.001s.005 0 .007-.001h.007c.014 0 .029 0 .031-.012.005-.026-.018-.025-.035-.024h-.022c-.158-.04-.296-.106-.417-.194l.004.002c-.285-.147-.512-.372-.658-.647l-.004-.008c-.077-.127-.16-.237-.251-.338l.002.002c-.005-.006-.009-.012-.014-.017-.051.154-.087.294-.145.423zm3.142 1.004c-.01.05-.014.098.058.115.072.018.132.038.19.061l-.01-.004c.471.12.884.289 1.266.507l-.025-.013c.022.018.051.029.082.029h.008c.044-.001.085-.014.12-.037l-.001.001c.127-.046.216-.166.216-.307 0-.052-.012-.101-.034-.145l.001.002c-.02-.052-.031-.112-.031-.174 0-.12.042-.23.112-.316l-.001.001c.016-.022.026-.05.026-.08 0-.025-.007-.049-.019-.07v.001c-.102-.247-.199-.497-.3-.744-.01-.025-.012-.054-.05-.075l-.007.007-.012-.007c-.017.026-.031.054-.048.08l-.4.48c-.025.024-.048.046-.074.067-.205.144-.439.279-.685.394l-.029.012c.05 0 .099.005.149.01.357.02.689.104.993.24l-.018-.007c.125.058.134.16.144.271.004.046-.005.08-.039.08-.016-.002-.031-.006-.045-.012h.001c-.383-.14-.862-.276-1.352-.382l-.077-.014c-.017-.005-.043-.019-.062-.014h-.009c-.02.001-.034.01-.041.04zm-4.624-.014c.056.007.107.02.156.038l-.005-.002c.041.017.08.029.12.043.065.026.133.041.205.065v.01h.01l.026.012c.005.001.009.002.012.005s.007 0 .011.004c.061.019.104.036.137.048.015.006.032.011.05.012h.001.007c.01-.002.018-.006.025-.012.004-.003.007-.007.009-.012.004-.005.007-.01.009-.016v-.001c0-.007.007-.014.01-.024.011-.036.024-.086.047-.16v-.014h-.007s0-.01 0-.014 0 0 0-.01c.017-.037.045-.067.079-.086h.001c.013-.009.026-.018.038-.026.007-.005.014-.009.019-.015.011-.007.014-.022.038-.024.101-.037.172-.133.172-.245 0-.015-.001-.03-.004-.044v.002c-.007-.068-.017-.128-.031-.186l.002.01c-.019-.096-.043-.191-.07-.285-.002-.016-.003-.035-.003-.054 0-.041.006-.08.016-.117l-.001.003c.02-.07.051-.132.09-.187l-.001.002c0-.004.007-.011.01-.017.006-.01.013-.022.018-.034l.001-.002c.009-.016.018-.034.024-.053v-.002c.005 0 .012-.007.018-.014.137-.213.122-.299-.068-.461 0 0-.004 0-.007-.005s-.026-.024-.038-.035c-.033-.055-.077-.099-.13-.132l-.002-.001c-.012-.024-.026-.026-.039-.038-.115-.114-.253-.206-.407-.267l-.008-.003c-.024-.017-.05-.033-.08-.047-.014-.009-.031-.016-.05-.019h-.001-.009c-.005 0-.01.002-.014.005-.015.011-.025.027-.029.045v.012l-.151.206c-.048.075-.098.14-.153.201l.001-.002c-.032.022-.054.056-.058.096v.001-.004c-.12.151-.25.284-.379.418-.058.007-.046-.025-.038-.05.002-.005.004-.011.005-.017.014-.137.058-.269.06-.406.025-.107.04-.229.04-.355 0-.021 0-.042-.001-.063v.003c0-.005 0-.007 0-.012.003-.006.005-.012.005-.019s-.002-.014-.005-.019c.008-.063.013-.136.013-.21s-.005-.147-.014-.219l.001.008c.001-.005.002-.01.002-.016s-.001-.011-.002-.016c0-.012-.007-.029-.011-.029 0-.005 0-.011 0-.017 0-.159-.034-.31-.094-.446l.003.007c-.021-.019-.049-.032-.079-.036h-.001c-.133-.07-.257-.138-.4-.206h.005c-.018 0-.036-.018-.055-.025-.047-.027-.088-.057-.126-.09l.001.001c-.039-.032-.075-.065-.107-.1l-.001-.001c-.018-.019-.034-.036-.05-.055-.01-.007-.018-.016-.025-.025-.04-.051-.08-.097-.123-.14h-.003c.025.191-.007.4.19.521.017.007.038.019.026.041 0 .007-.011.011-.018.017s-.016.009-.026.012h-.001c-.05.014-.091-.024-.14-.029v-.012c-.019 0-.039-.024-.058-.024-.131-.103-.247-.204-.357-.311l.001.001c-.036-.047-.08-.112-.115-.168-.063-.085-.117-.182-.157-.287l-.003-.008c0-.009-.002-.019-.004-.027v.001c0-.005 0-.012 0-.017-.017-.147-.048-.293-.072-.437 0-.002 0-.004 0-.006 0-.013-.002-.026-.005-.038v.001c-.019-.144-.043-.288-.062-.432h-.004c0-.005.004-.017.004-.024 0-.013 0-.029 0-.044 0-.146.009-.29.027-.431l-.002.017c0-.002 0-.005 0-.007s0-.005 0-.008c0-.007 0-.012 0-.019 0-.003-.001-.006-.001-.01s0-.007.001-.01c0-.006 0-.011.005-.018s0-.007 0-.01c.004-.008.006-.018.007-.028s0-.007 0-.01c.001-.008.001-.017.001-.026s0-.018-.001-.028v.001c-.032.016-.059.037-.08.064v.001c-.022.022-.048.029-.065.08-.024.042-.052.08-.08.122-.074.11-.146.24-.209.334-.007.024-.022.031-.029.043-.074.11-.139.23-.211.35-.009.049-.027.093-.052.131l.001-.001c-.033.062-.058.125-.089.185s-.062.122-.094.184l-.022-.007c.012-.247.026-.494.038-.742 0 0 0-.007 0-.01.004-.009.007-.02.009-.031v-.001c.004-.008.007-.018.009-.028v-.001s0-.004 0-.007c.003-.02.01-.039.019-.055v.001c.052-.112.096-.243.128-.38l.003-.014c.035-.066.06-.142.074-.222l.001-.004c.038-.076.069-.165.09-.259l.001-.008c0-.017.017-.036.024-.054.019-.034.038-.068.055-.101.05-.103.097-.207.137-.314.004-.008.007-.022.011-.032s.005-.01.007-.01c.037-.062.072-.135.102-.21l.004-.01h.005c.031-.074.069-.151.101-.226.05-.115.107-.213.174-.305l-.003.005c.042-.06.085-.112.13-.161l-.001.001v-.046c-.025-.137-.05-.266-.075-.41v-.01c-.001-.005-.001-.012-.001-.018s0-.013.001-.019v.001c-.022-.111-.041-.221-.062-.331-.007-.036-.011-.072-.019-.111 0-.014-.006-.029-.006-.046-.048-.228-.08-.457-.118-.684-.001-.039-.033-.07-.072-.07-.001 0-.002 0-.003 0-.008-.001-.015-.002-.022-.005h.001c-.005 0-.01 0-.018 0-.085-.006-.164-.017-.241-.033l.011.002c-.074-.012-.137-.025-.233-.036v-.01h.014c-.145-.024-.277-.036-.444-.055 0 0-.007 0-.012 0-.021-.011-.047-.018-.074-.018-.007 0-.014 0-.021.001h.001c-.144-.024-.288-.041-.432-.06-.011-.006-.025-.01-.039-.01-.106-.024-.23-.041-.358-.047h-.005c-.01-.006-.021-.01-.033-.01-.126-.031-.259-.033-.386-.062-.002 0-.004 0-.006 0-.031 0-.061-.004-.09-.01l.003.001c-.08-.026-.096.01-.108.08-.026.142-.053.286-.089.425-.007.022-.011.048-.011.074 0 .063.022.121.059.166.036.055.069.108.098.16.009.016.017.035.025.054l.001.003c.03.072.048.156.048.244v.013-.001c-.018.598.031 1.193.053 1.79.01.286.029.572.043.858v.08c.011.154.012.306.034.458v.062c-.029.116-.055.259-.073.405l-.002.017c0 .013-.002.025-.005.037v-.001c-.037.098-.059.211-.059.328 0 .038.002.076.007.113v-.004-.005c0 .01.005.017.007.026s.004.021.007.031c.004.027.019.049.04.062.103.048.206.091.31.137.008.005.018.009.029.009.017 0 .033-.008.043-.021h.007c0-.012.022-.026.034-.039.068-.049.127-.099.183-.154s0 0 0 0 .004-.007.007-.01c.004-.007.009-.014.014-.019.007-.004.011-.01.018-.014.016-.016.034-.03.054-.042l.001-.001c.016-.012.036-.019.057-.022h.001.007c.007.002.012.006.017.01l.005.004c0 .005 0 .007.005.014 0 .005.001.01.001.016s0 .011-.001.017v-.001.036c-.068.125-.125.271-.165.423l-.003.014v.018c-.012.015-.02.033-.024.053v.001c0 .004-.001.008-.001.013s0 .009.001.013v-.001c.001.005.002.01.005.015l.007.014c.073.114.144.212.22.306l-.004-.006v-.019c.003.015.007.028.012.04v-.001c.007.017.016.031.027.043l.021.024.012.012c.116.107.246.202.385.282l.011.006c.025.014.041.029.061.041.047.043.098.065.155.112.002 0 .005-.001.008-.001.02 0 .038.01.049.025.061.051.128.099.2.14l.007.004c.025.011.025.024.039.024.126.097.25.183.378.271v.005c.031.033.067.06.108.079l.002.001c.13.118.293.213.414.32.024.014.04.024.06.038s.029.01.043.034h-.006c.024.014.05.026.074.041.09.087.192.162.302.224l.007.004c.024.01.026.014.039.039.086.056.159.109.228.166l-.005-.004v-.005c.024.017.036.029.055.041.16.089.151.23.112.379 0 .007 0 .017-.004.026s-.005.036-.007.055 0 .019 0 .029c-.01.089-.031.182.043.252.007.005 0 .01.022.014 0 .014.025.026.036.038.004.01.009.019.015.027.019.031.041.06.055.084v.04c.001.017.002.038.002.058s-.001.041-.002.061v-.003c-.003.009-.004.02-.004.031 0 .064.052.117.117.117.091.018.168.041.264.061.006.001.014.001.022.001s.015 0 .023-.001h-.001c.134.046.275.07.414.118zm3.768-.08c-.019 0-.038 0-.041.026-.001.004-.001.008-.001.012 0 .038.028.07.065.075.082.02.177.031.275.031h.004c.096 0 .191-.008.283-.023l-.01.001c.07-.01.061-.047.061-.09s-.026-.055-.058-.054c-.006-.001-.013-.002-.02-.002s-.014.001-.021.002h.001c-.072.015-.154.024-.239.024h-.001c-.029 0-.055 0-.08 0h-.18c-.004-.001-.009-.001-.014-.001s-.01 0-.014.001h.001zm-4.525-3.754c.02.035.039.064.061.092l-.001-.002.025.016c.038.034.081.062.129.083l.003.001c.071.03.154.048.241.048h.012-.001c.008-.001.018-.002.028-.002.085 0 .158.051.191.125l.001.001c.004.006.007.013.01.02v.001c.128.311.342.565.613.738l.006.004.06.038c.02.013.039.025.061.036.08.048.164.1.24.16.026.018.053.036.08.055.106.08.2.161.288.247l.068.068q.133.134.259.276c.022.022.04.046.062.07.043.046.084.094.126.142.098.109.189.229.269.356l.007.011c.01.017.022.033.032.053.029.053.06.117.086.183l.004.012c.051.116.131.21.231.277l.002.001c.05.038.106.072.16.106.042.026.086.05.13.072.062.031.12.067.183.101.041.024.089.044.139.059l.005.001.029.007c.006.002.014.004.021.005.106.018.228.029.353.029.081 0 .161-.004.24-.013l-.01.001c.06-.007.118-.017.175-.024s.108-.018.16-.026h.019c.055-.01.11-.019.16-.032q.206-.042.407-.103.066-.018.13-.041c.015-.003.028-.007.041-.012h-.001c.04-.014.08-.029.122-.046.014-.004.029-.011.043-.017l.053-.022.065-.029c.058-.026.113-.053.17-.084.07-.039.14-.08.209-.122.034-.023.069-.047.103-.072.094-.067.177-.14.252-.22l.001-.001c.036-.038.07-.08.103-.119.148-.191.283-.406.396-.634l.01-.022c.022-.04.043-.08.062-.125q.046-.095.089-.192c.008-.017.014-.033.022-.053.028-.09.056-.205.077-.322l.003-.019c-.036.012-.069.026-.103.041-.05.022-.098.043-.147.061-.043.016-.093.028-.145.033h-.003c-.006 0-.013.001-.02.001s-.014 0-.021-.001h.001c-.003 0-.007.001-.011.001-.05 0-.093-.034-.106-.08v-.001c-.019-.055.01-.08.046-.091l.031-.01.019-.007.034-.014.036-.014c.178-.058.333-.134.475-.228l-.007.005q.13-.096.25-.204c.031-.029.062-.058.09-.089.132-.135.24-.294.316-.47l.004-.01c.002-.007.004-.013.007-.019v.001c.019-.038.041-.072.058-.11.012-.034.044-.058.081-.058h.006c.038 0 .08-.012.115-.012h.062c.204-.023.377-.14.474-.307l.002-.003c.074-.108.139-.231.187-.363l.004-.012c.008-.015.016-.033.024-.052l.001-.004c.035-.07.06-.151.072-.236v-.004-.007c0-.026.011-.062-.018-.072-.041-.014-.089-.022-.138-.022h-.001c-.02 0-.039.002-.058.004h.002c-.009.001-.018.003-.027.005h.001c-.006.001-.01.004-.014.007s-.005 0-.005.005c-.014.018.019.06.01.089s0 .058-.01.084-.019.058-.031.084c-.019.048-.038.086-.058.124l.003-.006c-.082.144-.18.268-.292.376l-.001.001c-.018-.038-.029-.083-.029-.131s.011-.092.03-.133l-.001.002.011-.026c.025-.053.055-.103.084-.154.01-.017.024-.031.034-.048 0 0 0-.004.004-.01.001-.004.001-.008.001-.012s0-.008-.001-.012c-.028-.089-.08-.164-.148-.22l-.001-.001c-.02-.019-.042-.035-.065-.049l-.002-.001c-.017-.011-.038-.019-.059-.025h-.001c-.029 0-.06-.007-.09-.01-.093-.007-.178-.021-.261-.041l.011.002-.022-.007q-.194-.061-.379-.14l-.122-.054c-.18-.084-.334-.173-.479-.273l.011.007c-.108-.08-.219-.152-.329-.228-.074-.05-.146-.101-.219-.154-.108-.08-.214-.16-.32-.24l-.022-.018c-.014-.011-.029-.022-.046-.033s-.032-.022-.046-.034c-.024-.017-.043-.036-.059-.059l-.001-.001-.029-.039c-.01-.011-.019-.026-.029-.038-.159-.159-.286-.35-.37-.562l-.004-.011c-.081.183-.174.341-.283.486l.005-.006c-.046.059-.092.111-.14.161l.001-.001c-.196.201-.442.353-.719.434l-.012.003c-.173.051-.373.08-.579.08-.007 0-.013 0-.02 0h.001c.06-.048.112-.094.166-.137.016-.016.032-.031.049-.046l.001-.001c.184-.139.346-.286.495-.446l.002-.002.022-.014c.009-.009.016-.02.019-.033v-.012s-.007 0-.01 0c-.022.005-.041.016-.054.033-.14.08-.284.16-.428.234l-.062.034c-.036.018-.074.036-.11.054-.06.029-.122.058-.185.084-.274.116-.592.201-.925.239l-.016.002c-.18.019-.36.039-.54.055s-.36.031-.54.043c-.12.007-.24.014-.36.019-.008.001-.017.001-.027.001s-.019 0-.028-.001h.001c-.033 0-.069 0-.105 0s-.07 0-.106.004-.059.026-.094.026c-.019.005-.036.007-.053.012-.327.081-.612.188-.881.325l.023-.011c-.074.038-.147.08-.218.122-.046.031-.094.06-.139.094-.025.017-.046.033-.068.05-.052.038-.094.085-.125.139l-.001.002c-.005.008-.009.018-.012.028v.001c-.001.006-.003.01-.005.015v-.001l-.007.032c-.001.008-.001.016-.001.025s0 .018.001.026v-.001c.001.038.007.074.018.107l-.001-.003.035.085c.026.065.05.13.073.197v-.006l.005.014v-.008c.125.257.251.474.391.68l-.012-.018zm7.397 2.742c0 .007 0 .014.01.019s0 .011 0 .017c.008.037.02.07.037.1l-.001-.002c0 .014.012.01.017.034.025.072.046.151.072.223s.034.16.106.216c.024.112.048.118.16.074.072-.028.13-.055.187-.085l-.009.005c.12-.054.252-.125.379-.173h.017c.139-.062.278-.119.418-.182.09-.038.176-.074.264-.113.068-.038.15-.075.234-.106l.013-.004c.005 0 .019-.005.019-.007.144-.068.302-.137.454-.205l.036-.022c.08-.018.151-.049.214-.092l-.002.001c.031-.012.062-.026.094-.039s.089-.036.132-.054c.005-.001.009-.002.012-.005v.005c.039-.01.071-.022.103-.035l-.005.002.06-.024c.036-.018.074-.034.113-.048l.058-.022c.034-.01.059-.04.059-.077 0-.005 0-.01-.001-.015 0-.016 0-.036 0-.055 0-.253.015-.503.043-.748l-.003.03c.001-.011.001-.024.001-.036s0-.026-.001-.038v.002-.035c.001-.006.001-.012.001-.018s0-.013-.001-.019v.001c0-.005-.001-.012-.001-.018s0-.013.001-.019v.001c0-.011.005-.022.007-.033.002-.005.003-.011.005-.017v-.001c.003-.012.007-.022.012-.032v.001l.007-.014c.064-.117.133-.263.194-.413l.011-.031c.082-.137.154-.296.209-.463l.005-.017c.058-.23.068-.473.106-.708.041-.25.062-.504.118-.754.068-.302.134-.608.202-.912.003-.006.004-.012.005-.019.012-.038.022-.08.034-.12.023-.052.036-.114.036-.178 0-.005 0-.009 0-.014v.001c0-.005.007-.01.007-.014s0 0 0-.005l.007-.014c.014-.055.026-.113.041-.17.062-.16.127-.331.19-.475.003-.014.009-.026.017-.036.075-.124.139-.267.184-.418l.004-.014c.035-.035.06-.08.071-.129v-.002s0-.004.004-.007.005-.007.005-.01 0 0 0-.005v.005c0-.007.012-.017.012-.024.04-.077.083-.176.122-.276l.007-.022c.004-.015.011-.029.019-.04.054-.145.173-.27.17-.437.012-.019.02-.042.02-.068 0-.004 0-.009-.001-.013v.001l.072-.31c.007-.028.014-.063.019-.099l.001-.005c.002-.009.003-.02.003-.031 0-.049-.024-.093-.061-.119-.193-.122-.416-.239-.65-.337l-.03-.011c-.067-.011-.126-.045-.168-.093.003-.006.004-.012.004-.019.046-.047.11-.076.181-.076.041 0 .079.01.113.027l-.001-.001c.031.012.067.02.104.02h.015-.001c.007 0 .011.007.018.007s.012.007.019.007c.084.026.168.053.252.08h.01c.008.002.018.004.028.005s.005 0 .007 0 .012-.01.014-.022c.018-.127.097-.254 0-.382-.002-.014-.007-.026-.015-.036-.062-.05-.102-.126-.102-.212 0-.081.036-.154.092-.203v-.007c0-.001 0-.002 0-.002s0-.002 0-.002c0-.004 0-.006.005-.01.003-.006.006-.01.01-.015.006-.003.011-.008.014-.014.002-.003.003-.007.003-.011s-.001-.008-.003-.011c-.003-.01-.008-.018-.014-.025-.104-.11-.212-.22-.31-.334-.025-.024-.032-.046-.054-.065-.013-.011-.027-.021-.042-.03l-.002-.001c-.108-.149-.24-.199-.4-.08-.108.024-.204.08-.32.118-.024.019-.096.036-.12.055-.023.005-.043.011-.062.019l.002-.001c-.175.053-.321.11-.462.177l.02-.009c-.003 0-.005-.001-.008-.001s-.006 0-.009.001c-.151.055-.302.11-.454.169-.017.006-.036.014-.055.021l-.019.008-.074.029c-.118.035-.408.146-.432.155-.137.05-.142.054-.101.19.008.024.013.052.013.082 0 .065-.024.125-.064.171-.072.09-.133.19-.198.283 0 0-.007.005-.01.007-.007.007-.013.014-.019.021-.004.01-.01.018-.014.026-.004.012-.008.026-.011.041v.002s0 0 0 .005c.002.007.004.013.007.018s0 .004 0 .007 0 .011.007.017.012.026.017.038c.052.137.123.255.211.358l-.001-.002s0 .004.004.007c.006.002.011.006.014.011.022.043.043.084.06.127.014.03.023.066.026.103v.001c.001.007.001.016.001.024 0 .06-.02.116-.054.161v-.001s0 0-.005.005l-.01.01s-.005 0-.005.005c-.051.125-.101.282-.141.442l-.006.026s0 .012 0 .018c-.012.036-.025.072-.034.108-.008.022-.014.049-.019.077v.003.026c-.001.008-.001.018-.001.027s0 .019.001.029v-.001c.005.063.026.121.058.17l-.001-.001c.007.024.01.038.017.058.044.116.087.263.121.412l.005.025c0 .007.01.01.01.01q.013.044.024.089l.014.062c.005.02.01.039.014.06.005.017.009.038.012.06v.002c.009.049.014.106.014.163 0 .02-.001.04-.002.06v-.003c-.001.005-.001.012-.001.018 0 .016.003.031.008.045v-.001c0 .004 0 .01.005.011.005.015.015.027.026.036.019.018.044.029.072.029h.017s.01.004.014.004c.147.055.293.106.44.16.011.007.024.011.035.018.032.022.066.041.097.062s.065.055.096.055c.012 0 .025.014.036.022.062.063.13.119.204.167l.005.003c.019.024.039.045.06.064.062.07.118.149.19.219 0 .011.012.024.019.036.038.05.072.101.108.151.014.019.041.041.024.065s-.046 0-.065-.012c-.08-.042-.172-.079-.269-.106l-.01-.002v-.004c-.007 0-.011-.007-.017-.007-.127-.053-.274-.092-.428-.112l-.009-.001v.012c-.227-.025-.491-.039-.759-.039-.058 0-.115.001-.172.002h.009c.01.039.034.025.054.048.105.072.194.173.314.255.024.007.018.011.024.017s.012.01.019.017c.05.056.105.104.166.145l.003.002c.01.024.019.024.029.033l.01.01c.075.083.148.174.214.269l.006.009s.005.005.005.007v-.017l.038.062c.014.031.033.058.055.08.005.025.018.046.036.061.065.119.123.257.166.402l.004.016c0 .006-.001.013-.001.02s0 .014.001.021v-.001c.053.133.091.286.107.447l.001.007c0 .012.007.012.007.036h-.007c-.024.084.039.168.012.257-.017-.004-.031-.012-.041-.025-.007-.007-.012-.015-.017-.023v-.001c-.007-.014-.012-.026-.019-.041s-.022-.054-.033-.08c-.012-.032-.026-.06-.044-.085l.001.001c0-.024-.007-.019-.01-.029s-.007-.022-.01-.031c-.041-.122-.098-.229-.171-.322l.002.002c-.013-.04-.033-.075-.058-.104-.015-.018-.033-.034-.052-.047l-.001-.001c-.099-.145-.224-.264-.369-.355l-.005-.003h-.005c-.007-.004-.012-.008-.017-.012-.004-.002-.007-.004-.01-.007-.021-.02-.044-.038-.068-.054l-.002-.001c-.024-.017-.05-.034-.074-.048s-.034-.022-.051-.031c-.011-.009-.025-.015-.04-.017-.019 0-.029.017-.034.05-.01.08-.022.16-.034.24s-.024.166-.036.24v.008s0 .006 0 .009c-.036.125-.056.268-.056.417 0 .02 0 .04.001.059v-.003.019c0 .034 0 .07-.005.103-.009.055-.015.119-.015.184 0 .054.004.106.011.158l-.001-.006c.001.012.003.024.007.034v-.001.017c-.001.026-.001.057-.001.088 0 .115.007.229.021.34l-.001-.013s0 .017 0 .026c0 .004-.001.008-.001.013s0 .009.001.013v-.001c.014.108.026.219.04.329.006.032.009.069.01.107v.001c0 .005.011.012.011.012.005.048.012.091.018.134s.01.093.017.139c-.062-.062-.115-.108-.166-.16-.014-.017-.026-.036-.041-.053-.017-.022-.035-.042-.054-.06 0-.012-.014-.025-.022-.036-.009-.011-.018-.022-.026-.035l-.001-.001c-.011-.017-.021-.036-.028-.056l-.001-.002c-.007-.019-.014-.041-.022-.062-.031-.101-.07-.199-.106-.298 0-.003.001-.005.001-.008s0-.006-.001-.009c-.048-.201-.076-.432-.076-.67 0-.037.001-.074.002-.11v.005c-.01 0-.018 0-.025 0-.029.155-.058.32-.086.466h-.014c-.033.183-.051.394-.051.609 0 .117.006.233.016.347l-.001-.015c0 .029.012.058.014.086l.022.173c.005.029.01.058.012.086.004.008.007.018.009.028v.001.004c0 .008.003.016.008.022.005.024.007.05.012.074s.007.05.012.074c.004.013.007.03.009.046v.002c0 .007 0 .017.005.024.003.02.007.037.012.053l-.001-.003c0 .014.01.034.014.05.009.031.02.057.033.082l-.001-.002c.007 0 .011 0 .018.025-.036.047-.047-.005-.072-.005v-.019h-.005c-.026-.027-.051-.056-.073-.086l-.002-.002c-.08-.132-.16-.271-.245-.392h-.005c-.053-.178-.112-.328-.181-.473l.008.019c-.024-.08-.04-.16-.06-.24-.001-.069-.014-.134-.037-.194l.001.004c0-.011 0-.026 0-.038-.007-.084-.022-.168-.033-.252-.01-.049-.016-.106-.016-.164s.006-.114.017-.169l-.001.005c.004-.029.017-.074-.022-.08-.002-.001-.004-.001-.006-.001s-.004 0-.006.001c-.026 0-.041.034-.058.055-.05.068-.091.137-.137.205-.01.017-.022.033-.034.05-.024.033-.048.067-.074.098-.017.014-.031.03-.043.047l-.001.001c-.012 0-.025.014-.048.022-.048.05-.13.08-.146.168v.017c-.058.142-.106.291-.149.437-.004.019-.018.039-.018.058-.048.084-.072.169-.111.24-.017.047-.031.08-.047.115s-.032.08-.048.115-.055.091-.075.139c0 .005 0 .012-.004.018s-.005.022-.007.033c-.002.01-.004.022-.004.035s.001.024.004.036v-.001c.024.078.051.145.083.209l-.003-.007c.024.101.06.199.094.3h-.005c.005.005.009.01.013.016zm-6.72-1.618c-.008.22-.028.427-.059.631l.004-.031v.012l.024.007q.112-.223.223-.449c.004-.007.006-.015.006-.023 0-.015-.007-.029-.018-.038l-.014-.014c-.038-.036-.074-.074-.112-.11-.008-.009-.018-.015-.03-.017-.01.001-.018.01-.02.032zm7.836-.141c.025-.048.043-.104.048-.164v-.002c.029-.168.054-.334.086-.502.011-.058.062-.134.019-.168 0 0-.005 0-.008-.005s-.007-.01-.011-.014c-.036-.029-.106.034-.16.053-.033.012-.069.025-.067.08.01.258.037.501.079.738l-.005-.032c.004-.007.008-.015.012-.023v-.001zm-4.198-5.464c.011 0 .022.019.026.053.009.042.014.091.014.14 0 .157-.05.303-.134.422l.002-.002c-.175.209-.394.373-.645.481l-.011.004c-.406.214-.88.402-1.375.539l-.051.012c-.358.098-.728.151-1.088.24-.496.08-.941.21-1.36.389l.038-.014c-.236.115-.421.302-.53.533l-.003.007c-.033.067-.052.145-.052.228 0 .046.006.091.017.133l-.001-.004c.002.014.006.026.01.037v-.001c.052-.118.106-.217.166-.312l-.006.01c.163-.214.401-.363.674-.41l.006-.001c.23-.041.464-.061.694-.09.634-.08 1.274-.094 1.906-.187.539-.054 1.028-.225 1.455-.488l-.015.008c.342-.197.638-.411.908-.653l-.005.005c.289-.254.498-.591.591-.973l.003-.013c.016-.05.025-.107.025-.166 0-.09-.021-.175-.059-.25l.001.003c-.094-.156-.2-.291-.32-.411l-.013-.013c-.387-.376-.916-.608-1.499-.608-.011 0-.022 0-.033 0h.002c-.218.007-.439.014-.66.017-.204.003-.401.028-.589.073l.018-.004c-.792.191-1.483.545-2.064 1.027l.008-.007c-.369.311-.702.626-1.017.959l-.005.006c-.015.016-.029.033-.04.052l-.001.001q-.32.511-.646 1.022c-.037.057-.064.124-.079.195l-.001.004c-.009.005-.017.011-.024.017v.006l.026-.019c0 .012-.005.025-.008.039.055-.041.097-.068.13-.098.269-.221.591-.39.942-.485l.018-.004c.365-.126.787-.212 1.225-.239l.014-.001c.654-.061 1.251-.171 1.828-.329l-.074.017c.393-.088.741-.233 1.054-.429l-.014.008c.214-.145.401-.292.576-.452l-.004.003c.012-.014.028-.024.047-.027zm4.04 2.88c.085.008.184.013.284.013.186 0 .369-.016.546-.047l-.019.003c-.011-.005-.022-.012-.031-.018.002 0 .004-.001.006-.001s.004 0 .006.001c-.166-.113-.371-.18-.591-.18-.023 0-.046.001-.068.002h.003c-.146.034-.314.054-.486.054-.076 0-.152-.004-.226-.011l.009.001c-.029-.004-.054-.012-.08-.014l-.075-.004c.012.006.025.011.036.018h-.017c.127.089.281.147.448.16h.003.019c.084.003.164.011.241.023l-.012-.001zm-2.568-2.742c-.022.07-.043.14-.062.209-.033.099-.052.213-.052.331 0 .135.025.265.071.384l-.002-.007v.01c.053.109.121.201.202.28l.058.055c.245.237.529.434.843.58l.019.008c.249.119.545.228.851.311l.038.009c.073.019.158.031.245.031.032 0 .064-.002.095-.005h-.004c.288-.042.62-.067.959-.068h.001.061c.291 0 .577.017.859.05l-.034-.003c-.007-.007-.015-.013-.024-.019h-.001.006c-.102-.085-.23-.143-.371-.16h-.003c-.608-.064-1.144-.154-1.669-.272l.094.018c-.237-.051-.446-.151-.622-.29l.003.002q-.416-.35-.818-.714c-.13-.118-.264-.227-.39-.348-.119-.114-.218-.246-.295-.392l-.004-.008c-.007-.014-.014-.022-.022-.024h-.004c-.013-.002-.025.01-.03.03zm-3.574 1.18-.523.086c-.4.046-.794.096-1.19.139-.271.016-.524.076-.758.174l.015-.006c-.18.084-.36.17-.54.253-.099.031-.17.122-.17.229 0 .016.002.031.004.046v-.001c-.001.003-.001.006-.001.009s0 .006.001.01c.005.022.018.026.043.01.024-.015.044-.029.064-.044l-.001.001c.309-.237.682-.408 1.089-.485l.016-.003c.566-.106 1.138-.187 1.697-.327.128-.021.244-.059.35-.111l-.007.003zm3.8-2.149v.266c-.001.003-.001.006-.001.009s0 .006.001.009c-.001.002-.001.005-.001.007s0 .005.001.007v.017s0 .01 0 .014 0 .012 0 .017 0 .01 0 .014 0 .012 0 .018 0 .01 0 .014 0 .011 0 .017 0 .01 0 .014 0 .012-.005.017c-.001.006-.003.01-.005.015v-.001c0 .007 0 .012-.004.018-.002.004-.003.009-.005.014v.001c-.003.005-.005.011-.007.017v.001c-.005.016-.008.033-.008.052s.003.036.009.053v-.001s0 .007 0 .01c-.001.002-.001.003-.001.005s0 .004.001.005 0 0 0 .004c.01.022.017.041.024.061l.036.094q.03.08.062.154c.02.041.047.076.08.105.301.291.628.559.976.8l.026.017c.191.161.409.3.645.406l.017.007c.204.075.4.16.614.24.047.015.114.038.166.054h.006c.18.059.388.098.603.11h.006c.031 0 .086.03.09-.04 0-.007 0-.014-.004-.022.002-.008.003-.018.003-.028 0-.026-.008-.05-.021-.069l-.01-.014c0-.014-.007-.029-.01-.043-.112-.483-.388-.889-.766-1.165l-.006-.004-.269-.206c-.128-.102-.272-.199-.423-.283l-.016-.008c-.019-.01-.041-.022-.062-.031h-.001v.001c-.28-.127-.659-.199-.886-.313-.005-.003-.011-.007-.018-.009h-.001c-.023-.008-.042-.021-.057-.038-.004-.005-.008-.01-.012-.014-.011-.012-.022-.022-.017-.024l.151.034c.122.02.23.048.334.084l-.014-.004.099.026c.413.109.773.257 1.109.444l-.024-.012c.098.055.199.108.298.16.012.008.026.013.041.013.004 0 .007 0 .01-.001.008-.003.014-.008.018-.014.017-.021 0-.04-.014-.058-.074-.105-.151-.211-.223-.314-.031-.044-.071-.08-.116-.107l-.002-.001c-.221-.134-.442-.271-.663-.4-.075-.046-.166-.094-.26-.137l-.018-.007c-.154-.1-.343-.16-.546-.16-.002 0-.003 0-.005 0-.1-.016-.215-.025-.332-.025-.018 0-.035 0-.052.001h.003c-.041 0-.08 0-.122.005h-.075c-.08 0-.16.006-.24.004h-.008c-.078-.01-.105.022-.102.101zm-3.244-2.293c-.137.043-.277.08-.415.118l-.118.036q-.087.03-.173.065c-.011.004-.021.008-.03.012h.001c-.038.015-.074.031-.111.047s-.058.033-.086.051c-.302.18-.564.372-.805.588l.005-.004-.067.062-.012.01c-.091.073-.16.142-.24.21l-.026.03c-.043.031-.08.063-.115.098-.08.097-.166.19-.25.286s-.166.192-.247.288-.16.194-.24.295c-.026.034-.054.068-.08.101-.05.068-.098.137-.146.206-.084.121-.171.263-.25.41l-.012.025c-.073.137-.124.297-.146.466l-.001.007c.098-.082.186-.17.266-.264l.003-.003c.16-.134.313-.283.464-.429l.065-.066.01-.008c.072-.08.151-.152.236-.215l.004-.003c.296-.216.633-.408.992-.559l.033-.012.018-.004c.062-.022.122-.049.181-.075.111-.058.24-.106.375-.138l.012-.002c.209-.039.421-.072.631-.113.241-.056.518-.089.803-.091h.001c.359.012.699.068 1.024.162l-.029-.007c.42.124.774.363 1.037.68l.003.004c.072.084.144.166.216.25.011.014.018.031.033.036s.022-.005.03-.034c.061-.17.096-.366.096-.571 0-.008 0-.015 0-.023v.001c-.021-.228-.067-.437-.135-.636l.006.019c-.094-.286-.254-.529-.463-.719l-.001-.001c-.062-.057-.129-.112-.2-.162l-.006-.004c-.033-.026-.072-.047-.108-.072l-.112-.065c-.055-.034-.115-.062-.173-.091l-.058-.029c-.08-.038-.16-.072-.24-.108-.166-.084-.358-.143-.562-.165l-.007-.001h-.134c-.002 0-.005 0-.007 0-.263 0-.516.041-.754.116l.018-.005zm4.073 2.736c.004-.015.021-.012.033-.018-.011-.002-.02-.005-.029-.009h.001c-.006.002-.01.009-.005.03zm.443-.756c.125.023.236.058.34.104l-.009-.004c.269.123.491.242.704.372l-.029-.017c.053.038.113.073.177.101l.006.003.033.013c-.178-.281-.367-.529-.56-.774-.123-.156-.265-.289-.422-.401l-.006-.004c-.03-.035-.068-.063-.111-.079l-.002-.001c-.211-.092-.468-.181-.732-.251l-.039-.009c-.006-.001-.01-.003-.015-.005h.001c-.076-.022-.163-.034-.253-.034-.125 0-.245.024-.355.069l.006-.002c-.041.014-.07.033-.055.08.042.164.066.352.066.546 0 .054-.002.108-.006.162v-.007c0 .062.029.091.09.091.084 0 .17.007.255 0q.16-.014.315-.014c.212.001.419.023.619.063l-.02-.003zm-11.455.32c.014-.032.022-.069.022-.107 0-.002 0-.004 0-.006 0-.005 0-.01-.004-.014 0 .002.001.004.001.006s0 .004-.001.006c0 .005.001.011.001.017 0 .034-.008.066-.022.094l.001-.001zm-.454-2.5c0 .005-.002.01-.005.014 0 .01 0 .019-.004.032-.05.48-.101.953-.154 1.429-.007.06.007.086.05.098.01.002.022.004.035.005h.001c.674.091 1.35.183 2.02.278l.676.096c.346.048.691.094 1.04.142.003 0 .006.001.01.001s.007 0 .01-.001c.04 0 .047-.038.058-.074l.278-.912c.022-.065 0-.084-.06-.101-.646-.17-1.292-.338-1.938-.509l-1.938-.509c-.011-.006-.025-.009-.039-.011h-.001c-.001 0-.002 0-.003 0-.015 0-.029.009-.035.022zm17.218-1.26-4.254 1.246c-.072.019-.062.046-.034.097q.334.586.662 1.176c.025.043.043.061.08.055.016-.003.029-.006.042-.01l-.003.001q1.68-.59 3.37-1.17c.054-.015.094-.063.094-.122 0-.003 0-.006 0-.008l.043-.536c.019-.24.041-.48.062-.739v-.004c-.033.007-.05.01-.064.014zm-11.479-3.747c-.342.237-.734.45-1.148.619l-.041.015c-.208.06-.379.192-.488.367l-.002.004c-.005.01-.022.014-.032.022-.123.074-.267.13-.421.159l-.008.001c-.007.001-.016.001-.024.001s-.017 0-.025-.001h.001c-.003 0-.006 0-.009 0-.026 0-.051.007-.072.019h.001q-1.291.812-2.586 1.612c-.05.031-.06.055-.033.11.16.332.302.673.492.99.017.021.027.048.027.077s-.01.056-.027.077c-.149.228-.255.498-.297.789l-.001.011c-.04.067-.033.108.055.119.058.007.111.025.166.036.442.118.88.23 1.33.334.024.015.053.024.084.024.01 0 .019-.001.029-.003h-.001c.019-.007.018-.025.018-.039.001-.003.001-.006.001-.009s0-.006-.001-.01l.274-.915c.007-.049.029-.092.06-.125.116-.088.19-.226.19-.382.004-.061.024-.118.029-.178v-.001c0-.072.044-.133.107-.158h.001c.336-.158.621-.374.852-.637l.003-.003c.059-.059.107-.127.144-.202l.002-.004c.201-.43.409-.793.643-1.138l-.019.029c.257-.414.548-.773.878-1.09l.002-.002c.079-.077.136-.176.159-.288l.001-.004c.003-.014.005-.029.005-.045 0-.118-.093-.214-.209-.22h-.001c-.041 0-.079.015-.109.039zm7.937 3.229q.172.485.353.967c.022.062.043.08.113.061.48-.147.965-.293 1.447-.435.075-.022.086-.05.061-.122-.209-.552-.418-1.102-.67-1.635-.019-.034-.03-.074-.03-.117 0-.033.007-.065.019-.094l-.001.002c.085-.18.134-.39.134-.613 0-.066-.004-.131-.013-.195l.001.007c-.017-.139.01-.278-.007-.422-.073-.441-.161-.816-.27-1.183l.018.069c-.144-.457-.306-.847-.5-1.218l.02.041c-.154-.304-.299-.552-.456-.793l.02.032c-.084-.146-.183-.285-.262-.436-.064-.144-.173-.259-.309-.328l-.004-.002c-.041-.018-.091-.054-.122-.014-.034.033-.056.08-.056.131 0 .019.003.036.008.053v-.001c.053.127.11.254.16.382.151.3.293.655.405 1.024l.013.049c.035.125.064.275.083.429l.001.015c.004.055 0 .115-.058.137s-.065-.043-.094-.074c-.108-.118-.25-.235-.418-.166-.031.013-.066.02-.104.02-.02 0-.039-.002-.058-.006h.002c-.036-.007-.08-.017-.09-.058s.029-.065.06-.086c.033-.015.061-.034.087-.056h-.001c.036-.033.062-.08.024-.125-.085-.123-.178-.231-.282-.328l-.001-.001c-.233-.182-.468-.363-.716-.522-.036-.024-.072-.046-.108-.067-.438-.264-.895-.509-1.357-.737-.053-.032-.117-.051-.186-.051-.005 0-.009 0-.014 0h.001c-.046.005-.098 0-.12.055-.007.017-.011.036-.011.056 0 .037.014.07.036.095.049.063.106.116.17.158l.003.002c.233.118.428.234.614.361l-.019-.012c.36.274.72.554 1.066.845.11.094.211.195.312.298l.181.187c.019.02.034.044.043.071v.001c0 .001.001.003.001.005s0 .003-.001.005c.001.003.001.007.001.011s0 .008-.001.011c-.004.022-.015.041-.031.055-.058.058-.116.029-.17-.005-.022-.018-.042-.037-.059-.059l-.001-.001-.029-.029c-.047-.048-.09-.096-.141-.142-.019-.017-.041-.033-.062-.05-.269-.202-.538-.4-.806-.602s-.538-.4-.804-.605c-.139-.107-.297-.204-.463-.285l-.017-.007c-.016-.012-.036-.019-.057-.019-.034 0-.063.017-.08.043-.028.029-.045.068-.045.111 0 .029.008.056.021.079v-.001c.055.11.13.203.219.277l.001.001c.126.104.24.209.347.319l.001.001c.504.56 1.018 1.11 1.506 1.68.032.036.054.082.062.132v.001c.014.097-.034.137-.126.106-.02-.009-.037-.018-.053-.028l.002.001c-.7-.38-1.279-.74-1.838-1.128l.064.042c-.152-.107-.326-.205-.509-.284l-.019-.008c-.058-.026-.12-.058-.168.014-.011.021-.017.046-.017.072 0 .05.023.095.06.125.216.16.414.348.619.526.487.375.908.799 1.268 1.273l.012.017c.051.049.12.079.196.079.041 0 .081-.009.116-.025l-.002.001c.182-.124.406-.199.648-.199h.02-.001.007.05.005c.014 0 .028.005.038.012.006.006.011.013.014.021.026.058-.036.072-.069.094-.216.142-.435.278-.651.422-.03.023-.069.037-.11.037-.02 0-.039-.003-.057-.009h.001c-.092-.034-.198-.057-.309-.065h-.003c-.485.013-.949.06-1.402.138l.057-.008c-.107.009-.206.037-.295.082l.005-.002c-.041.024-.068.067-.068.117 0 .01.001.019.003.028v-.001c.005.046.017.096.084.108.278.053.554.113.833.17.086.026.188.047.294.059l.009.001c.32.198.631.4.934.626.171.134.378.23.603.273l.009.001c.106.017.209.047.313.074.148.014.284.055.406.118l-.006-.003c.094.1.167.22.214.353l.002.007c.038.08.086.118.175.097.01-.003.022-.004.034-.004.056-.005.081.03.099.086zm-13.908-4.137c-.041.015-.069.053-.069.098 0 .005 0 .01.001.015v-.001c.039.205.061.414.113.612.228.862.516 1.705.79 2.553.024.072.048.065.106.034.71-.4 1.426-.804 2.139-1.206l.278-.16c-.323-.2-.597-.392-.859-.599l.019.015c-.022.098-.043.178-.06.257-.003.029-.026.052-.055.055-.069.01-.096-.05-.134-.09s-.068-.08-.046-.126c.061-.13.094-.27.147-.4s.054-.137.17-.05c.011.008.02.015.029.024.245.257.53.473.847.637l.018.008c.057.041.129.066.206.066.091 0 .174-.034.237-.09.009-.007.02-.013.031-.019h.001c.014-.006.024-.019.024-.035 0-.007-.002-.014-.006-.02-.02-.074-.054-.138-.098-.193l.001.001c-.176-.146-.336-.305-.502-.467-.242-.218-.454-.46-.637-.724l-.009-.014c-.051-.087-.111-.162-.18-.228-.038-.039-.091-.064-.15-.064-.08 0-.149.045-.184.111l-.001.001c-.134.25-.312.47-.451.72-.151.271-.342.518-.48.8-.012.023-.018.051-.018.08s.007.057.019.081v-.001c.069.137.134.3.186.469l.006.023c.01.039.019.072-.034.091s-.062-.01-.08-.041c-.098-.166-.202-.328-.293-.497-.321-.655-.635-1.202-.981-1.725l.036.057c-.016-.02-.022-.066-.051-.066-.008 0-.016.003-.023.007zm4.086.4c-.187.086-.32.249-.5.35-.047.026-.024.054 0 .08l.54.619c.012.015.022.031.031.049l.001.002c.018-.006.033-.013.048-.02l-.002.001.257-.16c.029-.017.026-.038.017-.065-.101-.276-.182-.56-.302-.83-.014-.031-.026-.043-.043-.043-.017.002-.033.007-.047.016h.001zm.827-1.298c-.036.019-.07.043-.106.062-.282.169-.623.347-.975.506l-.065.026c-.253.101-.502.205-.757.295-.029.012-.09.01-.046.065.12.154.24.31.358.464.018.024.038.041.072.024.189-.08.349-.168.501-.269l-.011.007c.37-.295.73-.601 1.076-.922.054-.05.094-.101.08-.16 0-.058.017-.108-.031-.134-.006-.004-.014-.006-.022-.006-.026-.001-.049.032-.074.041zm7.538 22.099c-.36-.021-.683-.161-.935-.381l.002.002c-.079-.052-.131-.14-.131-.24 0-.057.017-.11.045-.154l-.001.001c.048-.086.122-.086.204-.08h.001c.066 0 .119.051.124.115.013.051.042.094.08.125.104.099.229.177.367.228l.007.002c.023.009.049.015.077.015.023 0 .045-.004.065-.011h-.001c.08-.026.105-.08.058-.151-.068-.098-.144-.192-.216-.286-.1-.122-.192-.257-.271-.401l-.007-.014c-.038-.061-.06-.135-.06-.215 0-.123.054-.234.139-.31.125-.128.298-.207.491-.207.166 0 .319.059.437.158l-.001-.001c.055.035.091.096.091.165 0 .01-.001.02-.002.03v-.001c-.029.16-.14.216-.27.115-.066-.06-.154-.096-.25-.096-.039 0-.077.006-.112.017l.003-.001c-.146.048-.187.139-.098.264.112.16.24.32.357.475.074.091.138.194.187.306l.003.009c.016.041.025.088.025.137 0 .212-.172.384-.384.384-.007 0-.014 0-.021-.001h.001zm.64-.029c-.052-.024-.088-.075-.088-.135 0-.017.003-.033.008-.048v.001c.098-.346.192-.696.298-1.04.05-.16.115-.31.303-.358.011-.005.02-.015.024-.026.058-.146.199-.248.363-.248h.017-.001c.123-.011.266-.017.41-.017s.287.006.429.019l-.018-.001c.125.004.151.08.08.184-.046.063-.112.109-.189.129l-.002.001c-.171.048-.367.076-.57.076-.023 0-.045 0-.068-.001h.003-.08c-.015-.002-.033-.003-.051-.003-.041 0-.08.005-.118.015l.003-.001c-.09.032-.04.147-.08.209-.023.039-.044.084-.061.131l-.002.006c.16-.014.307-.029.454-.04.028-.002.061-.003.095-.003s.066.001.099.003h-.005c.08 0 .111.048.104.126-.009.105-.079.192-.174.225l-.002.001c-.124.046-.266.073-.415.073-.02 0-.04 0-.059-.001h.003c-.216 0-.234.014-.264.24.186-.033.4-.052.618-.053h.001c.064.002.126.008.185.018l-.008-.001c.08.012.148.038.16.13.001.01.002.021.002.032 0 .088-.048.165-.119.207l-.001.001c-.034.018-.075.029-.118.029-.003 0-.007 0-.01 0-.013 0-.029 0-.044 0-.336 0-.661.052-.965.148l.023-.006c-.024.007-.051.012-.08.012-.035-.001-.066-.013-.093-.031h.001zm-10.955-.144c-.058-.094-.092-.209-.092-.331 0-.053.006-.104.019-.154l-.001.004c.091-.455.321-.846.644-1.137l.002-.002c.162-.145.376-.236.611-.24h.001c.129.012.245.053.346.117l-.003-.002c.03.015.05.045.05.08 0 .013-.003.025-.007.036v-.001c-.024.085-.077.156-.147.202l-.001.001c-.023.018-.052.029-.084.029-.025 0-.048-.006-.068-.018h.001c-.055-.032-.121-.051-.192-.051-.096 0-.183.035-.251.092h.001c-.102.075-.185.169-.243.279l-.002.004c-.08.138-.145.298-.185.468l-.002.012c-.005.021-.008.046-.008.071 0 .018.002.036.005.054v-.002c.022.108.058.132.16.105.214-.054.415-.146.622-.22.056-.026.122-.043.191-.046h.001c.07 0 .103.029.103.104v.003c0 .078-.03.148-.08.201-.064.067-.139.123-.222.166l-.005.002c-.251.136-.542.242-.849.302l-.02.003c-.021.004-.045.007-.07.007h-.001c-.097 0-.182-.057-.222-.139l-.001-.001zm6.115-4.523c-.043-.081-.071-.177-.075-.279v-.001c.025-.15.055-.279.093-.404l-.006.022c.096-.214.302-.257.486-.32.209-.072.45-.116.7-.122h.003c.016-.001.036-.002.055-.002.24 0 .453.118.584.298l.001.002c.043.058.036.08-.036.098-.005.001-.011.002-.017.002-.017 0-.032-.005-.045-.014-.183-.092-.398-.146-.626-.146-.009-.002-.02-.003-.031-.003-.025 0-.049.005-.071.014h.001c-.173.067-.346.134-.516.206-.144.065-.249.193-.28.347l-.001.003c-.022.113-.05.21-.084.304l.004-.014c-.012.029-.026.065-.07.067h-.004c-.042.001-.05-.035-.066-.059zm.624-1.303c-.076-.063-.174-.101-.281-.101-.088 0-.17.026-.239.07l.002-.001c-.106.066-.234.106-.372.106-.067 0-.132-.009-.193-.027l.005.001c-.026-.006-.048-.017-.068-.032-.086-.07-.086-.08.007-.142.038-.022.071-.045.102-.071l-.001.001c.033-.031.077-.05.126-.05.023 0 .045.004.065.012h-.001c.018.003.038.005.058.005.079 0 .152-.027.209-.073l-.001.001c.087-.059.194-.094.309-.094.118 0 .227.037.316.1l-.002-.001c.009.004.018.009.025.015.139.111.274.176.432.019.065-.065.175-.038.264-.05.223-.006.432-.056.622-.141l-.01.004c.009-.008.02-.013.033-.013.022 0 .04.014.047.034.033.06.09.103.098.18 0 .036 0 .065-.038.08-.091.036-.182.098-.278.01-.031-.026-.065-.014-.098-.01-.247.051-.466.125-.671.221l.018-.008c-.063.028-.136.046-.214.047h-.001c-.001 0-.001 0-.002 0-.102 0-.196-.035-.27-.094l.001.001zm.024-.5c-.082-.067-.155-.138-.221-.216l-.002-.002c-.081-.099-.204-.162-.341-.162-.016 0-.032.001-.047.002h.002c.037-.114.107-.209.198-.277l.001-.001c.091-.077.148-.191.148-.319 0-.021-.002-.042-.005-.063v.002c-.007-.202-.044-.394-.107-.573l.004.013c-.038-.124-.118-.226-.224-.29l-.002-.001c-.047-.021-.102-.034-.159-.036h-.001c-.396-.054-.79-.134-1.188-.168-.073-.007-.158-.011-.244-.011-.24 0-.474.03-.697.087l.019-.004c-.019 0-.036.007-.055.01-.007-.002-.014-.004-.02-.007.126-.189.287-.346.474-.464l.006-.004c.015-.009.033-.014.052-.014.01 0 .02.001.029.004h-.001c.576.033 1.148.09 1.718.18.028.007.059.01.092.01.133 0 .252-.064.325-.164l.001-.001c.067-.084.135-.18.198-.278l.008-.014c.026-.048.065-.109.126-.09s.074.08.067.16c-.024.292-.179.544-.405.7l-.003.002c-.034.024-.034.038-.01.065.185.237.298.538.299.866.002.022.004.048.004.074 0 .124-.031.241-.086.344l.002-.004c-.011.016-.018.036-.018.057 0 .037.02.069.049.086.064.054.122.109.177.167l.001.001c.02.025.05.041.085.041.029 0 .056-.012.075-.031.042-.034.079-.072.112-.114l.001-.002c.107-.146.233-.27.377-.372l.005-.003c.035-.028.081-.045.13-.045.059 0 .113.025.151.064.032.038.072.084-.022.115-.139.071-.249.181-.318.316l-.002.004c-.062.09-.118.187-.175.281-.066.11-.184.183-.32.185-.102-.002-.195-.042-.264-.107zm-3.778-1.2c-.048-.101-.127-.181-.224-.23l-.003-.001c-.172-.079-.289-.25-.289-.447 0-.037.004-.073.012-.107l-.001.003c.014-.056.057-.1.111-.116h.001c.043-.017.061.037.084.061.065.086.112.19.134.303l.001.005c.022.084.071.154.138.201l.001.001c.081.06.133.154.133.261 0 .021-.002.041-.006.061v-.002c-.012.026.031.091-.022.104h-.011c-.042-.002-.045-.064-.061-.097zm6.436.014c-.08-.014-.17-.018-.254-.025-.119-.001-.23-.037-.322-.1l.002.001c-.066-.042-.147-.067-.234-.067-.002 0-.005 0-.007 0-.138-.021-.261-.072-.366-.148l.002.002c-.049-.036-.08-.093-.08-.157 0-.005 0-.009 0-.014v.001c-.014-.16-.014-.16-.17-.199-.211-.046-.388-.166-.507-.331l-.002-.002c-.061-.086-.102-.191-.113-.305v-.003c-.011-.101-.017-.202-.018-.302 0-.029 0-.07.036-.08.005-.001.011-.002.017-.002.031 0 .058.016.074.04.045.046.077.104.093.168l.001.002c.016.073.033.134.055.193l-.003-.011c.069.223.262.235.442.27.322.065.692.102 1.071.102.282 0 .559-.021.83-.061l-.031.004c.014-.005.03-.008.046-.008.039 0 .074.016.1.041.038.04.026.055-.017.07-.094.033-.187.069-.284.103-.262.105-.566.18-.883.212l-.014.001c-.139-.007-.27-.027-.396-.058l.014.003c-.019-.006-.04-.01-.063-.01-.016 0-.031.002-.046.005h.001c.016.088.071.16.145.201l.002.001c.102.075.228.123.366.13h.002c.257-.003.505-.03.746-.079l-.026.004c.043-.009.08-.026.113-.049l-.001.001q.204-.12.415-.223c.015-.01.033-.016.052-.016.026 0 .05.011.066.028-.223.22-.458.42-.696.616-.033.032-.077.053-.126.054-.012-.002-.022-.004-.033-.007h.001zm-4.706-.192c-.083-.08-.197-.129-.322-.129-.062 0-.122.012-.176.034l.003-.001c-.013.005-.028.007-.043.007-.037 0-.071-.015-.096-.039-.072-.054-.067-.101.014-.139.1-.042.218-.078.34-.103l.013-.002c.098.007.187.018.274.034l-.015-.002c.134.03.287.048.444.048s.311-.017.458-.05l-.014.003c.058-.015.124-.023.193-.023.087 0 .171.014.25.039l-.006-.002c.026.004.05.013.07.026h-.001c.033.032.089.061.08.108-.008.034-.045.034-.08.034-.004 0-.01-.001-.015-.001s-.01 0-.015.001h.001c-.142.019-.286.039-.43.054-.042.007-.08.021-.114.041l.001-.001c-.083.055-.179.106-.279.149l-.012.004c-.059.022-.128.035-.2.036-.125 0-.24-.048-.326-.125zm-6.218-6.151c-.091-.085-.147-.205-.147-.338 0-.128.052-.243.135-.327.051-.038.114-.06.183-.06.012 0 .023.001.034.002h-.001c.009-.001.019-.002.029-.002.117 0 .214.08.242.188v.002c.032.06.05.13.05.205 0 .131-.056.248-.146.33-.051.044-.118.072-.192.072-.072 0-.138-.027-.187-.072zm16.181-1.853c.003-.157.128-.285.284-.292h.001c.154 0 .23.08.235.24-.001.155-.116.282-.265.302h-.002-.008c-.133-.01-.238-.117-.246-.25v-.001z"/></svg>