<!--Generated by Fontisto--><svg viewBox="0 0 24 24" xmlns="http://www.w3.org/2000/svg"><path d="m1.985 10.902h1.5l-.233.885c-.065.237-.278.409-.532.409-.001 0-.003 0-.004 0h-.697c-.377.013-.678.322-.678.701s.301.688.677.701h.001.424.002c.136 0 .246.11.246.246 0 .023-.003.045-.009.067v-.002l-.268.98h-.463c-.001 0-.001 0-.002 0-1.076 0-1.949-.873-1.949-1.949 0-.177.024-.348.068-.51l-.003.014c.2-.888.982-1.542 1.916-1.542zm.757 3.987 1.309-4.88c.063-.237.275-.409.528-.409h.009 1.388.001c.935 0 1.716.656 1.909 1.533l.002.013c.029.129.046.277.046.428 0 1.104-.884 2.001-1.983 2.021h-.002-1.2l.24-.893c.067-.235.28-.405.533-.405h.003.386.024c.387 0 .702-.314.702-.702s-.314-.702-.702-.702c-.008 0-.017 0-.025 0h.001-.742l-.967 3.585c-.071.232-.282.398-.533.4h-.927zm8.275-2.612c.011-.038.071-.198-.08-.198h-2.16c-.001 0-.002 0-.003 0-.303 0-.549-.246-.549-.549 0-.052.007-.101.02-.149l-.001.004.131-.502h2.919c.61 0 1.104.494 1.104 1.104 0 .098-.013.193-.037.284l.002-.008-.525 1.943c-.104.387-.452.668-.865.668-.005 0-.01 0-.015 0h.001l-2.16-.007c-1.609 0-1.444-2.393.026-2.393h1.83l-.131.495c-.069.234-.281.402-.533.405h-.812c-.082 0-.148.066-.148.148s.066.148.148.148h1.309c.173 0 .191-.146.206-.198l.32-1.193zm3.864-1.383h.011c1.073 0 1.943.87 1.943 1.943 0 .181-.025.357-.071.523l.003-.014-.33 1.242c-.045.17-.198.293-.379.293-.003 0-.005 0-.008 0h-.72c-.003 0-.007 0-.011 0-.133 0-.24-.107-.24-.24 0-.025.004-.05.011-.073v.002l.4-1.5c.016-.055.025-.119.025-.184 0-.384-.312-.696-.696-.696-.003 0-.006 0-.008 0h-.742l-.645 2.4c-.046.17-.199.293-.381.293-.003 0-.007 0-.01 0h-.708c-.001 0-.001 0-.002 0-.136 0-.246-.11-.246-.246 0-.023.003-.045.009-.067v.002l.982-3.68h1.812zm3.794 1.416-.3 1.126c-.005.016-.007.034-.007.053 0 .11.089.198.198.198h2.75l-.214.788c-.071.232-.282.398-.533.4h-2.498c-.002 0-.005 0-.007 0-.603 0-1.092-.489-1.092-1.092 0-.101.014-.199.04-.293l-.002.008.405-1.498c.178-.644.759-1.109 1.448-1.11h1.775.003c.605 0 1.096.491 1.096 1.096 0 .101-.014.199-.039.292l.002-.008-.12.45c-.104.383-.448.66-.858.66-.004 0-.009 0-.013 0h-1.999l.131-.487c.063-.235.274-.405.525-.405h.009.81.008c.068 0 .125-.048.139-.112v-.001l.026-.098c.003-.012.005-.026.005-.04 0-.084-.068-.151-.151-.151 0 0 0 0-.001 0h-1.235c-.007-.001-.014-.001-.022-.001-.134 0-.246.096-.27.224v.002zm2.633 2.565 1.335-4.992c.047-.172.202-.296.386-.296h.004.709.004c.135 0 .245.11.245.245 0 .024-.003.047-.01.068v-.002l-.994 3.68c-.2.75-.873 1.294-1.673 1.294-.002 0-.005 0-.007 0z"/></svg>