<!--Generated by Fontisto--><svg viewBox="0 0 24 24" xmlns="http://www.w3.org/2000/svg"><path d="m14.068 11.313c-.007 0-.015 0-.023 0-1.712 0-3.1 1.388-3.1 3.1s1.388 3.1 3.1 3.1c.061 0 .122-.002.183-.005h-.008-.016c1.621-.024 2.926-1.343 2.926-2.968 0-.025 0-.051-.001-.076v.004c.001-.031.002-.067.002-.103 0-1.687-1.367-3.054-3.054-3.054-.003 0-.007 0-.01 0h.001z"/><path d="m0 0v24h24v-24zm20.693 20.807h-3.576v-1.407c-.882.91-2.117 1.476-3.483 1.476-.082 0-.163-.002-.244-.006h.011c-.031.001-.067.001-.104.001-1.477 0-2.822-.565-3.83-1.49l.004.004c-1.352-1.174-2.201-2.896-2.201-4.815 0-.042 0-.085.001-.127v.006c0-.011 0-.023 0-.036 0-1.828.772-3.475 2.007-4.635l.003-.003c1.058-1.069 2.525-1.73 4.147-1.73h.041-.002c.072-.004.157-.007.242-.007 1.33 0 2.516.619 3.284 1.585l.007.009v-5.475l3.693-.765z"/></svg>