<!--Generated by Fontisto--><svg viewBox="0 0 25 24" xmlns="http://www.w3.org/2000/svg"><path d="m12.807 24c-.004 0-.009 0-.014 0-2.943 0-5.633-1.078-7.699-2.861l.015.013-5.109.7 1.974-4.874c-.678-1.458-1.073-3.165-1.073-4.964 0-6.598 5.319-11.954 11.903-12.015h.006c6.627 0 12 5.373 12 12s-5.373 12-12 12zm6.503-12.034v-.034c0-3.463-2.443-5.931-6.654-5.931h-4.545v12.002h4.479c4.242 0 6.719-2.574 6.719-6.037zm-6.606 3.089h-1.328v-6.103h1.328c.102-.013.219-.02.339-.02 1.613 0 2.92 1.307 2.92 2.92 0 .046-.001.093-.003.138v-.006.031c.002.043.004.093.004.143 0 1.609-1.305 2.914-2.914 2.914-.12 0-.238-.007-.354-.021l.014.001z"/></svg>