<!--Generated by Fontisto--><svg viewBox="0 0 34 24" xmlns="http://www.w3.org/2000/svg"><path d="m15.21 10.923v-3.159h3.533v3.159zm3.533-10.923v3.267h-3.533v-3.267zm4.177 7.77v3.159h-3.533v-3.159zm-8.353-3.855v3.213h-3.533v-3.213zm4.177 0v3.213h-3.534v-3.213zm14.834 5.348.696.482-.482.914c-.504.998-1.377 1.749-2.434 2.081l-.029.008c-.662.205-1.423.324-2.211.324-.07 0-.139-.001-.208-.003h.01c-1.36 3.409-3.692 6.19-6.652 8.072l-.068.041c-2.937 1.771-6.484 2.819-10.276 2.819-.2 0-.398-.003-.597-.009l.029.001q-5.89 0-8.889-3.534c-.957-1.185-1.68-2.603-2.072-4.152l-.016-.076c-.239-.864-.377-1.857-.377-2.881 0-.551.04-1.094.117-1.624l-.007.06h23.294c.044.001.096.002.148.002.885 0 1.719-.219 2.451-.605l-.029.014c-.416-.669-.663-1.481-.663-2.35 0-.153.008-.304.023-.453l-.002.019c.049-1.036.361-1.991.871-2.809l-.014.025.536-.75.75.536c1.139.766 1.944 1.956 2.189 3.339l.005.031c.39-.062.841-.097 1.299-.097.307 0 .61.016.909.047l-.037-.003c.647.024 1.245.22 1.753.542l-.014-.009zm-27.363-1.499v3.159h-3.534v-3.159zm4.177 0v3.159h-3.532v-3.159zm4.177 0v3.159h-3.535v-3.159zm-4.178-3.855v3.213h-3.531v-3.213z"/></svg>