<!--Generated by Fontisto--><svg viewBox="0 0 24 24" xmlns="http://www.w3.org/2000/svg"><path d="m16 21.44c-.541-2.962-1.298-5.573-2.287-8.067l.1.286h-.031l-.031.016q-.25.094-.672.258t-1.578.766c-.836.434-1.537.859-2.207 1.324l.066-.044c-.764.546-1.433 1.134-2.04 1.781l-.007.007c-.646.656-1.185 1.421-1.588 2.262l-.022.05-.234-.172c1.733 1.458 3.99 2.344 6.454 2.344h.081-.004.005c1.443 0 2.817-.298 4.062-.837l-.066.026zm-2.89-9.484q-.328-.766-.828-1.734c-3.057.923-6.57 1.454-10.207 1.454-.109 0-.217 0-.325-.001h.017c-.01.086-.016.186-.016.287v.043-.002.042c0 1.315.252 2.57.711 3.721l-.024-.068c.479 1.215 1.134 2.258 1.946 3.158l-.008-.009c.564-.988 1.203-1.842 1.934-2.607l-.005.005c.665-.717 1.393-1.357 2.183-1.916l.043-.029q1.078-.734 2.039-1.266c.432-.254.944-.506 1.474-.721l.081-.029.578-.203q.062-.016.203-.054c.079-.021.147-.046.212-.077l-.008.003zm-1.67-3.316c-1.275-2.278-2.537-4.208-3.913-6.047l.1.14c-2.866 1.381-4.962 3.97-5.644 7.088l-.012.068c3.37-.007 6.63-.463 9.729-1.31zm10.687 4.984c-1.261-.39-2.711-.614-4.214-.614-.768 0-1.522.059-2.259.172l.082-.01c.79 2.06 1.482 4.519 1.958 7.055l.042.273c1.16-.79 2.124-1.777 2.866-2.92l.024-.04c.733-1.117 1.259-2.437 1.49-3.856l.008-.058zm-12.578-11.578c-.013.001-.024.007-.031.016.007-.008.018-.013.029-.014zm9.218 2.265c-1.746-1.588-4.077-2.561-6.635-2.561-.046 0-.091 0-.137.001h.007c-.861.003-1.695.111-2.493.312l.071-.015c1.335 1.733 2.607 3.686 3.723 5.735l.117.234c.794-.3 1.464-.618 2.102-.983l-.071.037c.583-.321 1.076-.639 1.545-.986l-.037.026c.376-.287.71-.578 1.023-.891.206-.197.398-.403.576-.621l.01-.012zm3.484 7.579c-.004-2.445-.883-4.684-2.341-6.422l.013.016-.016.016q-.141.187-.297.383c-.218.248-.44.475-.674.689l-.006.006c-.339.324-.7.633-1.078.923l-.031.023c-1.045.771-2.235 1.449-3.503 1.981l-.114.042q.39.828.687 1.484.031.08.102.266c.036.104.076.191.121.275l-.005-.009q.56-.08 1.164-.11t1.149-.031q.547 0 1.078.023t1 .062.88.086.75.102l.57.094q.234.039.39.07zm1.749.11v.09c0 2.187-.598 4.234-1.64 5.987l.03-.054c-1.067 1.824-2.544 3.301-4.311 4.337l-.056.03c-1.729 1.012-3.806 1.609-6.024 1.609s-4.295-.597-6.081-1.64l.057.031c-1.824-1.067-3.301-2.544-4.337-4.311l-.03-.056c-1.012-1.729-1.609-3.806-1.609-6.024s.597-4.295 1.64-6.081l-.031.057c1.067-1.824 2.544-3.301 4.311-4.337l.056-.03c1.729-1.012 3.806-1.609 6.024-1.609s4.295.597 6.081 1.64l-.057-.031c1.824 1.067 3.301 2.544 4.337 4.311l.03.056c1.012 1.699 1.61 3.746 1.61 5.933v.096-.005z"/></svg>