<!--Generated by Fontisto--><svg viewBox="0 0 22 24" xmlns="http://www.w3.org/2000/svg"><path d="m7.827 5.156c-.6-.127-1.288-.2-1.994-.2-.752 0-1.486.083-2.191.24l.067-.012c-1.056.208-1.935.838-2.471 1.702l-.009.016c-.289.486-.46 1.071-.46 1.696 0 .176.014.349.04.518l-.002-.019c.14.968.462 1.837.931 2.608l-.017-.03c.032.05.073.091.121.121l.002.001c.047.026.103.041.162.041h.016-.001c.081-.003.154-.039.205-.095.057-.051.093-.123.095-.204 0-.002 0-.003 0-.005 0-.032-.005-.063-.014-.092l.001.002c-.008-.02-.013-.043-.014-.068-.41-.657-.707-1.429-.841-2.255l-.005-.036c-.023-.137-.037-.295-.037-.456 0-.514.136-.996.374-1.412l-.007.014c.494-.75 1.269-1.28 2.172-1.443l.02-.003c.56-.122 1.202-.192 1.861-.192s1.302.07 1.921.203l-.06-.011h.004c.014 0 .027.005.037.014l.014.014h.006c.089 0 .168-.036.226-.095.059-.058.095-.139.095-.228 0-.002 0-.003 0-.004 0-.005 0-.011 0-.017 0-.076-.026-.146-.069-.202l.001.001c-.045-.053-.106-.091-.175-.108h-.002zm-4.473 8.727c.683.719 1.404 1.383 2.166 1.999l.042.033c.726.587 1.536 1.15 2.386 1.653l.094.052c.983.57 2.135 1.112 3.335 1.557l.159.052c.946.362 2.061.661 3.214.846l.099.013c.491.083 1.056.13 1.632.13.44 0 .873-.028 1.298-.081l-.051.005c.83-.095 1.579-.372 2.229-.79l-.021.012c.036-.036.067-.076.094-.12l.002-.003c.026-.042.041-.093.041-.147 0-.001 0-.002 0-.002 0-.001 0-.003 0-.004 0-.089-.036-.17-.095-.228-.058-.059-.139-.095-.228-.095-.002 0-.003 0-.004 0-.03.004-.057.013-.081.028l.001-.001c-.031.015-.057.033-.08.055-.585.373-1.283.622-2.032.694l-.019.001c-.319.037-.689.058-1.063.058-.578 0-1.145-.05-1.695-.146l.059.008c-1.181-.198-2.226-.482-3.227-.857l.118.039c-1.251-.457-2.321-.977-3.329-1.588l.084.047c-.952-.547-1.767-1.102-2.537-1.712l.042.032c-.784-.62-1.484-1.268-2.13-1.966l-.011-.012c-.034-.034-.075-.061-.12-.079l-.002-.001c-.036-.016-.078-.026-.122-.027h-.001c-.001 0-.003 0-.004 0-.089 0-.17.036-.228.095-.059.058-.095.139-.095.228v.004c0 .04.01.077.028.11l-.001-.001zm15.792-.409c.902-.98 1.602-2.16 2.027-3.465l.019-.067c.13-.365.205-.787.205-1.226 0-.655-.167-1.271-.46-1.808l.01.02c-.384-.649-.956-1.151-1.641-1.437l-.023-.008c-.773-.328-1.672-.518-2.615-.518-.011 0-.022 0-.032 0h.002c-.003 0-.007 0-.011 0-.083 0-.157.037-.207.095-.05.059-.08.137-.08.221v.012-.001.011c0 .084.03.161.081.221v-.001c.05.059.124.095.207.095h.012-.001c.05-.002.11-.002.169-.002.784 0 1.533.156 2.215.439l-.038-.014c.594.246 1.079.656 1.411 1.174l.007.012c.221.432.351.943.351 1.483 0 .407-.074.797-.208 1.158l.007-.023c-.414 1.247-1.053 2.32-1.874 3.223l.006-.007-.054.109c-.017.032-.027.069-.027.109v.004c0 .089.036.17.095.228.058.059.139.095.228.095h.004.008c.048 0 .092-.015.129-.041h-.001c.032-.024.067-.047.105-.066l.004-.002zm-5.264-8.208c-1.193.283-2.213.615-3.194 1.019l.14-.051c-1.082.44-1.988.893-2.854 1.405l.1-.055c-1.192.689-2.223 1.424-3.176 2.245l.027-.022c-.876.747-1.654 1.56-2.345 2.443l-.028.037c-.573.725-1.056 1.558-1.409 2.456l-.023.066c-.214.519-.339 1.123-.339 1.755 0 .209.014.415.04.616l-.003-.024c.019.075.057.14.109.191.053.05.124.08.203.08h.017-.001.006c.089 0 .169-.036.227-.094.059-.058.095-.139.095-.228 0-.002 0-.003 0-.004v-.054c-.016-.139-.025-.301-.025-.465 0-.595.121-1.162.341-1.677l-.011.028c.357-.897.815-1.672 1.373-2.363l-.013.017c.695-.868 1.446-1.636 2.266-2.325l.025-.02c.899-.762 1.897-1.469 2.955-2.086l.099-.054c.714-.43 1.556-.855 2.429-1.22l.131-.048c.782-.333 1.728-.646 2.702-.886l.134-.028c.115-.022.216-.07.3-.139l-.001.001c.05-.053.08-.124.08-.203 0-.006 0-.011 0-.017v.001c-.003-.081-.039-.154-.095-.205-.051-.057-.123-.093-.204-.095h-.08zm-7.609 13.876c.461 1.38 1.169 2.567 2.08 3.567l-.007-.008c.668.769 1.637 1.262 2.722 1.295h.006c.783-.008 1.504-.273 2.081-.715l-.008.006c.708-.537 1.292-1.198 1.729-1.954l.017-.032c.014-.026.028-.058.039-.09l.002-.005c.009-.027.014-.058.014-.09 0-.002 0-.004 0-.006 0-.001 0-.003 0-.004 0-.089-.036-.17-.095-.228-.058-.059-.139-.095-.228-.095-.001 0-.003 0-.004 0-.001 0-.001 0-.002 0-.054 0-.105.015-.149.042l.001-.001c-.05.032-.091.073-.121.121l-.001.002c-.405.704-.92 1.297-1.528 1.777l-.013.01c-.473.374-1.075.603-1.73.614h-.002c-.941-.046-1.77-.49-2.328-1.167l-.004-.006c-.802-.908-1.431-1.991-1.822-3.181l-.018-.065c-.039-.057-.084-.106-.135-.149l-.001-.001c-.05-.042-.115-.068-.186-.068-.002 0-.004 0-.005 0-.081.003-.154.039-.205.095-.059.058-.095.139-.095.228v.004.109zm9.818-.572c.252-.779.471-1.718.615-2.681l.012-.1c.139-.9.218-1.938.218-2.994 0-.012 0-.023 0-.035v.002-.16c0-.023 0-.049 0-.076 0-1.318-.119-2.608-.347-3.859l.02.131c-.218-1.244-.54-2.347-.967-3.396l.04.11c-.381-.959-.863-1.787-1.448-2.53l.016.021c-.476-.623-1.084-1.122-1.784-1.46l-.029-.013c-.017-.017-.04-.027-.066-.027-.001 0-.002 0-.002 0h-.068c-.003 0-.007 0-.011 0-.084 0-.161.03-.221.081h.001c-.059.05-.095.125-.095.207v.012-.001.008c0 .068.02.132.055.185l-.001-.001c.032.05.079.088.134.108l.002.001c.667.328 1.221.795 1.642 1.365l.009.012c.516.68.956 1.458 1.286 2.293l.023.066c.362.89.665 1.938.858 3.023l.014.097c.2 1.072.314 2.305.314 3.565v.08-.004.16.02c0 1.033-.079 2.047-.232 3.036l.014-.11c-.163 1.074-.391 2.021-.69 2.936l.036-.127.027-.08v.027.004c0 .089.036.17.095.228.058.059.139.095.228.095h.004.005c.071 0 .136-.026.187-.068.048-.037.085-.086.108-.142l.001-.002zm6.055-.328c0-.006 0-.013 0-.02 0-.415-.172-.79-.449-1.058-.273-.278-.652-.45-1.072-.45-.012 0-.023 0-.035 0h.002c-.006 0-.012 0-.019 0-.416 0-.791.173-1.058.45-.277.268-.45.643-.45 1.058v.021-.001.032c0 .42.172.8.45 1.072.268.278.643.451 1.059.451h.02-.001.033c.42 0 .799-.172 1.072-.45.277-.273.449-.652.449-1.071 0-.012 0-.025 0-.037v.002zm-.655 0v.02c0 .243-.099.462-.259.62-.158.16-.377.259-.62.259-.007 0-.014 0-.021 0h.001c-.001 0-.002 0-.003 0-.244 0-.464-.099-.624-.259-.168-.156-.273-.377-.273-.624 0-.006 0-.012 0-.017v.001c.001-.247.105-.47.272-.627.157-.168.38-.272.627-.273h.016c.246 0 .468.105.623.272l.001.001c.16.16.259.381.259.625v.002zm-19.937 1.559h.019c.415 0 .79-.172 1.058-.449.278-.273.451-.653.451-1.073 0-.011 0-.023 0-.034v.002c0-.006 0-.012 0-.019 0-.416-.173-.791-.45-1.058-.268-.277-.643-.45-1.058-.45-.007 0-.014 0-.021 0h.001c-.01 0-.021 0-.032 0-.42 0-.8.172-1.072.45-.277.268-.45.643-.45 1.058v.021-.001.032c0 .42.172.8.45 1.072.273.277.652.449 1.071.449h.035zm0-.655c-.006 0-.013 0-.02 0-.243 0-.462-.099-.62-.259-.16-.158-.259-.377-.259-.62 0-.007 0-.014 0-.021v.001c0-.001 0-.002 0-.003 0-.244.099-.464.259-.624.156-.168.377-.273.624-.273h.017-.001c.247.001.47.105.627.272.168.157.272.38.273.627v.016c0 .246-.105.468-.272.623l-.001.001c-.16.158-.379.255-.621.255-.002 0-.004 0-.006 0zm9.52-16.064h.033c.42 0 .799-.172 1.072-.45.278-.268.451-.643.451-1.059 0-.007 0-.013 0-.02v.001c0-.01 0-.021 0-.033 0-.42-.172-.799-.45-1.072-.273-.278-.652-.45-1.072-.45-.012 0-.023 0-.035 0h.002c-.006 0-.012 0-.019 0-.416 0-.791.173-1.058.45-.278.273-.45.652-.45 1.072v.035-.002.019c0 .416.173.791.45 1.058.268.277.643.45 1.058.45h.017-.001zm0-.654c-.002 0-.005 0-.007 0-.238 0-.453-.099-.606-.259-.16-.153-.259-.368-.259-.606 0-.003 0-.005 0-.008 0-.006 0-.013 0-.02 0-.243.099-.462.259-.62.153-.16.368-.259.606-.259h.008.02c.243 0 .462.099.62.259.16.158.259.377.259.62v.021-.001.007c0 .238-.099.453-.259.606-.158.161-.378.26-.621.26-.007 0-.014 0-.02 0h.001zm.246 11.264c-.035.017-.075.027-.118.027-.001 0-.003 0-.004 0h-.125c-.005 0-.011 0-.018 0-.303 0-.577-.125-.773-.327-.202-.196-.327-.47-.327-.774 0-.006 0-.012 0-.019v.001c0-.007 0-.015 0-.023 0-.298.126-.566.327-.754l.001-.001c.198-.194.47-.314.77-.314h.022-.001.021c.262 0 .502.093.69.247l-.002-.001c.188.148.323.355.38.593l.001.007v.011c0 .044.005.087.014.129l-.001-.004c.009.033.014.07.014.109v.021c0 .262-.093.502-.247.69l.001-.002c-.155.192-.371.33-.619.382l-.007.001z"/></svg>