<!--Generated by Fontisto--><svg viewBox="0 0 24 24" xmlns="http://www.w3.org/2000/svg"><path d="m23.995 13.83c0-.002 0-.005 0-.007 0-.153-.124-.277-.277-.277-.045 0-.087.011-.125.03l.002-.001c-.301.237-.681.385-1.095.4h-.003c-.514-.049-.353-1.2-.353-1.2s.113-1.054-.191-1.14-.675.274-.675.274c-.287.331-.52.719-.678 1.144l-.009.026-.06.018c.016-.192.025-.415.025-.641 0-.271-.013-.538-.039-.802l.003.033c-.06-.131-.615-.12-.705.113-.24.719-.436 1.571-.552 2.448l-.008.072c-.453.387-.997.682-1.594.848l-.03.007c-.758.12-.938-.353-.938-.353s2.055-.574 1.984-2.216-1.658-1.035-1.84-.9c-.74.509-1.25 1.305-1.371 2.224l-.002.016c-.007.053-.026.282-.026.282-.356.246-.763.472-1.191.657l-.047.018s1.238-2.085-.274-3.034c-.686-.413-1.23.454-1.23.454s2.044-2.276 1.594-4.2c-.218-.915-.675-1.016-1.095-.866-.357.125-.655.342-.877.622l-.003.004c-.535.852-.897 1.864-1.013 2.95l-.003.031c-.191 1.781-.473 3.941-.473 3.941-.202.198-.46.34-.748.398l-.01.002c-.364.018-.202-1.076-.202-1.076s.282-1.673.262-1.954-.042-.435-.371-.533-.694.32-.694.32-.96 1.451-1.04 1.673l-.049.09-.049-.06s.675-1.976.03-2.006-1.069.705-1.069.705-.735 1.23-.765 1.369l-.049-.06c.127-.526.213-1.138.239-1.766l.001-.019c-.016-.164-.152-.291-.319-.291-.027 0-.052.003-.077.009h.002s-.424-.049-.533.222c-.221.734-.416 1.63-.548 2.547l-.012.104c-.494.369-1.086.637-1.728.761l-.027.004c-.698.007-.626-.442-.626-.442s2.55-.874 1.852-2.595c-.23-.351-.621-.58-1.066-.58-.043 0-.086.002-.128.006h.005c-.731.069-1.329.567-1.545 1.236l-.004.013c-.151.346-.255.746-.292 1.166l-.001.015c-.062.014-.134.021-.208.021-.183 0-.354-.048-.502-.133l.005.003c-.24-.202-.375 0-.375 0s-.42.522 0 .682c.305.106.662.186 1.031.227l.023.002c.107.461.37.847.73 1.11l.005.004c.758.574 2.205-.049 2.205-.049l.596-.33s.018.547.454.626.615.038 1.369-1.796c.442-.938.473-.885.473-.885l.049-.011c-.135.597-.213 1.284-.213 1.988 0 .089.001.177.004.265v-.013c.131.48.705.435.705.435s.311.09.56-.795c.228-.735.477-1.355.77-1.949l-.035.078h.054c-.041.271-.065.584-.065.903 0 .528.065 1.04.187 1.53l-.009-.043c.32.585 1.158.198 1.158.198.264-.128.485-.255.697-.396l-.021.013c.395.306.898.491 1.444.491.081 0 .16-.004.239-.012l-.01.001c1.108-.155 2.109-.497 3.011-.994l-.045.023c.289.578.866.973 1.537 1.001h.004c.081.009.174.014.269.014.692 0 1.322-.271 1.787-.713l-.001.001c.001.309.185.575.449.696l.005.002c.465.191.776-.855.776-.855l.776-2.145h.071s.042 1.398.806 1.62c.066.006.143.01.22.01.582 0 1.118-.197 1.546-.528l-.006.004c.129-.099.211-.252.211-.425 0-.041-.005-.08-.013-.118l.001.004zm-21.669.198c.03-1.2.818-1.721 1.087-1.462s.173.825-.342 1.178-.746.286-.746.286zm10.229-4.646s.72-1.864.885-.96-1.5 3.607-1.5 3.607c.169-1.032.383-1.924.653-2.791l-.039.144zm.851 5.19c-.153.491-.603.841-1.135.841-.177 0-.345-.039-.496-.109l.007.003c-.012-.109-.019-.235-.019-.362 0-.475.095-.928.267-1.341l-.009.023c.371-1.241 1.249-.758 1.249-.758s.607.466.135 1.702zm3.172-.544c-.005-.051-.009-.11-.009-.169 0-.367.117-.706.316-.983l-.003.005c.413-.758.735-.342.735-.342.094.124.151.281.151.451 0 .197-.076.376-.2.51-.216.322-.578.532-.989.533z"/></svg>