<!--Generated by Fontisto--><svg viewBox="0 0 17 24" xmlns="http://www.w3.org/2000/svg"><path d="m13.785 6.258.534-2.8c.013-.049.021-.105.021-.163 0-.158-.057-.303-.151-.415l.001.001c-.116-.147-.294-.241-.495-.241-.005 0-.01 0-.015 0h.001-10.262c-.004 0-.009 0-.014 0-.215 0-.408.094-.54.244l-.001.001c-.135.138-.22.325-.223.533v15.875q0 .101.086.014l4.196-5.075c.153-.19.335-.349.539-.475l.009-.005c.176-.07.38-.111.593-.111.035 0 .069.001.104.003h-.005 3.446.019c.2 0 .382-.08.515-.209.125-.11.216-.255.258-.42l.001-.006q.346-1.874.534-2.754c.007-.036.011-.077.011-.12 0-.176-.067-.337-.177-.458v.001c-.12-.164-.31-.27-.526-.274h-4.243c-.009 0-.019 0-.03 0-.517 0-.937-.419-.937-.937 0-.011 0-.021.001-.032v.002-.609c0-.01-.001-.021-.001-.032 0-.256.105-.487.274-.653.171-.164.403-.265.659-.265.012 0 .023 0 .035.001h-.002 4.989c.194-.005.37-.078.506-.195l-.001.001c.144-.101.249-.25.29-.423l.001-.005zm3.273-3.2q-.216 1.053-.771 3.84t-1.002 5.046q-.447 2.257-.505 2.502-.086.32-.13.469c-.062.183-.13.338-.21.485l.008-.016c-.087.187-.206.346-.352.475l-.002.001c-.16.121-.343.223-.54.297l-.015.005c-.235.091-.507.144-.791.144-.016 0-.031 0-.047 0h.002-3.907c-.002 0-.005 0-.008 0-.125 0-.237.056-.312.144v.001q-.115.13-6.142 7.12c-.21.235-.507.389-.839.411h-.004c-.069.016-.149.025-.231.025-.17 0-.331-.039-.475-.107l.007.003c-.477-.215-.802-.687-.802-1.234 0-.061.004-.121.012-.18l-.001.007v-20.334c.005-.565.211-1.081.551-1.481l-.003.003c.382-.425.934-.69 1.548-.69.064 0 .128.003.191.009l-.008-.001h12.804c.079-.011.169-.017.262-.017.639 0 1.207.305 1.566.777l.004.005c.183.392.289.851.289 1.336 0 .342-.053.671-.151.98l.006-.023zm0 0-2.278 11.39q.058-.245.505-2.502t1.002-5.046.771-3.843z"/></svg>