<!--Generated by Fontisto--><svg viewBox="0 0 26 24" xmlns="http://www.w3.org/2000/svg"><path d="m12.906 24-12.503-9.277c-.162-.128-.284-.3-.351-.497l-.002-.008c-.032-.09-.05-.193-.05-.301s.018-.211.052-.308l-.002.007 1.463-4.437zm-7.613-23.646 2.874 8.823h-6.655l2.823-8.823c.07-.207.263-.353.49-.353h.015-.001c.008 0 .017-.001.026-.001.212 0 .388.151.427.351v.003zm2.874 8.823h9.479l-4.739 14.823zm17.595 4.436c.032.09.05.193.05.301s-.018.211-.052.308l.002-.007c-.069.205-.191.376-.351.503l-.002.002-12.503 9.28 11.394-14.823zm-4.285-13.259 2.823 8.823h-6.655l2.874-8.823c.04-.203.216-.354.428-.354.009 0 .018 0 .027.001h-.001.014c.227 0 .419.146.489.349l.001.004z"/></svg>