<!--Generated by Fontisto--><svg viewBox="0 0 24 24" xmlns="http://www.w3.org/2000/svg"><path d="m14.969 11.814c.001.043.001.095.001.146 0 1.357-.336 2.635-.929 3.757l.021-.044c-.6 1.121-1.481 2.023-2.55 2.632l-.032.017c-1.066.6-2.34.953-3.696.953-.052 0-.104-.001-.155-.002h.008c-.006 0-.014 0-.022 0-1.065 0-2.078-.222-2.995-.623l.048.019c-1.848-.775-3.288-2.215-4.044-4.013l-.018-.049c-.382-.876-.604-1.896-.604-2.969s.222-2.093.623-3.018l-.019.049c.775-1.848 2.215-3.288 4.013-4.044l.049-.018c.87-.383 1.884-.606 2.951-.606h.018-.001c.037-.001.081-.001.125-.001 1.937 0 3.695.762 4.992 2.004l-.003-.003-2.073 1.99c-.755-.73-1.785-1.179-2.92-1.179-.042 0-.084.001-.126.002h.006c-.009 0-.02 0-.031 0-.864 0-1.671.24-2.36.657l.02-.011c-1.429.865-2.37 2.411-2.37 4.177s.941 3.312 2.348 4.165l.022.012c.668.406 1.476.646 2.339.646h.033-.002.052c.549 0 1.077-.088 1.572-.25l-.036.01c.455-.143.852-.347 1.204-.607l-.011.008c.31-.238.579-.507.81-.807l.008-.01c.198-.25.369-.535.5-.841l.009-.024c.093-.22.17-.478.22-.746l.004-.024h-4.334v-2.625h7.208c.078.382.124.821.126 1.27v.002zm9.031-1.273v2.189h-2.177v2.177h-2.189v-2.177h-2.174v-2.189h2.177v-2.177h2.189v2.177z"/></svg>