<!--Generated by Fontisto--><svg viewBox="0 0 18 24" xmlns="http://www.w3.org/2000/svg"><path d="m2.765 8.859c.003-.238.133-.446.325-.558l.003-.002q-.328-.094-.609-.187c.23-.052.494-.081.765-.081.648 0 1.256.169 1.784.466l-.018-.009c.528.304.977.679 1.354 1.118l.006.007c.191.26.469.446.791.514l.009.002c.092.015.197.023.305.023s.213-.009.316-.025l-.011.002.282-.094v.004c0 .254-.118.48-.303.627l-.002.001c-.188.16-.434.258-.703.258-.008 0-.016 0-.024 0h.001c.001.025.002.054.002.084 0 .353-.106.68-.288.953l.004-.006-.328.516c.091-.226.143-.489.143-.763 0-.161-.018-.318-.052-.469l.003.014-.141-.375c-.267.228-.615.366-.996.366-.18 0-.353-.031-.514-.088l.011.003c-.42-.095-.785-.291-1.08-.561l.002.002c-.374-.423-.605-.981-.609-1.592v-.001c-.101.22-.168.475-.187.743v.007l-.14-.24c-.06-.196-.096-.422-.098-.656v-.001zm1.359-.093c-.061.185-.095.398-.095.619 0 .111.009.22.026.327l-.002-.012c.022.305.173.572.398.748l.002.002c.218.187.503.3.815.3.076 0 .151-.007.223-.02l-.008.001c.279-.005.538-.09.754-.234l-.005.003c-.256-.317-.541-.594-.855-.835l-.012-.009c-.36-.29-.765-.583-1.185-.855l-.057-.035zm3.701 10.965c.04.061.064.135.064.215 0 .04-.006.079-.017.116l.001-.003c-.156.362-.362.672-.613.939l.002-.002c-.143.117-.327.187-.528.187-.004 0-.008 0-.012 0h.001c-.003 0-.007 0-.011 0-.201 0-.385-.071-.529-.188l.002.001c-.279-.239-.502-.537-.65-.874l-.006-.016c-.025-.045-.04-.098-.04-.155 0-.085.033-.163.088-.22.11-.09.252-.144.406-.144.022 0 .044.001.065.003h-.003 1.36c.013-.001.029-.002.045-.002.145 0 .278.054.379.143l-.001-.001zm2.955-8.81c-.007 0-.015 0-.023 0-.269 0-.515-.098-.705-.259l.002.001c-.186-.148-.305-.374-.305-.628 0-.002 0-.003 0-.005h.047c.131.089.294.142.468.142.017 0 .033 0 .05-.001h-.002c.457-.002.864-.219 1.122-.556l.002-.003c.382-.446.831-.82 1.335-1.111l.025-.013c.509-.287 1.117-.456 1.765-.456.271 0 .535.03.789.086l-.024-.004q-.282.094-.609.187c.195.114.325.321.328.559 0 .234-.035.459-.098.673l.004-.017-.141.234c-.028-.277-.094-.531-.194-.768l.006.017c-.036.608-.26 1.158-.614 1.599l.004-.006c-.293.269-.658.465-1.062.557l-.016.003c-.148.051-.319.08-.496.08-.383 0-.733-.137-1.006-.364l.003.002-.141.375c-.03.12-.048.258-.048.4s.017.28.05.412l-.002-.012.141.421-.375-.516c-.178-.267-.284-.594-.284-.947 0-.029.001-.058.002-.087v.004zm.841-.421v.047h-.047c.203.109.44.191.689.232l.014.002c.042.004.09.007.14.007.357 0 .685-.126.941-.337l-.003.002c.227-.178.378-.444.4-.746v-.003c.016-.096.025-.206.025-.319 0-.221-.035-.434-.099-.633l.004.015c-.477.307-.882.6-1.271.913l.029-.022c-.319.238-.591.516-.814.831zm.609 9.231c.054.057.087.135.087.22 0 .057-.015.111-.041.157l.001-.002c-.147.341-.371.626-.651.84l-.005.004c-.135.144-.327.234-.539.234-.001 0-.001 0-.002 0-.213 0-.406-.09-.541-.235-.241-.255-.444-.548-.6-.869l-.009-.021c-.009-.03-.014-.064-.014-.099 0-.088.032-.168.085-.229.089-.089.212-.144.348-.144.018 0 .037.001.054.003h-.002 1.406c.158.019.302.069.429.144l-.005-.003zm-4.592-11.762c.358.232.795.371 1.264.375h.001c.47-.004.907-.143 1.274-.381l-.009.006-.421.421c-.215.231-.508.385-.838.421l-.006.001c-.335-.036-.629-.191-.843-.421l-.001-.001zm8.622 6.888c.277.225.499.507.65.829l.006.014c.255.501.404 1.093.404 1.72 0 .27-.028.534-.08.788l.004-.025c-.19 1.221-1.046 2.203-2.179 2.571l-.023.006c-.244.556-.594 1.026-1.026 1.402l-.005.004c-.561.508-1.294.835-2.102.887l-.01.001c-.757.588-1.721.943-2.768.943-.081 0-.162-.002-.242-.006h.011c-.077.005-.166.007-.256.007-1.015 0-1.952-.336-2.705-.903l.011.008c-.818-.087-1.544-.428-2.111-.94l.003.003c-.443-.387-.806-.854-1.066-1.38l-.012-.026c-1.156-.375-2.012-1.356-2.2-2.559l-.002-.018c-.048-.227-.076-.487-.076-.754 0-.4.062-.785.177-1.146l-.007.027c.125-.413.317-.773.565-1.085l-.005.007.328-.375c.068.431.208.817.408 1.165l-.009-.016c.198.353.44.655.723.911l.003.003c.123-.833.193-1.795.193-2.774 0-.045 0-.09 0-.134v.007c0-.004 0-.008 0-.013 0-.308-.089-.595-.244-.837l.004.006c-.088-.147-.197-.271-.325-.373l-.003-.002-.375-.234c-.482-.239-.897-.505-1.279-.811l.014.011c-.387-.294-.639-.749-.654-1.264v-.002c0-.003 0-.007 0-.011 0-.314.106-.604.284-.835l-.002.003c.135-.162.289-.301.461-.417l.008-.005.094-.094q.187-.141.187-.234c.104-.262.165-.566.165-.883 0-.019 0-.038-.001-.057v.003c.011-.074.017-.159.017-.246 0-.198-.032-.389-.091-.567l.004.013c-.137-.177-.262-.377-.366-.589l-.009-.02c-.141-.254-.223-.557-.223-.879 0-.129.013-.254.038-.375l-.002.012c.086-.351.329-.633.648-.771l.007-.003c.274-.13.594-.214.93-.234h.007l.047-.282c.026-.111.043-.24.047-.372v-.003c0-.19-.052-.368-.143-.52l.003.005c-.201-.285-.472-.51-.788-.651l-.012-.005c-.162-.087-.35-.152-.549-.186l-.011-.001-.56-.094.375-.469c.177-.137.377-.262.589-.366l.02-.009c.434-.265.958-.422 1.52-.422h.029-.001c.403.001.789.07 1.149.195l-.025-.008c.979.351 1.783.988 2.333 1.81l.011.017.282-.094c-.004-.046-.006-.099-.006-.153 0-.353.088-.686.242-.978l-.005.011c.124-.314.307-.581.538-.799l.001-.001c.136-.161.321-.278.532-.327l.007-.001v.141q.047.937.328 1.124c.183-.937.898-1.668 1.812-1.872l.016-.003c-.075.223-.119.479-.119.746 0 .358.078.697.219 1.003l-.006-.015c.242-.221.52-.409.823-.551l.02-.009c.149-.083.326-.134.514-.141h.002.234l-.282.609c-.115.231-.182.502-.182.789 0 .135.015.267.043.394l-.002-.012.421.141c.56-.839 1.365-1.477 2.311-1.817l.033-.01c.342-.119.736-.187 1.147-.187h.002.002c.41 0 .805.069 1.172.195l-.025-.008c.271.105.503.247.706.424l-.003-.002q.282.141.282.187l.375.469-.56.094c-.21.035-.398.1-.57.192l.01-.005c-.339.125-.616.354-.796.649l-.004.007c-.064.117-.101.255-.101.403 0 .04.003.079.008.117v-.004c-.009.037-.013.079-.013.122 0 .092.022.18.062.256l-.001-.003v.282c.019-.001.041-.001.064-.001.322 0 .623.087.882.24l-.008-.004c.327.141.569.422.654.766l.002.008c.023.109.036.235.036.363 0 .322-.083.625-.228.888l.005-.009c-.09.224-.201.416-.333.592l.005-.007c-.085.175-.134.381-.134.598 0 .078.006.155.019.23l-.001-.008c-.001.019-.001.041-.001.064 0 .314.059.614.167.89l-.006-.017c.053.09.115.167.186.234l.001.001.094.047c.173.142.327.295.464.463l.005.006c.176.228.282.518.282.832v.011-.001c-.016.517-.268.972-.652 1.262l-.004.003c-.368.295-.783.561-1.225.781l-.04.018-.375.187c-.118.125-.226.263-.321.41l-.007.011c-.147.234-.234.518-.234.822v.024-.001c0 .05-.001.11-.001.17 0 .965.068 1.914.2 2.842l-.012-.107c.613-.504 1.029-1.229 1.123-2.052l.001-.014zm-2.014-13.074c-.766.277-1.386.805-1.772 1.483l-.009.016.56.282c.244-.438.576-.799.973-1.071l.011-.007c.35-.263.792-.422 1.271-.422h.043-.002.018c.143 0 .282.017.415.05l-.012-.002c.132-.082.286-.16.447-.226l.022-.008c-.344-.148-.745-.234-1.166-.234-.002 0-.004 0-.006 0-.004 0-.008 0-.012 0-.28 0-.549.051-.797.145l.015-.005zm.983.843c-.001 0-.003 0-.005 0-.354 0-.68.124-.935.33l.003-.002c-.303.262-.52.616-.607 1.019l-.002.012c.171.167.325.351.46.547l.008.012.56-.141c.114-.24.182-.521.187-.818v-.002c.005-.298.073-.579.192-.832l-.005.012zm-13.166-.514c.15-.002.296-.019.436-.05l-.014.003h.041c.479 0 .921.158 1.277.426l-.005-.004c.409.279.74.64.977 1.062l.008.016.56-.282c-.395-.695-1.014-1.223-1.757-1.493l-.023-.007c-.233-.089-.502-.141-.783-.141-.006 0-.011 0-.017 0h.001c-.002 0-.004 0-.006 0-.421 0-.821.086-1.185.242l.02-.007c.184.074.339.154.487.244l-.014-.008zm2.061 1.875c-.088-.411-.295-.764-.584-1.03l-.001-.001c-.25-.204-.572-.328-.923-.328-.013 0-.026 0-.038 0h.002l.141.141c.107.248.175.537.187.839v.005c.006.292.074.566.192.812l-.005-.012.56.141c.122-.223.279-.411.466-.564zm-1.502 8.199c.244.153.442.358.581.601l.004.008c.171.282.282.617.307.976v.007c.012.272.019.592.019.913 0 .934-.058 1.854-.171 2.758l.011-.108c.543.2 1.17.32 1.824.328h.004c.104-.174.199-.376.274-.588l.007-.024.516-1.312q.516-1.265.703-1.64c-.228 1.583-.605 3.005-1.125 4.357l.046-.136c.168-.03.362-.047.559-.047h5.482.019c.176 0 .347.017.513.05l-.017-.003c-.468-1.199-.843-2.604-1.061-4.06l-.014-.11q.187.328.703 1.593l.515 1.31c.082.235.177.436.29.625l-.009-.016c.657-.008 1.284-.128 1.867-.34l-.039.013c-.102-.795-.16-1.715-.16-2.649 0-.321.007-.639.02-.957l-.002.045c.025-.366.135-.702.31-.994l-.006.01c.144-.251.341-.457.578-.605l.007-.004.375-.234c.376-.189.698-.392.999-.621l-.016.011c.261-.169.439-.448.468-.769v-.004c.002-.025.003-.054.003-.083 0-.175-.045-.339-.123-.482l.003.005c-.086-.119-.187-.221-.301-.306l-.004-.003-.141-.141c.029.264.079.502.148.732l-.007-.029-.187-.234c-.087-.17-.182-.387-.266-.608l-.016-.047c-.115-.33-.213-.725-.276-1.131l-.005-.04c-.011-.126-.018-.272-.018-.42 0-.224.015-.444.044-.66l-.003.025c.028-.352.103-.678.219-.984l-.008.024v.656l.094-.094c.137-.145.248-.316.324-.505l.004-.011c.083-.152.131-.332.131-.524 0-.063-.005-.125-.015-.186l.001.007c-.04-.181-.162-.327-.324-.398l-.004-.001c-.191-.075-.412-.119-.643-.119-.029 0-.058.001-.087.002h.004c-.559.017-1.088.119-1.583.293l.037-.011c-1.153.442-2.147 1.044-3.012 1.792l.013-.011-.282.187.187-.282c.187-.322.405-.599.655-.843l.001-.001c.511-.552 1.116-1.007 1.791-1.343l.036-.016c-.293-.283-.633-.518-1.008-.693l-.023-.01c-.971-.445-2.106-.705-3.301-.705-.058 0-.117.001-.175.002h.009c-.049-.001-.108-.002-.166-.002-1.196 0-2.331.26-3.352.725l.051-.021c-.405.184-.748.437-1.029.748l-.002.003c.716.322 1.324.765 1.824 1.308l.004.004c.251.244.469.522.646.825l.01.018.187.282-.282-.187c-.851-.734-1.844-1.334-2.927-1.751l-.069-.023c-.459-.163-.988-.264-1.539-.281h-.008c-.025-.001-.054-.002-.083-.002-.231 0-.452.044-.655.123l.012-.004c-.166.073-.288.219-.327.396l-.001.004c-.006.042-.01.091-.01.14 0 .21.065.405.176.566l-.002-.003q.141.282.282.516l.094.094v-.656c.115.276.19.595.211.929v.008c.026.195.041.42.041.649 0 .151-.007.301-.019.448l.001-.019c-.033.43-.134.828-.291 1.196l.009-.025c-.06.249-.157.468-.286.664l.005-.008-.187.234c.089-.191.142-.414.142-.65 0-.019 0-.037-.001-.056v.003l-.14.133c-.114.082-.208.183-.279.3l-.003.005c-.061.14-.097.303-.097.474 0 .03.001.06.003.089v-.004c.022.317.182.593.419.771l.003.002c.286.218.608.42.948.593l.036.017.047.047q.234.146.326.192zm-1.078 6.798c.262.445.647.793 1.109 1.001l.015.006c.458.218.995.345 1.561.345h.036-.002c-.086-.176-.136-.383-.136-.601 0-.341.123-.654.326-.896l.42-.514c-.75-.016-1.457-.187-2.094-.481l.033.014c-.688-.347-1.208-.943-1.447-1.667l-.006-.02q-.234.234-.187 1.124c-.002.041-.003.088-.003.136 0 .567.14 1.101.387 1.569l-.009-.018zm2.16 2.015c.343.53.82.946 1.384 1.207l.02.008c-.202-.308-.392-.663-.549-1.034l-.017-.044c-.316-.03-.602-.079-.88-.148l.041.009zm5.198 2.344q2.905 0 3.983-3.046c.071-.141.113-.308.113-.484 0-.211-.06-.408-.163-.575l.003.005c-.258-.227-.598-.365-.971-.365-.071 0-.141.005-.209.015l.008-.001h-5.525c-.06-.009-.13-.014-.201-.014-.373 0-.713.138-.972.366l.002-.001c-.101.17-.161.375-.161.594 0 .181.041.353.114.507l-.003-.007q1.078 3.003 3.983 3.003zm3.797-1.128c.595-.278 1.085-.693 1.445-1.207l.008-.012c-.268.058-.576.092-.891.094h-.001c-.165.432-.353.803-.575 1.15l.015-.025zm3.561-3.233c.257-.475.412-1.039.421-1.637v-.003q0-.937-.234-1.124c-.235.736-.759 1.322-1.436 1.633l-.017.007c-.59.285-1.281.456-2.011.469h-.004l.375.516c.202.24.324.553.324.894 0 .218-.05.425-.14.609l.004-.008h.018c.572 0 1.114-.129 1.597-.361l-.022.01c.477-.214.862-.56 1.118-.992l.006-.011z"/></svg>