<!--Generated by Fontisto--><svg viewBox="0 0 11 24" xmlns="http://www.w3.org/2000/svg"><path d="m9.288 18.319c-1.027.392-2.216.619-3.457.619-.145 0-.289-.003-.433-.009l.02.001c-.119.005-.259.008-.4.008-1.263 0-2.473-.227-3.592-.641l.072.023.703 1.173.282 3.753q0 .328.868.539c.587.137 1.262.216 1.955.216.047 0 .095 0 .142-.001h-.007c.044.001.097.001.149.001.687 0 1.356-.077 1.998-.224l-.06.012q.868-.211.868-.539l.234-3.753zm-8.585-6c.171-.571.411-1.07.716-1.52l-.012.019c.293-.455.689-.821 1.156-1.071l.017-.008c.117-.053.254-.084.399-.084.181 0 .351.049.497.133l-.005-.003c.132.069.242.164.326.279l.002.003c.07.076.12.172.14.278l.001.004c.013.037.02.08.02.125 0 .066-.016.128-.045.182l.001-.002c-.035.07-.106.117-.188.118q-.118 0-.305-.328-.282-.516-.8-.141c-.336.253-.606.574-.793.945l-.007.015c-.215.375-.405.81-.547 1.267l-.013.047c-.067.162-.105.351-.105.549 0 .147.021.288.061.422l-.003-.01c.048.085.137.142.24.142.297-.059.549-.22.725-.443l.002-.003c.239-.226.448-.48.624-.758l.01-.016.234-.703q.094-.234.282-.234t.188.258c-.021.268-.088.515-.194.74l.006-.013c-.097.228-.194.509-.271.798l-.011.047-.378 1.216c-.033.099-.073.184-.121.263l.003-.006c-.028.064-.088.11-.159.118h-.001c-.002 0-.005 0-.008 0-.055 0-.104-.028-.132-.07v-.001c-.022-.053-.035-.114-.035-.178 0-.037.004-.073.012-.107l-.001.003c.106-.474.227-.876.373-1.264l-.021.064-.328.328c-.249.28-.594.47-.982.52l-.008.001c-.01.001-.021.001-.033.001-.126 0-.244-.035-.345-.096l.003.002.375 3.705q.047.234 1.219.516c.85.209 1.826.328 2.83.328h.082-.004.078c1.004 0 1.98-.12 2.915-.345l-.084.017q1.126-.282 1.219-.516l.516-4.409-.094.047c-.226.252-.49.463-.785.626l-.015.008c-.118.053-.256.083-.401.083-.056 0-.111-.005-.165-.013l.006.001q-.285-.047-.285-.282c.098-.335.277-.62.515-.843l.001-.001.141-.234q.234-.234.234-.352t-.188-.094c-.147.025-.275.092-.375.188-.15.138-.282.292-.394.46l-.006.009c-.144.209-.277.448-.389.699l-.011.028-.188.375-.46 1.312c-.059.09-.138.161-.231.21l-.003.002c-.033.022-.074.036-.117.036s-.084-.013-.118-.036h.001c-.054-.036-.089-.096-.091-.164l.047-.141c.122-.354.249-.648.394-.932l-.019.041.328-.703q.047-.188.047-.141c-.183.2-.401.365-.644.487l-.013.006c-.1.051-.218.081-.343.081-.045 0-.088-.004-.131-.011l.005.001c-.118-.025-.209-.116-.234-.232v-.002l-.047-.094c-.197.201-.47.326-.773.328q-.305-.047-.16-.703c-.174.41-.569.694-1.031.703h-.001c-.017.003-.037.004-.056.004-.162 0-.302-.097-.365-.236l-.001-.003c-.004-.045-.006-.097-.006-.15 0-.34.085-.66.236-.94l-.005.011v-.047q.141-.328.328-.75.141-.282.375-.188h.047q.141.094.047.375l-.141.188c-.11.205-.22.452-.314.708l-.014.043q-.094.422.07.422c.129-.004.25-.038.356-.096l-.004.002c.209-.152.376-.349.489-.577l.004-.009c.107-.182.195-.393.254-.616l.004-.018.094-.24q.094-.234.211-.234c.083.001.158.037.211.093q.094.094 0 .328l-.328.75c-.073.164-.123.354-.14.553v.007q0 .188.328.047c.126-.049.234-.112.33-.19l-.002.002q.047-.188.75-2.017l.469-1.173c.043-.137.169-.235.318-.235h.011-.001c.055.01.103.035.141.071q.094.07.047.258l-.847 2.026q-.328.844-.4 1.076t.028.24q.328 0 1.079-.8l.047-.047.141-.328c.033-.162.098-.305.189-.428l-.002.003q.094-.094.141-.094.188 0 .188.16v.007c0 .106-.017.209-.049.304l.002-.007.234-.234c.186-.217.46-.354.766-.354.019 0 .039.001.058.002h-.003c.198.014.353.178.353.378 0 .008 0 .015-.001.023v-.001c-.104.426-.318.792-.609 1.079l-.094.047c-.058.081-.106.174-.139.274l-.002.007q0 .047.094.047c.129-.034.24-.1.328-.188l.8-.703.703-6.379c-.9.327-1.939.516-3.022.516-.026 0-.052 0-.079 0h.004c-.673.045-1.459.07-2.252.07s-1.578-.026-2.358-.076l.106.005c-.022 0-.048 0-.075 0-1.083 0-2.122-.189-3.085-.536l.063.02zm10.179-6.286h-.047q0-.188-.868-.375c-.657-.136-1.438-.236-2.234-.28l-.042-.002.469-1.92 2.674-2.862q.141-.094-.234-.422c-.073-.079-.169-.136-.278-.159l-.004-.001q-.141-.023-.188.023l-2.859 2.993-.61 2.298-1.219-.048c-.086-.001-.187-.002-.289-.002-1.255 0-2.489.086-3.698.252l.14-.016q-1.594.234-1.594.516 0 .469 2.814.657c.786.06 1.703.094 2.627.094s1.841-.034 2.748-.101l-.121.007q2.814-.186 2.814-.656zm-3.28.234q0 .047-.188.118c-.124.045-.268.071-.418.071-.01 0-.02 0-.029 0h.001c-.008 0-.018 0-.028 0-.15 0-.293-.026-.427-.073l.009.003q-.188-.07-.188-.118t.141-.094l-.047.047q0 .094.516.094t.516-.094l.047-.047q.091.044.091.09z"/></svg>