<!--Generated by Fontisto--><svg viewBox="0 0 26 24" xmlns="http://www.w3.org/2000/svg"><path d="m23.299 22.536c-.996-.594-1.755-1.498-2.152-2.576l-.011-.035c-.019-.049-.029-.106-.029-.165 0-.168.087-.317.218-.402l.002-.001c2.586-1.873 4.252-4.879 4.265-8.275v-.002c0-6.113-5.729-11.08-12.796-11.08-7.067.064-12.796 5.029-12.796 11.077 0 6.11 5.729 11.076 12.796 11.076.044.001.096.001.148.001.894 0 1.767-.094 2.609-.271l-.082.014c.045-.015.098-.024.152-.024.14 0 .267.058.357.152 1.89 1.166 4.163 1.889 6.599 1.974l.023.001c.033.004.072.007.111.007.497 0 .901-.401.905-.897.128-.193-.129-.385-.32-.574zm-3.439-1.018c.036.031.06.075.065.125v.001c-.004.069-.059.124-.128.128-1.421-.404-2.656-1.06-3.714-1.924l.018.015c-.114-.102-.265-.164-.43-.164-.075 0-.147.013-.214.036l.005-.001c-.801.196-1.722.312-2.669.32h-.005c-5.919 0-10.695-3.945-10.695-8.851s4.776-8.851 10.695-8.851 10.696 3.945 10.696 8.851c-.089 3.041-1.797 5.664-4.289 7.045l-.043.022c-.211.115-.358.326-.383.573v.003c.164 1.014.547 1.917 1.098 2.692l-.013-.02zm-.063-7.831c0-.003 0-.007 0-.011 0-.277-.224-.501-.501-.501-.002 0-.005 0-.007 0-.124.003-.236.051-.32.128-1.617 1.348-3.717 2.167-6.008 2.167-.058 0-.116-.001-.174-.002h.009c-2.344-.016-4.495-.833-6.194-2.191l.02.016c-.089-.067-.198-.113-.317-.128h-.003c-.284.005-.511.236-.511.52 0 .019.001.038.003.057v-.002c.014.253.135.475.318.624l.002.001c1.564 1.873 3.901 3.057 6.513 3.057.06 0 .119-.001.178-.002h-.009.065c.086.003.186.005.287.005 2.592 0 4.9-1.216 6.385-3.108l.013-.018c.064-.192.252-.448.252-.64z"/></svg>