<!--Generated by Fontisto--><svg viewBox="0 0 24 24" xmlns="http://www.w3.org/2000/svg"><path d="m15.209.014c-.097-.009-.21-.014-.324-.014-.689 0-1.336.18-1.896.495l.019-.01c-.924.476-1.617 1.29-1.923 2.274l-.007.027v.068l-.035.237-.135-.237-.338-.606c-.458-.767-1.18-1.336-2.038-1.585l-.025-.006c-.208-.058-.448-.091-.695-.091-.477 0-.925.123-1.313.34l.014-.007c-.7.455-1.183 1.194-1.285 2.051l-.001.013c-.039.219-.061.471-.061.728 0 .789.21 1.528.577 2.166l-.011-.021.238.339-.815-.269c-.284-.073-.61-.114-.946-.114-.722 0-1.399.192-1.983.528l.019-.01c-.915.462-1.619 1.232-1.983 2.172l-.009.028c-.162.359-.256.777-.256 1.218 0 .546.145 1.059.398 1.502l-.008-.015c.202.35.462.643.772.875l.007.005c.401.391.924.659 1.507.741l.014.002.236.067-.505.442c-.42.372-.738.852-.908 1.397l-.006.022c-.057.188-.089.403-.089.627 0 .431.122.834.333 1.176l-.006-.01c.151.273.354.5.599.672l.006.004c.271.245.622.405 1.009.44h.007c.302.075.649.118 1.005.118.487 0 .956-.08 1.393-.227l-.031.009-.606 1.009-.17.44c-.125.357-.197.769-.197 1.198 0 .666.174 1.291.479 1.832l-.01-.019c.247.381.502.713.783 1.022l-.006-.006c.421.364.934.635 1.499.772l.025.005c.35.109.752.172 1.168.172.671 0 1.304-.163 1.862-.452l-.023.011c.906-.493 1.577-1.319 1.856-2.31l.006-.027.032-.202c.49.621 1.146 1.091 1.901 1.344l.029.008c.221.08.476.127.743.127.454 0 .876-.135 1.228-.367l-.008.005c.582-.367 1.008-.936 1.181-1.606l.004-.019c.081-.351.127-.753.127-1.167s-.046-.816-.134-1.203l.007.036c.308.224.669.398 1.06.5l.022.005c.376.143.81.226 1.263.226.627 0 1.218-.158 1.733-.437l-.019.01c.894-.511 1.553-1.346 1.821-2.342l.006-.027c.101-.33.16-.71.16-1.104 0-.674-.171-1.307-.473-1.86l.01.02-.172-.273c-.248-.428-.565-.788-.94-1.076l-.009-.006c-.317-.206-.682-.399-1.065-.558l-.046-.017c.966-.411 1.719-1.165 2.12-2.106l.01-.026c.089-.236.141-.509.141-.794 0-.43-.117-.832-.322-1.177l.006.011v-.063c-.387-.668-1.02-1.157-1.772-1.346l-.02-.004c-.319-.058-.687-.091-1.063-.091-.185 0-.369.008-.55.024l.024-.002-1.118.237.373-.846c.123-.355.195-.764.195-1.19 0-.71-.198-1.374-.542-1.939l.009.016-.101-.172c-.499-.816-1.3-1.407-2.243-1.619l-.024-.004c-.223-.062-.487-.109-.758-.133l-.017-.001zm-.575 1.427c.061-.006.131-.009.202-.009.278 0 .544.052.789.146l-.015-.005c.662.128 1.209.539 1.518 1.099l.006.011c.17.339.27.739.27 1.162v.022-.001l-.101.745c-.139.386-.31.719-.515 1.026l.011-.017-3.044 3.724c-.284-.21-.606-.402-.947-.561l-.035-.014-.339-3.825-.033-1.352.032-.338c.192-.67.644-1.211 1.238-1.516l.014-.006c.274-.159.598-.267.943-.302l.01-.001zm-6.947.542h.003c.15 0 .292.037.416.103l-.005-.002c.704.235 1.254.761 1.516 1.433l.006.017c.18.312.319.675.4 1.059l.004.024.676 3.994-.505.17-3.012-3.282-.17-.337c-.239-.455-.379-.993-.379-1.564 0-.081.003-.161.008-.24l-.001.011c0-.011 0-.024 0-.037 0-.51.268-.957.671-1.209l.006-.003c.098-.081.225-.13.363-.131zm12.243 5.08h.012c.155 0 .308.009.458.026l-.018-.002c.511.028.948.319 1.18.74l.004.007.136.437-.068.338c-.311.681-.875 1.202-1.568 1.449l-.019.006c-.323.148-.699.255-1.092.301l-.018.002-4.161.505-.068-.237-.069-.101.136-.169 3.418-2.842.404-.168c.394-.182.854-.29 1.339-.293h.001zm-15.605.185c.18.01.349.037.512.08l-.018-.004.916.37 2.977 2.169c-.236.287-.421.627-.535.997l-.006.021-4.873.606-.337-.067c-.561-.062-1.031-.399-1.279-.87l-.004-.009c-.134-.239-.213-.525-.213-.829 0-.251.054-.49.151-.705l-.004.011c.223-.643.696-1.15 1.299-1.414l.015-.006c.368-.221.812-.352 1.287-.352.04 0 .079.001.119.003h-.006zm7.226 2.715h.027c.593 0 1.132.231 1.532.607l-.001-.001c.419.39.681.944.681 1.559v.037-.002c.001.024.002.052.002.08 0 .599-.261 1.138-.676 1.507l-.002.002c-.39.417-.943.676-1.557.676h-.001c-.014 0-.03.001-.046.001-.609 0-1.157-.26-1.54-.675l-.001-.001c-.417-.392-.676-.946-.676-1.562 0-.01 0-.019 0-.029v.001c.006-.623.264-1.185.676-1.59.409-.376.956-.606 1.557-.606h.033-.002zm8.497 2.604.339.035c.538.158.977.508 1.246.969l.005.01c.315.368.506.849.506 1.375 0 .029-.001.057-.002.086v-.004l-.101.676c-.145.646-.57 1.171-1.138 1.448l-.012.006c-.321.195-.71.311-1.126.311-.276 0-.54-.051-.784-.144l.015.005c-.366-.081-.678-.273-.907-.539l-.002-.002-3.553-2.945.237-.505.101-.404 3.823-.338 1.352-.035zm-6.698 2.47 1.42 1.453.878 1.083.172.34c.26.431.414.951.414 1.507 0 .088-.004.176-.012.262l.001-.011c.001.014.001.031.001.048 0 .497-.27.932-.671 1.165l-.006.003c-.157.101-.349.16-.554.16-.079 0-.156-.009-.23-.026l.007.001c-.712-.24-1.266-.782-1.517-1.47l-.005-.017-.404-1.118-.505-2.944.573-.202.44-.237zm-3.654.069c.302.179.656.309 1.033.368l.017.002c.067 1.151.167 2.369.335 3.688v1.354l-.033.336c-.221.617-.667 1.107-1.237 1.381l-.015.006c-.348.204-.767.325-1.214.325-.231 0-.454-.032-.665-.092l.017.004c-.637-.144-1.158-.554-1.448-1.104l-.006-.012c-.18-.333-.29-.728-.303-1.147v-.004l.172-.777c.076-.373.255-.696.505-.949l2.842-3.381z"/></svg>