<!--Generated by Fontisto--><svg viewBox="0 0 24 24" xmlns="http://www.w3.org/2000/svg"><path d="m18.8 13.768v-1.875c0-.013.001-.028.001-.044 0-.137-.02-.27-.057-.395l.002.01q-.054-.16-.32-.16t-.268.59v.16c-.026.245-.042.529-.042.817 0 .545.054 1.077.157 1.592l-.009-.051q.054.107.24.107c.007.001.015.001.023.001.102 0 .188-.067.217-.16v-.002c.035-.125.055-.27.055-.418 0-.022 0-.043-.001-.065v.003zm-4.607-3.322c.002-.025.003-.053.003-.082 0-.163-.03-.319-.086-.463l.003.009q-.08-.16-.455-.16v4.5q.375 0 .455-.187c.052-.156.083-.336.083-.523 0-.033-.001-.065-.003-.098v.004zm9.807-7.874c0-.013 0-.029 0-.045 0-.696-.287-1.326-.749-1.776l-.001-.001c-.451-.463-1.08-.75-1.777-.75-.016 0-.031 0-.047 0h.002-18.858c-.013 0-.028 0-.044 0-.697 0-1.327.287-1.777.75l-.001.001c-.463.451-.75 1.08-.75 1.777v.046-.002 18.858.043c0 .696.287 1.326.749 1.776l.001.001c.451.463 1.08.75 1.777.75h.047-.002 18.858.045c.696 0 1.326-.287 1.776-.749l.001-.001c.463-.451.75-1.08.75-1.777 0-.015 0-.03 0-.045v.002zm-18.8 6v6.858h-1.771v-6.857zm6.054 0v6.858h-1.503v-4.661l-.64 4.661h-1.128l-.64-4.554v4.554h-1.557v-6.857h2.303q.16 1.018.429 3.161l.054.054.375-3.214zm4.66 2.41v1.446c.005.129.007.279.007.431 0 .604-.042 1.198-.122 1.779l.008-.067c-.1.383-.408.675-.794.749l-.006.001c-.548.074-1.182.116-1.825.116-.168 0-.336-.003-.502-.009l.024.001h-.8v-6.857h1.5c.068-.002.148-.004.228-.004.431 0 .852.04 1.26.118l-.042-.007c.499.108.881.509.959 1.011l.001.007c.071.296.112.636.112.985 0 .049-.001.098-.002.146v-.007zm4.608.96h-.058v1.929c.002.044.004.096.004.148 0 .35-.06.686-.17.998l.006-.021c-.179.293-.498.485-.861.485-.036 0-.072-.002-.107-.006h.004c-.011 0-.023 0-.035 0-.448 0-.852-.184-1.143-.48l-.054.429h-1.608v-6.857h1.66v2.25c.272-.314.671-.511 1.117-.511.031 0 .062.001.093.003h-.004c.031-.003.066-.005.102-.005.35 0 .658.182.833.456l.002.004c.141.288.223.626.223.984 0 .069-.003.137-.009.204l.001-.009z"/></svg>