<!--Generated by Fontisto--><svg viewBox="0 0 24 24" xmlns="http://www.w3.org/2000/svg"><path d="m21.825 0h-19.65c-1.201.001-2.174.974-2.175 2.175v19.65c.001 1.201.974 2.174 2.175 2.175h19.65c1.201-.001 2.174-.974 2.175-2.175v-19.65c-.001-1.201-.974-2.174-2.175-2.175zm-13.805 4.667c.796 0 1.442.646 1.442 1.442s-.646 1.442-1.442 1.442v.027c-.804 0-1.455-.651-1.455-1.455s.651-1.455 1.455-1.455zm9.816 13.815c-.069.009-.149.013-.23.013-1.09 0-1.974-.884-1.974-1.974 0-.046.002-.091.005-.136v.006c0-.003 0-.006 0-.009 0-.382.055-.75.157-1.099l-.007.028.71-2.545c.07-.221.11-.476.11-.739 0-.012 0-.025 0-.037v.002c.003-.033.005-.071.005-.11 0-.668-.541-1.209-1.209-1.209-.034 0-.067.001-.1.004h.004c-1.013 0-1.68.727-2.025 2.13l-1.381 5.535h-2.413l.432-1.74c-.553 1.085-1.638 1.827-2.903 1.885h-.007c-.071.009-.152.014-.235.014-1.067 0-1.932-.865-1.932-1.932 0-.069.004-.137.011-.204l-.001.008c.004-.387.051-.76.137-1.119l-.007.034 1.1-4.49h-1.707l.518-1.9h4.1l-1.62 6.4c-.084.293-.138.63-.15.979v.007c0 .41.2.53.517.6 1.183-.003 2.187-.763 2.554-1.821l.006-.019 1.06-4.25h-1.723l.52-1.875h3.72l-.48 2.16c.607-1.255 1.786-2.151 3.189-2.352l.023-.003c1.379.007 2.495 1.127 2.495 2.507 0 .11-.007.219-.021.326l.001-.013v.004c0 .561-.088 1.101-.25 1.608l.01-.037-.69 2.476c-.055.195-.091.421-.1.654v.006c0 .434.18.645.494.645s.735-.24 1.2-1.56l.943.36c-.555 1.964-1.576 2.774-2.85 2.774z"/></svg>