<!--Generated by Fontisto--><svg viewBox="0 0 18 24" xmlns="http://www.w3.org/2000/svg"><path d="m5.701 18.561s-.918.534.653.714c.575.085 1.239.134 1.913.134 1.084 0 2.138-.125 3.149-.363l-.093.018c.374.228.809.445 1.262.624l.059.02c-4.698 2.014-10.633-.117-6.942-1.148z"/><path d="m5.127 15.933s-1.029.762.542.924c.687.086 1.482.136 2.289.136 1.461 0 2.884-.162 4.252-.468l-.129.024c.275.258.604.463.968.596l.02.006c-5.68 1.661-12.008.131-7.942-1.218z"/><path d="m9.966 11.475c1.158 1.333-.304 2.532-.304 2.532s2.939-1.52 1.59-3.418c-1.261-1.772-2.228-2.653 3.006-5.688 0 0-8.216 2.052-4.292 6.574z"/><path d="m16.18 20.505s.678.56-.747.992c-2.712.822-11.287 1.07-13.67.033-.856-.373.75-.89 1.254-.998.232-.059.499-.093.774-.093h.057-.003c-.952-.671-6.155 1.318-2.64 1.886 9.579 1.554 17.462-.7 14.978-1.82z"/><path d="m6.142 13.21s-4.362 1.036-1.545 1.412c.759.063 1.644.098 2.536.098 1.139 0 2.264-.058 3.372-.171l-.139.012c1.805-.152 3.618-.48 3.618-.48-.425.186-.785.382-1.126.605l.029-.018c-4.43 1.165-12.986.623-10.523-.569 1.086-.563 2.372-.893 3.734-.893h.046-.002z"/><path d="m13.966 17.585c4.502-2.34 2.421-4.588.967-4.286-.199.037-.372.085-.539.146l.023-.007c.095-.134.226-.237.379-.295l.006-.002c2.874-1.01 5.086 2.981-.928 4.56.037-.033.067-.072.089-.115l.001-.002z"/><path d="m11.252 0s2.494 2.494-2.366 6.33c-3.896 3.077-.889 4.831 0 6.836-2.274-2.052-3.943-3.858-2.824-5.54 1.644-2.468 6.197-3.664 5.19-7.627z"/><path d="m6.585 23.925c4.32.277 10.96-.154 11.12-2.198 0 0-.302.775-3.572 1.391-1.806.326-3.885.512-6.008.512-1.739 0-3.448-.125-5.121-.366l.191.023s.553.458 3.393.64z"/></svg>