<!--Generated by Fontisto--><svg viewBox="0 0 14 24" xmlns="http://www.w3.org/2000/svg"><path d="m2.845 24s0 0-.001 0c-1.571 0-2.845-1.274-2.845-2.845 0-.265.036-.522.104-.766l-.005.02-.015-.009.09-.226 7-18.167c.037-.188.058-.405.058-.627 0-.225-.022-.446-.063-.659l.003.022c-.006-.029-.01-.062-.01-.096 0-.052.008-.103.024-.15l-.001.003.014-.035v-.007l.009-.019c.108-.292.45-.439 1.008-.439.933.048 1.804.254 2.607.592l-.051-.019c.776.29 1.447.652 2.059 1.093l-.026-.018c.6.45.842.854.707 1.2l-.031.045-.016.015c-.043.063-.092.118-.149.164l-.001.001c-.329.267-.607.579-.831.929l-.009.016-7.068 18.421-.016-.006c-.485.93-1.44 1.556-2.542 1.561h-.007zm-2.187-3.718-.02.05c-.092.242-.145.523-.145.815 0 .998.619 1.851 1.493 2.197l.016.006c.245.098.53.154.828.154h.01-.001.005c.991 0 1.838-.617 2.177-1.488l.005-.016.027-.061 6.959-18.09c.267-.443.593-.82.972-1.134l.007-.006.016-.016c.012-.015.02-.015.02-.03 0-.06-.061-.27-.557-.645-.547-.394-1.175-.732-1.845-.982l-.055-.018c-.697-.292-1.505-.485-2.35-.539l-.022-.001c-.39 0-.524.082-.545.126v.04c.036.202.057.434.057.67 0 .299-.033.591-.096.871l.005-.026-6.962 18.12zm8.95-11.507c-.52.597-1.128 1.099-1.809 1.491l-.034.018c-.946.252-1.718.51-2.47.809l.15-.053c-.478.281-.875.65-1.18 1.088l-.008.012-3.215 8.36c-.065.185-.102.398-.102.62 0 .814.503 1.51 1.214 1.795l.013.005c.198.077.427.122.666.122.786 0 1.459-.481 1.741-1.165l.005-.013zm-4.936 9.985c.024-.012.053-.018.083-.018.081 0 .15.048.182.117l.001.001c.01.024.017.051.017.08 0 .112-.09.202-.202.202-.083 0-.154-.05-.185-.121l-.001-.001c-.01-.023-.015-.049-.015-.077 0-.082.049-.152.119-.183l.001-.001zm-1.014-1.8c-.035.015-.075.024-.118.024-.166 0-.3-.134-.3-.3s.134-.3.3-.3c.121 0 .225.071.272.174l.001.002c.018.036.029.079.029.125 0 .121-.076.224-.182.264l-.002.001zm.286-1.1c-.03-.068-.048-.148-.048-.231 0-.232.135-.432.331-.525l.004-.001c.067-.03.146-.048.229-.048.229 0 .427.135.519.329l.001.003c.027.064.042.138.042.217 0 .318-.258.576-.576.576-.225 0-.42-.129-.515-.317l-.001-.003h.013zm2.428-2.26c.036-.016.077-.026.121-.026.166 0 .3.134.3.3s-.134.3-.3.3c-.122 0-.228-.073-.274-.179l-.001-.002c-.016-.035-.025-.076-.025-.12 0-.122.073-.227.177-.274l.002-.001zm-1.29-1.375c.024-.011.052-.017.081-.017.11 0 .2.09.2.2s-.09.2-.2.2c-.08 0-.149-.047-.181-.114l-.001-.001c-.012-.025-.019-.054-.019-.084 0-.081.048-.151.117-.182l.001-.001zm3.371-11.085c.1-.261.993-.162 1.995.226s1.729.909 1.63 1.17-1 .164-2-.221-1.734-.91-1.632-1.176z"/></svg>