<!--Generated by Fontisto--><svg viewBox="0 0 22 24" xmlns="http://www.w3.org/2000/svg"><path d="m21.698 19.922c-.008.541-.11 1.055-.292 1.531l.01-.031-.796 2.578h-19.781l-.328-.94c-.198-.428-.367-.929-.483-1.45l-.009-.05c-.012-.053-.019-.115-.019-.178 0-.222.088-.424.231-.573.189-.166.405-.307.64-.415l.016-.007c.208-.098.378-.191.542-.292l-.024.014q.701-.469 1.873-1.172l1.031-.609c.381-.166.707-.387.985-.657l-.001.001q.187-.281-.281-.984l-.187-.328c-.201-.41-.335-.888-.374-1.393l-.001-.013c-.771-.112-1.422-.547-1.822-1.162l-.006-.01c-.338-.523-.584-1.138-.7-1.799l-.004-.03c-.056-.231-.088-.496-.088-.768 0-.485.101-.945.284-1.363l-.009.022.094-.14c.072-.107.129-.232.162-.367l.002-.008c0-.014.001-.031.001-.048 0-.183-.027-.361-.076-.528l.003.013c-.025-.124-.041-.269-.047-.417v-.005q-.094-2.953 1.403-3.656c.201-.715.594-1.321 1.12-1.778l.004-.004c.532-.434 1.132-.824 1.771-1.146l.056-.026.703-.375c.466-.276 1.008-.529 1.574-.73l.066-.02.234-.094c.95-.328 2.044-.517 3.183-.517.348 0 .693.018 1.032.052l-.043-.004c1.442.055 2.765.52 3.868 1.282l-.024-.016c.529.429 1.004.874 1.445 1.35l.008.009c.46.456.85.98 1.155 1.556l.017.035c.596 1.328.942 2.879.942 4.511 0 .078-.001.157-.002.235v-.012c.002.11.004.24.004.37 0 1.704-.241 3.352-.691 4.912l.031-.125c-.16.593-.336 1.092-.544 1.574l.028-.074-.234.375q-.469.75-.399.984c.308.437.672.809 1.088 1.115l.013.009.703.609q.893.753.94 1.175zm-13.171-18.327c-.927.267-1.737.652-2.468 1.144l.031-.02c-.748.429-1.343 1.053-1.725 1.803l-.011.025c.25-.057.462-.121.667-.199l-.034.011c.201-.08.433-.131.676-.14h.004.234c.063.015.136.024.211.024s.147-.009.217-.025l-.006.001q.234-.047.703-.843c.117-.224.242-.415.381-.595l-.007.009c.139-.148.292-.279.459-.392l.01-.006c.175-.12.328-.243.471-.377l-.002.002.14-.047q.281-.094.281-.281-.139-.141-.232-.094zm-4.922 4.355c-.299.403-.488.904-.515 1.447v.006c-.008.156-.013.338-.013.522 0 .394.022.783.064 1.166l-.004-.047v.094c.29-.188.644-.3 1.024-.3.093 0 .185.007.275.02l-.01-.001c.453.057.849.262 1.148.563.289.279.469.671.469 1.104v.022-.001q.281 0 .328-.328c-.027-.227-.076-.433-.147-.629l.006.02-.094-.281c-.041-.214-.064-.46-.064-.711 0-.129.006-.257.018-.384l-.001.016c.014-.417.056-.813.125-1.2l-.007.051q.117-.773.164-1.196c0-.016 0-.036 0-.055 0-.4-.069-.784-.195-1.141l.007.024c-1.023.061-1.929.517-2.576 1.217l-.002.003zm1.734 9.379c.16.623.336 1.146.545 1.651l-.03-.081c.196.51.432.951.716 1.356l-.013-.02c.332.435.8.751 1.339.887l.017.004c.542.112 1.188.196 1.845.233l.035.002c.144-.247.403-.412.702-.422h.001c.072-.007.155-.011.24-.011.265 0 .522.038.764.109l-.019-.005c-.748-.384-1.373-.905-1.866-1.535l-.009-.012c-.296-.311-.573-.648-.825-1.004l-.019-.028c-.226-.346-.378-.761-.421-1.208l-.001-.011.14.14c.544.787 1.098 1.475 1.698 2.121l-.011-.012c.66.634 1.457 1.13 2.341 1.44l.045.014c.35.111.753.176 1.171.176.471 0 .922-.082 1.342-.231l-.028.009c.824-.25 1.541-.618 2.175-1.092l-.018.013c.393-.281.71-.642.932-1.062l.008-.017.234-.328c.66-.963 1.162-2.093 1.438-3.309l.012-.065c.248-.995.39-2.138.39-3.314 0-.236-.006-.47-.017-.703l.001.033v-.469q-.047-.94-.094-1.359c-.043-.417-.159-.798-.336-1.143l.008.018c-.239-.451-.634-.793-1.111-.957l-.014-.004c-.148-.076-.324-.12-.51-.12-.313 0-.597.127-.803.332-.023-.068-.037-.146-.037-.227 0-.277.156-.517.384-.639l.004-.002c.209-.122.461-.193.729-.193.167 0 .328.028.477.079l-.01-.003-.281-.328q-.563-.75-.89-1.125c-.315-.357-.687-.654-1.104-.88l-.021-.01c-.848-.516-1.846-.881-2.913-1.027l-.04-.005c-.337-.082-.724-.129-1.122-.129-.713 0-1.391.151-2.003.423l.032-.012q-3.141 1.547-3.891 3.281c.153.325.242.707.242 1.109 0 .072-.003.143-.008.213l.001-.009q-.047.422-.234 1.359t-.234 1.408c.018.416.085.809.196 1.183l-.009-.035c.099.325.166.701.187 1.089l.001.012q-.234.422-1.219.375c-.067-.404-.198-.767-.383-1.095l.009.016c-.147-.31-.442-.528-.792-.562h-.004c-.068-.011-.146-.017-.226-.017-.415 0-.791.168-1.063.439-.341.319-.561.765-.586 1.261v.004c-.001.023-.001.05-.001.077 0 .642.212 1.235.569 1.712l-.005-.007c.258.557.812.937 1.455.937.014 0 .029 0 .043-.001h-.002c.216-.059.404-.156.566-.284l-.003.002c.153-.128.346-.213.558-.234h.004c.058.073.092.166.092.268 0 .047-.007.092-.021.134l.001-.003c-.077.148-.18.273-.302.373l-.002.002c-.123.092-.214.221-.256.37l-.001.005c.003.244.045.478.121.696l-.005-.015zm10.406 5.858c-.022.067-.034.143-.034.223 0 .045.004.09.012.133l-.001-.005c.006.042.01.091.01.141 0 .091-.012.18-.035.265l.002-.007c.711.19 1.53.309 2.375.328h.012c.131-.236.207-.517.207-.817 0-.092-.007-.183-.021-.271l.001.01c0-.014 0-.03 0-.046 0-.331-.032-.655-.094-.969l.005.032c-.031-.298-.168-.56-.374-.749l-.001-.001c-.102-.037-.219-.058-.342-.058-.165 0-.321.039-.46.108l.006-.003c-.339.167-.631.354-.9.57l.009-.007q-.471.281-.616.375l.047.094c.051.11.085.237.094.371v.003c.101-.034.218-.053.339-.053.203 0 .393.055.557.15l-.005-.003h-.187c-.002 0-.003 0-.005 0-.225 0-.434.07-.606.19l.003-.002zm-.795-.94.422-.375c.174-.166.375-.307.595-.415l.014-.006c-.334.019-.647.069-.948.148l.033-.007q-.633.14-.961.187c-.062.008-.134.013-.207.013-.248 0-.484-.056-.694-.155l.01.004-.094.094c.23.19.504.336.805.418l.015.004c.276.06.592.094.917.094.032 0 .064 0 .096-.001h-.005zm-.563 1.547h-.047c.082.04.179.064.281.064.151 0 .29-.051.4-.137l-.001.001c.118-.119.192-.283.192-.464 0-.026-.002-.052-.005-.077v.003c-.005-.206-.126-.383-.301-.467l-.003-.001c-.065-.026-.141-.041-.221-.041-.17 0-.324.069-.435.181-.009.055-.014.119-.014.183 0 .136.022.266.063.388l-.003-.009c.027.15.059.278.099.403l-.006-.023zm-4.918-1.219c.009-.154.035-.298.076-.435l-.003.014c.033-.108.059-.236.072-.367l.001-.008c-.183-.031-.394-.048-.61-.048-.033 0-.066 0-.098.001h.005c-.461-.018-.893-.12-1.289-.29l.023.009q-.281.281.516.68c.376.213.814.37 1.28.445l.022.003zm-7.879 2.722h8.437l-.094-.328c-.171-.474-.302-1.029-.371-1.604l-.004-.037-.328-.14c-.905-.417-1.674-.855-2.401-1.349l.057.037-.375-.422q-.75-.891-.843-.846c-1.826.822-3.399 1.81-4.816 2.981l.035-.028c.218.448.456 1.021.664 1.609l.039.127zm11.624 0h.422l-.14-.187-.187.14zm.703-1.172v-.469c-.311-.176-.682-.281-1.078-.281.142-.079.308-.137.484-.163l.008-.001c.202-.035.383-.092.553-.17l-.014.006v-.187c-.303-.05-.571-.166-.801-.332l.005.004-.234-.14c-.595-.35-1.288-.611-2.025-.744l-.038-.006q-.562-.093-.703.609c-.044.252-.069.543-.069.839 0 .167.008.332.023.494l-.002-.021v.047c.074.525.205.999.389 1.446l-.014-.039.187.469q.047.281.211.328c.017.001.037.001.057.001.241 0 .47-.052.677-.145l-.01.004c.338-.107.626-.226.9-.367l-.032.015c.345-.212.643-.436.92-.685l-.006.005c.181-.191.382-.361.6-.508l.013-.008zm2.485 1.172.047-.563c-.291-.027-.55-.147-.751-.329l.001.001c-.12-.092-.26-.164-.413-.209l-.009-.002c-.002 0-.005 0-.007 0-.153 0-.295.044-.415.12l.003-.002c-.116.076-.258.121-.41.121-.071 0-.139-.01-.204-.028l.005.001-.281.328q.187.234.422.563h.796c.005-.075.04-.141.094-.187.053-.057.128-.093.211-.094h.005c.075 0 .141.037.181.093v.001c.042.051.069.116.072.187v.001zm.422 0h1.687c-.153-.275-.399-.483-.694-.583l-.009-.003c-.116-.042-.249-.067-.389-.067-.202 0-.392.052-.558.142l.006-.003c-.027.154-.043.332-.044.513v.001zm3.89-1.736.047-.234c.09-.26.141-.559.141-.871 0-.024 0-.049-.001-.073v.004q-.047-.324-.75-.886l-.231-.187-.656-.656q-.566-.516-.895-.845c-.141.204-.312.375-.509.511l-.007.004c-.177.122-.33.262-.462.421l-.003.004c.105-.066.232-.105.368-.105.086 0 .168.015.243.044l-.005-.002c.201.075.356.234.423.433l.001.005c.238.455.378.993.378 1.564 0 .051-.001.103-.003.153v-.007c.004.061.006.132.006.204 0 .495-.106.964-.296 1.388l.009-.021c.051.159.14.293.257.398l.001.001c.108.096.195.213.255.345l.003.006-.094.14h1.313c.17-.471.332-1.053.454-1.649l.015-.086zm-11.437-15.466c.204-.432.507-.788.882-1.049l.009-.006c.317-.277.735-.446 1.192-.446h.028-.001c.215.059.398.174.538.327l.001.001c.069.069.112.165.112.271 0 .094-.034.179-.089.246v-.001q-1.64-.375-2.531 1.547-.417-.095-.14-.891zm8.624 3c.2-.074.431-.117.672-.117h.033-.002c.017.001.036.001.056.001.237 0 .46-.061.654-.169l-.007.004-.14-.328c-.179-.381-.283-.828-.283-1.3 0-.037.001-.075.002-.112v.005h.047l.234.469c.247.569.499 1.046.782 1.502l-.028-.049c-.113.267-.332.47-.602.561l-.007.002c-.201.104-.439.164-.691.164-.096 0-.189-.009-.28-.026l.009.001c-.258-.046-.451-.268-.451-.535 0-.026.002-.052.005-.077v.003zm-4.499.094q-.94-1.453-.703-2.109.094.187.281.609c.12.367.313.682.563.941l-.001-.001.094.094c.102.099.195.206.277.321l.005.007c.03.084.047.181.047.281s-.017.198-.049.287l.002-.006c-.062.094-.14.172-.231.232l-.003.002c-.094.076-.203.139-.32.185l-.008.003c-.189.056-.406.088-.63.088-.252 0-.495-.041-.722-.116l.016.005q-.723-.211-.352-.773c.172.014.331.047.483.098l-.014-.004c.207.049.448.083.695.094h.008c.201-.021.379-.106.516-.235zm1.265 3.281c.044.109.077.235.093.367l.001.008c.019.158.069.3.143.427l-.003-.005c.078.101.194.171.326.187h.002c.088.014.189.022.293.022.283 0 .551-.06.794-.168l-.012.005c.42-.122.78-.265 1.123-.436l-.038.017.563-.281c.102-.139.164-.315.164-.504 0-.071-.009-.139-.025-.205l.001.006c-.086-.205-.213-.378-.373-.514l-.002-.002-.328-.38c-.398-.445-.77-.934-1.101-1.451l-.027-.046c-.311-.524-.501-1.152-.516-1.824v-.004q.281-.187.375.328v.14c.618 1.13 1.351 2.102 2.203 2.953l.516.516c.002.027.003.06.003.092 0 .223-.053.433-.147.619l.004-.008c-.049.124-.082.267-.094.417v.005c-.471.32-1.01.618-1.576.865l-.065.025c-.479.199-1.034.315-1.617.315-.19 0-.377-.012-.56-.036l.022.002c-.192-.171-.321-.408-.351-.675v-.005c-.01-.051-.016-.11-.016-.171 0-.231.086-.442.227-.603l-.001.001zm-9.422-.422c-.168-.115-.297-.274-.372-.462l-.002-.007q-.187-.516-.446-.539t-.352.446c-.044.189-.069.406-.069.629 0 .125.008.249.023.37l-.001-.014v.234c-.204-.216-.329-.509-.329-.83 0-.013 0-.027.001-.04v.002c-.01-.074-.015-.159-.015-.245 0-.276.057-.538.161-.775l-.005.013q-.187-.094-.469.14l-.14.14q.094-.75.68-.843c.047-.007.101-.011.156-.011.361 0 .68.179.873.454l.002.003c.199.248.32.566.32.913 0 .151-.023.296-.065.433l.003-.01zm14.015 1.359c-.255.488-.569.905-.939 1.265l-.001.001c-.417.39-.974.636-1.587.656h-.004c-.016-.134-.026-.288-.026-.445s.009-.312.027-.464l-.002.018c.396-.074.742-.171 1.075-.296l-.044.014c.325-.128.603-.27.865-.434l-.021.012zm-6.654.563c.851.327 1.835.517 2.864.517.312 0 .62-.017.923-.051l-.037.003c.031.201.049.433.049.67 0 .044-.001.088-.002.132v-.006.14c-.107.006-.233.009-.359.009-.707 0-1.388-.106-2.03-.304l.049.013c-.654-.111-1.188-.536-1.45-1.111l-.005-.012zm4.312 2.203c-.051.233-.208.421-.417.514l-.005.002c-.418.138-.9.222-1.4.234h-.006c-.094.01-.204.016-.314.016-.445 0-.869-.092-1.253-.258l.021.008c-.35-.261-.646-.572-.882-.927l-.009-.014-.189-.279-.137-.14c-.112-.093-.199-.211-.255-.346l-.002-.006q-.023-.117.399-.117c.299.652.905 1.117 1.627 1.215l.011.001c.523.073 1.128.115 1.742.115.261 0 .521-.008.778-.022l-.036.002z"/></svg>