<!--Generated by Fontisto--><svg viewBox="0 0 18 24" xmlns="http://www.w3.org/2000/svg"><path d="m17.97 5.826c-.077-.062-.177-.1-.285-.1-.005 0-.01 0-.015 0h.001c-.062.002-.121.011-.177.027l.005-.001c-.86.342-1.909.665-2.988.911l-.151.029c-.199.05-.357.191-.43.374l-.001.004c-.722 1.965-2.557 3.844-4.48 5.811-.089.101-.216.166-.359.172h-.001c-.145 0-.275-.066-.361-.169l-.001-.001c-1.928-1.97-3.762-3.833-4.488-5.813-.079-.185-.236-.324-.429-.375l-.004-.001c-1.245-.293-2.292-.62-3.307-1.011l.172.058c-.044-.02-.095-.031-.149-.031-.01 0-.019 0-.028.001h.001c-.003 0-.006 0-.009 0-.11 0-.211.038-.292.101l.001-.001c-.117.094-.192.237-.192.397 0 .014.001.029.002.043v-.002c.237 1.872.944 3.544 1.997 4.941l-.019-.026c1.232 1.643 2.517 3.097 3.909 4.441l.011.01c2.544 2.6 4.956 5.06 5.173 7.905.019.259.233.463.495.465h2.992c.142-.005.268-.064.361-.157.082-.09.131-.21.131-.341 0-.007 0-.014 0-.022v.001c-.186-2.217-.984-4.218-2.221-5.87l.021.03c-.29-.42-.594-.837-.925-1.244-.046-.061-.074-.138-.074-.222 0-.098.039-.188.101-.254l.3-.306c1.403-1.354 2.688-2.809 3.852-4.359l.067-.094c1.039-1.369 1.747-3.042 1.975-4.866l.005-.05c0-.007.001-.015.001-.024 0-.155-.073-.293-.186-.381l-.001-.001zm-12.113 12.017c-.083-.092-.202-.149-.334-.149-.003 0-.007 0-.01 0h.001c-.171.006-.319.097-.405.232l-.001.002c-1.112 1.554-1.835 3.455-1.993 5.514l-.002.037v.017c0 .132.05.253.132.344.085.098.21.16.349.16h.013-.001 2.992.001c.262 0 .476-.205.491-.463v-.001c.09-.995.39-1.903.855-2.704l-.017.031c.052-.096.083-.21.083-.331 0-.159-.053-.306-.143-.423l.001.002c-.659-.83-1.317-1.57-2.012-2.272l.002.002z"/><path d="m10.757 7.229c.247.005.444.206.444.454 0 .071-.016.139-.046.199l.001-.003c-.436.995-1.026 1.844-1.749 2.559l-.001.001c-.085.08-.2.129-.327.129-.007 0-.014 0-.021 0h.001c-.004 0-.009 0-.015 0-.128 0-.245-.05-.332-.13-.725-.715-1.316-1.566-1.73-2.511l-.02-.052c-.024-.054-.039-.118-.041-.184v-.001-.001c0-.25.198-.453.446-.462h.001c.216 0 .766.058 1.706.058s1.49-.058 1.677-.058zm-6.837-5.799c-.87 0-1.575.705-1.575 1.575s.705 1.575 1.575 1.575c.869 0 1.573-.703 1.575-1.572-.003-.868-.707-1.571-1.575-1.574zm10.321 0c-.87 0-1.575.705-1.575 1.575s.705 1.575 1.575 1.575 1.575-.705 1.575-1.575v-.001c-.006-.866-.708-1.567-1.575-1.57zm-5.16-1.43h-.001c-.871 0-1.577.706-1.577 1.577s.706 1.577 1.577 1.577 1.577-.706 1.577-1.577v-.001c0-.87-.706-1.576-1.576-1.576z"/></svg>