<!--Generated by Fontisto--><svg viewBox="0 0 24 24" xmlns="http://www.w3.org/2000/svg"><path d="m.054 3.215c0-.016 0-.036 0-.055 0-.871.359-1.658.937-2.221l.001-.001c.554-.578 1.333-.938 2.196-.938h.029-.001c.019 0 .041-.001.064-.001.789 0 1.509.295 2.055.78l-.003-.003c.558.479.952 1.135 1.095 1.881l.003.021c.358-.091.77-.143 1.194-.143.53 0 1.041.081 1.521.233l-.036-.01c.971.311 1.8.837 2.462 1.524l.002.002-2.357 2.357c-.406-.433-.971-.714-1.601-.749h-.006c-.008 0-.017 0-.026 0-.53 0-1.007.227-1.339.588l-.001.001c-.346.352-.56.835-.56 1.368v.027-.001.03c0 .527.204 1.007.537 1.364l-.001-.001 5.36 5.36-2.362 2.355-5.36-5.36c-.685-.644-1.177-1.485-1.387-2.432l-.006-.031c-.094-.394-.149-.847-.149-1.312 0-.543.074-1.069.212-1.568l-.01.041c-.725-.144-1.34-.54-1.763-1.091l-.005-.007c-.432-.536-.694-1.225-.694-1.975 0-.011 0-.022 0-.033v.002zm6.906 6.216.8-.75 4.56-4.555c.64-.683 1.469-1.182 2.404-1.413l.034-.007c.407-.107.874-.168 1.356-.168.518 0 1.02.071 1.496.204l-.039-.009c.115-.778.504-1.449 1.065-1.924l.005-.004c.557-.497 1.296-.801 2.106-.801.022 0 .045 0 .067.001h-.003.015c.858 0 1.633.36 2.181.936l.001.001c.579.564.938 1.351.938 2.222 0 .019 0 .039-.001.058v-.003c0 .018.001.039.001.06 0 .794-.304 1.516-.802 2.058l.002-.002c-.505.564-1.189.958-1.962 1.095l-.021.003c.145.443.228.954.228 1.484 0 .463-.064.911-.183 1.336l.008-.035c-.305 1.032-.842 1.915-1.553 2.624l-2.411-2.413c.461-.372.763-.924.8-1.548v-.006c0-.004 0-.01 0-.015 0-.542-.226-1.03-.589-1.377l-.001-.001c-.347-.364-.836-.59-1.378-.59-.005 0-.01 0-.016 0h.001c-.004 0-.01 0-.015 0-.542 0-1.03.226-1.377.589l-.001.001-5.36 5.36zm14.253 8.194c.795.102 1.485.484 1.983 1.042l.003.003c.496.539.801 1.262.801 2.056 0 .023 0 .045-.001.067v-.003.055c0 .871-.359 1.658-.937 2.221l-.001.001c-.564.579-1.351.938-2.222.938-.019 0-.039 0-.058-.001h.003c-.005 0-.011 0-.017 0-.769 0-1.474-.272-2.025-.724l.006.004c-.578-.449-.986-1.095-1.122-1.836l-.003-.019c-.461.145-.991.229-1.541.229-.481 0-.946-.064-1.389-.184l.037.009c-1.029-.261-1.906-.808-2.567-1.55l-.004-.005 2.357-2.41c.372.461.924.763 1.548.8h.006.015c.542 0 1.03-.226 1.377-.589l.001-.001c.364-.347.59-.836.59-1.378 0-.005 0-.01 0-.016v.001c0-.002 0-.005 0-.008 0-.542-.226-1.03-.589-1.377l-.001-.001-5.36-5.36 2.41-2.357 5.303 5.36c.646.633 1.13 1.428 1.387 2.319l.009.038c.119.401.187.861.187 1.338s-.068.937-.196 1.372l.009-.035zm-4.5-2.835-5.304 5.299c-.64.648-1.445 1.132-2.346 1.384l-.037.009c-.405.119-.871.188-1.353.188s-.947-.068-1.388-.196l.035.009c-.133.745-.531 1.38-1.091 1.817l-.007.005c-.537.434-1.227.697-1.979.697-.01 0-.021 0-.031 0h.002c-.016 0-.036 0-.055 0-.871 0-1.658-.359-2.221-.937l-.001-.001c-.579-.564-.938-1.351-.938-2.222 0-.018 0-.036 0-.054v.003c0-.01 0-.022 0-.033 0-.752.263-1.443.702-1.985l-.005.006c.428-.558 1.042-.954 1.748-1.095l.019-.003c-.094-.383-.148-.823-.148-1.275 0-.528.074-1.039.212-1.523l-.01.039c.302-1.006.84-1.864 1.551-2.542l.002-.002 2.357 2.415c-.435.383-.717.93-.749 1.544v.005.025c0 .533.214 1.016.56 1.368.338.363.82.59 1.354.59h.041-.002c.015 0 .032.001.049.001.523 0 .992-.227 1.316-.589l.002-.002 5.36-5.36z"/></svg>