<!--Generated by Fontisto--><svg viewBox="0 0 25 24" xmlns="http://www.w3.org/2000/svg"><path d="m1.582 5.638c-2.206 3.17-1.931 7.294-.246 10.663.04.08.08.16.123.24.026.05.051.102.08.151.015.03.033.059.049.087.029.054.058.105.088.16q.08.138.16.275c.03.05.06.101.092.151q.091.147.186.292c.026.042.052.08.08.122.088.131.178.262.27.39l.008.01c.014.021.031.041.046.062.08.11.16.22.246.328l.093.118q.112.141.228.28l.087.104c.103.122.209.24.32.362l.006.006.012.013c.106.115.214.228.32.34l.103.104c.085.085.17.169.258.252.035.034.07.068.106.1.116.11.234.217.353.32.002.002.003.004.006.005.02.018.042.035.062.052q.16.137.32.271l.133.106q.132.106.267.209l.143.109c.099.073.199.145.3.214.037.026.072.052.11.08l.03.022c.096.066.194.13.291.193.042.028.08.057.126.08.15.094.302.189.456.279l.126.071c.113.066.226.13.342.192.062.034.126.066.189.098.08.043.16.086.245.127l.057.027.1.049q.192.092.388.18l.08.037q.224.098.453.189l.11.043c.141.054.284.108.427.16l.054.018c.16.055.32.106.48.156l.115.034c.128.046.292.094.461.132l.031.006c10.667 1.945 13.766-6.41 13.766-6.41-2.602 3.39-7.222 4.285-11.6 3.289-.166-.038-.326-.089-.489-.137l-.122-.037q-.24-.073-.47-.153l-.065-.023c-.139-.049-.278-.101-.414-.154l-.116-.046c-.15-.059-.3-.122-.448-.186l-.09-.04c-.127-.058-.253-.115-.378-.175l-.109-.053c-.098-.048-.195-.098-.292-.149-.065-.034-.131-.066-.195-.102-.118-.063-.234-.13-.35-.197l-.118-.066c-.154-.09-.306-.185-.456-.279-.042-.026-.08-.054-.123-.08-.109-.07-.218-.142-.325-.216-.035-.023-.07-.05-.105-.074q-.155-.109-.307-.222c-.046-.034-.091-.069-.136-.103-.093-.071-.186-.142-.277-.217l-.123-.099c-.116-.096-.231-.191-.345-.29l-.038-.032c-.122-.108-.24-.218-.362-.33l-.102-.098q-.133-.126-.26-.255l-.102-.102q-.16-.167-.32-.338l-.016-.017c-.11-.121-.218-.244-.324-.369l-.083-.102c-.08-.095-.16-.191-.233-.288-.029-.034-.058-.07-.086-.106-.092-.119-.182-.24-.27-.358-2.43-3.314-3.303-7.886-1.36-11.64z"/><path d="m8.429 2.966c-.754 1.166-1.202 2.592-1.202 4.121 0 1.347.347 2.613.958 3.714l-.02-.039c.235.457.469.843.727 1.21l-.022-.032c.244.387.515.723.82 1.024l.001.001c.115.126.235.25.358.371.031.032.062.062.094.094.119.115.24.229.366.339.005.004.01.01.015.013.138.122.282.24.427.353l.097.076c.146.112.294.222.446.326l.013.01c.067.046.136.09.204.134.033.022.064.044.097.064.109.07.219.138.331.203l.046.027c.097.056.194.11.293.16.034.019.069.036.104.054.068.035.136.071.205.106l.03.014c.141.07.282.136.427.199.031.014.062.026.094.039.115.049.233.097.35.142l.15.055c.106.039.214.076.32.112l.146.046c.126.048.281.094.441.13l.024.004c8.236 1.365 10.138-4.977 10.138-4.977-1.714 2.468-5.034 3.646-8.575 2.727-.16-.042-.312-.086-.466-.135-.047-.014-.094-.03-.14-.046-.11-.035-.218-.074-.326-.113l-.147-.054c-.118-.046-.235-.093-.351-.142-.032-.014-.064-.026-.094-.04-.146-.063-.289-.13-.43-.199-.073-.036-.144-.074-.215-.11l-.124-.064q-.138-.075-.273-.154c-.021-.012-.043-.024-.065-.037q-.167-.098-.33-.202c-.034-.022-.066-.045-.099-.066-.072-.046-.143-.094-.214-.142-.152-.105-.299-.214-.445-.326l-.1-.08c-1.549-1.211-2.718-2.843-3.34-4.723l-.02-.07c-.236-.694-.373-1.494-.373-2.325 0-1.338.353-2.594.972-3.679l-.019.037z"/><path d="m14.188.97c-.504.747-.804 1.668-.804 2.659 0 .715.156 1.393.436 2.002l-.012-.03c.73 1.627 2.059 2.876 3.699 3.484l.045.015c.068.026.135.048.205.071l.09.028c.078.029.176.058.276.081l.017.003c4.547.88 5.781-2.334 6.11-2.806-1.081 1.556-2.896 1.929-5.124 1.389-.176-.043-.37-.106-.539-.167-.262-.093-.474-.183-.679-.283l.039.017c-.428-.209-.795-.436-1.136-.697l.016.012c-1.994-1.513-3.232-4.4-1.931-6.749z"/></svg>