<!--Generated by Fontisto--><svg viewBox="0 0 35 24" xmlns="http://www.w3.org/2000/svg"><path d="m30.857 10.903c1.273.529 2.319 1.388 3.062 2.471l.015.023c.734 1.062 1.173 2.378 1.173 3.796 0 1.883-.774 3.585-2.02 4.806l-.001.001c-1.216 1.235-2.907 2.001-4.776 2.001-.039 0-.077 0-.116-.001h.006q-.069 0-.197-.009t-.18-.009h-20.863c-1.932-.082-3.662-.888-4.937-2.152l.001.001c-1.248-1.184-2.024-2.853-2.024-4.705 0-.036 0-.073.001-.109v.005c0-.014 0-.031 0-.048 0-1.266.351-2.451.96-3.462l-.017.03c.62-1.049 1.471-1.9 2.487-2.502l.033-.018c-.13-.414-.206-.89-.206-1.383 0-.008 0-.016 0-.024v.001c0-.021-.001-.046-.001-.071 0-1.292.539-2.459 1.404-3.287l.002-.002c.848-.858 2.025-1.39 3.326-1.39.03 0 .06 0 .09.001h-.005.03c1.104 0 2.121.374 2.93 1.003l-.011-.008c.87-1.77 2.172-3.212 3.772-4.226l.042-.025c1.556-1.011 3.46-1.612 5.503-1.612h.102-.005.057c3.805 0 7.134 2.036 8.957 5.078l.026.047c.878 1.454 1.397 3.211 1.397 5.089v.075-.004q0 .103-.009.309t-.009.308zm-22.835 4.56c-.003.055-.004.119-.004.183 0 1.249.558 2.368 1.438 3.121l.006.005c.915.759 2.101 1.22 3.395 1.22.06 0 .12-.001.18-.003h-.009.035c1.595 0 3.038-.649 4.079-1.697q-.274-.343-.814-.969l-.746-.866c-.62.665-1.493 1.087-2.464 1.114h-.005c-.017 0-.037.001-.057.001-.591 0-1.132-.218-1.546-.578l.003.002c-.406-.372-.66-.904-.66-1.496s.254-1.124.658-1.494l.002-.001c.404-.362.94-.584 1.528-.584h.043-.002c.53.001 1.029.134 1.465.368l-.017-.008c.483.255.896.569 1.249.941l.002.002q.56.583 1.114 1.286t1.183 1.406c.411.462.842.882 1.301 1.27l.019.015c.474.392 1.025.711 1.624.931l.039.012c.605.228 1.305.36 2.035.36h.047-.002c.044.001.096.002.148.002 1.283 0 2.457-.464 3.365-1.234l-.008.006c.882-.818 1.433-1.982 1.433-3.276 0-1.298-.554-2.466-1.438-3.281l-.003-.003c-.912-.759-2.095-1.219-3.385-1.219-.057 0-.115.001-.172.003h.008c-.038-.001-.083-.001-.128-.001-1.564 0-2.98.636-4.003 1.664l1.594 1.851c.612-.655 1.472-1.071 2.43-1.097h.005.026c.592 0 1.135.214 1.554.569l-.004-.003c.419.33.686.837.686 1.407v.035-.002c.001.026.002.057.002.087 0 .583-.244 1.109-.635 1.481l-.001.001c-.402.368-.939.593-1.529.593-.029 0-.057-.001-.086-.002h.004c-.519-.001-1.006-.134-1.43-.368l.015.008c-.476-.258-.883-.572-1.232-.941l-.002-.002q-.56-.583-1.12-1.286t-1.191-1.406c-.412-.462-.846-.883-1.309-1.27l-.019-.016c-.472-.388-1.02-.707-1.615-.93l-.04-.013c-.592-.228-1.277-.36-1.992-.36-.014 0-.027 0-.041 0h.002c-.045-.001-.097-.002-.15-.002-1.294 0-2.481.457-3.408 1.218l.009-.007c-.896.739-1.462 1.849-1.462 3.092 0 .056.001.111.003.166v-.008z"/></svg>