<!--Generated by Fontisto--><svg viewBox="0 0 21 24" xmlns="http://www.w3.org/2000/svg"><path d="m7.879 4.397v3.801l4.444-6.318c.471-.692 1.126-1.228 1.895-1.543l.028-.01c.42-.173.908-.273 1.419-.273.285 0 .562.031.829.09l-.025-.005c.766.173 1.429.539 1.956 1.046l-.001-.001c.662.598 1.099 1.433 1.177 2.37l.001.013c.011.105.017.227.017.351 0 .781-.247 1.505-.667 2.097l.008-.011-4.015 5.729 4.872 6.157c.459.584.736 1.329.736 2.139 0 .105-.005.208-.014.31l.001-.013c-.052.974-.461 1.844-1.096 2.49v-.001c-.497.507-1.136.875-1.851 1.039l-.025.005c-.294.073-.631.114-.978.114-.385 0-.759-.052-1.114-.148l.03.007c-.657-.172-1.214-.53-1.629-1.013l-.004-.004-5.993-7.389v4.069c.007.099.012.215.012.332 0 1.182-.43 2.264-1.141 3.099l.006-.007c-.652.666-1.56 1.078-2.564 1.078-.06 0-.119-.001-.178-.004h.008c-.063.004-.137.006-.212.006-1.101 0-2.088-.488-2.756-1.26l-.004-.005c-.654-.826-1.049-1.882-1.049-3.031 0-.073.002-.146.005-.219v.01-15.152c-.002-.051-.003-.111-.003-.171 0-1.117.395-2.142 1.054-2.943l-.006.008c.667-.76 1.64-1.238 2.725-1.238.068 0 .136.002.203.006h-.009c.045-.002.098-.003.151-.003 1.025 0 1.955.41 2.634 1.075l-.001-.001c.706.807 1.137 1.87 1.137 3.033 0 .101-.003.201-.01.301l.001-.014z"/></svg>