<!--Generated by Fontisto--><svg viewBox="0 0 35 24" xmlns="http://www.w3.org/2000/svg"><path d="m34.959 11.235h-.055q.438.384-.219.548l-4.766 1.259 4.326 5.862q.219.329.11.468c-.155.144-.337.262-.536.346l-.012.005-5.587 2.03q-5.314 1.863-5.807 2.028h-.055c-.276.138-.602.219-.946.219-.014 0-.028 0-.041 0h.002c-.353-.079-.644-.299-.815-.596l-.003-.006q-.548-.712-3.999-6.957-5.865 1.533-7.344 1.863c-.147.057-.317.09-.495.09-.597 0-1.107-.373-1.31-.899l-.003-.01-1.425-3.127q-5.533-11.888-5.807-12.6-.493-1.096.438-1.206l.712-.055q5.703-.437 6.355-.492c.033-.003.072-.004.111-.004.207 0 .404.042.584.118l-.01-.004c.168.115.305.262.407.432l.003.006 8.492 14.19 10.628-2.52-3.508-4.986q-.384-.548.493-.657l4.931-.819c.067-.015.144-.024.224-.024.116 0 .228.019.332.053l-.008-.002c.22.115.404.273.545.464l.003.004 2.136 2.63q1.753 2.185 1.918 2.35zm-19.339 3.944q.274-.055.055-.329l-7.949-13.751c-.039-.067-.11-.112-.192-.112-.009 0-.019.001-.028.002h.001l-5.807.493q-.055 0-.055.11c.001.08.021.155.056.221l-.001-.003 7.177 14.792q.055.11.11.11h.274l3.889-.935q2.41-.599 2.47-.599zm16.764 3.123-3.508-4.821c-.044-.082-.11-.147-.189-.191l-.002-.001c-.024-.005-.052-.008-.08-.008-.06 0-.118.013-.169.036l.003-.001-10.407 2.74 3.452 5.807q.165.274.274.302c.027.005.058.008.09.008.066 0 .129-.013.187-.036l-.003.001 10.244-3.508q.219-.055.219-.11c-.005-.052-.025-.099-.055-.137v.001zm.657-7.341q.438-.11.329-.274-2.689-3.342-3.013-3.78c-.064-.135-.199-.228-.356-.228-.029 0-.058.003-.085.009h.003l-3.944.712q-.219.055-.055.274l3.123 4.273q2.026-.493 3.999-.987z"/></svg>