<!--Generated by Fontisto--><svg viewBox="0 0 24 24" xmlns="http://www.w3.org/2000/svg"><path d="m22.991 10.958v.005c0 .231.091.441.24.595.178.165.418.266.681.266.031 0 .061-.001.092-.004h-.004v1.05c-.026-.002-.057-.004-.088-.004-.263 0-.503.101-.682.267l.001-.001c-.149.157-.24.37-.24.604v.015-.001q0 .356.056.975t.056 1.069c.006.058.01.125.01.193 0 .421-.137.81-.37 1.125l.004-.005c-.274.238-.635.383-1.029.383-.054 0-.107-.003-.159-.008l.007.001h-.75v-.936h.229v-.038c.022.002.047.004.073.004.174 0 .333-.066.453-.173l-.001.001c.098-.154.156-.342.156-.544 0-.039-.002-.078-.007-.117v.005l-.075-1.95c-.003-.036-.004-.078-.004-.12 0-.308.078-.597.215-.85l-.005.009c.152-.219.382-.376.649-.43l.007-.001v-.075c-.27-.054-.499-.203-.654-.41l-.002-.003c-.133-.243-.212-.532-.212-.839 0-.048.002-.096.006-.143v.006l.075-1.95c.004-.034.006-.074.006-.114 0-.199-.051-.386-.14-.548l.003.006c-.119-.109-.278-.175-.452-.175-.032 0-.064.002-.095.007h.004-.225v-.898h.75c.046-.005.099-.007.152-.007.394 0 .755.145 1.031.384l-.002-.002c.229.31.366.699.366 1.12 0 .068-.004.135-.011.201l.001-.008q0 .45-.056 1.069t-.059.994zm-3.976 1.2q1.614.525 1.614 1.801v.029c0 .54-.248 1.022-.637 1.338l-.003.002c-.447.343-1.015.549-1.63.549-.06 0-.12-.002-.179-.006h.008c-.42-.01-.818-.091-1.186-.233l.024.008c-.405-.136-.755-.341-1.053-.603l.003.003.787-1.162c.414.352.948.574 1.533.6h.005q.75 0 .75-.487 0-.225-.338-.45c-.211-.111-.46-.213-.718-.292l-.031-.008-.15-.075q-1.538-.6-1.538-1.726c0-.015-.001-.032-.001-.05 0-.518.24-.98.616-1.279l.003-.003c.418-.318.948-.51 1.522-.51.045 0 .09.001.135.004h-.006c.779.022 1.489.301 2.051.755l-.006-.005-.785 1.048c-.347-.282-.788-.461-1.27-.487h-.005q-.64 0-.64.45c.014.177.115.328.26.411l.003.001c.173.108.372.197.583.258l.017.004q.19.074.266.112zm-13.466 2.214h.225l.223 1.275c-.25.096-.54.151-.842.151-.02 0-.041 0-.061-.001h.003q-1.614 0-1.614-2.026v-5.626h-.526c-.023-.003-.05-.005-.078-.005-.167 0-.318.066-.429.174-.086.157-.137.344-.137.542 0 .04.002.08.006.118v-.005l.038 1.914c.003.042.005.091.005.141 0 .311-.076.604-.21.863l.005-.01c-.149.215-.382.363-.652.393h-.004v.075c.274.055.504.212.654.428l.002.003c.133.243.21.533.21.84 0 .042-.001.084-.004.125v-.006q0 .375-.038 1.05v.9c-.003.033-.005.071-.005.109 0 .207.05.401.139.573l-.003-.007c.107.118.26.192.432.192.026 0 .052-.002.078-.005h-.003.226v.9h-.754c-.045.005-.098.007-.151.007-.395 0-.756-.145-1.033-.386l.002.002c-.229-.31-.366-.699-.366-1.12 0-.068.004-.136.011-.202l-.001.008q0-.45.056-1.069t.056-.975c0-.007 0-.014 0-.022 0-.226-.092-.43-.24-.578-.181-.152-.416-.244-.673-.244-.034 0-.067.002-.099.005h.004v-1.05c.026.002.057.004.088.004.263 0 .503-.101.682-.267l-.001.001c.149-.154.24-.364.24-.595 0-.002 0-.004 0-.006q0-.338-.056-.975t-.056-1.085c-.006-.058-.01-.125-.01-.193 0-.421.137-.81.37-1.125l-.004.005c.274-.238.635-.383 1.029-.383.054 0 .107.003.159.008l-.007-.001h2.814v6.678c-.002.016-.002.034-.002.053 0 .12.036.231.097.324l-.001-.002c.048.063.122.104.206.106zm8.702-2.214q1.614.525 1.614 1.801v.029c0 .54-.248 1.022-.637 1.338l-.003.002c-.447.343-1.015.549-1.63.549-.06 0-.12-.002-.179-.006h.008c-.428-.005-.835-.088-1.211-.234l.024.008c-.41-.146-.765-.35-1.075-.605l.006.005.787-1.162c.414.352.948.574 1.533.6h.005q.75 0 .75-.487 0-.225-.338-.45c-.211-.111-.46-.213-.718-.292l-.031-.008-.113-.075q-1.576-.6-1.576-1.726c0-.013-.001-.027-.001-.042 0-.525.25-.991.637-1.287l.004-.003c.427-.318.965-.509 1.547-.509.043 0 .086.001.128.003h-.006c.767.018 1.466.299 2.012.755l-.005-.004-.786 1.049c-.337-.277-.764-.456-1.231-.487h-.007q-.675 0-.675.45c.001.181.107.338.26.412l.003.001c.184.111.397.201.623.259l.017.004q.186.074.261.112zm-5.814-2.588c.037-.002.081-.003.124-.003.694 0 1.316.313 1.73.806l.003.003c.411.525.658 1.194.658 1.921 0 .043-.001.087-.003.13v-.006c-.003.241-.03.474-.079.698l.004-.023v.038h-3.562c.034.388.221.726.499.958l.002.002c.241.201.553.323.894.323.051 0 .102-.003.152-.008l-.006.001c.486-.011.937-.149 1.325-.382l-.012.007.56 1.05c-.583.421-1.312.674-2.101.675-.034.001-.073.002-.113.002-.789 0-1.504-.316-2.026-.827-.524-.551-.846-1.297-.846-2.119 0-.04.001-.079.002-.118v.006c-.003-.054-.005-.118-.005-.182 0-.809.316-1.544.832-2.089l-.001.001c.49-.532 1.19-.864 1.967-.864h.005zm-1.125 2.476h2.138q0-1.162-1.013-1.162c-.285 0-.543.115-.731.3-.221.225-.366.524-.394.857z"/></svg>