<!--Generated by Fontisto--><svg viewBox="0 0 26 24" xmlns="http://www.w3.org/2000/svg"><path d="m12.171 23.999c-.007.001-.016.001-.024.001-.077 0-.149-.024-.209-.064l.001.001c-.251-.197-.159-.676-.053-1.231.078-.289.123-.62.123-.962 0-.148-.008-.294-.025-.438l.002.018c-.098-.481-.494-.846-.984-.895h-.005c-.163-.019-.299-.036-.427-.054-1.561-.221-2.972-.652-4.279-1.267l.091.038c-.695-.326-1.283-.663-1.842-1.042l.047.03c-.581-.392-1.088-.799-1.559-1.244l.006.005c-.46-.434-.877-.903-1.251-1.406l-.02-.029c-.346-.464-.664-.989-.929-1.544l-.025-.057c-.511-1.052-.809-2.288-.809-3.593 0-.734.094-1.446.272-2.125l-.013.058c.192-.734.447-1.375.77-1.974l-.023.047c.357-.661.75-1.231 1.198-1.754l-.011.013c.475-.56.987-1.059 1.543-1.506l.022-.017c.554-.446 1.175-.861 1.831-1.221l.066-.033c.612-.338 1.331-.658 2.079-.916l.099-.03c.675-.238 1.485-.446 2.318-.586l.089-.012c.777-.133 1.671-.209 2.584-.209s1.807.076 2.678.222l-.094-.013c.922.152 1.732.36 2.514.63l-.107-.032c.847.288 1.566.608 2.251.983l-.073-.037c.722.393 1.343.808 1.922 1.273l-.025-.019c.578.464 1.09.963 1.552 1.507l.013.016c.435.51.827 1.081 1.156 1.691l.026.052c.301.551.558 1.191.737 1.863l.014.061c.165.621.26 1.334.26 2.069 0 1.024-.184 2.004-.521 2.911l.019-.058c-.361.973-.838 1.815-1.427 2.565l.015-.02c-.077.111-.155.207-.239.298l.002-.002-.008.009c-.428.508-.884.963-1.377 1.377l-.017.014c-1.705 1.552-3.563 3.019-5.52 4.351l-.174.112c-.716.498-1.557 1.018-2.425 1.493l-.148.074c-.264.145-.585.296-.916.428l-.06.021c-.199.086-.431.144-.673.159h-.006zm5.983-16.742c-.369.001-.667.3-.668.668v4.958c.001.369.3.667.668.668h2.586c.369-.001.667-.3.668-.668v-.056c-.001-.369-.3-.667-.668-.668h-1.863v-1.057h1.862c.369-.001.667-.3.668-.668v-.056c-.001-.369-.3-.667-.668-.668h-1.862v-1.059h1.862c.369-.001.667-.3.668-.668v-.057c-.001-.369-.3-.667-.668-.668zm-5.971-.012c-.369.001-.667.3-.668.668v4.958c.001.369.3.667.668.668h.056c.369-.001.667-.3.668-.668v-2.966l2.434 3.325c.016.025.032.047.05.068l-.001-.001c.064.087.152.153.253.191l.004.001c.075.032.162.05.253.05h.003.056c.114 0 .222-.029.315-.08l-.004.002c.064-.029.119-.07.163-.121v-.001c.119-.12.193-.285.193-.468v-.001-4.957c0-.369-.299-.668-.668-.668h-.059c-.369.001-.667.3-.668.668v2.911l-2.414-3.241c-.117-.204-.332-.34-.58-.342zm-2.334 0c-.369.001-.667.3-.668.668v4.958c.001.369.3.667.668.668h.056c.369-.001.667-.3.668-.668v-4.958c-.001-.369-.3-.667-.668-.668zm-4.462 0c-.369.001-.667.3-.668.668v4.958c.001.369.3.667.668.668h2.584c.369-.001.667-.3.668-.668v-.05c0-.369-.299-.668-.668-.668h-1.861v-4.239c-.001-.369-.3-.667-.668-.668z"/></svg>