<!--Generated by Fontisto--><svg viewBox="0 0 25 24" xmlns="http://www.w3.org/2000/svg"><path d="m5.706 7.798v16.202h-5.395v-16.202zm.343-5.002c.001.029.002.063.002.098 0 .749-.318 1.423-.826 1.895l-.002.001c-.545.498-1.274.803-2.075.803-.049 0-.099-.001-.148-.003h.007-.033c-.041.002-.089.003-.137.003-.784 0-1.496-.306-2.025-.804l.001.001c-.504-.488-.816-1.17-.816-1.925 0-.024 0-.048.001-.073v.004c-.001-.021-.001-.045-.001-.069 0-.762.324-1.448.841-1.929l.002-.001c.544-.495 1.271-.799 2.068-.799.046 0 .091.001.137.003h-.006c.043-.002.092-.003.143-.003.785 0 1.5.303 2.034.798l-.002-.002c.515.497.835 1.193.835 1.964v.042-.002zm19.062 11.92v9.284h-5.378v-8.665c.005-.079.007-.171.007-.263 0-.896-.249-1.733-.682-2.447l.012.021c-.427-.596-1.117-.979-1.896-.979-.06 0-.12.002-.18.007h.008c-.027-.001-.058-.002-.089-.002-.62 0-1.19.213-1.641.57l.006-.004c-.453.367-.808.836-1.032 1.375l-.008.023c-.116.355-.182.763-.182 1.187 0 .048.001.096.003.144v-.007 9.042h-5.378q.033-6.523.033-10.578t-.016-4.839l-.016-.785h5.378v2.354h-.033c.214-.345.435-.644.678-.924l-.008.009c.281-.309.583-.588.908-.838l.016-.012c.404-.311.878-.555 1.392-.704l.03-.007c.538-.161 1.157-.254 1.797-.254h.079-.004c.071-.003.154-.005.237-.005 1.681 0 3.195.714 4.256 1.856l.003.004q1.702 1.856 1.702 5.436z"/></svg>