<!--Generated by Fontisto--><svg viewBox="0 0 32 24" xmlns="http://www.w3.org/2000/svg"><path d="m28.246 4.261h.055l.052.008.054.015.052.02.051.027.053.03.047.04.047.039.05.061.062.061.04.061.059.061.101.16.039.081.039.101.04.1.042.1.038.1.078.242.04.121.042.12.039.135.038.135.042.141.04.135.078.269.04.162.04.159.039.182.02.162.039.18.04.18.023.182.038.201.02.199.02.201.042.201.02.201.022.199.02.222.02.221.02.219.02.222.02.221.022.241.02.462.022.241.02.241.04.485.061.779.022.262.02.26v.522l.022.281.02.281v.538l.02.28v.822l.02.564.02.841v1.742l.02.502.04.362.062.241.058.16.063.135.079.121.061.059.061.061.059.061.083.039.12.062.12.039.135.04.191.039.26.015.362-.022h.129v3.032l-.322.039-.762.035-.821-.039-.603-.09-.463-.12-.342-.12-.319-.16-.318-.202-.28-.248-.18-.18-.183-.201-.229-.362-.202-.421-.16-.46-.11-.538-.073-.614-.018-.682v-2.608l-.02-.563v-1.164l-.02-.538v-.393l-.022-.269v-.538l-.02-.261v-.25l-.011-.26-.02-.261-.019-.241v-.242l-.02-.241-.02-.246v-.24l-.02-.242-.023-.241-.016-.241-.019-.229-.023-.229-.02-.221-.02-.227-.02-.215-.026-.219-.02-.221-.023-.202-.042-.412-.02-.19-.02-.187-.054-.369-.022-.18-.02-.182-.04-.168-.04-.178-.039-.159-.04-.162-.042-.16-.046-.135-.039-.135-.034-.135-.061-.121-.039-.135-.039-.12-.03-.121-.039-.12-.042-.121-.04-.1-.039-.102-.039-.1-.04-.079-.038-.105-.039-.081-.059-.081-.04-.061-.048-.061-.042-.059-.055-.04-.038-.039-.062-.04-.038-.02-.062-.022-.066-.016-.059-.022-.04-.02h3.394l-.069.042zm-28.235-4.261 1.573.024 1.466.035 1.306.02 1.145.04.982.039.864.039.763.04.681.039.623.062.563.059.521.062.48.059.864.121.381.082.363.079.657.164.3.081.281.081.261.101.261.079.241.1.219.102.223.1.199.1.221.1.199.121.363.242.16.118.48.363.135.121.135.135.135.121.135.135.242.269.135.141.242.269.1.135.121.141.1.16.1.135.1.16.101.162.1.16.1.162.081.16.082.16.1.16.242.48.081.162.061.159.065.162.081.182.067.159.081.182.081.16.059.16.082.182.073.182.059.16.069.18.061.162.061.179.121.363.061.18.059.182.04.18.061.182.053.182.039.179.052.182.039.182.055.18.039.18.061.182.039.16.061.182v.019l.039.162.042.171.039.18.039.182.078.205.04.182.039.179.061.162.039.18.04.16.04.182.078.32.04.162.04.16.039.162.081.32.078.32.081.32.019.162.04.135.062.3.078.269.04.135.03.135.039.135.022.135.039.135.04.135.02.135.039.135.04.121.04.135.02.12.04.121.02.121.02.12.02.121.02.101.022.121.02.114.022.101.019.1.022.105.032.1.02.1.02.101.02.092.022.081.031.1.031.082.022.087.02.081.022.081.061.242.02.061.04.069.04.121.022.059.039.062.02.059.051.101.02.051.04.082.02.039.02.04.02.039.022.04.061.061.022.02.02.022.039.022h.022l.02.02h-9.421l-.069-.02-.077-.022-.077-.019-.081-.022-.081-.02h-.022l-.07-.032-.075-.02-.077-.042-.082-.04-.059-.039-.081-.04-.061.027-.082-.04-.118-.121-.082-.061-.061-.061-.081-.059-.081-.081-.081-.075-.059-.081-.082-.073-.081-.061-.081-.081-.082-.081-.059-.081h-.083l-.079-.081-.061-.092-.073-.087-.16-.199-.079-.101-.061-.1-.083-.136-.079-.1-.082-.121-.081-.101-.081-.118-.162-.242-.082-.121-.079-.121-.082-.121-.081-.12-.081-.135-.079-.121-.062-.135-.242-.404-.082-.135-.079-.135-.162-.269-.082-.135-.071-.194-.082-.135-.079-.135-.082-.16-.081-.162-.081-.16-.082-.162-.086-.164-.082-.16-.079-.16-.081-.16-.182-.038-.066-.17-.079-.166-.082-.166-.079-.168-.086-.168-.081-.171-.081-.16-.086-.16-.081-.16-.085-.16-.081-.16-.081-.202-.081-.18-.085-.16-.085-.162-.081-.18-.085-.16-.082-.182-.081-.16-.081-.19-.162-.361-.078-.178-.079-.182-.082-.16-.079-.18-.079-.179-.079-.182-.081-.182-.081-.18-.16-.361-.081-.201-.081-.162-.079-.186-.077-.156-.081-.16-.098-.159-.09-.182-.1-.162-.081-.159-.089-.162-.082-.16-.079-.162-.087-.155-.081-.16-.074-.19-.167-.323-.081-.16-.082-.16-.199-.32-.182-.301-.078-.16-.1-.148-.102-.162-.079-.151-.082-.135-.168-.28-.1-.143-.082-.135-.078-.141-.082-.135-.081-.141-.085-.135-.089-.121-.079-.121-.1-.121-.102-.118-.079-.12-.101-.121-.118-.157-.09-.102-.093-.114-.079-.096-.078-.135-.1-.1-.089-.074-.101-.093-.083-.087-.101-.116-.175-.162-.092-.081-.09-.069-.093-.066-.094-.061-.086-.074-.097-.062-.085-.059-.1-.059-.085-.04-.092-.04-.094-.04-.096-.04-.097-.042-.079-.031-.081-.008h.011z"/></svg>