<!--Generated by Fontisto--><svg viewBox="0 0 33 24" xmlns="http://www.w3.org/2000/svg"><path d="m32.72 9.694-3.076 14.306h-6.262l3.338-15.6c.058-.168.091-.361.091-.562 0-.412-.14-.791-.376-1.092l.003.004c-.348-.384-.849-.624-1.405-.624-.053 0-.106.002-.158.006h.007-3.17l-3.826 17.868h-6.262l3.825-17.869h-5.36l-3.827 17.869h-6.262l3.825-17.869-2.865-6.131h23.92.055c1.268 0 2.471.28 3.55.781l-.052-.022c1.104.503 2.03 1.224 2.756 2.114l.011.014c.725.878 1.256 1.942 1.511 3.11l.009.049c.125.548.197 1.177.197 1.824s-.072 1.276-.208 1.881z"/></svg>