<!--Generated by Fontisto--><svg viewBox="0 0 24 24" xmlns="http://www.w3.org/2000/svg"><path d="m0 0 22.349 20.946c.096.144.153.32.153.51 0 .26-.107.495-.279.664-.176.17-.416.275-.681.275-.218 0-.42-.071-.583-.192l.003.002zm6.638 2.099 17.349 15.95c.096.144.154.321.154.511 0 .26-.107.495-.279.663-.176.17-.416.275-.68.275-.218 0-.42-.071-.582-.192l.003.002zm-4.663 4.496 17.349 15.95c.096.144.153.321.153.511 0 .26-.107.495-.278.664-.176.17-.415.274-.679.274-.218 0-.42-.072-.583-.193l.003.002zm10.273-2.692 12.128 11.145c.067.1.107.224.107.357 0 .182-.075.346-.195.464-.123.119-.29.193-.475.193-.153 0-.294-.05-.407-.135l.002.001zm-8.737 7.894 12.123 11.142c.065.1.104.222.104.353 0 .181-.074.345-.194.463-.123.119-.291.193-.476.193-.152 0-.293-.05-.406-.134l.002.001-11.153-12.018zm14.469-5.291 5.534 5.054c.033.047.053.104.053.167 0 .086-.038.164-.097.217-.062.056-.145.09-.236.09-.075 0-.145-.023-.202-.063l.001.001-5.053-5.465zm-11.679 10.83 5.53 5.055c.034.047.054.105.054.168 0 .086-.037.163-.096.216-.062.056-.144.09-.234.09-.075 0-.145-.024-.202-.064l.001.001-5.052-5.466z"/></svg>