<!--Generated by Fontisto--><svg viewBox="0 0 11 24" xmlns="http://www.w3.org/2000/svg"><path d="m10.562 9.518c-1.263-5.56-4.242-7.387-4.562-8.086-.262-.408-.508-.879-.711-1.372l-.022-.06c0 .019 0 .031-.005.049v.013.039.015.026.026.012s0 .009 0 .013v-.001.021c0 .003.001.007.001.011s0 .007-.001.011v.02.032l-.009.05v.01.006s0 .004 0 .006v.041h-.005v.016h-.036v.057h-.006v.046h-.024v.038.003s0 .002 0 .003v.01.005s0 .003 0 .005l-.023.017-.005.007v.022h-.005v.018h-.006v.045h-.006v.019h-.005v.018h-.005v.022h-.045v.015h-.005v.019h-.005v.015h-.006v.023h-.005v.006s0 0 0 0v.003s0 .002 0 .004c-.019.009-.035.021-.049.034-.003.003-.006.006-.009.01s0 0 0 0v.058h-.005v-.008h-.005v.01h-.005v.008h-.005v.022h-.061v.01h-.01v.02h-.03v.01h-.005v.006h-.01v.01h-.03v.006h-.005v.058h-.006v.01h-.005v.006h-.005v.006c-.004.006-.009.011-.014.016l-.012.01c-.014.01-.027.021-.039.032-.008.006-.015.011-.022.017l-.049.039-.074.062c-.057.047-.117.1-.186.159-.169.148-.37.338-.6.568l-.015.015c-2.234 2.374-3.637 5.553-3.729 9.059v.018c-.008.155-.013.336-.013.518 0 .22.007.439.02.656l-.001-.03v.009c.112 1.765.628 3.389 1.456 4.808l-.028-.052c.308.54.614.999.948 1.435l-.022-.03c.727.963 1.555 1.795 2.483 2.503l.031.023c.255.766.403 1.647.403 2.563 0 .076-.001.152-.003.227v-.011l.644.215c-.027-.303-.043-.655-.043-1.01 0-.533.035-1.058.102-1.572l-.006.061c.065-.257.186-.48.35-.664l-.001.002c.298-.213.559-.424.806-.651l-.006.006c.018-.019.028-.036.044-.054 2.227-2.09 3.614-5.051 3.614-8.337 0-.801-.082-1.582-.239-2.337l.013.074z"/></svg>