<!--Generated by Fontisto--><svg viewBox="0 0 24 24" xmlns="http://www.w3.org/2000/svg"><path d="m24.129 23.412-.508-.484c-.251-.331-.518-.624-.809-.891l-.005-.004q-.448-.407-.931-.774-.387-.266-1.064-.641c-.371-.167-.661-.46-.818-.824l-.004-.01-.048-.024c.212-.021.406-.06.592-.115l-.023.006.57-.157c.236-.074.509-.122.792-.133h.006c.298-.012.579-.06.847-.139l-.025.006q.194-.048.399-.109t.351-.109v-.169q-.145-.217-.351-.496c-.131-.178-.278-.333-.443-.468l-.005-.004q-.629-.556-1.303-1.076c-.396-.309-.845-.624-1.311-.916l-.068-.04c-.246-.162-.528-.312-.825-.435l-.034-.012q-.448-.182-.883-.399c-.097-.048-.21-.09-.327-.119l-.011-.002c-.117-.024-.217-.084-.29-.169l-.001-.001c-.138-.182-.259-.389-.355-.609l-.008-.02q-.145-.339-.314-.651-.363-.702-.702-1.427t-.651-1.452q-.217-.484-.399-.967c-.134-.354-.285-.657-.461-.942l.013.023c-.432-.736-.863-1.364-1.331-1.961l.028.038c-.463-.584-.943-1.106-1.459-1.59l-.008-.007c-.509-.478-1.057-.934-1.632-1.356l-.049-.035q-.896-.651-1.96-1.282c-.285-.168-.616-.305-.965-.393l-.026-.006-1.113-.278-.629-.048q-.314-.024-.629-.024c-.148-.078-.275-.171-.387-.279-.11-.105-.229-.204-.353-.295l-.01-.007c-.605-.353-1.308-.676-2.043-.93l-.085-.026c-.193-.113-.425-.179-.672-.179-.176 0-.345.034-.499.095l.009-.003c-.38.151-.67.458-.795.84l-.003.01c-.073.172-.115.371-.115.581 0 .368.13.705.347.968l-.002-.003q.544.725.834 1.14.217.291.448.605c.141.188.266.403.367.63l.008.021c.056.119.105.261.141.407l.003.016q.048.206.121.448.217.556.411 1.14c.141.425.297.785.478 1.128l-.019-.04q.145.266.291.52t.314.496c.065.098.147.179.241.242l.003.002c.099.072.164.185.169.313v.001c-.114.168-.191.369-.217.586l-.001.006c-.035.253-.085.478-.153.695l.008-.03c-.223.666-.351 1.434-.351 2.231 0 .258.013.512.04.763l-.003-.031c.06.958.349 1.838.812 2.6l-.014-.025c.197.295.408.552.641.787.168.188.412.306.684.306.152 0 .296-.037.422-.103l-.005.002c.35-.126.599-.446.617-.827v-.002c.048-.474.12-.898.219-1.312l-.013.067c.024-.063.038-.135.038-.211 0-.015-.001-.03-.002-.045v.002q-.012-.109.133-.206v.048q.145.339.302.677t.326.677c.295.449.608.841.952 1.202l-.003-.003c.345.372.721.706 1.127 1.001l.022.015c.212.162.398.337.566.528l.004.004c.158.186.347.339.56.454l.01.005v-.024h.048c-.039-.087-.102-.157-.18-.205l-.002-.001c-.079-.044-.147-.088-.211-.136l.005.003q-.217-.217-.448-.484t-.423-.508q-.508-.702-.969-1.467t-.871-1.555q-.194-.387-.375-.798t-.351-.798c-.049-.099-.083-.213-.096-.334v-.005c-.006-.115-.072-.214-.168-.265l-.002-.001c-.121.206-.255.384-.408.545l.001-.001c-.159.167-.289.364-.382.58l-.005.013c-.141.342-.244.739-.289 1.154l-.002.019q-.072.641-.145 1.318l-.048.024-.024.024c-.26-.053-.474-.219-.59-.443l-.002-.005q-.182-.351-.326-.69c-.248-.637-.402-1.374-.423-2.144v-.009c-.009-.122-.013-.265-.013-.408 0-.666.105-1.308.299-1.91l-.012.044q.072-.266.314-.896t.097-.871c-.05-.165-.143-.304-.265-.41l-.001-.001c-.122-.106-.233-.217-.335-.335l-.003-.004q-.169-.244-.326-.52t-.278-.544c-.165-.382-.334-.861-.474-1.353l-.022-.089c-.159-.565-.336-1.043-.546-1.503l.026.064c-.111-.252-.24-.47-.39-.669l.006.008q-.244-.326-.436-.617-.244-.314-.484-.605c-.163-.197-.308-.419-.426-.657l-.009-.02c-.048-.097-.09-.21-.119-.327l-.002-.011c-.011-.035-.017-.076-.017-.117 0-.082.024-.159.066-.223l-.001.002c.011-.056.037-.105.073-.145.039-.035.089-.061.143-.072h.002c.085-.055.188-.088.3-.088.084 0 .165.019.236.053l-.003-.001c.219.062.396.124.569.195l-.036-.013q.459.194.847.375c.298.142.552.292.792.459l-.018-.012q.194.121.387.266t.411.291h.339q.387 0 .822.037c.293.023.564.078.822.164l-.024-.007c.481.143.894.312 1.286.515l-.041-.019q.593.302 1.125.641c.589.367 1.098.743 1.577 1.154l-.017-.014c.5.428.954.867 1.38 1.331l.01.012c.416.454.813.947 1.176 1.464l.031.047c.334.472.671 1.018.974 1.584l.042.085c.081.154.163.343.234.536l.011.033q.097.278.217.57.266.605.57 1.221t.57 1.198l.532 1.161c.187.406.396.756.639 1.079l-.011-.015c.203.217.474.369.778.422l.008.001c.368.092.678.196.978.319l-.047-.017c.143.065.327.134.516.195l.04.011c.212.065.396.151.565.259l-.009-.005c.327.183.604.363.868.559l-.021-.015q.411.302.822.57.194.145.651.423t.484.52c-.114-.004-.249-.007-.384-.007-.492 0-.976.032-1.45.094l.056-.006c-.536.072-1.022.203-1.479.39l.04-.014c-.113.049-.248.094-.388.129l-.019.004c-.142.021-.252.135-.266.277v.001c.061.076.11.164.143.26l.002.006c.034.102.075.19.125.272l-.003-.006c.119.211.247.393.391.561l-.004-.005c.141.174.3.325.476.454l.007.005q.244.194.508.399c.161.126.343.25.532.362l.024.013c.284.174.614.34.958.479l.046.016c.374.15.695.324.993.531l-.016-.011q.291.169.58.375t.556.399c.073.072.137.152.191.239l.003.005c.091.104.217.175.36.193h.003v-.048c-.088-.067-.153-.16-.184-.267l-.001-.004c-.025-.102-.062-.191-.112-.273l.002.004zm-18.576-19.205q-.194 0-.363.012c-.115.008-.222.029-.323.063l.009-.003v.024h.048q.097.145.244.326t.266.351l.387.798.048-.024c.113-.082.2-.192.252-.321l.002-.005c.052-.139.082-.301.082-.469 0-.018 0-.036-.001-.054v.003c-.045-.044-.082-.096-.108-.154l-.001-.003-.081-.182c-.053-.084-.127-.15-.214-.192l-.003-.001c-.094-.045-.174-.102-.244-.169z"/></svg>