<!--Generated by Fontisto--><svg viewBox="0 0 13 24" xmlns="http://www.w3.org/2000/svg"><path d="m0 0 4.751 13.462v-.007l.376 1.06c2.088 5.909 3.211 9.077 3.217 9.084s.32.02.7.04c1.156.05 2.59.18 3.677.31.122.02.262.031.404.031.027 0 .053 0 .08-.001h-.004l-4.711-13.362-.436-1.23-2.423-6.851c-.46-1.3-.85-2.408-.87-2.45l-.029-.085h-4.726z"/><path d="m8.511.012-.01 5.307-.008 5.307-.437-1.232-.567 11.81c.555 1.567.852 2.4.855 2.407s.32.024.7.042c1.157.05 2.59.18 3.681.31.122.02.262.031.405.031.027 0 .053 0 .079-.001h-.004c.013-.01.02-5.421.017-12.012l-.01-11.971h-4.701zm-8.511-.012v11.992c0 6.595.007 11.997.015 12.002s.416-.03.907-.086 1.17-.13 1.51-.16c.518-.05 2.068-.15 2.248-.15.052 0 .056-.27.063-5.081l.008-5.081.38 1.06.13.376.57-11.802-.19-.546-.91-2.524h-4.732z"/></svg>