<!--Generated by Fontisto--><svg viewBox="0 0 24 24" xmlns="http://www.w3.org/2000/svg"><path d="m4.92 17.427c-.466.287-1.031.457-1.636.457-.015 0-.031 0-.046 0h.002c-1.791-.008-3.24-1.461-3.24-3.254 0-.836.315-1.598.833-2.174l-.003.003c.517-.576 1.236-.962 2.044-1.045l.014-.001c-.027-.16-.042-.344-.042-.532 0-.012 0-.023 0-.035v.002c0-.006 0-.014 0-.022 0-1.095.447-2.086 1.169-2.8.733-.714 1.736-1.155 2.842-1.155.021 0 .046-.001.07-.001.687 0 1.33.19 1.88.519l-.017-.009c.473-.762 1.098-1.387 1.837-1.845l.024-.014c.747-.452 1.65-.72 2.615-.72 1.264 0 2.421.459 3.312 1.22l-.007-.006c.903.754 1.536 1.804 1.751 2.999l.005.031h-.285c-.024-.001-.051-.001-.079-.001-.412 0-.808.071-1.175.202l.024-.008c-.895-.961-2.167-1.56-3.579-1.56-.034 0-.067 0-.101.001h.005c-.014 0-.031 0-.047 0-.662 0-1.295.121-1.879.342l.037-.012c-1.127.428-2.045 1.191-2.657 2.167l-.013.022c-.266.428-.467.926-.574 1.459l-.005.029c-.389.08-.731.188-1.056.327l.035-.013c-.515.238-.946.579-1.283.998l-.005.007c-.324.366-.58.8-.742 1.278l-.008.026c-.161.461-.255.992-.256 1.544v.001c0 .023-.001.051-.001.078 0 .571.111 1.117.312 1.617l-.01-.029-.062-.091zm16.847-3.747q2.364.586 2.225 2.781t-2.552 2.472h-12.74q-3.156-.416-3.1-3.263c.034-1.905 1.104-2.954 3.21-3.135.09-1.835 1.377-3.346 3.092-3.774l.028-.006c.353-.11.759-.173 1.179-.173 1.429 0 2.688.73 3.423 1.838l.009.015c.379-.3.863-.481 1.39-.481.092 0 .182.005.271.016l-.011-.001c.623.022 1.203.18 1.719.447l-.023-.011c.592.304 1.068.761 1.387 1.32l.009.016c.302.544.48 1.193.48 1.884v.038-.002z"/></svg>