<!--Generated by Fontisto--><svg viewBox="0 0 25 24" xmlns="http://www.w3.org/2000/svg"><path d="m25.35 10.078v3.803c-.001.296-.24.536-.535.539h-.825v-4.882h.825.006c.146 0 .278.06.372.158.097.096.158.229.158.377v.005zm-.537 4.905c.295.002.534.241.536.535v3.818.006c0 .292-.237.529-.529.529-.002 0-.005 0-.007 0h-.824v-4.892h.825zm0-10.893c.157.002.299.062.407.159h-.001c.113.09.185.227.186.381v3.805.009c0 .154-.073.292-.185.38l-.001.001c-.11.089-.252.143-.406.143h-1.365v11.73.005c0 .139-.065.264-.165.345l-.001.001c-.106.079-.24.127-.385.127h-7.092v-2.4h5.512v-1.142h-5.516v-1.348h5.512v-1.081h-5.512v-1.381h5.512v-1.064h-5.512v-1.349h5.512v-1.065h-5.512v-1.381h5.512v-1.08h-5.512v-1.35h5.512v-1.127h-5.512v-2.681h7.29c.07.038.129.085.178.142l.001.001c.097.094.162.22.18.361v.003.858h1.363zm-10.368-4.09v24l-14.445-2.494v-18.947l14.446-2.558zm-4.121 7.114-1.694.111v3.153q-.029 2.77 0 3.198l-3.378-6.16-1.724.068v8.74l1.349.106v-6.447l3.642 6.632 1.8.106v-9.507z"/></svg>