<!--Generated by Fontisto--><svg viewBox="0 0 33 24" xmlns="http://www.w3.org/2000/svg"><path d="m22.06 21.626v.002c0 1.31-1.062 2.372-2.372 2.372-.001 0-.001 0-.002 0-.01 0-.022 0-.033 0-.647 0-1.233-.266-1.653-.695-.433-.415-.703-.998-.703-1.645 0-.012 0-.025 0-.037v.002c.006-1.317 1.072-2.382 2.388-2.389h.001.035c.646 0 1.23.269 1.644.702l.001.001c.428.42.694 1.005.694 1.651v.039-.002zm-10.842 0v.035c0 .646-.269 1.23-.702 1.644l-.001.001c-.42.428-1.005.694-1.651.694-.012 0-.025 0-.037 0h.002s-.001 0-.002 0c-1.31 0-2.372-1.062-2.372-2.372 0-.001 0-.001 0-.002 0-.01 0-.022 0-.033 0-.647.266-1.233.695-1.653.415-.433.998-.703 1.645-.703h.037-.002c1.317.006 2.382 1.072 2.389 2.388v.001zm-11.218-21.626c.501.532 1.023 1.026 1.572 1.49l.028.023c.513.426 1.086.819 1.694 1.158l.058.03c.549.314 1.197.621 1.87.879l.099.033c.663.248 1.468.475 2.295.641l.105.018q1.411.29 2.895.456t3.619.268 4.4.138 5.392.036q2.012 0 3.539.072c.968.04 1.872.126 2.761.257l-.141-.017c.683.096 1.29.236 1.875.422l-.08-.022c.4.113.746.31 1.03.573l-.002-.001c.197.191.326.452.347.742v.004c-.003.345-.108.666-.286.933l.004-.006c-.253.418-.523.78-.823 1.114l.006-.007q-.514.586-1.295 1.318t-1.68 1.513-2.012 1.722q-2.678 2.273-4.14 3.575c.353-.599.72-1.116 1.126-1.598l-.014.018q.687-.839 1.36-1.527t1.368-1.426 1.2-1.325c.3-.338.561-.721.768-1.135l.014-.03c.128-.228.203-.5.203-.79 0-.079-.006-.156-.016-.232l.001.009c-.106-.35-.342-.632-.651-.797l-.007-.003c-.486-.282-1.054-.49-1.657-.59l-.029-.004c-.85-.163-1.865-.285-2.898-.338l-.055-.002q-1.84-.116-4.4-.072-2.432.029-4.546-.087t-3.706-.333c-1.142-.153-2.144-.36-3.12-.632l.16.038c-.95-.255-1.719-.511-2.469-.804l.16.055c-.682-.269-1.265-.573-1.813-.929l.039.024c-.502-.315-.934-.631-1.343-.975l.018.015c-.356-.317-.678-.656-.969-1.02l-.013-.016c-.249-.297-.49-.625-.709-.969l-.022-.038q-.24-.4-.579-.984t-.53-.862z"/></svg>