<!--Generated by Fontisto--><svg viewBox="0 0 24 24" xmlns="http://www.w3.org/2000/svg"><path d="m10.361 12.443h1.592l-.832-1.354-1.545 2.447h-.713l1.878-2.946c.049-.048.104-.091.162-.128l.004-.002c.059-.037.131-.059.208-.059h.006c.071.001.137.023.192.06l-.001-.001c.063.039.117.082.166.13l1.878 2.946h-.713l-.333-.546h-1.592zm7.271.547v-2.542h-.594v2.78.009c0 .04.009.078.025.112l-.001-.002c.019.037.043.068.071.095.017.033.045.058.079.071h.001c.038.015.081.024.127.024h.003 2.709l.333-.546zm-9.814-.476h.015c.281 0 .536-.113.722-.297.19-.177.309-.429.309-.709 0-.006 0-.011 0-.017v.001c0-.008 0-.018 0-.028 0-.283-.119-.539-.309-.72-.185-.184-.44-.297-.722-.297-.005 0-.011 0-.016 0h-2.614v3.089h.597v-2.542h1.972.015c.134 0 .254.055.341.143.088.087.143.208.143.341v.016-.001c-.001.134-.055.256-.142.345-.085.095-.209.155-.346.155-.004 0-.008 0-.011 0h-1.689l1.782 1.545h.855l-1.189-1.022zm-6.274 1.022c-.002 0-.005 0-.008 0-.42 0-.8-.173-1.072-.451-.286-.269-.463-.649-.463-1.071 0-.008 0-.016 0-.024v.001c0-.006 0-.014 0-.022 0-.422.178-.802.463-1.07l.001-.001c.273-.279.653-.451 1.073-.451h.008 1.806.025c.419 0 .797.173 1.068.451.279.271.451.649.451 1.068v.026-.001.023c0 .42-.174.799-.453 1.07-.271.279-.649.451-1.068.451-.009 0-.018 0-.026 0h.001zm1.76-.546h.024c.271 0 .516-.114.688-.297.176-.177.285-.421.285-.69 0-.004 0-.008 0-.011v.001c0-.008 0-.018 0-.027 0-.268-.109-.511-.285-.686-.175-.176-.418-.285-.686-.285-.009 0-.019 0-.028 0h.001-1.712c-.003 0-.007 0-.011 0-.269 0-.513.109-.69.285-.183.173-.297.418-.297.689v.025-.001.007c0 .273.114.519.296.694.175.183.421.297.694.297h.007zm11.287.546c-.007 0-.016 0-.025 0-.419 0-.797-.173-1.068-.451-.279-.271-.451-.649-.451-1.068 0-.009 0-.018 0-.026v.001c0-.007 0-.016 0-.025 0-.419.173-.797.451-1.068.271-.279.649-.451 1.068-.451h.026-.001 2.138l-.357.546h-1.76c-.003 0-.007 0-.011 0-.269 0-.513.109-.69.285-.183.173-.297.418-.297.689v.025-.001.007c0 .273.114.519.296.694.175.183.421.297.694.297h.007 2.16l-.357.546zm7.247-.546c-.002 0-.005 0-.008 0-.224 0-.429-.081-.588-.215l.001.001c-.166-.133-.29-.31-.355-.515l-.002-.008h2.542l.333-.546h-2.875c.065-.208.188-.381.351-.506l.002-.002c.159-.126.363-.202.584-.202h.011 1.759l.357-.546h-2.138c-.007 0-.016 0-.025 0-.419 0-.797.173-1.068.451-.279.271-.451.649-.451 1.068v.026-.001.025c0 .419.173.797.451 1.068.271.279.649.451 1.068.451h.026-.001 1.827l.357-.546z"/></svg>