<!--Generated by Fontisto--><svg viewBox="0 0 18 24" xmlns="http://www.w3.org/2000/svg"><path d="m9.5 3.109c2.45.155 4.609 1.285 6.115 3.003l.009.01c.727.836 1.31 1.821 1.695 2.9l.02.064c.309.853.488 1.837.488 2.863 0 .224-.009.447-.025.667l.002-.029c-.034.672-.144 1.303-.321 1.906l.015-.058c-.188.653-.418 1.217-.698 1.75l.024-.05c-.484.932-.972 1.722-1.511 2.472l.041-.06c-.56.787-1.138 1.478-1.766 2.122l.004-.004c-.622.637-1.285 1.227-1.988 1.768l-.044.032c-.651.499-1.388.988-2.156 1.427l-.098.052-.037.026c-.027.015-.06.024-.094.024-.005 0-.01 0-.016-.001h.001c-.065-.016-.119-.051-.159-.099v-.001c-.039-.046-.062-.106-.062-.171 0-.001 0-.002 0-.002v-.001c0-.03.004-.059.013-.086l-.001.002c.009-.024.021-.045.037-.062.255-.357.485-.763.67-1.193l.016-.042c.169-.394.298-.852.365-1.331l.003-.028c-.001-.034-.015-.064-.038-.085-.02-.023-.05-.038-.084-.038h-.001c-.264.032-.528.053-.8.062-.052.002-.112.003-.173.003-.221 0-.439-.015-.652-.043l.025.003c-2.451-.153-4.61-1.284-6.114-3.003l-.009-.01c-.728-.836-1.311-1.821-1.695-2.9l-.02-.063c-.309-.854-.488-1.84-.488-2.867 0-.223.008-.444.025-.662l-.002.029c.034-.672.144-1.303.321-1.906l-.015.058c.185-.644.415-1.201.698-1.726l-.023.046c.484-.937.974-1.732 1.518-2.486l-.04.058c.562-.787 1.14-1.478 1.765-2.123l-.004.004c.623-.637 1.286-1.226 1.989-1.767l.044-.033c.652-.5 1.388-.989 2.156-1.428l.097-.051.038-.025c.027-.017.06-.026.096-.026h.014-.001c.064.016.118.052.158.1.039.044.062.103.062.167v.008.008c0 .027-.004.053-.013.078v-.002c-.008.024-.02.044-.036.061-.256.357-.487.764-.671 1.195l-.016.042c-.168.394-.296.852-.363 1.329l-.003.029c.002.068.057.122.125.122h.001q.393-.049.8-.061c.052-.002.114-.003.176-.003.22 0 .437.014.65.041l-.025-.003zm-.807 12.368c.085.008.184.012.283.012.863 0 1.65-.329 2.24-.869l-.003.002c.681-.59 1.125-1.438 1.176-2.392v-.009c.008-.085.012-.183.012-.282 0-.868-.33-1.659-.87-2.255l.002.003c-.584-.686-1.437-1.128-2.394-1.162h-.006c-.084-.008-.183-.012-.282-.012-.868 0-1.659.329-2.255.869l.003-.003c-.686.584-1.129 1.437-1.164 2.394v.006c-.008.085-.012.184-.012.284 0 .866.326 1.656.861 2.254l-.003-.003c.585.691 1.444 1.134 2.406 1.162h.005z"/></svg>