<!--Generated by Fontisto--><svg viewBox="0 0 19 24" xmlns="http://www.w3.org/2000/svg"><path d="m16.499 3.001c.876.904 1.582 1.978 2.062 3.168l.024.066c.432 1.051.683 2.271.683 3.549 0 .087-.001.174-.003.26v-.013c-.088 1.937-.615 3.732-1.484 5.313l.032-.063c-.758 1.46-1.536 2.702-2.4 3.877l.056-.08q-1.078 1.406-2.25 2.672-2.203 2.25-3.421 2.25-1.125 0-2.909-1.594c-1.089-1.008-2.073-2.096-2.955-3.266l-.045-.062c-.853-1.091-1.633-2.32-2.287-3.624l-.057-.126c-.884-1.524-1.445-3.335-1.543-5.268l-.001-.028c0-.023 0-.049 0-.076 0-1.82.496-3.525 1.361-4.985l-.025.045c.877-1.511 2.08-2.744 3.518-3.631l.044-.025c1.372-.854 3.037-1.36 4.82-1.36h.082-.004.008c1.305 0 2.543.285 3.656.796l-.055-.022c1.211.552 2.238 1.303 3.088 2.221l.006.006zm-6.703 20.155q.656 0 2.086-1.313c1.048-.988 1.994-2.06 2.834-3.214l.046-.066c.939-1.237 1.798-2.637 2.516-4.117l.065-.149c.626-1.243 1.017-2.702 1.078-4.245l.001-.02c0-.012 0-.025 0-.039 0-1.664-.435-3.226-1.197-4.579l.024.047c-.76-1.395-1.831-2.534-3.125-3.352l-.037-.022c-1.209-.779-2.686-1.242-4.27-1.242-.006 0-.013 0-.019 0h.001c-.017 0-.038 0-.058 0-1.642 0-3.176.462-4.479 1.264l.037-.021c-1.366.825-2.464 1.967-3.214 3.329l-.023.046c-.739 1.315-1.175 2.886-1.175 4.559v.063-.003c.067 1.548.458 2.989 1.108 4.278l-.028-.06c.783 1.627 1.658 3.026 2.664 4.318l-.039-.053c.891 1.226 1.862 2.301 2.934 3.265l.019.017q1.502 1.312 2.25 1.312zm5.204-13.456v.02c0 .928-.262 1.795-.715 2.532l.012-.021c-.471.78-1.111 1.413-1.873 1.862l-.025.014c-.734.442-1.621.703-2.568.703-.012 0-.024 0-.035 0h.002c-.044.001-.096.002-.148.002-1.406 0-2.688-.534-3.653-1.409l.005.004c-.949-.84-1.577-2.025-1.687-3.357l-.001-.018c-.015-.146-.023-.315-.023-.486 0-1.225.433-2.349 1.155-3.226l-.007.009v.007c0 .579.243 1.1.632 1.469l.001.001c.374.39.899.633 1.481.633h.02-.001.028c.572 0 1.087-.243 1.448-.632l.001-.001c.377-.374.61-.891.61-1.464 0-.005 0-.009 0-.014v.001c0-.002 0-.004 0-.006 0-.419-.131-.806-.355-1.124l.004.006c-.231-.34-.54-.612-.901-.794l-.014-.006c.394-.109.847-.171 1.314-.171.701 0 1.369.141 1.977.395l-.034-.013c1.016.422 1.848 1.118 2.425 1.996l.012.02c.573.849.915 1.895.915 3.022v.05-.003z"/></svg>