<!--Generated by Fontisto--><svg viewBox="0 0 18 24" xmlns="http://www.w3.org/2000/svg"><path d="m0 8.61c0-.015 0-.033 0-.051 0-1.038.199-2.029.56-2.938l-.019.054c.363-.928.868-1.725 1.497-2.405l-.005.005c1.283-1.37 2.931-2.383 4.789-2.884l.071-.016c.871-.238 1.871-.375 2.904-.375h.011-.001.073c1.516 0 2.95.355 4.222.985l-.056-.025c1.313.646 2.39 1.596 3.169 2.762l.018.029c.768 1.135 1.226 2.535 1.226 4.041 0 .034 0 .069-.001.103v-.005.016c0 .954-.1 1.885-.29 2.782l.015-.087c-.202.965-.501 1.819-.894 2.617l.029-.064c-.396.827-.877 1.538-1.447 2.168l.007-.008c-.576.621-1.272 1.123-2.051 1.47l-.04.016c-.78.351-1.691.556-2.65.556-.027 0-.053 0-.08 0h.004c-.71-.006-1.379-.175-1.973-.473l.026.012c-.596-.264-1.073-.705-1.377-1.255l-.008-.015q-.144.56-.4 1.622t-.339 1.37q-.08.31-.296 1.024c-.112.4-.24.74-.393 1.066l.018-.042-.462.902c-.224.437-.444.804-.686 1.154l.022-.034q-.361.526-.894 1.247l-.202.072-.13-.144q-.216-2.265-.216-2.711c.013-1.062.125-2.089.328-3.083l-.018.105q.31-1.651.96-4.146t.75-2.928c-.294-.654-.466-1.418-.466-2.223 0-.076.002-.151.005-.226v.011c0-.851.279-1.636.75-2.27l-.007.01c.405-.635 1.106-1.051 1.904-1.053.027-.002.058-.002.09-.002.511 0 .969.226 1.279.584l.002.002c.306.378.492.864.492 1.394 0 .03-.001.059-.002.089v-.004c-.073 1.01-.3 1.946-.656 2.816l.022-.061c-.329.791-.555 1.707-.632 2.665l-.002.032c0 .014-.001.031-.001.048 0 .578.25 1.098.648 1.457l.002.002c.399.371.935.599 1.525.599.017 0 .033 0 .05-.001h-.002.024c.53 0 1.028-.134 1.464-.369l-.016.008c.455-.244.834-.574 1.126-.972l.006-.009c.292-.396.561-.846.787-1.32l.021-.05c.219-.455.408-.986.537-1.54l.011-.053c.106-.425.208-.968.28-1.52l.009-.08c.058-.429.092-.927.094-1.433v-.002c.005-.082.008-.177.008-.273 0-1.428-.61-2.714-1.583-3.611l-.003-.003c-1.034-.87-2.38-1.398-3.85-1.398-.094 0-.188.002-.281.006h.013c-.057-.002-.123-.003-.19-.003-1.799 0-3.431.713-4.629 1.872l.002-.002c-1.194 1.149-1.936 2.761-1.936 4.546 0 .067.001.134.003.201v-.01.012c0 .433.066.85.188 1.243l-.008-.03c.102.357.235.669.401.958l-.011-.021q.209.346.39.656c.088.125.151.273.179.433l.001.007c-.019.383-.097.742-.224 1.077l.008-.024q-.216.649-.534.649-.029 0-.245-.043c-.517-.158-.958-.438-1.304-.806l-.001-.002c-.368-.381-.666-.832-.87-1.332l-.01-.028c-.184-.439-.346-.961-.459-1.5l-.01-.058c-.099-.46-.157-.99-.159-1.533v-.002z"/></svg>