<!--Generated by Fontisto--><svg viewBox="0 0 24 24" xmlns="http://www.w3.org/2000/svg"><path d="m15.387 10.21c0-.013.001-.029.001-.045 0-.486-.204-.925-.532-1.234l-.001-.001c-.318-.314-.755-.508-1.237-.508-.008 0-.015 0-.022 0h-3.386v3.581h3.387.015c.489 0 .93-.204 1.243-.531l.001-.001c.328-.314.532-.755.532-1.244 0-.006 0-.012 0-.018v.001zm8.613 1.79c0-.023 0-.05 0-.077 0-2.185-.602-4.229-1.65-5.976l.029.053c-1.075-1.824-2.555-3.304-4.323-4.348l-.056-.031c-1.694-1.019-3.738-1.621-5.923-1.621-.027 0-.054 0-.081 0h.004c-.023 0-.05 0-.077 0-2.185 0-4.229.602-5.976 1.65l.053-.029c-1.824 1.075-3.304 2.555-4.348 4.323l-.031.056c-1.019 1.694-1.621 3.738-1.621 5.923v.081-.004.077c0 2.185.602 4.229 1.65 5.976l-.029-.053c1.075 1.824 2.555 3.304 4.323 4.348l.056.031c1.694 1.019 3.738 1.621 5.923 1.621h.081-.004.077c2.185 0 4.229-.602 5.976-1.65l-.053.029c1.824-1.075 3.304-2.555 4.348-4.323l.031-.056c1.019-1.694 1.621-3.738 1.621-5.923 0-.027 0-.054 0-.081zm-6.194-1.79v.063c0 1.143-.473 2.175-1.233 2.912l-.001.001c-.738.761-1.77 1.234-2.913 1.234-.022 0-.044 0-.066-.001h.003-3.387v3.581h-2.419v-12h5.806c.019 0 .042-.001.064-.001 1.142 0 2.174.472 2.911 1.232l.001.001c.761.738 1.234 1.77 1.234 2.913 0 .023 0 .045-.001.068v-.003z"/></svg>