<!--Generated by Fontisto--><svg viewBox="0 0 23 24" xmlns="http://www.w3.org/2000/svg"><path d="m23.254 19.014h-.053c.012.117.02.252.02.389 0 .475-.086.931-.242 1.351l.009-.027c-.235.877-.704 1.624-1.336 2.194l-.004.004c-.809.669-1.856 1.074-2.998 1.074-.076 0-.152-.002-.228-.005h.011c-.039.001-.085.002-.132.002-1.126 0-2.162-.384-2.985-1.027l.011.008c-.812-.617-1.477-1.383-1.963-2.262l-.019-.037c-.819.238-1.76.375-2.732.375-1.249 0-2.446-.226-3.55-.639l.07.023c-2.061-.718-3.776-1.992-5.017-3.642l-.019-.027c-1.305-1.668-2.093-3.796-2.093-6.108 0-.037 0-.074.001-.111v.006c-.001-.039-.001-.085-.001-.131 0-1.997.578-3.859 1.575-5.427l-.024.041c.987-1.552 2.315-2.803 3.885-3.672l.055-.028c1.479-.842 3.25-1.339 5.137-1.339h.005c1.896.002 3.675.498 5.217 1.367l-.054-.028c1.616.873 2.936 2.107 3.885 3.6l.025.042c.951 1.565 1.514 3.458 1.514 5.482v.093-.005.068c0 1.691-.395 3.289-1.099 4.707l.028-.062c-.735 1.381-1.706 2.54-2.872 3.464l-.023.017c.331.534.72.992 1.169 1.384l.007.006c.416.301.937.481 1.499.482.023.001.049.002.076.002.48 0 .912-.206 1.213-.534l.001-.001c.246-.289.403-.659.426-1.066v-.005zm-7.713-3.106c.583-1.426.922-3.08.922-4.814 0-.191-.004-.381-.012-.569l.001.027q0-4.285-1.42-6.374c-.911-1.28-2.389-2.105-4.06-2.105-.126 0-.25.005-.373.014l.016-.001c-.11-.009-.238-.014-.367-.014-1.661 0-3.129.826-4.015 2.09l-.01.016q-1.395 2.088-1.368 6.35t1.395 6.347c.882 1.279 2.34 2.107 3.99 2.107.132 0 .263-.005.392-.016l-.017.001c.032.001.069.001.107.001.594 0 1.165-.099 1.698-.28l-.037.011c-.415-.857-.897-1.595-1.459-2.263l.013.016c-.575-.624-1.394-1.017-2.304-1.027h-.002c-.016 0-.034-.001-.053-.001-.351 0-.683.08-.979.223l.013-.006-.697-1.285c.939-.77 2.153-1.236 3.475-1.236.078 0 .155.002.232.005h-.011c.057-.002.125-.003.192-.003 1.058 0 2.047.3 2.884.82l-.023-.013c.747.54 1.372 1.197 1.859 1.951l.017.028z"/></svg>