<!--Generated by Fontisto--><svg viewBox="0 0 24 24" xmlns="http://www.w3.org/2000/svg"><path d="m20.89 14.987v1.164h1.982c.627-.021 1.128-.534 1.128-1.164 0-.013 0-.025-.001-.038v.002-.45c.001-.014.001-.03.001-.047 0-.628-.502-1.139-1.127-1.153h-.001-.988v-.54h1.958v-1.162h-1.879c-.633.028-1.136.549-1.136 1.187v.03-.001.405c0 .01-.001.023-.001.035 0 .633.504 1.148 1.133 1.165h.002c1.36.006-.327 0 .934 0v.566l-2.006.006zm-10.623-.283s1.061-.097 1.061-1.55c.003-.033.004-.071.004-.109 0-.753-.557-1.375-1.281-1.478l-.008-.001h-2.314v4.585h1.164v-1.106l1.006 1.106h1.722l-1.354-1.446zm-.449-.939h-.926v-1.048h.934c.159.091.265.259.265.453 0 .024-.002.048-.005.071v-.003c.002.019.004.041.004.064 0 .198-.108.37-.268.462l-.003.001zm4.384-2.167h-1.18c-.628.027-1.127.543-1.127 1.176v.025-.001 3.36h1.182v-.8h1.11v.8h1.144v-3.36c.001-.016.001-.034.001-.052 0-.627-.503-1.137-1.128-1.147h-.001zm-.015 2.45h-1.12v-1.114s0-.25.37-.25h.406c.327 0 .334.25.334.25v1.113zm1.68-2.45h1.23v4.553h-1.23zm2.96 3.376v-3.376h-1.223v4.553h2.88v-1.177z"/><path d="m.424 16.151h4.79s-.915-4.43 2.116-6.225c.661-.341 2.764-1.614 6.208 1.086.109-.097.212-.174.212-.174s-3.153-3.337-6.663-2.964c-1.764.167-3.934 1.871-5.207 4.122-.71 1.196-1.221 2.596-1.447 4.09l-.008.064z"/><path d="m.424 16.15h4.79s-.915-4.43 2.116-6.225c.661-.341 2.764-1.614 6.208 1.086.109-.097.212-.174.212-.174s-3.153-3.336-6.663-2.963c-1.77.167-3.94 1.871-5.214 4.122-.71 1.195-1.219 2.596-1.441 4.091l-.008.063zm9.981-7.915.024-.431c-.168-.089-.363-.166-.568-.22l-.02-.005-.024.424c.2.07.394.148.588.231z"/><path d="m9.826 9.598-.024.405c.217.008.423.037.622.084l-.022-.004.024-.4c-.173-.04-.378-.07-.588-.084zm-2.242-2.006h.061l-.125-.392c-.205 0-.407.014-.605.041l.023-.003.115.379c.149-.016.322-.026.498-.026h.035-.002zm.291 2.366.139.444c.146-.079.321-.155.501-.217l.026-.008-.134-.424c-.212.066-.389.136-.559.217l.026-.011zm-2.755-1.691-.273-.444c-.151.08-.309.174-.473.277l.279.45c.16-.103.311-.2.466-.283zm1.242 2.894.291.463c.113-.171.231-.32.36-.459l-.002.002-.273-.438c-.135.131-.258.272-.369.422l-.007.009zm-.88 2.07.491.411c.028-.284.073-.54.135-.789l-.008.037-.437-.366c-.063.186-.126.424-.175.666l-.007.041zm-2.651-3.054-.431-.398c-.16.16-.309.32-.449.48l.466.424c.139-.19.274-.355.417-.514l-.005.006zm-1.831 2.874-.697-.272c-.115.277-.24.598-.303.772l.697.27c.079-.218.206-.533.303-.77zm4.395 1.814c.009.295.035.575.078.849l-.005-.039.727.277c-.054-.25-.109-.534-.146-.836l-.654-.25z"/></svg>