<!--Generated by Fontisto--><svg viewBox="0 0 25 24" xmlns="http://www.w3.org/2000/svg"><path d="m25.418 12v.03c0 .543-.156 1.05-.425 1.479l.007-.012c-.274.442-.657.792-1.112 1.021l-.016.007c.108.403.17.865.17 1.343v.018-.001c-.01 1.558-.58 2.981-1.518 4.08l.007-.009c-1.088 1.296-2.473 2.308-4.052 2.936l-.069.024c-1.635.686-3.535 1.085-5.529 1.085-.051 0-.102 0-.153-.001h.008c-.043 0-.095.001-.146.001-1.991 0-3.888-.399-5.617-1.121l.096.036c-1.645-.654-3.027-1.665-4.101-2.944l-.013-.016c-.931-1.09-1.5-2.513-1.51-4.069v-.002c0-.001 0-.003 0-.005 0-.47.056-.928.161-1.366l-.008.04c-.483-.238-.878-.593-1.156-1.029l-.007-.011c-.276-.428-.44-.951-.44-1.512 0-.777.314-1.481.823-1.991.494-.512 1.186-.83 1.952-.83h.05-.003.039c.799 0 1.519.343 2.019.889l.002.002c2.047-1.41 4.572-2.265 7.296-2.298h.008l1.646-7.39c.03-.126.107-.231.211-.296l.002-.001c.074-.052.166-.083.265-.083.037 0 .073.004.107.012l-.003-.001 5.234 1.149c.174-.353.435-.639.757-.838l.009-.005c.319-.2.707-.319 1.123-.319.585 0 1.116.235 1.501.617.385.369.624.888.624 1.463v.036-.002.03c0 .578-.239 1.1-.624 1.472l-.001.001c-.384.386-.916.624-1.504.624-.584 0-1.113-.236-1.497-.617-.381-.371-.617-.888-.617-1.461 0-.013 0-.025 0-.038v.002l-4.738-1.05-1.475 6.694c2.747.02 5.293.865 7.407 2.3l-.047-.03c.513-.534 1.234-.865 2.031-.865.78 0 1.486.317 1.997.83.509.496.825 1.189.825 1.955v.039-.002zm-19.489 2.822v.032c0 .576.236 1.097.617 1.471.369.385.888.624 1.463.624h.036-.002c1.175-.002 2.126-.953 2.128-2.128 0-.01 0-.022 0-.034 0-.575-.239-1.094-.624-1.462l-.001-.001c-.374-.381-.895-.617-1.471-.617-.011 0-.023 0-.034 0h.002c-1.163.01-2.104.95-2.114 2.113v.001zm11.489 5.036c.096-.093.156-.224.156-.369s-.06-.275-.156-.369c-.087-.088-.207-.142-.341-.142-.005 0-.01 0-.014 0h.001c-.002 0-.005 0-.008 0-.14 0-.266.054-.361.142-.464.432-1.047.742-1.694.876l-.023.004c-.681.18-1.463.284-2.27.284s-1.588-.104-2.334-.298l.064.014c-.671-.137-1.255-.448-1.721-.882l.002.002c-.094-.088-.221-.142-.361-.142-.003 0-.006 0-.008 0-.003 0-.007 0-.011 0-.133 0-.254.054-.341.142-.098.086-.16.212-.16.352v.01.004c0 .146.061.278.16.372.462.435 1.025.767 1.65.957l.03.008c.501.186 1.087.332 1.695.414l.043.005q.666.064 1.29.064t1.29-.064c.65-.086 1.237-.233 1.796-.437l-.058.019c.656-.198 1.22-.529 1.685-.966l-.002.002zm-.042-2.908h.034c.575 0 1.094-.239 1.462-.624l.001-.001c.381-.374.617-.895.617-1.471 0-.011 0-.023 0-.034v.002c-.01-1.163-.95-2.104-2.113-2.114h-.001c-.01 0-.021 0-.032 0-.576 0-1.097.236-1.471.617-.385.369-.624.888-.624 1.463v.036-.002c.002 1.175.953 2.126 2.128 2.128z"/></svg>