<!--Generated by Fontisto--><svg viewBox="0 0 25 24" xmlns="http://www.w3.org/2000/svg"><path d="m17.54 16.745c.893-.089 1.585-.837 1.585-1.746 0-.036-.001-.072-.003-.108v.005c-.047-.963-.834-1.726-1.801-1.736h-.065c-.968.036-1.739.829-1.739 1.802 0 .022 0 .044.001.067v-.003c.026.473.22.897.522 1.217l-.001-.001c-1.187 2.214-3.001 3.96-5.204 5.031l-.069.03c-1.192.66-2.614 1.048-4.127 1.048-.383 0-.761-.025-1.13-.073l.044.005c-1.361-.131-2.533-.844-3.277-1.884l-.009-.014c-.537-.755-.858-1.695-.858-2.711 0-.837.218-1.623.601-2.305l-.012.024c.547-1.036 1.293-1.898 2.194-2.562l.021-.014c-.171-.453-.324-.999-.432-1.56l-.011-.066c-4.683 3.349-4.208 7.93-2.786 10.095 1.243 1.586 3.159 2.596 5.311 2.596.098 0 .195-.002.292-.006h-.014c.035.001.077.001.119.001.647 0 1.276-.075 1.88-.216l-.056.011c4.008-.734 7.29-3.317 8.974-6.814l.032-.074z"/><path d="m23.18 12.799c-2.403-2.74-5.91-4.46-9.82-4.46-.119 0-.239.002-.357.005h.018-.538c-.283-.567-.86-.95-1.526-.95-.02 0-.039 0-.059.001h.003-.039c-.966.014-1.744.8-1.744 1.768 0 .029.001.057.002.085v-.004c.045.963.832 1.728 1.8 1.738h.079c.714-.028 1.317-.472 1.577-1.094l.004-.012h.585c2.554.003 4.924.787 6.884 2.128l-.042-.027c1.531.98 2.713 2.388 3.392 4.055l.021.058c.26.542.411 1.178.411 1.849 0 .71-.169 1.38-.47 1.972l.011-.025c-.777 1.586-2.379 2.658-4.231 2.658-.068 0-.135-.001-.202-.004h.01c-1.137-.024-2.21-.274-3.183-.707l.052.021c-.379.316-1.011.836-1.47 1.153 1.214.596 2.638.959 4.143.994h.012c.059.002.128.003.197.003 2.552 0 4.787-1.355 6.026-3.384l.018-.031c.342-.811.54-1.753.54-2.742 0-1.98-.796-3.774-2.085-5.079l.001.001-.015.032z"/><path d="m6.844 17.316c.044.964.833 1.731 1.803 1.738h.064c.968-.033 1.741-.827 1.741-1.8 0-.99-.799-1.794-1.788-1.801h-.067c-.01-.001-.022-.001-.033-.001-.073 0-.143.011-.209.033l.005-.001c-1.07-1.741-1.703-3.85-1.703-6.107 0-.364.016-.724.049-1.079l-.003.046c.091-1.906.791-3.633 1.907-5.007l-.012.016c.991-1.071 2.387-1.753 3.944-1.803h.009c3.412-.064 4.835 4.188 4.945 5.878l1.582.473c-.368-5.181-3.59-7.901-6.671-7.901-3.132.163-5.731 2.27-6.622 5.131l-.014.052c-.438 1.262-.692 2.716-.692 4.229 0 2.588.741 5.003 2.021 7.044l-.032-.055c-.143.216-.228.481-.228.766 0 .053.003.105.009.156l-.001-.006z"/></svg>