<!--Generated by Fontisto--><svg viewBox="0 0 24 24" xmlns="http://www.w3.org/2000/svg"><path d="m2.93 15.475h6.4l-3.586 6.762c-3.457-2.147-5.724-5.923-5.724-10.228 0-6.627 5.373-12 12-12 1.782 0 3.474.389 4.995 1.086l-.075-.031-11.512 11.516h10.25l-7.539 7.614 3.115-5.876h-7.454c-.202-.694-.32-1.492-.323-2.316v-.002c.006-4.708 3.824-8.523 8.533-8.523h.012-.001c.093 0 .187 0 .28.005l1.094-1.1c-.414-.062-.891-.098-1.377-.098-5.368 0-9.721 4.348-9.728 9.715v.001.039c0 1.236.235 2.417.663 3.501l-.022-.065zm15.325-13.711c3.456 2.147 5.723 5.922 5.723 10.227 0 6.627-5.373 12-12 12-1.783 0-3.476-.389-4.997-1.087l.075.031 11.43-11.513h-10.285l7.656-7.616-3.11 5.876h7.46c.192.692.308 1.489.319 2.311v.006c-.007 4.708-3.826 8.522-8.535 8.522-.004 0-.008 0-.013 0h.001c-.1 0-.21 0-.314-.006l-1.084 1.1c.429.067.923.105 1.426.105 5.363 0 9.711-4.348 9.711-9.711 0-1.255-.238-2.455-.672-3.556l.023.066h-6.394l3.581-6.756z"/></svg>