<!--Generated by Fontisto--><svg viewBox="0 0 33 24" xmlns="http://www.w3.org/2000/svg"><path d="m33.402 24h-33.375c0-.111-.018-.214-.018-.318q0-8.064-.007-16.14c-.001-.014-.002-.031-.002-.048 0-.217.106-.408.269-.526l.002-.001q4.556-3.432 9.105-6.876c.128-.098.223-.14.361 0q3.407 3.435 6.815 6.864c.01.024.019.053.024.083v.003c-.14-.061-.257-.104-.367-.153-2.822-1.256-5.651-2.505-8.468-3.772-.054-.04-.121-.065-.195-.065-.134 0-.25.081-.3.197l-.001.002q-2.338 3.389-4.696 6.759c-.062.064-.101.152-.101.248 0 .099.041.189.106.254q3.408 4.463 6.799 8.943c.061.108.175.18.306.18.078 0 .151-.026.209-.069l-.001.001c2.645-1.206 5.296-2.4 7.941-3.606.082-.044.18-.069.284-.069.117 0 .226.032.319.089l-.003-.002q7.42 3.94 14.835 7.873c.055.03.104.061.153.091.003.014.005.031.005.048v.01z"/></svg>