<!--Generated by Fontisto--><svg viewBox="0 0 24 24" xmlns="http://www.w3.org/2000/svg"><path d="m12.001 0c-6.627 0-12 5.373-12 12s5.373 12 12 12 12-5.373 12-12c0-6.627-5.373-12-12-12zm-2.128 16.736c-.016 0-.035 0-.054 0-1.34 0-2.567-.484-3.515-1.288l.008.007c-1.158-.985-1.92-2.406-2.028-4.006l-.001-.018c-.007-.101-.01-.22-.01-.339 0-1.439.55-2.749 1.45-3.732l-.004.004c1.142-1.264 3.189-3.225 3.275-3.309.247-.226.577-.365.94-.365.769 0 1.393.624 1.393 1.393 0 .386-.157.735-.411.988-.021.02-2.061 1.976-3.137 3.164-.449.489-.724 1.144-.724 1.864 0 .057.002.115.005.171v-.008c.064.841.464 1.577 1.065 2.082l.005.004c.477.376 1.087.603 1.75.603.687 0 1.317-.244 1.808-.65l-.005.004c.619-.559 1.372-1.377 1.38-1.386.254-.265.611-.429 1.006-.429.769 0 1.393.624 1.393 1.393 0 .355-.133.679-.352.925l.001-.001c-.035.035-.852.924-1.572 1.572-.961.843-2.228 1.357-3.615 1.357-.018 0-.036 0-.054 0zm8.41-.1c-1.143 1.262-3.189 3.225-3.276 3.309-.247.226-.577.365-.94.365-.769 0-1.393-.624-1.393-1.393 0-.386.157-.735.411-.988.021-.02 2.063-1.977 3.137-3.166.449-.489.724-1.144.724-1.863 0-.058-.002-.115-.005-.172v.008c-.063-.84-.464-1.576-1.065-2.08l-.005-.004c-.477-.376-1.086-.604-1.749-.604-.687 0-1.317.245-1.808.651l.005-.004c-.621.556-1.373 1.376-1.38 1.384-.255.276-.619.449-1.024.449-.769 0-1.392-.623-1.392-1.392 0-.364.14-.696.369-.944l-.001.001c.034-.037.85-.926 1.571-1.573.976-.843 2.258-1.356 3.659-1.356 1.359 0 2.606.483 3.577 1.287l-.009-.008c1.158.985 1.919 2.407 2.027 4.007l.001.018c.007.102.011.222.011.342 0 1.438-.549 2.747-1.448 3.73l.004-.004z"/></svg>