<!--Generated by Fontisto--><svg viewBox="0 0 21 24" xmlns="http://www.w3.org/2000/svg"><path d="m13.889 23.979 7.216-1.561s-2.604-17.618-2.625-17.73c-.014-.106-.103-.188-.211-.192-.1 0-1.929-.136-1.929-.136s-1.275-1.274-1.439-1.411c-.034-.031-.074-.056-.118-.073l-.003-.001-.914 21.1h.023zm-3.627-12.674c-.518-.256-1.126-.411-1.77-.424h-.004c-1.447 0-1.5.906-1.5 1.141 0 1.232 3.24 1.715 3.24 4.629 0 2.3-1.44 3.76-3.406 3.76-.04.001-.086.002-.133.002-1.341 0-2.55-.563-3.405-1.465l-.002-.002.646-2.086c.62.544 1.397.923 2.254 1.063l.026.003c.009 0 .02.001.031.001.517 0 .937-.416.944-.932v-.001c0-1.619-2.654-1.694-2.654-4.359-.038-2.235 1.567-4.416 4.823-4.416.062-.003.134-.005.206-.005.605 0 1.179.135 1.693.377l-.024-.01-.945 2.72-.02.01zm-.54-10.475c.151.001.29.051.402.136l-.002-.001c-.979.465-2.059 1.635-2.503 3.992-.656.213-1.293.405-1.889.578.522-1.785 1.773-4.695 3.992-4.695zm1.23 2.949v.135c-.754.232-1.583.484-2.394.736.214-1.287.995-2.357 2.073-2.96l.021-.011c.198.564.313 1.215.313 1.892 0 .073-.001.146-.004.218v-.01zm.539-2.234c.694.074 1.141.867 1.429 1.755-.349.114-.735.231-1.158.366v-.252c.001-.039.002-.085.002-.132 0-.621-.1-1.22-.284-1.779l.011.04zm2.992 1.289c-.02 0-.06.021-.078.021s-.289.075-.714.21c-.423-1.233-1.176-2.37-2.508-2.37h-.115c-.284-.399-.734-.665-1.247-.695h-.004c-3.106 0-4.59 3.877-5.055 5.846-1.194.365-2.063.636-2.16.674-.675.213-.694.232-.772.87-.075.462-1.83 14.063-1.83 14.063l13.561 2.547.927-21.166z"/></svg>