<!--Generated by Fontisto--><svg viewBox="0 0 30 24" xmlns="http://www.w3.org/2000/svg"><path d="m12.44 22.251c-4.898.482-9.131-1.732-9.449-4.951s3.398-6.216 8.301-6.701 9.13 1.724 9.448 4.949-3.398 6.219-8.298 6.699zm-1.291-3.818c-.334.525-.912.869-1.571.869-.245 0-.48-.048-.694-.134l.012.004c-.452-.21-.759-.661-.759-1.183 0-.294.097-.565.262-.783l-.002.003c.336-.517.911-.854 1.565-.854.231 0 .452.042.656.119l-.013-.004c.469.204.792.663.792 1.198 0 .287-.093.552-.25.767l.003-.004zm1.564-2.004c-.126.212-.354.351-.614.351-.084 0-.165-.015-.24-.041l.005.002c-.18-.072-.304-.245-.304-.447 0-.103.032-.198.087-.276l-.001.002c.121-.204.34-.338.59-.338.085 0 .167.016.242.044l-.005-.002c.183.075.31.251.31.458 0 .105-.033.203-.089.283l.001-.002zm.217-3.349c-.39-.102-.839-.161-1.301-.161-2.007 0-3.755 1.106-4.668 2.742l-.014.027c-.251.482-.399 1.052-.399 1.657 0 1.683 1.142 3.1 2.694 3.516l.025.006c.474.154 1.019.243 1.584.243 2.061 0 3.847-1.177 4.722-2.896l.014-.03c.208-.445.329-.966.329-1.515 0-1.782-1.275-3.266-2.963-3.59l-.023-.004zm9.315-1.507c-.426-.123-.702-.222-.499-.757.233-.428.371-.937.371-1.478s-.137-1.05-.379-1.494l.008.016c-.962-1.37-3.59-1.297-6.607-.037 0 0-.943.408-.703-.334.463-1.499.388-2.739-.333-3.46-1.65-1.657-5.999.046-9.718 3.784-2.774 2.796-4.386 5.756-4.386 8.311 0 4.903 6.281 7.883 12.422 7.883 8.05 0 13.41-4.68 13.41-8.4 0-2.244-1.905-3.515-3.59-4.045v.012zm2.35-6.272c-.702-.781-1.716-1.27-2.844-1.27-.284 0-.561.031-.828.09l.025-.005c-.443.094-.77.481-.77.945 0 .533.432.965.965.965.069 0 .136-.007.201-.021l-.006.001c.119-.027.255-.042.395-.042 1.027 0 1.86.833 1.86 1.86 0 .204-.033.399-.093.583l.004-.013c-.03.089-.047.192-.047.299 0 .43.281.795.669.921l.007.002c.083.025.178.039.277.039.434 0 .804-.276.943-.663l.002-.007c.118-.352.186-.757.186-1.179 0-.986-.373-1.884-.985-2.563l.003.003.037.055zm2.978-2.703c-1.439-1.597-3.515-2.596-5.824-2.596-.578 0-1.142.063-1.684.182l.052-.01c-.497.124-.86.567-.86 1.094 0 .622.504 1.126 1.126 1.126.07 0 .138-.006.204-.018l-.007.001c.352-.079.757-.125 1.172-.125 3.068 0 5.556 2.487 5.556 5.556 0 .612-.099 1.201-.282 1.752l.011-.039c-.036.105-.056.226-.056.352 0 .624.506 1.13 1.13 1.13.498 0 .921-.322 1.071-.77l.002-.008c.24-.72.378-1.548.378-2.41 0-2.03-.769-3.881-2.032-5.277l.006.007.037.055z"/></svg>