<!--Generated by Fontisto--><svg viewBox="0 0 24 24" xmlns="http://www.w3.org/2000/svg"><path d="m24.001 14.561c.001-.025.001-.055.001-.084 0-1.098-.474-2.086-1.228-2.77l-.003-.003c-.755-.709-1.774-1.144-2.895-1.144-.033 0-.066 0-.099.001h.005c-.003 0-.006 0-.01 0-.48 0-.945.064-1.387.185l.037-.009c.056-.227.088-.487.088-.754 0-.013 0-.026 0-.039v.002c.001-.038.002-.083.002-.127 0-1.389-.573-2.644-1.495-3.542l-.001-.001c-.922-.912-2.191-1.475-3.591-1.475-.051 0-.102.001-.153.002h.007c-.001 0-.002 0-.002 0-.768 0-1.5.153-2.167.431l.037-.014c-.687.275-1.268.687-1.732 1.205l-.004.004c-.135.148-.229.336-.263.543l-.001.006c-.001.008-.001.017-.001.026 0 .109.042.208.111.283.06.066.145.107.24.11.203-.052.38-.143.53-.266l-.002.002c.319-.263.679-.497 1.064-.689l.033-.015c.511-.25 1.113-.396 1.748-.396h.012-.001c.03-.001.066-.001.102-.001 1.171 0 2.235.461 3.019 1.212l-.002-.002c.787.745 1.277 1.798 1.277 2.964 0 .047-.001.095-.002.142v-.007c-.014.248-.053.481-.115.705l.005-.023c-.057.2-.096.433-.109.673v.009c.001.158.068.3.176.4.1.108.242.176.4.176.275-.027.529-.089.766-.183l-.019.007c.309-.137.667-.231 1.043-.263l.013-.001c.023-.001.049-.001.076-.001.735 0 1.395.32 1.849.829l.002.002c.423.458.682 1.073.682 1.748v.034-.002c.002.037.003.081.003.125 0 .646-.262 1.231-.685 1.655-.482.517-1.166.839-1.926.839-.049 0-.098-.001-.147-.004h.007c-1.223-.037-2.329-.514-3.169-1.278l.004.004c-.93-.874-1.78-1.807-2.553-2.802l-.041-.054q-1.318-1.626-2.066-2.418c-.726-.724-1.55-1.351-2.449-1.861l-.057-.03c-.926-.499-2.026-.791-3.195-.791-.02 0-.041 0-.061 0h.003c-.021 0-.046 0-.071 0-1.031 0-1.999.269-2.838.741l.029-.015c-.86.482-1.558 1.16-2.052 1.975l-.014.025c-.482.794-.767 1.754-.767 2.78 0 .027 0 .054.001.081v-.004c0 .026-.001.056-.001.087 0 1.012.295 1.954.804 2.746l-.012-.02c.529.816 1.24 1.472 2.08 1.92l.03.015c.811.443 1.776.703 2.802.703h.035-.002c1.114-.011 2.17-.246 3.129-.66l-.052.02c1.053-.427 1.961-.982 2.762-1.66l-.015.012.044-.044q.659-.571.659-.88c0-.005 0-.01 0-.016 0-.105-.042-.2-.11-.27-.07-.068-.165-.11-.27-.11-.006 0-.011 0-.016 0h.001q-.176 0-.615.4l-.264.22c-.644.465-1.385.853-2.18 1.125l-.06.018c-.718.267-1.547.427-2.412.439h-.005c-.058.003-.127.004-.196.004-1.189 0-2.268-.472-3.06-1.238l.001.001c-.667-.712-1.077-1.672-1.077-2.728 0-.007 0-.014 0-.021v.001c-.002-.042-.003-.092-.003-.142 0-1.002.376-1.916.995-2.609l-.003.004c.737-.762 1.77-1.236 2.913-1.236.073 0 .145.002.217.006h-.01c.985 0 1.91.261 2.708.717l-.027-.014c.815.471 1.511 1.041 2.102 1.706l.007.009q.659.703 1.89 2.264c.629.819 1.248 1.543 1.902 2.232l-.012-.012c.612.69 1.322 1.275 2.113 1.738l.041.022c.779.442 1.712.703 2.705.703h.022-.001c.027.001.059.001.09.001 1.186 0 2.263-.469 3.054-1.233l-.001.001c.8-.745 1.298-1.803 1.298-2.979 0-.036 0-.071-.001-.107v.005z"/></svg>