<!--Generated by Fontisto--><svg viewBox="0 0 24 24" xmlns="http://www.w3.org/2000/svg"><path d="m18.328 14.61c0-.012 0-.026 0-.039 0-.504-.112-.982-.314-1.41l.009.02c-.191-.417-.446-.772-.756-1.069l-.001-.001c-.329-.298-.705-.553-1.112-.753l-.029-.013c-.359-.188-.785-.368-1.227-.514l-.061-.018q-.602-.187-1.367-.359l-1.629-.374q-.469-.11-.687-.164c-.222-.059-.404-.121-.581-.192l.034.012c-.179-.06-.335-.145-.472-.252l.003.003c-.101-.093-.187-.202-.254-.321l-.003-.007c-.074-.129-.117-.284-.117-.449 0-.007 0-.014 0-.021v.001q0-1.2 2.25-1.2h.053c.41 0 .805.069 1.172.195l-.025-.008c.323.106.603.258.85.45l-.006-.005q.313.258.594.523c.182.172.387.322.609.445l.015.008c.213.118.466.187.736.187h.015-.001c.018.001.039.001.06.001.444 0 .844-.193 1.119-.5l.001-.001c.277-.308.446-.717.446-1.166 0-.012 0-.024 0-.036v.002c-.031-.647-.368-1.21-.868-1.55l-.007-.004c-.627-.48-1.37-.844-2.177-1.046l-.041-.009c-.835-.228-1.794-.359-2.784-.359-.021 0-.042 0-.063 0h.003c-.009 0-.019 0-.029 0-.722 0-1.423.088-2.093.253l.06-.012c-.707.172-1.329.424-1.902.753l.035-.019c-1.152.656-1.916 1.876-1.916 3.274 0 .033 0 .065.001.098v-.005c-.001.027-.001.06-.001.092 0 .566.109 1.106.308 1.601l-.01-.029c.196.473.495.87.87 1.176l.005.004c.361.295.773.549 1.216.744l.034.013c.451.194.989.369 1.545.496l.065.012 2.282.56c.66.128 1.247.321 1.797.58l-.046-.019c.302.184.501.511.501.886 0 .018 0 .037-.001.055v-.003c-.011.436-.258.812-.619 1.005l-.006.003c-.432.253-.951.403-1.505.403-.048 0-.095-.001-.142-.003h.007c-.018 0-.04 0-.062 0-.492 0-.962-.092-1.394-.259l.026.009c-.391-.146-.729-.35-1.02-.605l.004.003q-.383-.351-.711-.703c-.211-.227-.447-.425-.705-.593l-.015-.009c-.237-.156-.527-.25-.839-.25-.002 0-.003 0-.005 0-.031-.002-.067-.004-.104-.004-.425 0-.808.182-1.075.471l-.001.001c-.25.3-.401.689-.401 1.113 0 .021 0 .041.001.062v-.003q0 1.44 1.906 2.461c1.249.647 2.726 1.027 4.292 1.027.09 0 .179-.001.268-.004h-.013.032c.767 0 1.509-.105 2.212-.303l-.058.014c.727-.2 1.364-.486 1.944-.853l-.029.017c.578-.367 1.045-.859 1.373-1.441l.011-.02c.329-.578.523-1.269.523-2.006 0-.019 0-.037 0-.056v.003zm5.672 3.39c0 3.314-2.686 6-6 6-.013 0-.028 0-.044 0-1.369 0-2.628-.471-3.624-1.259l.012.009c-.703.156-1.512.247-2.342.25h-.002c-.009 0-.02 0-.031 0-1.533 0-2.991-.319-4.312-.894l.07.027c-2.665-1.117-4.742-3.194-5.833-5.788l-.026-.071c-.548-1.251-.867-2.709-.867-4.242 0-.011 0-.023 0-.034v.002c.003-.832.094-1.641.264-2.42l-.014.076c-.78-.984-1.251-2.244-1.251-3.613 0-.015 0-.03 0-.045v.002c0-3.314 2.686-6 6-6h.043c1.37 0 2.629.471 3.625 1.26l-.012-.009c.703-.156 1.512-.247 2.342-.25h.002.031c1.533 0 2.991.319 4.312.894l-.07-.027c2.665 1.117 4.742 3.194 5.833 5.788l.026.071c.548 1.251.867 2.709.867 4.242v.032-.002c-.003.832-.094 1.641-.263 2.42l.014-.076c.779.984 1.25 2.243 1.25 3.612v.046-.002z"/></svg>