<!--Generated by Fontisto--><svg viewBox="0 0 24 24" xmlns="http://www.w3.org/2000/svg"><path d="m21.909 11.192c.017-.001.038-.001.058-.001.559 0 1.065.223 1.435.585.37.357.599.857.599 1.411 0 .019 0 .037-.001.056v-.003c.002.031.003.067.003.103 0 .84-.563 1.548-1.332 1.769l-.013.003-2.48.851.808 2.409c.064.194.101.417.101.649v.03-.002.023c0 .567-.232 1.079-.606 1.448-.359.382-.868.62-1.432.62-.009 0-.017 0-.026 0h.001c-.004 0-.009 0-.015 0-.457 0-.88-.146-1.224-.394l.006.004c-.36-.251-.63-.608-.768-1.026l-.004-.014-.794-2.38-4.471 1.529.794 2.366c.071.202.113.435.115.677v.001.023c0 .567-.232 1.079-.606 1.448-.362.384-.874.623-1.442.623-.011 0-.021 0-.032 0h.002c-.005 0-.011 0-.018 0-.454 0-.873-.146-1.214-.394l.006.004c-.356-.253-.624-.609-.761-1.026l-.004-.014-.794-2.351-2.202.766c-.213.075-.46.121-.716.129h-.004c-.017.001-.038.001-.058.001-.548 0-1.045-.221-1.406-.578-.361-.356-.585-.851-.585-1.397 0-.021 0-.042.001-.062v.003c0-.003 0-.008 0-.012 0-.457.15-.879.404-1.219l-.004.005c.253-.353.605-.62 1.017-.76l.015-.004 2.25-.765-1.514-4.514-2.25.779c-.206.069-.443.111-.69.115h-.002c-.014 0-.031.001-.047.001-.551 0-1.049-.223-1.41-.585-.371-.357-.601-.857-.601-1.411 0-.014 0-.027 0-.041v.002c0-.003 0-.008 0-.012 0-.457.15-.879.404-1.219l-.004.005c.253-.353.605-.62 1.017-.76l.015-.004 2.261-.762-.764-2.295c-.071-.202-.113-.435-.115-.677v-.001c0-.01 0-.021 0-.033 0-.566.232-1.077.606-1.445.363-.378.873-.613 1.437-.613h.036-.002.018c.454 0 .873.146 1.214.394l-.006-.004c.356.253.624.609.761 1.026l.004.014.779 2.308 4.471-1.514-.779-2.308c-.071-.202-.113-.435-.115-.677v-.001c0-.007 0-.015 0-.024 0-.569.235-1.082.612-1.45.363-.382.875-.62 1.442-.62h.023-.001c.923.002 1.707.591 2 1.413l.005.015.765 2.32 2.336-.788c.185-.055.397-.086.617-.086h.003.042c.556 0 1.062.217 1.437.571l-.001-.001c.377.342.613.833.613 1.38v.043-.002.002c0 .449-.164.859-.435 1.175l.002-.002c-.275.337-.636.594-1.051.737l-.016.005-2.265.779 1.514 4.56 2.366-.808c.197-.072.425-.116.662-.121h.002zm-11.452 3.779 4.471-1.514-1.514-4.543-4.471 1.543z"/></svg>