<!--Generated by Fontisto--><svg viewBox="0 0 24 24" xmlns="http://www.w3.org/2000/svg"><path d="m0 0v24h24v-24zm14.176 15.794c-.587.54-1.373.871-2.237.871-.026 0-.051 0-.077-.001h.004c-.04.001-.086.001-.133.001-.788 0-1.541-.15-2.232-.422l.041.014c-.646-.27-.976-.525-.976-.78l-.076.1c.034-.223.12-.422.246-.588l-.002.003q.245-.39.44-.39c.121.058.224.12.321.189l-.007-.005c.24.144.517.271.809.364l.028.008c.367.118.789.186 1.227.186.032 0 .063 0 .095-.001h-.005c.024.001.051.002.079.002.458 0 .876-.167 1.198-.444l-.002.002c.306-.277.497-.676.497-1.119 0-.025-.001-.049-.002-.074v.003c.001-.025.002-.054.002-.084 0-.422-.167-.805-.439-1.087-.489-.374-1.075-.649-1.712-.785l-.028-.005c-.73-.171-1.367-.5-1.896-.951l.006.005c-.368-.414-.594-.963-.594-1.565 0-.066.003-.132.008-.197l-.001.009c0-.011 0-.024 0-.037 0-.772.348-1.462.896-1.922l.004-.003c.581-.496 1.341-.797 2.172-.797.059 0 .118.002.177.005h-.008c.04-.001.087-.002.134-.002.59 0 1.158.094 1.69.267l-.039-.011c.524.165.78.36.78.555-.021.242-.103.462-.229.649l.003-.005c-.15.27-.285.39-.39.39-.017 0-.09-.045-.257-.12-.414-.227-.907-.36-1.431-.36-.019 0-.037 0-.056 0h.003c-.04-.003-.088-.004-.135-.004-.428 0-.828.125-1.163.339l.009-.005c-.274.195-.45.51-.45.868v.018-.001c-.001.014-.001.03-.001.046 0 .317.132.604.345.807.331.257.722.453 1.147.565l.023.005c.96.225 1.798.653 2.5 1.238l-.01-.008c.415.486.668 1.123.668 1.818 0 .073-.003.145-.008.217l.001-.01c.001.028.001.06.001.092 0 .85-.37 1.614-.957 2.139l-.003.002z"/></svg>