<!--Generated by Fontisto--><svg viewBox="0 0 26 24" xmlns="http://www.w3.org/2000/svg"><path d="m13.015 0c.043-.001.094-.002.145-.002 1.344 0 2.595.4 3.64 1.087l-.025-.015c1.808 1.104 2.997 3.066 2.997 5.306 0 .175-.007.349-.022.521l.001-.022q0 .734-.141 2.984c.127.067.277.108.437.11h.001c.295-.024.566-.099.814-.217l-.014.006c.234-.112.505-.188.792-.211l.008-.001c.328.004.631.109.88.285l-.005-.003c.252.146.419.413.422.72-.008.358-.201.669-.487.841l-.005.003c-.308.218-.668.387-1.056.487l-.023.005c-.409.103-.768.259-1.095.462l.016-.009c-.281.138-.475.416-.492.74v.002c.022.248.089.476.192.683l-.005-.011c.417.905.954 1.68 1.602 2.346l-.002-.002c.623.661 1.374 1.195 2.214 1.562l.043.017c.353.143.772.268 1.205.352l.044.007c.249.033.44.244.44.5 0 .017-.001.033-.002.049v-.002q0 1.094-3.422 1.61c-.091.177-.153.384-.172.603v.006c-.032.27-.11.516-.224.739l.006-.012c-.092.174-.272.29-.479.29-.013 0-.026 0-.039-.001h.002c-.352-.013-.686-.049-1.012-.108l.043.006c-.293-.054-.638-.09-.989-.101h-.011c-.021 0-.046 0-.071 0-.317 0-.628.029-.929.085l.031-.005c-.37.062-.7.185-.998.359l.014-.007c-.348.197-.644.393-.926.608l.02-.014q-.422.32-.906.633c-.342.215-.736.394-1.154.515l-.033.008c-.447.134-.96.211-1.492.211-.02 0-.039 0-.058 0h.003c-.013 0-.029 0-.044 0-.522 0-1.025-.077-1.5-.221l.037.01c-.446-.129-.835-.308-1.19-.534l.018.011q-.48-.313-.898-.633c-.262-.2-.558-.397-.867-.573l-.039-.021c-.281-.166-.609-.288-.958-.349l-.017-.002c-.277-.051-.595-.08-.92-.08-.023 0-.045 0-.068 0h.003c-.369.011-.721.053-1.063.124l.04-.007c-.266.058-.579.1-.9.116l-.015.001c-.015.001-.033.002-.051.002-.212 0-.397-.116-.494-.288l-.001-.003c-.11-.216-.188-.467-.217-.732l-.001-.01c-.018-.231-.08-.443-.176-.635l.004.01q-3.421-.517-3.421-1.61c-.001-.014-.002-.031-.002-.047 0-.256.19-.467.437-.5h.003c.477-.092.896-.216 1.297-.376l-.047.017c.885-.381 1.636-.915 2.254-1.575l.003-.004c.649-.663 1.186-1.438 1.579-2.293l.021-.051c.099-.196.165-.424.187-.665l.001-.007c-.017-.326-.211-.604-.487-.74l-.005-.002c-.312-.195-.674-.353-1.058-.455l-.028-.006c-.413-.109-.775-.278-1.097-.5l.012.008c-.288-.167-.482-.47-.492-.819v-.001c.005-.3.165-.561.403-.709l.004-.002c.237-.178.535-.286.859-.289h.001c.277.029.531.101.764.209l-.015-.006c.243.111.524.184.821.203h.007.02c.175 0 .34-.041.486-.113l-.006.003q-.141-2.218-.141-2.969c-.007-.115-.011-.25-.011-.385 0-.871.158-1.706.448-2.476l-.016.048c.563-1.307 1.492-2.367 2.658-3.077l.029-.017c1.151-.621 2.519-.985 3.973-.985.054 0 .108.001.162.002h-.008z"/></svg>