<!--Generated by Fontisto--><svg viewBox="0 0 31 24" xmlns="http://www.w3.org/2000/svg"><path d="m11.408 18.708.209-3.138-.209-6.81c-.007-.086-.043-.162-.097-.221-.052-.056-.125-.091-.207-.091-.003 0-.007 0-.01 0-.082 0-.157.035-.209.091-.053.054-.085.128-.085.21v.011-.001l-.182 6.81.182 3.138c.006.084.042.159.097.215.05.053.122.086.201.086h.001c.009.001.019.001.029.001.158 0 .286-.128.286-.286 0-.006 0-.012-.001-.018v.001zm3.855-.378.143-2.747-.156-7.63c0-.005 0-.01 0-.016 0-.126-.067-.235-.168-.295l-.002-.001c-.058-.041-.13-.066-.208-.066s-.15.025-.209.067l.001-.001c-.102.061-.17.171-.17.296v.017-.001l-.013.078-.131 7.54q0 .013.143 3.073v.013.008c0 .081.03.156.078.213.068.087.174.143.292.143h.009c.104-.002.196-.048.26-.12.074-.057.12-.146.12-.246 0-.005 0-.01 0-.016v.001zm-13.607-4.427.264 1.667-.264 1.64q-.026.12-.12.12t-.12-.12l-.216-1.64.221-1.667q.026-.12.12-.12t.115.12zm1.12-1.028.338 2.695-.338 2.64c-.004.067-.059.12-.127.12-.001 0-.003 0-.004 0q-.12 0-.12-.13l-.3-2.63.3-2.695c-.001-.006-.002-.012-.002-.018 0-.057.046-.103.103-.103.007 0 .013.001.019.002h-.001.004c.068 0 .123.053.127.12zm1.197-.496.325 3.19-.325 3.086c.001.005.001.011.001.017 0 .07-.057.127-.127.127-.006 0-.012 0-.017-.001h.001c-.002 0-.005 0-.007 0-.08 0-.145-.063-.149-.143l-.274-3.086.274-3.19q.026-.156.156-.156t.143.157zm1.224-.091.3 3.281-.3 3.178c-.003.094-.079.169-.174.169-.003 0-.006 0-.009 0-.006.001-.013.001-.021.001-.083 0-.15-.067-.15-.15 0-.007.001-.014.002-.021v.001l-.274-3.178.274-3.281c-.001-.006-.001-.013-.001-.021 0-.083.067-.15.15-.15.007 0 .014.001.021.002h-.001.008c.094 0 .171.075.174.169zm1.224.24.274 3.047-.274 3.203q-.026.209-.209.209s0 0-.001 0c-.054 0-.102-.023-.136-.059-.036-.037-.059-.087-.059-.143 0-.002 0-.005 0-.007l-.257-3.208.26-3.047c.003-.107.089-.193.195-.196.004 0 .009-.001.014-.001.107 0 .194.087.194.194v.002zm1.224-1.906.274 4.948-.274 3.203c0 .063-.025.121-.065.163-.038.044-.093.072-.156.072q-.209 0-.24-.24l-.24-3.203.24-4.948q.026-.24.24-.24c.062 0 .118.028.155.072.04.043.065.101.065.164v.009zm1.224-1.119.251 6.097-.247 3.178c-.009.133-.119.237-.254.237s-.244-.104-.254-.236v-.001l-.212-3.178.209-6.094c0-.005-.001-.011-.001-.017 0-.141.114-.254.254-.254s.254.114.254.254c0 .006 0 .012-.001.018v-.001zm1.276-.521.24 6.588-.24 3.151v.012c0 .145-.118.263-.263.263-.009 0-.017 0-.025-.001h.001q-.247 0-.274-.274l-.209-3.151.209-6.588c0-.001 0-.001 0-.002 0-.078.033-.149.085-.199.047-.052.114-.085.188-.086h.005c.076 0 .144.033.191.086.05.053.083.123.091.2v.001zm2.527-.053.196 6.641-.196 3.112c-.005.178-.147.321-.325.325-.001 0-.003 0-.005 0-.085 0-.161-.035-.216-.091-.061-.062-.1-.146-.104-.239v-.001l-.182-3.112.182-6.641c0-.005 0-.01 0-.016 0-.088.037-.168.097-.224.059-.057.139-.091.228-.091s.169.035.228.092c.06.056.098.136.098.224v.017-.001zm1.289.247.182 6.407-.182 3.073v.001c0 .194-.157.35-.35.35-.098 0-.186-.04-.25-.104-.066-.063-.111-.149-.12-.246v-.002l-.156-3.073.156-6.407c.007-.103.052-.193.12-.26.062-.064.148-.104.244-.104h.003.005c.093 0 .177.04.235.104.064.069.105.159.11.259v.001zm2.76 6.407-.182 3.008c0 .223-.181.404-.404.404-.111 0-.212-.045-.286-.118-.075-.074-.124-.174-.131-.286v-.001l-.078-1.484-.078-1.524.156-8.28v-.04c.013-.124.07-.233.156-.312.07-.057.161-.091.259-.091h.001c.074 0 .142.024.196.065l-.001-.001c.119.07.2.194.209.337v.001zm14.479-.247c-.004 2.029-1.65 3.672-3.679 3.672-.002 0-.004 0-.006 0h-10.234c-.113-.016-.212-.068-.287-.143-.074-.071-.12-.171-.12-.282 0-.002 0-.003 0-.005v-11.706q0-.3.36-.43c.701-.282 1.514-.445 2.365-.445 1.7 0 3.247.652 4.406 1.719l-.005-.004c1.175 1.052 1.95 2.529 2.082 4.188l.001.022c.421-.181.912-.287 1.427-.287 2.038 0 3.69 1.652 3.69 3.69v.009z"/></svg>