<!--Generated by Fontisto--><svg viewBox="0 0 24 24" xmlns="http://www.w3.org/2000/svg"><path d="m12 0c-.023 0-.051 0-.079 0-1.66 0-3.239.349-4.667.978l.074-.029c-1.478.643-2.741 1.51-3.808 2.574-1.063 1.066-1.93 2.329-2.542 3.728l-.031.079c-.599 1.353-.947 2.93-.947 4.589v.086-.004.079c0 1.66.349 3.239.978 4.667l-.029-.074c.643 1.478 1.509 2.74 2.572 3.807 1.067 1.063 2.329 1.93 3.729 2.542l.079.031c1.354.6 2.933.949 4.593.949h.083-.004.079c1.66 0 3.239-.349 4.667-.978l-.074.029c1.479-.643 2.742-1.51 3.809-2.573 1.063-1.066 1.93-2.329 2.542-3.728l.031-.079c.6-1.354.949-2.932.949-4.593 0-.028 0-.055 0-.083v.004c0-.023 0-.051 0-.079 0-1.66-.349-3.239-.978-4.667l.029.074c-.643-1.477-1.51-2.739-2.573-3.806-1.066-1.063-2.329-1.93-3.728-2.542l-.079-.031c-1.354-.6-2.934-.95-4.595-.95-.028 0-.055 0-.083 0h.004zm.64 22.79v-2.087l5.193-2.633c.063-.031.114-.075.154-.129l.001-.001c.037-.053.059-.12.059-.191 0-.004 0-.007 0-.011v.001-1.186c.225-.082.412-.226.543-.412l.002-.004c.133-.179.214-.404.214-.648 0-.001 0-.002 0-.004v-.114c-.026-.297-.162-.558-.366-.746l-.001-.001c-.195-.184-.459-.297-.75-.297-.007 0-.015 0-.022 0h.001c-.006 0-.013 0-.02 0-.308 0-.587.127-.786.332-.205.2-.332.478-.332.787v.021-.001.059c.002.03.011.057.024.081v-.001c.013.222.096.423.227.583l-.001-.002c.133.163.304.289.501.364l.008.003v.949l-4.649 2.372v-1.942l2.039-.949c.065-.033.121-.077.166-.13l.001-.001c.044-.052.071-.12.071-.194 0-.003 0-.005 0-.008v-3.225l3.793-2.134c.062-.031.111-.08.142-.141l.001-.002c.029-.055.047-.12.047-.189v-.901c.223-.079.409-.218.543-.397l.002-.003c.133-.177.214-.401.214-.644 0-.007 0-.014 0-.021v.001c0-.006 0-.013 0-.02 0-.308-.127-.587-.332-.786-.195-.205-.47-.332-.775-.332-.003 0-.005 0-.008 0h-.144c-.285.029-.534.164-.71.366l-.001.001c-.177.197-.285.459-.285.746v.025-.001.02c0 .243.08.466.216.646l-.002-.003c.137.182.322.321.538.397l.008.003v.688l-3.818 2.134c-.051.036-.095.079-.129.129l-.001.002c-.034.052-.055.116-.055.184v.017-.001 3.2l-1.52.711v-6.972l3.2-1.566c.064-.033.117-.081.153-.141l.001-.002c.036-.053.058-.119.059-.189v-1.21c.223-.079.409-.218.543-.397l.002-.003c.133-.177.214-.401.214-.644 0-.007 0-.014 0-.021v.001-.059c0-.001 0-.001 0-.002 0-.022-.009-.043-.024-.057-.031-.287-.166-.539-.366-.719l-.001-.001c-.191-.184-.451-.297-.738-.297-.003 0-.007 0-.01 0h-.118c-.289.032-.541.172-.719.378l-.001.001c-.184.197-.297.463-.297.754v.005.118c.032.227.12.428.251.596l-.002-.003c.127.167.301.291.502.354l.007.002v.972l-2.656 1.304v-4.034c.225-.082.412-.226.543-.412l.002-.004c.133-.179.214-.404.214-.648 0-.001 0-.002 0-.004 0-.006 0-.013 0-.02 0-.308-.127-.587-.332-.786-.2-.205-.478-.332-.787-.332-.007 0-.014 0-.021 0h.001c-.006 0-.013 0-.02 0-.308 0-.587.127-.786.332-.205.2-.332.478-.332.787v.021-.001.118c.03.223.119.421.25.583l-.002-.002c.133.163.304.289.501.364l.008.003v6.569l-1.874-.996v-2.988c0-.002 0-.005 0-.007 0-.059-.018-.114-.048-.16l.001.001c-.029-.044-.061-.083-.095-.119l-1.306-.998c.03-.058.054-.125.07-.196l.001-.006c.015-.067.024-.143.024-.222 0-.001 0-.002 0-.004 0-.006 0-.013 0-.02 0-.308-.127-.587-.332-.786-.2-.204-.478-.331-.786-.331-.005 0-.01 0-.015 0h.001c-.006 0-.013 0-.02 0-.308 0-.587.127-.786.332-.205.2-.332.478-.332.787v.021-.001.024c0 .305.125.581.326.78.2.205.478.332.787.332h.021-.001.015c.101 0 .198-.017.288-.049l-.006.002c.11-.041.2-.081.287-.125l-.015.007 1.162.925v3.035c0 .067.022.129.06.178l-.001-.001c.04.055.092.099.152.129l.002.001 2.419 1.28v2.419l-4.055-1.874.071-1.47v-.024c0-.067-.022-.129-.06-.178l.001.001c-.04-.055-.092-.099-.152-.129l-.002-.001-1.851-.97c.015-.047.024-.101.024-.157 0-.003 0-.006 0-.01v-.19c-.031-.287-.166-.539-.366-.719l-.001-.001c-.196-.185-.461-.299-.752-.299-.006 0-.012 0-.018 0h.001c-.002 0-.005 0-.007 0-.305 0-.58.127-.775.332-.208.2-.338.481-.338.792v.015-.001.118c.029.285.164.534.366.71l.001.001c.193.177.451.285.735.285h.013.118c.12-.016.228-.044.33-.083l-.01.003c.104-.04.195-.092.275-.156l-.002.002 1.707.88-.047 1.47v.008c0 .075.017.145.048.208l-.001-.003c.036.066.094.117.164.142l.002.001 4.577 2.134v6.869q-.308 0-.605-.024l-.605-.047.071-4.364c-.001-.071-.023-.136-.06-.191l.001.001c-.042-.065-.103-.114-.175-.142l-.002-.001-2.87-1.328v-.118c0-.002 0-.005 0-.007 0-.305-.127-.58-.332-.775-.2-.205-.478-.332-.787-.332-.007 0-.014 0-.021 0h.001-.114c-.285.029-.534.164-.71.366l-.001.001c-.177.197-.285.459-.285.746v.025-.001.007c0 .305.127.58.332.775.195.205.47.332.775.332h.008.031c.156 0 .305-.033.439-.094l-.007.003c.14-.067.261-.147.369-.242l-.002.002 2.656 1.21v4.008c-1.314-.251-2.483-.708-3.534-1.343l.048.027c-1.082-.647-2.003-1.435-2.773-2.354l-.014-.017c-.758-.91-1.383-1.965-1.824-3.112l-.026-.076c-.428-1.098-.676-2.37-.676-3.699 0-.017 0-.034 0-.05v.003c0-.019 0-.041 0-.064 0-1.494.314-2.915.88-4.201l-.026.067c.58-1.336 1.363-2.476 2.324-3.44.964-.959 2.104-1.741 3.369-2.292l.071-.028c1.22-.541 2.643-.856 4.139-.856h.061-.003.064c1.494 0 2.915.314 4.201.88l-.067-.026c1.335.579 2.476 1.361 3.44 2.32.961.963 1.744 2.104 2.296 3.369l.028.071c.54 1.218.854 2.639.854 4.134v.067-.003.064c0 1.444-.292 2.82-.82 4.072l.026-.069c-.543 1.302-1.275 2.417-2.175 3.373l.005-.006c-.906.957-1.978 1.745-3.172 2.32l-.065.028c-1.16.568-2.516.932-3.948 1.009l-.026.001z"/></svg>