<!--Generated by Fontisto--><svg viewBox="0 0 24 24" xmlns="http://www.w3.org/2000/svg"><path d="m17.61 16.906c0-.002 0-.004 0-.007 0-.34-.187-.636-.464-.791l-.005-.002c-1.922-1.131-4.235-1.8-6.703-1.8-.099 0-.197.001-.296.003h.015c-1.598.016-3.142.208-4.626.559l.142-.028c-.373.047-.659.363-.659.746 0 .024.001.047.003.07v-.003.012c0 .205.081.391.212.528.132.14.318.227.525.227.01 0 .021 0 .031-.001h-.001c.225-.034.42-.077.611-.133l-.032.008c1.136-.255 2.444-.407 3.786-.422h.01c.075-.002.164-.003.253-.003 2.193 0 4.246.599 6.005 1.642l-.054-.03c.146.097.323.159.513.172h.003.001c.405 0 .734-.328.734-.734 0-.006 0-.011 0-.017v.001zm1.5-3.36c0-.01 0-.021 0-.032 0-.395-.219-.74-.542-.918l-.005-.003c-2.358-1.387-5.195-2.207-8.223-2.207-.118 0-.237.001-.354.004h.018c-1.686.001-3.316.24-4.858.687l.123-.031c-.432.089-.753.466-.753.919 0 .029.001.057.004.085v-.004.004c0 .516.418.934.934.934h.004c.218-.028.414-.072.603-.131l-.024.007c1.168-.328 2.509-.516 3.894-.516h.027-.001c.099-.002.216-.004.334-.004 2.683 0 5.198.721 7.361 1.979l-.07-.038c.169.108.371.181.588.203h.006.004c.516 0 .934-.418.934-.934 0-.001 0-.003 0-.004zm1.69-3.874c.001-.015.001-.034.001-.052 0-.449-.251-.839-.62-1.039l-.006-.003c-1.32-.758-2.851-1.354-4.472-1.707l-.106-.019c-1.596-.372-3.429-.586-5.312-.586-.017 0-.034 0-.05 0h.003c-.084-.001-.184-.002-.284-.002-1.923 0-3.784.269-5.546.771l.142-.035c-.243.074-.448.214-.6.398l-.002.002c-.15.191-.241.436-.241.702 0 .02 0 .039.001.059v-.003.029c0 .305.122.582.321.784.196.203.471.328.775.328h.032-.002c.23-.02.443-.064.645-.131l-.02.006c1.359-.369 2.919-.58 4.529-.58.095 0 .19.001.285.002h-.014.044c1.699 0 3.352.194 4.939.56l-.147-.029c1.494.313 2.819.827 4.028 1.519l-.067-.035c.178.111.393.18.623.187h.002.01c.304 0 .579-.122.778-.32.205-.194.333-.469.333-.773 0-.012 0-.023-.001-.035v.002zm3.2 2.328v.09c0 2.187-.598 4.234-1.64 5.987l.03-.054c-1.067 1.824-2.544 3.301-4.311 4.337l-.056.03c-1.729 1.012-3.806 1.609-6.024 1.609s-4.295-.597-6.081-1.64l.057.031c-1.824-1.067-3.301-2.544-4.337-4.311l-.03-.056c-1.012-1.729-1.609-3.806-1.609-6.024s.597-4.295 1.64-6.081l-.031.057c1.067-1.824 2.544-3.301 4.311-4.337l.056-.03c1.729-1.012 3.806-1.609 6.024-1.609s4.295.597 6.081 1.64l-.057-.031c1.824 1.067 3.301 2.544 4.337 4.311l.03.056c1.012 1.699 1.61 3.746 1.61 5.933v.096-.005z"/></svg>