<!--Generated by Fontisto--><svg viewBox="0 0 28 24" xmlns="http://www.w3.org/2000/svg"><path d="m24.72 7.094c0 2.105-1.707 3.812-3.812 3.812-1.053 0-2.006-.427-2.696-1.117-.74-.697-1.201-1.684-1.201-2.778 0-2.105 1.707-3.812 3.812-3.812 1.094 0 2.08.461 2.776 1.199l.002.002c.691.669 1.12 1.605 1.12 2.641v.055-.003zm-12.033 11.593c0-.004 0-.008 0-.012 0-2.151-1.744-3.894-3.894-3.894-.004 0-.008 0-.013 0h.001c-.299 0-.59.034-.87.099l.026-.005 1.625.656c.778.303 1.387.897 1.704 1.644l.007.02c.164.356.26.772.26 1.21 0 .418-.087.816-.244 1.176l.007-.019c-.304.778-.901 1.386-1.652 1.696l-.02.007c-.355.161-.77.254-1.206.254-.422 0-.824-.088-1.188-.246l.019.007q-.328-.125-.969-.383l-.953-.383c.337.627.82 1.138 1.405 1.498l.017.01c.568.358 1.258.571 1.999.571h.034-.002.012c2.151 0 3.894-1.744 3.894-3.894 0-.004 0-.008 0-.013v.001zm12.969-11.577c-.005-2.63-2.136-4.761-4.765-4.766-2.631.002-4.763 2.135-4.763 4.766s2.134 4.766 4.766 4.766c1.313 0 2.503-.531 3.364-1.391.863-.834 1.399-2.003 1.399-3.296 0-.028 0-.056-.001-.083zm2.344 0v.001c0 3.926-3.183 7.109-7.109 7.109h-.001l-6.828 4.981c-.116 1.361-.749 2.556-1.698 3.402l-.005.004c-.914.863-2.151 1.394-3.512 1.394-.023 0-.046 0-.069 0h.004c-2.534-.002-4.652-1.777-5.181-4.152l-.007-.035-3.594-1.438v-6.703l6.08 2.453c.758-.471 1.679-.75 2.664-.75h.041-.002q.203 0 .547.031l4.438-6.359c.05-3.898 3.218-7.04 7.122-7.047h.001c3.924.006 7.104 3.185 7.11 7.109v.001z"/></svg>