<!--Generated by Fontisto--><svg viewBox="0 0 31 24" xmlns="http://www.w3.org/2000/svg"><path d="m17.386 8.988v-1.932c0-.922-.748-1.67-1.67-1.67s-1.67.748-1.67 1.67v10.019c0 .028.001.061.001.094 0 1.889-.791 3.593-2.06 4.799l-.003.003c-1.27 1.261-3.021 2.04-4.953 2.04-3.883 0-7.031-3.148-7.031-7.031 0-.001 0-.002 0-.003v-4.354h5.37v4.29.033c0 .453.188.862.491 1.153h.001c.303.299.719.483 1.179.483s.876-.184 1.179-.483c.303-.292.492-.701.492-1.154 0-.012 0-.023 0-.035v.002-10.15c0-.023 0-.05 0-.077 0-1.86.796-3.534 2.067-4.699l.005-.004c1.278-1.226 3.017-1.981 4.932-1.981 1.923 0 3.668.761 4.95 1.999l-.002-.002c1.271 1.183 2.063 2.865 2.063 4.732 0 .029 0 .057-.001.086v-.004 2.23l-3.192.95zm8.677 3.634h5.37v4.354c-.006 3.88-3.152 7.023-7.033 7.023-1.931 0-3.681-.778-4.952-2.039-1.272-1.216-2.063-2.926-2.063-4.821 0-.035 0-.069.001-.104v.005-4.387l2.145.998 3.192-.95v4.42.025c0 .45.188.857.491 1.145l.001.001c.303.299.719.483 1.179.483s.876-.184 1.179-.483c.303-.289.491-.695.491-1.145 0-.009 0-.018 0-.026v.001z"/></svg>