<!--Generated by Fontisto--><svg viewBox="0 0 24 24" xmlns="http://www.w3.org/2000/svg"><path d="m3.698 16.267c.622-.745.696-1.514.214-2.942-.305-.903-.812-1.6-.439-2.16.4-.598 1.239-.018.537.781l.14.098c.842.098 1.258-1.056.629-1.386-1.66-.866-3.113.8-2.472 2.728.274.818.659 1.685.348 2.374-.193.487-.613.846-1.125.95l-.01.002c-.726.037-.244-1.63.592-2.045.074-.037.177-.086.08-.207-.098-.019-.211-.029-.326-.029-.729 0-1.359.427-1.652 1.044l-.005.011c-1.014 1.934 1.922 2.649 3.49.781z"/><path d="m21.825 10.582c.24.586.598 1.166.385 1.68-.177.439-.409.622-.666.666-.36.061-.262-1.068.354-1.404.055-.03.134-.177.061-.262-.053-.007-.114-.011-.176-.011-.569 0-1.059.339-1.278.826l-.004.009c-.69 1.446 1.562 1.84 2.667.421.439-.567.458-1.129.037-2.148-.269-.647-.678-1.129-.421-1.556.274-.452.934-.061.439.543l.11.061c.64.037.903-.818.415-1.031-.156-.057-.337-.09-.525-.09-.868 0-1.572.704-1.572 1.572 0 .265.066.515.182.734l-.004-.009z"/><path d="m13.671 9.035c-.446-.354-1.697.24-2.05 1.12-.456 1.32-1.049 2.464-1.781 3.504l.029-.044c-.683.75-.75.171-.683-.262.364-1.533.949-2.884 1.728-4.099l-.031.052c-.202-.299-1.52-.256-2.435 1.166-.342.537-1.12 2.326-1.99 3.735-.189.305-.427.091-.244-.622.477-1.908 1.026-3.531 1.689-5.094l-.084.224c1.755-.387 3.795-.639 5.883-.7l.049-.001c.226-.061.378-.262 0-.274-.046 0-.1 0-.153 0-1.939 0-3.846.138-5.712.404l.214-.025c.28-.668.702-1.227 1.232-1.66l.008-.006c-.183-.084-.398-.133-.624-.133-.557 0-1.045.298-1.313.743l-.004.007c-.235.349-.469.755-.676 1.176l-.027.062c-1.291.17-2.445.428-3.558.778l.147-.04c-.671.256-.598 1.068-.189.915.875-.326 1.969-.647 3.089-.899l.181-.034c-.631 1.382-1.181 3.008-1.567 4.696l-.033.174c-.378 2.136.946 2.124 1.593 1.28.702-.922 2.166-4.16 2.392-4.504.067-.116.16-.055.11.049-1.636 3.265-1.495 4.529-.171 4.248.8-.364 1.449-.944 1.888-1.666l.011-.019c.055-.128.171-.116.146-.061-1.04 2.691-2.356 4.87-3.241 5.554-.806.617-1.404-.72 1.446-2.64.421-.287.226-.678-.25-.543-1.471.232-5.68 1.569-7.531 2.85-.14.098-.269.177-.262.378.006.116.207.074.305.012 1.897-1.154 4.113-2.014 6.478-2.447l.12-.018c.017.008.036.013.057.013.014 0 .028-.002.042-.006h-.001c.104-.025.098.03.03.074-.091.055-.203.114-.318.167l-.024.01c-1.514.592-2.429 1.898-2.106 2.56.274.574 1.76.366 2.459-.012 1.721-.934 2.972-2.765 3.826-5.291.747-2.235 1.687-4.777 1.907-4.847z"/><path d="m23.672 14.205c-.842-.061-1.824-.096-2.815-.096-3.08 0-6.082.338-8.97.978l.274-.051c-.794.207-.574.629-.171.55.006 0 .177-.042.183-.042 2.191-.427 7.506-.8 10.607-.207.374.066 1.491-1.051.891-1.13z"/><path d="m14.453 13.875c.781-.39 1.941-2.807 2.704-4.132.055-.098.153-.018.098.049-1.929 3.32-1.11 3.705-.348 3.656 1.019-.061 1.959-1.526 2.166-1.855.086-.128.134-.025.086.067-.049.153-.226.421-.39.787-.232.518.012.72.214.812.32.153 1.184.055 1.318-.48-.866-.018 1.208-4.107 1.422-4.358-.154-.059-.331-.094-.517-.094-.618 0-1.148.381-1.366.922l-.004.01c-.873 1.727-1.605 3.12-2.063 3.143-.891.049 1.026-3.851 1.337-3.973-.189-.274-1.404-.16-2.08.891-.24.378-1.734 3.015-2.099 3.448-.647.769-.696.11-.513-.659.098-.394.2-.717.32-1.033l-.021.062c.281-.624.675-1.151 1.16-1.576l.005-.004c1.886-2.094 2.966-3.79 2.539-4.455-.378-.592-1.642-.33-2.454.891-1.495 2.24-2.874 5.31-3.051 6.714s.847 1.511 1.537 1.167zm.793-4.107c.067-.153.11-.195.226-.452.628-1.441 1.328-2.676 2.139-3.828l-.045.068c.36-.378.866.134-.049 1.538-.552.851-1.15 1.591-1.814 2.266l.002-.002v.006c-.171.189-.32.348-.39.439-.05.062-.104.05-.067-.035z"/></svg>