<!--Generated by Fontisto--><svg viewBox="0 0 18 24" xmlns="http://www.w3.org/2000/svg"><path d="m.003 23.617v-5.687c.007-.298.194-.551.457-.654l.005-.002 7.453-2.361-7.454-2.366c-.181-.069-.323-.205-.398-.377l-.002-.005c-.038-.064-.061-.14-.061-.222 0-.005 0-.01 0-.014v.001-5.727c0-.003 0-.007 0-.01 0-.083.023-.161.064-.227l-.001.002c.077-.177.219-.313.395-.379l.005-.002 17.548-5.564c.036-.014.078-.022.121-.022.19 0 .343.154.343.343 0 .015-.001.029-.003.044v-.002 5.686c-.008.298-.195.55-.457.654l-.005.002-7.375 2.338 7.378 2.339c.268.105.455.358.462.656v.001 5.687.003c0 .036-.004.072-.011.106l.001-.003c-.043.258-.217.467-.45.558l-.005.002-17.549 5.564c-.038.013-.082.021-.128.022-.186-.005-.335-.158-.335-.345 0-.014.001-.028.003-.042v.002z"/></svg>