<!--Generated by Fontisto--><svg viewBox="0 0 26 24" xmlns="http://www.w3.org/2000/svg"><path d="m24.123 13.507c1.128 2.534.869 5.111-.579 5.755s-3.536-.887-4.664-3.421-.869-5.111.579-5.755 3.536.887 4.664 3.421z"/><path d="m16.563 16.5c-1.065-2.508-1.2-5.026-.506-6.64-2.962.9-5.08 3.606-5.08 6.808 0 .055.001.11.002.164v-.008c0 3.962 2.998 7.174 6.697 7.174 1.984-.013 3.754-.914 4.936-2.326l.008-.01c-2.018.378-4.627-1.794-6.056-5.162z"/><path d="m8.347 15.869s-3.109 3.826-2.63 5.262 5.979 2.391 5.979 2.391c-.753-.973-1.466-2.068-2.089-3.22l-.063-.128c-.447-1.187-.86-2.63-1.163-4.112l-.033-.193z"/><path d="m12.652 8.81s-7.265-10.567-11.888-4.403c-2.604 3.474 1.935 5.446 6.384 5.724.228.021.494.032.762.032 1.756 0 3.395-.504 4.779-1.375z"/><path d="m17.914 1.076c1.03.594 1.008 2.56-.049 4.39s-2.748 2.832-3.778 2.237c-1.03-.594-1.008-2.56.049-4.39s2.748-2.832 3.778-2.237z"/></svg>