<!--Generated by Fontisto--><svg viewBox="0 0 24 24" xmlns="http://www.w3.org/2000/svg"><path d="m12 5.362 2.475-3.026c3.101.169 5.989.908 8.619 2.115l-.147-.061c-.828 1.078-1.92 1.915-3.18 2.42l-.051.018c-.146-1.439-1.154-1.79-4.354-1.79l-3.361 18.962-3.381-18.966c-3.18 0-4.188.354-4.335 1.792-1.31-.519-2.401-1.352-3.216-2.409l-.013-.017c2.481-1.148 5.369-1.889 8.409-2.057l.061-.003 2.475 3.022zm0-3.9c.107-.002.233-.002.359-.002 3.967 0 7.738.84 11.144 2.352l-.175-.069c.237-.394.463-.853.65-1.331l.022-.063c-3.551-1.463-7.671-2.323-11.99-2.348h-.01c-4.328.024-8.449.884-12.218 2.428l.218-.079c.224.555.449 1.015.703 1.458l-.031-.058c3.238-1.448 7.017-2.291 10.994-2.291.118 0 .235.001.352.002h-.018z"/></svg>