<!--Generated by Fontisto--><svg viewBox="0 0 18 24" xmlns="http://www.w3.org/2000/svg"><path d="m6.458 9.451c.044.072.122.12.212.12h.002c.06 0 .114-.022.157-.057l.013-.014c.387-.324.737-.656 1.064-1.01l.007-.007c1.163-1.319 1.873-3.061 1.873-4.969 0-1.02-.203-1.994-.571-2.881l.018.05c-.026-.059-.042-.128-.042-.2 0-.159.075-.301.191-.393l.001-.001c.08-.058.179-.092.287-.092.126 0 .241.048.329.126 10.875 10.114 8 17.818 7.785 18.337-.87 3.141-4.335 5.414-8.444 5.53-.138.008-.242.008-.363.008-4.852 0-8.977-2.989-8.977-6.807v-.06c0-5.3 4.8-10.522 5.009-10.744.081-.092.199-.15.331-.15.071 0 .138.017.197.046l-.003-.001c.173.074.291.242.291.438v.014-.001c-.007.097-.011.211-.011.325 0 .875.239 1.694.654 2.396l-.012-.022v.018z"/></svg>