<!--Generated by Fontisto--><svg viewBox="0 0 24 24" xmlns="http://www.w3.org/2000/svg"><path d="m15.948 14.472c.029.814.465.806.984.789.698-.013 1.081-.227 1.431-.058-.006-.019-.115-.347-.598-.289.045-.112.072-.241.072-.377 0-.047-.003-.093-.009-.138l.001.005c-.064-.814-.537-1.461-1.057-1.443s-.851.693-.822 1.51zm.774-.994h.004c.146 0 .264.118.264.264s-.118.264-.264.264-.264-.118-.264-.264c0-.071.028-.136.074-.184.047-.049.113-.08.186-.081zm-7.89 1.93h.323c.52-.005.951.044.944-.772s-.37-1.476-.887-1.47-1.022.673-.992 1.488c0 .172.033.335.093.485l-.003-.009c-.254.043-.465.197-.585.409l-.002.004c.245-.096.529-.152.826-.152.099 0 .198.006.294.018zm.447-1.733h.004c.146 0 .264.118.264.264s-.118.264-.264.264-.264-.118-.264-.264c0-.071.028-.136.074-.183.047-.049.113-.079.185-.081zm1.221-8.689h1.459v-.602h.328v2.779h-.496v1.555h2.553v-1.555h-.492v-2.779h.323v.602h1.459v-2.059h-5.136v2.059z"/><path d="m24.181 8.957q-.014-.264-.05-.527c-.012-.088-.025-.176-.044-.262-.02-.109-.041-.199-.068-.288l.005.019-.019-.069-.048-.039c-.255-.196-.544-.372-.852-.516l-.029-.012c-.251-.119-.506-.222-.764-.317-.719-2.029-1.957-3.724-3.556-4.981l-.023-.018c-1.562-1.215-3.551-1.948-5.711-1.948s-4.149.733-5.732 1.964l.021-.016c-1.281.997-2.311 2.254-3.022 3.697l-.028.062c-.17.329-.35.739-.506 1.159l-.027.082c-.258.095-.513.198-.764.317-.336.156-.625.332-.892.536l.011-.008-.049.039-.019.069q-.038.133-.064.269c-.017.086-.031.174-.043.262-.018.125-.029.252-.04.38h.004q-.006.073-.01.148c-.005.099-.008.215-.008.331 0 .628.086 1.236.246 1.813l-.011-.048q.073.258.171.507c.032.081.068.167.107.251.019.042.041.081.062.125l.035.058c.014.023.023.04.043.069l.035.055.056.029c.06.031.109.053.161.081l.156.071.087.036c-.816.752-1.529 1.597-2.128 2.523l-.031.051-.846 1.336 1.189-1.043c.787-.653 1.663-1.267 2.587-1.808l.093-.05.023.191.06.484.305 2.474c.006.048.032.089.07.116h.001l.624.439c.011.035.021.069.031.106.015.049.028.098.044.148l.143.43c.322.997.761 1.865 1.311 2.648l-.021-.031-.081.023c-.323-.15-1.459-.676-1.839-.848l-.797-.357.472.735c.034.053.847 1.321 1.51 2.177.663.978 1.769 1.613 3.023 1.613h.056-.003c.213-.001.423-.013.629-.036l-.026.002c.479-.056.838-.098 1.111-.134.783.302 1.69.477 2.637.477.958 0 1.874-.179 2.716-.505l-.051.018c.51-.196.947-.416 1.358-.674l-.032.019.023-.006c.656-.161 1.399-.335 1.767-.439.059-.016.132-.034.209-.052.787-.099 1.449-.564 1.816-1.216l.006-.012c.459-.921 1.209-2.33 1.216-2.344l.351-.656-.681.297c-.037.016-.901.393-1.351.628-.015.009-.035.017-.052.026.224-.44.433-.959.595-1.498l.018-.068.247-1.017.71-1.588s.199-1.735.203-1.734l.069-.664c.062-.027.441-.052.515-.081.106-.042.211-.081.317-.128l.155-.068c.055-.026.104-.048.161-.081l.056-.029.035-.055c.017-.022.035-.048.05-.074l.002-.003.034-.062c.02-.034.041-.075.06-.117l.003-.008q.058-.123.109-.251.096-.25.169-.507c.149-.528.234-1.134.234-1.76 0-.118-.003-.236-.009-.353l.001.016zm-16.195 4.284c.467-.302 1.022-.614 1.595-.894l.098-.043q1.702-.129 3.41-.129c.298 0 .591.004.88.009-.186.153-.394.301-.611.434l-.025.014-.735.445c-.339.044-.639.106-.931.189l.044-.011c-.015.004-.028.009-.039.017h.001c-.036.021-.063.054-.075.094v.001l-.751 2.476-4.015.893-1.265-.887-.368-2.979c.718-.132 1.679-.285 2.831-.414q-.189.224-.357.466l-.685.986zm5.416 10.366c-.108.007-.235.011-.362.011-.58 0-1.142-.082-1.673-.235l.043.011c.055-.011.095-.017.144-.023.712-.089 1.329-.439 1.763-.948l.003-.004h.182c.087 0 .167-.007.252-.011.223-.017.425-.046.623-.086l-.033.006.062.062c.371.375.873.62 1.432.662h.007c-.717.3-1.548.502-2.418.563l-.025.001zm.059-1.451c.099-.222.175-.395.231-.525q.212.237.433.466c-.131.019-.259.036-.385.047-.081 0-.17.013-.249.013h-.03zm-1.969-5.111.359-.081c.059-.014.106-.058.123-.114v-.001l.75-2.465c.102-.017.22-.026.341-.026s.238.01.353.028l-.013-.002.772 2.538c.019.064.074.111.14.119h.001l.36.04 4.928.564c.005.001.012.001.018.001.036 0 .07-.012.097-.031l.495-.346.627-.442c-.027.118-.058.235-.09.351q-.07.223-.148.443c-.216.619-.444 1.138-.707 1.635l.031-.065q-.108.007-.216.007c-.242 0-.484-.019-.752-.044-.468-.044-1.209-.128-1.443-.155-.203-.161-.895-.71-1.469-1.164-.022-.017-.041-.035-.061-.052-.112-.113-.267-.182-.439-.182-.003 0-.007 0-.01 0-.471.054-.901.16-1.307.315l.037-.012c.218-.15.365-.388.392-.661v-.004c-.396.333-.892.559-1.437.628l-.014.001c-.066.007-.143.01-.221.01-.515 0-.991-.167-1.378-.449l.007.005c.041.196.138.365.273.494-.229-.029-.494-.046-.763-.047h-.001c-.097 0-.196 0-.29.007-.549.029-1.322.858-1.863 1.693-.266.081-1.1.349-2.063.632-.437-.605-.83-1.295-1.146-2.025l-.027-.071c-.127-.299-.198-.503-.214-.552-.018-.049-.037-.101-.053-.153l.231.161.572.403.191.133c.027.019.061.03.097.031.006.001.012.001.019.001s.013 0 .019-.001h-.001l4.892-1.09zm3.041-3.678c-.017-.055-.06-.097-.114-.113h-.001c-.301-.088-.658-.156-1.024-.192l-.025-.002.097-.007c1.17-.16 2.222-.42 3.227-.779l-.111.035c1.655.126 3.143.321 4.605.59l-.263-.04-.361 2.534-1.275.892-4.008-.456zm8.799-3.414c-.044.323-.193.962-.193.962l-.115.019c-.06-.017-.624-.161-1.595-.343l.09-.02c.234-.057.431-.121.622-.199l-.03.011c.113-.047.205-.092.294-.143l-.014.007c.093-.051.173-.114.241-.187-.968.318-2.983.173-4.766-.011-1.462-.168-3.171-.269-4.901-.281h-.017c-1.747.013-3.454.114-5.135.301l.221-.02c-1.785.185-3.79.329-4.765.011.069.073.149.136.237.185l.005.003c.078.043.174.089.272.129l.019.007c.161.067.358.132.561.183l.031.007c.071.016.143.032.215.045-.887.168-1.398.302-1.456.317 0 0-.204.033-.249-.123-.078-.241-.145-.531-.189-.829l-.004-.031c-.039-.282-.061-.607-.061-.938 0-.015 0-.03 0-.044v.002-.161c0-.11.008-.22.019-.33.146-.206.335-.371.556-.485l.009-.004c.229-.136.514-.284.805-.417l.061-.025c.511-.178 1.124-.333 1.755-.437l.067-.009c.575-.105 2.629-.377 2.783-.435s1.039-.743 1.194-.8c-.323.054-4.838.743-5.039.806 1.464-3.828 4.337-5.693 8.162-5.693s6.697 1.76 8.162 5.589c-1.37-.331-3.052-.615-4.766-.792l-.173-.014c.156.057 1.034.675 1.197.696 1.437.205 2.656.449 3.852.752l-.252-.054c.303.123.607.249.901.388.352.158.636.306.912.467l-.046-.025c.229.119.418.284.561.485l.003.005c.015.161.02.327.022.491v.036c0 .333-.023.661-.066.982l.004-.037z"/></svg>