<!--Generated by Fontisto--><svg viewBox="0 0 22 24" xmlns="http://www.w3.org/2000/svg"><path d="m19.517 4.338c-.797-.448-2.069.275-2.84 1.617l-1.401 2.435c-.213.407-.338.888-.338 1.399 0 .653.204 1.259.552 1.756l-.007-.01.041.061c.574.774 1.166 1.458 1.803 2.095.271.285.438.672.438 1.097 0 .879-.713 1.592-1.592 1.592s-1.592-.713-1.592-1.592c0-.071.005-.14.014-.208l-.001.008c.002-.03.003-.066.003-.101 0-.536-.218-1.021-.57-1.371-.5-.557-1.523.495-1.854 1.592l-.016.06c-.237.62-.406 1.339-.474 2.087l-.002.032c.037.059.071.119.099.18.133.245.212.536.212.845 0 .99-.802 1.792-1.792 1.792s-1.792-.802-1.792-1.792c0-.682.381-1.275.941-1.578l.009-.005.12-.06c.183-.294.327-.634.414-.997l.005-.024.297-.976c.019-.046.037-.1.049-.156l.001-.006.89-3.155-.947 1.939c-.111-.359-.297-.376-.701-.09-.24.181-.646.525-.841.662-.346.302-.629.666-.833 1.077l-.009.02c-.095.2-.233.366-.402.492l-.003.002c-.268.223-.615.359-.994.359-.49 0-.927-.226-1.213-.58l-.002-.003c-.216-.267-.346-.611-.346-.985 0-.754.53-1.384 1.238-1.538l.01-.002c.982-.436 1.827-.939 2.604-1.527l-.033.024c.141-.092.264-.19.377-.298l-.001.001 2.176-1.652-1.897 1.013c-.038-.002-.082-.004-.127-.004-.104 0-.206.008-.306.022l.011-.001c-.562.005-1.093.132-1.57.356l.023-.01c-.077.108-.173.198-.283.267l-.004.002c-.232.175-.525.28-.842.28-.776 0-1.406-.629-1.406-1.406 0-.48.241-.904.608-1.158l.005-.003c.239-.168.535-.269.855-.271.559.089 1.204.14 1.861.14.387 0 .77-.018 1.148-.052l-.049.004.285-.045c1.274-.305 2.326-1.087 2.979-2.143l.012-.02 1.171-2.044c.646-1.127.601-2.358-.099-2.77l-1.314-.751c-.34-.17-.74-.269-1.164-.269s-.824.099-1.18.276l.015-.007-8.766 4.916c-.683.418-1.143 1.142-1.187 1.977v.006 9.638c.048.839.497 1.564 1.155 1.992l.01.006 8.754 4.929c.34.171.74.271 1.164.271s.825-.1 1.179-.278l-.015.007 8.73-4.929c.671-.432 1.122-1.158 1.171-1.991v-.007-9.654c-.049-.837-.493-1.56-1.147-1.992l-.01-.006-1.444-.814z"/></svg>