<!--Generated by Fontisto--><svg viewBox="0 0 24 24" xmlns="http://www.w3.org/2000/svg"><path d="m21.003 0h.04c.814 0 1.55.337 2.075.88l.001.001c.543.526.88 1.261.88 2.076v.047-.002 18.002.04c0 .814-.337 1.55-.88 2.075l-.001.001c-.526.543-1.261.88-2.076.88-.014 0-.028 0-.043 0h.002-18.002c-.013 0-.029 0-.044 0-.814 0-1.55-.337-2.075-.88l-.001-.001c-.543-.526-.88-1.261-.88-2.076 0-.014 0-.028 0-.043v.002-18.002c0-.012 0-.026 0-.04 0-.814.337-1.55.88-2.075l.001-.001c.526-.543 1.261-.88 2.076-.88h.043-.002zm-10.555 18.162v-13.612c0-.004 0-.009 0-.013 0-.395-.164-.751-.428-1.004-.253-.261-.607-.423-.998-.423-.007 0-.014 0-.02 0h-4.446c-.004 0-.009 0-.013 0-.395 0-.751.164-1.004.428-.264.254-.429.61-.429 1.004v.007 13.612c-.001.015-.001.032-.001.05 0 .392.165.745.429.994l.001.001c.258.248.609.4.996.4h.023-.001 4.447.021c.387 0 .738-.153.997-.401.265-.25.43-.603.43-.995 0-.018 0-.035-.001-.052v.003zm10.448-6v-7.611c0-.004 0-.009 0-.013 0-.395-.164-.751-.428-1.004-.254-.265-.61-.429-1.004-.429-.005 0-.009 0-.014 0h-4.446c-.004 0-.009 0-.013 0-.395 0-.751.164-1.004.428-.265.254-.429.61-.429 1.004v.014-.001 7.608c-.001.015-.001.032-.001.05 0 .392.165.745.429.994l.001.001c.258.248.609.4.996.4h.023-.001 4.447.021c.387 0 .738-.153.997-.401.265-.25.43-.603.43-.995 0-.016 0-.032-.001-.048v.002z"/></svg>