<!--Generated by Fontisto--><svg viewBox="0 0 24 24" xmlns="http://www.w3.org/2000/svg"><path d="m6.781 12.894v.016c0 .266-.11.505-.286.677-.17.177-.408.286-.672.286-.004 0-.007 0-.011 0h.001s-.001 0-.002 0c-.54 0-.978-.438-.978-.978 0-.001 0-.001 0-.002 0-.003 0-.007 0-.01 0-.264.11-.502.286-.672.172-.177.412-.287.677-.287h.017-.001c.533.005.963.436.969.968v.001zm12.019-.013c0 .541-.438.979-.979.979s-.979-.438-.979-.979c0-.005 0-.011 0-.017 0-.263.11-.501.286-.67.179-.174.423-.281.693-.281s.514.107.693.282c.177.169.287.407.287.671v.017-.001zm-10.832.01c-.001-1.109-.9-2.007-2.009-2.007s-2.009.899-2.009 2.009.899 2.009 2.009 2.009c.555 0 1.057-.225 1.421-.589.363-.364.587-.867.588-1.421zm12.009-.01c0-1.109-.9-2.008-2.009-2.008s-2.009.899-2.009 2.009.899 2.009 2.009 2.009c.555 0 1.057-.225 1.42-.588.363-.353.589-.846.589-1.391 0-.011 0-.021 0-.032v.002zm-11.125.01c0 1.602-1.299 2.901-2.901 2.901s-2.901-1.299-2.901-2.901c0-.012 0-.026 0-.041 0-.788.328-1.499.854-2.005l.001-.001c.51-.521 1.221-.844 2.007-.844h.048-.002.041c.785 0 1.494.324 2.001.846l.001.001c.524.508.85 1.218.85 2.005v.044-.002zm12.02-.01v.004c0 1.602-1.299 2.901-2.901 2.901s-2.901-1.299-2.901-2.901 1.299-2.901 2.901-2.901c.801 0 1.527.325 2.052.85.524.508.849 1.218.849 2.004v.045zm-10.041.031c0-.021.001-.045.001-.07 0-1.307-.541-2.487-1.41-3.33l-.001-.001c-.844-.871-2.024-1.412-3.331-1.412-.025 0-.049 0-.074.001h.004c-.01 0-.021 0-.032 0-.875 0-1.694.24-2.394.658l.021-.012c-1.443.85-2.397 2.397-2.397 4.166s.953 3.316 2.374 4.154l.022.012c.679.406 1.498.646 2.373.646h.036-.002c.021 0 .045.001.07.001 1.307 0 2.487-.541 3.33-1.41l.001-.001c.871-.844 1.412-2.024 1.412-3.331 0-.024 0-.049-.001-.073v.004zm6.96-5.969c-1.66-.729-3.594-1.154-5.628-1.154-.057 0-.115 0-.172.001h.009c-.071-.001-.154-.002-.238-.002-2.068 0-4.038.422-5.827 1.184l.097-.037h.017c.832 0 1.624.175 2.34.489l-.037-.015c.739.315 1.37.746 1.901 1.276.526.534.955 1.167 1.255 1.867l.015.039c.3.679.474 1.471.474 2.303v.018-.001c0-1.619.641-3.088 1.682-4.168l-.002.002c.519-.524 1.131-.955 1.811-1.264l.038-.016c.662-.311 1.436-.501 2.252-.521h.007zm4.99 5.968c-.003-2.653-2.154-4.802-4.807-4.802-2.655 0-4.807 2.152-4.807 4.807s2.152 4.807 4.807 4.807c1.329 0 2.531-.539 3.402-1.41.868-.844 1.406-2.023 1.406-3.327 0-.026 0-.053-.001-.079zm-2.77-5.895h3.989c-.298.346-.558.738-.766 1.16l-.014.032c-.181.344-.325.743-.412 1.163l-.005.03c.715.972 1.144 2.193 1.144 3.515 0 3.297-2.673 5.97-5.97 5.97-1.864 0-3.529-.855-4.624-2.194l-.008-.011c-.436.541-.879 1.15-1.291 1.781l-.054.087c-.191-.333-.376-.613-.576-.882l.016.023q-.442-.63-.776-1.015c-1.103 1.324-2.753 2.161-4.598 2.161-3.298 0-5.971-2.673-5.971-5.971 0-1.298.414-2.499 1.117-3.478l-.012.018c-.092-.45-.236-.849-.429-1.218l.012.025c-.223-.455-.484-.847-.789-1.2l.006.007h3.802c1.062-.701 2.293-1.26 3.61-1.611l.088-.02c1.327-.373 2.851-.588 4.425-.588h.079-.004.107c1.523 0 2.995.213 4.39.611l-.113-.027c1.378.383 2.584.942 3.672 1.665l-.047-.029z"/></svg>