<!--Generated by Fontisto--><svg viewBox="0 0 30 24" xmlns="http://www.w3.org/2000/svg"><path d="m29.55 2.85c-.841 1.224-1.848 2.26-3.004 3.106l-.036.025q.018.262.018.787c-.004 1.736-.264 3.41-.745 4.987l.032-.122c-.534 1.773-1.272 3.32-2.206 4.724l.04-.065c-.989 1.509-2.132 2.808-3.435 3.927l-.024.02c-1.372 1.153-2.978 2.083-4.73 2.704l-.108.033c-1.765.648-3.803 1.022-5.928 1.022-.045 0-.09 0-.134 0h.007c-.038 0-.082 0-.127 0-3.41 0-6.584-1.015-9.234-2.76l.063.039c.419.048.904.075 1.396.075h.07-.004c.037 0 .082.001.126.001 2.807 0 5.386-.975 7.417-2.606l-.023.018c-2.639-.05-4.861-1.777-5.65-4.157l-.012-.043c.342.057.738.091 1.141.094h.003c.567 0 1.116-.075 1.637-.216l-.044.01c-1.412-.284-2.615-1.034-3.47-2.08l-.008-.011c-.858-1.011-1.379-2.331-1.379-3.773 0-.028 0-.056.001-.084v.004-.075c.788.452 1.726.732 2.727.768h.011c-.822-.553-1.487-1.279-1.953-2.129l-.016-.031c-.46-.835-.731-1.83-.731-2.889 0-1.126.306-2.18.84-3.084l-.015.028c1.5 1.839 3.337 3.341 5.425 4.427l.095.045c2.022 1.067 4.402 1.743 6.927 1.864l.038.001c-.093-.415-.147-.892-.149-1.382v-.001c.004-3.345 2.717-6.055 6.062-6.055 1.74 0 3.309.733 4.415 1.908l.003.003c1.448-.284 2.735-.792 3.893-1.492l-.053.03c-.455 1.431-1.4 2.596-2.635 3.323l-.028.015c1.294-.148 2.475-.479 3.569-.967l-.077.031z"/></svg>