<!--Generated by Fontisto--><svg viewBox="0 0 24 24" xmlns="http://www.w3.org/2000/svg"><path d="m21.19 8.8c.054.01.106.023.16.03.55.058 1.042.266 1.446.582l-.006-.005c.561.431.967 1.039 1.136 1.739l.004.021c.061.226.096.486.096.753 0 .088-.004.176-.011.263l.001-.011c-.06 1.178-.76 2.18-1.756 2.671l-.018.008c-.272.14-.589.235-.925.267l-.011.001c-.102.013-.22.02-.34.02-.742 0-1.418-.284-1.925-.749l.002.002c-.212-.185-.4-.405-.59-.61-.314-.332-.626-.666-.939-.999-.494-.526-.99-1.05-1.481-1.576-.169-.195-.405-.327-.672-.361l-.005-.001c-.042-.006-.09-.009-.139-.009-.398 0-.744.221-.924.546l-.003.005c-.107.174-.17.384-.17.61 0 .344.147.653.382.869l.001.001c.161.152.373.251.608.27h.004c.024.002.052.003.08.003.544 0 .997-.389 1.095-.905l.001-.007c.021-.102.024-.21.037-.326l.112.118 1.36 1.365c.08.08.08.08.023.174-.405.754-1.105 1.305-1.941 1.503l-.02.004c-.21.056-.451.088-.699.088-.81 0-1.541-.341-2.057-.886l-.001-.001c-.347-.347-.611-.777-.758-1.259l-.006-.021c-.008-.023-.013-.05-.013-.078 0-.034.007-.067.02-.096l-.001.002q.425-1.04.847-2.08c.067-.149.139-.339.199-.534l.01-.039c.024-.084.038-.181.038-.281 0-.106-.016-.208-.045-.305l.002.007c-.007-.014-.01-.031-.01-.048 0-.045.025-.084.062-.104h.001c.387-.302.862-.51 1.38-.581l.015-.002c.125-.02.269-.031.416-.031.712 0 1.362.264 1.858.698l-.003-.003c.243.222.468.45.68.69l.008.009q1.194 1.264 2.383 2.534c.16.185.379.315.628.361l.007.001c.054.01.116.015.179.015.309 0 .588-.134.78-.346l.001-.001c.195-.193.317-.459.324-.753v-.001c.001-.021.002-.046.002-.071 0-.554-.401-1.014-.928-1.107l-.007-.001c-.049-.008-.105-.012-.162-.012-.519 0-.953.362-1.064.847l-.001.007c-.028.122-.034.25-.051.382-.017-.017-.034-.032-.052-.05q-.708-.72-1.414-1.446c-.08-.08-.08-.08-.026-.174.397-.734 1.07-1.275 1.877-1.489l.021-.005c.165-.043.338-.058.506-.084.022-.004.043-.01.061-.019l-.001.001z"/><path d="m7.757 11.326c.018-.033.03-.052.039-.073.058-.137.118-.273.17-.412.006-.018.01-.039.01-.06s-.004-.042-.01-.061v.001c-.058-.154-.125-.305-.186-.465-.047-.113-.074-.245-.074-.383 0-.516.38-.942.875-1.016l.006-.001c.049-.008.105-.013.162-.013.413 0 .768.249.922.605l.003.006c.24.56.462 1.132.693 1.699.022.052.045.102.068.154h.018c.013-.026.028-.05.038-.075.23-.56.461-1.125.686-1.689.144-.408.527-.696.976-.696.468 0 .863.311.99.737l.002.007c.025.084.04.182.04.282 0 .143-.03.28-.083.404l.003-.007q-.853 2.106-1.709 4.206c-.157.375-.521.634-.945.634-.024 0-.048-.001-.071-.002h.003c-.405-.018-.746-.275-.886-.633l-.002-.007c-.116-.27-.223-.546-.334-.819-.015-.036-.033-.07-.058-.122-.013.022-.026.048-.037.075l-.002.005c-.115.283-.229.568-.345.85-.149.385-.517.652-.946.652-.026 0-.052-.001-.077-.003h.003c-.408-.013-.751-.272-.889-.633l-.002-.007c-.272-.651-.532-1.306-.8-1.959q-.264-.649-.527-1.299c-.037-.132-.133-.237-.257-.285l-.003-.001c-.039-.012-.084-.02-.13-.022h-.001-.734c-.105 0-.105 0-.105.109v3.095c-.014.557-.469 1.004-1.028 1.004-.497 0-.911-.352-1.007-.821l-.001-.007c-.011-.056-.018-.121-.019-.187v-.001q0-1.547 0-3.095c0-.094 0-.096-.094-.096h-1.072c-.567 0-1.026-.46-1.026-1.026 0-.524.393-.956.9-1.019h.005c.039-.005.085-.008.131-.008.019 0 .038 0 .057.001h-.003c1.64 0 3.28.005 4.921 0h.011c.453 0 .84.28.999.676l.003.007c.221.57.458 1.134.688 1.7.016.036.031.065.048.094l-.002-.004z"/></svg>