<!--Generated by Fontisto--><svg viewBox="0 0 24 24" xmlns="http://www.w3.org/2000/svg"><path d="m8.103 0-8.103 4.595v10.579c.015 4.878 3.973 8.826 8.852 8.826h.026-.001.031c1.63 0 3.159-.433 4.478-1.191l-.044.023 6.562-3.729c2.604-1.337 4.358-3.998 4.374-7.07v-11.061l-1.609-.931-6.575 3.673v11.505.065c0 .491-.057.97-.163 1.429l.008-.042c-.149.642-.349 1.204-.602 1.735l.022-.05c-.903-.116-1.72-.406-2.443-.835l.029.016c-.522-.309-.974-.651-1.384-1.037l.004.004c-.29-.284-.55-.597-.776-.935l-.013-.021c-.223-.315-.422-.674-.579-1.055l-.013-.036c-.146-.337-.277-.738-.37-1.152l-.009-.047c-.066-.338-.103-.727-.103-1.125 0-.058.001-.116.002-.174v.008l.008-11.045-1.608-.919zm3.733 21.833c-.386.164-.843.307-1.316.406l-.049.009c-.426.091-.915.143-1.416.143-.521-.001-1.028-.057-1.517-.161l.048.009c-.52-.107-.977-.252-1.412-.44l.046.018c-.474-.204-.879-.427-1.26-.684l.027.017c-.782-.526-1.436-1.178-1.948-1.933l-.016-.025c-.239-.352-.463-.756-.648-1.18l-.019-.049c-.166-.382-.311-.834-.412-1.302l-.009-.049c-.066-.38-.104-.817-.104-1.263 0-.068.001-.135.003-.203v.01-9.651l6.07-3.663v10.127c.067 3.866 2.822 7.07 6.472 7.828l.053.009c-.132.181-.262.339-.4.49l.004-.005c-.321.323-.673.615-1.052.871l-.025.016c-.313.241-.666.458-1.042.636l-.035.015zm10.52-8.505c-.099.459-.23.86-.396 1.242l.016-.042c-.445.91-1.037 1.681-1.752 2.314l-.008.007c-.798.717-1.793 1.231-2.894 1.45l-.039.007c.374-.909.599-1.963.618-3.067v-.008-10.59l4.556-2.757v10.125c.001.048.002.104.002.161 0 .408-.038.807-.109 1.194l.006-.04z"/></svg>