<!--Generated by Fontisto--><svg viewBox="0 0 28 24" xmlns="http://www.w3.org/2000/svg"><path d="m27.727 5.561q-.17 4.022-5.658 11.094-5.675 7.345-9.578 7.345-2.42 0-4.09-4.48-.75-2.726-2.25-8.214-1.227-4.465-2.675-4.465c-.828.346-1.542.782-2.179 1.307l.015-.012-1.313-1.672q.409-.358 1.84-1.645t2.215-1.968q2.658-2.352 4.107-2.488c.127-.019.273-.03.422-.03.867 0 1.646.376 2.183.973l.002.003c.744.96 1.241 2.145 1.377 3.438l.003.03q.75 4.891 1.125 6.357.938 4.24 2.045 4.24.869 0 2.625-2.744c.867-1.187 1.513-2.594 1.844-4.119l.013-.073q.222-2.369-1.858-2.369c-.748.014-1.455.176-2.098.457l.035-.014q2.045-6.698 7.822-6.51 4.278.139 4.023 5.558z"/></svg>