<!--Generated by Fontisto--><svg viewBox="0 0 21 24" xmlns="http://www.w3.org/2000/svg"><path d="m21.039 11.96c-.491.129-1.055.203-1.636.203-.687 0-1.349-.103-1.973-.296l.047.013c-1.095-.344-1.996-1.04-2.591-1.954l-.011-.018c-.604-.947-.962-2.101-.962-3.338 0-.069.001-.137.003-.206v.01c-.004-.065-.006-.141-.006-.218 0-.665.175-1.288.482-1.828l-.01.018c.242-.425.69-.708 1.205-.712h.001.027c.48 0 .898.262 1.12.651l.003.006c.262.481.417 1.053.417 1.662 0 .071-.002.141-.006.211v-.01c-.019.965-.177 1.886-.457 2.752l.019-.068c.3.475.758.826 1.299.983l.016.004c.423.139.909.22 1.414.22h.069-.003l.712-.11c.506-1.129.807-2.446.822-3.832v-.005c.011-.146.017-.316.017-.487 0-1.363-.394-2.633-1.073-3.705l.017.028c-.903-1.18-2.312-1.933-3.897-1.933-.133 0-.264.005-.394.016l.017-.001c-.066-.003-.143-.005-.221-.005-1.544 0-2.926.69-3.856 1.778l-.006.007c-.941 1.147-1.512 2.629-1.512 4.245 0 .087.002.174.005.261v-.012c-.001.05-.001.11-.001.169 0 1.714.437 3.326 1.205 4.731l-.026-.052c.733 1.366 1.83 2.454 3.162 3.157l.041.02c-1.12 2.257-2.512 4.192-4.167 5.866l.002-.002c-1.469-1.819-2.735-3.894-3.712-6.126l-.068-.175c-1.236-2.997-2.109-6.471-2.454-10.099l-.011-.147h-4.109c.477 4.241 1.482 8.114 2.955 11.747l-.106-.295c.908 2.372 2.11 4.42 3.592 6.231l-.031-.039c.724.922 1.575 1.703 2.535 2.331l.04.025c.343.232.766.37 1.222.37.419 0 .811-.117 1.144-.321l-.01.005c.701-.475 1.311-.998 1.857-1.582l.006-.006c.912-.915 1.756-1.899 2.525-2.942l.05-.072c.878-1.145 1.681-2.439 2.351-3.81l.06-.135c1.013-.006 1.995-.125 2.938-.346l-.089.018z"/></svg>