<!--Generated by Fontisto--><svg viewBox="0 0 24 24" xmlns="http://www.w3.org/2000/svg"><path d="m2.705 15.571-2.596-7.348c-.063-.168-.102-.361-.109-.564v-.003c.009-.568.471-1.025 1.04-1.025.013 0 .026 0 .04.001h-.002 12.08.014c.566 0 1.025.459 1.026 1.025-.009.18-.041.349-.093.509l.004-.014-2.628 7.418c-.139.561-.631.972-1.223.986h-.001-.075c-.003 0-.006 0-.01 0-.579 0-1.064-.4-1.195-.938l-.002-.008-1.166-3.552c-.096-.296-.369-.505-.691-.505-.01 0-.02 0-.03.001h.001c-.007 0-.015 0-.023 0-.326 0-.602.209-.704.5l-.002.005-1.167 3.553c-.131.546-.615.946-1.193.946h-.07c-.597-.001-1.096-.418-1.223-.977l-.002-.008zm20.218-1.668c-.053-.01-.113-.016-.175-.016-.184 0-.356.053-.502.144l.004-.002c-.605.39-1.342.627-2.133.64h-.003c-.039.002-.085.003-.131.003-1.486 0-2.706-1.143-2.828-2.597l-.001-.01c.862.339 1.861.536 2.906.536.164 0 .327-.005.489-.014l-.022.001h.056c1.005 0 1.948-.262 2.765-.722l-.028.015c.423-.285.697-.763.697-1.304 0-.149-.021-.294-.06-.431l.003.011c-.193-2.116-1.959-3.761-4.109-3.761-.074 0-.148.002-.222.006h.01c-.047-.002-.102-.003-.157-.003-2.695 0-4.88 2.185-4.88 4.88 0 .107.003.214.01.319l-.001-.014c-.001.035-.001.077-.001.118 0 2.802 2.271 5.073 5.073 5.073.09 0 .179-.002.268-.007l-.012.001c1.248-.004 2.41-.372 3.384-1.005l-.024.015c.232-.164.395-.411.446-.697l.001-.007c.011-.057.018-.122.018-.188 0-.494-.361-.903-.834-.978l-.006-.001z"/></svg>