<!--Generated by Fontisto--><svg viewBox="0 0 24 24" xmlns="http://www.w3.org/2000/svg"><path d="m3.438 13.605c.073-.281.149-.56.222-.842.284-1.083.565-2.17.855-3.254.105-.442.259-.831.459-1.19l-.012.024c.215-.371.583-.632 1.016-.699l.008-.001c.101-.023.218-.036.338-.036.467 0 .887.198 1.182.515l.001.001c.136.156.243.341.31.544l.003.011c.185.492.377 1.125.535 1.772l.025.124q.391 1.482.786 2.966c.006.023 0 .05.033.07.056-.222.116-.442.172-.661q.51-1.987 1.018-3.97c.062-.248.126-.495.191-.743.049-.185.124-.346.222-.491l-.004.006c.149-.221.38-.376.649-.422l.006-.001c.313-.065.674-.103 1.044-.104h.001c.073 0 .086.017.07.086q-.466 1.779-.928 3.558-.684 2.631-1.371 5.259c-.046.172-.089.347-.135.518-.01.033-.014.062-.059.066-.07.007-.151.011-.234.011-.263 0-.517-.039-.756-.111l.018.005c-.122-.043-.225-.11-.31-.195-.12-.112-.231-.229-.335-.351l-.005-.006c-.113-.169-.212-.363-.287-.569l-.006-.019c-.265-.639-.505-1.403-.679-2.192l-.017-.094c-.281-1.12-.568-2.24-.852-3.36-.018-.07-.047-.132-.087-.186l.001.001c-.043-.077-.125-.129-.218-.129-.002 0-.003 0-.005 0-.113.011-.205.087-.239.189l-.001.002c-.096.304-.165.614-.248.922-.334 1.288-.658 2.58-1.001 3.865-.102.383-.271.743-.4 1.12-.138.361-.369.66-.665.876l-.005.004c-.135.104-.3.174-.481.195h-.005c-.154.021-.333.032-.514.032-.054 0-.107-.001-.161-.003h.008c-.059 0-.08-.023-.099-.08q-.48-1.823-.968-3.643-.631-2.384-1.27-4.777l-.238-.902c-.006-.03-.032-.073.03-.079.105-.015.226-.023.349-.023.399 0 .778.089 1.117.248l-.016-.007c.234.122.41.33.487.581l.002.007c.172.56.301 1.126.446 1.691q.495 1.913.984 3.826c.003.017.008.033.014.048l-.001-.001z"/><path d="m15.343 16.739c.099-.149.188-.281.278-.416q1.44-2.146 2.88-4.288c.011-.014.018-.032.018-.051 0-.023-.009-.043-.025-.058q-1.194-1.774-2.385-3.548l-.72-1.083c-.01-.017-.033-.033-.026-.066l.489.03c.304.02.602.04.902.056.244.03.461.129.636.276l-.002-.002c.158.12.291.264.396.426l.004.007c.518.786 1.03 1.576 1.569 2.346.24.34.343.307.598.056.126-.149.242-.316.342-.493l.008-.016c.446-.664.886-1.334 1.341-1.992.253-.354.642-.596 1.089-.65l.007-.001c.275-.031.594-.048.916-.048.104 0 .208.002.311.005h-.015c.08 0 .03.043.014.066-.222.33-.442.661-.667.991q-1.22 1.822-2.438 3.633c-.014.017-.023.04-.023.064 0 .028.011.053.029.071q1.546 2.299 3.089 4.598c.014.023.046.046.036.07s-.056.014-.08.014c-.089.003-.193.005-.298.005-.293 0-.583-.014-.869-.04l.037.003c-.424-.053-.794-.25-1.066-.541l-.001-.001c-.133-.16-.257-.338-.364-.527l-.01-.018c-.433-.647-.862-1.295-1.295-1.946-.068-.106-.154-.194-.254-.262l-.003-.002c-.033-.03-.077-.048-.126-.048s-.093.018-.126.049c-.073.051-.134.114-.183.186l-.002.003c-.545.779-1.05 1.586-1.579 2.378-.251.37-.639.631-1.09.709l-.01.001c-.214.037-.461.057-.713.057-.071 0-.142-.002-.212-.005h.01z"/><path d="m14.639 8.758v.129q0 3.29.006 6.58c0 .012.001.025.001.039 0 .45-.248.843-.615 1.048l-.006.003c-.128.082-.281.138-.445.155h-.005c-.152.017-.327.026-.505.026-.01 0-.021 0-.031 0h.002c-.109 0-.109 0-.109-.106 0-1.186 0-2.372-.006-3.558 0-.998-.01-1.992 0-2.99.009-.189.115-.35.269-.438l.003-.001c.146-.096.307-.16.459-.245.304-.147.563-.301.807-.474l-.017.012c.056-.053.115-.112.194-.182z"/><path d="m12.912 9.182c0-.012 0-.026 0-.04 0-.282.036-.555.104-.815l-.005.022c.09-.326.276-.6.526-.798l.003-.002c.231-.161.51-.27.811-.303l.008-.001c.089-.017.178-.023.267-.036.073-.014.093.026.096.089 0 .014.001.032.001.049 0 .119-.011.236-.032.35l.002-.012c-.066.403-.25.755-.516 1.028-.152.143-.335.255-.538.324l-.01.003c-.232.085-.433.193-.615.325l.007-.005c-.026.02-.056.059-.093.04s-.017-.066-.02-.099.003-.082.003-.118z"/></svg>