<!--Generated by Fontisto--><svg viewBox="0 0 24 24" xmlns="http://www.w3.org/2000/svg"><path d="m0 12c0-.005 0-.011 0-.017 0-1.763.385-3.437 1.076-4.94l-.03.074 5.727 15.68c-2.045-.998-3.713-2.495-4.887-4.338l-.029-.048c-1.165-1.784-1.857-3.967-1.857-6.313 0-.034 0-.069 0-.103v.005zm20.099-.609c0 .212-.015.421-.042.625l.003-.024c-.046.305-.101.566-.171.822l.011-.049q-.117.468-.179.686t-.27.921q-.21.702-.273.905l-1.186 3.994-4.338-12.889q.72-.047 1.374-.125c.184-.009.339-.124.404-.286l.001-.003c.029-.06.046-.131.046-.206 0-.103-.032-.198-.086-.276l.001.002c-.084-.129-.227-.214-.391-.214-.019 0-.038.001-.056.003h.002l-3.2.16q-1.17-.016-3.152-.16c-.016-.002-.035-.003-.053-.003-.1 0-.192.031-.268.084l.002-.001c-.083.056-.145.137-.178.231l-.001.003c-.02.057-.031.123-.031.191 0 .034.003.068.008.101v-.004c.017.103.068.192.14.257.081.073.186.119.303.125h.001l1.248.125 1.873 5.12-2.622 7.865-4.369-12.991q.72-.047 1.374-.125c.184-.009.339-.124.404-.286l.001-.003c.029-.06.046-.131.046-.206 0-.103-.032-.198-.086-.276l.001.002c-.084-.129-.227-.214-.391-.214-.019 0-.038.001-.056.003h.002l-3.2.16q-.11 0-.359-.008t-.406-.008c1.09-1.652 2.53-2.988 4.222-3.925l.061-.031c1.657-.918 3.632-1.459 5.735-1.459 1.575 0 3.08.304 4.458.855l-.081-.029c1.437.575 2.671 1.36 3.73 2.333l-.009-.008h-.16c-.011 0-.023 0-.036 0-.557 0-1.056.244-1.398.63l-.002.002c-.354.38-.571.892-.571 1.454v.03-.002c0 .132.011.262.033.388l-.002-.014q.031.187.062.335c.033.137.076.257.13.37l-.005-.011q.094.21.141.328c.061.137.124.252.194.362l-.007-.011q.141.234.195.328t.226.374l.218.359c.595.94.958 2.079.982 3.301v.007zm-7.896 1.655 3.698 10.096c.012.066.04.125.08.173v-.001c-1.185.433-2.552.684-3.978.686h-.001c-.008 0-.018 0-.027 0-1.198 0-2.354-.182-3.441-.521l.082.022zm10.315-6.8c.933 1.654 1.482 3.631 1.482 5.736v.025-.001.087c0 2.187-.603 4.233-1.653 5.981l.029-.053c-1.067 1.812-2.539 3.282-4.297 4.315l-.056.031 3.667-10.586c.51-1.269.841-2.738.919-4.274l.001-.033c0-.01 0-.023 0-.035 0-.423-.034-.838-.1-1.242l.006.044z"/></svg>