<!--Generated by Fontisto--><svg viewBox="0 0 19 24" xmlns="http://www.w3.org/2000/svg"><path d="m10.818 13.803.187 10.197c-.45-.091-.972-.149-1.505-.16h-.009c-.544.013-1.066.071-1.573.17l.059-.01.187-10.197q-.577-.995-2.43-4.262t-3.12-5.402q-1.271-2.134-2.613-4.139c.465.131 1.001.209 1.554.216h.004c.576-.016 1.125-.094 1.653-.227l-.053.011q.909 1.6 1.926 3.31t2.409 3.988q1.392 2.279 2 3.274.534-.88 1.579-2.56t1.694-2.74 1.514-2.538 1.542-2.734c.463.127.994.2 1.542.202h.001c.585-.002 1.151-.075 1.692-.212l-.048.01q-.4.56-.866 1.28t-.714 1.132q-.252.418-.815 1.385t-.706 1.211q-2.106 3.574-5.091 8.795z"/></svg>