<!--Generated by Fontisto--><svg viewBox="0 0 24 24" xmlns="http://www.w3.org/2000/svg"><path d="m12 24c-.002 0-.005 0-.007 0-6.627 0-12-5.373-12-12 0-4.943 2.989-9.189 7.259-11.027l.078-.03c1.378-.598 2.984-.946 4.67-.946 6.629 0 12.003 5.374 12.003 12.003 0 4.942-2.987 9.187-7.254 11.027l-.078.03c-1.371.596-2.969.943-4.647.943-.008 0-.016 0-.024 0h.001zm-3.28-4.601c.339.308.792.497 1.289.497.056 0 .112-.002.168-.007h-.007.046c1.267-.045 2.463-.158 3.637-.337l-.172.022c.271-.061.508-.181.707-.345l-.003.002c1.149-.367 2.146-.839 3.065-1.423l-.053.032c.514-.389 1.125-.681 1.788-.837l.033-.006c.552-.129.956-.617.956-1.199 0-.057-.004-.113-.011-.168l.001.006c-.089-.628-.623-1.105-1.268-1.105-.023 0-.045.001-.067.002h.003-.021c-.966.077-1.84.415-2.568.941l.015-.01c-.167.107-.364.217-.569.314l-.034.015c.008-.108.013-.234.013-.361 0-.593-.105-1.162-.298-1.689l.011.034c-.252-.711-.634-1.32-1.122-1.826l.002.002c.536-.728.93-1.594 1.123-2.535l.007-.042c.076-.371.12-.798.12-1.235 0-.853-.167-1.668-.469-2.413l.015.043c-.095-.183-.26-.319-.458-.374l-.005-.001c-.065-.02-.14-.032-.217-.032-.001 0-.001 0-.002 0-.118.002-.231.021-.338.054l.009-.002c-.464-.96-.63-1.071-.752-1.152-.147-.098-.328-.158-.522-.16h-.001c-.119 0-.232.022-.337.062l.006-.002c-.48.241-.844.653-1.02 1.153l-.004.014c-.051.108-.091.198-.125.283-.915.06-1.723.473-2.298 1.103l-.002.003c-.136.115-.299.205-.477.258l-.009.002h.005c-.4.142-.592.474-.82 1.079-.073.228-.115.49-.115.763 0 .54.166 1.042.45 1.457l-.006-.009c-.551.473-.996 1.051-1.307 1.706l-.013.031c-.259.618-.41 1.337-.41 2.09 0 .059.001.117.003.175v-.009c-.456.446-.772 1.034-.878 1.692l-.002.017c-.008.087-.013.188-.013.29 0 .613.174 1.185.475 1.671l-.008-.014c.047.073.097.137.153.195-.01.056-.015.121-.015.187 0 .075.007.149.021.221l-.001-.007c.068.333.281.605.568.752l.006.003c.367.198.804.316 1.267.32h.001.031c.299 0 .582-.069.834-.193l-.011.005zm1.466-.209c-.555 0-.934-.146-1.04-.4-.04-.092-.063-.2-.063-.313 0-.339.207-.629.502-.751l.005-.002-.01-.006c-.096-.059-.179-.122-.256-.19l.002.002c-.031-.033-.06-.068-.087-.106l-.002-.003c-.042-.056-.08-.104-.102-.104-.006 0-.012.005-.017.014-.036.097-.071.217-.098.339l-.003.018c-.053.353-.19.667-.389.932l.004-.005c-.186.171-.435.277-.708.277-.02 0-.039-.001-.058-.002h.003c-.347-.007-.671-.095-.957-.246l.012.006c-.11-.051-.19-.149-.216-.268v-.003c.001-.254.097-.485.254-.661l-.001.001c-.047.023-.102.038-.16.038-.149-.007-.276-.091-.343-.214l-.001-.002c-.223-.362-.355-.801-.355-1.271 0-.086.004-.171.013-.255l-.001.011c.14-.599.458-1.108.895-1.484l.004-.003c-.012-.128-.019-.278-.019-.429 0-.66.131-1.29.369-1.864l-.012.032c.4-.757.946-1.386 1.607-1.869l.015-.011c-.102-.117-.976-1.158-.626-2.094.226-.61.328-.64.4-.667l.014-.005c.292-.091.542-.242.747-.441h-.001c.499-.545 1.214-.885 2.008-.885h.008.021c.083 0 .164.006.244.016l-.009-.001c.053-.155.53-1.52 1.01-1.52.056.001.107.018.15.047l-.001-.001c.28.424.544.911.764 1.421l.024.061h.006c.188-.119.406-.211.638-.266l.014-.003c.038 0 .062.01.074.032.202.448.327.969.345 1.518v.007c.012.147.018.318.018.491 0 .4-.036.791-.104 1.171l.006-.04c-.199.928-.583 1.744-1.112 2.443l.011-.015c-.092.134-.172.249-.233.352-.021.034.041.09.152.193.536.478.947 1.086 1.182 1.775l.009.029c.157.44.247.948.247 1.477 0 .313-.032.619-.092.914l.005-.029c-.018.064-.029.137-.029.213 0 .036.002.072.007.107v-.004l.018.033h.022c.653-.077 1.239-.317 1.729-.679l-.01.007c.612-.452 1.363-.75 2.179-.824l.017-.001h.018c.02-.002.043-.004.067-.004.29 0 .531.214.573.493v.003c.003.02.004.043.004.067 0 .255-.177.468-.415.524l-.004.001c-.777.179-1.46.503-2.048.946l.014-.01c-.862.55-1.856 1.012-2.91 1.337l-.087.023c-.127.147-.302.249-.5.282l-.005.001c-.952.144-2.095.25-3.254.294l-.059.002z"/></svg>