<!--Generated by Fontisto--><svg viewBox="0 0 18 24" xmlns="http://www.w3.org/2000/svg"><path d="m9.206 17.662v1.7q-.014 3.908-.08 4.08c-.113.286-.369.493-.678.535h-.004c-.03.001-.066.001-.102.001-.844 0-1.645-.188-2.362-.524l.034.014c-.844-.242-1.573-.653-2.181-1.196l.005.005c-.113-.131-.193-.294-.226-.474l-.001-.006c-.001-.015-.002-.033-.002-.05 0-.107.02-.209.057-.303l-.002.006c.139-.238.29-.444.459-.633l-.003.004q.4-.495 2.422-2.891.014 0 .8-.937c.13-.165.313-.282.523-.327l.006-.001c.076-.017.163-.027.252-.027.148 0 .289.027.419.077l-.008-.003c.205.082.375.216.499.385l.002.003c.107.144.171.325.171.522 0 .014 0 .029-.001.043v-.002zm-1.995-3.36v.03c0 .432-.292.796-.69.905l-.007.002-1.606.522q-3.68 1.178-3.908 1.178c-.317-.018-.586-.207-.718-.475l-.002-.005c-.124-.295-.205-.637-.227-.995v-.009c-.032-.314-.05-.679-.05-1.048 0-.416.023-.827.068-1.231l-.005.05c.021-.609.166-1.179.411-1.692l-.011.026c.134-.257.399-.429.704-.429.016 0 .032 0 .048.001h-.002c1.109.356 2.004.706 2.875 1.1l-.171-.069 1.539.629 1.124.455c.204.079.368.222.473.404l.002.004c.097.167.154.368.154.582 0 .023-.001.047-.002.07v-.003zm11.056 3.976c-.249.84-.671 1.562-1.228 2.158l.003-.003c-.471.699-1.078 1.27-1.788 1.686l-.026.014c-.101.049-.22.078-.346.078-.188 0-.362-.065-.499-.173l.002.001q-.187-.134-2.462-3.84l-.629-1.03c-.1-.144-.159-.323-.159-.515 0-.035.002-.07.006-.105v.004c.025-.237.12-.448.262-.618l-.001.002c.169-.25.452-.412.772-.412.122 0 .239.024.345.066l-.006-.002q.014.014 1.593.535 2.72.88 3.239 1.064c.239.068.448.162.639.281l-.011-.006c.191.149.313.38.313.639 0 .063-.007.124-.021.183l.001-.005zm-8.994-8.459q.067 1.366-.72 1.633-.776.227-1.526-.95l-5.059-8c-.016-.061-.024-.13-.024-.202 0-.249.107-.472.278-.627l.001-.001c.784-.574 1.719-.994 2.734-1.193l.044-.007c.735-.282 1.586-.445 2.475-.445.185 0 .369.007.55.021l-.024-.001c.32.055.574.291.655.597l.001.006q.04.24.294 4.089t.322 5.082zm8.859 1.446c.005.035.008.075.008.116 0 .279-.14.525-.354.672l-.003.002q-.201.134-4.4 1.151-.897.201-1.218.308l.014-.026c-.07.019-.15.03-.233.03-.139 0-.271-.031-.389-.086l.006.002c-.208-.092-.377-.239-.493-.423l-.003-.005c-.125-.159-.201-.362-.201-.582s.076-.424.203-.584l-.002.002q.014-.014 1.004-1.366 1.673-2.289 2.008-2.73c.135-.197.285-.368.453-.519l.003-.002c.129-.085.287-.135.457-.135.152 0 .295.04.418.111l-.004-.002c.678.466 1.231 1.065 1.633 1.761l.014.026c.5.629.875 1.38 1.076 2.2l.008.04z"/></svg>