<!--Generated by Fontisto--><svg viewBox="0 0 34 24" xmlns="http://www.w3.org/2000/svg"><path d="m13.544 16.419 9.216-4.762-9.216-4.818zm3.524-16.419q3.2 0 6.181.086t4.371.181l1.39.08q.019 0 .32.029c.167.013.317.033.465.061l-.026-.004q.134.029.448.086c.205.035.388.088.561.158l-.018-.006q.229.095.534.248c.225.114.419.238.599.377l-.008-.006c.203.158.383.323.549.502l.003.003c.102.107.199.222.288.342l.007.01c.202.318.388.686.537 1.071l.015.044c.24.559.417 1.207.501 1.885l.004.035q.152 1.219.24 2.6t.105 2.16v3.352c.001.078.001.171.001.263 0 1.853-.125 3.678-.367 5.465l.023-.208c-.086.704-.255 1.344-.498 1.946l.018-.051c-.162.447-.368.834-.62 1.186l.01-.015-.266.32c-.169.182-.349.347-.542.497l-.01.008c-.171.134-.365.254-.571.353l-.019.008q-.305.143-.534.24c-.156.064-.338.117-.527.15l-.016.002q-.314.057-.457.086t-.438.057-.314.029q-4.775.372-11.937.372-3.943-.038-6.848-.124t-3.819-.143l-.934-.08-.686-.08c-.404-.05-.757-.117-1.102-.204l.062.013c-.376-.118-.697-.253-1.003-.415l.032.015c-.417-.205-.772-.467-1.075-.78l-.001-.001c-.102-.107-.199-.222-.288-.342l-.007-.01c-.202-.318-.388-.686-.537-1.071l-.015-.044c-.24-.559-.417-1.207-.501-1.885l-.004-.035q-.152-1.219-.24-2.6t-.105-2.16v-3.352c-.001-.078-.001-.171-.001-.263 0-1.853.125-3.678.367-5.465l-.023.208c.086-.704.255-1.344.498-1.946l-.018.051c.162-.447.368-.834.62-1.186l-.01.015.266-.32c.169-.182.349-.347.542-.497l.01-.008c.172-.134.365-.257.57-.362l.021-.01q.305-.152.534-.248c.156-.064.338-.117.527-.15l.016-.002q.314-.057.448-.086c.121-.024.271-.044.424-.056l.015-.001q.305-.029.32-.029 4.783-.35 11.946-.35z"/></svg>