<!--Generated by Fontisto--><svg viewBox="0 0 24 24" xmlns="http://www.w3.org/2000/svg"><path d="m12 24c-6.627 0-12-5.373-12-12s5.373-12 12-12 12 5.373 12 12c-.008 6.624-5.376 11.992-11.999 12zm2.24-13.84.514 7.475h3.032l.542-7.475-.273.096c-.536.173-1.153.273-1.794.273-.026 0-.053 0-.079-.001h.004c-.008 0-.017 0-.026 0-.692 0-1.352-.135-1.955-.381l.035.012zm-8.6-2.244.96 9.721h3.128l.385-3.898 2.695-.674v-1.492h-2.488l.16-1.476 3.032-.193-.498-1.989h-7.374zm10.627-1.556c-.019-.001-.042-.001-.065-.001-.491 0-.94.179-1.285.476l.003-.002c-.331.293-.539.719-.539 1.194 0 .02 0 .04.001.06v-.003c-.001.016-.001.034-.001.052 0 .48.211.911.545 1.206l.002.002c.364.3.834.481 1.348.481s.984-.182 1.351-.484l-.004.003c.336-.295.546-.725.546-1.204 0-.017 0-.033-.001-.05v.002c0-.014.001-.031.001-.047 0-.479-.211-.909-.544-1.202l-.002-.002c-.345-.299-.799-.482-1.295-.482-.021 0-.043 0-.064.001z"/></svg>