<!--Generated by Fontisto--><svg viewBox="0 0 24 24" xmlns="http://www.w3.org/2000/svg"><path d="m19.031 15.388c-.476 0-.862-.387-.862-.863 0-.476.386-.863.862-.863.476 0 .862.387.862.863 0 .476-.386.863-.862.863zm0-2.88c-1.112 0-2.014.902-2.014 2.014 0 1.112.901 2.014 2.014 2.014 1.112 0 2.014-.901 2.014-2.014 0-1.113-.903-2.014-2.015-2.014z"/><path d="m4.894 15.388c-.476-.001-.862-.387-.862-.863 0-.476.386-.862.862-.863.476 0 .862.387.862.863 0 .476-.386.863-.862.863zm0-2.88c-1.112 0-2.014.902-2.014 2.014 0 1.112.901 2.014 2.014 2.014 1.112 0 2.014-.901 2.014-2.014v-.001c0-1.112-.902-2.014-2.014-2.014-.001 0-.001 0-.002 0z"/><path d="m11.507 9.727-.143-2.64h2.202l3.023 2.64zm-.854 0h-3.462l1.207-2.64h2.254zm-4.695 0h-1.064l2.014-2.64h.64zm17.46 2.16-.18-.578c-.191-.598-.694-1.044-1.312-1.151l-.01-.001-4.262-.71-3.108-2.646c-.293-.251-.677-.404-1.096-.404-.001 0-.002 0-.003 0h-6.24-.001c-.585 0-1.103.288-1.42.729l-.004.005-1.854 2.607-1.954.2c-.547.059-.987.454-1.112.973l-.002.009-.292 1.259c-.001 0-.002 0-.003 0-.187 0-.352.091-.454.232l-.001.002c-.068.092-.109.207-.109.331 0 .063.01.124.03.181l-.001-.004.18.539c.212.622.792 1.062 1.474 1.062h.554c0-1.467 1.189-2.656 2.655-2.656 1.467 0 2.656 1.189 2.656 2.656h8.826c0-1.467 1.189-2.656 2.656-2.656h.001c1.467 0 2.656 1.189 2.656 2.656h.458c.769 0 1.419-.509 1.631-1.209l.003-.012.198-.666c.015-.049.024-.106.024-.164 0-.132-.044-.253-.117-.351l.001.001c-.108-.142-.277-.234-.467-.234z"/></svg>