<!--Generated by Fontisto--><svg viewBox="0 0 34 24" xmlns="http://www.w3.org/2000/svg"><path d="m27.627 22.074c-2.718-.005-4.921-2.207-4.926-4.925.003-1.785.955-3.346 2.378-4.208l.022-.012 1.626 4.543c.136.376.489.64.904.64.115-.001.225-.022.327-.06l-.007.002c.374-.137.636-.49.636-.904 0-.115-.02-.226-.058-.329l.002.007-1.626-4.546c.215-.035.464-.057.717-.059h.003c2.718.005 4.92 2.207 4.926 4.925v.001c-.005 2.718-2.206 4.92-4.923 4.926h-.001zm-10.88-6.74-3.124-6.263 8.186-.423zm-3.124.853c-.27-1.848-1.245-3.429-2.639-4.487l-.017-.012.954-1.726 3.105 6.225zm-5.145 0 1.549-2.8c.832.704 1.424 1.67 1.651 2.768l.005.032zm-1.628 5.887c-2.718-.005-4.921-2.207-4.926-4.925.005-2.718 2.207-4.921 4.925-4.926.536 0 1.051.086 1.533.245l-.035-.01-2.337 4.231c-.075.134-.12.294-.12.464 0 .18.05.348.136.492l-.002-.004c.17.285.476.472.826.473h4.828c-.47 2.274-2.456 3.959-4.835 3.96zm20.78-11.775c-.002 0-.005 0-.008 0-.486 0-.96.051-1.418.147l.045-.008-3.134-8.758c-.108-.294-.348-.516-.645-.599l-.007-.002-3.84-1.048c-.076-.022-.163-.034-.253-.034-.441 0-.812.297-.925.702l-.002.007c-.021.075-.034.162-.034.252 0 .44.296.811.7.924l.007.002 3.36.916 1.39 3.873-10.174.525-.379-.758h1.109.001c.265 0 .505-.107.678-.281.174-.174.281-.414.281-.678v-.001c0-.53-.43-.96-.96-.96h-5.52c-.53 0-.96.43-.96.96v.001c0 .265.107.505.281.678.174.174.414.281.678.281h.001 2.257l.72 1.44-1.593 2.88c-.723-.287-1.56-.454-2.437-.456h-.001c-3.78.003-6.844 3.066-6.85 6.845v.001c.004 3.781 3.067 6.845 6.848 6.85 3.439-.006 6.284-2.545 6.768-5.851l.004-.037h2.955.001c.311 0 .587-.148.763-.377l.002-.002 6.433-8.499.666 1.862c-2.192 1.171-3.659 3.442-3.662 6.055v.001c.004 3.781 3.067 6.844 6.848 6.849 3.78-.005 6.844-3.068 6.848-6.848-.005-3.78-3.068-6.843-6.848-6.847z"/></svg>