<!--Generated by Fontisto--><svg viewBox="0 0 23 24" xmlns="http://www.w3.org/2000/svg"><path d="m14.275 19.36c.001-.426.346-.771.772-.772h3.101c.426.001.771.346.772.772-.001.426-.346.771-.772.772h-3.101c-.426-.001-.771-.346-.772-.772zm-6.174 0c-.001.426-.346.771-.772.772h-3.101c-.426-.001-.771-.346-.772-.772.001-.426.346-.771.772-.772h3.101c.426.001.771.346.772.772zm-3.741-17.11h13.727c.499 0 .903.404.903.903l-.462 10.349v.001c0 .499-.404.903-.903.903h-12.8c-.499 0-.903-.404-.903-.903v-.001l-.462-10.349c0-.499.405-.903.904-.903zm17.685 1.944h-1.531v-3.143c-.001-.578-.469-1.047-1.047-1.048h-16.48c-.577.002-1.045.47-1.046 1.047v3.143h-1.474c-.255.001-.461.207-.462.462v3.826c0 .255.207.461.462.462h1.474v15.055h3.845v-2.013h10.865v2.013h3.846v-2.839c.015-.066.024-.142.025-.22v-12h1.531c.255-.001.461-.207.462-.462v-3.826c0-.255-.207-.461-.462-.462z"/></svg>