<!--Generated by Fontisto--><svg viewBox="0 0 24 24" xmlns="http://www.w3.org/2000/svg"><path d="m20.515 13.754c-.004.485-.395.876-.88.88h-3.548c-.485-.003-.877-.395-.88-.88.004-.485.395-.876.88-.88h3.548c.484.004.876.396.88.88zm-12.376 0c-.003.485-.395.877-.88.88h-3.548c-.485-.003-.877-.395-.88-.88.004-.485.395-.876.88-.88h3.548c.484.004.876.396.879.88zm-1.84-8.167h11.404l1.399 3.562c-.022 0-.044-.004-.069-.004h-14.134zm17.68 2.706c-.108-.635-.653-1.112-1.31-1.112-.074 0-.147.006-.217.018l.008-.001-2.183.356c-.035.007-.065.015-.094.026l.005-.002-1.406-3.578h-13.566l-1.406 3.578c-.025-.009-.056-.017-.087-.023l-2.185-.357c-.062-.01-.134-.016-.208-.016-.657 0-1.204.477-1.311 1.104l-.001.008c-.01.063-.016.135-.016.208 0 .657.477 1.203 1.104 1.311l.008.001 1.271.209c-.78.751-1.272 1.795-1.3 2.955v.005 6.086h4.4v-2.3h12.429v2.3h4.4v-3.248c.018-.076.028-.163.028-.253v-2.586c-.027-1.122-.485-2.132-1.213-2.876l.001.001 1.766-.29c.634-.108 1.11-.653 1.11-1.309 0-.074-.006-.147-.018-.218l.001.008z"/></svg>