<!--Generated by Fontisto--><svg viewBox="0 0 21 24" xmlns="http://www.w3.org/2000/svg"><path d="m3.267 23.498c-.034-.225-.054-.484-.054-.748 0-.108.003-.214.01-.32l-.001.015.017-.844 1.07-.034.502-.761c.217-.34.438-.634.678-.911l-.008.009.16-.135h5.054c4.89 0 5.065.006 5.194.107.235.266.456.559.654.868l.017.028.535.794 1.07.034.017.704c.028 1.026-.017 1.28-.24 1.504-.09.116-.23.189-.387.189-.021 0-.041-.001-.061-.004h.002c-.018.002-.038.004-.059.004-.158 0-.299-.073-.39-.188l-.001-.001c-.169-.16-1.746-2.434-1.82-2.62-.871-.062-1.887-.098-2.911-.098-.565 0-1.128.011-1.688.032l.081-.002-4.485.006-.872 1.296c-.357.554-.696 1.023-1.058 1.474l.026-.034c-.102.086-.235.138-.38.138-.003 0-.006 0-.009 0-.313-.004-.577-.212-.663-.497l-.001-.005zm7.42-5.093-4.607-.017-.897-.902-.902-.902v-2.425c0-1.33.028-2.665.056-2.96.235-2.236 1.588-4.11 3.483-5.07l.037-.017c.46-.242.994-.433 1.556-.546l.038-.006c.364-.061.783-.096 1.21-.096.579 0 1.144.064 1.686.185l-.051-.01c1.132.309 2.104.88 2.886 1.646l-.001-.001c.902.882 1.544 2.027 1.802 3.311l.007.041c.083.728.131 1.571.131 2.426 0 .264-.005.528-.014.79l.001-.038.028 2.755-.924.924-.924.918zm-.89-2.56c-.2.126-.331.345-.331.595 0 .127.034.246.093.349l-.002-.003c.174.293.333.338 1.172.338h.766l.203-.186c.148-.125.241-.311.241-.518 0-.253-.139-.474-.345-.59l-.003-.002c-.152-.096-.287-.113-.89-.113-.65-.004-.729.007-.904.125zm-3.797-5.795c-.209.555-.331 1.197-.331 1.867 0 .12.004.24.012.358l-.001-.016-.006 1.04.907.913.911.909.428-.011c.422-.006.422-.006.687-.265l.259-.259h3.662l.265.259.259.259h.88l1.786-1.786v-1.03c.009-.117.014-.253.014-.39 0-.71-.14-1.387-.394-2.006l.013.035c-.651-1.568-2.03-2.718-3.704-3.035l-.031-.005c-.271-.054-.583-.086-.902-.086-.001 0-.003 0-.004 0-2.136.012-3.959 1.341-4.699 3.215l-.012.034zm3.431-5.916.13-.874c.067-.48.13-.88.13-.89s-2.18-.011-4.845-.011h-4.846v-1.352h9.69v-.141c.06-.363.294-.661.613-.808l.007-.003c.113-.035.242-.055.377-.055.154 0 .301.026.438.075l-.009-.003c.287.139.5.394.578.702l.002.007.039.226h9.674v1.352h-9.696l.028.18c.074.434.203 1.409.203 1.498s-.107.096-1.256.096z"/></svg>