<!--Generated by Fontisto--><svg viewBox="0 0 17 24" xmlns="http://www.w3.org/2000/svg"><path d="m4.51 18.946.713 2.69 1.879.68v1.684h2.546v-1.684l1.879-.68.714-2.69h-7.73z"/><path d="m14.962 12.17c0 .45-.365.814-.814.814h-11.542c-.225 0-.429-.092-.576-.24-.148-.147-.24-.351-.24-.576l-.417-9.33c0-.45.365-.814.814-.814h12.374c.225 0 .429.092.576.24.148.147.24.351.24.576zm.352 2.782c0 .384-.311.695-.694.696h-2.8c-.384-.001-.695-.312-.696-.696.001-.384.312-.695.696-.696h2.8c.383.001.693.312.694.695zm-9.753 0c-.001.384-.312.695-.696.696h-2.8c-.384-.001-.695-.312-.696-.696.001-.384.312-.695.696-.696h2.8c.384.001.694.312.696.695zm10.246-14.952h-14.864c-.521.001-.943.423-.944.944v18.135c0 1.414 1.146 2.56 2.56 2.56h1.739l-.836-3.478h9.795l-.835 3.481h1.74c1.414 0 2.56-1.146 2.56-2.56.014-.064.023-17.051.023-17.051v-1.081c-.002-.521-.423-.942-.944-.944z"/></svg>