<!--Generated by Fontisto--><svg viewBox="0 0 13 24" xmlns="http://www.w3.org/2000/svg"><path d="m0 24h3.15c-.176-.634-.552-1.906-1.13-4.9l-2.019 4.9z"/><path d="m10.62 19.1c-.578 2.994-.954 4.266-1.13 4.9h3.15l-2.018-4.9z"/><path d="m6.317 12.662c-1.268 0-2.297-1.028-2.297-2.297 0-1.268 1.028-2.297 2.297-2.297 1.268 0 2.297 1.028 2.298 2.297 0 1.269-1.029 2.297-2.298 2.297zm4.525-2.976c-.248-7.249-4.525-9.686-4.525-9.686s-4.278 2.436-4.525 9.686c-.23 6.72 2.268 14.314 2.268 14.314h4.514s2.498-7.594 2.268-14.314z"/></svg>