<!--Generated by Fontisto--><svg viewBox="0 0 20 24" xmlns="http://www.w3.org/2000/svg"><path d="m14.494 20.659c-.873.162-1.62.614-2.155 1.25l-.005.006c-.399.521-1.021.854-1.721.854-.127 0-.251-.011-.372-.032l.013.002v-.013c-.024.001-.052.002-.08.002s-.056-.001-.084-.002h.004v.013c-.108.019-.232.03-.359.03-.7 0-1.322-.333-1.717-.849l-.004-.005c-.54-.642-1.287-1.094-2.137-1.252l-.023-.004c-.22-.049-.473-.077-.733-.077-1.539 0-2.848.986-3.329 2.361l-.008.025 1.182.395c.322-.9 1.167-1.533 2.16-1.533.18 0 .355.021.523.06l-.015-.003c.606.114 1.121.438 1.479.892l.004.005c.609.744 1.528 1.215 2.557 1.215.045 0 .09-.001.135-.003h-.006c.117 0 .24-.006.37-.014.128.008.252.014.37.014.038.002.084.003.129.003 1.029 0 1.947-.471 2.552-1.209l.005-.006c.362-.459.878-.783 1.468-.894l.015-.002c.153-.036.328-.057.508-.057.993 0 1.839.633 2.155 1.517l.005.016 1.182-.395c-.489-1.4-1.798-2.386-3.337-2.386-.26 0-.513.028-.756.081l.023-.004z"/><path d="m3.191 11.826c-.51 0-.923-.413-.923-.923.001-.469.352-.855.805-.913h.005v.006l.554.1c.288.159.48.46.48.807v.001c0 .255-.104.486-.271.654-.166.166-.396.269-.649.27zm1.131-6.198 2.72-.954h6.263l2.72.954v2.282l-5.851-.96-5.851.96zm4.017-4.382h3.67l.589 2.181h-4.848zm8.379 8.847.554-.1v-.005c.458.058.808.445.81.913 0 .51-.413.923-.923.923-.51 0-.923-.413-.923-.923v-.001c0-.347.192-.649.475-.805l.005-.002zm-11.618 9.563h.006c.323 0 .639.029.946.085l-.032-.005c1.073.198 1.993.746 2.661 1.519l.005.006c.154.19.34.347.55.465l.01.005v-.018l.903.08h.038l.907-.091v.032c.22-.123.406-.28.557-.465l.003-.003c.672-.779 1.592-1.327 2.637-1.521l.028-.004c.276-.052.594-.083.919-.084h.001.005c.338 0 .668.036.985.106l-.03-.006 4.143-11.134-3.077-.506v-3.37l-3.345-1.174-.96-3.571h-5.578l-.96 3.571-3.345 1.174v3.37l-3.077.506 4.143 11.134c.287-.064.617-.1.955-.1h.006z"/></svg>