<!--Generated by Fontisto--><svg viewBox="0 0 18 24" xmlns="http://www.w3.org/2000/svg"><path d="m1.338 24h3.318l1.883-3.771h-1.746z"/><path d="m11.215 20.229 1.883 3.771h3.318l-3.456-3.771h-1.746z"/><path d="m14.368 13.766c0 .375-.304.679-.678.679h-9.625c-.375 0-.679-.304-.679-.679l-.347-7.782c0-.375.304-.678.679-.678h10.32.001c.375 0 .679.304.679.678zm.294 2.666c-.001.32-.26.579-.58.58h-2.328c-.32-.001-.579-.26-.58-.58.001-.32.26-.579.58-.58h2.331c.32.001.58.261.58.581zm-8.132 0c-.001.32-.26.579-.58.58h-2.33c-.32-.001-.579-.26-.58-.58.001-.32.26-.579.58-.58h2.331c.32.001.58.261.58.581zm-.121-15.04h4.934l-.45 2.23h-4.034zm9.979 5.236c-.191 0-.372.041-.535.115l.008-.003v-2.33c0-.435-.353-.787-.787-.787h-2.759l.45-2.23h1.928v-1.39h-11.625v1.39h1.927l.45 2.23h-2.764c-.434.001-.786.353-.787.787v2.344c-.163-.078-.353-.125-.555-.126-.737.002-1.335.599-1.337 1.336v1.433c.003.737.6 1.334 1.337 1.336.202-.001.393-.047.563-.129l-.008.003v8.054c.002.434.353.785.787.787h12.394c.434-.001.785-.353.786-.787v-8.045c.155.069.336.11.527.11.737-.002 1.334-.599 1.336-1.336v-1.432c-.002-.737-.599-1.334-1.336-1.336z"/></svg>