<!--Generated by Fontisto--><svg viewBox="0 0 34 24" xmlns="http://www.w3.org/2000/svg"><path d="m25.678 24v-3.298h-17.819v3.298h-6.306v-8.728c.041-1.668.748-3.164 1.863-4.238l.002-.002-1.823-.3c-.909-.153-1.594-.934-1.594-1.875 0-1.049.851-1.9 1.9-1.9.108 0 .214.009.318.026l-.011-.002 3.127.51c.051.01.095.022.137.036l-.007-.002 2.014-5.126h6.434l.48-2.4h6l.48 2.4h6.062l2.015 5.13c.034-.012.076-.024.12-.033l.008-.001 3.13-.51c.091-.015.196-.024.302-.024.942 0 1.725.684 1.878 1.583l.002.011c.015.091.024.196.024.303 0 .941-.683 1.722-1.579 1.876l-.011.002-2.532.415c1.044 1.065 1.7 2.514 1.739 4.115v.007 3.707c0 .129-.015.254-.043.374l.002-.011v4.655zm-3.884-7.617c.002.699.568 1.265 1.266 1.266h5.087c.699 0 1.266-.567 1.266-1.266s-.567-1.266-1.266-1.266h-5.085c-.698.003-1.264.568-1.266 1.266zm-17.745 0c.001.699.568 1.265 1.266 1.266h5.087c.699 0 1.266-.567 1.266-1.266s-.567-1.266-1.266-1.266h-5.086c-.698.002-1.264.567-1.266 1.265zm2.973-6.608h20.264c.034 0 .067.006.099.006l-2-5.106h-16.354z"/></svg>