<!--Generated by Fontisto--><svg viewBox="0 0 18 24" xmlns="http://www.w3.org/2000/svg"><path d="m2.002 15.088c.001-.377.307-.681.683-.682h2.743c.377.001.682.306.683.682-.001.377-.307.681-.683.682h-2.746c-.377-.001-.682-.306-.683-.682zm.8-13.1h12.151c.221 0 .421.09.566.234.144.145.234.344.234.565v.001l-.41 9.16c0 .221-.09.421-.234.566-.145.145-.345.234-.566.234h-11.333c-.221 0-.421-.09-.566-.234-.144-.145-.234-.344-.234-.565 0 0 0 0 0-.001l-.41-9.16c0-.221.09-.421.234-.566.145-.145.345-.234.566-.234zm12.889 13.1c-.001.377-.307.681-.683.682h-2.746c-.377-.001-.682-.306-.683-.682.001-.377.307-.681.683-.682h2.746c.376.002.68.306.682.682zm-14.111 3.554h14.594c.511-.002.925-.415.926-.926v-16.789c-.002-.511-.415-.925-.926-.926h-14.595c-.511.002-.925.416-.926.926v16.789c.002.511.415.925.926.926z"/><path d="m0 24h3.906l2.218-4.44h-2.055l-4.069 4.44z"/><path d="m13.686 19.56h-2.055l2.218 4.44h3.906z"/></svg>