<!--Generated by Fontisto--><svg viewBox="0 0 27 24" xmlns="http://www.w3.org/2000/svg"><path d="m10.355 23.783c-.191-.092-.354-.189-.506-.299l.01.007-.106-.071c-.241-.127-.421-.341-.501-.599l-.002-.007c-.188-.696-.358-1.328-.518-1.964l-.066-.259c-.101-.339-.188-.75-.244-1.171l-.005-.043c.172-1.574.501-3.011.976-4.378l-.042.138-7.692.012c-.008 0-.017 0-.027 0-.908 0-1.644-.736-1.644-1.644 0-.068.004-.136.012-.202l-.001.008c-.002-.037-.004-.079-.004-.122 0-.696.358-1.308.901-1.663l.008-.005c-.236-.345-.377-.771-.377-1.231 0-.057.002-.114.006-.17v.007c-.005-.049-.007-.107-.007-.165 0-.77.472-1.429 1.142-1.706l.012-.004c-.19-.337-.302-.74-.302-1.169 0-.048.001-.095.004-.142v.006c-.003-.037-.004-.079-.004-.123 0-.679.355-1.274.889-1.612l.008-.005c-.153-.337-.242-.73-.242-1.145 0-.107.006-.213.018-.317l-.001.013v-.185c.058-.966.855-1.727 1.83-1.727.06 0 .119.003.177.008l-.007-.001h10.373c.051 0 .105 0 .16-.007.068-.005.14-.01.214-.01h.016c.104 0 .204.014.299.04l-.008-.002c.186.063.348.147.493.253l-.005-.004.1.063c.234.144.462.298.69.451l.102.072c.131.094.194.136.262.133.24-.005.48-.007.72-.01v9.155l.013.769c-.451.288-.867.56-.993.664-.169.341-.337.628-.523.901l.017-.026c-.085.134-.17.265-.248.4l-1.729 2.89c-.08.136-.167.271-.254.407-.164.26-.329.52-.465.79-.056.114-.089.247-.089.389 0 .045.003.089.01.132l-.001-.005.006 3.12c-.062.454-.318.839-.679 1.074l-.006.004c-.31.279-.712.462-1.155.499h-.007-.086c-.335-.003-.65-.083-.931-.222l.012.006zm7.76-10.757v-13.026h7.015.001c.17 0 .31.13.326.295v.001l1.218 12.368c.001.01.002.021.002.032 0 .182-.147.329-.329.329zm3.624-1.76c0 .181.147.328.328.328h2.511c.182 0 .329-.147.329-.329s-.147-.329-.329-.329h-2.51c-.181 0-.328.146-.328.327zm-1.873 0c0 .181.147.328.328.328h.774c.182 0 .329-.147.329-.329s-.147-.329-.329-.329h-.774c-.181 0-.327.147-.327.327zm-.694-8c0 .718.582 1.299 1.3 1.299s1.3-.582 1.3-1.3-.582-1.3-1.3-1.3c-.717.001-1.298.583-1.299 1.3zm.657 0c0-.353.287-.64.64-.64s.64.287.64.64-.287.64-.64.64c-.353 0-.639-.287-.639-.64v-.001z"/></svg>