<!--Generated by Fontisto--><svg viewBox="0 0 27 24" xmlns="http://www.w3.org/2000/svg"><path d="m1.547 24c-.17 0-.31-.13-.327-.295v-.001l-1.22-12.368c-.001-.009-.001-.02-.001-.031 0-.182.147-.329.329-.329h8.233v13.025zm3.36-3.265v.001c0 .718.582 1.301 1.301 1.301s1.301-.582 1.301-1.301c0-.718-.582-1.301-1.301-1.301s-.001 0-.002 0c-.719 0-1.301.582-1.302 1.301zm.48-8c0 .181.147.328.329.328h.764c.181 0 .328-.147.328-.328s-.147-.328-.328-.328h-.77c-.182 0-.329.147-.329.329v.003zm-3.61 0c0 .181.147.328.328.328h2.505c.181 0 .328-.147.328-.328s-.147-.328-.328-.328h-2.51-.001c-.181 0-.328.147-.328.328v.003zm9.8 9.388c-.186-.064-.348-.148-.494-.253l.006.004-.1-.063c-.234-.145-.462-.298-.69-.452l-.101-.071c-.132-.095-.194-.137-.262-.133-.24.005-.48.007-.72.01v-9.155l-.013-.77c.451-.287.867-.56.992-.664.17-.342.338-.628.524-.902l-.017.027c.085-.133.17-.265.248-.396l1.724-2.894c.08-.136.167-.272.254-.408.145-.216.299-.474.44-.74l.024-.049c.056-.113.089-.247.089-.388 0-.045-.003-.09-.01-.133l.001.005-.006-3.12c.063-.454.319-.838.68-1.072l.006-.004c.312-.281.716-.464 1.162-.5h.007c.019-.001.041-.001.063-.001.341 0 .663.081.949.224l-.012-.006c.191.092.354.19.507.3l-.01-.007.106.07c.241.127.421.341.501.6l.002.007c.187.696.358 1.329.517 1.964l.066.259c.101.34.188.751.244 1.172l.005.042c-.171 1.574-.5 3.01-.976 4.378l.042-.138 7.693-.011h.028c.908 0 1.643.736 1.643 1.643 0 .069-.004.138-.013.205l.001-.008c.002.036.004.078.004.12 0 .695-.357 1.307-.898 1.661l-.008.005c.237.345.378.771.378 1.231 0 .057-.002.113-.006.169v-.007c.005.049.007.107.007.165 0 .771-.473 1.431-1.144 1.708l-.012.004c.191.337.303.74.303 1.169 0 .047-.001.094-.004.141v-.006c.002.036.004.078.004.12 0 .679-.355 1.275-.89 1.613l-.008.005c.153.337.241.732.241 1.147 0 .105-.006.209-.017.312l.001-.013v.188c-.058.966-.855 1.727-1.83 1.727-.06 0-.119-.003-.177-.008l.007.001h-4.429c-.005 0-.01.001-.015.001s-.011 0-.016-.001h.001-5.91c-.051 0-.104 0-.16.008-.068.004-.14.01-.214.01-.005 0-.01 0-.015 0-.104 0-.204-.014-.299-.04l.008.002zm-6.015-1.387c0-.353.287-.64.64-.64s.64.287.64.64-.287.64-.64.64c-.353 0-.64-.287-.64-.64z"/></svg>