<!--Generated by Fontisto--><svg viewBox="0 0 24 24" xmlns="http://www.w3.org/2000/svg"><path d="m12 1.316c-5.901 0-10.684 4.783-10.684 10.684s4.783 10.684 10.684 10.684 10.684-4.783 10.684-10.684c-.012-5.896-4.788-10.672-10.683-10.684h-.001zm0 22.297c-6.414 0-11.613-5.199-11.613-11.613s5.199-11.613 11.613-11.613 11.613 5.199 11.613 11.613v.015c0 6.405-5.192 11.597-11.597 11.597-.005 0-.011 0-.016 0h.001z"/><path d="m12 24c-6.614-.034-11.966-5.386-12-11.997v-.003c.034-6.614 5.386-11.966 11.997-12h.003c6.614.034 11.966 5.386 12 11.997v.003c-.034 6.614-5.386 11.966-11.997 12zm0-23.226c-6.2 0-11.226 5.026-11.226 11.226s5.026 11.226 11.226 11.226 11.226-5.026 11.226-11.226c-.004-6.198-5.028-11.221-11.225-11.226zm0 22.297c-6.114 0-11.071-4.957-11.071-11.071s4.957-11.071 11.071-11.071c6.122.02 11.084 4.955 11.148 11.065v.006c-.064 6.115-5.027 11.051-11.146 11.071zm0-21.368c-5.687 0-10.297 4.61-10.297 10.297s4.61 10.297 10.297 10.297 10.297-4.61 10.297-10.297c-.026-5.676-4.62-10.271-10.294-10.297h-.002z"/><path d="m9.677 9.91c0 1.154-.936 2.09-2.09 2.09s-2.09-.936-2.09-2.09c0-.003 0-.006 0-.009 0-1.15.932-2.082 2.082-2.082h.009.009c1.15 0 2.082.932 2.082 2.082v.009z"/><path d="m18.581 9.91v.009c0 1.15-.932 2.082-2.082 2.082-.003 0-.006 0-.009 0-1.154 0-2.09-.936-2.09-2.09s.936-2.09 2.09-2.09c1.145.023 2.067.945 2.09 2.088v.002z"/><path d="m7.355 18.581c-.228-.007-.416-.169-.464-.384l-.001-.003c-.002-.015-.003-.032-.003-.049 0-.097.03-.188.081-.262l-.001.002c.087-.094.189-.172.304-.229l.006-.003 9.832-2.168c.015-.002.032-.003.049-.003.097 0 .188.03.262.081l-.002-.001c.094.087.172.189.229.304l.003.006c.01.035.016.075.016.117 0 .202-.136.373-.322.424l-.003.001-9.91 2.168h-.077z"/><path d="m7.355 18.968c-.01 0-.021.001-.032.001-.369 0-.676-.265-.741-.615l-.001-.005c-.018-.065-.029-.139-.029-.215 0-.149.039-.288.108-.408l-.002.004c.145-.168.326-.3.533-.384l.009-.003 9.832-2.245c.065-.018.139-.029.215-.029.149 0 .288.039.408.108l-.004-.002c.168.145.3.326.384.533l.003.009c.016.061.025.13.025.202 0 .392-.273.719-.639.804l-.006.001-9.91 2.245zm9.91-3.097-9.91 2.245-.077.077.077.077 9.91-2.245c0-.077.077-.077 0-.155z"/></svg>