<!--Generated by Fontisto--><svg viewBox="0 0 24 24" xmlns="http://www.w3.org/2000/svg"><path d="m12 1.316c-5.901 0-10.684 4.783-10.684 10.684s4.783 10.684 10.684 10.684 10.684-4.783 10.684-10.684c-.012-5.896-4.788-10.672-10.683-10.684h-.001zm0 22.297c-6.414 0-11.613-5.199-11.613-11.613s5.199-11.613 11.613-11.613 11.613 5.199 11.613 11.613v.015c0 6.405-5.192 11.597-11.597 11.597-.005 0-.011 0-.016 0h.001z"/><path d="m12 24c-6.614-.034-11.966-5.386-12-11.997v-.003c0-6.627 5.373-12 12-12s12 5.373 12 12c-.034 6.614-5.386 11.966-11.997 12zm0-23.226c-6.2 0-11.226 5.026-11.226 11.226s5.026 11.226 11.226 11.226 11.226-5.026 11.226-11.226c-.004-6.198-5.028-11.221-11.225-11.226zm0 22.297c-6.114 0-11.071-4.957-11.071-11.071s4.957-11.071 11.071-11.071c6.114 0 11.071 4.957 11.071 11.071s-4.957 11.071-11.071 11.071zm0-21.368c-5.687 0-10.297 4.61-10.297 10.297s4.61 10.297 10.297 10.297 10.297-4.61 10.297-10.297c-.026-5.676-4.62-10.271-10.294-10.297h-.002z"/><path d="m16.413 17.187h-8.903c-.249-.017-.447-.215-.464-.463v-.002c.017-.249.215-.447.463-.464h.002 8.903c.249.017.447.215.464.463v.002.019c0 .246-.2.446-.446.446-.007 0-.013 0-.02 0h.001z"/><path d="m16.413 17.574h-8.903c-.47 0-.852-.381-.852-.852s.381-.852.852-.852h8.903c.47 0 .852.381.852.852s-.381.852-.852.852zm-8.826-.929c-.077 0-.077.077 0 0-.02.02-.033.047-.033.077s.013.058.033.077h8.903c.043 0 .077-.035.077-.077 0-.077 0-.077-.077-.077z"/><path d="m8.671 9.91 1.084-1.084c.096-.101.155-.237.155-.387s-.059-.287-.155-.387c-.11-.108-.26-.174-.426-.174s-.316.066-.426.174l-1.084 1.084-1.084-1.084c-.11-.108-.26-.174-.426-.174s-.316.066-.426.174c-.108.11-.174.26-.174.426s.066.316.174.426l1.084 1.084-1.084 1.084c-.108.11-.174.26-.174.426s.066.316.174.426c.101.096.237.155.387.155s.287-.059.387-.155l1.084-1.084 1.084 1.084c.101.096.237.155.387.155s.287-.059.387-.155c.108-.11.174-.26.174-.426s-.066-.316-.174-.426l-.929-1.161z"/><path d="m17.032 9.91 1.084-1.084c.108-.11.174-.26.174-.426s-.066-.316-.174-.426c-.11-.108-.26-.174-.426-.174s-.316.066-.426.174l-1.084 1.084-1.084-1.084c-.11-.108-.26-.174-.426-.174s-.316.066-.426.174c-.096.101-.155.237-.155.387s.059.287.155.387l1.084 1.084-1.084 1.084c-.108.11-.174.26-.174.426s.066.316.174.426c.101.096.237.155.387.155s.287-.059.387-.155l1.084-1.084 1.084 1.084c.101.096.237.155.387.155s.287-.059.387-.155c.108-.11.174-.26.174-.426s-.066-.316-.174-.426l-.929-1.006z"/></svg>