<!--Generated by Fontisto--><svg viewBox="0 0 24 24" xmlns="http://www.w3.org/2000/svg"><path d="m12 1.316c-5.901 0-10.684 4.783-10.684 10.684s4.783 10.684 10.684 10.684 10.684-4.783 10.684-10.684c-.012-5.896-4.788-10.672-10.683-10.684h-.001zm0 22.297c-6.414 0-11.613-5.199-11.613-11.613s5.199-11.613 11.613-11.613 11.613 5.199 11.613 11.613v.015c0 6.405-5.192 11.597-11.597 11.597-.005 0-.011 0-.016 0h.001z"/><path d="m12 24c-6.614-.034-11.966-5.386-12-11.997v-.003c0-6.627 5.373-12 12-12s12 5.373 12 12c-.034 6.614-5.386 11.966-11.997 12zm0-23.226c-6.2 0-11.226 5.026-11.226 11.226s5.026 11.226 11.226 11.226 11.226-5.026 11.226-11.226c-.004-6.198-5.028-11.221-11.225-11.226zm0 22.297c-6.114 0-11.071-4.957-11.071-11.071s4.957-11.071 11.071-11.071c6.114 0 11.071 4.957 11.071 11.071s-4.957 11.071-11.071 11.071zm0-21.368c-5.687 0-10.297 4.61-10.297 10.297s4.61 10.297 10.297 10.297 10.297-4.61 10.297-10.297c0-.001 0-.003 0-.005 0-5.684-4.608-10.292-10.292-10.292-.002 0-.003 0-.005 0z"/><path d="m19.045 9.135c0 1.497-1.213 2.71-2.71 2.71s-2.71-1.213-2.71-2.71h5.419z"/><path d="m10.374 9.135c-.019 1.489-1.221 2.691-2.708 2.71h-.002c-1.489-.019-2.691-1.221-2.71-2.708v-.002h5.419z"/><path d="m16.413 17.187h-8.903c-.249-.017-.447-.215-.464-.463v-.002c.017-.249.215-.447.463-.464h.002 8.903c.249.017.447.215.464.463v.002c.003.018.004.038.004.058 0 .227-.184.41-.41.41-.021 0-.041-.002-.061-.004z"/><path d="m16.413 17.574h-8.903c-.47 0-.852-.381-.852-.852s.381-.852.852-.852h8.903c.47 0 .852.381.852.852s-.381.852-.852.852zm-8.826-.851c-.02.02-.033.047-.033.077s.013.058.033.077h8.903c.043 0 .077-.035.077-.077 0-.077 0-.077-.077-.077z"/></svg>