<!--Generated by Fontisto--><svg viewBox="0 0 24 24" xmlns="http://www.w3.org/2000/svg"><path d="m12 1.316c-5.901 0-10.684 4.783-10.684 10.684s4.783 10.684 10.684 10.684 10.684-4.783 10.684-10.684c-.012-5.896-4.788-10.672-10.683-10.684h-.001zm0 22.297c-6.414 0-11.613-5.199-11.613-11.613s5.199-11.613 11.613-11.613 11.613 5.199 11.613 11.613v.015c0 6.405-5.192 11.597-11.597 11.597-.005 0-.011 0-.016 0h.001z"/><path d="m12 24c-6.614-.034-11.966-5.386-12-11.997v-.003c0-6.627 5.373-12 12-12s12 5.373 12 12c-.034 6.614-5.386 11.966-11.997 12zm0-23.226c-6.2 0-11.226 5.026-11.226 11.226s5.026 11.226 11.226 11.226 11.226-5.026 11.226-11.226c-.004-6.198-5.028-11.221-11.225-11.226zm0 22.297c-6.114 0-11.071-4.957-11.071-11.071s4.957-11.071 11.071-11.071c6.114 0 11.071 4.957 11.071 11.071s-4.957 11.071-11.071 11.071zm0-21.368c-5.687 0-10.297 4.61-10.297 10.297s4.61 10.297 10.297 10.297 10.297-4.61 10.297-10.297c0-.001 0-.003 0-.005 0-5.684-4.608-10.292-10.292-10.292-.002 0-.003 0-.005 0z"/><path d="m9.677 9.91c0 1.154-.936 2.09-2.09 2.09s-2.09-.936-2.09-2.09c0-.003 0-.006 0-.009 0-1.15.932-2.082 2.082-2.082h.009.009c1.15 0 2.082.932 2.082 2.082v.009z"/><path d="m18.581 9.91v.009c0 1.15-.932 2.082-2.082 2.082-.003 0-.006 0-.009 0-1.154 0-2.09-.936-2.09-2.09s.936-2.09 2.09-2.09c1.145.023 2.067.945 2.09 2.088v.002z"/><path d="m16.645 18.813c-.011.001-.023.002-.035.002-.181 0-.33-.135-.352-.31v-.002c-.6-1.813-2.279-3.097-4.258-3.097s-3.658 1.285-4.249 3.066l-.009.032c-.035.111-.121.198-.23.232l-.002.001c-.041.037-.095.059-.155.059s-.114-.022-.155-.059c-.189-.052-.325-.223-.325-.425 0-.042.006-.082.017-.12l-.001.003c.72-2.175 2.735-3.717 5.11-3.717s4.39 1.542 5.099 3.679l.011.038v.31l-.232.232c-.051.049-.121.08-.197.08-.012 0-.025-.001-.036-.002h.001z"/><path d="m16.645 19.2c-.012.001-.025.001-.039.001-.344 0-.635-.226-.733-.537l-.001-.005c-.529-1.63-2.034-2.788-3.809-2.788-.022 0-.043 0-.065.001h.003c-1.79.004-3.309 1.156-3.862 2.758l-.009.029c-.065.203-.203.366-.383.462l-.004.002c-.147.052-.316.083-.493.083-.045 0-.089-.002-.132-.006h.006c-.203-.065-.366-.203-.462-.383l-.002-.004c-.065-.119-.103-.26-.103-.411 0-.074.009-.146.027-.215l-.001.006c.743-2.308 2.872-3.948 5.384-3.948h.038-.002.036c2.512 0 4.64 1.641 5.373 3.909l.011.04c.035.073.055.158.055.248 0 .141-.05.271-.134.372l.001-.001c-.077.232-.31.31-.465.387h-.232v-.774l.077-.077c-.685-1.991-2.538-3.399-4.722-3.406h-.001c-2.184.008-4.038 1.415-4.712 3.371l-.011.035v.077l.465.077-.387-.155c.628-1.947 2.424-3.33 4.543-3.33.036 0 .071 0 .107.001h-.005c2.145 0 3.968 1.377 4.635 3.295l.01.034z"/></svg>