<!--Generated by Fontisto--><svg viewBox="0 0 24 24" xmlns="http://www.w3.org/2000/svg"><path d="m12 1.316c-5.901 0-10.684 4.783-10.684 10.684s4.783 10.684 10.684 10.684 10.684-4.783 10.684-10.684c-.012-5.896-4.788-10.672-10.683-10.684h-.001zm0 22.297c-6.414 0-11.613-5.199-11.613-11.613s5.199-11.613 11.613-11.613 11.613 5.199 11.613 11.613v.015c0 6.405-5.192 11.597-11.597 11.597-.005 0-.011 0-.016 0h.001z"/><path d="m12 24c-6.614-.034-11.966-5.386-12-11.997v-.003c0-6.627 5.373-12 12-12s12 5.373 12 12c-.034 6.614-5.386 11.966-11.997 12zm0-23.226c-6.2 0-11.226 5.026-11.226 11.226s5.026 11.226 11.226 11.226 11.226-5.026 11.226-11.226c-.004-6.198-5.028-11.221-11.225-11.226zm0 22.297c-6.114 0-11.071-4.957-11.071-11.071s4.957-11.071 11.071-11.071c6.122.021 11.084 4.956 11.148 11.065v.006c-.065 6.115-5.027 11.05-11.146 11.071zm0-21.368c-5.687 0-10.297 4.61-10.297 10.297s4.61 10.297 10.297 10.297 10.297-4.61 10.297-10.297c-.026-5.676-4.62-10.271-10.294-10.297h-.002z"/><path d="m12 19.665c-.001 0-.002 0-.003 0-3.435 0-6.355-2.211-7.413-5.287l-.016-.055c-.01-.035-.016-.075-.016-.116 0-.244.198-.441.441-.441.202 0 .373.136.425.322l.001.003c.917 2.764 3.479 4.723 6.499 4.723.029 0 .058 0 .086-.001h-.004.011c3.038 0 5.619-1.954 6.555-4.674l.015-.049c.053-.189.223-.325.426-.325.244 0 .441.198.441.441 0 .041-.006.081-.016.119l.001-.003c-1.075 3.131-3.994 5.342-7.43 5.342-.001 0-.002 0-.003 0z"/><path d="m12 20.052c-.002 0-.003 0-.005 0-3.623 0-6.699-2.341-7.797-5.594l-.017-.058c-.025-.076-.039-.164-.039-.255 0-.473.384-.857.857-.857.371 0 .686.235.806.565l.002.006c.868 2.628 3.301 4.49 6.169 4.49h.026-.001.076c2.855 0 5.275-1.866 6.105-4.445l.013-.045c.121-.335.437-.57.808-.57.473 0 .857.384.857.857 0 .091-.014.179-.041.261l.002-.006c-1.115 3.31-4.191 5.652-7.814 5.652-.002 0-.004 0-.005 0zm0-.775h.068c3.253 0 6.01-2.123 6.962-5.058l.015-.052v-.077h-.077c-.992 2.947-3.729 5.032-6.954 5.032-.005 0-.009 0-.014 0h.001c-.004 0-.009 0-.013 0-3.225 0-5.963-2.085-6.939-4.981l-.015-.052s-.077-.077-.077 0c0 0-.077.077 0 .077.967 2.987 3.724 5.11 6.977 5.11h.072-.004z"/><path d="m9.987 8.052c-.232-.25-.562-.406-.929-.406s-.697.156-.928.406l-.001.001-.387.387-.387-.387c-.242-.272-.593-.442-.984-.442-.727 0-1.316.589-1.316 1.316 0 .391.17.742.441.983l.001.001 2.245 2.245 2.245-2.245c.251-.232.407-.562.407-.929s-.156-.697-.406-.928l-.001-.001z"/><path d="m18.503 8.052c-.232-.25-.562-.406-.929-.406s-.697.156-.928.406l-.001.001-.387.387-.387-.387c-.242-.272-.593-.442-.984-.442-.727 0-1.316.589-1.316 1.316 0 .391.17.742.441.983l.001.001 2.245 2.245 2.245-2.245c.216-.247.348-.573.348-.929s-.132-.682-.35-.931l.001.002z"/></svg>