<!--Generated by Fontisto--><svg viewBox="0 0 24 24" xmlns="http://www.w3.org/2000/svg"><path d="m12 1.316c-5.901 0-10.684 4.783-10.684 10.684s4.783 10.684 10.684 10.684 10.684-4.783 10.684-10.684c-.012-5.896-4.788-10.672-10.683-10.684h-.001zm0 22.297c-6.414 0-11.613-5.199-11.613-11.613s5.199-11.613 11.613-11.613 11.613 5.199 11.613 11.613v.015c0 6.405-5.192 11.597-11.597 11.597-.005 0-.011 0-.016 0h.001z"/><path d="m12 24c-6.614-.034-11.966-5.386-12-11.997v-.003c0-6.627 5.373-12 12-12s12 5.373 12 12c-.034 6.614-5.386 11.966-11.997 12zm0-23.226c-6.2 0-11.226 5.026-11.226 11.226s5.026 11.226 11.226 11.226 11.226-5.026 11.226-11.226c-.004-6.198-5.028-11.221-11.225-11.226zm0 22.297c-6.114 0-11.071-4.957-11.071-11.071s4.957-11.071 11.071-11.071c6.114 0 11.071 4.957 11.071 11.071s-4.957 11.071-11.071 11.071zm0-21.368c-5.687 0-10.297 4.61-10.297 10.297s4.61 10.297 10.297 10.297 10.297-4.61 10.297-10.297c0-.001 0-.003 0-.005 0-5.684-4.608-10.292-10.292-10.292-.002 0-.003 0-.005 0z"/><path d="m18.116 14.245c0 3.378-2.738 6.116-6.116 6.116s-6.116-2.738-6.116-6.116z"/><path d="m18.116 9.677h-1.935l.852-.619c.133-.112.217-.279.217-.465 0-.147-.053-.283-.14-.388l.001.001c-.072-.139-.215-.232-.379-.232-.003 0-.005 0-.008 0-.021-.003-.045-.004-.07-.004-.153 0-.293.061-.395.159l-2.168 1.703c-.09.112-.168.239-.228.376l-.004.011v.232c.03.306.285.542.596.542h.025-.001 3.639.009c.337 0 .611-.273.611-.611 0-.003 0-.006 0-.009-.003-.15-.061-.285-.155-.388-.088-.175-.261-.296-.463-.31h-.002z"/><path d="m10.065 10.297v-.155c0-.155-.077-.232-.232-.387l-2.168-1.703c-.133-.082-.291-.137-.46-.154h-.005c-.002 0-.005 0-.008 0-.165 0-.307.093-.378.23l-.001.002c-.085.104-.137.239-.137.386 0 .186.083.352.213.465l.001.001.852.619h-1.935c-.004 0-.008 0-.013 0-.292 0-.53.237-.53.53v.013-.001.009c0 .337.273.611.611.611h.009 3.638c.31.155.542-.077.542-.465z"/></svg>