<!--Generated by Fontisto--><svg viewBox="0 0 24 24" xmlns="http://www.w3.org/2000/svg"><path d="m12 1.316c-5.901 0-10.684 4.783-10.684 10.684s4.783 10.684 10.684 10.684 10.684-4.783 10.684-10.684c-.012-5.896-4.788-10.672-10.683-10.684h-.001zm0 22.297c-6.414 0-11.613-5.199-11.613-11.613s5.199-11.613 11.613-11.613 11.613 5.199 11.613 11.613v.015c0 6.405-5.192 11.597-11.597 11.597-.005 0-.011 0-.016 0h.001z"/><path d="m12 24c-6.614-.034-11.966-5.386-12-11.997v-.003c0-6.627 5.373-12 12-12s12 5.373 12 12c-.034 6.614-5.386 11.966-11.997 12zm0-23.226c-6.2 0-11.226 5.026-11.226 11.226s5.026 11.226 11.226 11.226 11.226-5.026 11.226-11.226c-.004-6.198-5.028-11.221-11.225-11.226zm0 22.297c-6.114 0-11.071-4.957-11.071-11.071s4.957-11.071 11.071-11.071c6.122.021 11.084 4.956 11.148 11.065v.006c-.065 6.115-5.027 11.05-11.146 11.071zm0-21.368c-5.687 0-10.297 4.61-10.297 10.297s4.61 10.297 10.297 10.297 10.297-4.61 10.297-10.297c-.026-5.676-4.62-10.271-10.294-10.297h-.002z"/><path d="m9.677 9.91c0 1.154-.936 2.09-2.09 2.09s-2.09-.936-2.09-2.09c0-.003 0-.006 0-.009 0-1.15.932-2.082 2.082-2.082h.009.009c1.15 0 2.082.932 2.082 2.082v.009z"/><path d="m18.581 9.91v.009c0 1.15-.932 2.082-2.082 2.082-.003 0-.006 0-.009 0-1.154 0-2.09-.936-2.09-2.09s.936-2.09 2.09-2.09c1.145.023 2.067.945 2.09 2.088v.002z"/><path d="m16.645 18.813c-.011.001-.023.002-.035.002-.181 0-.33-.135-.352-.31v-.002c-.6-1.813-2.279-3.097-4.258-3.097s-3.658 1.285-4.249 3.066l-.009.032c-.053.189-.223.325-.426.325-.244 0-.441-.198-.441-.441 0-.041.006-.081.016-.119l-.001.003c.72-2.175 2.735-3.717 5.11-3.717s4.39 1.542 5.099 3.679l.011.038c.01.035.016.075.016.117 0 .202-.136.373-.322.424l-.003.001h-.155z"/><path d="m16.645 19.2c-.012.001-.025.001-.039.001-.344 0-.635-.226-.733-.537l-.001-.005c-.529-1.63-2.034-2.788-3.809-2.788-.022 0-.043 0-.065.001h.003c-1.79.004-3.309 1.156-3.862 2.758l-.009.029c-.108.345-.425.592-.8.592-.102 0-.199-.018-.29-.051l.006.002c-.203-.065-.366-.203-.462-.383l-.002-.004c-.065-.119-.103-.26-.103-.411 0-.074.009-.146.027-.215l-.001.006c.743-2.308 2.872-3.948 5.384-3.948h.037-.002.036c2.512 0 4.64 1.641 5.373 3.909l.011.04c.035.073.055.158.055.248 0 .141-.05.271-.134.372l.001-.001c-.077.232-.31.31-.465.387h-.155v-.774c.043 0 .077-.035.077-.077-.685-1.991-2.538-3.399-4.722-3.406h-.001c-2.184.008-4.038 1.415-4.712 3.371l-.011.035v.077h.077c.628-1.947 2.424-3.33 4.543-3.33.036 0 .071 0 .107.001h-.005c2.145 0 3.968 1.377 4.635 3.295l.01.034z"/><path d="m9.987 7.819c-.011.001-.023.002-.035.002-.077 0-.146-.03-.197-.08l-2.555-1.548c-.094-.087-.172-.189-.229-.304l-.003-.006c-.002-.015-.003-.032-.003-.049 0-.097.03-.188.081-.262l-.001.002c.087-.094.189-.172.304-.229l.006-.003c.015-.002.032-.003.049-.003.097 0 .188.03.262.081l-.002-.001 2.555 1.548c.094.087.172.189.229.304l.003.006c.002.015.003.032.003.049 0 .097-.03.188-.081.262l.001-.002c-.072.139-.215.232-.379.232-.003 0-.005 0-.008 0z"/><path d="m9.987 8.206c-.174-.017-.332-.073-.469-.158l.005.003-2.555-1.548c-.185-.129-.322-.317-.385-.535l-.002-.007c-.018-.065-.029-.139-.029-.215 0-.149.039-.288.108-.408l-.002.004c.129-.185.317-.322.535-.385l.007-.002c.065-.018.139-.029.215-.029.149 0 .288.039.408.108l-.004-.002 2.555 1.548c.185.129.322.317.385.535l.002.007c.018.065.029.139.029.215 0 .149-.039.288-.108.408l.002-.004c-.114.275-.379.465-.69.465-.003 0-.005 0-.008 0zm-2.477-2.4h-.077v.077l2.555 1.548.077-.077z"/><path d="m14.013 7.819c-.002 0-.005 0-.008 0-.165 0-.307-.093-.378-.23l-.001-.002c-.05-.073-.08-.163-.08-.261 0-.017.001-.034.003-.051v.002c.023-.138.11-.251.23-.309l.002-.001 2.555-1.548c.073-.05.163-.08.261-.08.017 0 .034.001.051.003h-.002c.138.023.251.11.309.23l.001.002c.05.073.08.163.08.261 0 .017-.001.034-.003.051v-.002c-.023.138-.11.251-.23.309l-.002.001-2.555 1.548c-.051.049-.121.08-.197.08-.012 0-.025-.001-.036-.002h.001z"/><path d="m14.013 8.206c-.001 0-.003 0-.004 0-.291 0-.547-.153-.69-.384l-.002-.003c-.1-.146-.16-.327-.16-.521 0-.035.002-.069.006-.102v.004c.057-.229.196-.418.384-.54l.003-.002 2.555-1.548c.116-.067.256-.106.404-.106.077 0 .151.01.221.03l-.006-.001c.216.087.397.219.54.385l.002.002c.067.116.106.256.106.404 0 .077-.01.151-.03.221l.001-.006c-.057.229-.196.418-.384.54l-.003.002-2.555 1.548c-.086.053-.189.084-.3.084-.031 0-.061-.002-.09-.007h.003zm-.078-.774 2.632-1.471v-.077h-.077l-2.555 1.548-.387.31z"/></svg>