<!--Generated by Fontisto--><svg viewBox="0 0 24 24" xmlns="http://www.w3.org/2000/svg"><path d="m12 1.316c-5.901 0-10.684 4.783-10.684 10.684s4.783 10.684 10.684 10.684 10.684-4.783 10.684-10.684c-.012-5.896-4.788-10.672-10.683-10.684h-.001zm0 22.297c-6.414 0-11.613-5.199-11.613-11.613s5.199-11.613 11.613-11.613 11.613 5.199 11.613 11.613v.015c0 6.405-5.192 11.597-11.597 11.597-.005 0-.011 0-.016 0h.001z"/><path d="m12 24c-6.614-.034-11.966-5.386-12-11.997v-.003c0-6.627 5.373-12 12-12s12 5.373 12 12c-.034 6.614-5.386 11.966-11.997 12zm0-23.226c-6.2 0-11.226 5.026-11.226 11.226s5.026 11.226 11.226 11.226 11.226-5.026 11.226-11.226c-.004-6.198-5.028-11.221-11.225-11.226zm0 22.297c-6.114 0-11.071-4.957-11.071-11.071s4.957-11.071 11.071-11.071c6.114 0 11.071 4.957 11.071 11.071s-4.957 11.071-11.071 11.071zm0-21.368c-5.687 0-10.297 4.61-10.297 10.297s4.61 10.297 10.297 10.297 10.297-4.61 10.297-10.297c0-.001 0-.003 0-.005 0-5.684-4.608-10.292-10.292-10.292-.002 0-.003 0-.005 0z"/><path d="m9.677 9.91c0 1.154-.936 2.09-2.09 2.09s-2.09-.936-2.09-2.09.936-2.09 2.09-2.09h.009c1.15 0 2.082.932 2.082 2.082v.009z"/><path d="m18.581 9.91c0 1.154-.936 2.09-2.09 2.09s-2.09-.936-2.09-2.09.936-2.09 2.09-2.09h.009c1.15 0 2.082.932 2.082 2.082v.009z"/><path d="m14.71 16.877c0 2.013-1.161 3.639-2.71 3.639-1.471 0-2.71-1.626-2.71-3.639s1.161-3.639 2.71-3.639c1.471 0 2.71 1.626 2.71 3.639z"/><path d="m9.987 7.819c-.011.001-.023.002-.035.002-.077 0-.146-.03-.197-.08l-2.555-1.548c-.094-.087-.172-.189-.229-.304l-.003-.006c-.002-.015-.003-.032-.003-.049 0-.097.03-.188.081-.262l-.001.002c.087-.094.189-.172.304-.229l.006-.003c.015-.002.032-.003.049-.003.097 0 .188.03.262.081l-.002-.001 2.555 1.548c.094.087.172.189.229.304l.003.006c.002.015.003.032.003.049 0 .097-.03.188-.081.262l.001-.002c-.072.139-.215.232-.379.232-.003 0-.005 0-.008 0z"/><path d="m9.987 8.206c-.174-.017-.332-.073-.469-.158l.005.003-2.555-1.548c-.185-.129-.322-.317-.385-.535l-.002-.007c-.018-.065-.029-.139-.029-.215 0-.149.039-.288.108-.408l-.002.004c.129-.185.317-.322.535-.385l.007-.002c.065-.018.139-.029.215-.029.149 0 .288.039.408.108l-.004-.002 2.555 1.548c.185.129.322.317.385.535l.002.007c.018.065.029.139.029.215 0 .149-.039.288-.108.408l.002-.004c-.114.275-.379.465-.69.465-.003 0-.005 0-.008 0zm-2.477-2.4h-.077v.077l2.555 1.548.077-.077z"/><path d="m14.013 7.819c-.002 0-.005 0-.008 0-.165 0-.307-.093-.378-.23l-.001-.002c-.05-.073-.08-.163-.08-.261 0-.017.001-.034.003-.051v.002c.023-.138.11-.251.23-.309l.002-.001 2.555-1.548c.073-.05.163-.08.261-.08.017 0 .034.001.051.003h-.002c.138.023.251.11.309.23l.001.002c.05.073.08.163.08.261 0 .017-.001.034-.003.051v-.002c-.023.138-.11.251-.23.309l-.002.001-2.555 1.548c-.051.049-.121.08-.197.08-.012 0-.025-.001-.036-.002h.001z"/><path d="m14.013 8.206c-.001 0-.003 0-.004 0-.291 0-.547-.153-.69-.384l-.002-.003c-.1-.146-.16-.327-.16-.521 0-.035.002-.069.006-.102v.004c.057-.229.196-.418.384-.54l.003-.002 2.555-1.548c.116-.067.256-.106.404-.106.077 0 .151.01.221.03l-.006-.001c.229.057.418.196.54.384l.002.003c.067.116.106.256.106.404 0 .077-.01.151-.03.221l.001-.006c-.057.229-.196.418-.384.54l-.003.002-2.555 1.548c-.086.053-.189.084-.3.084-.031 0-.061-.002-.09-.007h.003zm-.078-.774 2.632-1.471.387-.31-.31.232-.31-.387.232.31-2.555 1.548-.387.31z"/></svg>