<!--Generated by Fontisto--><svg viewBox="0 0 24 24" xmlns="http://www.w3.org/2000/svg"><path d="m12 1.316c-5.901 0-10.684 4.783-10.684 10.684s4.783 10.684 10.684 10.684 10.684-4.783 10.684-10.684c-.012-5.896-4.788-10.672-10.683-10.684h-.001zm0 22.297c-6.414 0-11.613-5.199-11.613-11.613s5.199-11.613 11.613-11.613 11.613 5.199 11.613 11.613v.015c0 6.405-5.192 11.597-11.597 11.597-.005 0-.011 0-.016 0h.001z"/><path d="m12 24c-6.614-.034-11.966-5.386-12-11.997v-.003c0-6.627 5.373-12 12-12s12 5.373 12 12c-.034 6.614-5.386 11.966-11.997 12zm0-23.226c-6.2 0-11.226 5.026-11.226 11.226s5.026 11.226 11.226 11.226 11.226-5.026 11.226-11.226c-.004-6.198-5.028-11.221-11.225-11.226zm0 22.297c-6.114 0-11.071-4.957-11.071-11.071s4.957-11.071 11.071-11.071c6.122.02 11.084 4.955 11.148 11.065v.006c-.064 6.115-5.027 11.051-11.146 11.071zm0-21.368c-5.687 0-10.297 4.61-10.297 10.297s4.61 10.297 10.297 10.297 10.297-4.61 10.297-10.297c-.026-5.676-4.62-10.271-10.294-10.297h-.002z"/><path d="m9.677 9.91v.009c0 1.15-.932 2.082-2.082 2.082-.003 0-.006 0-.009 0-.003 0-.006 0-.009 0-1.15 0-2.082-.932-2.082-2.082 0-.003 0-.006 0-.009 0-1.154.936-2.09 2.09-2.09s2.09.936 2.09 2.09z"/><path d="m18.581 9.91v.009c0 1.15-.932 2.082-2.082 2.082-.003 0-.006 0-.009 0-.003 0-.006 0-.009 0-1.15 0-2.082-.932-2.082-2.082 0-.003 0-.006 0-.009 0-.003 0-.006 0-.009 0-1.15.932-2.082 2.082-2.082h.009c1.145.023 2.067.945 2.09 2.088v.002z"/><path d="m14.71 16.877c0 2.013-1.161 3.639-2.71 3.639s-2.71-1.626-2.71-3.639 1.161-3.639 2.71-3.639 2.71 1.626 2.71 3.639z"/></svg>