<!--Generated by Fontisto--><svg viewBox="0 0 24 24" xmlns="http://www.w3.org/2000/svg"><path d="m12 1.316c-5.901 0-10.684 4.783-10.684 10.684s4.783 10.684 10.684 10.684 10.684-4.783 10.684-10.684c-.012-5.896-4.788-10.672-10.683-10.684h-.001zm0 22.297c-6.414 0-11.613-5.199-11.613-11.613s5.199-11.613 11.613-11.613 11.613 5.199 11.613 11.613v.015c0 6.405-5.192 11.597-11.597 11.597-.005 0-.011 0-.016 0h.001z"/><path d="m12 24c-6.614-.034-11.966-5.386-12-11.997v-.003c0-6.627 5.373-12 12-12s12 5.373 12 12c-.034 6.614-5.386 11.966-11.997 12zm0-23.226c-6.2 0-11.226 5.026-11.226 11.226s5.026 11.226 11.226 11.226 11.226-5.026 11.226-11.226c-.004-6.198-5.028-11.221-11.225-11.226zm0 22.297c-6.114 0-11.071-4.957-11.071-11.071s4.957-11.071 11.071-11.071c6.114 0 11.071 4.957 11.071 11.071s-4.957 11.071-11.071 11.071zm0-21.368c-5.687 0-10.297 4.61-10.297 10.297s4.61 10.297 10.297 10.297 10.297-4.61 10.297-10.297c0-.001 0-.003 0-.005 0-5.684-4.608-10.292-10.292-10.292-.002 0-.003 0-.005 0z"/><path d="m9.677 9.91v.009c0 1.15-.932 2.082-2.082 2.082-.003 0-.006 0-.009 0-.003 0-.006 0-.009 0-1.15 0-2.082-.932-2.082-2.082 0-.003 0-.006 0-.009 0-1.154.936-2.09 2.09-2.09s2.09.936 2.09 2.09z"/><path d="m18.581 9.91v.009c0 1.15-.932 2.082-2.082 2.082-.003 0-.006 0-.009 0-.003 0-.006 0-.009 0-1.15 0-2.082-.932-2.082-2.082 0-.003 0-.006 0-.009 0-.003 0-.006 0-.009 0-1.15.932-2.082 2.082-2.082h.009c1.145.023 2.067.945 2.09 2.088v.002z"/><path d="m12 18.194c-.004 0-.009 0-.013 0-1.496 0-2.767-.961-3.231-2.299l-.007-.024c-.01-.035-.016-.075-.016-.116 0-.244.198-.441.441-.441.202 0 .373.136.425.322l.001.003c.357 1 1.296 1.703 2.4 1.703s2.043-.703 2.394-1.686l.006-.018c.052-.189.223-.325.425-.325.042 0 .082.006.12.016l-.003-.001c.189.052.325.223.325.425 0 .042-.006.082-.017.12l.001-.003c-.471 1.362-1.743 2.323-3.238 2.323-.005 0-.009 0-.014 0h.001z"/><path d="m12 18.581c-1.679-.026-3.099-1.105-3.63-2.605l-.008-.027c-.025-.076-.039-.164-.039-.255 0-.473.384-.857.857-.857.371 0 .686.235.806.565l.002.006c.295.85 1.081 1.453 2.011 1.471h.002c.932-.018 1.718-.621 2.008-1.456l.005-.015c.065-.203.203-.366.383-.462l.004-.002c.119-.065.26-.103.411-.103.074 0 .146.009.215.027l-.006-.001c.345.108.592.425.592.8 0 .102-.018.199-.051.29l.002-.006c-.487 1.534-1.896 2.627-3.561 2.632h-.001zm0-.775h.007c1.331 0 2.46-.868 2.851-2.069l.006-.021v-.077h-.077c-.397 1.179-1.493 2.013-2.783 2.013-.001 0-.003 0-.004 0-.007 0-.015 0-.024 0-1.285 0-2.375-.835-2.758-1.992l-.006-.021s-.077-.077-.077 0c0 0-.077.077 0 .077.397 1.222 1.526 2.09 2.857 2.09z"/></svg>