<!--Generated by Fontisto--><svg viewBox="0 0 24 24" xmlns="http://www.w3.org/2000/svg"><path d="m12 1.316c-5.901 0-10.684 4.783-10.684 10.684s4.783 10.684 10.684 10.684 10.684-4.783 10.684-10.684c-.012-5.896-4.788-10.672-10.683-10.684h-.001zm0 22.297c-6.414 0-11.613-5.199-11.613-11.613s5.199-11.613 11.613-11.613 11.613 5.199 11.613 11.613v.015c0 6.405-5.192 11.597-11.597 11.597-.005 0-.011 0-.016 0h.001z"/><path d="m12 24c-6.614-.034-11.966-5.386-12-11.997v-.003c0-6.627 5.373-12 12-12s12 5.373 12 12c-.034 6.614-5.386 11.966-11.997 12zm0-23.226c-6.2 0-11.226 5.026-11.226 11.226s5.026 11.226 11.226 11.226 11.226-5.026 11.226-11.226c-.004-6.198-5.028-11.221-11.225-11.226zm0 22.297c-6.114 0-11.071-4.957-11.071-11.071s4.957-11.071 11.071-11.071c6.114 0 11.071 4.957 11.071 11.071s-4.957 11.071-11.071 11.071zm0-21.368c-5.687 0-10.297 4.61-10.297 10.297s4.61 10.297 10.297 10.297 10.297-4.61 10.297-10.297c0-.001 0-.003 0-.005 0-5.684-4.608-10.292-10.292-10.292-.002 0-.003 0-.005 0z"/><path d="m12 19.665c-.001 0-.002 0-.003 0-3.435 0-6.355-2.211-7.413-5.287l-.016-.055c-.01-.035-.016-.075-.016-.117 0-.202.136-.373.322-.424l.003-.001h.31l.232.232c.917 2.764 3.479 4.723 6.499 4.723.029 0 .058 0 .086-.001h-.004.011c3.038 0 5.619-1.954 6.555-4.674l.015-.049c.052-.189.223-.325.425-.325.042 0 .082.006.12.016l-.003-.001c.111.035.198.121.232.23l.001.002c.037.041.059.095.059.155s-.022.114-.059.155c-.983 3.163-3.884 5.419-7.312 5.419-.015 0-.03 0-.045 0h.002z"/><path d="m12 20.052c-.002 0-.003 0-.005 0-3.623 0-6.699-2.341-7.797-5.594l-.017-.058c-.031-.084-.05-.182-.05-.284 0-.375.246-.692.586-.799l.006-.002c.073-.035.158-.055.248-.055.141 0 .271.05.372.134l-.001-.001c.205.069.356.246.387.461v.003c.868 2.628 3.301 4.49 6.169 4.49h.026-.001.076c2.855 0 5.275-1.866 6.105-4.445l.013-.045c.108-.345.425-.592.8-.592.102 0 .199.018.29.051l-.006-.002c.203.065.366.203.462.383l.002.004c.065.119.103.26.103.411 0 .074-.009.146-.027.215l.001-.006c-1.024 3.341-4.082 5.729-7.697 5.729-.016 0-.031 0-.047 0h.002zm0-.775h.068c3.253 0 6.01-2.123 6.962-5.058l.015-.052.077-.465-.155.387h-.077c-.992 2.947-3.729 5.032-6.954 5.032-.005 0-.009 0-.014 0h.001c-.004 0-.009 0-.013 0-3.225 0-5.963-2.085-6.939-4.981l-.015-.052h-.077s-.077.077 0 .077c1.024 2.995 3.814 5.11 7.098 5.11h.026-.001z"/><path d="m18.348 10.452h-3.716c-.299 0-.542-.243-.542-.542s.243-.542.542-.542h3.716c.3.003.542.247.542.547 0 .149-.059.283-.155.382-.077.155-.232.155-.387.155z"/><path d="m18.348 10.839h-3.716c-.013.001-.029.001-.044.001-.263 0-.497-.121-.652-.309l-.001-.002c-.173-.184-.287-.425-.309-.693v-.004c-.001-.013-.001-.029-.001-.044 0-.263.121-.497.309-.652l.001-.001c.198-.142.431-.25.684-.307l.013-.002h3.716c.013-.001.029-.001.044-.001.263 0 .497.121.652.309l.001.002c.173.184.287.425.309.693v.004c.001.013.001.029.001.044 0 .263-.121.497-.309.652l-.002.001c-.155.19-.39.311-.653.311-.015 0-.031 0-.046-.001h.002zm-3.716-1.162c-.077 0-.077 0-.155.077s-.077.077-.077.155 0 .077.077.155.077.077.155.077h3.716c.077 0 .077 0 .155-.077s.077-.077.077-.155 0-.077-.077-.155c-.04-.041-.094-.069-.153-.077h-.001z"/><path d="m9.368 10.452h-3.716c-.003 0-.006 0-.009 0-.337 0-.611-.273-.611-.611 0-.003 0-.006 0-.009 0-.004 0-.008 0-.013 0-.292.237-.53.53-.53h.013-.001 3.716.013c.292 0 .53.237.53.53v.013-.001c.155.387-.155.619-.465.619z"/><path d="m9.368 10.839h-3.716c-.552-.01-.996-.455-1.006-1.005v-.001c-.001-.013-.001-.029-.001-.044 0-.263.121-.497.309-.652l.002-.001c.184-.173.425-.287.693-.309h.004 3.716c.013-.001.029-.001.044-.001.263 0 .497.121.652.309l.001.002c.173.184.287.425.309.693v.004.031c0 .539-.437.976-.976.976-.011 0-.022 0-.032-.001h.002zm-3.716-1.162c-.077 0-.077 0-.155.077s-.077.077-.077.155c.007.125.107.225.232.232h.001 3.716c.125-.007.225-.107.232-.232v-.001c0-.077 0-.077-.077-.155s-.077-.077-.155-.077z"/></svg>