<!--Generated by Fontisto--><svg viewBox="0 0 24 24" xmlns="http://www.w3.org/2000/svg"><path d="m12 1.316c-5.901 0-10.684 4.783-10.684 10.684s4.783 10.684 10.684 10.684 10.684-4.783 10.684-10.684c-.012-5.896-4.788-10.672-10.683-10.684h-.001zm0 22.297c-6.414 0-11.613-5.199-11.613-11.613s5.199-11.613 11.613-11.613 11.613 5.199 11.613 11.613v.015c0 6.405-5.192 11.597-11.597 11.597-.005 0-.011 0-.016 0h.001z"/><path d="m12 24c-6.614-.034-11.966-5.386-12-11.997v-.003c0-6.627 5.373-12 12-12s12 5.373 12 12c-.034 6.614-5.386 11.966-11.997 12zm0-23.226c-6.2 0-11.226 5.026-11.226 11.226s5.026 11.226 11.226 11.226 11.226-5.026 11.226-11.226c-.004-6.198-5.028-11.221-11.225-11.226zm0 22.297c-6.114 0-11.071-4.957-11.071-11.071s4.957-11.071 11.071-11.071c6.114 0 11.071 4.957 11.071 11.071s-4.957 11.071-11.071 11.071zm0-21.368c-5.687 0-10.297 4.61-10.297 10.297s4.61 10.297 10.297 10.297 10.297-4.61 10.297-10.297c0-.001 0-.003 0-.005 0-5.684-4.608-10.292-10.292-10.292-.002 0-.003 0-.005 0z"/><path d="m9.677 9.91c0 1.154-.936 2.09-2.09 2.09s-2.09-.936-2.09-2.09.936-2.09 2.09-2.09h.009c1.15 0 2.082.932 2.082 2.082v.009z"/><path d="m17.961 10.142h-1.703l.697-.542c.139-.072.232-.215.232-.379 0-.003 0-.005 0-.008.003-.021.004-.045.004-.07 0-.153-.061-.293-.159-.395-.072-.139-.215-.232-.379-.232-.003 0-.005 0-.008 0-.021-.003-.045-.004-.07-.004-.153 0-.293.061-.395.159l-2.013 1.548c-.09.112-.168.239-.228.376l-.004.011v.155c.03.306.285.542.596.542h.025-.001 3.406.013c.292 0 .53-.237.53-.53 0-.004 0-.009 0-.013v.001c.007-.032.011-.068.011-.105 0-.285-.231-.516-.516-.516-.013 0-.026 0-.039.001h.002z"/><path d="m17.497 14.477c-.041-.037-.095-.059-.155-.059s-.114.022-.155.059c-.111.035-.198.121-.232.23l-.001.002c-.697 1.394-2.71 2.323-4.877 2.323-2.245 0-4.258-.929-4.877-2.323-.075-.163-.238-.274-.426-.274-.258 0-.468.209-.468.468 0 .07.015.137.043.196l-.001-.003c.776 1.291 2.037 2.223 3.525 2.548l.036.007c.077 2.09 1.006 3.716 2.168 3.716s2.09-1.626 2.168-3.716c1.524-.332 2.785-1.264 3.548-2.53l.014-.025c0-.232-.077-.542-.31-.619z"/></svg>