<!--Generated by Fontisto--><svg viewBox="0 0 24 24" xmlns="http://www.w3.org/2000/svg"><path d="m12 1.316c-5.901 0-10.684 4.783-10.684 10.684s4.783 10.684 10.684 10.684 10.684-4.783 10.684-10.684c-.012-5.896-4.788-10.672-10.683-10.684h-.001zm0 22.297c-6.414 0-11.613-5.199-11.613-11.613s5.199-11.613 11.613-11.613 11.613 5.199 11.613 11.613v.015c0 6.405-5.192 11.597-11.597 11.597-.005 0-.011 0-.016 0h.001z"/><path d="m12 24c-6.614-.034-11.966-5.386-12-11.997v-.003c0-6.627 5.373-12 12-12s12 5.373 12 12-5.373 12-12 12zm0-23.226c-6.2 0-11.226 5.026-11.226 11.226s5.026 11.226 11.226 11.226 11.226-5.026 11.226-11.226c-.004-6.198-5.028-11.221-11.225-11.226zm0 22.297c-6.114 0-11.071-4.957-11.071-11.071s4.957-11.071 11.071-11.071c6.114 0 11.071 4.957 11.071 11.071s-4.957 11.071-11.071 11.071zm0-21.368c-5.687 0-10.297 4.61-10.297 10.297s4.61 10.297 10.297 10.297 10.297-4.61 10.297-10.297c0-.001 0-.003 0-.005 0-5.684-4.608-10.292-10.292-10.292-.002 0-.003 0-.005 0z"/><path d="m9.677 9.91v.009c0 1.15-.932 2.082-2.082 2.082-.003 0-.006 0-.009 0-.003 0-.006 0-.009 0-1.15 0-2.082-.932-2.082-2.082 0-.003 0-.006 0-.009 0-1.154.936-2.09 2.09-2.09s2.09.936 2.09 2.09z"/><path d="m18.581 9.91v.009c0 1.15-.932 2.082-2.082 2.082-.003 0-.006 0-.009 0-1.154 0-2.09-.936-2.09-2.09s.936-2.09 2.09-2.09 2.09.936 2.09 2.09z"/><path d="m17.11 16.955c0 1.471-2.245 2.632-5.032 2.632s-5.032-1.161-5.032-2.632 2.245-2.632 5.032-2.632 5.032 1.239 5.032 2.632z"/></svg>