<!--Generated by Fontisto--><svg viewBox="0 0 24 24" xmlns="http://www.w3.org/2000/svg"><path d="m12 0c-6.658 0-12 5.342-12 12 0 6.581 5.419 12 12 12s12-5.419 12-12c0-6.658-5.342-12-12-12zm0 1.703c5.729 0 10.297 4.645 10.297 10.297s-4.645 10.297-10.297 10.297-10.297-4.645-10.297-10.297 4.645-10.297 10.297-10.297z"/><path d="m7.587 12c1.161 0 2.09-.929 2.09-2.09s-.929-2.09-2.09-2.09-2.09.929-2.09 2.09c0 1.161.929 2.09 2.09 2.09z"/><path d="m16.49 12c1.161 0 2.09-.929 2.09-2.09s-.929-2.09-2.09-2.09-2.09.929-2.09 2.09c0 1.161.929 2.09 2.09 2.09z"/><path d="m9.29 15.329 1.626 1.626-1.626 1.626c-.31.31-.31.852 0 1.161s.852.31 1.161 0l1.626-1.626 1.626 1.626c.155.155.387.232.619.232s.465-.077.697-.155c.31-.31.31-.852 0-1.161l-1.626-1.626 1.626-1.626c.155-.155.232-.387.232-.542 0-.465-.387-.852-.852-.929-.232 0-.465.077-.619.232l-1.626 1.626-1.626-1.626c-.155-.155-.387-.232-.619-.232s-.465.077-.619.232c-.31.31-.31.852 0 1.161z"/></svg>