<!--Generated by Fontisto--><svg viewBox="0 0 24 24" xmlns="http://www.w3.org/2000/svg"><path d="m22.149 19.17c-2.315 2.951-5.881 4.83-9.886 4.83-.097 0-.194-.001-.29-.003h.014c-.08.002-.174.003-.268.003-4.005 0-7.571-1.879-9.866-4.803l-.021-.027-1.833 1.83v-5.994h5.994l-1.644 1.646c1.331 2.188 3.52 3.742 6.089 4.197l.054.008v-9.061c-2.606-.689-4.495-3.026-4.495-5.803 0-3.31 2.683-5.994 5.994-5.994s5.994 2.683 5.994 5.994c0 2.778-1.89 5.114-4.453 5.794l-.042.009v9.062c2.623-.463 4.812-2.017 6.121-4.166l.022-.039-1.652-1.647h5.994v5.994zm-7.161-13.154c0-1.655-1.342-2.997-2.997-2.997s-2.997 1.342-2.997 2.997 1.342 2.997 2.997 2.997c.827 0 1.576-.335 2.118-.876.543-.542.879-1.292.879-2.12z"/></svg>