<!--Generated by Fontisto--><svg viewBox="0 0 26 24" xmlns="http://www.w3.org/2000/svg"><path d="m24.975 5.143h-23.748c-.681-.017-1.227-.573-1.227-1.257 0-.011 0-.022 0-.033v.002-2.569c0-.008 0-.018 0-.028 0-.684.546-1.24 1.225-1.257h.002 23.748c.681.015 1.227.57 1.227 1.253v.034-.002 2.569c0 .012.001.025.001.039 0 .682-.546 1.237-1.225 1.25h-.001zm.129 17.571v-14.57c0-.002 0-.004 0-.006 0-.707-.573-1.28-1.28-1.28-.002 0-.004 0-.006 0h-21.428c-.002 0-.004 0-.006 0-.707 0-1.28.573-1.28 1.28v.006 14.57.006c0 .707.573 1.28 1.28 1.28h.006 21.428c.71 0 1.285-.576 1.286-1.286zm-9.214-9h-5.569c-.352-.003-.637-.288-.64-.64v-.435c.003-.352.288-.637.64-.64h5.571c.352.003.637.288.64.64v.428.002c0 .355-.287.643-.642.645z"/></svg>