<!--Generated by Fontisto--><svg viewBox="0 0 22 24" xmlns="http://www.w3.org/2000/svg"><path d="m21.416 15.661-6.666-3.661 6.666-3.661c.35-.195.584-.563.584-.986 0-.207-.056-.401-.154-.568l.003.005-.913-1.584c-.198-.339-.56-.563-.974-.563-.216 0-.417.061-.588.166l.005-.003-6.503 3.943.163-7.603c0-.007 0-.014 0-.022 0-.621-.503-1.125-1.124-1.125h-1.826c-.621 0-1.125.504-1.125 1.125v.025-.001l.163 7.603-6.504-3.942c-.166-.102-.368-.163-.583-.163-.414 0-.776.224-.971.557l-.003.005-.913 1.581c-.095.161-.151.356-.151.563 0 .423.233.791.578.983l.006.003 6.666 3.661-6.666 3.661c-.35.195-.584.563-.584.986 0 .207.056.401.154.568l-.003-.005.913 1.582c.198.339.56.563.974.563.216 0 .417-.061.588-.166l-.005.003 6.503-3.943-.163 7.603v.024c0 .621.504 1.125 1.125 1.125h1.826c.621 0 1.125-.504 1.125-1.125 0-.009 0-.017 0-.025v.001l-.163-7.603 6.503 3.943c.166.102.368.163.583.163.414 0 .776-.224.971-.557l.003-.005.913-1.582c.095-.161.151-.356.151-.563 0-.423-.233-.791-.578-.983l-.006-.003z"/></svg>