<!--Generated by Fontisto--><svg viewBox="0 0 24 24" xmlns="http://www.w3.org/2000/svg"><path d="m22.596 20.093c-1.231 1.311-2.76 2.327-4.48 2.943l-.08.025c-1.634.594-3.52.938-5.486.938-.033 0-.067 0-.1 0h.005c-.056.001-.123.001-.189.001-1.766 0-3.456-.327-5.012-.923l.096.032c-1.527-.579-2.833-1.418-3.93-2.474l.004.003c-1.072-1.048-1.929-2.311-2.502-3.719l-.026-.073c-.566-1.385-.895-2.992-.895-4.676 0-.051 0-.102.001-.152v.008c0-.034-.001-.073-.001-.113 0-1.686.361-3.288 1.01-4.733l-.029.073c.664-1.487 1.565-2.753 2.669-3.808l.004-.004c1.113-1.056 2.429-1.912 3.88-2.503l.084-.03c1.405-.574 3.036-.907 4.744-.907h.098-.005.041c1.52 0 2.986.234 4.363.668l-.103-.028c1.42.436 2.652 1.097 3.724 1.951l-.023-.017c1.073.868 1.941 1.943 2.552 3.17l.025.055c.611 1.262.968 2.745.968 4.311 0 .085-.001.169-.003.253v-.012c.001.056.002.121.002.187 0 1.157-.197 2.267-.559 3.301l.021-.07c-.335.959-.824 1.785-1.443 2.494l.007-.009c-.557.633-1.242 1.141-2.015 1.485l-.037.015c-.71.315-1.538.498-2.409.498-.006 0-.012 0-.018 0h.001c-.05.003-.108.004-.166.004-.721 0-1.389-.23-1.933-.621l.01.007c-.476-.348-.782-.905-.782-1.534 0-.005 0-.01 0-.015v.001h-.16c-.401.588-.901 1.078-1.48 1.456l-.02.012c-.662.438-1.475.699-2.348.699-.046 0-.093-.001-.139-.002h.007c-.073.005-.158.007-.243.007-1.269 0-2.406-.563-3.175-1.454l-.005-.005c-.755-.959-1.211-2.185-1.211-3.518 0-.091.002-.182.006-.272v.013c.001-.96.167-1.88.473-2.735l-.018.057c.312-.904.754-1.687 1.312-2.37l-.011.014c.554-.675 1.225-1.231 1.985-1.643l.035-.017c.735-.395 1.608-.627 2.535-.627.026 0 .052 0 .077.001h-.004c.039-.001.084-.002.13-.002.72 0 1.396.192 1.979.527l-.019-.01c.503.281.89.717 1.103 1.242l.006.017h.032l.262-1.291h2.903l-1.28 6.101c-.043.3-.102.632-.177 1.002-.069.31-.11.666-.113 1.032v.002c-.001.019-.001.041-.001.063 0 .314.08.61.22.868l-.005-.01c.159.229.421.377.717.377.04 0 .079-.003.117-.008h-.004c.921-.031 1.71-.568 2.099-1.341l.006-.014c.528-.956.838-2.096.838-3.308 0-.118-.003-.235-.009-.351l.001.016c.001-.046.001-.1.001-.155 0-1.183-.241-2.31-.676-3.335l.021.056c-.427-.994-1.04-1.835-1.801-2.513l-.007-.006c-.772-.669-1.69-1.193-2.698-1.517l-.055-.015c-1.01-.327-2.172-.515-3.378-.515-.038 0-.077 0-.115.001h.006c-.036 0-.079-.001-.122-.001-1.314 0-2.567.265-3.707.744l.063-.024c-1.142.481-2.114 1.157-2.917 1.997l-.003.003c-.791.84-1.427 1.837-1.854 2.938l-.021.062c-.428 1.113-.675 2.401-.675 3.747 0 1.372.257 2.684.727 3.89l-.025-.073c.466 1.143 1.134 2.116 1.968 2.917l.003.003c.843.798 1.854 1.429 2.972 1.835l.06.019c1.114.406 2.4.641 3.741.641.048 0 .096 0 .144-.001h-.007c.087.002.19.004.293.004 1.534 0 2.996-.309 4.327-.869l-.074.027c1.351-.606 2.51-1.386 3.513-2.331l-.006.006zm-10.205-11.737c-.011 0-.025 0-.038 0-.504 0-.968.169-1.338.455l.005-.004c-.402.314-.735.694-.987 1.128l-.01.019c-.261.441-.474.951-.613 1.491l-.009.041c-.131.482-.208 1.037-.214 1.609v.004c.002.293.031.578.085.854l-.005-.029c.057.306.171.578.331.817l-.005-.008c.331.518.904.856 1.555.856.044 0 .088-.002.131-.005h-.006c.023.001.051.001.078.001.531 0 1.023-.162 1.431-.44l-.009.006c.413-.291.752-.658 1.004-1.082l.009-.016c.248-.415.446-.895.567-1.405l.007-.035c.106-.421.171-.907.179-1.407v-.005c0-.36-.035-.712-.102-1.052l.006.034c-.064-.341-.184-.645-.35-.917l.007.012c-.168-.273-.393-.495-.661-.654l-.009-.005c-.28-.165-.617-.262-.977-.262-.022 0-.044 0-.066.001h.003z"/></svg>