<!--Generated by Fontisto--><svg viewBox="0 0 24 24" xmlns="http://www.w3.org/2000/svg"><path d="m3.12 17.6c-1.723 0-3.12-1.397-3.12-3.12v-5.76c0-1.723 1.397-3.12 3.12-3.12h16.017c1.723 0 3.12 1.397 3.12 3.12v5.76c0 1.723-1.397 3.12-3.12 3.12zm-2.012-8.88v5.76.002c0 1.111.9 2.011 2.011 2.011h.001 16.017c1.11-.001 2.009-.901 2.009-2.011 0-.001 0-.001 0-.002v-5.76c-.001-1.109-.9-2.008-2.009-2.01h-16.017-.001c-1.11 0-2.01.9-2.011 2.01zm21.548.991c.789.28 1.345 1.02 1.345 1.89s-.555 1.61-1.331 1.885l-.014.004z"/></svg>