<!--Generated by Fontisto--><svg viewBox="0 0 24 24" xmlns="http://www.w3.org/2000/svg"><path d="m3.12 17.6c-1.723 0-3.12-1.397-3.12-3.12v-5.76c0-1.723 1.397-3.12 3.12-3.12h16.011c1.723 0 3.12 1.397 3.12 3.12v5.76c0 1.723-1.397 3.12-3.12 3.12zm-2.012-8.88v5.76c.001 1.11.901 2.01 2.011 2.01h.001 16.011c1.109-.001 2.008-.9 2.009-2.01v-5.76c-.001-1.109-.9-2.008-2.009-2.01h-16.011-.001c-1.11 0-2.01.9-2.011 2.01zm2.679 6.4c-.721-.002-1.305-.587-1.307-1.308v-4.427c0-.722.584-1.307 1.305-1.31h14.678c.724 0 1.311.587 1.311 1.31v4.427c-.005.722-.589 1.305-1.311 1.308zm18.87-5.41c.788.28 1.342 1.02 1.342 1.889s-.554 1.609-1.328 1.884l-.014.004z"/></svg>