<!--Generated by Fontisto--><svg viewBox="0 0 24 24" xmlns="http://www.w3.org/2000/svg"><path d="m3.12 17.6c-1.723 0-3.12-1.397-3.12-3.12v-5.76c0-1.723 1.397-3.12 3.12-3.12h16.016c1.723 0 3.12 1.397 3.12 3.12v5.76c0 1.723-1.397 3.12-3.12 3.12zm-2.012-8.88v5.76c0 1.11.9 2.01 2.01 2.01h.002 16.016c1.109-.002 2.006-.902 2.006-2.01v-5.76c-.001-1.109-.9-2.008-2.009-2.01h-16.014-.001c-1.11 0-2.01.9-2.011 2.01zm2.678 6.4c-.724 0-1.31-.587-1.31-1.311v-4.423c0-.724.587-1.311 1.31-1.311h10.986c.723.002 1.308.588 1.308 1.31v4.428c-.005.72-.588 1.303-1.308 1.307zm18.871-5.41c.789.28 1.344 1.02 1.344 1.889s-.555 1.609-1.33 1.885l-.014.004z"/></svg>