<!--Generated by Fontisto--><svg viewBox="0 0 24 24" xmlns="http://www.w3.org/2000/svg"><path d="m3.12 17.6c-1.723 0-3.12-1.397-3.12-3.12v-5.76c0-1.723 1.397-3.12 3.12-3.12h16.016c1.723 0 3.12 1.397 3.12 3.12v5.76c0 1.723-1.397 3.12-3.12 3.12zm-2.012-8.88v5.76.001c0 1.111.9 2.011 2.011 2.011h.001 16.016c1.11-.001 2.01-.901 2.01-2.011v-.001-5.76-.001c0-1.11-.9-2.01-2.01-2.011h-16.016-.001c-1.111 0-2.011.9-2.011 2.011v.001zm2.678 6.407c-.724 0-1.311-.587-1.311-1.311v-4.43c0-.724.587-1.311 1.311-1.311h2.708c.724 0 1.31.587 1.31 1.311v4.429c-.003.723-.588 1.308-1.311 1.311zm18.87-5.416c.789.28 1.344 1.02 1.344 1.889s-.555 1.609-1.33 1.885l-.014.004z"/></svg>