<!--Generated by Fontisto--><svg viewBox="0 0 21 24" xmlns="http://www.w3.org/2000/svg"><path d="m20.333 17.16c-1.04-1.04-2.339-2.341-2.339-7.409 0-3.706-2.688-6.784-6.22-7.393l-.045-.006c.166-.238.265-.533.265-.851 0-.828-.672-1.5-1.5-1.5s-1.5.672-1.5 1.5c0 .318.099.613.268.856l-.003-.005c-3.578.614-6.266 3.692-6.266 7.399 0 5.068-1.296 6.367-2.339 7.409-.405.407-.655.968-.655 1.588 0 1.242 1.005 2.249 2.246 2.252h5.249c0 1.657 1.343 3 3 3s3-1.343 3-3h5.248c1.241-.004 2.246-1.011 2.246-2.252 0-.62-.25-1.181-.655-1.588zm-9.84 4.965c.207 0 .375.168.375.375s-.168.375-.375.375c-1.035-.001-1.874-.84-1.875-1.875h.75c.001.621.505 1.125 1.126 1.125z"/></svg>