<!--Generated by Fontisto--><svg viewBox="0 0 21 24" xmlns="http://www.w3.org/2000/svg"><path d="m19.945 15.512c-.8-.786-1.619-1.6-1.619-5.44-.005-3.881-2.832-7.101-6.539-7.717l-.046-.006c.165-.237.263-.531.263-.848 0-.828-.672-1.5-1.5-1.5s-1.5.672-1.5 1.5c0 .317.098.611.266.853l-.003-.005c-3.753.623-6.579 3.843-6.584 7.723v.001c0 3.84-.822 4.655-1.619 5.44-.653.577-1.062 1.417-1.062 2.352 0 1.732 1.404 3.135 3.135 3.135h.007 4.36c0 1.657 1.343 3 3 3s3-1.343 3-3h4.363.007c1.732 0 3.135-1.404 3.135-3.135 0-.935-.409-1.775-1.059-2.349l-.003-.003zm-9.441 6.613c-.621-.001-1.124-.504-1.125-1.125h2.251c-.001.621-.505 1.125-1.126 1.125zm7.36-3.376h-14.726c-.487-.003-.881-.398-.881-.886 0-.243.098-.463.256-.623 1.34-1.34 2.418-2.612 2.418-7.17 0-3.077 2.495-5.572 5.572-5.572s5.572 2.495 5.572 5.572c0 4.578 1.089 5.84 2.418 7.17.158.16.256.38.256.623 0 .488-.394.883-.881.886z"/></svg>