<!--Generated by Fontisto--><svg viewBox="0 0 28 24" xmlns="http://www.w3.org/2000/svg"><path d="m13.846 9.692c2.293.004 4.15 1.862 4.154 4.154v.004c0 2.294-1.86 4.154-4.154 4.154s-4.154-1.86-4.154-4.154c0-1.148.466-2.187 1.218-2.939.728-.753 1.747-1.22 2.876-1.22h.063-.003zm10.154-6h.055c1.002 0 1.908.414 2.554 1.081l.001.001c.668.647 1.082 1.553 1.082 2.555v.058-.003 12.924c-.001 2.039-1.653 3.691-3.692 3.692h-20.308c-2.039-.001-3.691-1.653-3.692-3.692v-12.923c0-.016 0-.036 0-.055 0-1.002.414-1.908 1.081-2.554l.001-.001c.647-.668 1.553-1.082 2.555-1.082h.058-.003 3.23l.735-1.962c.212-.507.557-.922.993-1.213l.01-.006c.411-.311.929-.501 1.49-.512h.002 7.385c.564.011 1.081.201 1.499.517l-.006-.005c.445.297.791.712.996 1.201l.007.018.735 1.962zm-10.154 16.616c.027 0 .059.001.091.001 1.755 0 3.341-.727 4.472-1.896l.002-.002c1.171-1.133 1.897-2.719 1.897-4.474 0-.032 0-.064-.001-.096v.005c0-.027.001-.06.001-.092 0-1.755-.727-3.341-1.896-4.472l-.002-.002c-1.167-1.172-2.781-1.897-4.565-1.897s-3.398.725-4.565 1.896c-1.171 1.133-1.897 2.719-1.897 4.474 0 .032 0 .064.001.096v-.005c0 .028-.001.061-.001.094 0 1.755.726 3.34 1.894 4.471l.002.002c1.133 1.171 2.719 1.897 4.474 1.897.033 0 .065 0 .097-.001h-.005z"/></svg>