<!--Generated by Fontisto--><svg viewBox="0 0 32 24" xmlns="http://www.w3.org/2000/svg"><path d="m10 19.674-.874.874c-.1.107-.242.174-.4.175-.158-.001-.3-.068-.4-.175l-8.146-8.146c-.107-.1-.174-.242-.174-.4.001-.158.068-.3.174-.4l8.139-8.149c.1-.107.242-.174.4-.175.158.001.3.068.4.175l.874.874c.107.1.174.242.174.4-.001.158-.068.3-.174.4l-6.87 6.87 6.87 6.87c.107.1.174.242.174.4v.011c0 .156-.064.296-.168.397zm10.329-18.651-6.52 22.566c-.043.147-.14.267-.268.339l-.003.001c-.072.044-.159.07-.252.07-.057 0-.111-.01-.161-.027l.003.001-1.084-.297c-.147-.043-.267-.14-.339-.268l-.001-.003c-.044-.075-.071-.166-.071-.263 0-.059.01-.116.028-.169l-.001.004 6.52-22.566c.043-.147.14-.267.268-.339l.003-.001c.072-.044.159-.07.252-.07.057 0 .111.01.161.027l-.003-.001 1.084.297c.147.043.267.14.339.268l.001.003c.044.075.071.166.071.263 0 .059-.01.116-.028.169l.001-.004zm11.484 11.379-8.146 8.145c-.101.108-.243.175-.402.175s-.301-.067-.402-.175l-.874-.874c-.108-.101-.175-.243-.175-.402s.067-.301.175-.402l6.87-6.87-6.87-6.87c-.108-.101-.175-.243-.175-.402s.067-.301.175-.402l.874-.874c.101-.108.243-.175.402-.175s.301.067.402.175l8.146 8.146c.108.101.175.243.175.402s-.067.301-.175.402z"/></svg>