<!--Generated by Fontisto--><svg viewBox="0 0 31 24" xmlns="http://www.w3.org/2000/svg"><path d="m12 2.182c-.031 0-.068 0-.105 0-1.715 0-3.354.325-4.859.918l.09-.031c-1.425.526-2.633 1.347-3.599 2.394l-.006.006c-.809.847-1.314 1.99-1.338 3.251v.005c.013 1.015.35 1.948.912 2.705l-.009-.012c.675.923 1.522 1.678 2.5 2.229l.039.02 1.654.958-.597 1.432q.579-.341 1.057-.665l.75-.528.903.17c.783.15 1.684.237 2.606.24h.002.105c1.715 0 3.354-.325 4.859-.918l-.09.031c1.425-.526 2.633-1.347 3.599-2.394l.006-.006c.827-.836 1.338-1.986 1.338-3.256s-.511-2.42-1.338-3.256c-.972-1.053-2.18-1.874-3.542-2.379l-.063-.021c-1.421-.566-3.067-.895-4.79-.895-.03 0-.06 0-.09 0h.005zm0-2.182c.045 0 .098-.001.151-.001 2.119 0 4.138.429 5.974 1.206l-.101-.038c1.751.703 3.22 1.789 4.358 3.161l.014.018c.996 1.174 1.602 2.706 1.602 4.38s-.606 3.207-1.61 4.39l.008-.01c-1.152 1.389-2.621 2.475-4.299 3.152l-.073.026c-1.736.739-3.756 1.169-5.875 1.169-.053 0-.105 0-.157-.001h.008c-1.062-.003-2.099-.102-3.106-.289l.106.016c-1.352.964-2.934 1.714-4.64 2.158l-.1.022c-.389.1-.886.195-1.391.264l-.074.008h-.051c-.135-.002-.257-.053-.35-.136-.105-.088-.177-.213-.196-.355v-.003c-.011-.032-.017-.069-.017-.107 0-.001 0-.002 0-.004 0-.001 0-.001 0-.002 0-.038.003-.076.009-.113l-.001.004c.007-.038.019-.073.035-.104l-.001.002.042-.086.06-.094.068-.086.08-.086.068-.08q.086-.102.392-.426t.443-.503.383-.494c.152-.191.293-.406.415-.633l.011-.023q.179-.341.35-.75c-1.342-.759-2.454-1.773-3.303-2.985l-.021-.032c-.753-1.063-1.207-2.384-1.214-3.811v-.002c.008-1.673.611-3.203 1.609-4.391l-.009.011c1.152-1.389 2.621-2.475 4.299-3.152l.073-.026c1.736-.739 3.756-1.169 5.875-1.169.054 0 .107 0 .161.001h-.008zm14.01 19.925q.17.409.35.75c.133.25.274.465.433.665l-.007-.009q.247.315.383.494t.443.503q.306.32.392.426.017.017.068.08t.08.086c.024.026.046.054.066.083l.002.002c.02.027.04.058.058.09l.002.004.042.086.034.102.009.11-.017.11c-.029.152-.108.282-.22.374l-.001.001c-.089.075-.205.121-.331.121-.015 0-.031-.001-.046-.002h.002c-2.356-.314-4.462-1.187-6.243-2.482l.039.027c-.901.171-1.938.27-2.998.273h-.002c-.099.002-.216.004-.334.004-2.863 0-5.53-.84-7.767-2.287l.056.034q.989.068 1.5.068h.067c1.855 0 3.644-.28 5.327-.801l-.128.034c1.716-.516 3.212-1.266 4.544-2.229l-.044.03c1.336-.962 2.431-2.169 3.24-3.563l.029-.055c.718-1.244 1.142-2.736 1.142-4.327 0-.926-.143-1.818-.409-2.655l.017.062c1.401.751 2.564 1.773 3.457 3.004l.02.029c.799 1.084 1.278 2.446 1.278 3.921 0 1.433-.453 2.76-1.224 3.846l.014-.021c-.872 1.24-1.984 2.251-3.275 2.983l-.05.026z"/></svg>