<!--Generated by Fontisto--><svg viewBox="0 0 28 24" xmlns="http://www.w3.org/2000/svg"><path d="m10 10c0 1.105-.895 2-2 2-1.104 0-2-.896-2-2s.895-2 2-2c.552 0 1.052.224 1.414.586.361.351.586.841.586 1.384v.032zm6 0c0 1.105-.895 2-2 2-.552 0-1.052-.224-1.414-.586-.377-.364-.611-.874-.611-1.439 0-1.105.895-2 2-2 .565 0 1.074.234 1.438.61l.001.001c.362.351.587.841.587 1.385v.031-.002zm6 0c0 1.104-.896 2-2 2s-2-.895-2-2 .895-2 2-2c.552 0 1.052.224 1.414.586.361.351.586.841.586 1.384v.032zm-8-8c-.038 0-.083-.001-.128-.001-2.098 0-4.102.399-5.942 1.124l.11-.038c-1.74.644-3.217 1.645-4.4 2.922l-.007.007c-.99 1.036-1.608 2.436-1.633 3.98v.005c.013 1.258.432 2.415 1.131 3.351l-.011-.015c.835 1.131 1.885 2.053 3.096 2.719l.049.025 1.36.782-.426 1.498c-.272 1.021-.646 1.915-1.122 2.741l.029-.054c1.651-.691 3.071-1.59 4.313-2.686l-.017.014.672-.594.89.094c.607.077 1.312.122 2.028.125h.004c.038 0 .083.001.128.001 2.098 0 4.102-.399 5.942-1.124l-.11.038c1.74-.644 3.217-1.645 4.4-2.922l.007-.007c1.009-1.025 1.632-2.432 1.632-3.984s-.623-2.96-1.633-3.985l.001.001c-1.19-1.284-2.666-2.286-4.329-2.904l-.078-.025c-1.73-.687-3.735-1.086-5.833-1.086-.044 0-.088 0-.132.001h.007zm14 8c-.012 1.924-.72 3.681-1.884 5.033l.009-.01c-1.349 1.592-3.059 2.837-5.008 3.611l-.086.03c-2.023.846-4.374 1.337-6.839 1.337-.068 0-.135 0-.202-.001h.01c-.8-.002-1.588-.047-2.363-.134l.097.009c-1.981 1.759-4.399 3.072-7.069 3.756l-.118.026c-.503.145-1.107.266-1.726.339l-.055.005h-.08c-.163 0-.311-.062-.422-.164-.123-.111-.212-.258-.249-.424l-.001-.005v-.016c-.017-.029-.027-.064-.027-.102 0-.033.008-.063.021-.091l-.001.001c.02-.047.031-.101.031-.159 0-.001 0-.001 0-.002q-.008-.031.07-.149l.094-.141.11-.133.125-.141q.11-.125.484-.539l.539-.594q.164-.18.484-.617c.174-.231.343-.493.491-.767l.017-.033q.187-.359.422-.922c.137-.317.276-.712.39-1.117l.017-.07c-1.558-.861-2.852-2.018-3.844-3.405l-.024-.035c-.878-1.216-1.407-2.735-1.414-4.377v-.002c.005-1.438.418-2.779 1.128-3.914l-.018.031c.781-1.276 1.778-2.34 2.951-3.173l.033-.022c1.281-.904 2.766-1.632 4.361-2.105l.108-.027c1.603-.501 3.446-.789 5.357-.789h.085-.004.083c1.911 0 3.754.288 5.488.824l-.132-.035c1.703.501 3.188 1.229 4.517 2.165l-.048-.032c1.206.855 2.203 1.92 2.958 3.149l.026.046c.691 1.104 1.103 2.445 1.107 3.882v.001z"/></svg>