<!--Generated by Fontisto--><svg viewBox="0 0 24 24" xmlns="http://www.w3.org/2000/svg"><path d="m18.703 14h-1.703c-.549-.008-.992-.451-1-.999v-2.001c.008-.549.451-.992.999-1h1.704c-.693-2.264-2.44-4.011-4.654-4.69l-.05-.013v1.703c-.008.549-.451.992-.999 1h-2.001c-.549-.008-.992-.451-1-.999v-1.704c-2.264.693-4.011 2.44-4.69 4.654l-.013.05h1.703c.549.008.992.451 1 .999v2.001c-.008.549-.451.992-.999 1h-1.704c.693 2.264 2.44 4.011 4.654 4.69l.05.013v-1.703c.008-.549.451-.992.999-1h2.001c.549.008.992.451 1 .999v1.704c2.264-.693 4.011-2.44 4.69-4.654zm5.297-3v2c-.008.549-.451.992-.999 1h-2.235c-.799 3.366-3.4 5.966-6.704 6.753l-.061.012v2.234c-.008.549-.451.992-.999 1h-2.001c-.549-.008-.992-.451-1-.999v-2.235c-3.366-.799-5.966-3.4-6.753-6.704l-.012-.061h-2.234c-.549-.008-.992-.451-1-.999v-2.001c.008-.549.451-.992.999-1h2.235c.799-3.366 3.4-5.966 6.704-6.753l.061-.012v-2.234c.008-.549.451-.992.999-1h2.001c.549.008.992.451 1 .999v2.235c3.366.799 5.966 3.4 6.753 6.704l.012.061h2.234c.549.008.992.451 1 .999z"/></svg>