<!--Generated by Fontisto--><svg viewBox="0 0 21 24" xmlns="http://www.w3.org/2000/svg"><path d="m10.286 10.286c.053 0 .115.001.177.001 2.037 0 4.025-.21 5.944-.609l-.188.033c1.644-.291 3.109-.886 4.397-1.728l-.045.027v2.277q0 .924-1.379 1.714c-1.085.58-2.345 1.017-3.676 1.242l-.073.01c-1.496.294-3.217.463-4.976.463-.063 0-.126 0-.189-.001h.01c-.053 0-.116.001-.18.001-1.76 0-3.48-.169-5.146-.49l.17.027c-1.406-.235-2.666-.672-3.818-1.285l.067.033q-1.379-.79-1.379-1.714v-2.277c1.244.815 2.708 1.41 4.282 1.69l.071.01c1.73.367 3.719.577 5.756.577.062 0 .125 0 .187-.001h-.01zm0 10.285c.053 0 .115.001.177.001 2.037 0 4.025-.21 5.944-.609l-.188.033c1.644-.291 3.109-.886 4.397-1.728l-.045.027v2.277q0 .924-1.379 1.714c-1.085.58-2.345 1.017-3.676 1.242l-.073.01c-1.496.294-3.217.463-4.976.463-.063 0-.126 0-.189-.001h.01c-.053 0-.116.001-.18.001-1.76 0-3.48-.169-5.146-.49l.17.027c-1.405-.235-2.665-.672-3.818-1.285l.067.033q-1.38-.79-1.38-1.714v-2.277c1.244.815 2.708 1.41 4.282 1.69l.071.01c1.73.367 3.719.577 5.756.577.062 0 .124 0 .187-.001h-.01zm0-5.143c.053 0 .115.001.177.001 2.037 0 4.025-.21 5.944-.609l-.188.033c1.644-.291 3.109-.886 4.397-1.728l-.045.027v2.277q0 .924-1.379 1.714c-1.085.58-2.345 1.017-3.676 1.242l-.073.01c-1.496.294-3.217.463-4.976.463-.063 0-.126 0-.189-.001h.01c-.053 0-.116.001-.18.001-1.76 0-3.48-.169-5.146-.49l.17.027c-1.405-.235-2.665-.672-3.818-1.285l.067.033q-1.38-.79-1.38-1.714v-2.277c1.244.815 2.708 1.41 4.282 1.69l.071.01c1.73.367 3.719.577 5.756.577.062 0 .124 0 .187-.001h-.01zm0-15.429c.052 0 .113-.001.174-.001 1.761 0 3.483.169 5.15.491l-.17-.027c1.405.235 2.665.672 3.818 1.285l-.067-.033q1.379.79 1.379 1.714v1.714q0 .924-1.379 1.714c-1.085.58-2.345 1.017-3.676 1.242l-.073.01c-1.496.294-3.217.463-4.976.463-.063 0-.126 0-.189-.001h.01c-.053 0-.116.001-.18.001-1.76 0-3.48-.169-5.146-.49l.17.027c-1.405-.235-2.665-.672-3.818-1.285l.067.033q-1.378-.79-1.378-1.714v-1.714q0-.924 1.379-1.714c1.085-.58 2.345-1.017 3.677-1.242l.073-.01c1.496-.294 3.217-.463 4.976-.463.063 0 .126 0 .189.001h-.01z"/></svg>