<!--Generated by Fontisto--><svg viewBox="0 0 24 24" xmlns="http://www.w3.org/2000/svg"><path d="m12 0c-6.627 0-12 5.373-12 12s5.373 12 12 12 12-5.373 12-12c-.008-6.624-5.376-11.992-11.999-12zm-.495 15.689c.068.203-.525.795-.575.829s-1.15-.575-1.337-.66c-.249-.419-.457-.902-.599-1.413l-.01-.042-.406-.389s-.93-.694-1.015-.727-.254-1.336-.308-1.455c-.151-.213-.323-.397-.516-.556l-.005-.004c-.092-.364-.147-.784-.152-1.215v-.003c.043-.431.182-.822.395-1.162l-.007.011c.176-.291.28-.643.28-1.019 0-.173-.022-.34-.063-.5l.003.014c-.102-.169-.765.08-.765.08-.161-.09-.347-.165-.543-.217l-.017-.004-.343-.64s-2.044-.146-2.01-.196c1.947-2.732 5.103-4.492 8.671-4.492.473 0 .939.031 1.396.091l-.054-.006h.11c.366.027.704.027.896.367.038.066.724.669.707.669h-1.874l-.389.338 1.71 1.022c-.234.064-.71.212-1.03.314-.228.073-.426.177-.601.31l.005-.004-.676.507-.629.899.916.677s1.066.812 1.12.846.27-.677.27-.677q-.037-.822-.07-1.646l.507.169.744-.068s.744.575.829.64c.143.224.285.484.407.756l.016.04c-.01.114-.09.735.054.758h.006c.027 0 .053-.008.075-.021h-.001c.257-.125.501-.27.746-.415.116-.069.364-.289.505-.289-.061.25-.148.47-.261.674l.007-.014c-.026.04-.66 1.095-.93 1.543-.085.14-.179.261-.287.369l-.88.896.305.524-.736.871c-.063.074-.129.142-.199.204l-.002.002-.789.699s-.862.203-.914.203-.694.152-.694.152-1.218-.118-1.387.524c-.004.061-.006.131-.006.203 0 .596.146 1.159.404 1.653l-.009-.02zm8.986-3.138c.154-.034-.41.72-.445.838-.193.267-.395.502-.615.72l-.96.12c.161-.891.893-1.571 1.797-1.651l.008-.001c.105-.01.184-.019.214-.026zm-5.445 3.005-.449-.664c-.036-.054.179-.287.179-.287s1.705-.251 1.866-.234.43.521.43.521-.592.771-.79.771-1.238-.107-1.238-.107zm.454 2.328s-.205.086-.41.188-.462.188-.496.12c-.135-.142-.286-.266-.452-.37l-.01-.006c-.237-.173-.507-.333-.791-.467l-.03-.013c-.272-.141-.5-.331-.681-.56l-.003-.004c-.044-.099.171-.393.205-.547s-.017-.613.086-.56.325-.08.547 0c.25.079.463.214.632.391l.001.001c.103.224.247.412.425.562l.002.002c.188.12.53.256.513.48s.257.513.257.513zm.334 3.2c-.931-.413-1.164-.88-1.093-.969.3-.266.575-.535.836-.818l.007-.008c.179-.251 1.113-1.31 1.113-1.31l-.287-.574.8-.474c.237-.142.516-.238.816-.268l.008-.001.78-.076q.07-.007.139-.009l1.258-.034s1.143-.296.969.018c-2.618 4.73-5.346 4.521-5.346 4.521z"/></svg>