<!--Generated by Fontisto--><svg viewBox="0 0 23 24" xmlns="http://www.w3.org/2000/svg"><path d="m0 13.75c0 5.661 4.589 10.25 10.25 10.25s10.25-4.589 10.25-10.25c-.07-2.006-.617-3.87-1.531-5.501l.031.061c-.487-.633-.781-1.437-.781-2.309v-.001c0-1.75 1.846-3.5 3.78-3.5h.247c.677-.018 1.219-.571 1.219-1.25s-.542-1.232-1.217-1.25h-.002-.25c-3.075 0-5.706 1.64-6.33 5-1.422-.944-3.168-1.507-5.045-1.507-.132 0-.262.003-.393.008l.019-.001c-5.659.003-10.245 4.59-10.246 10.249zm9 0c0-.69.56-1.249 1.25-1.249s1.25.559 1.25 1.25-.559 1.25-1.25 1.25c-.001 0-.002 0-.003 0-.689-.002-1.246-.561-1.246-1.25v-.001zm-6.5 0c.002-1.24 1.007-2.244 2.247-2.244s2.247 1.006 2.247 2.247-1.006 2.247-2.247 2.247c-.62 0-1.182-.251-1.589-.658-.407-.407-.658-.969-.658-1.589 0-.001 0-.002 0-.003zm11 0c.002-1.24 1.007-2.244 2.247-2.244s2.247 1.006 2.247 2.247-1.006 2.247-2.247 2.247c-.62 0-1.182-.251-1.589-.658-.407-.407-.658-.969-.658-1.589 0-.001 0-.002 0-.003zm-5.5 5.5c0-1.243 1.008-2.25 2.25-2.25s2.25 1.008 2.25 2.25c0 1.243-1.008 2.25-2.25 2.25-.001 0-.003 0-.004 0-1.241-.002-2.246-1.009-2.246-2.25zm0-11c.002-1.24 1.007-2.244 2.247-2.244s2.247 1.006 2.247 2.247-1.006 2.247-2.247 2.247c-.621 0-1.184-.252-1.59-.66-.406-.407-.657-.968-.657-1.588 0-.001 0-.002 0-.003z"/></svg>