<!--Generated by Fontisto--><svg viewBox="0 0 20 24" xmlns="http://www.w3.org/2000/svg"><path d="m18.535 8.998c-.758-1.031-1.59-1.933-2.513-2.734l-.02-.017c-.071-.079-.173-.128-.286-.128-.07 0-.135.019-.191.051l.002-.001c-.109.056-.183.167-.183.296 0 .027.003.053.009.078v-.002l-.014-.009c.499.919.796 2.012.804 3.173v.002c.008.71-.037 1.207-.038 1.216-.018.109-.038.204-.058.289-.059.289-.453 1.141-1.011.907s-.592-1.129-.592-1.129c-.001 0-.003 0-.004 0s-.003 0-.004 0c-.203-3.76-1.885-7.092-4.468-9.452l-.011-.01-.005-.005-.005-.005c-.498-.442-1.052-.845-1.641-1.194l-.05-.027c-.055-.027-.101-.053-.145-.082l.006.003c-.066-.042-.143-.082-.224-.115l-.011-.004c-.05-.026-.102-.046-.156-.07-.054-.026-.116-.042-.183-.042-.181 0-.335.113-.396.273l-.001.003c-.004.053-.006.115-.006.178 0 .349.072.681.202.982l-.006-.016s0 0 0 0c.659 1.665 1.042 3.593 1.042 5.611 0 1.202-.136 2.372-.392 3.496l.02-.105c-.127.492-.482.882-.942 1.054l-.01.003c-.036.004-.078.006-.12.006-.552 0-1.021-.352-1.197-.843l-.003-.009c-.026-.072-.058-.139-.078-.217 0-.002 0-.004 0-.007s0-.005 0-.007c-.482-1.718.109-4.291.522-5.725.277-1.061-1.025 0-1.025 0h-.005c-.256.216-.532.46-.822.73v-.01c-.367.336-.852.802-1.351 1.335-.27.289-3.869 4.249-2.747 9.658 1.113 4.406 5.042 7.615 9.72 7.615 5.081 0 9.278-3.786 9.924-8.69l.005-.051c.024-.199.046-.397.056-.594.005-.062.006-.127.009-.192.002-.079.003-.173.003-.266 0-1.917-.523-3.712-1.433-5.249l.026.048z"/></svg>