<!--Generated by Fontisto--><svg viewBox="0 0 21 24" xmlns="http://www.w3.org/2000/svg"><path d="m20.705 3.07c-.138-.144-.331-.233-.545-.233-.002 0-.004 0-.006 0-.251.051-.474.14-.675.263l.009-.005c-.338.171-.698.362-1.076.574-.381.212-.826.407-1.29.559l-.055.016c-.428.155-.921.248-1.436.258h-.004c-.015 0-.033.001-.05.001-.373 0-.726-.086-1.04-.24l.014.006c-.726-.361-1.611-.726-2.524-1.031l-.154-.045c-.713-.225-1.534-.355-2.385-.355-.022 0-.043 0-.065 0h.003c-1.903.089-3.664.622-5.205 1.498l.057-.03c-.4.198-.682.351-.866.464l-.183-1.341c.414-.36.674-.888.674-1.477 0-1.079-.875-1.954-1.954-1.954s-1.954.875-1.954 1.954c0 .703.371 1.319.928 1.663l.008.005 2.64 19.385c.079.565.559.995 1.139.996h.001c.056 0 .111-.004.165-.011l-.006.001c.569-.076 1.003-.559 1.003-1.142 0-.054-.004-.108-.011-.16l.001.006-1.062-7.791c1.442-.813 3.149-1.334 4.967-1.439l.031-.001h.009c.619 0 1.216.098 1.774.28l-.041-.011c.543.165 1.011.364 1.452.606l-.039-.02c.374.211.812.409 1.268.569l.058.018c.449.168.968.266 1.509.27h.002c1.681-.11 3.222-.623 4.554-1.443l-.043.025c.185-.09.343-.202.48-.337.096-.115.154-.264.154-.427 0-.015-.001-.031-.002-.046v.002-9.328c0-.002 0-.005 0-.007 0-.213-.088-.406-.23-.543z"/></svg>