<!--Generated by Fontisto--><svg viewBox="0 0 24 24" xmlns="http://www.w3.org/2000/svg"><path d="m24.01 6.797c-.248-.298-.619-.487-1.034-.487-.012 0-.023 0-.035 0h.002-3.441l.954-4.643c.023-.094.035-.203.035-.314 0-.33-.113-.633-.303-.873l.002.003c-.249-.298-.62-.486-1.036-.486-.011 0-.022 0-.033 0h.002c-.9.029-1.643.665-1.835 1.51l-.003.013-.259 1.262c-.008.032-.022.062-.029.094l-.708 3.435h-5.793l.954-4.643c.023-.094.035-.203.035-.314 0-.33-.113-.633-.303-.873l.002.003c-.249-.298-.62-.486-1.036-.486-.011 0-.022 0-.033 0h.002c-.9.029-1.643.665-1.835 1.51l-.003.013-.27 1.313c0 .015-.01.028-.013.042l-.702 3.435h-3.747c-.9.029-1.643.664-1.836 1.509l-.003.013c-.023.094-.036.203-.036.315 0 .33.113.633.303.873l-.002-.003c.248.298.619.487 1.035.487h.034-.002 3.597l-1.022 4.97h-3.751c-.9.029-1.643.665-1.836 1.51l-.003.013c-.022.094-.035.203-.035.314 0 .329.113.632.302.871l-.002-.003c.249.298.62.487 1.036.487h.034-.002 3.597l-.96 4.668c-.023.094-.035.203-.035.314 0 .33.113.633.303.873l-.002-.003c.249.298.62.487 1.036.487h.033-.002c.9-.029 1.643-.665 1.836-1.51l.003-.013.99-4.814h5.796l-.96 4.668c-.023.094-.035.203-.035.314 0 .33.113.633.303.873l-.002-.003c.249.298.62.486 1.036.486h.033-.002c.9-.029 1.643-.665 1.835-1.51l.003-.013.99-4.814h3.6c.9-.029 1.643-.664 1.836-1.509l.003-.013c.024-.097.038-.208.038-.323 0-.327-.113-.628-.301-.865l.002.003c-.249-.298-.621-.487-1.037-.487-.012 0-.024 0-.036 0h.002-3.447l1.022-4.97h3.6c.9-.029 1.643-.665 1.836-1.51l.003-.013c.023-.094.036-.203.036-.315 0-.33-.114-.633-.304-.873l.002.003zm-15.191 7.675 1.022-4.97h5.796l-1.022 4.97z"/></svg>