<!--Generated by Fontisto--><svg viewBox="0 0 24 24" xmlns="http://www.w3.org/2000/svg"><path d="m23.998 11.978v.023c0 6.627-5.372 11.999-11.999 11.999-2.862 0-5.491-1.002-7.553-2.675l.022.018c-.263-.215-.43-.539-.43-.902 0-.321.13-.611.341-.822l.545-.545c.211-.212.503-.344.826-.344.272 0 .522.093.72.25l-.002-.002c1.504 1.2 3.432 1.925 5.53 1.925 4.917 0 8.903-3.986 8.903-8.903s-3.986-8.903-8.903-8.903c-2.362 0-4.509.92-6.102 2.42l.005-.004 2.456 2.456c.14.14.226.334.226.547 0 .427-.346.774-.774.774h-7.034c-.428 0-.774-.347-.774-.774v-7.034c0-.427.347-.774.774-.774.214 0 .407.087.547.226l2.389 2.389c2.15-2.057 5.072-3.323 8.289-3.323 6.619 0 11.987 5.36 11.999 11.976v.001zm-8.753 3.811.475-.611c.152-.195.244-.443.244-.713 0-.372-.174-.702-.446-.915l-.003-.002-1.969-1.532v-5.048c0-.641-.52-1.162-1.162-1.162h-.774c-.641 0-1.162.52-1.162 1.162v6.56l3.165 2.461c.195.154.445.247.716.247.371 0 .701-.174.914-.444z"/></svg>