<!--Generated by Fontisto--><svg viewBox="0 0 21 24" xmlns="http://www.w3.org/2000/svg"><path d="m20.304 22c.003-.093.004-.202.004-.311 0-4.146-2.277-7.76-5.649-9.66l-.055-.029c3.427-1.929 5.704-5.543 5.704-9.689 0-.109-.002-.218-.005-.327v.016c.501-.012.902-.42.902-.923 0-.027-.001-.054-.003-.08v.003c.002-.023.003-.05.003-.077 0-.503-.402-.911-.901-.923h-.001-19.4c-.502.011-.904.42-.904.923 0 .027.001.054.003.08v-.003c-.002.023-.003.05-.003.077 0 .503.402.912.903.923h.001c-.003.093-.004.202-.004.311 0 4.146 2.277 7.76 5.649 9.66l.055.029c-3.427 1.929-5.704 5.543-5.704 9.689 0 .109.002.218.005.327v-.016c-.505.059-.893.484-.893 1s.388.941.888 1h.005 19.499c.501-.011.903-.42.903-.923 0-.027-.001-.054-.003-.08v.003c-.036-.537-.462-.964-.996-1zm-1.8-20c.001.042.001.091.001.14 0 1.44-.333 2.802-.926 4.014l.024-.054h-14.099c-.569-1.157-.901-2.519-.901-3.958 0-.05 0-.099.001-.149v.007zm-15.9 20c0-.012 0-.027 0-.042 0-1.429.294-2.79.825-4.024l-.025.066h14.199c.502 1.182.795 2.556.8 3.998v.002z"/></svg>