<!--Generated by Fontisto--><svg viewBox="0 0 21 24" xmlns="http://www.w3.org/2000/svg"><path d="m20.403 22c.003-.093.004-.202.004-.311 0-4.146-2.277-7.76-5.648-9.66l-.055-.029c3.427-1.929 5.704-5.543 5.704-9.689 0-.11-.002-.219-.005-.327v.016c.501-.011.903-.42.903-.923 0-.027-.001-.054-.003-.08v.003c.002-.023.003-.05.003-.077 0-.503-.402-.912-.902-.923h-.001-19.499c-.502.011-.904.42-.904.923 0 .027.001.054.003.08v-.003c-.002.023-.003.05-.003.077 0 .503.402.912.903.923h.001c-.003.093-.004.202-.004.311 0 4.146 2.277 7.76 5.649 9.66l.055.029c-3.427 1.929-5.704 5.543-5.704 9.689 0 .109.002.218.005.327v-.016c-.505.059-.893.484-.893 1s.388.941.888 1h.005 19.499c.505-.059.893-.484.893-1s-.388-.941-.888-1h-.005zm-17.699-20h15.9c0 5-3.5 9-8 9s-7.9-4-7.9-9z"/></svg>