<!--Generated by Fontisto--><svg viewBox="0 0 21 24" xmlns="http://www.w3.org/2000/svg"><path d="m20.304 22c.003-.093.004-.202.004-.311 0-4.146-2.277-7.76-5.649-9.66l-.055-.029c3.427-1.929 5.704-5.543 5.704-9.689 0-.109-.002-.218-.005-.327v.016c.501-.012.902-.42.902-.923 0-.027-.001-.054-.003-.08v.003c.002-.023.003-.05.003-.077 0-.503-.402-.911-.901-.923h-.001-19.4c-.502.011-.904.42-.904.923 0 .027.001.054.003.08v-.003c-.002.023-.003.05-.003.077 0 .503.402.912.903.923h.001c-.003.093-.004.202-.004.311 0 4.146 2.277 7.76 5.649 9.66l.055.029c-3.427 1.929-5.704 5.543-5.704 9.689 0 .109.002.218.005.327v-.016c-.508.055-.9.482-.9 1s.392.945.895 1h.004 19.499c.501-.011.903-.42.903-.923 0-.027-.001-.054-.003-.08v.003c0-.552-.447-1-.999-1zm-17.7 0c0-5 3.5-9 8-9s8 4 8 9z"/></svg>