<!--Generated by Fontisto--><svg viewBox="0 0 36 24" xmlns="http://www.w3.org/2000/svg"><path d="m33 24h-30c-1.657 0-3-1.343-3-3v-18c0-1.657 1.343-3 3-3h30c1.657 0 3 1.343 3 3v18c0 1.657-1.343 3-3 3zm-25-16.75v-2.501c-.001-.413-.336-.748-.749-.75h-2.501c-.413.001-.748.336-.75.749v2.501c.001.413.336.748.749.75h2.501c.413-.001.748-.336.75-.749zm6 0v-2.501c-.001-.413-.336-.748-.749-.75h-2.501c-.413.001-.748.336-.75.749v2.501c.001.413.336.748.749.75h2.5c.413-.001.748-.336.75-.749zm6 0v-2.501c-.001-.413-.336-.748-.749-.75h-2.501c-.413.001-.748.336-.75.749v2.501c.001.413.336.748.749.75h2.5c.414-.001.749-.336.75-.749zm6 0v-2.501c-.001-.413-.336-.748-.749-.75h-2.501c-.413.001-.748.336-.75.749v2.501c.001.413.336.748.749.75h2.5c.413-.001.748-.336.75-.749zm6 0v-2.501c-.001-.413-.336-.748-.749-.75h-2.503c-.413.002-.747.336-.749.749v2.501c.001.414.337.749.75.75h2.503c.412-.003.745-.337.746-.749zm-24 6v-2.501c-.001-.413-.336-.748-.749-.75h-2.501c-.413.001-.748.336-.75.749v2.5c.001.413.336.748.749.75h2.501c.413-.001.748-.336.75-.749zm6 0v-2.501c-.001-.413-.336-.748-.749-.75h-2.501c-.413.001-.748.336-.75.749v2.5c.001.413.336.748.749.75h2.5c.413-.001.748-.336.75-.749zm6 0v-2.501c-.001-.413-.336-.748-.749-.75h-2.501c-.413.001-.748.336-.75.749v2.5c.001.413.336.748.749.75h2.5c.414-.001.749-.335.75-.749zm6 0v-2.501c-.001-.413-.336-.748-.749-.75h-2.501c-.413.001-.748.336-.75.749v2.5c.001.413.336.748.749.75h2.5c.414-.001.749-.335.75-.749zm6 0v-2.501c-.001-.413-.335-.747-.748-.75h-2.503c-.414.001-.749.336-.75.749v2.5c.001.414.337.749.75.75h2.503c.412-.002.746-.336.748-.749zm-24 6v-2.501c-.001-.413-.336-.748-.749-.75h-2.501c-.413.001-.748.336-.75.749v2.5c.001.414.336.749.749.75h2.501c.413-.001.748-.336.75-.749zm18 0v-2.501c-.001-.413-.336-.748-.749-.75h-14.501c-.413.001-.748.336-.75.749v2.5c.001.413.336.748.749.75h14.501c.413-.001.748-.336.75-.749zm6 0v-2.501c-.001-.413-.336-.748-.749-.75h-2.503c-.414.001-.749.336-.75.749v2.5c.001.414.337.749.75.75h2.503c.412-.002.746-.336.748-.749z"/></svg>