<!--Generated by Fontisto--><svg viewBox="0 0 24 24" xmlns="http://www.w3.org/2000/svg"><path d="m11.4 18.4h-10.5c-.497 0-.9-.403-.9-.9v-10.2c0-.497.403-.9.9-.9h10.5zm-4.525-2.72c.058.187.229.32.431.32h.001.853c.249 0 .45-.202.45-.45 0-.052-.009-.101-.025-.147l.001.003-2.15-6.34c-.062-.179-.229-.306-.426-.306 0 0 0 0-.001 0h-1.218c-.196 0-.363.126-.425.302l-.001.003-2.154 6.34c-.015.043-.024.093-.024.146 0 .248.201.45.45.45h.004.852c.204 0 .376-.137.431-.323l.001-.003.342-1.193h2.258l.351 1.195zm-1.465-5.266s.16.79.294 1.245l.406 1.408h-1.43l.415-1.408c.131-.455.294-1.245.294-1.245zm17.69 7.986h-10.5v-12h10.5c.497 0 .9.403.9.9v10.2c0 .497-.403.9-.9.9zm-1.35-8.55h-2.4v-.6-.001c0-.248-.201-.45-.45-.45h-.001-.6c-.248 0-.45.201-.45.45v.001.6h-2.4c-.248 0-.45.201-.45.45v.001.6.001c0 .248.201.45.45.45h.001 4.28c-.296.625-.673 1.161-1.126 1.621l.001-.001c-.228-.237-.442-.494-.637-.764l-.014-.021c-.083-.117-.217-.193-.37-.193-.085 0-.164.023-.232.064l.002-.001-.273.16-.24.146c-.132.08-.219.223-.219.386 0 .095.029.183.08.256l-.001-.001c.253.359.511.674.791.969l-.004-.004c-.28.216-.599.438-.929.645l-.05.029c-.132.08-.218.223-.218.386 0 .081.022.158.059.224l-.001-.002.298.52c.079.136.224.227.391.227.087 0 .169-.025.237-.068l-.002.001c.507-.312.94-.619 1.353-.95l-.026.02c.387.313.82.62 1.272.901l.055.032c.067.042.149.067.236.067.167 0 .312-.09.39-.225l.001-.002.298-.52c.037-.064.059-.141.059-.223 0-.161-.085-.303-.212-.382l-.002-.001c-.379-.236-.698-.458-1.004-.696l.027.02c.708-.717 1.257-1.594 1.586-2.572l.014-.047h.428.002c.249 0 .45-.202.45-.45 0-.001 0-.001 0-.002v-.6c-.001-.247-.202-.447-.45-.447h-.001z"/></svg>