<!--Generated by Fontisto--><svg viewBox="0 0 27 24" xmlns="http://www.w3.org/2000/svg"><path d="m2.998 18.833h21.379.003c.843 0 1.526-.683 1.526-1.526 0-.001 0-.002 0-.003v-15.269-.001c0-1.124-.911-2.035-2.035-2.035h-20.364c-1.124 0-2.035.911-2.035 2.035v.001 15.273c.001.843.684 1.526 1.526 1.527zm1.022-16.284h19.336v13.736h-19.336z"/><path d="m26.865 19.769h-26.356c-.281 0-.509.228-.509.509v1.886c.133 1.04 1.013 1.836 2.078 1.836.073 0 .146-.004.217-.011l-.009.001h22.801c.062.007.135.01.208.01 1.065 0 1.945-.795 2.077-1.825l.001-.01v-1.886c0-.281-.228-.509-.509-.509zm-9.996 2.62h-6.363c-.006 0-.013 0-.02 0-.282 0-.51-.228-.51-.51s.228-.51.51-.51h.021-.001 6.36.02c.282 0 .51.228.51.51s-.228.51-.51.51c-.007 0-.014 0-.021 0h.001z"/></svg>