<!--Generated by Fontisto--><svg viewBox="0 0 16 24" xmlns="http://www.w3.org/2000/svg"><path d="m13.45 13.447c1.415-1.41 2.291-3.361 2.291-5.517 0-.022 0-.044 0-.067v.003c0-.002 0-.004 0-.006 0-2.174-.875-4.143-2.291-5.575l.001.001c-1.41-1.413-3.359-2.287-5.512-2.287-.024 0-.048 0-.071 0h.004c-.002 0-.004 0-.006 0-2.174 0-4.143.875-5.575 2.291l.001-.001c-1.415 1.41-2.291 3.361-2.291 5.517v.067-.003.006c0 2.174.875 4.143 2.291 5.575l-.001-.001c1.038 1.029 1.68 2.456 1.68 4.033v.009.014c0 .583.472 1.055 1.055 1.055h.015 5.616.029c.286 0 .543-.123.722-.32l.001-.001c.197-.188.32-.453.32-.747 0-.002 0-.003 0-.005.027-1.582.678-3.007 1.717-4.044zm-1.539-1.502c-1.183 1.176-1.987 2.731-2.213 4.468l-.004.039h-.537l1.36-6.546c.016-.07.025-.151.025-.233 0-.597-.484-1.08-1.08-1.08-.514 0-.944.359-1.053.84l-.001.007-.607 2.934-.681-2.968c-.117-.474-.538-.82-1.04-.82-.591 0-1.07.479-1.07 1.07 0 .089.011.175.031.257l-.002-.007 1.502 6.509h-.5c-.248-1.772-1.048-3.323-2.218-4.508l.001.001c-1.016-1.029-1.644-2.444-1.644-4.006 0-3.149 2.553-5.702 5.702-5.702s5.702 2.553 5.702 5.702c0 1.58-.643 3.01-1.68 4.042z"/><path d="m11.985 20.244c0-.005 0-.012 0-.018 0-.583-.472-1.055-1.055-1.055-.006 0-.012 0-.019 0h.001-6.08c-.593 0-1.073.48-1.073 1.073s.48 1.073 1.073 1.073h6.08c.592-.002 1.071-.482 1.073-1.073z"/><path d="m10.017 21.854h-4.47c-.593 0-1.073.48-1.073 1.073s.48 1.073 1.073 1.073h4.47c.58-.016 1.044-.491 1.044-1.073s-.464-1.057-1.043-1.073h-.002z"/></svg>