<!--Generated by Fontisto--><svg viewBox="0 0 20 24" xmlns="http://www.w3.org/2000/svg"><path d="m3.5 6.5v3.5h-1.5c-1.105 0-2 .895-2 2v10c0 1.105.895 2 2 2h16c1.105 0 2-.895 2-2v-10c0-1.105-.895-2-2-2h-1.5v-3.5c0-3.59-2.91-6.5-6.5-6.5s-6.5 2.91-6.5 6.5zm2.5 3.5v-3.5c0-2.209 1.791-4 4-4s4 1.791 4 4v3.5zm2 5.5c0-1.105.895-2 2-2s2 .895 2 2c0 .701-.361 1.319-.908 1.676l-.008.005s.195 1.18.415 2.57v.001c0 .414-.335.749-.749.749-.001 0-.001 0-.002 0h-1.499-.001c-.414 0-.749-.335-.749-.749v-.001l.415-2.57c-.554-.361-.916-.979-.916-1.68z"/></svg>