<!--Generated by Fontisto--><svg viewBox="0 0 22 24" xmlns="http://www.w3.org/2000/svg"><path d="m14.13 22.716c-.001.014-.001.03-.001.047 0 .42.329.763.743.786h.002l5.433.447c.026.003.056.005.086.005.409 0 .747-.304.8-.699v-.004l.424-4.479-7.059-.586zm-13.388-3.903.425 4.479c.053.399.391.703.8.703.031 0 .061-.002.09-.005h-.004l5.433-.446c.416-.024.745-.367.745-.787 0-.016 0-.031-.001-.047v.002l-.425-4.479zm-.7-7.385.438 4.622 7.062-.581-.437-4.617c-.01-.111-.015-.226-.015-.339.073-2.139 1.824-3.846 3.975-3.846.04 0 .081.001.121.002h-.006c.034-.001.074-.002.114-.002 2.15 0 3.902 1.706 3.975 3.839v.007c0 .114-.006.229-.015.34l-.436 4.617 7.062.581.438-4.622c.027-.306.042-.612.042-.916-.002-5.793-5.018-10.513-11.181-10.513s-11.179 4.719-11.179 10.512c0 .304.014.606.042.916z"/></svg>