<!--Generated by Fontisto--><svg viewBox="0 0 28 24" xmlns="http://www.w3.org/2000/svg"><path d="m26.602 23.85-6.066-4.073-6.073 4.073c-.132.091-.295.145-.472.145s-.34-.054-.474-.147l.003.002-6.068-4.073-6.067 4.073c-.132.091-.296.145-.472.145-.168 0-.325-.049-.456-.134l.003.002c-.279-.194-.46-.512-.46-.874 0-.007 0-.014 0-.021v.001-17.556c0-.006 0-.013 0-.02 0-.352.173-.663.439-.853l.003-.002 6.541-4.392c.132-.091.295-.145.472-.145s.34.054.474.147l-.003-.002 6.066 4.073 6.067-4.073c.132-.091.295-.145.472-.145s.34.054.474.147l-.003-.002 6.541 4.392c.266.189.438.497.438.844 0 .013 0 .025-.001.038v-.002 17.558.023c0 .361-.182.679-.459.869l-.004.002c-.127.082-.283.131-.45.131-.175-.004-.337-.059-.472-.152l.003.002zm-24.602-17.794v15.101l4.436-3.086v-15.101zm12.993 15.045 4.56-3.062v-6.823c-.044.044-.08.087-.118.131-.113.131-.225.262-.338.387l-.75-.662c.106-.125.218-.25.331-.381.175-.194.35-.4.538-.606l.331.3v-7.447l-4.561 3.062v7.017c.154-.009.296-.024.435-.047l-.023.003.16.987c-.169.025-.35.044-.531.056h-.031zm-6.56-3.055 4.56 3.055v-8.141l-.262.8c-.494-.163-.921-.37-1.316-.625l.022.013.531-.85c.295.191.633.358.991.483l.034.01v-6.792l-4.56-3.061v6.304c.296.157.545.312.783.483l-.02-.014-.581.812c-.056-.044-.118-.08-.181-.125zm13.813-8.766c-.265.058-.496.135-.716.234l.023-.009v8.575l4.429 3.02v-15.106l-4.436-3.033v5.467c.129-.044.297-.089.468-.125l.032-.006zm-5.735 3.348c.37-.184.689-.405.972-.665l-.003.003.662.75c-.345.314-.738.585-1.164.798l-.03.014zm-6.923-1.124c-.056-.075-.118-.144-.181-.218l.762-.65.187.225c.218.256.418.5.64.72l-.687.725c-.252-.248-.489-.509-.711-.782l-.014-.018zm-6.379.24.013-.05c.136-.487.333-.912.586-1.297l-.011.017.825.56c-.188.295-.34.636-.438 1l-.006.026-.018.056zm20.905-2.044-.64.65-.712-.712.65-.64-.65-.64.712-.712.64.65.64-.65.712.712-.65.64.65.64-.712.712zm-19.617-.17c.206-.195.438-.367.689-.509l.018-.009c.169-.093.368-.18.574-.249l.025-.007.306.95c-.15.044.075.038-.062.113-.334.132-.62.281-.888.456l.019-.012z"/></svg>