<!--Generated by Fontisto--><svg viewBox="0 0 5 24" xmlns="http://www.w3.org/2000/svg"><path d="m5.217 12c0 1.441-1.168 2.608-2.608 2.608s-2.608-1.168-2.608-2.608c0-1.441 1.168-2.608 2.608-2.608s2.608 1.168 2.608 2.608z"/><path d="m5.217 2.608c0 1.441-1.168 2.608-2.608 2.608s-2.608-1.168-2.608-2.608c0-1.441 1.168-2.608 2.608-2.608s2.608 1.168 2.608 2.608z"/><path d="m5.217 21.391c0 1.441-1.168 2.608-2.608 2.608s-2.608-1.168-2.608-2.608c0-1.441 1.168-2.608 2.608-2.608s2.608 1.168 2.608 2.608z"/></svg>