<!--Generated by Fontisto--><svg viewBox="0 0 24 24" xmlns="http://www.w3.org/2000/svg"><path d="m18.783 12.208c0-1.44 1.168-2.607 2.608-2.607s2.608 1.168 2.608 2.608-1.168 2.608-2.608 2.608c-1.44 0-2.608-1.168-2.608-2.608zm-9.392 0c0-1.44 1.168-2.608 2.609-2.608s2.609 1.168 2.609 2.609-1.168 2.609-2.609 2.609c-1.441 0-2.609-1.168-2.609-2.609zm-9.391 0c0-1.44 1.168-2.608 2.609-2.608s2.609 1.168 2.609 2.609-1.168 2.609-2.609 2.609h-.001c-1.44 0-2.608-1.168-2.608-2.608 0-.001 0-.001 0-.002z"/></svg>