<!--Generated by Fontisto--><svg viewBox="0 0 28 24" xmlns="http://www.w3.org/2000/svg"><path d="m2.61 0h22.431c1.441 0 2.61 1.168 2.61 2.61s-1.168 2.61-2.61 2.61h-22.431c-1.441 0-2.61-1.168-2.61-2.61s1.168-2.61 2.61-2.61z"/><path d="m2.61 9.39h22.431c1.441 0 2.61 1.168 2.61 2.61s-1.168 2.61-2.61 2.61h-22.431c-1.441 0-2.61-1.168-2.61-2.61s1.168-2.61 2.61-2.61z"/><path d="m2.61 18.781h22.431c1.441 0 2.61 1.168 2.61 2.61s-1.168 2.61-2.61 2.61h-22.431c-1.441 0-2.61-1.168-2.61-2.61s1.168-2.61 2.61-2.61z"/></svg>