<!--Generated by Fontisto--><svg viewBox="0 0 23 24" xmlns="http://www.w3.org/2000/svg"><path d="m12 5.217c-1.441 0-2.608-1.168-2.608-2.608s1.168-2.608 2.608-2.608c1.441 0 2.608 1.168 2.608 2.608s-1.168 2.608-2.608 2.608z"/><path d="m20.609 5.217c-1.441 0-2.608-1.168-2.608-2.608s1.168-2.608 2.608-2.608c1.441 0 2.608 1.168 2.608 2.608s-1.168 2.608-2.608 2.608z"/><path d="m2.609 5.217c-1.441 0-2.608-1.168-2.608-2.608s1.168-2.608 2.608-2.608c1.441 0 2.608 1.168 2.608 2.608s-1.168 2.608-2.608 2.608z"/><path d="m12 14.608c-1.441 0-2.608-1.168-2.608-2.608s1.168-2.608 2.608-2.608c1.441 0 2.608 1.168 2.608 2.608s-1.168 2.608-2.608 2.608z"/><path d="m20.609 14.608c-1.441 0-2.608-1.168-2.608-2.608s1.168-2.608 2.608-2.608c1.441 0 2.608 1.168 2.608 2.608s-1.168 2.608-2.608 2.608z"/><path d="m2.609 14.608c-1.441 0-2.608-1.168-2.608-2.608s1.168-2.608 2.608-2.608c1.441 0 2.608 1.168 2.608 2.608s-1.168 2.608-2.608 2.608z"/><path d="m12 23.999c-1.441 0-2.608-1.168-2.608-2.608s1.168-2.608 2.608-2.608c1.441 0 2.608 1.168 2.608 2.608s-1.168 2.608-2.608 2.608z"/><path d="m20.609 23.999c-1.441 0-2.608-1.168-2.608-2.608s1.168-2.608 2.608-2.608c1.441 0 2.608 1.168 2.608 2.608s-1.168 2.608-2.608 2.608z"/><path d="m2.609 23.999c-1.441 0-2.608-1.168-2.608-2.608s1.168-2.608 2.608-2.608c1.441 0 2.608 1.168 2.608 2.608s-1.168 2.608-2.608 2.608z"/></svg>