<!--Generated by Fontisto--><svg viewBox="0 0 26 24" xmlns="http://www.w3.org/2000/svg"><path d="m12.189 5.376v.031c0 .624-.109 1.223-.308 1.779l.012-.037c-.209.576-.546 1.063-.98 1.442l-.004.003c-.421.379-.981.61-1.595.61-.016 0-.032 0-.048 0h.002c-.843-.006-1.605-.348-2.16-.899-.624-.574-1.114-1.282-1.427-2.079l-.013-.038c-.287-.698-.458-1.507-.469-2.355v-.004c0-.009 0-.02 0-.031 0-.624.109-1.223.308-1.779l-.012.037c.209-.576.546-1.063.98-1.442l.004-.003c.421-.379.982-.611 1.596-.611.018 0 .036 0 .054.001h-.003c.843.005 1.606.347 2.16.899.617.573 1.104 1.279 1.416 2.071l.013.038c.289.7.46 1.513.469 2.364v.003zm-5.345 7.548c.001.025.001.054.001.084 0 .782-.246 1.506-.665 2.1l.008-.012c-.393.561-1.037.924-1.765.924-.033 0-.066-.001-.099-.002h.005c-.853-.011-1.628-.338-2.214-.87l.003.003c-1.264-1.089-2.073-2.677-2.117-4.454v-.008c-.001-.024-.001-.053-.001-.082 0-.785.246-1.513.665-2.11l-.008.012c.391-.566 1.036-.932 1.767-.932.032 0 .065.001.097.002h-.005c.853.011 1.628.338 2.214.87l-.003-.003c1.266 1.095 2.074 2.689 2.117 4.473v.007zm6.161-.422c1.521.087 2.896.646 3.998 1.531l-.014-.011c1.419 1.013 2.608 2.242 3.547 3.652l.032.051c.824 1.103 1.351 2.471 1.439 3.957l.001.02c.001.026.002.057.002.087 0 .404-.099.786-.274 1.121l.006-.013c-.172.311-.432.554-.748.699l-.01.004c-.291.139-.63.248-.984.309l-.024.003c-.336.055-.722.086-1.116.086-.025 0-.05 0-.075 0h.004c-1.074-.074-2.071-.326-2.988-.726l.058.023c-.835-.37-1.804-.621-2.82-.701l-.031-.002c-1.103.082-2.125.33-3.075.719l.067-.024c-.921.377-1.989.626-3.105.694l-.028.001q-2.866.002-2.866-2.279c.048-1.109.367-2.134.892-3.022l-.017.03c.617-1.149 1.341-2.138 2.184-3.012l-.004.004c.845-.881 1.808-1.639 2.868-2.249l.062-.033c.859-.54 1.893-.877 3.003-.921h.012zm3.735-3.297c-.014 0-.03 0-.046 0-.614 0-1.174-.232-1.597-.612l.002.002c-.438-.383-.776-.869-.976-1.422l-.008-.024c-.188-.519-.297-1.118-.297-1.742 0-.011 0-.022 0-.033v.002c.009-.855.18-1.667.485-2.411l-.016.044c.326-.831.812-1.536 1.426-2.106l.004-.003c.554-.551 1.317-.893 2.159-.898h.001.046c.614 0 1.174.232 1.597.612l-.002-.002c.438.383.776.869.976 1.422l.008.024c.191.522.301 1.125.301 1.753v.02-.001c-.01.852-.182 1.662-.485 2.403l.016-.044c-.326.835-.816 1.543-1.436 2.113l-.004.004c-.555.549-1.317.891-2.159.896h-.001zm6.75-1.624c.028-.001.06-.002.092-.002.731 0 1.376.366 1.762.925l.005.007c.411.586.657 1.313.657 2.099 0 .029 0 .057-.001.086v-.004c-.044 1.785-.853 3.373-2.109 4.454l-.008.007c-.583.529-1.358.856-2.209.867h-.002c-.028.001-.061.002-.094.002-.728 0-1.372-.362-1.76-.917l-.005-.007c-.411-.582-.657-1.307-.657-2.088 0-.029 0-.059.001-.088v.004c.043-1.791.851-3.385 2.109-4.474l.008-.007c.583-.527 1.356-.854 2.205-.865h.002z"/></svg>