<!--Generated by Fontisto--><svg viewBox="0 0 26 24" xmlns="http://www.w3.org/2000/svg"><path d="m22.313 17.295c-1.008-1.345-2.437-2.327-4.089-2.754l-.051-.011-1.179 1.99c-.002.552-.448.998-1 1-.55 0-1-.45-1.525-1.774 0-.009 0-.021 0-.032 0-.691-.56-1.25-1.25-1.25s-1.25.56-1.25 1.25v.033-.002c-.56 1.325-1.014 1.774-1.563 1.774-.552-.002-.998-.448-1-1l-1.142-1.994c-1.702.44-3.13 1.421-4.126 2.746l-.014.019c-.388.629-.628 1.386-.655 2.197v.007c.005.15 0 .325 0 .5v2c0 1.105.895 2 2 2h15.5c1.105 0 2-.895 2-2v-2c0-.174-.005-.35 0-.5-.028-.817-.268-1.573-.666-2.221l.011.02zm-14.345-12.005c0 2.92 1.82 7.21 5.25 7.21 3.37 0 5.25-4.29 5.25-7.21 0-.019 0-.042 0-.065 0-2.9-2.351-5.25-5.25-5.25s-5.25 2.351-5.25 5.25v.068z"/><path d="m19.202 7.01c0 1.902 1.186 4.698 3.42 4.698 2.195 0 3.42-2.795 3.42-4.698 0-.016 0-.034 0-.052 0-1.889-1.532-3.421-3.421-3.421s-3.421 1.532-3.421 3.421v.055-.003z"/><path d="m.002 8.61c0 1.902 1.186 4.698 3.42 4.698 2.195 0 3.42-2.795 3.42-4.698 0-.016 0-.034 0-.052 0-1.889-1.532-3.421-3.421-3.421s-3.421 1.532-3.421 3.421v.055-.003z"/></svg>