<!--Generated by Fontisto--><svg viewBox="0 0 22 24" xmlns="http://www.w3.org/2000/svg"><path d="m22.154 12.923v.033c0 1.542-.324 3.008-.907 4.334l.027-.069c-1.722 4.011-5.637 6.768-10.197 6.768s-8.475-2.758-10.169-6.696l-.028-.072c-.556-1.257-.88-2.723-.88-4.265 0-.012 0-.023 0-.035v.002c0-.011 0-.023 0-.036 0-3.595 1.729-6.785 4.4-8.786l.029-.02c.305-.237.693-.38 1.114-.38.093 0 .184.007.274.02l-.01-.001c.501.059.929.328 1.2.715l.004.005c.234.295.375.674.375 1.085 0 .097-.008.193-.023.285l.001-.01c-.065.502-.329.932-.709 1.215l-.005.003c-1.811 1.364-2.969 3.509-2.969 5.925 0 4.085 3.312 7.397 7.397 7.397s7.397-3.312 7.397-7.397c0-2.416-1.158-4.562-2.95-5.912l-.019-.014c-.384-.287-.648-.717-.713-1.209l-.001-.009c-.014-.083-.022-.178-.022-.275 0-.411.141-.789.378-1.088l-.003.004c.277-.393.708-.662 1.203-.719l.008-.001c.08-.013.172-.02.267-.02.418 0 .803.143 1.108.384l-.004-.003c2.702 2.021 4.432 5.213 4.432 8.809v.034-.002zm-9.23-11.077v9.23.038c0 1.02-.827 1.846-1.846 1.846s-1.846-.827-1.846-1.846c0-.014 0-.027 0-.04v.002-9.23c0-.005 0-.01 0-.016 0-.504.21-.959.547-1.282l.001-.001c.329-.338.789-.548 1.298-.548s.969.21 1.298.548c.338.324.548.778.548 1.282v.017-.001z"/></svg>