<!--Generated by Fontisto--><svg viewBox="0 0 24 24" xmlns="http://www.w3.org/2000/svg"><path d="m17.455 17.455h2.182v2.182h-2.182z"/><path d="m13.091 24h10.909v-10.909h-10.909zm2.181-8.727h6.545v6.529h-6.545z"/><path d="m17.455 4.364h2.182v2.182h-2.182z"/><path d="m8.727 15.272h-2.182v-2.182h-6.545v10.909h2.182v-6.545h2.182v2.182h6.545v-6.545h-2.182z"/><path d="m4.364 21.818h2.182v2.182h-2.182z"/><path d="m8.727 21.818h2.182v2.182h-2.182z"/><path d="m4.364 4.364h2.182v2.182h-2.182z"/><path d="m0 10.909h10.909v-10.909h-10.909zm2.182-8.727h6.545v6.545h-6.545z"/><path d="m13.091 0v10.909h10.909v-10.909zm8.727 8.727h-6.545v-6.545h6.545z"/></svg>