<!--Generated by Fontisto--><svg viewBox="0 0 24 24" xmlns="http://www.w3.org/2000/svg"><path d="m.017 12.754h.029c3.078 0 5.863 1.257 7.869 3.286l.001.001c2.023 2.025 3.274 4.822 3.274 7.911v.041-.002h4.6c0-.004 0-.009 0-.014 0-8.722-7.056-15.797-15.772-15.826h-.003zm0-8.155c10.664.045 19.291 8.699 19.291 19.369v.033-.002h4.602c0-.008 0-.017 0-.026 0-13.209-10.683-23.924-23.881-23.974h-.005v4.6zm6.357 16.186v.002c0 1.76-1.427 3.186-3.186 3.186s-3.186-1.427-3.186-3.186c0-1.76 1.427-3.186 3.186-3.186h.011-.001c1.755.006 3.175 1.429 3.176 3.185z"/></svg>