<!--Generated by Fontisto--><svg viewBox="0 0 24 24" xmlns="http://www.w3.org/2000/svg"><path d="m20.237 15.638c-.001 0-.002 0-.003 0-1.192 0-2.263.515-3.004 1.334l-.003.004-8.948-4.348c0-.167.084-.418.084-.669.002-.029.003-.062.003-.096 0-.176-.032-.344-.09-.499l.003.01 8.948-4.348c.744.823 1.815 1.338 3.007 1.338h.004c2.309 0 4.181-1.872 4.181-4.181s-1.872-4.181-4.181-4.181-4.181 1.872-4.181 4.181c-.002.029-.003.062-.003.096 0 .176.032.344.09.499l-.003-.01-8.948 4.348c-.744-.823-1.815-1.338-3.007-1.338-.001 0-.002 0-.004 0-2.309 0-4.181 1.872-4.181 4.181s1.872 4.181 4.181 4.181h.003c1.192 0 2.263-.515 3.004-1.334l.003-.004 8.948 4.348c0 .167-.084.418-.084.669 0 2.309 1.872 4.181 4.181 4.181s4.181-1.872 4.181-4.181c.001-.027.001-.06.001-.092 0-2.259-1.831-4.09-4.09-4.09-.032 0-.065 0-.097.001z"/></svg>