<!--Generated by Fontisto--><svg viewBox="0 0 20 24" xmlns="http://www.w3.org/2000/svg"><path d="m17 13v-10h-7v17.766c1.269-.669 2.358-1.379 3.376-2.177l-.048.036q3.672-2.874 3.672-5.625zm3-12v12c-.004.961-.195 1.876-.541 2.712l.017-.048c-.352.895-.788 1.668-1.315 2.37l.018-.026c-.565.737-1.169 1.388-1.827 1.98l-.013.012c-.596.549-1.241 1.077-1.915 1.567l-.062.043q-.906.64-1.89 1.211t-1.398.774-.664.313c-.119.059-.258.094-.406.094s-.288-.035-.412-.096l.005.002q-.25-.11-.664-.313t-1.398-.774-1.89-1.211c-.738-.533-1.383-1.061-1.996-1.624l.015.014c-.671-.604-1.275-1.255-1.815-1.958l-.025-.034c-.509-.676-.945-1.449-1.273-2.277l-.024-.067c-.328-.788-.52-1.703-.523-2.663v-12.001c.008-.549.451-.992.999-1h18.001c.549.008.992.451 1 .999v.001z"/></svg>