<!--Generated by Fontisto--><svg viewBox="0 0 21 24" xmlns="http://www.w3.org/2000/svg"><path d="m18.241 6.523 1.45-1.657-1.657-1.45-1.45 1.553c-1.361-1.014-3.014-1.714-4.811-1.961l-.055-.006v-.932h2.588v-2.071h-7.351v2.071h2.588v1.035c-5.369.49-9.543 4.97-9.543 10.426 0 5.781 4.686 10.467 10.467 10.467s10.467-4.686 10.467-10.467c0-2.7-1.022-5.162-2.701-7.018l.008.009zm-7.662 14.806c-4.403 0-7.972-3.569-7.972-7.972s3.569-7.972 7.972-7.972c2.225.018 4.234.925 5.695 2.382 1.47 1.447 2.381 3.459 2.381 5.683v.012-.001c-.173 4.347-3.711 7.812-8.07 7.869h-.006z"/><path d="m9.544 7.248h2.174v7.972h-2.174z"/></svg>