<!--Generated by Fontisto--><svg viewBox="0 0 18 24" xmlns="http://www.w3.org/2000/svg"><path d="m16.24 0h-14.288c-1.098.085-1.957.997-1.957 2.109 0 .05.002.099.005.148v-.007 19.499c-.003.042-.005.091-.005.141 0 1.112.857 2.023 1.947 2.109h.007 14.29c1.097-.086 1.954-.997 1.954-2.109 0-.05-.002-.099-.005-.148v.007-19.499c.003-.04.004-.087.004-.135 0-1.113-.857-2.026-1.946-2.115l-.008-.001zm-7.144 22.5c-.827-.001-1.497-.671-1.497-1.498s.671-1.498 1.498-1.498 1.498.671 1.498 1.498c0 .414-.168.788-.439 1.059-.271.271-.646.439-1.06.439-.001 0-.003 0-.004 0zm7.781-5.062c-.002.308-.252.558-.56.56h-14.442c-.308-.002-.558-.252-.56-.56v-14.625c.002-.308.252-.558.56-.56h14.438c.308.002.558.252.56.56z"/></svg>