<!--Generated by Fontisto--><svg viewBox="0 0 18 24" xmlns="http://www.w3.org/2000/svg"><path d="m16.308 0h-14.354c-1.099.086-1.959.999-1.959 2.113 0 .048.002.096.005.144v-.006 19.499c-.003.041-.004.089-.004.137 0 1.114.859 2.027 1.952 2.113h.007 14.349c1.099-.085 1.959-.999 1.959-2.112 0-.049-.002-.097-.005-.144v.006-19.499c.003-.043.005-.093.005-.143 0-1.111-.858-2.022-1.947-2.107h-.007zm-7.177 22.5c-.827-.001-1.497-.671-1.497-1.498s.671-1.498 1.498-1.498 1.498.671 1.498 1.498c0 .414-.168.788-.439 1.059-.271.271-.646.439-1.06.439-.001 0-.001 0-.002 0z"/></svg>