<!--Generated by Fontisto--><svg viewBox="0 0 24 24" xmlns="http://www.w3.org/2000/svg"><path d="m13.817 5.669 4.504 4.501-8.15 8.15-4.501-4.504zm-3.006 13.944 8.8-8.8c.166-.163.27-.389.27-.64s-.103-.477-.269-.64l-5.156-5.156c-.166-.158-.392-.255-.64-.255s-.474.097-.64.256l-8.8 8.8c-.166.163-.27.389-.27.64s.103.477.269.64l5.156 5.156c.166.158.392.255.64.255s.474-.097.64-.256zm12.663-9.073-12.918 12.933c-.332.326-.787.527-1.289.527s-.957-.201-1.289-.527l-1.794-1.793c.477-.492.77-1.164.77-1.905 0-1.513-1.227-2.74-2.74-2.74-.74 0-1.412.294-1.905.771l.001-.001-1.781-1.794c-.326-.332-.527-.787-.527-1.289s.201-.957.527-1.289l12.919-12.906c.332-.326.787-.527 1.289-.527s.957.201 1.289.527l1.781 1.781c-.515.499-.835 1.197-.835 1.969 0 1.513 1.227 2.74 2.74 2.74.773 0 1.471-.32 1.969-.835l.001-.001 1.794 1.781c.326.332.527.787.527 1.289s-.201.957-.527 1.289z"/></svg>