<!--Generated by Fontisto--><svg viewBox="0 0 22 24" xmlns="http://www.w3.org/2000/svg"><path d="m16.313 4v-1.813c0-.013 0-.028 0-.043 0-1.184-.96-2.144-2.144-2.144-.003 0-.006 0-.01 0h-6.32c-.002 0-.005 0-.008 0-1.183 0-2.142.959-2.142 2.142 0 .016 0 .031.001.047v-.002 1.813h-5.69v2h.575c.196.023.372.099.515.214l-.002-.002c.119.157.203.346.239.552l.001.008 1.187 15.106c.094 1.84.094 2.118 2.25 2.118h12.462c2.16 0 2.16-.275 2.25-2.113l1.187-15.1c.036-.217.12-.409.242-.572l-.002.003c.141-.113.316-.19.508-.212h.005.575v-2h-5.687zm-9.313-1.813c0-.6.487-.938 1.106-.938h5.734c.618 0 1.162.344 1.162.938v1.813h-8zm-.531 17.813-.64-12h1.269l.656 12zm5.225 0h-1.374v-12h1.375zm3.85 0h-1.275l.656-12h1.269z"/></svg>