<!--Generated by Fontisto--><svg viewBox="0 0 11 24" xmlns="http://www.w3.org/2000/svg"><path d="m3.67 2.064 1.251-1.751c.128-.19.341-.313.584-.313s.456.123.582.31l.002.003 1.334 1.835c.334.417.167.834-.417.834h-1.001v9.84c0 .25.25.25.417.08l2.085-2.085c.311-.336.501-.788.501-1.284 0-.018 0-.035-.001-.053v.003-2c-.012.001-.027.001-.042.001-.53 0-.96-.43-.96-.96 0-.015 0-.029.001-.044v.002-1.002c.01-.548.453-.989 1-.997h1.002c.012-.001.027-.001.042-.001.53 0 .96.43.96.96 0 .013 0 .026-.001.04v-.002 1.005c.001.012.001.027.001.042 0 .53-.43.96-.96.96-.015 0-.029 0-.044-.001h.002v2c.001.031.002.067.002.103 0 .777-.32 1.479-.836 1.981l-.001.001-2.586 2.586c-.361.269-.593.694-.593 1.174 0 .057.003.112.009.167l-.001-.007v4.087c1.01.236 1.752 1.129 1.752 2.196 0 1.244-1.008 2.252-2.252 2.252s-2.252-1.008-2.252-2.252c0-1.066.741-1.96 1.736-2.193l.015-.003v-1.082c.005-.049.008-.105.008-.162 0-.504-.229-.955-.589-1.253l-.003-.002-2.586-2.586c-.515-.502-.834-1.203-.834-1.978 0-.008 0-.015 0-.023v.001-2.087c-.586-.197-1-.741-1-1.382 0-.013 0-.025 0-.038v.002c0-.01 0-.022 0-.035 0-.829.672-1.502 1.502-1.502s1.502.672 1.502 1.502v.036-.002.035c0 .642-.416 1.187-.993 1.38l-.01.003v2.085.001c0 .527.224 1.001.583 1.332l.001.001 2.085 2.085c.167.167.334.167.334-.08v-12.847h-1.002c-.58 0-.747-.417-.33-.918z"/></svg>