<!--Generated by Fontisto--><svg viewBox="0 0 20 24" xmlns="http://www.w3.org/2000/svg"><path d="m8.312 22.15 1.385-6.461-1.385-1.846-1.846-.923zm3.692 0 1.846-9.229-1.846.923-1.385 1.846zm2.307-14.565c-.016-.033-.035-.062-.058-.087-.306-.084-.657-.132-1.02-.132-.129 0-.256.006-.381.018l.016-.001c-.862.017-1.691.116-2.493.29l.084-.015c-.091.018-.196.029-.303.029s-.212-.01-.313-.03l.01.002c-.717-.159-1.546-.258-2.396-.274h-.013c-.109-.011-.237-.017-.365-.017-.362 0-.714.048-1.048.138l.028-.006c-.023.025-.042.053-.057.084l-.001.002q.029.26.058.39c.03.038.065.069.106.093l.002.001c.053.035.092.088.108.149v.002c.034.075.07.174.102.274l.006.022q.08.24.101.296t.108.245c.044.1.085.18.129.258l-.007-.013q.036.058.13.202c.045.077.103.142.171.193l.002.001q.08.05.202.137c.072.053.156.092.248.114l.005.001q.13.029.296.058c.103.018.222.029.344.029h.011-.001c.021.001.045.001.07.001.284 0 .553-.067.791-.186l-.01.005c.197-.098.356-.246.466-.428l.003-.005c.08-.142.151-.307.204-.479l.005-.018c.047-.164.103-.305.172-.439l-.006.013c.041-.103.138-.176.252-.18h.001.173c.115.004.212.077.252.178l.001.002c.062.12.119.262.161.409l.004.017c.058.191.129.356.215.51l-.007-.013c.112.187.272.335.462.43l.006.003c.228.114.497.181.781.181.025 0 .049 0 .074-.002h-.003.01c.121 0 .24-.01.356-.031l-.012.002q.166-.029.296-.058c.096-.023.181-.063.255-.117l-.002.001q.122-.086.202-.137c.07-.053.128-.117.171-.191l.002-.003q.094-.144.13-.202c.038-.065.079-.145.115-.227l.007-.017q.086-.187.108-.245t.101-.296c.038-.122.074-.221.116-.316l-.008.02c.016-.064.055-.116.107-.151l.001-.001c.043-.025.078-.056.107-.093l.001-.001c.024-.108.046-.24.059-.376l.001-.014zm5.999 12.676c.003.058.005.126.005.195 0 .994-.404 1.894-1.058 2.544-.689.62-1.605 1-2.61 1-.067 0-.133-.002-.199-.005h.009-12.602c-.057.003-.123.005-.19.005-1.005 0-1.921-.379-2.613-1.003l.004.003c-.653-.65-1.056-1.549-1.056-2.543 0-.069.002-.137.006-.205v.009q0-.88.065-1.701c.06-.684.157-1.302.292-1.905l-.018.095c.141-.682.327-1.278.565-1.847l-.024.066c.245-.571.552-1.064.923-1.501l-.007.008c.365-.446.814-.808 1.324-1.067l.023-.011-1.298-3.172h3.086c-.2-.549-.317-1.184-.32-1.845v-.002q0-.173.029-.462-2.8-.577-2.8-1.385 0-.822 3.028-1.428c.215-.748.468-1.389.773-2l-.03.067c.29-.626.631-1.165 1.033-1.653l-.01.013c.258-.325.653-.531 1.095-.534.457.054.868.213 1.22.453l-.009-.006c.343.234.754.393 1.198.446l.013.001c.457-.054.868-.213 1.22-.453l-.009.006c.343-.234.755-.393 1.2-.446l.013-.001c.443.002.837.209 1.094.531l.002.003c.389.476.729 1.017.997 1.597l.019.047c.274.543.527 1.184.722 1.85l.021.082q3.028.606 3.028 1.428 0 .808-2.8 1.385c.013.143.02.309.02.477 0 .656-.113 1.286-.321 1.87l.012-.039h3.086l-1.178 3.248c.631.341 1.151.81 1.541 1.377l.01.015c.415.591.74 1.282.935 2.025l.01.045c.173.612.319 1.353.411 2.111l.007.074c.073.629.114 1.358.114 2.097v.048-.003z"/></svg>