<!--Generated by Fontisto--><svg viewBox="0 0 34 24" xmlns="http://www.w3.org/2000/svg"><path d="m16.807 0c-.014 0-.029 0-.045 0-6.19 0-11.82 2.4-16.01 6.319l.013-.012-.765.713 3.862 3.826.72-.66c3.201-2.952 7.494-4.763 12.21-4.763s9.009 1.81 12.222 4.774l-.012-.011.72.66 3.862-3.826-.765-.713c-4.169-3.907-9.791-6.307-15.974-6.307-.014 0-.027 0-.041 0h.002z"/><path d="m27.405 12.03c-2.783-2.531-6.498-4.08-10.575-4.08-.002 0-.005 0-.007 0h-.667l-.007.015c-3.847.159-7.313 1.674-9.958 4.076l.013-.012-.787.713 3.893 3.855.72-.63c1.791-1.606 4.171-2.587 6.78-2.587s4.989.982 6.79 2.596l-.01-.008.72.63 3.893-3.854z"/><path d="m16.815 24 5.475-5.415-.87-.713c-1.188-.938-2.708-1.505-4.359-1.505-.089 0-.178.002-.266.005h.013c-.02 0-.043 0-.066 0-1.712 0-3.293.563-4.567 1.515l.02-.014-.862.713.795.787 3.96 3.915z"/></svg>