<!--Generated by Fontisto--><svg viewBox="0 0 24 24" xmlns="http://www.w3.org/2000/svg"><path d="m12 0h-.029c-6.627 0-12 5.373-12 12s5.373 12 12 12h.029c6.627 0 12-5.373 12-12s-5.373-12-12-12zm0 23.04h-.029c-6.097 0-11.04-4.943-11.04-11.04s4.943-11.04 11.04-11.04h.029c6.097 0 11.04 4.943 11.04 11.04s-4.943 11.04-11.04 11.04z"/><path d="m15.825 7.142c-.99.25-2.136.412-3.314.45l-.026.001v3.929h3.9c-.025-1.566-.228-3.072-.589-4.516z"/><path d="m12.479 1.99v4.725c1.118-.035 2.184-.184 3.209-.437l-.105.022c-.756-2.39-1.933-3.958-3.104-4.31z"/><path d="m8.389 6.294c.926.232 2 .384 3.102.42l.025.001v-4.736c-1.171.34-2.366 1.91-3.127 4.315z"/><path d="m19.188 4.926c-1.287-1.313-2.929-2.273-4.771-2.726l-.069-.014c.945 1.077 1.663 2.379 2.064 3.813l.016.069c1.062-.326 1.977-.713 2.84-1.182z"/><path d="m17.267 11.522h4.806c-.107-2.266-.95-4.316-2.293-5.937l.013.017c-.89.502-1.923.948-3.005 1.285l-.115.031c.353 1.375.568 2.958.593 4.588v.017z"/><path d="m7.586 11.522h3.934v-3.929c-1.213-.036-2.37-.201-3.481-.48l.112.024c-.337 1.309-.542 2.818-.565 4.37z"/><path d="m16.385 12.479h-3.906v3.92c1.204.035 2.353.197 3.457.474l-.11-.023c.332-1.305.534-2.808.559-4.354v-.016z"/><path d="m8.152 16.858c1-.255 2.156-.42 3.345-.455l.024-.001v-3.92h-3.935c.023 1.564.228 3.069.594 4.51l-.029-.134z"/><path d="m11.522 22.016v-4.737c-1.13.037-2.205.188-3.24.443l.107-.022c.762 2.406 1.956 3.979 3.133 4.316z"/><path d="m14.348 21.814c1.913-.47 3.557-1.433 4.845-2.745l.002-.002c-.783-.429-1.696-.817-2.65-1.113l-.108-.029c-.42 1.506-1.14 2.81-2.098 3.9l.01-.011z"/><path d="m9.617 2.198c-1.897.473-3.526 1.43-4.804 2.733l-.002.002c.775.424 1.678.808 2.622 1.102l.107.029c.419-1.496 1.136-2.791 2.086-3.876l-.01.011z"/><path d="m16.673 17.083c1.199.365 2.235.812 3.208 1.357l-.081-.042c1.33-1.604 2.172-3.654 2.278-5.897l.001-.023h-4.806c-.032 1.649-.249 3.232-.631 4.75z"/><path d="m12.479 17.279v4.73c1.171-.352 2.348-1.92 3.104-4.315-.92-.231-1.986-.381-3.081-.415l-.023-.001z"/><path d="m7.304 6.911c-1.187-.363-2.214-.808-3.178-1.351l.079.041c-1.33 1.604-2.172 3.654-2.278 5.897l-.001.023h4.782c.023-1.647.239-3.233.626-4.751l-.03.14z"/><path d="m6.703 12.479h-4.782c.107 2.266.95 4.316 2.293 5.937l-.013-.017c.883-.499 1.91-.943 2.984-1.279l.114-.031c-.351-1.375-.566-2.961-.595-4.591v-.019z"/><path d="m4.806 19.067c1.281 1.306 2.912 2.263 4.742 2.72l.069.015c-.942-1.075-1.66-2.373-2.063-3.802l-.017-.07c-1.053.329-1.958.714-2.814 1.178z"/></svg>