<!--Generated by Fontisto--><svg viewBox="0 0 24 24" xmlns="http://www.w3.org/2000/svg"><path d="m14.88 16.56c-1.576 1.155-3.54 1.866-5.667 1.92h-.013c-.045.001-.098.001-.152.001-4.967 0-8.999-4.002-9.048-8.957v-.005-.24c0-5.125 4.155-9.28 9.28-9.28s9.28 4.155 9.28 9.28c-.04 2.142-.755 4.109-1.939 5.707l.019-.027 7.44 7.44-1.76 1.6zm-12.24-7.28c.023 3.716 3.041 6.72 6.76 6.72 3.734 0 6.76-3.027 6.76-6.76 0-.014 0-.028 0-.042v.002c0-.004 0-.01 0-.015 0-1.847-.766-3.515-1.998-4.703l-.002-.002c-1.221-1.235-2.915-2-4.788-2-3.718 0-6.732 3.014-6.732 6.732v.072zm2.96.8v-1.6h7.44v1.6z"/></svg>