<!--Generated by Fontisto--><svg viewBox="0 0 24 24" xmlns="http://www.w3.org/2000/svg"><path d="m22.241 24-7.414-7.414c-1.559 1.169-3.523 1.875-5.652 1.885h-.002c-.032 0-.07.001-.108.001-5.006 0-9.065-4.058-9.065-9.065 0-.038 0-.076.001-.114v.006c0-5.135 4.163-9.298 9.298-9.298s9.298 4.163 9.298 9.298c-.031 2.129-.733 4.088-1.904 5.682l.019-.027 7.414 7.414zm-12.942-21.487c-3.72.016-6.73 3.035-6.73 6.758 0 3.732 3.025 6.758 6.758 6.758s6.758-3.025 6.758-6.758c0-1.866-.756-3.555-1.979-4.778-1.227-1.223-2.92-1.979-4.79-1.979-.006 0-.012 0-.017 0h.001z"/></svg>