<!--Generated by Fontisto--><svg viewBox="0 0 24 24" xmlns="http://www.w3.org/2000/svg"><path d="m12 13.123c-.621 0-1.125-.504-1.125-1.125 0-.621.504-1.125 1.125-1.125.621 0 1.125.504 1.125 1.125 0 .621-.504 1.125-1.125 1.125zm11.992-.54c-.117-2.122-1.644-3.856-3.653-4.288l-.031-.006c-.34-.048-.733-.075-1.132-.075-2.05 0-3.932.717-5.409 1.914l.016-.013c-.167-.156-.357-.292-.563-.4l-.014-.007c1.625-1.535 4.339-3.075 4.715-5.118.407-2.205-2.524-4.758-5.338-4.584-2.122.118-3.856 1.644-4.288 3.653l-.006.031c-.048.34-.075.733-.075 1.132 0 2.05.717 3.932 1.914 5.409l-.013-.016c-.156.167-.291.357-.4.563l-.007.014c-1.536-1.625-3.075-4.339-5.119-4.716-2.205-.406-4.758 2.524-4.584 5.338.118 2.122 1.644 3.856 3.654 4.288l.03.005c.34.048.732.075 1.131.075 2.05 0 3.932-.718 5.41-1.915l-.016.013c.167.156.357.291.563.4l.014.007c-1.625 1.536-4.34 3.075-4.716 5.119-.406 2.205 2.524 4.758 5.339 4.584 2.122-.117 3.856-1.644 4.288-3.653l.006-.031c.048-.34.075-.733.075-1.132 0-2.05-.718-3.932-1.915-5.409l.013.016c.156-.167.292-.357.4-.563l.007-.014c1.535 1.625 3.075 4.339 5.119 4.716 2.205.407 4.758-2.524 4.584-5.339z"/></svg>