<!--Generated by Fontisto--><svg viewBox="0 0 23 24" xmlns="http://www.w3.org/2000/svg"><path d="m9.809 13.832c-.68 0-1.232-.552-1.232-1.232 0-.68.552-1.232 1.232-1.232.68 0 1.232.552 1.232 1.232 0 .68-.552 1.232-1.232 1.232zm7.005-3.266c-1.183.89-2.57 1.587-4.071 2.01l-.088.021c-.004-1.22-.777-2.258-1.859-2.656l-.02-.006c.112-.772.176-1.663.176-2.57 0-1.392-.151-2.749-.437-4.055l.023.125c-.912-3.238-3.554-4.02-5.749-3.039-3.782 1.681-3.018 5.753-.241 7.159 1.493.65 2.769 1.524 3.85 2.595l-.001-.001c-.858.496-1.427 1.409-1.43 2.455.003.176.021.346.053.511l-.003-.018c-2.119.878-3.941 2.042-5.519 3.469l.016-.015c-2.349 2.41-1.704 5.088.241 6.503 3.347 2.435 6.488-.263 6.324-3.367-.055-.44-.087-.949-.087-1.466 0-1.125.149-2.215.428-3.251l-.02.087c.406.244.894.389 1.417.392h.001c.698-.003 1.336-.259 1.827-.681l-.004.003c1.639 1.284 3.548 2.32 5.616 3.007l.133.038c3.261.829 5.256-1.068 5.512-3.46.435-4.116-3.473-5.491-6.078-3.789z"/></svg>