<!--Generated by Fontisto--><svg viewBox="0 0 21 24" xmlns="http://www.w3.org/2000/svg"><path d="m7.982 13.031c-.662 0-1.199-.537-1.199-1.199 0-.662.537-1.199 1.199-1.199.662 0 1.199.537 1.199 1.199 0 .662-.537 1.199-1.199 1.199zm9.123-3.482c-2.404.258-4.601.777-6.684 1.534l.196-.062c-.355-1.142-1.401-1.956-2.638-1.958-.204 0-.403.023-.595.065l.018-.003c-.548-2.251-1.175-4.159-1.93-6.002l.101.279c-1.303-3.278-3.288-3.902-4.713-3.068-1.608.941-.714 2.914.577 4.742 1.342 1.833 2.827 3.433 4.477 4.845l.038.032c-.461.49-.744 1.151-.745 1.879.002.713.275 1.362.721 1.85l-.002-.002c-1.437 1.37-2.763 2.823-3.982 4.364l-.067.087c-2.184 2.766-1.735 4.797-.301 5.615 1.619.923 2.878-.838 3.818-2.871.837-1.825 1.519-3.952 1.94-6.171l.028-.176c.184.046.396.073.614.074h.001c1.221-.003 2.256-.799 2.618-1.899l.006-.02c1.633.506 3.62.952 5.655 1.252l.227.027c3.487.509 5.023-.896 5.013-2.547-.01-1.863-2.166-2.075-4.398-1.871z"/></svg>