<!--Generated by Fontisto--><svg viewBox="0 0 26 24" xmlns="http://www.w3.org/2000/svg"><path d="m11.87.12c-.909.245-1.674.761-2.226 1.454l-.007.009c-.538.687-.863 1.563-.863 2.515 0 1.101.434 2.101 1.141 2.837l-.001-.001c.306.238.512.591.553.993v.006c.072.395.113.851.113 1.315s-.041.92-.12 1.362l.007-.047c-.465 2.204-2.013 3.963-4.048 4.717l-.044.014-.632.24-.48-.133c-.339-.104-.73-.164-1.134-.164-.667 0-1.295.163-1.848.451l.022-.011c-1.373.685-2.3 2.079-2.3 3.69 0 1.582.894 2.956 2.205 3.643l.023.011c.545.285 1.191.453 1.876.453 1.912 0 3.52-1.305 3.98-3.073l.006-.029c.12-.494.222-.626.897-1.131.62-.45 1.34-.813 2.115-1.052l.052-.014c.516-.143 1.109-.225 1.72-.225 1.734 0 3.314.659 4.503 1.74l-.005-.005c.207.162.346.403.372.676v.004c.178.736.559 1.366 1.081 1.846l.003.002c.284.318.626.577 1.01.762l.019.008c.494.268 1.082.425 1.707.425.118 0 .234-.006.348-.016l-.015.001c.404 0 .793-.066 1.157-.188l-.026.007c1.343-.475 2.355-1.58 2.691-2.951l.006-.029c.055-.282.087-.606.087-.937 0-.343-.034-.679-.099-1.003l.005.032c-.385-1.386-1.425-2.466-2.757-2.899l-.03-.008c-.364-.105-.782-.165-1.215-.165-.364 0-.717.043-1.056.123l.031-.006c-.163.066-.352.104-.55.104-.276 0-.535-.074-.757-.204l.007.004c-2.477-.935-4.206-3.286-4.206-6.041 0-.435.043-.86.125-1.271l-.007.041.108-.566.4-.427c.699-.688 1.146-1.63 1.192-2.676v-.008c.004-.069.006-.149.006-.231 0-1.908-1.302-3.511-3.066-3.97l-.029-.006c-.307-.075-.66-.117-1.023-.117-.364 0-.718.043-1.058.124l.031-.006zm1.76 2.546c.53.271.886.813.886 1.439 0 .447-.182.852-.476 1.144-.244.275-.599.448-.994.448-.053 0-.105-.003-.157-.009l.006.001c-.045.005-.097.009-.15.009-.395 0-.749-.173-.992-.446l-.001-.001c-.298-.278-.484-.674-.484-1.112 0-.111.012-.22.035-.324l-.002.01c.141-.765.802-1.336 1.597-1.336.269 0 .522.065.746.181l-.009-.004zm.337 9.39c.514.251.92.658 1.162 1.159l.006.015c.116.227.184.495.184.778 0 .08-.005.159-.016.236l.001-.009c.009.069.015.149.015.23 0 .308-.077.597-.212.851l.005-.01c-.347.715-1.01 1.229-1.803 1.364l-.015.002c-.114.019-.246.029-.38.029-.982 0-1.831-.571-2.232-1.398l-.006-.015c-.127-.238-.202-.52-.202-.82 0-.082.006-.163.017-.243l-.001.009c-.01-.069-.015-.149-.015-.231 0-.277.065-.539.18-.772l-.005.01c.293-.621.813-1.094 1.451-1.319l.018-.005c.199-.072.429-.113.669-.113.074 0 .148.004.22.012l-.009-.001c.02-.001.043-.001.067-.001.333 0 .646.089.915.244l-.009-.005zm-9.394 5.698c.443.137.8.441 1.004.837l.004.009c.119.177.189.395.189.629 0 .065-.005.128-.016.19l.001-.007c-.018.648-.425 1.196-.994 1.423l-.011.004c-.176.063-.38.1-.592.1-.298 0-.579-.072-.827-.201l.01.005c-.489-.28-.814-.799-.814-1.394 0-.054.003-.108.008-.16l-.001.007c.022-.388.193-.733.457-.98l.001-.001c.284-.32.696-.521 1.156-.521.151 0 .297.022.435.062l-.011-.003zm17.696.06c.398.175.718.467.922.833l.005.01c.076.195.12.421.12.657 0 .27-.057.526-.161.757l.005-.012c-.257.528-.789.885-1.405.885-.014 0-.028 0-.042-.001h.002c-.016.001-.034.001-.052.001-.851 0-1.543-.681-1.56-1.528v-.002c-.009-.054-.015-.117-.015-.181 0-.238.073-.459.198-.641l-.003.004c.254-.533.789-.895 1.408-.895.209 0 .409.041.591.116l-.01-.004z"/><path d="m5.062 6.082c-.983 1.122-1.744 2.466-2.195 3.944l-.02.076c-.217.789-.234 1.006-.03.4.319-.864.67-1.598 1.077-2.295l-.037.068c.399-.627.823-1.172 1.294-1.673l-.006.006c.163-.155.308-.327.432-.513l.007-.011c-.04-.114-.127-.204-.237-.246l-.003-.001c-.11.066-.203.147-.28.243z"/><path d="m20.742 6.498c.941 1.143 1.644 2.517 2.014 4.023l.015.07c.205.88.24.96.386.96.234 0 .259-.193.09-.765-.495-1.685-1.344-3.136-2.466-4.325l.005.005-.4-.422z"/><path d="m5.449 7.293c-.582.761-1.056 1.643-1.378 2.596l-.019.064c-.259.789-.325 1.168-.096.572.426-1.086 1-2.02 1.708-2.835l-.01.012c.301-.349.349-.463.222-.59s-.21-.085-.427.18z"/><path d="m20.273 7.642c.659.947 1.166 2.056 1.455 3.25l.014.067c.036.169.16.253.301.198.15-.06.16-.193.012-.608-.454-1.245-1.119-2.313-1.961-3.213l.005.005c-.102-.114-.024.018.174.301z"/><path d="m5.653 8.598c-.321.554-.591 1.194-.775 1.869l-.013.057c.083-.114.165-.245.237-.382l.009-.018c.212-.368.424-.682.654-.979l-.014.019c.295-.4.379-.548.337-.62-.11-.163-.296-.139-.434.054z"/><path d="m20.002 8.93c.146.285.293.631.416.988l.018.059c.193.584.331.72.512.494.108-.133.108-.145-.08-.475-.315-.53-.632-.984-.978-1.413l.018.023c-.158-.193-.152-.162.094.325z"/><path d="m11.486 21.72c-.017.025-.028.056-.028.09 0 .055.028.103.07.132h.001c.09.09.198.096.981.06.48-.018.969-.054 1.083-.08.198-.036.205-.042.06-.084-.143-.028-.309-.046-.478-.048h-.002c-.181-.006-.572-.048-.873-.096-.703-.113-.735-.113-.814.026z"/><path d="m10.42 22.364c-.102.042-.102.234 0 .313.557.159 1.197.251 1.858.251.176 0 .351-.007.524-.019l-.023.001c.694-.007 1.363-.099 2.001-.265l-.057.013c-.013 0-.029 0-.045 0-.224 0-.444.013-.661.039l.026-.003c-.195.014-.422.022-.65.022-.723 0-1.427-.078-2.105-.226l.065.012c-.686-.15-.837-.178-.933-.136z"/><path d="m9.403 23.261c-.072.181.06.295.463.4.803.214 1.726.337 2.677.337.751 0 1.485-.077 2.193-.223l-.07.012c.62-.12.602-.174-.03-.08-.384.048-.829.075-1.281.075-1.061 0-2.088-.15-3.059-.431l.078.019c-.741-.218-.923-.242-.971-.11z"/></svg>