<!--Generated by Fontisto--><svg viewBox="0 0 31 24" xmlns="http://www.w3.org/2000/svg"><path d="m19.478 22.099q0-.046 0-.091h-5.728q0 .045 0 .091c0 .013.001.029.001.045 0 1.05-.851 1.901-1.901 1.901s-1.901-.851-1.901-1.901c0-.016 0-.031.001-.047v.002q0-.046 0-.091h-.653c-.584 0-1.073-.411-1.192-.96l-.001-.008-3.817-18.073-3.261-.543c-.56-.119-.974-.609-.974-1.196 0-.674.547-1.221 1.221-1.221.053 0 .105.003.157.01l-.006-.001 4.081.68c.497.085.887.461.991.943l.001.008.692 3.264 11.905.992c-.069.356-.11.766-.112 1.186v.001.003c0 .402.035.796.103 1.179l-.006-.04c-.571.183-.977.709-.977 1.33 0 .093.009.183.026.271l-.001-.009.719 5.19c.044.333.196.625.418.845.202.201.479.327.786.33h.001c.068 0 .135-.007.199-.019l-.007.001c.601-.16 1.038-.699 1.038-1.341 0-.09-.009-.179-.025-.264l.001.009-.392-2.822c1.216 1.261 2.92 2.044 4.808 2.044.043 0 .086 0 .128-.006l.093-.005-.669 3.902c-.033.193-.2.339-.4.339h-.001-14.864l.327 1.547h14.157c.659.02 1.185.559 1.185 1.22s-.526 1.2-1.183 1.22h-.002-1.164q0 .045 0 .091c0 1.05-.851 1.901-1.901 1.901s-1.901-.851-1.901-1.901zm1.358 0c.001.297.242.537.539.537s.539-.241.539-.539c0-.031-.003-.062-.008-.092v.003h-1.06c-.005.027-.008.059-.008.091zm-9.528 0c.001.297.242.537.539.537s.539-.241.539-.539c0-.031-.003-.062-.008-.092v.003h-1.061c-.005.027-.007.057-.007.089v.002zm3.867-13.875c-.601.159-1.038.699-1.038 1.34 0 .091.009.179.025.265l-.001-.009.719 5.19c.044.333.196.625.418.845.202.201.479.327.786.33h.001c.068 0 .135-.007.199-.019l-.007.001c.601-.16 1.038-.699 1.038-1.341 0-.09-.009-.179-.025-.264l.001.009-.719-5.19c-.044-.333-.196-.625-.418-.845-.202-.201-.479-.327-.786-.331h-.001c-.069 0-.136.007-.201.02l.007-.001zm-3.966 0c-.603.159-1.04.699-1.04 1.341 0 .092.009.181.026.268l-.001-.009.719 5.19c.044.333.196.625.418.845.202.201.479.327.786.33h.001c.068 0 .135-.007.199-.019l-.007.001c.602-.159 1.039-.699 1.039-1.341 0-.09-.009-.178-.025-.264l.001.009-.72-5.193c-.044-.333-.196-.625-.418-.845-.202-.202-.479-.327-.786-.331h-.001c-.068 0-.134.007-.198.019zm8.789-1.128c0-3.136 2.542-5.678 5.678-5.678s5.678 2.542 5.678 5.678-2.542 5.678-5.678 5.678c-3.136-.002-5.677-2.543-5.68-5.679zm1.627 0c.001 2.237 1.814 4.05 4.051 4.05s4.051-1.814 4.051-4.051-1.814-4.051-4.051-4.051c-2.237.002-4.05 1.814-4.053 4.051zm3.24 1.621v-.808h-.808c-.449 0-.814-.364-.814-.814s.364-.814.814-.814h.808v-.808c0-.449.364-.814.814-.814s.814.364.814.814v.808h.808c.449 0 .814.364.814.814s-.364.814-.814.814h-.808v.807c0 .449-.364.814-.814.814s-.814-.364-.814-.814z"/></svg>