<!--Generated by Fontisto--><svg viewBox="0 0 28 24" xmlns="http://www.w3.org/2000/svg"><path d="m.482 24c-.215-.002-.389-.177-.389-.393v-1.783c0-.217.176-.393.393-.393h.001 1.346v-12.759s0 0 0-.001c0-.085.014-.167.039-.244l-.002.006c-.754-.216-1.379-.676-1.8-1.287l-.007-.011c-.04-.061-.063-.135-.063-.214 0 0 0 0 0-.001v-6.526c0-.217.176-.393.393-.394h27.013.001c.217 0 .393.176.393.393v.001 6.526c0 .079-.024.153-.064.215l.001-.002c-.611.855-1.582 1.418-2.687 1.468h-.008q0 .034 0 .069v12.76h1.09.001c.217 0 .393.176.393.393v1.783c0 .217-.176.393-.393.393h-.001zm22.99-2.965v-12.362c0-.07.009-.138.026-.202l-.001.006c-.596-.154-1.112-.444-1.53-.836l.002.002c-.676.607-1.574.978-2.56.978-.04 0-.08-.001-.12-.002h.006c-.034.001-.073.002-.113.002-.993 0-1.897-.378-2.577-.998l.003.003c-.677.617-1.581.995-2.574.995-.04 0-.079-.001-.119-.002h.006c-.034.001-.073.002-.112.002-.993 0-1.897-.378-2.578-.998l.003.003c-.677.617-1.582.995-2.575.995-.043 0-.085-.001-.128-.002h.006c-.034.001-.073.002-.112.002-.993 0-1.898-.378-2.578-.998l.003.003c-.643.594-1.499.967-2.441.993h-.005q0 .029 0 .058v12.359h1.156v-5.253c0-.217.176-.393.393-.393h.001 4.649.001c.217 0 .393.176.393.393v5.253zm-4.177-13.202c.03.001.065.002.1.002.813 0 1.553-.318 2.1-.837l-.001.001c-.006-.025-.009-.054-.009-.083v-6.129h-4.41v6.133c.001.008.001.017.001.027s0 .019-.001.028v-.001c.546.532 1.293.861 2.117.861.037 0 .073-.001.11-.002h-.005zm-10.758 0c.032.001.069.002.106.002.824 0 1.571-.328 2.118-.861l-.001.001c-.001-.008-.001-.017-.001-.027s0-.019.001-.028v.001-6.133h-4.448v6.133c.001.008.001.017.001.027s0 .019-.001.028v-.001c.546.532 1.293.861 2.117.861.038 0 .075-.001.112-.002h-.005zm2.873 10.495c-.217 0-.393-.176-.393-.393v-6.82-.001c0-.217.176-.393.393-.393h11.008.001c.217 0 .393.176.393.393v.001 6.821c0 .217-.176.393-.393.393h-.001z"/></svg>