<!--Generated by Fontisto--><svg viewBox="0 0 22 24" xmlns="http://www.w3.org/2000/svg"><path d="m14.416 24v-11.098h5.68c.181 0 .328.147.328.328v10.114c0 .362-.294.656-.656.656zm-12.096 0c-.362 0-.656-.294-.656-.656v-10.114c0-.181.147-.328.328-.328h5.621v11.098zm-1.992-12.08c-.181 0-.328-.147-.328-.328v-4.031c0-.181.147-.328.328-.328h6.546c-3.914-1.01-5.274-3.055-5.345-3.164-.066-.101-.106-.224-.106-.357 0-.362.294-.656.656-.656.23 0 .432.118.549.296l.002.002c.028.041 1.342 1.92 5.15 2.74-1.273-.64-2.518-1.529-2.847-2.673-.049-.187-.077-.401-.077-.622 0-.761.334-1.443.862-1.91l.003-.002c.425-.515 1.05-.851 1.755-.888h.006c1.714 0 2.904 2.391 3.583 4.309.749-1.87 2.037-4.252 3.74-4.252.741.039 1.388.41 1.799.966l.005.006c.48.464.779 1.113.779 1.832 0 .262-.04.515-.113.753l.005-.018c-.352 1.035-1.466 1.823-2.653 2.391 3.472-.872 4.675-2.61 4.69-2.633.12-.173.318-.286.541-.286.362 0 .656.294.656.656 0 .127-.036.246-.099.347l.002-.003c-.07.11-1.434 2.154-5.345 3.164h6.48c.181 0 .328.147.328.328v4.029c0 .181-.147.328-.328.328zm6.349-10.132c-.65.69-.524 1.127-.48 1.27.298 1.035 2.268 2.018 3.936 2.596-.871-2.955-2.053-4.342-2.65-4.342-.329.056-.609.229-.804.473zm5.315 3.791c1.692-.501 3.698-1.389 4.043-2.406.048-.142.194-.572-.422-1.291-.183-.271-.469-.461-.801-.513l-.007-.001c-.946 0-2.103 2.226-2.813 4.21z"/></svg>