<!--Generated by Fontisto--><svg viewBox="0 0 23 24" xmlns="http://www.w3.org/2000/svg"><path d="m22.596 23.997h-11.051c-.18 0-.325-.146-.325-.326 0-.005 0-.011 0-.016v.001l.65-12.947c.01-.171.151-.306.324-.306h.001 9.751c.173 0 .314.135.324.305v.001l.647 12.882c.006.024.01.052.01.081v.001c0 .179-.145.324-.324.324h-.001zm-9.098-10.878c.002.468.309.863.732.998l.007.002c.341 1.651 1.514 2.873 2.908 2.873s2.565-1.223 2.904-2.868c.441-.133.757-.536.757-1.013 0-.583-.473-1.056-1.056-1.056s-1.056.473-1.056 1.056c0 .335.156.634.4.828l.002.002c-.248 1.198-1.029 2.077-1.955 2.077s-1.703-.874-1.953-2.067c.251-.194.41-.496.41-.834 0-.582-.471-1.053-1.053-1.053s-1.053.471-1.053 1.053v.003zm-13.173 9.601c-.179 0-.325-.145-.325-.325 0-.006 0-.012.001-.018v.001l.904-17.995c.01-.171.152-.306.324-.306h.001 2.203c.691-2.4 2.535-4.076 4.679-4.076s3.986 1.677 4.677 4.074h1.994.001c.172 0 .314.135.323.305v.001l.261 5.209h-3.173s0 0-.001 0c-.608 0-1.104.477-1.135 1.077v.003l-.605 12.051zm10.623-17.042c-.398.261-.657.705-.657 1.209 0 .796.645 1.441 1.441 1.441s1.441-.645 1.441-1.441c0-.613-.383-1.137-.923-1.345l-.01-.003c-.236-2.658-1.997-4.729-4.127-4.729s-3.898 2.075-4.131 4.738c-.541.215-.916.734-.916 1.341 0 .795.645 1.44 1.44 1.44s1.44-.645 1.44-1.44c0-.51-.265-.958-.665-1.214l-.006-.003c.168-2.002 1.376-3.56 2.838-3.56s2.673 1.563 2.838 3.569zm-4.389-1.605h3.1c-.269-.627-.849-1.074-1.541-1.15l-.009-.001c-.7.077-1.28.525-1.545 1.14l-.005.012zm12.799 9.018c0-.211.171-.382.382-.382s.382.171.382.382-.171.382-.382.382c-.21-.001-.381-.172-.381-.382zm-5.224 0c0-.211.171-.382.382-.382s.382.171.382.382-.171.382-.382.382c-.209-.002-.378-.172-.378-.382zm-2.976-6.146c0-.313.254-.567.568-.567s.568.254.568.568-.254.568-.568.568c-.314 0-.568-.255-.568-.569zm-7.228 0c0-.314.255-.569.569-.569s.569.255.569.569-.255.569-.569.569c-.314 0-.568-.255-.568-.569z"/></svg>