<!--Generated by Fontisto--><svg viewBox="0 0 35 24" xmlns="http://www.w3.org/2000/svg"><path d="m31.364 19.73h-.989v-15.25h.989zm-2.078-3.761h-2.473v-11.489h2.473zm-1.108 3.35v.002c0 .198-.091.374-.234.49l-.001.001c-.147.126-.34.202-.55.202-.01 0-.021 0-.031-.001h.001c-.01 0-.022.001-.034.001-.213 0-.407-.078-.556-.208l.001.001c-.138-.116-.225-.289-.225-.481 0-.002 0-.004 0-.006v-.062h.558v.072.006c0 .067.027.128.07.173.048.045.112.072.182.072.006 0 .012 0 .017-.001h-.001c.005 0 .011.001.016.001.07 0 .134-.028.182-.072.044-.045.071-.106.071-.174 0-.002 0-.004 0-.006v-.583c-.112.085-.254.136-.407.137-.015.001-.032.002-.05.002-.188 0-.358-.078-.48-.203-.098-.122-.158-.279-.158-.449 0-.015 0-.03.001-.045v.002-.499c.007-.139.06-.265.142-.365l-.001.001c.092-.108.211-.189.348-.234l.005-.002c.092-.032.197-.051.308-.051h.01c.01 0 .021-.001.032-.001.214 0 .409.079.558.21l-.001-.001c.138.116.225.289.225.482v.006zm-2.205-3.35h-1.485v-11.489h1.485zm-.158 3.35c0 .202-.098.38-.249.491l-.002.001c-.157.126-.359.202-.579.202-.009 0-.018 0-.027 0h.001-.042c-.008 0-.017 0-.026 0-.219 0-.421-.077-.579-.205l.002.001c-.15-.113-.246-.29-.247-.49v-.265c0-.001 0-.001 0-.002 0-.188.085-.356.218-.469l.001-.001c.062-.057.135-.105.214-.14l.005-.002c-.145-.061-.261-.166-.334-.298l-.002-.003c-.038-.074-.06-.162-.06-.255 0-.007 0-.013 0-.02v.001-.158c0-.005 0-.011 0-.017 0-.18.079-.342.205-.453l.001-.001c.149-.13.346-.209.561-.209.015 0 .03 0 .044.001h-.002.042c.013-.001.028-.001.044-.001.216 0 .413.079.564.21l-.001-.001c.126.112.205.275.205.457v.015-.001.158.013c0 .174-.077.33-.198.437l-.001.001c-.056.05-.121.092-.192.123l-.005.002c.157.071.283.186.368.328l.002.004c.043.074.069.164.069.259v.018-.001zm-2.49-1.809-.755 2.473h-.528l.755-2.473h-1.089v-.44h1.617zm-2.308-13.03h1.98v11.489h-1.978zm-.048 13.314h-.562v-.072c0-.002 0-.004 0-.006 0-.068-.027-.129-.071-.174-.046-.046-.11-.074-.18-.074-.006 0-.012 0-.018.001h.001c-.005 0-.011-.001-.017-.001-.071 0-.134.028-.181.074-.043.045-.07.106-.07.173v.007.581c.111-.084.251-.134.404-.134h.004c.016-.001.034-.002.053-.002.188 0 .358.078.479.203.099.121.159.277.159.447 0 .015 0 .03-.001.045v-.002.499c-.01.192-.103.36-.245.47l-.001.001c-.146.118-.333.189-.537.189-.009 0-.018 0-.027 0h.001c-.01 0-.022.001-.034.001-.213 0-.407-.078-.555-.208l.001.001c-.138-.116-.225-.289-.225-.481 0-.002 0-.004 0-.006v-1.587c0-.002 0-.005 0-.007 0-.143.047-.275.127-.381l-.001.002c.091-.117.213-.206.355-.253l.005-.001c.093-.035.201-.055.313-.055h.011-.001c.009 0 .021-.001.032-.001.214 0 .409.079.558.21l-.001-.001c.138.116.225.289.225.483v.005zm-2.364 1.493v.013c0 .209-.098.395-.25.516l-.001.001c-.154.124-.353.2-.569.2-.012 0-.025 0-.037-.001h.002c-.009 0-.02.001-.031.001-.214 0-.41-.079-.559-.21l.001.001c-.138-.116-.225-.289-.225-.483 0-.002 0-.004 0-.005v-.069l.515-.032.012.099c.004.109.074.2.171.235l.002.001c.029.012.063.019.098.019q.33 0 .33-.281v-.712c-.001-.089-.047-.167-.117-.211l-.001-.001c-.039-.025-.086-.039-.136-.039-.006 0-.011 0-.017.001h.001c-.005 0-.012-.001-.018-.001-.077 0-.147.035-.192.091-.035.046-.057.104-.058.167v.079h-.538v-1.59h1.574v.44h-1.036v.625c.06-.066.136-.115.222-.143l.004-.001c.051-.016.11-.026.171-.026h.008c.016-.001.035-.002.053-.002.185 0 .352.079.469.204.092.123.148.277.148.445 0 .017-.001.033-.002.049v-.002zm-2.297-14.807h.989v11.489h-.989zm-.118 14.874h-.344v.627h-.538v-.627h-.952v-.442l.952-1.843h.538v1.843h.344zm-2.574-.069v.007c0 .215-.106.405-.269.521l-.002.001c-.164.124-.371.199-.596.199-.009 0-.019 0-.028 0h.001c-.008 0-.017 0-.026 0-.219 0-.421-.077-.579-.205l.002.001c-.15-.113-.247-.29-.248-.49v-.072l.512-.032.011.102c.007.073.043.136.096.179h.001c.055.044.126.07.202.07h.015-.001q.37 0 .37-.281v-.171q0-.447-.575-.447v-.376c.016.001.034.002.053.002.154 0 .296-.054.407-.144l-.001.001c.085-.085.137-.203.137-.332 0-.007 0-.015-.001-.022v.001-.067c0-.191-.102-.285-.307-.285-.007-.001-.016-.001-.024-.001-.091 0-.172.041-.226.106-.038.054-.06.121-.06.194v.018-.001.069h-.526v-.067c0-.008-.001-.018-.001-.028 0-.186.074-.354.194-.478.147-.14.347-.225.566-.225.018 0 .036.001.053.002h-.002c.013-.001.028-.001.044-.001.216 0 .413.079.564.21l-.001-.001c.126.112.205.275.205.457v.015-.001.118.008c0 .182-.076.346-.199.462-.057.055-.123.103-.194.139l-.005.002c.157.071.283.186.368.328l.002.004c.043.075.069.165.069.26v.017-.001zm-2.12-3.315h-1.485v-11.489h1.485zm-.41 3.582v.43h-1.711v-.403c.036-.061.075-.113.118-.161l-.001.001c.037-.045.078-.094.118-.148l.139-.164q.118-.137.385-.439c.137-.15.26-.318.364-.498l.007-.014c.059-.102.095-.223.099-.352v-.001c0-.001 0-.003 0-.004 0-.086-.035-.164-.091-.22-.063-.06-.149-.097-.243-.097-.005 0-.01 0-.014 0h.001c-.004 0-.009 0-.014 0-.139 0-.257.087-.304.209l-.001.002c-.019.046-.031.099-.031.155v.013-.001.112h-.53v-.077c-.001-.014-.001-.031-.001-.047 0-.235.106-.445.273-.584l.001-.001c.158-.12.358-.193.575-.193.016 0 .032 0 .048.001h-.002.021c.222 0 .426.082.582.217l-.001-.001c.151.118.247.3.25.504-.001.212-.061.41-.165.578l.003-.005c-.132.198-.268.37-.416.53l.003-.003q-.087.101-.261.318l-.097.118c-.062.078-.111.139-.143.184-.009.012-.017.025-.022.04v.001zm-2.162-3.582h-1.98v-11.489h1.98zm-.288 4.014h-.538v-2.237h-.459v-.306c.137-.013.263-.055.373-.12l-.004.002c.106-.057.192-.141.25-.242l.002-.003h.376zm-2.644-.253h-1.485v-15.25h1.485zm6.749-15.25h2.473v11.489h-2.473zm5.828 0h1.485v11.489h-1.485zm16.251-4.475h-34.34c-.273 0-.495.221-.495.495v23.01c0 .273.221.495.495.495h34.34c.273 0 .495-.221.495-.495v-23.01c0-.273-.221-.495-.495-.495z"/></svg>