<!--Generated by Fontisto--><svg viewBox="0 0 21 24" xmlns="http://www.w3.org/2000/svg"><path d="m15.595 6.567c-.605 2.91-2.674 5.062-5.132 5.062s-4.531-2.16-5.134-5.07c-.761-.242-1.302-.941-1.306-1.767v-.001c0-1.028.832-1.861 1.859-1.864 1.028.001 1.86.834 1.862 1.861-.002.597-.286 1.128-.727 1.466l-.004.003c.441 2.106 1.818 3.649 3.447 3.649s3.014-1.551 3.45-3.666c-.432-.341-.708-.864-.71-1.451.001-1.028.834-1.86 1.861-1.862 1.028.001 1.86.834 1.862 1.861-.001.837-.555 1.543-1.316 1.775l-.013.003zm5.055 16.72-1.142-22.739c-.015-.304-.266-.545-.572-.545 0 0 0 0-.001 0h-17.214s0 0-.001 0c-.306 0-.557.241-.572.543v.001l-1.147 22.853c0 .008-.001.017-.001.027 0 .154.061.295.161.398.105.11.252.178.415.178h19.52c.317 0 .574-.257.574-.574v-.001c0-.05-.006-.099-.018-.145l.001.004z"/></svg>