<!--Generated by Fontisto--><svg viewBox="0 0 27 24" xmlns="http://www.w3.org/2000/svg"><path d="m25.714 10.286h.027c.465 0 .885.192 1.185.502.31.301.502.721.502 1.186v.028-.001.027c0 .465-.192.885-.502 1.185-.301.31-.721.502-1.186.502-.009 0-.019 0-.028 0h.001-.201l-1.541 8.869c-.069.413-.283.767-.587 1.015l-.003.002c-.29.249-.67.401-1.085.401-.004 0-.008 0-.013 0h-17.142c-.004 0-.008 0-.012 0-.415 0-.795-.152-1.087-.403l.002.002c-.307-.251-.52-.604-.588-1.008l-.001-.01-1.541-8.869h-.201c-.008 0-.017 0-.027 0-.465 0-.885-.192-1.185-.502-.31-.301-.502-.721-.502-1.186 0-.009 0-.019 0-.028v.001c0-.008 0-.017 0-.027 0-.465.192-.885.502-1.185.301-.31.721-.502 1.186-.502h.028-.001zm-19.223 10.714c.236-.017.442-.13.581-.3l.001-.001c.131-.146.211-.339.211-.552 0-.025-.001-.05-.003-.074v.003l-.429-5.572c-.017-.236-.13-.442-.3-.581l-.001-.001c-.146-.131-.339-.211-.552-.211-.025 0-.05.001-.074.003h.003c-.236.017-.442.13-.581.3l-.001.001c-.131.146-.211.339-.211.552 0 .025.001.05.003.074v-.003l.429 5.572c.015.224.118.422.274.562l.001.001c.149.141.35.228.572.228h.011-.001zm5.505-.856v-5.572c0-.002 0-.005 0-.008 0-.234-.097-.445-.254-.594-.15-.157-.361-.254-.595-.254-.003 0-.005 0-.008 0-.002 0-.005 0-.008 0-.234 0-.445.097-.594.254-.157.15-.254.361-.254.595v.008 5.572.008c0 .234.097.445.254.594.15.157.361.254.595.254h.008.008c.234 0 .445-.097.594-.254.159-.15.258-.363.258-.598 0-.002 0-.004 0-.006zm5.143 0v-5.572c0-.002 0-.005 0-.008 0-.234-.097-.445-.254-.594-.15-.157-.361-.254-.595-.254-.003 0-.005 0-.008 0-.002 0-.005 0-.008 0-.234 0-.445.097-.594.254-.157.15-.254.361-.254.595v.008 5.572.008c0 .234.097.445.254.594.15.157.361.254.595.254h.008.008c.234 0 .445-.097.594-.254.159-.15.258-.363.258-.598 0-.002 0-.004 0-.006zm4.714.066.429-5.572c.002-.021.003-.046.003-.071 0-.212-.08-.406-.211-.553l.001.001c-.141-.172-.347-.285-.58-.302h-.003c-.021-.002-.046-.003-.071-.003-.212 0-.406.08-.553.211l.001-.001c-.172.141-.285.347-.302.58v.003l-.429 5.572c-.002.021-.003.046-.003.071 0 .212.08.406.211.553l-.001-.001c.141.172.347.285.58.302h.003.067.01c.222 0 .423-.087.573-.228.159-.141.263-.34.279-.564v-.003zm-15.478-16.3-1.245 5.518h-1.768l1.352-5.906c.163-.785.59-1.45 1.182-1.915l.007-.005c.571-.464 1.306-.744 2.107-.744h.038-.002 2.236c0-.002 0-.005 0-.008 0-.234.097-.445.254-.594.15-.157.361-.255.596-.255h.012 5.142.008c.234 0 .445.097.594.254.157.15.254.361.254.595v.008h2.236.037c.801 0 1.536.28 2.112.748l-.006-.005c.599.47 1.025 1.135 1.185 1.899l.004.021 1.352 5.906h-1.768l-1.245-5.518c-.095-.392-.312-.724-.606-.962l-.003-.003c-.282-.233-.647-.375-1.046-.375-.007 0-.014 0-.02 0h-2.235v.008c0 .234-.097.445-.254.594-.15.157-.361.254-.595.254-.003 0-.005 0-.008 0h-5.142c-.002 0-.005 0-.008 0-.234 0-.445-.097-.594-.254-.157-.15-.254-.361-.254-.595 0-.003 0-.005 0-.008h-2.236c-.006 0-.013 0-.019 0-.398 0-.764.142-1.048.377l.003-.002c-.297.242-.512.574-.603.954l-.002.012z"/></svg>