<!--Generated by Fontisto--><svg viewBox="0 0 31 24" xmlns="http://www.w3.org/2000/svg"><path d="m19.479 22.099q0-.046 0-.091h-5.729q0 .045 0 .091c0 1.05-.851 1.901-1.901 1.901s-1.901-.851-1.901-1.901q0-.046 0-.091h-.651c-.585 0-1.073-.411-1.193-.96l-.001-.008-3.817-18.073-3.261-.543c-.56-.119-.974-.609-.974-1.196 0-.674.547-1.221 1.221-1.221.053 0 .105.003.157.01l-.006-.001 4.081.68c.497.085.887.461.991.943l.001.008.692 3.264 11.904.992c-.07.356-.11.766-.112 1.186v.001.001c0 .381.032.754.092 1.118l-.005-.039c-.29.112-.523.32-.663.585l-.003.007c-.117.213-.186.467-.186.738 0 .077.006.153.016.227l-.001-.008.719 5.19c.044.333.196.625.418.845.202.201.48.326.786.33h.001c.068 0 .135-.007.199-.019l-.007.001c.601-.16 1.038-.699 1.038-1.341 0-.09-.009-.179-.025-.264l.001.009-.36-2.592c1.201 1.185 2.852 1.917 4.674 1.917h.002c.043 0 .086 0 .128-.006h.092l-.669 3.902c-.034.193-.2.338-.4.338-.001 0-.001 0-.002 0h-14.867l.327 1.547h14.157c.011 0 .023-.001.036-.001.674 0 1.221.547 1.221 1.221s-.547 1.221-1.221 1.221c-.013 0-.025 0-.038-.001h.002-1.164q0 .045 0 .091c-.025 1.031-.866 1.856-1.901 1.856s-1.876-.826-1.901-1.854v-.002zm1.358 0c.005.294.245.53.539.53.298 0 .539-.241.539-.539 0-.029-.002-.057-.007-.085v.003h-1.063c-.005.027-.007.057-.007.089v.002zm-9.528 0c.001.297.242.537.539.537s.539-.241.539-.539c0-.031-.003-.062-.008-.092v.003h-1.062c-.005.027-.007.057-.007.089v.002zm3.972-13.972c-.603.159-1.04.699-1.04 1.341 0 .089.008.176.024.26l-.001-.009.719 5.19c.044.333.196.625.418.845.202.201.479.327.786.33h.001c.068 0 .135-.007.199-.019l-.007.001c.602-.159 1.039-.699 1.039-1.341 0-.09-.009-.178-.025-.264l.001.009-.719-5.19c-.044-.333-.196-.625-.418-.845-.203-.2-.482-.325-.79-.326-.067 0-.132.006-.196.018l.007-.001zm-3.967 0c-.602.159-1.039.698-1.039 1.34 0 .089.008.177.025.261l-.001-.009.719 5.19c.044.333.196.625.418.845.202.201.48.326.786.33h.001c.068 0 .135-.007.199-.019l-.007.001c.601-.16 1.038-.699 1.038-1.341 0-.09-.009-.179-.025-.264l.001.009-.72-5.185c-.044-.333-.196-.625-.418-.845-.202-.202-.479-.327-.786-.331h-.001s-.001 0-.002 0c-.067 0-.133.006-.196.018l.007-.001zm8.684-1.032c0-3.136 2.542-5.678 5.678-5.678s5.678 2.542 5.678 5.678-2.542 5.677-5.677 5.678c-3.136-.002-5.678-2.543-5.681-5.678zm1.627 0c0 2.238 1.814 4.052 4.052 4.052s4.052-1.814 4.052-4.052-1.814-4.052-4.052-4.052c-2.238.001-4.052 1.814-4.054 4.052zm2.43.813c-.449 0-.814-.364-.814-.814s.364-.814.814-.814h3.24c.449 0 .814.364.814.814s-.364.814-.814.814z"/></svg>