<!--Generated by Fontisto--><svg viewBox="0 0 24 24" xmlns="http://www.w3.org/2000/svg"><path d="m10.666 23.111c-.25-.28-.534-.598-.75-.64-.363.016-.697.13-.98.315l.007-.005c-.335.199-.731.334-1.154.378l-.012.001c-.003 0-.007 0-.01 0-.13 0-.254-.026-.367-.073l.006.002c-.491-.204-.69-.772-.88-1.322-.081-.346-.24-.646-.457-.894l.002.002c-.135-.066-.293-.105-.46-.105-.033 0-.065.002-.097.004h.004c-.146 0-.3.009-.454.018-.166.01-.332.018-.49.018-.04.004-.086.006-.133.006-.353 0-.676-.125-.928-.334l.002.002c-.221-.314-.353-.705-.353-1.126 0-.149.017-.295.048-.435l-.002.013c.018-.104.029-.223.029-.345 0-.237-.04-.464-.113-.676l.004.015c-.246-.216-.546-.375-.878-.453l-.014-.003c-.55-.191-1.12-.389-1.322-.88-.028-.125-.044-.268-.044-.415 0-.42.132-.809.357-1.128l-.004.006c.175-.279.287-.614.307-.973v-.005c-.042-.217-.36-.5-.64-.75-.438-.388-.89-.791-.89-1.33s.452-.942.889-1.333c.28-.25.598-.534.64-.75-.022-.363-.135-.696-.315-.981l.005.008c-.22-.313-.352-.703-.352-1.123 0-.147.016-.29.047-.428l-.002.013c.204-.491.772-.69 1.322-.88.346-.081.647-.24.894-.458l-.002.002c.069-.197.109-.425.109-.662 0-.122-.011-.241-.031-.357l.002.012c-.029-.127-.046-.273-.046-.423 0-.421.132-.812.356-1.132l-.004.006c.249-.206.573-.331.925-.331.047 0 .093.002.139.007h-.006c.16 0 .325.009.49.018.154.009.308.018.454.018.028.003.061.004.094.004.167 0 .324-.038.465-.107l-.006.003c.215-.246.374-.546.452-.878l.003-.014c.192-.55.39-1.12.88-1.322.107-.045.231-.07.361-.07h.011-.001c.436.045.832.18 1.181.386l-.014-.007c.275.182.609.296.969.311h.004c.217-.042.5-.36.75-.64.394-.439.798-.891 1.337-.891s.942.452 1.333.89c.25.28.534.598.75.64.363-.018.697-.131.98-.316l-.008.005c.336-.199.732-.334 1.155-.377l.012-.001h.01c.13 0 .254.026.367.073l-.006-.002c.491.204.69.772.88 1.322.081.346.24.646.457.894l-.002-.002c.134.066.292.104.459.104.033 0 .067-.002.099-.005h-.004c.146 0 .3-.009.454-.017.166-.009.332-.018.49-.018.04-.004.086-.006.133-.006.353 0 .676.125.929.334l-.002-.002c.22.314.352.705.352 1.126 0 .15-.017.295-.048.435l.002-.013c-.019.104-.029.223-.029.345 0 .237.04.464.114.676l-.004-.014c.245.216.546.375.878.452l.014.003c.55.192 1.12.39 1.322.88.028.125.044.268.044.414 0 .42-.132.809-.356 1.129l.004-.006c-.176.277-.288.61-.31.967v.006c.042.217.36.5.64.75.441.393.893.796.893 1.335s-.452.943-.89 1.334c-.28.25-.598.533-.64.75.022.363.135.696.315.982l-.005-.009c.22.313.352.702.352 1.122 0 .147-.016.29-.047.428l.002-.013c-.203.492-.772.69-1.322.88-.346.081-.646.24-.894.458l.002-.002c-.069.197-.109.425-.109.662 0 .122.011.241.031.357l-.002-.012c.029.127.046.273.046.422 0 .421-.132.812-.356 1.132l.004-.006c-.249.206-.573.332-.925.332-.047 0-.093-.002-.138-.006h.006c-.16 0-.325-.009-.49-.018-.154-.009-.308-.018-.454-.018-.028-.003-.061-.004-.095-.004-.167 0-.324.038-.464.107l.006-.003c-.215.246-.374.546-.452.878l-.003.014c-.192.55-.39 1.12-.88 1.322-.107.045-.231.07-.361.07-.004 0-.007 0-.011 0h.001c-.435-.045-.831-.18-1.18-.387l.013.007c-.275-.182-.609-.296-.969-.31h-.004c-.217.042-.5.36-.75.64-.395.438-.798.89-1.338.89s-.942-.452-1.334-.889zm3.532-15.802-4.88 8.868c-.013.023-.021.051-.021.08 0 .091.074.166.166.166h.001.846c.062 0 .116-.034.144-.085v-.001l4.873-8.869c.013-.023.021-.051.021-.08 0-.091-.074-.166-.166-.166 0 0 0 0-.001 0h-.838c-.062 0-.117.035-.145.086zm-.704 4.549c-.249.207-.406.517-.406.863v.003 2.395.003c0 .344.158.651.405.853l.002.002c.256.214.588.343.951.343s.695-.13.953-.345l-.002.002c.25-.203.408-.51.408-.854 0-.002 0-.005 0-.007v-2.391c0-.001 0-.001 0-.002 0-.344-.155-.653-.398-.859l-.002-.001c-.244-.219-.568-.353-.923-.353-.01 0-.021 0-.031 0h.002c-.009 0-.02 0-.031 0-.356 0-.68.132-.928.35l.002-.001zm-4.244-4.307c-.249.207-.406.517-.406.863v.004 2.394.002c0 .345.157.654.405.857l.002.002c.256.217.589.348.953.348s.698-.132.955-.35l-.002.002c.252-.205.411-.514.411-.861v-2.394c0-.347-.157-.656-.405-.862l-.002-.001c-.256-.218-.59-.351-.956-.351s-.7.133-.958.352l.002-.002zm4.978 7.701c-.042-.034-.069-.085-.069-.143 0-.001 0-.002 0-.003v-2.394c0-.001 0-.003 0-.004 0-.058.027-.109.068-.142.05-.043.115-.07.187-.07h.013-.001.012c.072 0 .137.026.188.069.042.034.069.085.069.142v.004 2.394.004c0 .058-.027.109-.068.142-.054.044-.124.07-.2.07s-.146-.026-.201-.071h.001zm-4.24-4.306c-.042-.034-.069-.086-.069-.143 0-.001 0-.002 0-.003v-2.394c0-.001 0-.002 0-.003 0-.058.027-.109.068-.143.054-.044.124-.07.2-.07s.146.026.201.071h-.001c.042.034.069.085.069.143v.004 2.394.003c0 .058-.027.109-.068.143-.054.044-.124.07-.2.07s-.146-.026-.201-.071h.001z"/></svg>