<!--Generated by Fontisto--><svg viewBox="0 0 21 24" xmlns="http://www.w3.org/2000/svg"><path d="m21.22 7.091c-.005-3.915-3.178-7.087-7.093-7.091h-11.946c-1.205 0-2.182.977-2.182 2.182s.977 2.182 2.182 2.182h.927v15.272h-.927c-1.205 0-2.182.977-2.182 2.182s.977 2.182 2.182 2.182h11.946.003c3.914 0 7.087-3.173 7.087-7.087 0-1.908-.754-3.64-1.981-4.915l.002.002c1.226-1.269 1.981-3 1.981-4.906 0-.001 0-.002 0-.003zm-7.09 2.727h-6.657v-5.455h6.655c1.506 0 2.727 1.221 2.727 2.727s-1.221 2.727-2.727 2.727zm0 9.818h-6.657v-5.454h6.655c1.506 0 2.727 1.221 2.727 2.727s-1.221 2.727-2.727 2.727z"/></svg>