<!--Generated by Fontisto--><svg viewBox="0 0 24 24" xmlns="http://www.w3.org/2000/svg"><path d="m15.184 20.239c-.61 0-1.104.494-1.104 1.104v1.555.031c0 .61.494 1.104 1.104 1.104s1.104-.494 1.104-1.104c0-.011 0-.022 0-.033v.002-1.555c0-.609-.494-1.104-1.103-1.104z"/><path d="m22.898 14.08h-1.555c-.596.017-1.073.505-1.073 1.104s.477 1.086 1.072 1.104h.002 1.555c.596-.017 1.073-.505 1.073-1.104s-.477-1.086-1.072-1.104z"/><path d="m20.319 18.758c-.196-.18-.458-.29-.746-.29-.61 0-1.104.494-1.104 1.104 0 .288.11.55.291.747l-.001-.001 1.099 1.099c.203.22.492.358.814.358.61 0 1.104-.494 1.104-1.104 0-.322-.138-.611-.357-.813l-.001-.001z"/><path d="m8.817 3.762c.61 0 1.104-.494 1.104-1.104v-1.554c-.017-.596-.505-1.073-1.104-1.073s-1.086.477-1.104 1.072v.002 1.554c0 .609.494 1.104 1.103 1.104z"/><path d="m2.658 9.92h.031c.61 0 1.104-.494 1.104-1.104s-.494-1.104-1.104-1.104c-.011 0-.022 0-.033 0h.002-1.554c-.596.017-1.073.505-1.073 1.104s.477 1.086 1.072 1.104h.002z"/><path d="m3.682 5.243c.203.22.492.358.814.358.61 0 1.104-.494 1.104-1.104 0-.322-.138-.611-.357-.813l-.001-.001-1.099-1.099c-.203-.22-.492-.358-.814-.358-.61 0-1.104.494-1.104 1.104 0 .322.138.611.357.813l.001.001z"/><path d="m14.342 17.464c.18-.196.29-.458.29-.746 0-.61-.494-1.104-1.104-1.104-.288 0-.55.11-.747.291l.001-.001-3.12 3.12c-.589.548-1.382.885-2.253.885-1.829 0-3.312-1.483-3.312-3.312 0-.871.337-1.664.887-2.255l-.002.002 3.12-3.12c.22-.203.358-.492.358-.814 0-.61-.494-1.104-1.104-1.104-.322 0-.611.138-.813.357l-.001.001-3.12 3.12c-.999.999-1.617 2.379-1.617 3.903 0 3.047 2.47 5.518 5.517 5.519h.013c1.519 0 2.894-.618 3.887-1.616z"/><path d="m20.585 3.412c-.993-.998-2.368-1.616-3.887-1.616-.004 0-.009 0-.013 0h.001c-.004 0-.008 0-.013 0-1.519 0-2.894.618-3.887 1.616l-3.12 3.12c-.22.203-.358.492-.358.814 0 .61.494 1.104 1.104 1.104.322 0 .611-.138.813-.357l.001-.001 3.12-3.12c.606-.652 1.469-1.058 2.427-1.058 1.829 0 3.312 1.483 3.312 3.312 0 .958-.406 1.82-1.056 2.425l-.002.002-3.12 3.12c-.22.203-.358.492-.358.814 0 .61.494 1.104 1.104 1.104.322 0 .611-.138.813-.357l.001-.001 3.12-3.12c.996-.999 1.611-2.378 1.611-3.9s-.616-2.901-1.612-3.9z"/></svg>