<!--Generated by Fontisto--><svg viewBox="0 0 21 24" xmlns="http://www.w3.org/2000/svg"><path d="m21.092 13.455c0-.263-.094-.504-.25-.692l.001.002v-.005q-.03-.037-.064-.07l-.009-.009c-.009-.009-.019-.02-.029-.029l-4.011-4.011v-7.548c0-.603-.489-1.091-1.091-1.091-.001 0-.002 0-.003 0h-14.545c-.603 0-1.091.489-1.091 1.091v17.454c0 .603.489 1.091 1.091 1.091h3.273v3.273c0 .603.489 1.091 1.091 1.091h14.544c.603 0 1.091-.489 1.091-1.091v-9.422c0-.015.001-.023.001-.033zm-8.001-5.366 4.275 4.275h-4.275zm-10.909 9.365v-15.272h12.364v4.276l-1.774-1.774c-.022-.022-.045-.043-.069-.063l-.023-.018-.053-.04-.026-.022c-.019-.013-.039-.024-.058-.035l-.027-.012c-.027-.014-.053-.027-.081-.039l-.034-.014-.057-.021-.039-.012-.063-.016-.029-.007c-.03-.006-.061-.01-.092-.014h-.029c-.025 0-.051 0-.076 0h-6.561c-.603 0-1.091.489-1.091 1.091v11.992zm4.363 4.363v-15.272h4.363v6.909c0 .602.489 1.09 1.091 1.09h.001 6.909v7.273z"/></svg>