<!--Generated by Fontisto--><svg viewBox="0 0 27 24" xmlns="http://www.w3.org/2000/svg"><path d="m26.444 16.617c.01-.013.02-.027.03-.039s.023-.03.033-.046.02-.032.029-.048.018-.028.026-.044.016-.033.024-.05.015-.031.021-.047.012-.033.018-.05.013-.034.018-.051.009-.033.013-.05.009-.036.013-.054.006-.038.009-.057.005-.032.007-.048c0-.035.005-.071.005-.106q0-.053-.005-.106c0-.016-.004-.033-.007-.048s-.005-.039-.009-.057-.009-.036-.013-.054-.008-.033-.013-.049-.012-.034-.018-.052-.011-.033-.018-.049-.015-.032-.021-.047-.015-.033-.024-.05-.017-.029-.026-.044-.019-.033-.029-.048-.022-.031-.034-.046-.019-.027-.03-.039q-.033-.039-.069-.076l-2.733-2.732c-.2-.218-.486-.354-.804-.354-.603 0-1.091.489-1.091 1.091 0 .318.136.604.353.804l.001.001.865.865h-3.328v-5.716c0-.009 0-.019 0-.029 0-.263-.093-.504-.249-.692l.001.002-.004-.006c-.02-.024-.041-.047-.063-.069l-.009-.009c-.009-.009-.019-.02-.028-.029l-7.966-7.966c-.022-.022-.045-.043-.069-.063l-.023-.018c-.017-.014-.035-.027-.053-.04l-.027-.019c-.019-.013-.039-.024-.058-.035l-.024-.014q-.039-.021-.081-.039l-.034-.014-.055-.021-.039-.012-.063-.016-.028-.007c-.031-.006-.062-.01-.093-.014h-.028c-.026 0-.051 0-.077 0h-9.474c-.599 0-1.086.483-1.091 1.081v21.818c0 .603.489 1.091 1.091 1.091h17.454c.603 0 1.091-.489 1.091-1.091v-5.891h3.329l-.865.865c-.218.2-.354.486-.354.804 0 .603.489 1.091 1.091 1.091.318 0 .604-.136.804-.353l.001-.001 2.728-2.722q.039-.044.073-.086zm-14.808-12.893 4.275 4.275h-4.275zm5.818 18.093h-15.272v-19.636h7.273v6.909c0 .603.489 1.091 1.091 1.091h6.909v4.655h-4.728c-.009 0-.02 0-.031 0-.603 0-1.091.489-1.091 1.091s.489 1.091 1.091 1.091h.032-.002 4.727z"/></svg>