<!--Generated by Fontisto--><svg viewBox="0 0 20 24" xmlns="http://www.w3.org/2000/svg"><path d="m19.638 8.945c0-.228-.07-.439-.19-.613l.002.004c-.019-.027-.039-.054-.06-.08l-.005-.006c-.02-.024-.041-.047-.063-.069l-.01-.01c-.009-.009-.018-.02-.028-.029l-7.822-7.821c-.022-.022-.046-.044-.07-.063l-.022-.02-.054-.04-.027-.019c-.019-.012-.039-.024-.058-.035l-.025-.015c-.027-.014-.053-.027-.081-.039l-.034-.014-.054-.02-.039-.012-.061-.016-.031-.007c-.03-.006-.061-.01-.092-.014h-9.722c-.6 0-1.087.484-1.091 1.083v21.818c0 .603.489 1.091 1.091 1.091h17.454c.603 0 1.091-.489 1.091-1.091v-13.935c0-.009.001-.018.001-.028zm-7.857-5.225 4.13 4.135h-4.13zm-9.599 18.098v-19.637h7.42v6.767c0 .603.489 1.091 1.091 1.091h6.767v11.779z"/><path d="m13.454 17.454h-7.273c-.009 0-.02 0-.031 0-.603 0-1.091.489-1.091 1.091s.489 1.091 1.091 1.091h.032-.002 7.273.031c.603 0 1.091-.489 1.091-1.091s-.489-1.091-1.091-1.091c-.011 0-.021 0-.032 0z"/><path d="m13.454 13.091h-7.273c-.009 0-.02 0-.031 0-.603 0-1.091.489-1.091 1.091s.489 1.091 1.091 1.091h.032-.002 7.273.031c.603 0 1.091-.489 1.091-1.091s-.489-1.091-1.091-1.091c-.011 0-.021 0-.032 0z"/></svg>