<!--Generated by Fontisto--><svg viewBox="0 0 26 24" xmlns="http://www.w3.org/2000/svg"><path d="m.061 8.78 4.801 14.399c.164.481.611.82 1.138.821h19.199c.048 0 .095-.003.141-.009l-.006.001.036-.006c.033-.005.066-.01.094-.018l.038-.009c.031-.008.062-.018.094-.028l.036-.013c.031-.012.061-.025.094-.041l.029-.014c.044-.023.08-.044.114-.068l-.004.003c.04-.027.074-.053.106-.081l-.002.001.028-.025c.023-.021.045-.042.067-.064l.031-.034c.021-.023.04-.047.058-.072l.017-.021.008-.012q.034-.048.063-.1l.007-.011c.019-.033.038-.073.055-.115l.003-.008.007-.019q.021-.052.036-.106c0-.012.007-.024.009-.037.008-.03.014-.06.02-.094 0-.015.005-.03.007-.045s.006-.057.008-.085 0-.034 0-.051 0-.015 0-.023v-21.596c0-.661-.534-1.197-1.193-1.2h-9.6c-.663 0-1.2.537-1.2 1.2v1.2h-8.4c-.663 0-1.2.537-1.2 1.2v3.6h-3.599-.001c-.662 0-1.199.537-1.199 1.199 0 .135.022.266.064.387l-.003-.008zm23.938-6.38v13.003l-2.462-7.385c-.164-.481-.611-.821-1.138-.821h-13.199v-2.397h8.4c.663 0 1.2-.537 1.2-1.2v-1.199zm-21.134 7.2h16.67l4 12h-16.67z"/></svg>