<!--Generated by Fontisto--><svg viewBox="0 0 24 24" xmlns="http://www.w3.org/2000/svg"><path d="m22.106 0h-20.211c-1.047 0-1.895.849-1.895 1.895v4.924c0 .016-.001.034-.001.053 0 1.047.849 1.895 1.895 1.895s1.895-.849 1.895-1.895c0-.019 0-.037-.001-.056v.003-3.03h6.315v16.422h-2.925c-1.024.03-1.842.867-1.842 1.895s.819 1.865 1.84 1.895h.003 9.642c1.024-.03 1.842-.867 1.842-1.895s-.819-1.865-1.84-1.895h-.003-2.926v-16.422h6.315v3.03c.03 1.024.867 1.842 1.895 1.842s1.865-.819 1.895-1.84v-.003-4.924c0-1.046-.848-1.895-1.894-1.895z"/></svg>