<!--Generated by Fontisto--><svg viewBox="0 0 24 24" xmlns="http://www.w3.org/2000/svg"><path d="m22.909 14.837h-3.272v-5.717c0-.009 0-.019 0-.029 0-.263-.093-.504-.249-.692l.001.002-.003-.006c-.02-.024-.041-.047-.063-.069l-.009-.009c-.009-.009-.019-.02-.028-.029l-7.966-7.966c-.025-.024-.048-.045-.072-.063l-.026-.02c-.017-.014-.035-.027-.053-.04l-.026-.019c-.019-.012-.039-.024-.058-.035l-.024-.014q-.039-.021-.081-.039l-.034-.015-.055-.02-.039-.012-.063-.016-.029-.007c-.031-.006-.062-.01-.093-.014h-.028c-.026 0-.051 0-.077 0h-9.47c-.6 0-1.087.484-1.091 1.083v21.818c0 .603.489 1.091 1.091 1.091h17.454c.603 0 1.091-.489 1.091-1.091v-5.891h3.273.031c.603 0 1.091-.489 1.091-1.091s-.489-1.091-1.091-1.091c-.011 0-.021 0-.032 0h.002zm-11.273-11.113 4.275 4.276h-4.275zm5.818 18.093h-15.272v-19.636h7.273v6.909c0 .603.489 1.091 1.091 1.091h6.909v4.655h-4.276l.865-.865c.178-.193.287-.453.287-.737 0-.603-.489-1.091-1.091-1.091-.285 0-.544.109-.738.287l.001-.001-2.738 2.74c-.021.021-.041.043-.06.066l-.02.026c-.015.02-.031.039-.045.06l-.014.022c-.015.023-.029.045-.042.069l-.008.016c-.014.027-.027.053-.038.081v.011c-.012.029-.023.059-.032.086v.012c-.009.03-.017.06-.023.091v.027c-.004.026-.009.052-.012.079-.004.033-.006.07-.006.109s.002.076.006.113v-.005c0 .027.007.052.012.079v.027c.006.032.015.062.023.093v.011c.009.031.021.061.033.09v.01c.012.027.025.055.039.081l.008.015c.013.024.027.047.042.07l.013.021c.015.021.03.042.046.063l.018.024c.021.026.043.05.066.074l.005.006 2.727 2.727c.2.218.486.354.804.354.603 0 1.091-.489 1.091-1.091 0-.318-.136-.604-.353-.804l-.001-.001-.865-.865h4.275z"/></svg>