<!--Generated by Fontisto--><svg viewBox="0 0 24 24" xmlns="http://www.w3.org/2000/svg"><path d="m12.922 16.587-3.671 3.671c-.693.645-1.626 1.041-2.651 1.041-2.152 0-3.896-1.744-3.896-3.896 0-1.025.396-1.958 1.043-2.654l-.002.002 3.671-3.671c.212-.23.341-.539.341-.878 0-.717-.582-1.299-1.299-1.299-.339 0-.647.13-.879.342l.001-.001-3.671 3.671c-1.108 1.162-1.789 2.74-1.789 4.476 0 3.586 2.907 6.494 6.494 6.494 1.738 0 3.316-.683 4.482-1.795l-.003.002 3.671-3.671c.212-.23.341-.539.341-.878 0-.717-.582-1.299-1.299-1.299-.339 0-.647.13-.879.342l.001-.001z"/><path d="m24.007 6.489c-.002-3.585-2.908-6.491-6.494-6.491-1.793 0-3.417.727-4.592 1.902l-3.671 3.671c-.259.238-.421.579-.421.958 0 .717.582 1.299 1.299 1.299.379 0 .719-.162.957-.42l.001-.001 3.671-3.671c.693-.645 1.626-1.041 2.651-1.041 2.152 0 3.896 1.744 3.896 3.896 0 1.025-.396 1.958-1.043 2.654l.002-.002-3.671 3.671c-.259.238-.421.579-.421.958 0 .717.582 1.299 1.299 1.299.379 0 .719-.162.957-.42l.001-.001 3.671-3.671c1.178-1.169 1.908-2.789 1.908-4.58 0-.003 0-.006 0-.009z"/><path d="m7.412 16.592c.235.235.559.38.918.38s.683-.145.918-.38l7.342-7.342c.212-.23.341-.539.341-.878 0-.717-.582-1.299-1.299-1.299-.339 0-.647.13-.879.342l.001-.001-7.342 7.342c-.235.235-.38.559-.38.918s.145.683.38.918z"/></svg>