<!--Generated by Fontisto--><svg viewBox="0 0 29 24" xmlns="http://www.w3.org/2000/svg"><path d="m6.667 2.666h21.333c.72-.021 1.296-.61 1.296-1.333s-.576-1.312-1.294-1.333h-.002-21.333c-.72.021-1.296.61-1.296 1.333s.576 1.312 1.294 1.333z"/><path d="m27.999 5.333h-21.333c-.011 0-.024-.001-.037-.001-.737 0-1.334.597-1.334 1.334s.597 1.334 1.334 1.334c.013 0 .026 0 .039-.001h-.002 21.333c.72-.021 1.296-.61 1.296-1.333s-.576-1.312-1.294-1.333z"/><path d="m27.999 10.667h-21.333c-.72.021-1.296.61-1.296 1.333s.576 1.312 1.294 1.333h.002 21.333c.72-.021 1.296-.61 1.296-1.333s-.576-1.312-1.294-1.333z"/><path d="m27.999 21.333h-21.333c-.72.021-1.296.61-1.296 1.333s.576 1.312 1.294 1.333h.002 21.333c.72-.021 1.296-.61 1.296-1.333s-.576-1.312-1.294-1.333z"/><path d="m27.999 16h-21.333c-.72.021-1.296.61-1.296 1.333s.576 1.312 1.294 1.333h.002 21.333c.72-.021 1.296-.61 1.296-1.333s-.576-1.312-1.294-1.333z"/><path d="m1.334 0c-.001 0-.001 0-.002 0-.737 0-1.334.597-1.334 1.334s.597 1.334 1.334 1.334c.369 0 .703-.15.944-.392.241-.241.39-.574.39-.942 0-.736-.596-1.333-1.332-1.334z"/><path d="m1.334 5.333c-.001 0-.001 0-.002 0-.737 0-1.334.597-1.334 1.334s.597 1.334 1.334 1.334c.369 0 .703-.15.944-.392.241-.241.39-.574.39-.942 0-.736-.596-1.333-1.332-1.334z"/><path d="m1.334 10.667c-.001 0-.001 0-.002 0-.737 0-1.334.597-1.334 1.334s.597 1.334 1.334 1.334c.369 0 .703-.15.944-.392.241-.241.39-.574.39-.942 0-.736-.596-1.333-1.332-1.334z"/><path d="m1.334 21.333c-.001 0-.001 0-.002 0-.737 0-1.334.597-1.334 1.334s.597 1.334 1.334 1.334c.369 0 .703-.15.944-.392.241-.241.39-.574.39-.942 0-.736-.596-1.333-1.332-1.334z"/><path d="m1.334 16c-.001 0-.001 0-.002 0-.737 0-1.334.597-1.334 1.334s.597 1.334 1.334 1.334c.369 0 .703-.15.944-.392.241-.241.39-.574.39-.942 0-.736-.596-1.333-1.332-1.334z"/></svg>