<!--Generated by Fontisto--><svg viewBox="0 0 28 24" xmlns="http://www.w3.org/2000/svg"><path d="m9.064 2.677h17.753c.011 0 .024.001.037.001.736 0 1.332-.596 1.332-1.332s-.596-1.332-1.332-1.332c-.013 0-.026 0-.039.001h.002-17.753c-.719.021-1.295.609-1.295 1.331s.575 1.311 1.293 1.331z"/><path d="m26.816 5.343h-17.752c-.719.021-1.295.609-1.295 1.331s.575 1.311 1.293 1.331h.002 17.752c.011 0 .024.001.037.001.736 0 1.332-.596 1.332-1.332s-.596-1.332-1.332-1.332c-.013 0-.026 0-.039.001z"/><path d="m26.816 10.669h-17.752c-.011 0-.024-.001-.037-.001-.736 0-1.332.596-1.332 1.332s.596 1.332 1.332 1.332c.013 0 .026 0 .039-.001h-.002 17.752c.011 0 .024.001.037.001.736 0 1.332-.596 1.332-1.332s-.596-1.332-1.332-1.332c-.013 0-.026 0-.039.001z"/><path d="m26.816 21.321h-17.752c-.719.021-1.295.609-1.295 1.331s.575 1.311 1.293 1.331h.002 17.752c.719-.021 1.295-.609 1.295-1.331s-.575-1.311-1.293-1.331z"/><path d="m26.816 15.994h-17.752c-.011 0-.024-.001-.037-.001-.736 0-1.332.596-1.332 1.332s.596 1.332 1.332 1.332c.013 0 .026 0 .039-.001h-.002 17.752c.011 0 .024.001.037.001.736 0 1.332-.596 1.332-1.332s-.596-1.332-1.332-1.332c-.013 0-.026 0-.039.001z"/><path d="m1.582 2.279v3.334c.006.352.294.636.647.636.014 0 .027 0 .041-.001h-.002c.009 0 .021.001.032.001.355 0 .644-.282.654-.634v-.001-4.987c-.005-.348-.287-.628-.636-.628-.007 0-.015 0-.022 0h.001c-.223.001-.42.114-.537.286l-.001.002-.006.009-.579.82c-.123.134-.2.31-.209.504v.002.01c0 .347.273.63.616.646h.001z"/><path d="m.677 15.124h2.614c.349-.025.623-.314.623-.668s-.274-.643-.621-.667h-.002-1.899v-.01c0-.2.457-.523.824-.781.732-.515 1.639-1.157 1.639-2.27 0-.005 0-.01 0-.016 0-1.014-.822-1.837-1.837-1.837-.023 0-.046 0-.069.001h.003c-.034-.002-.074-.004-.114-.004-.928 0-1.684.74-1.708 1.663v.002c-.003.025-.005.054-.005.084 0 .365.296.661.661.661h.009c.011.001.023.001.036.001.359 0 .652-.285.665-.642v-.001c0-.197.05-.418.443-.418.011-.001.025-.001.038-.001.281 0 .508.227.508.508v.017-.001c0 .418-.549.818-1.079 1.2-.655.473-1.399 1.008-1.399 1.836v.711c.017.353.307.633.663.633h.008z"/><path d="m3.765 19.476c.004-.043.006-.092.006-.142 0-.88-.713-1.593-1.593-1.593-.067 0-.133.004-.198.012l.008-.001c-.059-.007-.128-.012-.197-.012-.907 0-1.646.722-1.672 1.623v.002c-.003.023-.005.05-.005.077 0 .356.289.645.645.645.018 0 .035-.001.053-.002h-.002c.011.001.024.001.037.001.354 0 .641-.287.641-.641 0-.013 0-.026-.001-.038v.002c0-.156.055-.335.487-.335.314 0 .437.045.437.494s-.094.487-.465.487c-.358.002-.648.293-.648.651 0 .36.292.651.651.651h.004c.49 0 .589.201.589.523v.138c0 .544-.209.647-.603.647-.539 0-.582-.278-.582-.364 0-.005 0-.011 0-.016 0-.35-.284-.634-.634-.634-.02 0-.04.001-.06.003h.003c-.014-.001-.03-.002-.046-.002-.346 0-.627.281-.627.627 0 .026.002.051.005.076v-.003c.063.926.829 1.653 1.765 1.653.065 0 .129-.003.191-.01l-.008.001c.048.005.104.007.161.007 1.001 0 1.812-.811 1.812-1.812 0-.061-.003-.121-.009-.181l.001.008v-.138c.001-.02.001-.043.001-.067 0-.452-.179-.863-.469-1.165l.001.001c.204-.313.325-.697.325-1.109 0-.023 0-.047-.001-.07v.003z"/></svg>