<!--Generated by Fontisto--><svg viewBox="0 0 29 24" xmlns="http://www.w3.org/2000/svg"><path d="m27.999 21.333h-26.665c-.72.021-1.296.61-1.296 1.333s.576 1.312 1.294 1.333h.002 26.665c.72-.021 1.296-.61 1.296-1.333s-.576-1.312-1.294-1.333z"/><path d="m27.999 16h-13.332c-.011 0-.024-.001-.037-.001-.737 0-1.334.597-1.334 1.334s.597 1.334 1.334 1.334c.013 0 .026 0 .039-.001h-.002 13.333c.72-.021 1.296-.61 1.296-1.333s-.576-1.312-1.294-1.333h-.002z"/><path d="m27.999 10.667h-13.332c-.011 0-.024-.001-.037-.001-.737 0-1.334.597-1.334 1.334s.597 1.334 1.334 1.334c.013 0 .026 0 .039-.001h-.002 13.333c.72-.021 1.296-.61 1.296-1.333s-.576-1.312-1.294-1.333h-.002z"/><path d="m1.334 2.666h26.665c.011 0 .024.001.037.001.737 0 1.334-.597 1.334-1.334s-.597-1.334-1.334-1.334c-.013 0-.026 0-.039.001h.002-26.665c-.72.021-1.296.61-1.296 1.333s.576 1.312 1.294 1.333h.002z"/><path d="m27.999 5.333h-13.332c-.011 0-.024-.001-.037-.001-.737 0-1.334.597-1.334 1.334s.597 1.334 1.334 1.334c.013 0 .026 0 .039-.001h-.002 13.333c.011 0 .024.001.037.001.737 0 1.334-.597 1.334-1.334s-.597-1.334-1.334-1.334c-.013 0-.026 0-.039.001h.002z"/><path d="m5.724 5.723-5.333 5.334c-.241.241-.39.574-.39.942s.149.701.39.942l5.333 5.333c.241.241.574.39.942.39.736 0 1.333-.596 1.334-1.332v-10.666c-.001-.736-.598-1.332-1.334-1.332-.368 0-.701.149-.942.39z"/></svg>