<!--Generated by Fontisto--><svg viewBox="0 0 15 24" xmlns="http://www.w3.org/2000/svg"><path d="m9.818 0c-3.012 0-5.455 2.442-5.455 5.455v9.818c0 1.808 1.465 3.273 3.273 3.273s3.273-1.465 3.273-3.273v-5.665c-.017-.589-.499-1.061-1.091-1.061s-1.074.471-1.091 1.059v.002 5.665.031c0 .603-.489 1.091-1.091 1.091s-1.091-.489-1.091-1.091c0-.011 0-.021 0-.032v.002-9.818c0-1.808 1.465-3.273 3.273-3.273s3.273 1.465 3.273 3.273v10.906c0 3.012-2.442 5.455-5.455 5.455s-5.455-2.442-5.455-5.455v-10.906c0-.009 0-.02 0-.031 0-.603-.489-1.091-1.091-1.091s-1.091.489-1.091 1.091v.032-.002 10.906c0 4.217 3.419 7.636 7.636 7.636s7.636-3.419 7.636-7.636v-10.906c-.003-3.011-2.444-5.452-5.455-5.455z"/></svg>