<!--Generated by Fontisto--><svg viewBox="0 0 20 24" xmlns="http://www.w3.org/2000/svg"><path d="m18.545 0h-12.364c-3.414 0-6.182 2.768-6.182 6.182s2.768 6.182 6.182 6.182h2.546v10.545.031c0 .603.489 1.091 1.091 1.091s1.091-.489 1.091-1.091c0-.011 0-.021 0-.032v.002-20.727h2.182v20.729.031c0 .603.489 1.091 1.091 1.091s1.091-.489 1.091-1.091c0-.011 0-.021 0-.032v.002-20.729h3.273.031c.603 0 1.091-.489 1.091-1.091s-.489-1.091-1.091-1.091c-.011 0-.021 0-.032 0h.002zm-12.363 10.182c-2.209 0-4-1.791-4-4s1.791-4 4-4h2.546v8z"/></svg>