<!--Generated by Fontisto--><svg viewBox="0 0 21 24" xmlns="http://www.w3.org/2000/svg"><path d="m21.092 14.909c0-.263-.094-.504-.25-.692l.001.002v-.005q-.03-.037-.064-.07l-.009-.009c-.009-.009-.019-.02-.029-.029l-4.011-4.011v-8.275c0-.603-.489-1.091-1.091-1.091-.001 0-.002 0-.003 0h-5.52c-.154-.427-.556-.727-1.028-.727h-1.456c-.472 0-.874.3-1.025.72l-.002.008h-5.513c-.603 0-1.091.489-1.091 1.091v18.181c0 .603.489 1.091 1.091 1.091h3.273v1.818c0 .603.489 1.091 1.091 1.091h14.544c.603 0 1.091-.489 1.091-1.091v-7.972c0-.01.001-.019.001-.028zm-8.001-5.366 4.275 4.275h-4.275zm-10.909 9.366v-15.996h2.245c.154.427.556.727 1.028.727h5.818c.472 0 .874-.3 1.025-.72l.002-.008h2.245v5.002l-1.774-1.777c-.022-.022-.045-.043-.069-.063l-.023-.018c-.017-.014-.035-.027-.053-.04l-.026-.021c-.019-.013-.039-.025-.059-.036l-.027-.013c-.027-.015-.053-.027-.081-.039l-.033-.014-.057-.02-.038-.012-.064-.016-.028-.007c-.031-.006-.062-.01-.093-.014h-.028c-.026 0-.051 0-.077 0h-6.561c-.603 0-1.091.489-1.091 1.091v11.992zm4.363 2.912v-13.821h4.363v6.909c0 .602.489 1.09 1.091 1.09h.001 6.909v5.818z"/></svg>