<!--Generated by Fontisto--><svg viewBox="0 0 24 24" xmlns="http://www.w3.org/2000/svg"><path d="m22.909 4.363h-3.272v-3.272c0-.603-.489-1.091-1.091-1.091h-13.091c-.603 0-1.091.489-1.091 1.091v3.272h-3.272c-.603 0-1.091.489-1.091 1.091v13.091c0 .603.489 1.091 1.091 1.091h3.272v3.273c0 .603.489 1.091 1.091 1.091h13.091c.603 0 1.091-.489 1.091-1.091v-3.273h3.273c.603 0 1.091-.489 1.091-1.091v-13.091c0-.603-.489-1.091-1.091-1.091zm-16.363-2.181h10.908v2.182h-10.908zm10.908 19.636h-10.908v-6.546h10.908zm4.363-4.363h-2.181v-3.273c0-.603-.489-1.091-1.091-1.091h-13.091c-.603 0-1.091.489-1.091 1.091v3.273h-2.182v-10.909h19.637z"/><path d="m14.182 17.454h-4.363c-.009 0-.02 0-.031 0-.603 0-1.091.489-1.091 1.091s.489 1.091 1.091 1.091h.032-.002 4.363.031c.603 0 1.091-.489 1.091-1.091s-.489-1.091-1.091-1.091c-.011 0-.021 0-.032 0z"/><path d="m17.774 9.047c-.198.198-.32.471-.32.773 0 .603.489 1.092 1.092 1.092s1.092-.489 1.092-1.092-.489-1.092-1.092-1.092h-.001c-.301.001-.573.123-.771.32z"/></svg>