<!--Generated by Fontisto--><svg viewBox="0 0 24 24" xmlns="http://www.w3.org/2000/svg"><path d="m23.681 6.158-5.838-5.838c-.197-.197-.47-.319-.771-.32h-15.98c-.603 0-1.091.489-1.091 1.091v21.817c0 .603.489 1.091 1.091 1.091h21.817c.603 0 1.091-.489 1.091-1.091v-15.98c0-.301-.122-.574-.32-.771zm-17.132-3.975h6.546v5.818h-6.549zm-4.363 0h2.177v6.909c0 .603.489 1.091 1.091 1.091h8.728c.603 0 1.091-.489 1.091-1.091v-6.91h1.344l5.199 5.199v3.828l-1.43-1.435c-.197-.197-.47-.319-.771-.319s-.573.122-.771.319l-4.044 4.044h-9.346c-.603 0-1.091.489-1.091 1.091v6.909h-2.182zm4.36 13.817h6.07l-2.841 2.845c-.197.197-.319.47-.32.771v2.207h-2.912zm5.09 5.817v-1.753l7.979-7.976 1.754 1.754-7.975 7.975zm6.909 0h-2.069l5.342-5.342v5.342z"/></svg>