<!--Generated by Fontisto--><svg viewBox="0 0 24 24" xmlns="http://www.w3.org/2000/svg"><path d="m23.681 6.158-5.838-5.838c-.197-.197-.47-.319-.771-.32h-15.98c-.603 0-1.091.489-1.091 1.091v21.817c0 .603.489 1.091 1.091 1.091h21.817c.603 0 1.091-.489 1.091-1.091v-15.98c0-.301-.122-.574-.32-.771zm-17.132-3.976h6.546v5.819h-6.549zm0 19.635v-5.818h10.905v5.818zm15.273 0h-2.185v-6.908c0-.603-.489-1.091-1.091-1.091h-13.091c-.603 0-1.091.489-1.091 1.091v6.909h-2.182v-19.637h2.182v6.909c0 .603.489 1.091 1.091 1.091h8.728c.603 0 1.091-.489 1.091-1.091v-6.909h1.344l5.199 5.199z"/></svg>