<!--Generated by Fontisto--><svg viewBox="0 0 24 24" xmlns="http://www.w3.org/2000/svg"><path d="m22.349 14.378c-1.02-1.02-2.43-1.651-3.986-1.651-1.098 0-2.122.314-2.988.856l.024-.014-2.081-3.075 5.954-8.792c.117-.171.187-.383.187-.611 0-.603-.489-1.092-1.092-1.092-.375 0-.706.189-.903.477l-.002.004-5.46 8.069-5.461-8.069c-.197-.304-.535-.502-.919-.502-.603 0-1.091.489-1.091 1.091 0 .238.076.457.205.636l-.002-.003 5.95 8.793-2.081 3.075c-.843-.528-1.866-.841-2.964-.841-3.115 0-5.64 2.525-5.64 5.64s2.525 5.64 5.64 5.64 5.64-2.525 5.64-5.64c0-1.236-.398-2.38-1.073-3.309l.011.016 1.784-2.637 1.783 2.637c-.66.911-1.056 2.052-1.056 3.285 0 3.113 2.523 5.636 5.636 5.636s5.636-2.523 5.636-5.636c0-1.556-.631-2.965-1.65-3.985zm-14.271 6.424c-.625.626-1.49 1.013-2.444 1.013-1.908 0-3.455-1.547-3.455-3.455s1.547-3.455 3.455-3.455c.955 0 1.819.387 2.444 1.013.631.623 1.022 1.488 1.022 2.444s-.391 1.82-1.021 2.443zm12.727 0c-.625.626-1.49 1.013-2.444 1.013-1.908 0-3.455-1.547-3.455-3.455s1.547-3.455 3.455-3.455c.955 0 1.819.387 2.444 1.013.631.623 1.023 1.488 1.023 2.444s-.391 1.82-1.021 2.443z"/></svg>