<!--Generated by Fontisto--><svg viewBox="0 0 27 24" xmlns="http://www.w3.org/2000/svg"><path d="m26.068 10.759h-15.103c-2.285 0-4.138-1.853-4.138-4.138s1.853-4.138 4.138-4.138h10.759c.671-.019 1.207-.568 1.207-1.241s-.536-1.222-1.205-1.241h-.002-10.759c-3.656.001-6.619 2.964-6.619 6.62 0 1.572.548 3.016 1.463 4.151l-.01-.013h-4.558c-.01 0-.023 0-.035 0-.686 0-1.242.556-1.242 1.242s.556 1.242 1.242 1.242c.012 0 .024 0 .037-.001h-.002 15.108c2.285 0 4.138 1.853 4.138 4.138s-1.853 4.138-4.138 4.138h-10.764c-.671.019-1.207.568-1.207 1.241s.536 1.222 1.205 1.241h.002 10.759.009c3.654 0 6.615-2.962 6.615-6.615 0-1.574-.55-3.02-1.468-4.156l.01.013h4.562.035c.686 0 1.242-.556 1.242-1.242s-.556-1.242-1.242-1.242c-.012 0-.024 0-.037.001h.002z"/></svg>