<!--Generated by Fontisto--><svg viewBox="0 0 24 24" xmlns="http://www.w3.org/2000/svg"><path d="m23.477 4.149h-1.602v-.009c0-.169.386-.442.696-.66.618-.435 1.385-.978 1.385-1.918 0-.004 0-.009 0-.014 0-.857-.695-1.552-1.552-1.552-.02 0-.039 0-.059.001h.003c-.029-.002-.063-.003-.097-.003-.784 0-1.423.626-1.443 1.405v.002c-.005.027-.007.058-.007.09 0 .319.259.578.578.578s.578-.259.578-.578c0-.001 0-.001 0-.002 0-.166.042-.353.375-.353.01-.001.021-.001.032-.001.237 0 .429.192.429.429v.014-.001c0 .353-.464.691-.912 1.014-.554.399-1.182.852-1.182 1.551v.601c.014.299.259.536.56.536h.007 2.208c.295-.021.527-.265.527-.564s-.232-.543-.525-.564h-.002z"/><path d="m18.336 1.753c-.192-.157-.44-.253-.711-.253-.351 0-.664.161-.871.412l-.002.002-7.378 9.055-7.378-9.055c-.208-.243-.515-.397-.858-.397-.622 0-1.125.504-1.125 1.125 0 .262.09.504.24.695l-.002-.002 7.671 9.415-7.671 9.415c-.144.187-.231.425-.231.684 0 .622.504 1.125 1.125 1.125.339 0 .643-.15.85-.387l.001-.001 7.378-9.054 7.379 9.054c.208.265.528.433.887.433.622 0 1.125-.504 1.125-1.125 0-.279-.101-.534-.269-.73l.001.002-7.672-9.414 7.671-9.415c.157-.192.253-.44.253-.711 0-.351-.161-.664-.412-.871l-.002-.002z"/></svg>