<!--Generated by Fontisto--><svg viewBox="0 0 29 24" xmlns="http://www.w3.org/2000/svg"><path d="m28 0h-26.667c-.737 0-1.334.597-1.334 1.334v21.333c0 .737.597 1.334 1.334 1.334h26.667c.737 0 1.334-.597 1.334-1.334v-21.333c0-.737-.597-1.334-1.334-1.334zm-16.444 16v-2.667h6.222v2.667zm6.222 2.667v2.667h-6.222v-2.667zm0-10.667v2.667h-6.222v-2.666zm2.667 0h6.222v2.667h-6.222zm-11.556 0v2.667h-6.222v-2.666zm-6.222 5.334h6.223v2.667h-6.223zm17.778 0h6.222v2.667h-6.222zm-17.778 5.333h6.223v2.667h-6.223zm17.778 2.666v-2.667h6.222v2.667z"/></svg>