<!--Generated by Fontisto--><svg viewBox="0 0 14 24" xmlns="http://www.w3.org/2000/svg"><path d="m13.528 21.103.031-.034c.014-.016.027-.034.04-.051l.026-.034c.014-.02.027-.041.039-.062l.018-.029c.014-.026.027-.051.039-.078l.009-.019c.014-.032.026-.065.037-.099.033-.099.051-.213.051-.331s-.019-.232-.053-.338l.002.008c-.01-.033-.023-.066-.037-.099l-.009-.019c-.012-.027-.025-.053-.039-.078-.005-.01-.012-.02-.018-.029s-.025-.042-.039-.062-.017-.022-.026-.034-.027-.035-.04-.051l-.031-.034c-.015-.015-.028-.031-.044-.045l-.012-.013-2.727-2.546c-.188-.157-.432-.252-.698-.252-.603 0-1.091.489-1.091 1.091 0 .29.113.553.297.749l-.001-.001.704.657h-6.1l.704-.657c.201-.198.326-.473.326-.778 0-.603-.489-1.091-1.091-1.091-.278 0-.532.104-.724.275l.001-.001-2.741 2.562c-.014.014-.027.027-.04.041s-.023.025-.034.038-.025.032-.037.047-.02.025-.028.038-.025.038-.036.057-.014.022-.021.033-.025.048-.036.073l-.011.024c-.013.03-.024.061-.035.093v.009c-.032.097-.05.208-.051.324s0 0 0 .006v.01c0 .153.032.298.088.43l-.003-.007.007.014c.013.028.027.057.041.086l.015.025c.014.022.027.045.042.066l.023.031c.014.019.028.037.043.055l.028.032c.015.016.03.033.046.048l.011.011 2.727 2.546c.192.17.445.274.723.274.603 0 1.091-.489 1.091-1.091 0-.304-.125-.58-.325-.777l-.704-.657h6.101l-.704.657c-.201.198-.326.473-.326.778 0 .603.489 1.091 1.091 1.091.278 0 .532-.104.724-.275l-.001.001 2.739-2.559c.017-.015.032-.031.046-.046z"/><path d="m1.091 5.018c.603 0 1.091-.489 1.091-1.091v-1.745h3.636v9.455h-1.685c-.009 0-.02 0-.031 0-.603 0-1.091.489-1.091 1.091s.489 1.091 1.091 1.091h.032-.002 5.551.031c.603 0 1.091-.489 1.091-1.091s-.489-1.091-1.091-1.091c-.011 0-.021 0-.032 0h.002-1.686v-9.455h3.636v1.745.031c0 .603.489 1.091 1.091 1.091s1.091-.489 1.091-1.091c0-.011 0-.021 0-.032v.002-2.835c0-.602-.488-1.091-1.09-1.091h-11.636c-.603 0-1.091.489-1.091 1.091v2.835c0 .603.489 1.091 1.091 1.091z"/></svg>