<!--Generated by Fontisto--><svg viewBox="0 0 24 24" xmlns="http://www.w3.org/2000/svg"><path d="m22.111 14.056-.657.704v-6.102l.657.704c.201.223.49.362.812.362.603 0 1.091-.489 1.091-1.091 0-.295-.117-.563-.308-.76l-2.558-2.739c-.014-.015-.03-.03-.046-.044l-.034-.031c-.017-.014-.034-.027-.051-.041l-.034-.026c-.02-.014-.041-.026-.062-.039l-.029-.018c-.026-.014-.052-.027-.08-.039l-.018-.009c-.032-.014-.065-.026-.098-.037-.099-.033-.213-.051-.331-.051s-.232.019-.339.053l.008-.002c-.041.013-.074.026-.106.04l.007-.003-.018.008c-.027.012-.054.025-.08.039l-.028.017c-.022.013-.042.026-.063.04l-.034.025c-.018.014-.035.026-.052.041l-.034.03c-.015.014-.031.029-.046.044l-.013.012-2.546 2.727c-.173.192-.28.449-.28.729 0 .603.489 1.091 1.091 1.091.307 0 .585-.127.783-.332l.657-.704v6.103l-.657-.704c-.199-.205-.476-.332-.784-.332-.603 0-1.091.489-1.091 1.091 0 .281.106.537.28.73l-.001-.001 2.559 2.741c.014.014.028.027.042.041l.038.034c.015.013.031.026.048.038l.038.028c.018.013.038.025.058.036l.034.02c.024.014.048.025.074.036l.023.011c.03.013.061.025.093.035h.01c.097.032.208.05.324.051h.007.002c.156 0 .305-.033.439-.092l-.007.003.012-.006c.029-.013.058-.026.085-.042l.024-.014c.023-.014.046-.027.067-.042l.03-.022c.019-.014.038-.029.056-.044l.03-.027c.017-.015.034-.031.049-.047l.011-.011 2.546-2.727c.173-.192.28-.449.28-.729 0-.603-.489-1.091-1.091-1.091-.307 0-.585.127-.783.332z"/><path d="m12.727 4.8h-11.636c-.603 0-1.091.489-1.091 1.091v2.835.03c0 .603.489 1.091 1.091 1.091s1.091-.489 1.091-1.091c0-.01 0-.021 0-.031v.002-1.745h3.637v9.454h-1.685c-.59.016-1.062.499-1.062 1.091s.472 1.074 1.06 1.091h.002 5.551c.59-.016 1.062-.499 1.062-1.091s-.472-1.074-1.06-1.091h-.002-1.685v-9.454h3.636v1.745.03c0 .603.489 1.091 1.091 1.091s1.091-.489 1.091-1.091c0-.01 0-.021 0-.031v.002-2.835c0-.602-.488-1.091-1.09-1.091z"/></svg>