<!--Generated by Fontisto--><svg viewBox="0 0 20 24" xmlns="http://www.w3.org/2000/svg"><path d="m15.853 5.286.791-3.978c.014-.065.021-.139.021-.215 0-.604-.49-1.094-1.094-1.094-.228 0-.439.07-.615.189l.004-.002-5.359 3.581c-.025.016-.048.034-.071.053l-.015.011q-.041.034-.078.071l-.027.025c-.017.018-.034.036-.05.055l-.018.024c-.015.021-.032.04-.046.062l-.01.016c-.016.025-.031.049-.045.076l-.004.009c-.015.028-.029.058-.041.086v.004c-.013.032-.025.064-.034.096v.009c-.009.031-.017.063-.024.095 0 .01 0 .02-.004.03 0 .025-.009.05-.011.075s-.004.064-.005.096v.012c0 .036 0 .073.005.109 0 .022.006.044.009.066s0 .027.006.04c.006.028.013.056.021.086 0 .007 0 .014.005.02.009.029.02.058.03.086l.005.015c.012.028.025.056.04.086l.007.014c.015.028.032.055.049.082l.006.01v.004l3.577 5.354c.199.295.532.486.91.486.529 0 .97-.375 1.072-.873l.001-.007.515-2.586c1.746 1.48 2.847 3.675 2.847 6.127 0 4.428-3.59 8.018-8.018 8.018s-8.018-3.59-8.018-8.018c0-2.214.898-4.219 2.349-5.67.178-.194.288-.454.288-.739 0-.604-.49-1.094-1.094-1.094-.285 0-.545.109-.74.288l.001-.001c-1.849 1.848-2.992 4.402-2.992 7.222 0 5.64 4.572 10.212 10.212 10.212s10.212-4.572 10.212-10.212c0-3.537-1.798-6.654-4.53-8.487l-.037-.023z"/></svg>