<!--Generated by Fontisto--><svg viewBox="0 0 29 24" xmlns="http://www.w3.org/2000/svg"><path d="m7.076 24v-.007c-.608-.064-1.078-.574-1.078-1.193 0-.344.145-.654.377-.873l.001-.001 7.076-8.262c.222-.284.564-.465.949-.465s.727.181.947.462l.002.003 7.076 8.261c.233.219.377.53.377.874 0 .62-.47 1.129-1.072 1.193h-.005v.007zm14.35-6-2.057-2.4h7.025v-13.2h-23.994v13.2h7.024l-2.057 2.4h-4.967c-1.325-.001-2.399-1.075-2.4-2.4v-13.199c.001-1.325 1.075-2.399 2.4-2.4h23.999c1.325.001 2.399 1.075 2.4 2.4v13.199c-.001 1.325-1.075 2.399-2.4 2.4z"/></svg>