<!--Generated by Fontisto--><svg viewBox="0 0 26 24" xmlns="http://www.w3.org/2000/svg"><path d="m22.5 24v-7.845c-1.306-.344-2.253-1.514-2.253-2.905s.947-2.562 2.232-2.901l.021-.005v-10.344h1.5v10.344c1.306.344 2.253 1.514 2.253 2.906s-.947 2.562-2.232 2.901l-.021.005v7.845zm-9.75 0v-12.845c-1.306-.344-2.253-1.514-2.253-2.905s.947-2.562 2.232-2.901l.021-.005v-5.344h1.5v5.344c1.306.344 2.253 1.514 2.253 2.905s-.947 2.562-2.232 2.901l-.021.005v12.845zm-10.5 0v-3.845c-1.306-.344-2.253-1.514-2.253-2.905s.947-2.562 2.232-2.901l.021-.005v-14.344h1.5v14.344c1.306.344 2.253 1.514 2.253 2.905s-.947 2.562-2.232 2.901l-.021.005v3.845z"/></svg>