<!--Generated by Fontisto--><svg viewBox="0 0 21 24" xmlns="http://www.w3.org/2000/svg"><path d="m18.756 12.075v.019c0 .348-.276.632-.621.645h-.001c-.028-.005-.054-.012-.077-.022l.003.001c-.505-.78-1.365-1.293-2.346-1.308h-.002c-1.62.071-2.907 1.401-2.907 3.033 0 .044.001.087.003.13v-.006 6.282c-.002.037-.003.081-.003.125 0 1.628 1.285 2.956 2.896 3.025h.006.145c.194 0 .379-.044.544-.121l-.008.003v.006c.166-.075.332-.155.494-.241.582-.329 1.081-.726 1.507-1.191l.004-.004c.745-.83 1.286-1.858 1.535-2.996l.008-.044c.011-.048.027-.102.037-.15.393-1.877.618-4.035.618-6.244 0-.692-.022-1.378-.066-2.059l.005.093c-.047-2.992-1.17-5.712-2.997-7.801l.012.014c0-.006-.006-.006-.011-.011-.402-.438-.833-.835-1.295-1.194l-.024-.018c-.443-.35-.942-.672-1.47-.945l-.052-.025c-1.274-.676-2.786-1.072-4.39-1.072-.002 0-.004 0-.005 0-.003 0-.007 0-.011 0-1.602 0-3.111.397-4.434 1.097l.052-.025c-.581.304-1.079.626-1.545.987l.023-.017c-.488.376-.92.773-1.317 1.204l-.007.007-.011.011c-1.826 2.066-2.955 4.786-2.996 7.768v.008c-.039.588-.061 1.275-.061 1.967 0 2.21.225 4.367.654 6.449l-.035-.206c.012.061.025.112.04.161l-.003-.011c.257 1.181.798 2.209 1.549 3.045l-.005-.006c.431.469.929.866 1.481 1.179l.03.016c.136.08.298.161.466.231l.028.01v-.006c.157.074.341.117.535.118h.145c1.618-.073 2.902-1.403 2.902-3.032 0-.042-.001-.083-.003-.125v.006-6.271c.002-.037.003-.08.003-.124 0-1.631-1.287-2.962-2.901-3.032h-.006c-.981.015-1.84.528-2.335 1.297l-.007.011c-.027 0-.054.021-.08.021-.346-.013-.622-.297-.622-.645 0-.007 0-.013 0-.02v.001c0-.016.016-.027.016-.037.011-.289.027-.584.043-.874.045-.877.169-1.701.367-2.495l-.019.089c.319-1.376.907-2.581 1.71-3.611l-.015.021c.134-.177.279-.343.428-.509.172-.182.343-.359.525-.52.085-.08.172-.15.257-.225.553-.473 1.183-.881 1.863-1.2l.051-.021c.953-.448 2.07-.711 3.248-.715h.002c1.18 0 2.299.263 3.301.733l-.048-.02c.731.341 1.361.749 1.925 1.231l-.011-.01c.085.075.172.15.252.225.182.161.353.337.525.52.15.166.295.332.428.509.785 1.01 1.371 2.215 1.676 3.529l.012.062c.181.706.307 1.529.352 2.374l.001.032v.064c0 .285.018.567.052.843l-.003-.033c-.011.006-.011.016-.011.037z"/></svg>