<!--Generated by Fontisto--><svg viewBox="0 0 17 24" xmlns="http://www.w3.org/2000/svg"><path d="m8.4 16.8c2.65-.003 4.797-2.15 4.8-4.8v-7.2c0-2.651-2.149-4.8-4.8-4.8s-4.8 2.149-4.8 4.8v7.2c.003 2.65 2.15 4.797 4.8 4.8z"/><path d="m16.8 12v-2.4c0-.663-.537-1.2-1.2-1.2s-1.2.537-1.2 1.2v2.4c0 3.314-2.686 6-6 6s-6-2.686-6-6v-2.4c0-.663-.537-1.2-1.2-1.2s-1.2.537-1.2 1.2v2.4c.007 4.211 3.11 7.695 7.154 8.298l.046.006v1.296h-3.6c-.663 0-1.2.537-1.2 1.2s.537 1.2 1.2 1.2h9.6c.663 0 1.2-.537 1.2-1.2s-.537-1.2-1.2-1.2h-3.6v-1.296c4.09-.609 7.193-4.093 7.2-8.303z"/></svg>