<!--Generated by Fontisto--><svg viewBox="0 0 24 24" xmlns="http://www.w3.org/2000/svg"><path d="m21.521 10.145c-.449-.091-.81-.401-.97-.811l-.003-.009-.609-1.482c-.074-.159-.118-.345-.118-.542 0-.269.081-.519.221-.727l-.003.005.988-1.318c.108-.153.172-.344.172-.55 0-.233-.083-.447-.221-.614l.001.002-1.082-1.085c-.165-.136-.379-.218-.612-.218-.207 0-.398.065-.555.175l.003-.002-1.316.988c-.203.138-.453.22-.722.22-.197 0-.383-.044-.55-.122l.008.003-1.482-.609c-.42-.161-.731-.522-.819-.963l-.001-.008-.229-1.631c-.079-.427-.417-.756-.841-.822l-.006-.001s-.26-.025-.776-.025-.769.026-.769.026c-.433.064-.773.393-.853.815l-.001.006-.233 1.629c-.091.449-.401.809-.811.968l-.009.003-1.482.609c-.159.075-.345.118-.542.118-.269 0-.519-.082-.727-.222l.005.003-1.318-.988c-.154-.109-.345-.174-.552-.174-.233 0-.446.083-.613.22l.002-.001-1.079 1.087c-.136.165-.219.378-.219.611 0 .206.065.397.175.554l-.002-.003.988 1.318c.138.203.22.454.22.723 0 .196-.044.382-.121.549l.003-.008-.611 1.482c-.162.419-.522.73-.963.819l-.008.001-1.631.23c-.427.082-.754.422-.817.849l-.001.006s-.029.256-.029.769.027.77.027.77c.064.432.393.773.814.852l.006.001 1.629.232c.449.091.81.4.97.811l.003.009.611 1.482c.074.159.118.345.118.541 0 .27-.082.52-.223.728l.003-.005-.988 1.318c-.141.157-.227.366-.227.594 0 .146.035.283.097.405l-.002-.005c.175.217.677.752.678.754s.171.156.375.344 1.042.449 1.372.203l1.317-.988c.203-.137.453-.219.722-.219.197 0 .383.044.55.122l-.008-.003 1.482.609c.42.161.731.522.819.963l.001.008.229 1.626c.08.428.42.757.846.822l.006.001s.257.025.772.025.77-.027.77-.027c.43-.067.768-.396.846-.816l.001-.006.234-1.629c.09-.449.4-.81.811-.968l.009-.003 1.482-.611c.159-.074.345-.118.541-.118.27 0 .52.082.728.223l-.005-.003 1.318.988c.154.108.345.172.551.172.234 0 .448-.083.615-.221l-.002.001 1.082-1.084c.136-.166.219-.38.219-.613 0-.206-.064-.397-.174-.554l.002.003-.988-1.318c-.137-.203-.218-.453-.218-.722 0-.197.043-.383.121-.55l-.003.008.609-1.482c.163-.42.524-.73.965-.819l.008-.001 1.627-.232c.428-.08.758-.42.822-.846l.001-.006s.027-.249.027-.765-.027-.77-.027-.77c-.065-.433-.396-.774-.818-.852l-.006-.001zm-9.523 4.855c-1.657 0-3.001-1.343-3.001-3.001s1.343-3.001 3.001-3.001c1.657 0 3 1.343 3.001 3v.001c0 1.657-1.343 3.001-3.001 3.001z"/></svg>