<!--Generated by Fontisto--><svg viewBox="0 0 20 24" xmlns="http://www.w3.org/2000/svg"><path d="m10.064 11.853c.021.001.046.001.071.001 1.326 0 2.406-1.054 2.448-2.37v-.004c-.042-1.32-1.122-2.374-2.448-2.374-.025 0-.05 0-.075.001h.004c-.021-.001-.046-.001-.071-.001-1.326 0-2.406 1.054-2.448 2.37v.004c.042 1.32 1.122 2.374 2.448 2.374.025 0 .05 0 .075-.001zm0-8.302c-.053-.002-.115-.003-.177-.003-3.314 0-6.013 2.634-6.118 5.922v.01c.006 1.611.676 3.065 1.75 4.102l.002.002c.342-.519.787-.944 1.308-1.252l.018-.01c-.734-.724-1.191-1.729-1.195-2.84v-.001c.074-2.31 1.964-4.155 4.285-4.155.044 0 .087.001.131.002h-.006c.037-.001.081-.002.125-.002 2.321 0 4.211 1.844 4.285 4.147v.007c-.004 1.115-.463 2.121-1.199 2.846l-.001.001c.541.319.987.745 1.321 1.251l.009.015c1.08-1.04 1.753-2.497 1.76-4.111v-.001c-.105-3.298-2.804-5.932-6.118-5.932-.062 0-.124.001-.186.003h.009zm0-3.55c-5.559-.001-10.064 4.244-10.064 9.479.038 3.458 1.944 6.461 4.754 8.055l.046.024c-.059-.392-.093-.846-.094-1.307v-.001c.005-.309.039-.606.099-.894l-.005.031c-1.774-1.38-2.909-3.51-2.925-5.906v-.003c0-4.259 3.666-7.712 8.188-7.712s8.188 3.453 8.188 7.712c-.016 2.403-1.156 4.537-2.919 5.905l-.017.013c.055.254.089.547.096.848v.005c-.001.466-.036.922-.102 1.368l.006-.052c2.863-1.617 4.774-4.625 4.812-8.082v-.005c0-5.236-4.506-9.48-10.064-9.48zm0 13.039c-.029-.001-.063-.001-.098-.001-1.823 0-3.308 1.449-3.367 3.258v.005c0 1.802 1.553 7.694 3.464 7.694s3.464-5.896 3.464-7.694c-.058-1.815-1.543-3.265-3.367-3.265-.034 0-.069.001-.103.002h.005z"/></svg>