<!--Generated by Fontisto--><svg viewBox="0 0 24 24" xmlns="http://www.w3.org/2000/svg"><path d="m19.555 23.411-6.664-3.285c-.163-.082-.355-.13-.559-.13-.235 0-.455.064-.643.175l.006-.003-6.416 3.75c-.086.05-.19.079-.3.079-.336 0-.609-.273-.609-.609 0-.033.003-.064.007-.096v.003l.994-7.542c.007-.049.011-.105.011-.162 0-.364-.155-.691-.403-.92l-.001-.001-4.571-4.247c-.248-.231-.402-.56-.402-.924 0-.625.454-1.144 1.05-1.246l.007-.001 5.987-1.108c.421-.078.765-.355.935-.727l.003-.008 2.491-5.663c.204-.444.646-.746 1.157-.746.48 0 .897.266 1.114.659l.003.007 2.881 5.471c.197.365.558.62.981.666h.006l6.045.681c.647.061 1.149.601 1.149 1.259 0 .332-.128.635-.338.86l.001-.001-4.27 4.562c-.211.224-.341.527-.341.86 0 .088.009.173.026.256l-.001-.008 1.52 7.453c.009.04.015.086.015.134 0 .337-.273.61-.61.61-.095 0-.185-.022-.265-.061l.004.002z"/></svg>