<!--Generated by Fontisto--><svg viewBox="0 0 24 24" xmlns="http://www.w3.org/2000/svg"><path d="m11.855.029c-.082-.018-.176-.029-.273-.029-.522 0-.973.307-1.181.75l-.003.008-2.511 5.669c-.092.387-.411.678-.805.728h-.005l-5.993 1.134c-.285.075-.531.216-.73.406l.001-.001c-.219.218-.355.52-.355.854 0 .372.169.705.434.926l.002.002 4.535 4.212c.253.229.412.558.412.924 0 .045-.002.09-.007.134v-.005l-.972 7.532c-.002.02-.003.042-.003.065 0 .124.031.241.086.343l-.002-.004c.097.192.292.322.518.322.107 0 .208-.029.294-.08l-.003.001 6.398-3.726c.081 0 .162-.081.243-.081v-20.086z"/></svg>