<!--Generated by Fontisto--><svg viewBox="0 0 23 24" xmlns="http://www.w3.org/2000/svg"><path d="m21.108 23.855-18.708-10.494v10.038.002c0 .331-.268.599-.599.599-.001 0-.001 0-.002 0h-1.2c-.001 0-.001 0-.002 0-.331 0-.599-.268-.599-.599 0-.001 0-.001 0-.002v-22.799-.001c0-.331.268-.599.599-.599h.001 1.2.001c.331 0 .599.268.599.599v.001 10.038l18.708-10.493c.159-.089.348-.141.549-.141.631 0 1.142.511 1.142 1.142v.024-.001 21.665.015c0 .634-.511 1.149-1.143 1.155h-.001c-.202-.002-.39-.057-.552-.152l.005.003z"/></svg>