<!--Generated by Fontisto--><svg viewBox="0 0 31 24" xmlns="http://www.w3.org/2000/svg"><path d="m15.881.133-8.791 5.055v13.625l8.791 5.055c.726.416 1.572-.202 1.572-1.145v-21.444c0-.945-.847-1.564-1.572-1.145z"/><path d="m6 5.727-4.926.01c-.606.057-1.076.562-1.076 1.178 0 .028.001.057.003.085v-.004 10.256c-.002.025-.003.055-.003.084 0 .609.467 1.109 1.062 1.162h.004 4.935v-12.772z"/><path d="m26.289 12.034v.009c0 .876-.265 1.691-.719 2.367l.01-.015c-.447.7-1.089 1.241-1.85 1.551l-.026.009c-.112.052-.244.082-.383.082-.012 0-.024 0-.036-.001h.002c-.004 0-.008 0-.012 0-.289 0-.551-.118-.739-.308-.195-.186-.317-.448-.317-.738 0-.007 0-.015 0-.022v.001c0-.008 0-.017 0-.026 0-.216.076-.413.202-.568l-.001.002c.137-.163.296-.302.475-.412l.008-.005q.284-.175.567-.384c.204-.159.367-.36.479-.591l.004-.01c.126-.277.199-.6.199-.941s-.073-.664-.205-.955l.006.015c-.116-.241-.28-.441-.48-.598l-.004-.003q-.284-.209-.567-.384c-.187-.115-.347-.254-.481-.414l-.002-.003c-.125-.153-.201-.351-.201-.567 0-.009 0-.018 0-.027v.001c0-.006 0-.014 0-.021 0-.29.121-.552.316-.738.189-.191.45-.309.739-.309h.012-.001c.01 0 .023-.001.035-.001.139 0 .27.03.388.085l-.006-.002c.791.311 1.435.851 1.868 1.539l.009.016c.445.666.709 1.484.709 2.365v.001zm4.272 0v.037c0 1.743-.53 3.362-1.437 4.706l.019-.03c-.907 1.396-2.188 2.48-3.701 3.125l-.054.02c-.123.05-.267.08-.417.082h-.001c-.005 0-.011 0-.018 0-.294 0-.56-.121-.75-.317-.195-.187-.317-.45-.317-.741 0-.003 0-.007 0-.01v.001c0-.001 0-.002 0-.003 0-.439.267-.815.648-.976l.007-.003c.493-.243.908-.488 1.303-.759l-.035.023c1.595-1.174 2.619-3.045 2.619-5.154s-1.024-3.98-2.601-5.142l-.018-.012c-.36-.249-.776-.494-1.208-.709l-.06-.027c-.387-.163-.655-.54-.655-.979 0-.001 0-.002 0-.003.008-.586.481-1.06 1.067-1.068h.001c.156 0 .305.03.442.085l-.008-.003c1.567.665 2.848 1.749 3.735 3.113l.019.032c.888 1.314 1.418 2.933 1.418 4.676v.039-.002z"/></svg>