<!--Generated by Fontisto--><svg viewBox="0 0 29 24" xmlns="http://www.w3.org/2000/svg"><path d="m15.883.133-8.793 5.055v13.625l8.793 5.055c.724.416 1.571-.202 1.571-1.145v-21.444c0-.945-.847-1.564-1.571-1.145z"/><path d="m6 5.615-4.926.01c-.606.057-1.076.562-1.076 1.178 0 .028.001.057.003.085v-.004 10.256c-.002.025-.003.055-.003.084 0 .609.467 1.109 1.062 1.162h.004 4.936v-12.772z"/><path d="m29.196 8.508-.887-.884-3.491 3.491-3.492-3.491-.884.884 3.491 3.491-3.491 3.492.884.887 3.491-3.491 3.492 3.491.887-.887-3.494-3.491z"/></svg>