<!--Generated by Fontisto--><svg viewBox="0 0 25 24" xmlns="http://www.w3.org/2000/svg"><path d="m12.474 24c-.054.001-.118.001-.182.001-2.534 0-4.886-.778-6.83-2.108l.042.027c-2.002-1.361-3.565-3.23-4.521-5.425l-.032-.081c-.534-1.224-.869-2.645-.925-4.139l-.001-.022c-.017-.285-.026-.619-.026-.954 0-1.289.14-2.544.407-3.753l-.021.115c.357-1.63.885-3.07 1.58-4.41l-.046.099c.642-1.303 1.471-2.412 2.467-3.345l.006-.006-.152 3.882q.152-.194.939-.214t.967.214c.517-.854 1.278-1.516 2.187-1.895l.031-.011c.943-.482 2.053-.78 3.228-.815h.012c-.638.59-1.186 1.266-1.629 2.011l-.023.041c-.484.619-.785 1.402-.808 2.254v.005c.243.077.535.142.834.183l.029.003q.518.076.87.104t.939.055.698.042q.207.069.131.629c-.057.396-.207.748-.426 1.046l.004-.006c-.072.094-.147.178-.227.255l-.001.001c-.227.184-.483.347-.757.48l-.024.01c-.404.216-.872.379-1.367.466l-.028.004.212 2.616-1.92-.926c-.098.208-.156.453-.156.711 0 .148.019.291.054.428l-.003-.012c.096.357.268.666.499.921l-.002-.002c.242.26.546.457.89.569l.015.004c.219.078.471.123.735.123.136 0 .27-.012.399-.035l-.014.002c.509-.093.963-.26 1.377-.492l-.022.012q.65-.352 1.154-.622c.268-.152.589-.242.93-.242.03 0 .06.001.089.002h-.004.021c.467 0 .893.173 1.218.458l-.002-.002c.184.166.299.405.299.671 0 .081-.011.159-.03.233l.001-.006q-.014.028-.034.076c-.036.066-.075.122-.119.174l.001-.001c-.069.086-.151.158-.245.212l-.004.002c-.126.068-.272.118-.427.144l-.008.001c-.11.02-.236.032-.364.032-.097 0-.193-.007-.287-.019l.011.001c-.48.803-1.16 1.442-1.973 1.859l-.027.013c-.645.286-1.398.452-2.189.452-.249 0-.493-.016-.733-.048l.028.003c.625.527 1.379.922 2.207 1.132l.038.008c.404.108.867.17 1.346.17.347 0 .687-.033 1.016-.095l-.034.005c.804-.16 1.519-.409 2.183-.742l-.049.022c.679-.329 1.262-.733 1.773-1.212l-.004.003c.441-.407.812-.883 1.098-1.411l.014-.029c.344-.706.545-1.536.545-2.413 0-.087-.002-.173-.006-.259v.012c-.031-.944-.218-1.835-.537-2.66l.019.055c-.228-.678-.602-1.256-1.086-1.719l-.002-.001c.723.3 1.347.669 1.91 1.111l-.017-.013c.475.41.84.933 1.056 1.529l.008.025c.015-.208.023-.45.023-.695 0-3.191-1.436-6.047-3.698-7.956l-.016-.013c2.344.63 4.306 1.998 5.674 3.834l.02.027c1.309 1.909 2.091 4.269 2.091 6.812 0 .119-.002.238-.005.356v-.017c0 .036.001.078.001.12 0 1.217-.205 2.386-.583 3.474l.022-.074c-.423 1.256-1.002 2.346-1.729 3.32l.022-.031c-.762 1.027-1.622 1.917-2.583 2.685l-.029.022c-2.02 1.592-4.6 2.555-7.405 2.56h-.001z"/></svg>