<!--Generated by Fontisto--><svg viewBox="0 0 24 24" xmlns="http://www.w3.org/2000/svg"><path d="m24.436 12.56v.051c0 .482-.035.956-.102 1.42l.006-.053h-15.695c0 .022-.001.049-.001.075 0 1.3.577 2.466 1.488 3.255l.005.005c.902.833 2.112 1.344 3.442 1.344.024 0 .049 0 .073-.001h-.004.025c.918 0 1.781-.235 2.532-.648l-.027.014c.78-.419 1.411-1.025 1.85-1.76l.012-.022h5.768c-.528 1.489-1.32 2.767-2.33 3.837l.005-.005c-2.011 2.143-4.86 3.478-8.022 3.478-1.769 0-3.441-.418-4.921-1.161l.063.029c-1.546.894-3.381 1.467-5.339 1.581l-.033.002q-3.232 0-3.232-3.586c.039-1.351.26-2.636.641-3.85l-.027.101c.454-1.208.954-2.236 1.536-3.21l-.05.09c1.748-3.199 3.909-5.929 6.454-8.241l.026-.023q-2.509 1.078-5.822 4.827c.564-2.505 1.945-4.623 3.842-6.112l.023-.018c1.822-1.49 4.175-2.393 6.739-2.393h.105-.005q.409 0 .614.014c1.715-.898 3.728-1.474 5.863-1.597l.039-.002h.068c.537 0 1.059.065 1.559.187l-.045-.009c.489.121.919.311 1.305.562l-.016-.01c.391.258.7.61.901 1.025l.007.015c.207.436.328.946.328 1.486 0 .029 0 .058-.001.087v-.004c-.081 1.434-.45 2.764-1.049 3.958l.026-.058c.866 1.518 1.376 3.336 1.376 5.272v.053-.003zm-.954-8.728c.002-.034.003-.073.003-.112 0-.663-.277-1.262-.722-1.687l-.001-.001c-.465-.416-1.081-.67-1.758-.67-.039 0-.077.001-.116.002h.005c-1.277.065-2.461.411-3.508.976l.044-.022c1.164.459 2.167 1.064 3.051 1.806l-.017-.014c.907.756 1.678 1.636 2.298 2.62l.027.046c.378-.864.626-1.867.692-2.919l.001-.025zm-21.736 16.868c-.003.046-.005.099-.005.153 0 .643.254 1.226.667 1.655l-.001-.001c.446.397 1.037.639 1.685.639.053 0 .105-.002.157-.005h-.007c1.351-.077 2.592-.488 3.66-1.151l-.033.019c-1.133-.677-2.095-1.507-2.894-2.477l-.015-.019c-.79-.948-1.427-2.057-1.852-3.266l-.023-.075c-.727 1.309-1.208 2.849-1.337 4.488l-.002.039zm6.872-9.722h9.927c-.027-1.296-.617-2.448-1.535-3.227l-.006-.005c-.908-.804-2.11-1.295-3.426-1.295s-2.518.491-3.431 1.3l.005-.005c-.92.785-1.508 1.938-1.534 3.227z"/></svg>