<!--Generated by Fontisto--><svg viewBox="0 0 24 24" xmlns="http://www.w3.org/2000/svg"><path d="m19.995 3.054c-1.339-.923-2.996-1.474-4.782-1.474-.009 0-.018 0-.028 0h.001c-.005 0-.012 0-.018 0-1.43 0-2.775.363-3.949 1.002l.043-.022c-1.272.685-2.341 1.583-3.199 2.658l-.016.021c-.666.833-1.208 1.801-1.579 2.851l-.021.069c-.384 1.057-.62 2.277-.649 3.549v.014.56c.03 1.284.266 2.503.675 3.64l-.025-.08c.392 1.119.934 2.087 1.615 2.94l-.015-.02c.873 1.096 1.942 1.994 3.16 2.653l.054.027c1.129.616 2.473.978 3.901.978h.024-.001.026c1.786 0 3.443-.551 4.811-1.492l-.029.019c-1.04.934-2.258 1.696-3.594 2.227l-.082.029c-1.264.506-2.73.8-4.264.8-.02 0-.04 0-.059 0h.003q-.388 0-.576-.014c-1.633-.073-3.156-.47-4.53-1.129l.07.03c-2.766-1.278-4.909-3.512-6.039-6.269l-.029-.079c-.567-1.341-.897-2.9-.897-4.536 0-1.685.35-3.288.98-4.741l-.03.077c1.222-2.903 3.486-5.166 6.311-6.36l.077-.029c1.364-.601 2.955-.951 4.627-.951h.035.038c3.062.011 5.853 1.168 7.966 3.064l-.011-.01zm4.005 8.946v.061c0 1.737-.38 3.386-1.061 4.867l.03-.072c-.706 1.554-1.668 2.874-2.845 3.964l-.008.007c-.844.53-1.869.844-2.968.844-.002 0-.004 0-.005 0-1.286-.002-2.472-.424-3.431-1.136l.015.011c1.489-.606 2.674-1.701 3.378-3.083l.017-.037c.84-1.507 1.335-3.307 1.335-5.221 0-.072-.001-.144-.002-.215v.011c.001-.059.002-.129.002-.199 0-1.911-.492-3.706-1.356-5.267l.028.056c-.72-1.421-1.902-2.52-3.345-3.118l-.043-.016c.942-.69 2.123-1.106 3.4-1.112h.001c1.122.002 2.167.326 3.05.884l-.024-.014c1.176 1.09 2.128 2.403 2.789 3.876l.03.075c.639 1.405 1.011 3.046 1.011 4.775v.063-.003z"/></svg>